<svg xmlns="http://www.w3.org/2000/svg" viewBox="0 0 179.59 286.88"><title>blue house</title><polygon points="177.68 233.59 177.68 52.03 91.12 1.36 53.12 18.25 0.34 73.14 0.34 248.36 127.01 286.36 177.68 233.59" fill="#f4f0ea"/><path d="M69.88,255.44c.05,1.05.32,2.07.39,3.12.06.86.13,1.7.27,2.54s1.6.55,1.44-.39-.18-1.68-.23-2.52-.33-1.83-.37-2.75-1.55-1-1.5,0Z" fill="#2d8dbc"/><path d="M67.46,255.18a7.5,7.5,0,0,1-.39,1.25c-.11.46-.22.88-.36,1.33-.35,1.09-.5,2.21-.82,3.3-.27.92,1.16,1.31,1.45.39l.07-.22c.29-.92-1.16-1.31-1.45-.4l-.07.23,1.45.39c.34-1.18.54-2.39.91-3.57a12.37,12.37,0,0,0,.71-2.7c.06-1-1.44-1-1.5,0Z" fill="#2d8dbc"/><line x1="126.74" y1="101.53" x2="126.73" y2="285.41" fill="none" stroke="#2d8dbc" stroke-miterlimit="10" stroke-width="2.61"/><polyline points="1.32 70.81 1.31 248.92 126.73 285.41 178.27 233.86 176.99 138.52" fill="none" stroke="#2d8dbc" stroke-miterlimit="10" stroke-width="2.63"/><line x1="1.5" y1="158.9" x2="126.74" y2="191.27" fill="none" stroke="#2d8dbc" stroke-miterlimit="10" stroke-width="2.63"/><line x1="1.5" y1="114.85" x2="126.74" y2="147.23" fill="none" stroke="#2d8dbc" stroke-miterlimit="10" stroke-width="2.63"/><path d="M1.5,70.81l125.24,32.38,50.51-50.51a.59.59,0,0,1,1,.43l-1.19,94.12" fill="none" stroke="#2d8dbc" stroke-miterlimit="10" stroke-width="2.63"/><path d="M126.74,103.19,90.43,2.15,2.58,70.81,54.12,19.27,177.69,51.49a.08.08,0,0,0,.06-.14L90.43,2.15,54.12,19.27" fill="none" stroke="#2d8dbc" stroke-miterlimit="10" stroke-width="2.63"/><path d="M58.67,62.07a1.06,1.06,0,0,0,0-2.11,1.06,1.06,0,0,0,0,2.11Z" fill="#2d8dbc"/><path d="M48.65,58.4a1.06,1.06,0,0,0,0-2.11,1.06,1.06,0,0,0,0,2.11Z" fill="#2d8dbc"/><path d="M57,50.82a1.06,1.06,0,0,0,0-2.11,1.06,1.06,0,0,0,0,2.11Z" fill="#2d8dbc"/><path d="M50.19,45.61v-.24a1.06,1.06,0,0,0-2.11,0v.24a1.06,1.06,0,0,0,2.11,0Z" fill="#2d8dbc"/><path d="M44.73,56.93a1.06,1.06,0,0,0,0-2.11,1.06,1.06,0,0,0,0,2.11Z" fill="#2d8dbc"/><path d="M28.6,58.89a1.06,1.06,0,0,0,0-2.11,1.06,1.06,0,0,0,0,2.11Z" fill="#2d8dbc"/><path d="M35.94,50.09a1.06,1.06,0,0,0,0-2.11,1.06,1.06,0,0,0,0,2.11Z" fill="#2d8dbc"/><path d="M37.65,56.69a1.06,1.06,0,0,0,0-2.11,1.06,1.06,0,0,0,0,2.11Z" fill="#2d8dbc"/><path d="M36,64.43v-.49a1.06,1.06,0,0,0-2.11,0v.49a1.06,1.06,0,0,0,2.11,0Z" fill="#2d8dbc"/><path d="M22.49,62.31a1.06,1.06,0,0,0,0-2.11,1.06,1.06,0,0,0,0,2.11Z" fill="#2d8dbc"/><path d="M15.66,66.89l.25-.24a1.06,1.06,0,0,0-1.5-1.5l-.24.25a1.05,1.05,0,0,0,1.49,1.49Z" fill="#2d8dbc"/><path d="M23.88,67.37v.15a1.06,1.06,0,0,0,2.11,0v-.15a1.06,1.06,0,0,0-2.11,0v.15a1.06,1.06,0,0,0,2.11,0v-.15a1.06,1.06,0,0,0-2.11,0Z" fill="#2d8dbc"/><path d="M29.09,73.55a1.06,1.06,0,0,0,0-2.11,1.06,1.06,0,0,0,0,2.11Z" fill="#2d8dbc"/><path d="M45.06,68.34V68.1a1.06,1.06,0,0,0-2.11,0v.24a1.06,1.06,0,0,0,2.11,0Z" fill="#2d8dbc"/><path d="M50.6,71.44h-.24a1.06,1.06,0,0,0,0,2.11h.24a1.06,1.06,0,0,0,0-2.11Z" fill="#2d8dbc"/><path d="M43.27,76.49a1.06,1.06,0,0,0,0-2.11,1.06,1.06,0,0,0,0,2.11Z" fill="#2d8dbc"/><path d="M50.36,65.73a1.06,1.06,0,0,0,0-2.11,1.06,1.06,0,0,0,0,2.11Z" fill="#2d8dbc"/><path d="M63.8,69.89a1.06,1.06,0,0,0,0-2.11,1.06,1.06,0,0,0,0,2.11Z" fill="#2d8dbc"/><path d="M70.64,55.56H70.4a1.06,1.06,0,0,0,0,2.11h.24a1.06,1.06,0,0,0,0-2.11Z" fill="#2d8dbc"/><path d="M63.59,53.71l0-.19-.74.73.2,0c1.32-.31.76-2.35-.56-2l-.2,0a1,1,0,0,0-.73.74l0,.19c-.31,1.32,1.72,1.89,2,.56Z" fill="#2d8dbc"/><path d="M69.68,44.13l-.25-.24a1.05,1.05,0,0,0-1.49,1.49l.24.25a1.06,1.06,0,0,0,1.5-1.5Z" fill="#2d8dbc"/><path d="M60.62,40.89h-.24a1.06,1.06,0,0,0,0,2.11h.24a1.06,1.06,0,0,0,0-2.11Z" fill="#2d8dbc"/><path d="M64.12,33.15V32.9a1.06,1.06,0,0,0-2.11,0v.25a1.06,1.06,0,0,0,2.11,0Z" fill="#2d8dbc"/><path d="M52.14,35.1v-.24a1.06,1.06,0,0,0-2.11,0v.24a1.06,1.06,0,0,0,2.11,0Z" fill="#2d8dbc"/><path d="M64.7,36.81v.25a1.06,1.06,0,0,0,2.11,0v-.25a1.06,1.06,0,0,0-2.11,0Z" fill="#2d8dbc"/><path d="M79.45,30.69l.07.26a1.09,1.09,0,0,0-1.06-1.06,1.06,1.06,0,0,0-1,1.06A1.78,1.78,0,0,0,78,32.18c1,.93,2.49-.56,1.49-1.49Z" fill="#2d8dbc"/><path d="M73.82,25.89a1.06,1.06,0,0,0,0-2.11,1.06,1.06,0,0,0,0,2.11Z" fill="#2d8dbc"/><path d="M65.1,27.77v-.24a1.06,1.06,0,0,0-2.11,0v.24a1.06,1.06,0,0,0,2.11,0Z" fill="#2d8dbc"/><path d="M55.49,25.74h-.25a1.06,1.06,0,0,0,0,2.11h.25a1.06,1.06,0,0,0,0-2.11Z" fill="#2d8dbc"/><path d="M64.78,19.05a1.06,1.06,0,0,0,0-2.11,1.06,1.06,0,0,0,0,2.11Z" fill="#2d8dbc"/><path d="M75.29,14.65a1.06,1.06,0,0,0,0-2.11,1.06,1.06,0,0,0,0,2.11Z" fill="#2d8dbc"/><path d="M85.51,21l0,.2a1,1,0,0,0,.73.74l.2.05c1.32.31,1.89-1.73.56-2l-.19-.05.73.74,0-.2c-.31-1.32-2.35-.76-2,.56Z" fill="#2d8dbc"/><path d="M83.8,28.46l-.22.07a1.07,1.07,0,0,0-.77,1,1.18,1.18,0,0,0,1.27,1.24,1.06,1.06,0,0,0,0-2.11h.09l.63.49,0-.07.14.54v-.1l-.78,1,.23-.06a1.06,1.06,0,0,0-.57-2Z" fill="#2d8dbc"/><path d="M81.64,88.71a1.06,1.06,0,0,0,0-2.11,1.06,1.06,0,0,0,0,2.11Z" fill="#2d8dbc"/><path d="M87.1,81.05v-.24a1.06,1.06,0,0,0-2.12,0v.24a1.06,1.06,0,0,0,2.12,0Z" fill="#2d8dbc"/><path d="M83.18,74.21V74a1.06,1.06,0,0,0-2.11,0v.25a1.06,1.06,0,0,0,2.11,0Z" fill="#2d8dbc"/><path d="M75.77,73.8a1.06,1.06,0,0,0,0-2.11,1.06,1.06,0,0,0,0,2.11Z" fill="#2d8dbc"/><path d="M76.51,78.93h.24a1.06,1.06,0,0,0,0-2.11h-.24a1.06,1.06,0,0,0,0,2.11Z" fill="#2d8dbc"/><path d="M76,81.53l-.24-.25a1.06,1.06,0,0,0-1.5,1.5l.25.24A1.05,1.05,0,0,0,76,81.53Z" fill="#2d8dbc"/><path d="M66.49,80.89a1.06,1.06,0,0,0,0-2.12,1.06,1.06,0,0,0,0,2.12Z" fill="#2d8dbc"/><path d="M67,77a1.06,1.06,0,0,0,0-2.12A1.06,1.06,0,0,0,67,77Z" fill="#2d8dbc"/><path d="M74.06,67.2a1.06,1.06,0,0,0,0-2.11,1.06,1.06,0,0,0,0,2.11Z" fill="#2d8dbc"/><path d="M84.12,62l.2-.05a1.07,1.07,0,0,0,.74-.73l0-.2c.31-1.32-1.72-1.89-2-.56l0,.19.74-.73-.2,0c-1.32.31-.76,2.35.56,2Z" fill="#2d8dbc"/><path d="M94.11,53.11h-.74a1.06,1.06,0,0,0,0,2.11h.74a1.06,1.06,0,0,0,0-2.11Z" fill="#2d8dbc"/><path d="M88.77,46.17l-.49-.25a1.06,1.06,0,0,0-1.06,1.83l.49.24a1.05,1.05,0,0,0,1.06-1.82Z" fill="#2d8dbc"/><path d="M80.38,50.54l0,.2a1.07,1.07,0,0,0,.74.73l.2.05c1.32.31,1.89-1.73.56-2l-.2,0,.74.73,0-.19c-.31-1.33-2.34-.77-2,.56Z" fill="#2d8dbc"/><path d="M90.65,55.43l.2,0-.74-.74,0,.2c.32,1.32,2.35.76,2-.56l0-.2a1,1,0,0,0-.73-.74l-.2,0c-1.32-.31-1.89,1.73-.56,2Z" fill="#2d8dbc"/><path d="M116.18,88.14V87.9a1.06,1.06,0,0,0-2.11,0v.24a1.06,1.06,0,0,0,2.11,0Z" fill="#2d8dbc"/><path d="M106.33,83.09a1.06,1.06,0,0,0,0-2.12,1.06,1.06,0,0,0,0,2.12Z" fill="#2d8dbc"/><path d="M114.43,76.93c.14-.81-.08-1.6-1-1.78a1.08,1.08,0,0,0-1.3.73,1.07,1.07,0,0,0,.74,1.3l.2,0-.74-.73.05-.12a1.08,1.08,0,0,0,.73,1.3,1.06,1.06,0,0,0,1.3-.74Z" fill="#2d8dbc"/><path d="M107.06,73.31a1.06,1.06,0,0,0,0-2.11,1.06,1.06,0,0,0,0,2.11Z" fill="#2d8dbc"/><path d="M105.35,71.93h-.25a1.06,1.06,0,0,0,0,2.11h.25a1.06,1.06,0,0,0,0-2.11Z" fill="#2d8dbc"/><path d="M101.44,80.4a1.06,1.06,0,0,0,0-2.11,1.06,1.06,0,0,0,0,2.11Z" fill="#2d8dbc"/><path d="M95,85v.15a1.06,1.06,0,0,0,2.11,0V85A1.06,1.06,0,0,0,95,85v.15a1.06,1.06,0,0,0,2.11,0V85A1.06,1.06,0,0,0,95,85Z" fill="#2d8dbc"/><path d="M94.59,76a1.06,1.06,0,0,0,0-2.11,1.06,1.06,0,0,0,0,2.11Z" fill="#2d8dbc"/><path d="M105.18,65.65v-.24a1.06,1.06,0,0,0-2.11,0v.24a1.06,1.06,0,0,0,2.11,0Z" fill="#2d8dbc"/><path d="M108.28,58.89a1.06,1.06,0,0,0,0-2.11,1.06,1.06,0,0,0,0,2.11Z" fill="#2d8dbc"/><path d="M95.08,67.44a1.06,1.06,0,0,0,0-2.11,1.06,1.06,0,0,0,0,2.11Z" fill="#2d8dbc"/><path d="M102.66,56.93a1.06,1.06,0,0,0,0-2.11,1.06,1.06,0,0,0,0,2.11Z" fill="#2d8dbc"/><path d="M119,51.31a1.06,1.06,0,0,0,0-2.11,1.06,1.06,0,0,0,0,2.11Z" fill="#2d8dbc"/><path d="M148.3,69.12l.24-.49a1.07,1.07,0,0,0-.38-1.44,1.05,1.05,0,0,0-1.44.38l-.24.48a1.06,1.06,0,1,0,1.82,1.07Z" fill="#2d8dbc"/><path d="M145.19,60.6a1.06,1.06,0,0,0,0-2.11,1.06,1.06,0,0,0,0,2.11Z" fill="#2d8dbc"/><path d="M136.39,63.53a1.06,1.06,0,0,0,0-2.11,1.06,1.06,0,0,0,0,2.11Z" fill="#2d8dbc"/><path d="M138.51,67.12v.25a1.06,1.06,0,0,0,2.11,0v-.25a1.06,1.06,0,0,0-2.11,0Z" fill="#2d8dbc"/><path d="M134.19,77.71a1.06,1.06,0,0,0,0-2.11,1.06,1.06,0,0,0,0,2.11Z" fill="#2d8dbc"/><path d="M127.83,73.06a1.06,1.06,0,0,0,0-2.11,1.06,1.06,0,0,0,0,2.11Z" fill="#2d8dbc"/><path d="M132,57.63c.13-.82-.09-1.61-1-1.79a1.08,1.08,0,0,0-1.3.74,1.06,1.06,0,0,0,.74,1.29l.2.05-.74-.74,0-.12a1.09,1.09,0,0,0,.74,1.3,1.06,1.06,0,0,0,1.3-.73Z" fill="#2d8dbc"/><path d="M121.48,59.62a1.06,1.06,0,0,0,0-2.11,1.06,1.06,0,0,0,0,2.11Z" fill="#2d8dbc"/><path d="M128.81,62.8a1.06,1.06,0,0,0,0-2.11,1.06,1.06,0,0,0,0,2.11Z" fill="#2d8dbc"/><path d="M124.66,66.22a1.06,1.06,0,0,0,0-2.11,1.06,1.06,0,0,0,0,2.11Z" fill="#2d8dbc"/><path d="M130.69,84.72V85a1.06,1.06,0,0,0,2.11,0v-.24a1.06,1.06,0,0,0-2.11,0Z" fill="#2d8dbc"/><path d="M126.86,92.62a1.06,1.06,0,0,0,0-2.11,1.06,1.06,0,0,0,0,2.11Z" fill="#2d8dbc"/><path d="M153.25,70.87a1.06,1.06,0,0,0,0-2.12,1.06,1.06,0,0,0,0,2.12Z" fill="#2d8dbc"/><path d="M166.94,53.76a1.06,1.06,0,0,0,0-2.11,1.06,1.06,0,0,0,0,2.11Z" fill="#2d8dbc"/><path d="M157.18,50l.24-.25a1.05,1.05,0,0,0-1.49-1.49l-.25.24a1.06,1.06,0,0,0,1.5,1.5Z" fill="#2d8dbc"/><path d="M158.8,53.43v.25a1.06,1.06,0,0,0,2.11,0v-.25a1.06,1.06,0,0,0-2.11,0Z" fill="#2d8dbc"/><path d="M158.38,60.36a1.06,1.06,0,0,0,0-2.12,1.06,1.06,0,0,0,0,2.12Z" fill="#2d8dbc"/><path d="M149.83,61.33a1.06,1.06,0,0,0,0-2.11,1.06,1.06,0,0,0,0,2.11Z" fill="#2d8dbc"/><path d="M149.66,52.46v-.25a1.06,1.06,0,0,0-2.11,0v.25a1.06,1.06,0,0,0,2.11,0Z" fill="#2d8dbc"/><path d="M105.59,37.14a1.06,1.06,0,0,0,0-2.11,1.06,1.06,0,0,0,0,2.11Z" fill="#2d8dbc"/><path d="M111.21,32.25a1.06,1.06,0,0,0,0-2.11,1.06,1.06,0,0,0,0,2.11Z" fill="#2d8dbc"/><path d="M103.64,26.87a1.06,1.06,0,0,0,0-2.11,1.06,1.06,0,0,0,0,2.11Z" fill="#2d8dbc"/><path d="M95.57,38.36a1.06,1.06,0,0,0,0-2.11,1.06,1.06,0,0,0,0,2.11Z" fill="#2d8dbc"/><path d="M95.08,38.36a1.06,1.06,0,0,0,0-2.11,1.06,1.06,0,0,0,0,2.11Z" fill="#2d8dbc"/><path d="M91.91,44.71a1.06,1.06,0,0,0,0-2.11,1.06,1.06,0,0,0,0,2.11Z" fill="#2d8dbc"/><path d="M100,46.18a1.06,1.06,0,0,0,0-2.11,1.06,1.06,0,0,0,0,2.11Z" fill="#2d8dbc"/><path d="M84.33,44.71a1.06,1.06,0,0,0,0-2.11,1.06,1.06,0,0,0,0,2.11Z" fill="#2d8dbc"/><path d="M78.22,40.07a1.06,1.06,0,0,0,0-2.11,1.06,1.06,0,0,0,0,2.11Z" fill="#2d8dbc"/><path d="M90.19,32.74a1.06,1.06,0,0,0,0-2.11,1.06,1.06,0,0,0,0,2.11Z" fill="#2d8dbc"/><path d="M96.87,20.68v-.24a1.06,1.06,0,0,0-2.11,0v.24a1.06,1.06,0,0,0,2.11,0Z" fill="#2d8dbc"/><path d="M90.44,12.45a1.06,1.06,0,0,0,0-2.11,1.06,1.06,0,0,0,0,2.11Z" fill="#2d8dbc"/><path d="M84.82,10a1.06,1.06,0,0,0,0-2.11,1.06,1.06,0,0,0,0,2.11Z" fill="#2d8dbc"/><path d="M73.09,25.16a1.06,1.06,0,0,0,0-2.11,1.06,1.06,0,0,0,0,2.11Z" fill="#2d8dbc"/><path d="M103.15,15.38a1.06,1.06,0,0,0,0-2.11,1.06,1.06,0,0,0,0,2.11Z" fill="#2d8dbc"/><path d="M109,20.94l.25.25a1.06,1.06,0,0,0,1.49-1.5l-.25-.24A1.05,1.05,0,0,0,109,20.94Z" fill="#2d8dbc"/><path d="M114.88,26.14a1.06,1.06,0,0,0,0-2.11,1.06,1.06,0,0,0,0,2.11Z" fill="#2d8dbc"/><path d="M129.3,35.18a1.06,1.06,0,0,0,0-2.11,1.06,1.06,0,0,0,0,2.11Z" fill="#2d8dbc"/><path d="M127.83,46.18a1.06,1.06,0,0,0,0-2.11,1.06,1.06,0,0,0,0,2.11Z" fill="#2d8dbc"/><path d="M122.7,33a1.06,1.06,0,0,0,0-2.11,1.06,1.06,0,0,0,0,2.11Z" fill="#2d8dbc"/><path d="M116.35,40.8a1.06,1.06,0,0,0,0-2.11,1.06,1.06,0,0,0,0,2.11Z" fill="#2d8dbc"/><path d="M113.41,46.67a1.06,1.06,0,0,0,0-2.11,1.06,1.06,0,0,0,0,2.11Z" fill="#2d8dbc"/><path d="M142,47.89a1.06,1.06,0,0,0,0-2.11,1.06,1.06,0,0,0,0,2.11Z" fill="#2d8dbc"/><path d="M141.28,35.27h.08l.63.49,0-.07.14.54v-.1l-.77,1,.22-.06a1.06,1.06,0,0,0-.56-2l-.23.06a1.09,1.09,0,0,0-.77,1,1.18,1.18,0,0,0,1.28,1.24,1.06,1.06,0,0,0,0-2.11Z" fill="#2d8dbc"/><path d="M137.29,52v.15a1.06,1.06,0,0,0,2.11,0V52a1.06,1.06,0,0,0-2.11,0v.15a1.06,1.06,0,0,0,2.11,0V52a1.06,1.06,0,0,0-2.11,0Z" fill="#2d8dbc"/><path d="M134.27,44.88v-.24a1.06,1.06,0,0,0-2.11,0v.24a1.06,1.06,0,0,0,2.11,0Z" fill="#2d8dbc"/><path d="M137.61,40.8a1.06,1.06,0,0,0,0-2.11,1.06,1.06,0,0,0,0,2.11Z" fill="#2d8dbc"/><path d="M76.26,21.74a1.06,1.06,0,0,0,0-2.11,1.06,1.06,0,0,0,0,2.11Z" fill="#2d8dbc"/><path d="M84.08,16h-.24a1.06,1.06,0,0,0,0,2.11h.24a1.06,1.06,0,0,0,0-2.11Z" fill="#2d8dbc"/><path d="M101.19,14.41h.25a1.06,1.06,0,0,0,0-2.11h-.25a1.06,1.06,0,0,0,0,2.11Z" fill="#2d8dbc"/><path d="M47.59,29.48v.25a1.06,1.06,0,0,0,2.11,0v-.25a1.06,1.06,0,0,0-2.11,0Z" fill="#2d8dbc"/><path d="M40.82,40.07a1.06,1.06,0,0,0,0-2.11,1.06,1.06,0,0,0,0,2.11Z" fill="#2d8dbc"/><path d="M116.35,56.93a1.06,1.06,0,0,0,0-2.11,1.06,1.06,0,0,0,0,2.11Z" fill="#2d8dbc"/><path d="M107.06,50.09h.24a1.06,1.06,0,0,0,0-2.11h-.24a1.06,1.06,0,0,0,0,2.11Z" fill="#2d8dbc"/><path d="M115.61,82.35h.25a1.06,1.06,0,0,0,0-2.11h-.25a1.06,1.06,0,0,0,0,2.11Z" fill="#2d8dbc"/><path d="M104.61,90.66a1.06,1.06,0,0,0,0-2.11,1.06,1.06,0,0,0,0,2.11Z" fill="#2d8dbc"/><path d="M127.34,80.4a1.06,1.06,0,0,0,0-2.11,1.06,1.06,0,0,0,0,2.11Z" fill="#2d8dbc"/><path d="M119.46,68.3v.56l0,0s0,0,.08-.07a1.09,1.09,0,0,0,.38-1.45,1.07,1.07,0,0,0-1.45-.38,1.82,1.82,0,0,0-.87,2.42,1.06,1.06,0,0,0,1.83-1.06Z" fill="#2d8dbc"/><path d="M147.22,76.16l-.06.26c1-.93-.5-2.42-1.5-1.49a1.8,1.8,0,0,0-.55,1.23,1.06,1.06,0,0,0,1,1.06,1.09,1.09,0,0,0,1.06-1.06Z" fill="#2d8dbc"/><path d="M134.92,73.8l-.26-.07c.93,1,2.42-.5,1.5-1.49a1.8,1.8,0,0,0-1.24-.55,1,1,0,0,0-1,1,1.08,1.08,0,0,0,1,1.06Z" fill="#2d8dbc"/><path d="M141.28,80.4a1.06,1.06,0,0,0,0-2.11,1.06,1.06,0,0,0,0,2.11Z" fill="#2d8dbc"/><path d="M137,87.16v.25a1.06,1.06,0,0,0,2.11,0v-.25a1.06,1.06,0,0,0-2.11,0Z" fill="#2d8dbc"/><path d="M128,95l.25-.49a1.1,1.1,0,0,0-.38-1.45,1.08,1.08,0,0,0-1.45.38l-.24.49a1.08,1.08,0,0,0,.38,1.45A1.06,1.06,0,0,0,128,95Z" fill="#2d8dbc"/><path d="M116.88,95.68s.19-.2,0,0c.91-1-.58-2.5-1.49-1.49a2.27,2.27,0,0,0-.52,2,1.06,1.06,0,0,0,1.3.74,1.09,1.09,0,0,0,.74-1.3Z" fill="#2d8dbc"/><path d="M109.5,91.73h-.24a1.06,1.06,0,0,0,0,2.11h.24a1.06,1.06,0,0,0,0-2.11Z" fill="#2d8dbc"/><path d="M91.42,88.22a1.06,1.06,0,0,0,0-2.11,1.06,1.06,0,0,0,0,2.11Z" fill="#2d8dbc"/><path d="M93.37,77.46a1.06,1.06,0,0,0,0-2.11,1.06,1.06,0,0,0,0,2.11Z" fill="#2d8dbc"/><path d="M86,63.46v.24a1.06,1.06,0,0,0,2.11,0v-.24a1.06,1.06,0,0,0-2.11,0Z" fill="#2d8dbc"/><path d="M96.3,59.62a1.06,1.06,0,0,0,0-2.11,1.06,1.06,0,0,0,0,2.11Z" fill="#2d8dbc"/><path d="M58,80.32v-.25a1.06,1.06,0,0,0-2.11,0v.25a1.06,1.06,0,0,0,2.11,0Z" fill="#2d8dbc"/><path d="M59.48,71.52v-.24a1.06,1.06,0,0,0-2.11,0v.24a1.06,1.06,0,0,0,2.11,0Z" fill="#2d8dbc"/><path d="M48.65,81.86a1.06,1.06,0,0,0,0-2.11,1.06,1.06,0,0,0,0,2.11Z" fill="#2d8dbc"/><path d="M28.11,74a1.06,1.06,0,0,0,0-2.11,1.06,1.06,0,0,0,0,2.11Z" fill="#2d8dbc"/><path d="M18.83,70.87a1.06,1.06,0,0,0,0-2.12,1.06,1.06,0,0,0,0,2.12Z" fill="#2d8dbc"/><path d="M45,57.11l.25-.24a1.06,1.06,0,0,0-1.5-1.49l-.24.24A1.05,1.05,0,0,0,45,57.11Z" fill="#2d8dbc"/><path d="M43.51,43a1.06,1.06,0,0,0,0-2.11,1.06,1.06,0,0,0,0,2.11Z" fill="#2d8dbc"/><path d="M58.91,37.14a1.06,1.06,0,0,0,0-2.11,1.06,1.06,0,0,0,0,2.11Z" fill="#2d8dbc"/><path d="M78,50.58a1.06,1.06,0,0,0,0-2.11,1.06,1.06,0,0,0,0,2.11Z" fill="#2d8dbc"/><path d="M71.38,56.69a1.06,1.06,0,0,0,0-2.11,1.06,1.06,0,0,0,0,2.11Z" fill="#2d8dbc"/><path d="M71.9,47.6c.07-.25.19-.48.25-.73a1.06,1.06,0,0,0-2-.56c-.06.25-.18.48-.24.73a1.05,1.05,0,0,0,2,.56Z" fill="#2d8dbc"/><path d="M73.9,36.08v-.73a1.06,1.06,0,0,0-2.11,0v.73a1.06,1.06,0,0,0,2.11,0Z" fill="#2d8dbc"/><path d="M75.77,26.63a1.06,1.06,0,0,0,0-2.11,1.06,1.06,0,0,0,0,2.11Z" fill="#2d8dbc"/><path d="M113.17,19.05a1.06,1.06,0,0,0,0-2.11,1.06,1.06,0,0,0,0,2.11Z" fill="#2d8dbc"/><path d="M127,27v.24a1.06,1.06,0,0,0,2.11,0V27A1.06,1.06,0,0,0,127,27Z" fill="#2d8dbc"/><path d="M153.74,38.85a1.06,1.06,0,0,0,0-2.11,1.06,1.06,0,0,0,0,2.11Z" fill="#2d8dbc"/><path d="M154.47,38.45h-.15a1.06,1.06,0,0,0,0,2.11h.15a1.06,1.06,0,0,0,0-2.11h-.15a1.06,1.06,0,0,0,0,2.11h.15a1.06,1.06,0,0,0,0-2.11Z" fill="#2d8dbc"/><path d="M151.31,40.74l.24-.25A1.05,1.05,0,0,0,150.06,39l-.24.25a1.05,1.05,0,0,0,1.49,1.49Z" fill="#2d8dbc"/><line x1="126.74" y1="239.53" x2="1.32" y2="203.04" fill="none" stroke="#2d8dbc" stroke-miterlimit="10" stroke-width="2.83"/><line x1="150.75" y1="261.89" x2="150.75" y2="261.89" fill="none" stroke="#2d8dbc" stroke-miterlimit="10" stroke-width="1.8"/><line x1="1.5" y1="248.76" x2="39.33" y2="213.77" fill="none" stroke="#2d8dbc" stroke-miterlimit="10" stroke-width="2.81"/><line x1="1.5" y1="204.32" x2="39.33" y2="169.34" fill="none" stroke="#2d8dbc" stroke-miterlimit="10" stroke-width="2.81"/><line x1="1.5" y1="158.9" x2="39.33" y2="123.91" fill="none" stroke="#2d8dbc" stroke-miterlimit="10" stroke-width="2.81"/><line x1="1.5" y1="114.85" x2="39.33" y2="79.87" fill="none" stroke="#2d8dbc" stroke-miterlimit="10" stroke-width="2.81"/><path d="M91,202.21c0-.14-.06-.23-.15-.32s-.2-.24-.32-.36a2,2,0,0,0-1.14-.67,2.43,2.43,0,0,0-.66,0,1.53,1.53,0,0,0-.5.32,4.23,4.23,0,0,0-1.13,1.51c-.31.62-.69,1.2-.94,1.84-.17.42-.35.81-.48,1.24a10.2,10.2,0,0,0-.25,1.34c-.06.36-.1.73-.17,1.09a5.77,5.77,0,0,0,0,1,3.47,3.47,0,0,0,.08.91,2.23,2.23,0,0,0,.44.76,2.85,2.85,0,0,0,1.82.89c.3.06.6.08.9.13a4.84,4.84,0,0,0,.94.12,9.27,9.27,0,0,0,1.18.14,2.24,2.24,0,0,0,.57-.13c.22-.11.39-.29.61-.4a4.93,4.93,0,0,0,.46-.23,1.68,1.68,0,0,0,.48-.44,2.9,2.9,0,0,0,.35-.49,2,2,0,0,0,.2-.69,3.17,3.17,0,0,0,0-1.19,12.22,12.22,0,0,0-.27-1.34c-.15-.51-.2-1.06-.34-1.58s-.5-.93-.61-1.45a2.3,2.3,0,0,0-.25-.63c-.09-.19-.1-.4-.18-.59a2.81,2.81,0,0,0-.63-1.15" fill="#2d8dbc"/><path d="M91.47,202a2.6,2.6,0,0,0-2.83-1.56c-1.48.43-2.33,2.68-2.87,3.9-.89,2-2.06,6.09.35,7.51,2.08,1.24,6.12,1.39,7.39-1.07.76-1.48.12-3.72-.32-5.18a12.36,12.36,0,0,0-1.8-4c-.4-.49-1.1.21-.7.7,1,1.17,1.61,3.74,1.88,5.19.43,2.27-.2,4.25-3,4.15a10.28,10.28,0,0,1-1.45-.19c-2.74-.46-2.53-2.61-2.06-4.79.21-1,2.94-7.59,4.57-4.12.27.57,1.12.07.85-.5Z" fill="#2d8dbc"/><path d="M93.93,209.61a2.5,2.5,0,0,1,1-.41c.31-.09.71-.28,1-.35h-.32l-.45-.35,0,.07c.46.85,1.75.1,1.3-.76s-1.1-.32-1.68-.13a4.59,4.59,0,0,0-1.86.86c-.71.65.35,1.71,1.06,1.06Z" fill="#2d8dbc"/><path d="M91.86,212.23c.35.45.94.43,1.42.62s1.23.61,1.88.79a.75.75,0,0,0,.39-1.44,11.66,11.66,0,0,1-1.5-.64,4.06,4.06,0,0,0-.66-.25c-.14,0-.38,0-.47-.13-.59-.76-1.64.3-1.06,1Z" fill="#2d8dbc"/><path d="M88.42,193.45a1.54,1.54,0,0,0-.69.34,3.8,3.8,0,0,0-.7.63,3,3,0,0,0-.46.65,1.53,1.53,0,0,0-.11.47c0,.18-.06.36-.07.54a2.09,2.09,0,0,0,.09.86,5.23,5.23,0,0,0,.49.82,1.65,1.65,0,0,0,.5.58,2.51,2.51,0,0,0,.81.28,2.82,2.82,0,0,0,1.55-.16,2.11,2.11,0,0,0,1-1.32,5.83,5.83,0,0,0,.32-1.8,2,2,0,0,0-.13-.64,2.65,2.65,0,0,0-.15-.57,1.89,1.89,0,0,0-.8-.68,1.41,1.41,0,0,0-.6-.27,2.89,2.89,0,0,0-.72,0,2.08,2.08,0,0,1-.36.06.33.33,0,0,0-.34.13" fill="#2d8dbc"/><path d="M88.29,193a3.41,3.41,0,0,0-2.36,3.82,2.94,2.94,0,0,0,3.89,2.2c1.72-.6,2.13-3.19,1.65-4.71A2.59,2.59,0,0,0,87.73,193c-.5.4.21,1.09.7.7a3.17,3.17,0,0,1,.71-.07,1.62,1.62,0,0,1,1.44,1.17c.37,1.13-.16,3-1.42,3.3-2.64.54-3-3.55-.61-4.2a.5.5,0,0,0-.26-1Z" fill="#2d8dbc"/><path d="M91.56,206.59v-.06a.77.77,0,0,0-.72-.55h-.1l.2,1.47A25.4,25.4,0,0,1,96,206.08a.73.73,0,0,0,.53-.52v-.06c.2-.93-1.25-1.34-1.44-.39l0,0,.53-.52A24.67,24.67,0,0,0,90.53,206a.75.75,0,0,0,.2,1.47h.1l-.72-.55V207a.75.75,0,0,0,1.44-.4Z" fill="#2d8dbc"/><path d="M92.39,204.28a4.56,4.56,0,0,0,.82-.49c.17-.11.38-.35.58-.4a.75.75,0,0,0,.52-.53l0-.05c.22-.94-1.22-1.33-1.45-.4v.06l.52-.53a2.42,2.42,0,0,0-.74.44,4.3,4.3,0,0,1-.66.45c-.9.33-.51,1.78.4,1.45Z" fill="#2d8dbc"/><path d="M94.48,207.05c1.13,0,2.74.94,3.1-.57.28-1.18.53-2.4.75-3.6.11-.54.48-1.48,0-2a5.45,5.45,0,0,0-2.54-.75c-.42-.06-1.2-.24-1.57,0-.18.11-.15.22-.24.37a11.15,11.15,0,0,0-.56,2,20.32,20.32,0,0,0-.65,2.88c-.06.51.73.5.8,0a32.13,32.13,0,0,1,1.06-4.19c.15-.56.07-.44.63-.33s2.08.14,2.43.7c.23.39-.27,1.64-.36,2.11-.14.69-.32,1.37-.46,2.06-.2,1-.17.71-1.17.58a8.79,8.79,0,0,0-1.25-.11.4.4,0,0,0,0,.79Z" fill="#2d8dbc"/><path d="M70.91,238.45a9.41,9.41,0,0,0-.15-1.3,6.68,6.68,0,0,0-.29-1.15,8.41,8.41,0,0,0-.47-1.17c-.42-.86-1.21-1.38-2.07-.76a2.18,2.18,0,0,0-.86,2v2.13a13.44,13.44,0,0,1-.29,2.45,7,7,0,0,1-.35,1.29,10.34,10.34,0,0,0-.41,2c-.08.53-.25,1-.33,1.59-.06.39,0,.78,0,1.17a9.87,9.87,0,0,0-.1,1.21,9,9,0,0,0,.25,3.44,6.65,6.65,0,0,0,1.78,2.9,5.84,5.84,0,0,0,1.05.63,4.55,4.55,0,0,0,1.37.16,3.7,3.7,0,0,0,1.15.13c.4-.06.61-.41.91-.64a2,2,0,0,0,.71-.87c.13-.27.27-.55.38-.82a6,6,0,0,0,.54-2.35v-1.08a10.26,10.26,0,0,0-.12-1.36,22.21,22.21,0,0,0-.48-2.43c-.08-.32-.2-.63-.28-.95a6.82,6.82,0,0,0-.23-1.09,6.19,6.19,0,0,1-.32-.85c-.07-.27-.13-.53-.22-.79s-.08-.37-.13-.55-.17-.48-.26-.73-.26-.69-.35-1c-.05-.17,0-.32-.05-.49s-.14-.28-.2-.43" fill="#2d8dbc"/><path d="M71.4,238.45c-.15-1.92-2.5-8.07-4.62-3.69-.59,1.22-.19,3.39-.34,4.63-.25,2-1,4-1.22,6-.32,2.62-.56,5.43.87,7.77,1.91,3.12,6,3.45,7.48-.07,1.78-4.12-.34-10.7-2.1-14.61-.26-.58-1.11-.07-.85.5,1.44,3.2,5.27,15.73-.63,15.57s-3.78-9.19-3.08-12.47a29.49,29.49,0,0,1,.65-3.87q-.48-2.17,2.43-2.1a8.39,8.39,0,0,1,.42,2.32c0,.63,1,.63,1,0Z" fill="#2d8dbc"/><path d="M68.08,227.07c-.4-.08-.84.54-1,.83a4.14,4.14,0,0,0-.44,1.15,1.39,1.39,0,0,0,.25,1.37,2.31,2.31,0,0,0,1.83.6,1.2,1.2,0,0,0,.78-.12,2.44,2.44,0,0,0,.65-.71,2.67,2.67,0,0,0,.09-1.56,3.24,3.24,0,0,0-.86-1.43c-.38-.38-.9-.25-1.4-.25" fill="#2d8dbc"/><path d="M68.08,226.58c-1.26,0-2,1.87-2,2.95,0,1.56,1.59,2,2.86,2s2-1.41,1.85-2.62a3.45,3.45,0,0,0-.81-1.79,2.15,2.15,0,0,0-2-.66.5.5,0,0,0,0,1c.48,0,.83-.11,1.21.28a2.27,2.27,0,0,1,.57,1c.17.7,0,1.65-.83,1.77-.7.1-1.85-.11-1.87-1,0-.45.43-1.94,1-2a.5.5,0,0,0,0-1Z" fill="#2d8dbc"/><path d="M72.28,242.09a2.87,2.87,0,0,1,1.81,0l-.55-.73a13.28,13.28,0,0,1,.16,2.95,17.94,17.94,0,0,1-.37,2.53l1.47.19v-.09c.07-1-1.42-.95-1.5,0V247c-.07.85,1.26,1,1.47.2a21.64,21.64,0,0,0,.4-2.68,14.22,14.22,0,0,0-.14-3.19.79.79,0,0,0-.55-.72,4.28,4.28,0,0,0-3,.19c-.85.45-.09,1.74.76,1.29Z" fill="#2d8dbc"/><path d="M66.81,241.33c-.65-.37-1.78-.75-2.2-1.36s0-1.35.11-2.09c.34-1.7.82-3.33,1.29-5a.75.75,0,0,0-1.44-.4,37,37,0,0,0-1.66,6.87c-.16,1.84,1.78,2.48,3.15,3.26.83.47,1.59-.82.75-1.29Z" fill="#2d8dbc"/><path d="M69.88,255.44c.05,1.05.32,2.07.39,3.12.06.86.13,1.7.27,2.54s1.6.55,1.44-.39-.18-1.68-.23-2.52-.33-1.83-.37-2.75-1.55-1-1.5,0Z" fill="#2d8dbc"/><path d="M67.46,255.18a7.5,7.5,0,0,1-.39,1.25c-.11.46-.22.88-.36,1.33-.35,1.09-.5,2.21-.82,3.3-.27.92,1.16,1.31,1.45.39l.07-.22c.29-.92-1.16-1.31-1.45-.4l-.07.23,1.45.39c.34-1.18.54-2.39.91-3.57a12.37,12.37,0,0,0,.71-2.7c.06-1-1.44-1-1.5,0Z" fill="#2d8dbc"/><path d="M89.43,105.45a9.42,9.42,0,0,0-.14-1.29A6.46,6.46,0,0,0,89,103a9.26,9.26,0,0,0-.48-1.17c-.42-.86-1.21-1.38-2.07-.77a2.22,2.22,0,0,0-.86,2c0,.71,0,1.42,0,2.14a13.53,13.53,0,0,1-.28,2.45A8.5,8.5,0,0,1,85,109a10.4,10.4,0,0,0-.41,2c-.09.53-.25,1.06-.33,1.59s0,.78,0,1.18a9.71,9.71,0,0,0-.11,1.21,9.25,9.25,0,0,0,.26,3.44,6.62,6.62,0,0,0,1.78,2.89,6.91,6.91,0,0,0,1,.64,5.37,5.37,0,0,0,1.38.16,4,4,0,0,0,1.14.12c.41,0,.62-.4.92-.64a2.13,2.13,0,0,0,.71-.86c.13-.27.27-.55.38-.83a6.16,6.16,0,0,0,.54-2.35v-1.08a10.41,10.41,0,0,0-.12-1.36,20.34,20.34,0,0,0-.49-2.42c-.07-.33-.19-.64-.27-1a8.12,8.12,0,0,0-.23-1.09,6.19,6.19,0,0,1-.32-.85c-.07-.27-.14-.52-.23-.79s-.07-.37-.12-.54-.18-.49-.26-.74-.27-.68-.35-1c0-.16,0-.32,0-.48s-.14-.29-.2-.43" fill="#2d8dbc"/><path d="M89.93,105.45c-.15-1.91-2.5-8.06-4.63-3.68-.59,1.21-.18,3.38-.33,4.63-.25,2-1,4-1.23,6-.31,2.61-.55,5.42.88,7.76,1.9,3.13,6,3.45,7.48-.07,1.78-4.11-.34-10.7-2.1-14.6-.26-.58-1.12-.08-.86.5,1.45,3.19,5.28,15.72-.62,15.56s-3.78-9.18-3.08-12.46a27.42,27.42,0,0,1,.65-3.87q-.5-2.19,2.43-2.1a8.64,8.64,0,0,1,.42,2.31c0,.63,1,.64,1,0Z" fill="#2d8dbc"/><path d="M86.61,94.08c-.4-.08-.84.53-1,.83a3.69,3.69,0,0,0-.44,1.14,1.39,1.39,0,0,0,.25,1.37,2.3,2.3,0,0,0,1.83.6,1.22,1.22,0,0,0,.78-.11,2.48,2.48,0,0,0,.65-.72,2.76,2.76,0,0,0,.09-1.56,3.29,3.29,0,0,0-.86-1.43c-.38-.38-.9-.25-1.41-.25" fill="#2d8dbc"/><path d="M86.61,93.58c-1.27,0-2,1.88-2,3,0,1.55,1.59,2,2.86,2s2-1.4,1.85-2.62a3.32,3.32,0,0,0-.82-1.78,2.1,2.1,0,0,0-2-.66c-.63,0-.63,1,0,1s.84-.11,1.22.27a2.37,2.37,0,0,1,.57,1c.17.71,0,1.65-.83,1.77-.7.1-1.85-.11-1.87-1,0-.46.42-2,1-2a.5.5,0,0,0,0-1Z" fill="#2d8dbc"/><path d="M90.8,109.1a2.84,2.84,0,0,1,1.82,0l-.55-.72a13.78,13.78,0,0,1,.16,2.94,19.28,19.28,0,0,1-.37,2.53l1.47.2v-.09c.07-1-1.43-1-1.5,0V114c-.06.85,1.27,1,1.47.2a20.16,20.16,0,0,0,.41-2.68,14.19,14.19,0,0,0-.14-3.19.78.78,0,0,0-.55-.72,4.27,4.27,0,0,0-3,.18c-.85.45-.1,1.75.75,1.3Z" fill="#2d8dbc"/><path d="M85.34,108.33c-.65-.37-1.78-.75-2.2-1.35s0-1.35.11-2.1c.33-1.7.81-3.33,1.29-5a.75.75,0,0,0-1.45-.4,37.88,37.88,0,0,0-1.65,6.88c-.16,1.83,1.77,2.48,3.14,3.25a.75.75,0,0,0,.76-1.29Z" fill="#2d8dbc"/><path d="M88.41,122.44c0,1,.32,2.07.39,3.12a24.22,24.22,0,0,0,.27,2.55c.15.95,1.59.54,1.44-.4s-.18-1.68-.23-2.52-.33-1.82-.38-2.75-1.54-1-1.49,0Z" fill="#2d8dbc"/><path d="M86,122.19a8.08,8.08,0,0,1-.39,1.24c-.12.46-.22.89-.37,1.34-.34,1.08-.49,2.2-.81,3.29a.75.75,0,0,0,1.44.4l.07-.23c.29-.92-1.15-1.31-1.44-.39l-.07.22,1.44.4c.35-1.19.55-2.4.92-3.58a12.87,12.87,0,0,0,.71-2.69c.05-1-1.44-1-1.5,0Z" fill="#2d8dbc"/><path d="M65.33,102.54a8.1,8.1,0,0,1,.16-1.3,6,6,0,0,1,.33-1.15,8.75,8.75,0,0,1,.53-1.17,1.57,1.57,0,0,1,2.33-.76,2.08,2.08,0,0,1,1,2c0,.71,0,1.42,0,2.13a11.92,11.92,0,0,0,.32,2.45,7.12,7.12,0,0,0,.39,1.29,9.76,9.76,0,0,1,.47,2c.09.53.27,1,.37,1.59.06.39,0,.78,0,1.17a9.91,9.91,0,0,1,.12,1.21c0,1.1.22,2.4-.28,3.44a6.69,6.69,0,0,1-2,2.9,7,7,0,0,1-1.18.63,5.75,5.75,0,0,1-1.55.16,4.57,4.57,0,0,1-1.28.13c-.46-.06-.7-.4-1-.64a2.13,2.13,0,0,1-.79-.87c-.15-.27-.3-.55-.43-.82a5.46,5.46,0,0,1-.6-2.35v-1.08a8.81,8.81,0,0,1,.12-1.36,20.81,20.81,0,0,1,.56-2.43c.08-.32.22-.63.3-1a8.22,8.22,0,0,1,.26-1.09,5.29,5.29,0,0,0,.36-.85,7.3,7.3,0,0,1,.26-.79c.06-.17.08-.37.14-.55s.19-.48.29-.73.3-.69.4-1,0-.32,0-.49.16-.28.22-.43" fill="#2d8dbc"/><path d="M65.82,102.54q-.19-2.66,3.33-2.35v2.13a21.57,21.57,0,0,0,.73,3.88,32.61,32.61,0,0,1,.88,4.61c.29,3,.18,5-2.51,6.65-6.26,4-5.73-4.73-4.58-8.55a36.43,36.43,0,0,1,1.93-5.82c.29-.56-.57-1.06-.86-.5-1.9,3.75-4.35,10.57-2.36,14.61s7.17,2.81,8.88-1c1.07-2.34.64-5,.23-7.52-.3-1.77-.95-3.45-1.2-5.23-.17-1.28.2-3-.26-4.27a2.25,2.25,0,0,0-3.21-1.48c-1.5.73-1.86,3.35-2,4.81,0,.63.94.63,1,0Z" fill="#2d8dbc"/><path d="M68.5,91.16c.46-.08,1,.54,1.15.83a3.76,3.76,0,0,1,.5,1.15,1.26,1.26,0,0,1-.28,1.37,2.82,2.82,0,0,1-2.07.6,1.5,1.5,0,0,1-.87-.12,2.6,2.6,0,0,1-.73-.71,2.39,2.39,0,0,1-.1-1.56,3.13,3.13,0,0,1,1-1.43c.42-.38,1-.25,1.58-.25" fill="#2d8dbc"/><path d="M68.5,91.66c.66,0,1.18,1.29,1.21,1.79.06,1.11-1.3,1.21-2.14,1.17s-1.2-1-1-1.77a2.07,2.07,0,0,1,.84-1.17,2,2,0,0,1,1.23-.15c.63,0,.63-1,0-1a2.65,2.65,0,0,0-1.93.4,3.36,3.36,0,0,0-1.15,1.92,2.2,2.2,0,0,0,2,2.75c1.29,0,3.18-.33,3.16-2,0-1.13-.93-3-2.23-3a.5.5,0,0,0,0,1Z" fill="#2d8dbc"/><path d="M64.61,104.85a5.21,5.21,0,0,0-3.31-.19.83.83,0,0,0-.58.76,13.2,13.2,0,0,0-.16,3.2,18.9,18.9,0,0,0,.46,2.69c.24.82,1.64.71,1.56-.21V111c-.09-1-1.68-1-1.59,0v.1l1.56-.22a16.15,16.15,0,0,1-.41-2.52,12.11,12.11,0,0,1,.17-2.94l-.58.77a3.87,3.87,0,0,1,2.08,0c.92.43,1.72-.93.8-1.37Z" fill="#2d8dbc"/><path d="M70.76,106.75c1.43-.72,3.72-1.36,3.51-3.3a34.5,34.5,0,0,0-1.86-6.88c-.31-1-1.84-.56-1.53.42a50.83,50.83,0,0,1,1.45,5c.16.73.53,1.48.14,2s-1.86,1-2.51,1.36c-.91.46-.11,1.83.8,1.37Z" fill="#2d8dbc"/><path d="M64.85,119.53c-.06.93-.36,1.82-.42,2.75s-.12,1.68-.27,2.5c-.18,1,1.35,1.43,1.53.43a24.18,24.18,0,0,0,.31-2.56c.07-1.06.37-2.07.43-3.12s-1.52-1-1.58,0Z" fill="#2d8dbc"/><path d="M67.57,119.27a10.5,10.5,0,0,0,.77,2.66c.44,1.19.66,2.43,1,3.63l1.53-.43-.08-.22c-.34-1-1.87-.54-1.53.42l.08.23c.34,1,1.85.55,1.53-.43s-.52-2.21-.91-3.29a11.6,11.6,0,0,1-.38-1.18,10,10,0,0,1-.48-1.39c-.06-1-1.65-1-1.58,0Z" fill="#2d8dbc"/><path d="M65.93,219.46c.39.87,1.19,3.52,2.44,3.45a.76.76,0,0,0,.72-.55c.15-.88.61-1.75.69-2.63,0-.07.2-1-.1-.54-.15.23-.13.11.24.09a4.13,4.13,0,0,0,2.67-1.94c1.69-2.76-.44-5.46-3.19-6.12s-6.23.28-7.44,3.13c-1.37,3.25,1.74,5,4.43,5.33.91.11.9-1.18.2-1.47l-.19-.08c-.89-.36-1.27,1.08-.39,1.45l.18.07.2-1.47c-1-.11-2.63-.43-3-1.52-.58-1.67.74-3.22,2.17-3.76,1.85-.71,5.85-.53,6.13,2.13A2.7,2.7,0,0,1,70,217.59c-.33.14-1,.16-1.26.45-.7.76-.94,3-1.09,3.93l.72-.55q.67.56.15-.24a9.33,9.33,0,0,0-.52-1c-.25-.5-.55-1-.78-1.49-.39-.87-1.68-.11-1.29.76Z" fill="#2d8dbc"/><path d="M41.5,179.67c-.19-.25-.57.25-.69.37s-.15.08-.22.15a.78.78,0,0,0-.14.29,2.58,2.58,0,0,0-.21.48,1.29,1.29,0,0,0,0,.34c0,.13-.06.26-.08.4s-.12.39-.15.59a4.57,4.57,0,0,1-.23,1c-.11.3-.26.61-.36.92a13.39,13.39,0,0,0-.45,1.87,9.45,9.45,0,0,0,0,1.19,8.18,8.18,0,0,0,.06,1.21,4.58,4.58,0,0,0,.2,1,5.19,5.19,0,0,0,.42.77,1.32,1.32,0,0,0,.47.47c.12.07.25.17.37.23a3,3,0,0,0,.67.16,3.55,3.55,0,0,0,3.06-.54c.1-.08.18-.18.28-.26s.22-.12.32-.21a2.6,2.6,0,0,0,.55-.6,5,5,0,0,0,.51-1.28,7.27,7.27,0,0,0,0-1.32,4.25,4.25,0,0,0-.24-1.37,8.68,8.68,0,0,0-.45-1c-.1-.2-.2-.41-.3-.6s-.19-.41-.29-.62c-.37-.82-.46-1.75-.88-2.54a3.2,3.2,0,0,0-.94-1.13,1,1,0,0,0-.56-.22,1.63,1.63,0,0,0-.31,0c-.1,0-.21.17-.3.15v-.07" fill="#2d8dbc"/><path d="M41.63,179.19a1.61,1.61,0,0,0-1.61,1,8,8,0,0,0-.54,2.18c-.23.87-.59,1.69-.8,2.57-.65,2.69-.39,6.54,3.08,6.74,3.19.18,5.1-2.69,4.51-5.65a10.4,10.4,0,0,0-1-2.37,23.61,23.61,0,0,0-1.37-3.47c-.58-.88-1.42-1.54-2.46-1.12l.61.34,0-.07c-.11-.62-1.07-.36-.95.27v.06a.5.5,0,0,0,.61.35c1.36-.54,2.55,3.63,3,4.74.7,1.65,1.12,3.82-.52,5.08-1.41,1.09-3.66,1.27-4.53-.65s.08-4.23.63-6.08c.09-.31.43-3.11,1-3s.89-.85.26-.95Z" fill="#2d8dbc"/><path d="M41.12,173.5c-.16,0-.42.34-.52.45a1.83,1.83,0,0,0-.36.58A2.13,2.13,0,0,0,40,176a2.41,2.41,0,0,0,.23.6,1.41,1.41,0,0,0,.77.47,1.93,1.93,0,0,0,1.31.17c1-.32,1.13-1.5,1.09-2.35a1.39,1.39,0,0,0-.3-.64,1.54,1.54,0,0,0-.74-.64,2.49,2.49,0,0,0-1.07-.24" fill="#2d8dbc"/><path d="M41,173a3,3,0,0,0-1.54,2.83,2.37,2.37,0,0,0,2.76,1.9c1.19-.21,1.63-1.45,1.67-2.52a2.49,2.49,0,0,0-2.61-2.38c-.63,0-.63,1,0,1,.84,0,1.59.48,1.62,1.39,0,.52-.16,1.33-.73,1.52a1.4,1.4,0,0,1-1.74-1.18c0-.4.39-1.45.84-1.59.6-.2.34-1.15-.27-1Z" fill="#2d8dbc"/><path d="M41.12,191.17v0c-.1.08,0,.17-.06.27s-.07.18-.08.28c0,.27,0,.55,0,.82s-.08.52-.08.8a2.41,2.41,0,0,1,0,.38c0,.17-.12.31-.06.49.07,0,.09-.15.13-.21" fill="#3b9e66"/><path d="M41.85,191l0-.05c-.2-.52-1.09-.83-1.37-.18a4,4,0,0,0-.23,1.64c0,.59-.19,1.2-.14,1.78a.76.76,0,0,0,1.28.53,1.54,1.54,0,0,0,.25-.36c.4-.87-.89-1.63-1.29-.76l0,.06,1.28.53a9.11,9.11,0,0,1,.12-1.47c0-.27,0-.55,0-.82,0-.06.18-.68,0-.37l-1.37-.18,0,.05c.34.89,1.78.51,1.45-.4Z" fill="#2d8dbc"/><path d="M44.13,190.57a1.11,1.11,0,0,0,.08.35,4.56,4.56,0,0,0,.13.53c.1.31.25.61.34.92s.21.6.26.89,0,.4.15.59l0,0" fill="#3b9e66"/><path d="M43.38,190.57a9.6,9.6,0,0,0,.54,1.88,8.73,8.73,0,0,0,.53,1.78.75.75,0,0,0,1.36-.18l0-.05c.31-.91-1.13-1.31-1.44-.4l0,.05,1.37-.18c-.1-.15-.08-.45-.13-.63s-.16-.53-.25-.79a8.52,8.52,0,0,1-.48-1.48c-.12-.94-1.62-1-1.5,0Z" fill="#2d8dbc"/><path d="M44.81,183.12a.15.15,0,0,1-.06.13c-.09-.22.24-.67.34-.86a11.6,11.6,0,0,0,.55-1.53c.06-.18.16-.35.23-.54s.09-.38.16-.56.25-.4.24-.54a.16.16,0,0,1-.11.07" fill="#3b9e66"/><path d="M44.16,182.75l-.06.12,1.4.38c0-.18.21-.43.3-.6a8.65,8.65,0,0,0,.4-1.07c.22-.73.62-1.43.79-2.16a.75.75,0,0,0-1.1-.84l-.11.06c-.8.53-.05,1.82.76,1.29l.1-.06-1.1-.85a24.12,24.12,0,0,1-.87,2.42c-.19.58-.72,1.17-.67,1.81s1,1.11,1.39.38l.06-.13c.41-.86-.88-1.63-1.29-.75Z" fill="#2d8dbc"/><path d="M39,184.93a2.42,2.42,0,0,0-.45.6,4.78,4.78,0,0,1-.68.94,3.28,3.28,0,0,0-.45.67,2.69,2.69,0,0,0-.31.55v-.05" fill="#3b9e66"/><path d="M38.49,184.4c-.46.48-.75,1.09-1.18,1.61a5.34,5.34,0,0,0-.9,1.48l1.47.2v-.05c.1-1-1.39-.95-1.5,0v.05a.73.73,0,0,0,.64.73.74.74,0,0,0,.82-.53,4.46,4.46,0,0,1,.76-1.11c.35-.42.57-.93.94-1.32.66-.7-.39-1.76-1.06-1.06Z" fill="#2d8dbc"/><path d="M104,157.69c.21-.24.64.26.77.38s.17.08.24.15.12.2.17.29a3.54,3.54,0,0,1,.23.48,1.29,1.29,0,0,1,0,.34c0,.13.07.26.09.4s.13.39.17.59a4.05,4.05,0,0,0,.24,1c.13.3.3.61.41.92a12.29,12.29,0,0,1,.5,1.87,7.88,7.88,0,0,1,0,1.19,7,7,0,0,1-.07,1.21,4.12,4.12,0,0,1-.22,1,5.12,5.12,0,0,1-.47.77,1.32,1.32,0,0,1-.52.47c-.13.07-.27.17-.41.23a3.76,3.76,0,0,1-.74.16,4.33,4.33,0,0,1-3.41-.54c-.11-.08-.2-.18-.31-.26s-.24-.12-.36-.21a2.9,2.9,0,0,1-.61-.6,4.54,4.54,0,0,1-.56-1.28,6.46,6.46,0,0,1,0-1.32,3.81,3.81,0,0,1,.28-1.37,7.53,7.53,0,0,1,.5-1c.11-.2.21-.41.33-.6a6,6,0,0,0,.31-.62c.42-.82.52-1.75,1-2.54a3.39,3.39,0,0,1,1-1.13,1.2,1.2,0,0,1,.63-.22,1.93,1.93,0,0,1,.34,0c.11,0,.23.17.34.15v-.07" fill="#2d8dbc"/><path d="M104.16,158.17c.8-.12,1.19,2.88,1.34,3.31.65,1.81,1.92,5.39-.15,6.84a4.16,4.16,0,0,1-4.66-.61c-1.36-1.46-1.1-3.21-.31-4.88.62-1.29,1.67-5.36,3.42-4.74a.5.5,0,0,0,.61-.35l0-.06c.13-.63-.83-.89-1-.27v.07l.61-.34a2.23,2.23,0,0,0-2.58,1,8.74,8.74,0,0,0-1.1,2.5c-.38,1-1,1.84-1.41,2.83a4.62,4.62,0,0,0,4.77,6.32c3.33-.22,4.06-3.21,3.52-6.11a25.07,25.07,0,0,0-1-3c-.2-.62-.18-1.34-.42-1.94-.32-.82-1-1.66-2-1.52-.63.09-.36,1,.26.95Z" fill="#2d8dbc"/><path d="M104.45,151.53c.19,0,.47.34.59.45a2.14,2.14,0,0,1,.4.58,2,2,0,0,1,.29,1.45,2.5,2.5,0,0,1-.27.6,1.57,1.57,0,0,1-.84.47,2.41,2.41,0,0,1-1.47.17c-1.06-.32-1.25-1.5-1.21-2.35a1.25,1.25,0,0,1,.34-.64,1.61,1.61,0,0,1,.82-.64,3,3,0,0,1,1.18-.24" fill="#2d8dbc"/><path d="M104.32,152c.53.15,1,1.2.94,1.69,0,.84-1.38,1.34-2.1,1a1.56,1.56,0,0,1-.73-1.49c0-1,1-1.32,1.85-1.36a.5.5,0,0,0,0-1c-1.25.05-2.78.74-2.84,2.18a2.5,2.5,0,0,0,1.7,2.69,2.61,2.61,0,0,0,3.09-1.71,2.91,2.91,0,0,0-1.65-3,.5.5,0,0,0-.26,1Z" fill="#2d8dbc"/><path d="M104.45,169.2l0,0c.1.08,0,.17.06.27s.08.18.09.28c0,.27,0,.55,0,.81s.08.53.08.81a2.41,2.41,0,0,0,0,.38c0,.17.13.31.07.49-.08,0-.1-.15-.15-.21" fill="#3b9e66"/><path d="M105.21,169.41l0,0-1.44.19c0-.05-.07-.36-.05-.13a3.59,3.59,0,0,0,.08.35c0,.28,0,.56,0,.85s.07.53.07.8.09.53.07.77l1.35-.56,0,0c-.47-.9-1.83-.1-1.36.8a1.41,1.41,0,0,0,.27.37.8.8,0,0,0,1.35-.56c0-.61-.16-1.26-.16-1.88a2.78,2.78,0,0,0-.25-1.56.8.8,0,0,0-1.44.19l0,.05a.8.8,0,0,0,.55,1,.81.81,0,0,0,1-.55Z" fill="#2d8dbc"/><path d="M101.11,168.6a1.13,1.13,0,0,1-.09.35c0,.18-.08.36-.14.53s-.28.61-.38.92-.23.6-.3.89,0,.4-.16.59l0,0" fill="#3b9e66"/><path d="M100.35,168.39a6.8,6.8,0,0,1-.51,1.52c-.11.27-.21.55-.3.83a3.21,3.21,0,0,1-.18.74l1.44.19,0,0c-.35-.94-1.88-.53-1.52.42l0,.05a.8.8,0,0,0,1.44.19,1.85,1.85,0,0,0,.25-.76,6.12,6.12,0,0,1,.32-1,8,8,0,0,0,.58-1.71.82.82,0,0,0-.55-1,.79.79,0,0,0-1,.55Z" fill="#2d8dbc"/><path d="M100.35,161.15a.14.14,0,0,0,.07.13c.09-.22-.27-.67-.38-.86a10.6,10.6,0,0,1-.61-1.53c-.07-.18-.17-.35-.25-.54s-.1-.38-.18-.56-.29-.4-.27-.54a.19.19,0,0,0,.12.07" fill="#3b9e66"/><path d="M99.67,161.55l.07.13c.39.75,1.4.32,1.47-.4s-.57-1.34-.79-1.95c-.13-.38-.28-.74-.43-1.11a10.18,10.18,0,0,1-.5-1.18l-1.15.89.11.07a.79.79,0,0,0,.8-1.36l-.12-.07a.8.8,0,0,0-1.16.89c.18.69.6,1.35.84,2a9.06,9.06,0,0,0,.42,1.09c.08.16.42.53.4.7l1.47-.4-.07-.12c-.47-.9-1.83-.11-1.36.79Z" fill="#2d8dbc"/><path d="M106.79,163a2.19,2.19,0,0,1,.5.6,4.82,4.82,0,0,0,.76.94,3.54,3.54,0,0,1,.5.67,2.4,2.4,0,0,1,.34.55v-.05" fill="#3b9e66"/><path d="M106.23,163.52a16.06,16.06,0,0,1,1,1.29,5.14,5.14,0,0,1,1,1.31.8.8,0,0,0,1.47-.4v-.05a.8.8,0,0,0-.79-.79.79.79,0,0,0-.79.79v.05l1.47-.4a5.55,5.55,0,0,0-1.09-1.5c-.42-.45-.68-1-1.13-1.42-.74-.69-1.86.42-1.12,1.12Z" fill="#2d8dbc"/><path d="M54.92,161.2c.4.38.8.72,1.17,1.13.18.19.34.4.51.61s.36.32.4.38l-.12-.44V163c0,1.13,1.8,1.13,1.76,0,0-.67-.63-1.07-1-1.55A15.27,15.27,0,0,0,56.17,160c-.83-.77-2.08.47-1.25,1.24Z" fill="#2d8dbc"/><path d="M49.19,133.41a1.1,1.1,0,0,1-.36.07,1.67,1.67,0,0,0-.57.23,2,2,0,0,0-.93,1,3.17,3.17,0,0,0-.16,1.75,1.65,1.65,0,0,0,1,1.3,2.16,2.16,0,0,0,1.44,0,3.68,3.68,0,0,0,.8-.38,1.84,1.84,0,0,0,.66-.5,4,4,0,0,0,.67-1.43,1.61,1.61,0,0,0,0-1.06,1.21,1.21,0,0,0-.28-.39,2.91,2.91,0,0,0-.42-.25,1.76,1.76,0,0,0-.77-.29c-.12,0-.25,0-.37,0s-.22-.11-.33-.13a5,5,0,0,0-.67,0" fill="#2d8dbc"/><path d="M49.05,132.93a3,3,0,0,0-2.43,3.25,2.33,2.33,0,0,0,3.27,2,3.55,3.55,0,0,0,2.42-3.61c-.24-1.45-2.21-1.79-3.41-1.76-.63,0-.64,1,0,1a3.9,3.9,0,0,1,2,.42c1,.81,0,2.36-.86,2.8-1.14.6-2.45.34-2.44-1.16a2,2,0,0,1,1.72-2,.5.5,0,0,0-.27-1Z" fill="#2d8dbc"/><path d="M50.72,142.65l0-.06a1.79,1.79,0,0,0-.52,0,1.86,1.86,0,0,0-.8.2,4,4,0,0,0-1.86,1.55,7.06,7.06,0,0,0-.87,3.41,19.75,19.75,0,0,0,.27,4.61,13.53,13.53,0,0,0,.72,2.58c.17.4.27.81.46,1.2s.48.84.72,1.24a7.08,7.08,0,0,0,.63,1,4.17,4.17,0,0,0,.67.59c.38.28.85.4,1.25.64a3.75,3.75,0,0,0,.92.39,5.32,5.32,0,0,0,1.18.27,3.44,3.44,0,0,0,2.29-.69,6.91,6.91,0,0,0,.86-.85,1.35,1.35,0,0,0,.3-.61,2.58,2.58,0,0,0,.16-.87c0-.14.16-.56,0-.59" fill="#2d8dbc"/><path d="M51.19,142.52v-.07a.51.51,0,0,0-.48-.36c-7.08-.17-4.46,11.69-2.49,15.22,1.14,2.05,3.69,3.89,6.21,3.4,1.81-.35,3.61-2.21,3.13-4.17-.15-.62-1.1-.35-.95.27q.13,2.64-4.18,2.72a5.43,5.43,0,0,1-3.17-2.42,10.8,10.8,0,0,1-1.43-3.17,16.7,16.7,0,0,1-.68-3.9q0-1.15,0-2.31a4.77,4.77,0,0,1,3.1-4.95c.13.62,1.08.36.95-.26Z" fill="#2d8dbc"/><path d="M50.71,141.88h-.07a.9.9,0,0,0-.39,1.47c1.32,1.66,1.67,4.83,2.45,6.85A16.33,16.33,0,0,0,54,153.05c.67,1.07,2.16,2.58,2.32,3.85.14,1.11,1.9,1.13,1.76,0a8,8,0,0,0-1.73-3.5,21.54,21.54,0,0,1-2.3-4.51c-.86-2.23-1.07-4.87-2.58-6.77l-.39,1.47h.07c1.11-.24.64-1.94-.47-1.7Z" fill="#2d8dbc"/><path d="M56.94,158.35a6.84,6.84,0,0,0,1.72.46c.6.17,1.17.41,1.77.56l-.61-.61v.06c.2,1.12,1.9.65,1.7-.46v-.07a.87.87,0,0,0-.62-.61c-.57-.15-1.1-.37-1.67-.53a8.09,8.09,0,0,0-.83-.16c-.14,0-.26-.09-.4-.12s-.44-.18-.17,0c-1-.54-1.89,1-.89,1.52Z" fill="#2d8dbc"/><path d="M51.6,146.33c0,.74.53,1,1.11,1.33s1.27,1,1.95.91.77-.88,1.17-1.39c.22-.28.43-.59.66-.86a1.92,1.92,0,0,0,.59-.83.88.88,0,0,0-1.7-.47c0-.16.18-.17,0,0a1,1,0,0,0-.22.19c-.21.23-.36.52-.56.77a4,4,0,0,0-.52.71,1.58,1.58,0,0,0-.14.36c0,.3-.13.08.17-.07l.68-.08a5.68,5.68,0,0,1-.9-.57l-.4-.21c-.38-.18-.13-.19-.12.25a.88.88,0,0,0-1.76,0Z" fill="#2d8dbc"/></svg>