<svg xmlns="http://www.w3.org/2000/svg" viewBox="0 0 396 288"><title>blue garden_1</title><polygon points="0 288 396 288 396 4 0 0 0 288" fill="#f4f0ea"/><line x1="52.41" y1="179.36" x2="311.78" y2="101.14" fill="none" stroke="#2d8dbc" stroke-miterlimit="10" stroke-width="2.7"/><polyline points="65.38 192.33 155.85 165.71 130.64 140.49 206.88 216.73" fill="none" stroke="#2d8dbc" stroke-miterlimit="10" stroke-width="2.7"/><line x1="77.79" y1="204.74" x2="293.2" y2="140.25" fill="none" stroke="#2d8dbc" stroke-miterlimit="10" stroke-width="2.7"/><line x1="92.04" y1="218.99" x2="256.2" y2="170.08" fill="none" stroke="#2d8dbc" stroke-miterlimit="10" stroke-width="2.7"/><line x1="105.18" y1="232.13" x2="369.44" y2="153.73" fill="none" stroke="#2d8dbc" stroke-miterlimit="10" stroke-width="2.7"/><line x1="256.2" y1="170.08" x2="353.59" y2="139.28" fill="none" stroke="#2d8dbc" stroke-miterlimit="10" stroke-width="2.7"/><line x1="311.78" y1="101.14" x2="287.01" y2="108.42" fill="none" stroke="#2d8dbc" stroke-miterlimit="10" stroke-width="2.7"/><line x1="107.7" y1="179.69" x2="325.34" y2="113.59" fill="none" stroke="#2d8dbc" stroke-miterlimit="10" stroke-width="2.7"/><line x1="283.34" y1="142.94" x2="336.64" y2="126.22" fill="none" stroke="#2d8dbc" stroke-miterlimit="10" stroke-width="2.7"/><line x1="64.12" y1="159.11" x2="140.3" y2="235.28" fill="none" stroke="#2d8dbc" stroke-miterlimit="10" stroke-width="2.7"/><line x1="88.85" y1="153.73" x2="164.2" y2="229.08" fill="none" stroke="#2d8dbc" stroke-miterlimit="10" stroke-width="2.7"/><line x1="110.62" y1="144.93" x2="116.29" y2="150.61" fill="none" stroke="#2d8dbc" stroke-miterlimit="10" stroke-width="2.7"/><line x1="116.29" y1="150.61" x2="187.93" y2="222.24" fill="none" stroke="#2d8dbc" stroke-miterlimit="10" stroke-width="2.7"/><line x1="151.79" y1="134.57" x2="228.45" y2="211.23" fill="none" stroke="#2d8dbc" stroke-miterlimit="10" stroke-width="2.7"/><line x1="247.64" y1="205.48" x2="171.28" y2="129.12" fill="none" stroke="#2d8dbc" stroke-miterlimit="10" stroke-width="2.7"/><line x1="267.87" y1="199.59" x2="191.68" y2="123.41" fill="none" stroke="#2d8dbc" stroke-miterlimit="10" stroke-width="2.7"/><line x1="287.01" y1="193.53" x2="211.38" y2="117.9" fill="none" stroke="#2d8dbc" stroke-miterlimit="10" stroke-width="2.7"/><line x1="306.68" y1="188.3" x2="230.83" y2="112.45" fill="none" stroke="#2d8dbc" stroke-miterlimit="10" stroke-width="2.7"/><line x1="325.34" y1="182.69" x2="249.79" y2="107.15" fill="none" stroke="#2d8dbc" stroke-miterlimit="10" stroke-width="2.7"/><line x1="343.8" y1="177.5" x2="267.87" y2="101.56" fill="none" stroke="#2d8dbc" stroke-miterlimit="10" stroke-width="2.7"/><polyline points="362.9 171.95 287.03 96.73 302.27 92.46 383 166.1 116.64 243.59 39.15 166.1 302.27 92.46" fill="none" stroke="#2d8dbc" stroke-miterlimit="10" stroke-width="2.7"/><line x1="260.58" y1="165.71" x2="260.58" y2="165.71" fill="none" stroke="#2d8dbc" stroke-miterlimit="10" stroke-width="1.72"/><path d="M279.66,191.19a.78.78,0,0,1,.08-.57c.13-.21.18-.13.18.28,0,.61-.09.72-.26.29m-.11,1.66c-.31-.32-.29-.57.05-.57s.6.55.35.7c-.09.06-.27,0-.4-.13m-.11,1.33c-.34-.46-.35-.52-.06-.41s.35,0,.35-.06a.21.21,0,0,1,.22-.2c.16,0,.17.08,0,.26s-.06.68.47.82c.34.08.32.1-.1.12a1.09,1.09,0,0,1-.89-.53m.06,1.44c-.25-.3-.24-.33.12-.2s.39.13,0-.16-.31-.29.36-.25a2.58,2.58,0,0,1,.73.09,4.32,4.32,0,0,1-.89.87,1.31,1.31,0,0,1-.35-.35m-1.8,1.55a.18.18,0,0,1,.18-.18,1.74,1.74,0,0,0,.51-.12c.18-.07.32,0,.32.08s-.23.24-.5.3-.51,0-.51-.08m-3,6.19c-.25-.48-.27-.63-.06-.63s.66.79.46.91-.28-.06-.4-.28m-3.6,33a.38.38,0,0,1,.38,0c.17.07.12.12-.12.13s-.33,0-.26-.11m8.05-31.9c0-.19-.2-.24-.66-.17-.64.1-.64.11-.15.26.75.22.81.21.81-.09m2.63,3c0-.05-.14-.09-.31-.09s-.26.09-.19.21.5.09.5-.12m2.44,2.26c.76-.4.76-.46,0-.35-.34.05-.56.17-.51.26s-.1.21-.35.26-.35.09-.1.11a2.27,2.27,0,0,0,1-.28m-9.13,1.32a.34.34,0,0,0-.62-.17c-.28.45-.22.56.22.45.22-.06.4-.18.4-.28m.76.37c-.09-.29-.42-.26-.52.05,0,.12.08.21.27.21s.3-.12.25-.26m1.17.26c.07-.11,0-.21-.08-.21a.47.47,0,0,0-.33.21c-.07.11,0,.2.08.2a.45.45,0,0,0,.33-.2m8,.82a.21.21,0,0,0-.21-.21c-.12,0-.16.1-.09.21s.3.26.3,0m-8.2,1.23c-.16-.27-.31-.27-.31,0a.21.21,0,0,0,.22.2c.11,0,.16-.09.09-.2m-1,.39c.21-.34-.26-.73-.54-.45a.4.4,0,0,0,.23.67.44.44,0,0,0,.31-.22m-2.34,2.68c.25-.16.22-.2-.15-.2s-.46.09-.46.2.22.26.61,0m12.57.2a.2.2,0,0,0-.2-.2.2.2,0,0,0-.21.2.21.21,0,0,0,.21.21.2.2,0,0,0,.2-.21m-11.76,2.46c-.25-.16-.23-.2.1-.2s.35,0,.11-.2a.45.45,0,0,0-.54,0c-.15.13-.28.13-.36,0s0-.24.19-.31a.46.46,0,0,0,.3-.38c0-.17-.06-.19-.15,0-.23.33-.83.51-1,.28a.22.22,0,0,0-.31-.08c-.11.06-.19,0-.19-.1s-.21-.19-.46-.16-.45-.06-.42-.31a.31.31,0,0,0-.31-.36c-1.5,0-.48,1.37,1.33,1.76,1.52.33,2.1.36,1.68.08m-1,2.52a.43.43,0,0,0-.39,0c-.07.07.05.12.27.11s.28-.06.12-.13m19.21.74c0-.35-.63-.89-.78-.66a1.13,1.13,0,0,1-.48.33c-.64.24-.38.55.45.55.45,0,.81-.1.81-.22m-20.29,1.06c.36-.23.08-.7-.33-.54a1.11,1.11,0,0,1-.81-.21,1.3,1.3,0,0,0-1-.2c-.62.16-.5.31.61.75s1.17.43,1.53.2m-.28,1c-.16-.27-.3-.27-.3,0a.2.2,0,0,0,.21.2c.12,0,.16-.09.09-.2m-1,2.87c.07-.12,0-.15-.19-.08-.35.13-.42.28-.13.28a.44.44,0,0,0,.32-.2m19.83.83c.19-.2-.2-.21-1.34,0-.08,0-.15.12-.15.24,0,.27,1.18.11,1.49-.2m-20.79.77a.31.31,0,0,1,.5,0c.2.16.45.13.95-.11s.58-.37.45-.42a.73.73,0,0,0-.56.18c-.25.21-.34.21-.47,0s-.34-.21-1,0-.8.28-.59.42c.38.24.47.23.75-.05m3.29.23c0-.12-.09-.16-.2-.09-.26.16-.26.3,0,.3a.2.2,0,0,0,.2-.21m-.91.21c.07-.11-.08-.2-.35-.2s-.4,0-.16.2.36.25.51,0m15.81.82c-.16-.26-.31-.26-.31,0a.22.22,0,0,0,.22.21c.11,0,.15-.1.09-.21m-16.72.33s-.19-.12-.41-.18-.35,0-.29.08.7.26.7.1m16.61.29c0-.12-.13-.21-.3-.21s-.3.09-.3.21.13.2.3.2.3-.09.3-.2m-8.61.41c.07-.12,0-.15-.19-.08-.35.13-.42.28-.12.28a.44.44,0,0,0,.31-.2m-2.94.41c0-.27-.34-.27-.5,0-.07.11,0,.2.19.2s.31-.09.31-.2m-2,0a.22.22,0,0,0-.23-.19c-.12,0-.17-.16-.1-.36s.1-.33-.16,0-.33.32-.56.1-1.79-.43-1.79-.14c0,.1-.14.19-.31.19-.42,0-.38.36.05.45a8.76,8.76,0,0,0,3.1-.06m-2.84,1c0-.1-.14-.05-.31.12a1,1,0,0,0-.29.58c0,.3.6-.4.6-.7m5.07,3.33c.19,0,.21-.07.06-.13a.33.33,0,0,1-.12-.43c.1-.26,0-.3-.26-.18-.65.27-1,.28-1.26.07s-.25-.13-.25,0-.16.26-.35.3-.3.11.09.27a4.73,4.73,0,0,0,2.09.09m3.2,4.29a19.51,19.51,0,0,0-.06-2.77c-.13-1.26-.16-1.33-.58-1.18a3.12,3.12,0,0,1-1,.14c-.31,0-.56,0-.56.12s-.27.12-.6.1-.64.06-.73.34c-.14.45-.7.53-.7.1s-.33-.32-.76-.05c-.17.11-.21.06-.13-.15s0-.28-.36-.21-.36,0-.22,0c.35-.17.32-.51,0-.38-.15.06-.43-.1-.61-.35l-.32-.47v.45c0,.25-.09.46-.2.46a.2.2,0,0,1-.21-.18c0-.1-.22-.13-.5-.08s-.51,0-.51-.13.17-.23.38-.23a.91.91,0,0,0,.62-.29,1.79,1.79,0,0,1,.84-.43c.95-.21.85-.43-.19-.44a8.56,8.56,0,0,1-1.52-.14,1.48,1.48,0,0,0-1,.1c-.34.18-.47.18-.52,0s-.16-.18-.26-.12c-.27.17-1.63-.13-1.5-.33s.39-.12.75-.06c.58.1.68,0,.88-.48s.17-.6-.17-.62-.34,0-.16.24.13.3-.14.41-.38,0-.42-.08a.35.35,0,0,0-.31-.22c-.14,0-.33-.2-.44-.46a.79.79,0,0,0-.71-.48c-1.08-.05-1.12-.07-.64-.41s.42-.35.15-.56a1.76,1.76,0,0,1-.44-.9c-.17-.83.24-.9.91-.17s1.5,1,2,.74.57-.62.22-.62c-.11,0-.18-.12-.15-.26a.16.16,0,0,0-.21-.2c-.13,0-.25,0-.25-.14s-.18-.13-.41-.07-.39,0-.36-.08a1.46,1.46,0,0,0-.21-.64c-.33-.6-.18-.82.7-1,.46-.08.65-.2.52-.33s-.34-.12-.61,0c-.51.27-.84.28-.84,0,0-.11.17-.2.39-.2.68,0,.68-.41,0-.69l-.65-.28.59-.15.58-.14-.56-.49a2.45,2.45,0,0,1-.56-.59,3.62,3.62,0,0,1,1.62.24,2.56,2.56,0,0,0,.44.14.55.55,0,0,1,.29.17c.32.32,2.11.08,2.11-.28,0-.1-.2-.19-.45-.19a1.54,1.54,0,0,1-.93-.5c-.29-.31-.59-.45-.79-.37s-.3,0-.18-.27.09-.33-.1-.15-.66,0-.87-.69q-.13-.44-.51-.33c-.27.07-.4,0-.47-.43s.11-.72.35-.33a.67.67,0,0,0,1-.1.49.49,0,0,1,.4-.31c.16,0,.28-.09.28-.2s-.13-.21-.3-.21-.31-.09-.31-.2-.14-.2-.32-.2-.28-.07-.11-.28.05-.61-.3-.32c-.19.16-.25.12-.23-.19s.13-.37.25-.31.05,0-.15-.19a1.08,1.08,0,0,1-.35-.43c0-.28.47-.1,1.32.49a6.58,6.58,0,0,0,1,.61c.31,0,.06-.6-.49-1.17s-.54-.67-.36-.75,0-.06-.3,0-.55,0-.55-.22.17-.33.45-.34.34-.07.2-.12a.51.51,0,0,1-.25-.43c0-.18.06-.26.14-.19s.35,0,.6-.17a2.36,2.36,0,0,1,1.32-.26c.54,0,.87,0,.93-.21s0-.24-.08-.23a2.42,2.42,0,0,1-.48,0c-.27,0-.27-.05,0-.23s.26-.2,0-.2-.7-.85-.48-1.21c.08-.12.55.06,1.15.44.85.53,1.06.59,1.21.34.27-.42.23-.72-.05-.44a.9.9,0,0,1-.53.25c-.24,0-.24-.06,0-.3s.18-.37-.1-.66-.27-.38-.12-.43a.33.33,0,0,0,.23-.28c0-.11-.19-.14-.43-.06s-.39.06-.29-.09,0-.23-.18-.23-.32-.08-.32-.19c0-.41.41-.42,1.05,0s.71.37,1.12.11a1,1,0,0,1,.74-.19.37.37,0,0,0,.43-.1c.07-.12,0-.22-.08-.22s-.22-.16-.22-.36,0-.32-.31,0-.39.27-.06-.36c.23-.45.23-.45-.21,0s-.44.39-.68-.26c-.15-.39-.37-.63-.55-.6s-.34-.13-.38-.44,0-.47.44-.35c.72.18,1.23,0,.93-.41a.67.67,0,0,1-.12-.59c.1-.26.05-.28-.26-.11-.64.34-.84.26-.7-.3.08-.33,0-.51-.11-.51s-.18-.1-.11-.22a.59.59,0,0,0-.14-.56c-.15-.19.14,0,.64.48a7.25,7.25,0,0,0,1.57,1.09c.36.16.61.36.55.46s0,.19.05.19l.82.1c.4.06.66,0,.66-.13s.12-.18.26-.13.21.15.23-.1.06,0-.11-.14c-.36-.2-1,.06-1-.22,0-.12-.16-.21-.36-.21a1.59,1.59,0,0,1-.78-.3c-.24-.16-.48-.24-.55-.17s-.13,0-.13-.21v-.5c0-.34,1.37-.14,2.18.32l.86.15v-.21c0-.38-.13-.58-.41-.66s-.57-.47-.2-.47c.13,0,.12-.14,0-.37-.24-.4-1.21-.38-1.13,0,0,.12-.21.29-.51.37s-.56.08-.56-.05-.11-.12-.28,0-.33.17-.42,0,.08-.3.33-.4c1.82-.75,2.19-.94,2.29-1.21s.06-.25-.16-.07-.34.18-.41.1a3.29,3.29,0,0,0-1.18-.09c-1,0-1.28-.11-.43-.24.67-.1,1.08-.55,1-1.08s0-.46.3-.25.34.29.3.36.25.13.64.16.65,0,.6-.12,0-.41.17-.7c.23-.46.23-.52,0-.43s-.29,0-.29-.32-.12-.43-.28-.43-.32-.17-.38-.38-.05-.35.67.05c.43.23.74.47.71.53s.25.13.64.16c.64.05.67,0,.38-.27a1.29,1.29,0,0,1-.32-.46c0-.08-.27-.27-.61-.41s-.55-.37-.47-.5a.38.38,0,0,0-.15-.44,2.34,2.34,0,0,1-.52-.88c-.22-.61-.21-.64.15-.41s.36.34.31.45.19.23.51.25.58-.05.58-.25.12-.25.35-.16.26,0-.08-.32c-.5-.55-.52-1.37,0-1.33a.51.51,0,0,0,.47-.37c.06-.21.2-.34.29-.28a.22.22,0,0,0,.3-.08c.06-.11-.07-.25-.29-.32a.58.58,0,0,1-.41-.47c0-.26.05-.28.24-.09.33.34.57.31.57-.06,0-.17.1-.31.22-.31a2,2,0,0,0,.75-.42c.3-.24.57-.33.61-.22.09.29-.74,1.09-1,.95s-.14,0-.07.19,0,.32-.11.32-.22.19-.22.42c0,.41,0,.41.86,0a7.81,7.81,0,0,0,1.2-.73c.24-.22.37-.23.47-.07s0,.28-.27.35a.82.82,0,0,0-.54.5c-.07.21-.2.34-.29.28s-.44.39-.53,1.09a1.32,1.32,0,0,1-.43.76c-.54.4-.24.54.42.19a2.51,2.51,0,0,1,.84-.3,2.27,2.27,0,0,0,.89-.53c.59-.5.62-.51.62-.12a.6.6,0,0,1-.4.55c-.22.07-.38.23-.35.36s-.09.24-.26.24-.57.73-.27.73a3.15,3.15,0,0,0,.76-.31c.32-.17.63-.27.69-.21s0,.11-.18.11-.22,0-.05.16c.39.25,0,.71-.65.71s-.54.05-.44.69.06.69-.34.69a1.09,1.09,0,0,1-.67-.22c-.15-.15-.25-.08-.33.23s-.07.44.73.32a7.12,7.12,0,0,0,1.6-.51c.65-.32.73-.33.56,0-.31.54-1,1.25-1.14,1.25-.34,0-1.32,1.07-1.14,1.25s1.93-.37,2.68-1.07c.48-.44.74-.56.89-.4s.14.22,0,.22-.19.09-.12.21-.1.43-.38.69-.45.54-.27.72.15.22,0,.19c-.46-.12-1.12.28-1.12.68a.55.55,0,0,1-.4.52c-.23.06-.41.18-.41.28s-.15.12-.34,0-.29,0-.18.12c.26.44,1.07,0,2.45-1.3.23-.23.6-.55.81-.72s.36-.27.24.05,0,.36.06.36,0,.18-.14.4c-.51.6-.57,1.44-.12,1.45s.32,0,0,.24-.43.2-.46.15-.19.12-.36.37a1.12,1.12,0,0,1-.82.46c-.64,0-.63.28,0,.58a1.29,1.29,0,0,0,1,0c.31-.12.5-.12.5,0s.23,0,.5-.31a1.66,1.66,0,0,1,.79-.5c.16,0,.34-.19.39-.41.14-.52.39-.52.71,0,.22.35.2.41-.1.41s-.31,0-.06.19.24.22-.06.33-.32.27-.26.42a.62.62,0,0,1-.19.57c-.2.2-.23.35-.09.44s-.14.71-.54.71a.25.25,0,0,0-.27.22c0,.14.33.17,1,.07s.89-.06.8,0-.33.22-1.36.39a5.25,5.25,0,0,0-.61.12,3.06,3.06,0,0,1-.61,0c-.39,0-.41,0-.11.11.65.18.91.55.6.84a1,1,0,0,1-.6.25c-.26,0-.29.06-.11.27s.16.34.09.41,0,.19.21.26.28.21.22.31c-.32.51,2.53-.28,2.95-.82a3.71,3.71,0,0,1,1.32-.8s0,.3-.18.58-.39.48-.65.44-.38-.06,0,.25.36.31.08.32a.61.61,0,0,0-.47.84c.06.11-.07.19-.3.19s-.46.18-.54.52a1.51,1.51,0,0,1-.71.82c-.37.2-.53.41-.46.61s.16.3.21.3a15.35,15.35,0,0,0,3.39-1.82c.4-.44,1.13-.59,1.13-.22,0,.11-.2.2-.45.2s-.38.05-.18.18.14,1.05-.2,1.05c-.11,0-.15.09-.08.2s0,.21-.1.21-.17.08-.11.19-.09.22-.34.26-.46.2-.46.37-.23.33-.56.37-.56.19-.56.33a1,1,0,0,1-.45.59c-.4.28-.41.33-.09.34s.31.09.25.19c-.17.29.74,0,1.34-.42a2.46,2.46,0,0,1,.67-.38,3.21,3.21,0,0,0,.81-.52c.67-.51,1-.43.8.18a.3.3,0,0,1-.37.22c-.14-.06-.25,0-.25.22a.34.34,0,0,0,.32.33c.19,0,.22.05.08.11a.32.32,0,0,0-.12.42c.1.27.05.28-.32.08s-.64,0-.22.3-.53.94-.91.79c-.18-.07-.32,0-.32.11a.45.45,0,0,0,.29.35.31.31,0,0,1,.18.4c-.06.16-.19.24-.29.17s-.18,0-.18.21c0,.57.51.34,1.53-.72s2-1.74,2.21-1.44c.06.1,0,.29-.2.43a1.3,1.3,0,0,0,0,1.65c.27.3.28.43.05.79s-.38.39-.52.33-.25,0-.25.1-.14.14-.31.07c-.37-.14-.39.16,0,.53.21.22.18.23-.17,0s-.69-.13-.69.44c0,.33-.09.37-.56.27s-.46-.07-.27.05c.35.24.11.67-.29.51-.21-.08-.26,0-.18.2s.2.28.86,0A6.36,6.36,0,0,0,292,224.6l.85-.83-.12.9c-.06.49-.19.93-.29,1-.32.13-.79,1.23-.57,1.37a.42.42,0,0,1,.2.29c0,.26-1.09.42-1.31.2s-.52-.23-.52.09c0,.15.33.37.73.5a1.85,1.85,0,0,0,2.06-.52c.23-.3.25-.29.25.08a1.58,1.58,0,0,1-.41.86c-.23.24-.34.45-.25.45s-.14.15-.5.33-.6.41-.54.51c.17.28-.5.46-.79.21s-.36-.12-.62.19a1.08,1.08,0,0,1-.8.38c-.7,0-.88,0-.44.21a1.54,1.54,0,0,0,1.05-.1c.54-.23.68-.23.89,0a.56.56,0,0,0,.57.2c.18-.05.58-.14.88-.19a9,9,0,0,0,1-.24c.4-.13.4-.09-.11.59-.33.42-.67.68-.83.62-.38-.15-1,.35-1,.8,0,.19-.06.33-.14.3s-.32.17-.54.43-.5.43-.61.36c-.35-.22-.51.34-.18.58s0,.23-1,.22-1.3,0-1.3.34-.1.32-.3.25a1,1,0,0,0-.66,0,1.79,1.79,0,0,1-.81.11c-.74-.07-.53.34.3.58l.76.22-1-.09c-.56-.06-1,0-1,.1s.21.21.46.22c.43,0,.44,0,.05.18s-.54,0-.92-.32-.93-.66-.7-.29c.07.12,0,.21-.09.21-.49,0-.16.37.44.49s.62.17.3.35a.85.85,0,0,1-.71.06,1.16,1.16,0,0,0-.48-.12c-.08,0-.26-.25-.41-.58-.33-.76-.52-.78-.61-.05,0,.38-.16.54-.37.49-1.12-.26-1.21-.21-1.21.67a34,34,0,0,0,.52,4.27c.11.54.08.56-.66.56h-.79Z" fill="#abd1e6"/><path d="M368.05,82.19a.73.73,0,0,1,.07-.57c.13-.21.18-.13.19.28,0,.61-.1.72-.26.29m-.11,1.66c-.32-.32-.3-.57,0-.57s.6.55.35.7c-.09.06-.26,0-.39-.13m-.12,1.33c-.34-.46-.35-.52-.05-.41s.34,0,.34-.06a.21.21,0,0,1,.22-.2c.17,0,.17.08,0,.26-.27.33-.07.68.47.82.33.08.31.1-.1.12a1.1,1.1,0,0,1-.9-.53m.06,1.44c-.25-.3-.23-.33.13-.2s.39.13,0-.16-.32-.29.35-.25a2.58,2.58,0,0,1,.73.09,4.32,4.32,0,0,1-.89.87,1.31,1.31,0,0,1-.35-.35m-1.8,1.55a.18.18,0,0,1,.19-.18,1.69,1.69,0,0,0,.5-.12c.18-.07.32,0,.32.08s-.22.24-.5.3-.51,0-.51-.08m-3,6.19c-.25-.48-.27-.63-.06-.63s.66.79.46.91-.28-.06-.4-.28m-3.6,33a.39.39,0,0,1,.39,0c.16.07.11.12-.13.13s-.33,0-.26-.11m8.05-31.9c0-.19-.2-.24-.66-.17-.64.1-.64.11-.15.26.75.22.81.21.81-.09m2.63,3s-.14-.09-.31-.09-.26.09-.19.21.5.09.5-.12m2.45,2.26c.75-.4.75-.46,0-.35-.34,0-.56.17-.51.26s-.1.21-.35.26-.35.09-.1.11a2.31,2.31,0,0,0,1-.28m-9.13,1.32a.35.35,0,0,0-.63-.17c-.28.45-.22.56.22.45.22-.06.41-.18.41-.28m.76.37c-.1-.29-.43-.26-.53,0,0,.12.09.21.27.21s.3-.12.26-.26m1.16.26c.07-.11,0-.21-.08-.21a.43.43,0,0,0-.32.21c-.07.11,0,.2.07.2a.45.45,0,0,0,.33-.2m8,.82a.22.22,0,0,0-.22-.21c-.12,0-.16.1-.09.21s.31.26.31,0m-8.21,1.23c-.16-.27-.31-.27-.31,0a.21.21,0,0,0,.22.2c.12,0,.16-.09.09-.2m-1,.39c.21-.34-.27-.73-.54-.45a.39.39,0,0,0,.22.67.47.47,0,0,0,.32-.22m-2.35,2.68c.25-.16.22-.2-.15-.2s-.45.09-.45.2c0,.26.21.26.6,0m12.57.2a.2.2,0,0,0-.2-.2.21.21,0,1,0,0,.41.2.2,0,0,0,.2-.21m-11.76,2.46c-.25-.16-.23-.2.11-.2s.35,0,.1-.2a.43.43,0,0,0-.53,0c-.15.13-.29.13-.37,0s0-.24.19-.31a.45.45,0,0,0,.3-.38c0-.17-.05-.19-.15,0-.23.33-.83.51-1,.28a.22.22,0,0,0-.31-.08c-.1.06-.19,0-.19-.1s-.2-.19-.46-.16-.44-.06-.42-.31a.31.31,0,0,0-.31-.36c-1.49,0-.47,1.37,1.33,1.76,1.52.33,2.11.36,1.68.08m-1,2.52a.43.43,0,0,0-.39,0c-.07.07.05.12.27.11s.28-.06.12-.13m19.22.74c0-.35-.63-.89-.78-.66a1.24,1.24,0,0,1-.49.33c-.64.24-.38.55.45.55.45,0,.82-.1.82-.22m-20.3,1.06c.37-.23.08-.7-.32-.54a1.09,1.09,0,0,1-.81-.21,1.34,1.34,0,0,0-1-.2c-.62.16-.5.31.61.75s1.17.43,1.53.2m-.28,1c-.16-.27-.3-.27-.3,0a.21.21,0,0,0,.21.2c.12,0,.16-.09.09-.2m-1,2.87c.07-.12,0-.15-.19-.08-.35.13-.42.28-.13.28a.44.44,0,0,0,.32-.2m19.83.83c.19-.2-.2-.21-1.34,0-.08,0-.15.12-.15.24s1.18.11,1.49-.2m-20.79.77a.31.31,0,0,1,.5,0c.2.16.45.13.95-.11s.58-.37.45-.42a.76.76,0,0,0-.56.18c-.25.21-.34.21-.47,0s-.34-.21-1,0-.8.28-.59.42c.38.24.47.23.75-.05m3.29.23c0-.12-.09-.16-.2-.09-.26.16-.26.3,0,.3a.2.2,0,0,0,.2-.21m-.91.21c.07-.11-.08-.2-.34-.2s-.41,0-.17.2.36.25.51,0m15.81.82c-.16-.26-.31-.26-.31,0a.22.22,0,0,0,.22.21c.12,0,.16-.1.09-.21m-16.72.33s-.18-.12-.41-.18-.35,0-.29.08.7.26.7.1m16.62.29c0-.12-.14-.21-.31-.21s-.3.09-.3.21.14.2.3.2.31-.09.31-.2m-8.62.41c.07-.12,0-.15-.19-.08-.35.13-.41.28-.12.28a.44.44,0,0,0,.31-.2m-2.94.41c0-.27-.34-.27-.5,0-.07.11,0,.2.19.2s.31-.09.31-.2m-2,0a.21.21,0,0,0-.23-.19c-.12,0-.17-.16-.1-.36s.11-.33-.16,0-.33.32-.55.1-1.8-.43-1.8-.14c0,.1-.14.19-.3.19-.43,0-.39.36.05.45a8.71,8.71,0,0,0,3.09-.06M360,124c0-.1-.14,0-.3.12a1,1,0,0,0-.3.58c0,.3.6-.4.6-.7m5.07,3.33c.19,0,.21-.07.06-.13a.34.34,0,0,1-.12-.43c.1-.26,0-.3-.26-.18-.65.27-1,.28-1.25.07s-.26-.13-.26,0-.16.26-.35.3-.3.11.09.27a4.73,4.73,0,0,0,2.09.09m3.21,4.29a21.09,21.09,0,0,0-.07-2.77c-.13-1.26-.16-1.33-.58-1.18a3.12,3.12,0,0,1-1,.14c-.31,0-.56,0-.56.12s-.27.12-.6.1-.64.06-.72.34c-.14.45-.71.53-.71.1s-.32-.32-.75-.05c-.17.11-.22.06-.14-.15s0-.28-.36-.21-.36,0-.22,0c.35-.17.33-.51,0-.38-.15.06-.42-.1-.6-.35l-.33-.47v.45c0,.25-.09.46-.2.46a.19.19,0,0,1-.2-.18c0-.1-.23-.13-.51-.08s-.51,0-.51-.13.18-.23.38-.23a1,1,0,0,0,.63-.29,1.71,1.71,0,0,1,.83-.43c.95-.21.85-.43-.19-.44a8.35,8.35,0,0,1-1.51-.14,1.51,1.51,0,0,0-1,.1c-.33.18-.46.18-.52,0s-.16-.18-.26-.12c-.27.17-1.62-.13-1.5-.33s.4-.12.76-.06c.57.1.68,0,.87-.48s.18-.6-.17-.62-.33,0-.16.24.14.3-.13.41-.39,0-.43-.08a.35.35,0,0,0-.31-.22c-.13,0-.33-.2-.44-.46a.79.79,0,0,0-.71-.48c-1.08,0-1.12-.07-.64-.41s.42-.35.15-.56a1.76,1.76,0,0,1-.44-.9c-.16-.83.24-.9.92-.17s1.5,1,2,.74.58-.62.22-.62c-.11,0-.18-.12-.15-.26a.16.16,0,0,0-.2-.2c-.14,0-.26,0-.26-.14s-.18-.13-.41-.07-.39,0-.36-.08a1.34,1.34,0,0,0-.21-.64c-.33-.6-.18-.82.7-1,.46-.08.65-.2.52-.33s-.34-.12-.61,0c-.51.27-.84.28-.84,0,0-.11.17-.2.39-.2.68,0,.68-.41,0-.69l-.64-.28.58-.15.58-.14-.56-.49a2.71,2.71,0,0,1-.56-.59,3.67,3.67,0,0,1,1.63.24,2.11,2.11,0,0,0,.44.14.57.57,0,0,1,.28.17c.32.32,2.11.08,2.11-.28,0-.1-.2-.19-.45-.19a1.57,1.57,0,0,1-.93-.5c-.28-.31-.59-.45-.79-.37s-.3,0-.18-.27.09-.33-.09-.15-.67,0-.88-.69q-.13-.44-.51-.33c-.27.07-.39,0-.47-.43s.11-.72.35-.33a.67.67,0,0,0,1-.1.5.5,0,0,1,.4-.31c.16,0,.28-.09.28-.2s-.13-.21-.3-.21-.3-.09-.3-.2-.15-.2-.33-.2-.28-.07-.11-.28.05-.61-.29-.32-.26.12-.23-.19.12-.37.24-.31.05,0-.15-.19a1.08,1.08,0,0,1-.35-.43c0-.28.47-.1,1.32.49a6,6,0,0,0,1,.61c.3,0,.05-.6-.5-1.17s-.54-.67-.36-.75,0-.06-.29,0-.56,0-.56-.22.18-.33.45-.34.35-.07.21-.12a.5.5,0,0,1-.26-.43c0-.18.06-.26.14-.19s.35,0,.61-.17a2.31,2.31,0,0,1,1.31-.26c.54,0,.87,0,.93-.21s0-.24-.08-.23a2.32,2.32,0,0,1-.47,0c-.27,0-.27-.05,0-.23s.25-.2-.05-.2-.7-.85-.48-1.21c.08-.12.55.06,1.15.44.85.53,1.06.59,1.21.34.27-.42.23-.72-.05-.44a.85.85,0,0,1-.53.25c-.23,0-.24-.06,0-.3s.18-.37-.11-.66-.27-.38-.12-.43a.33.33,0,0,0,.23-.28c0-.11-.19-.14-.43-.06s-.38.06-.29-.09,0-.23-.18-.23-.31-.08-.31-.19c0-.41.4-.42,1,0s.71.37,1.12.11a1,1,0,0,1,.74-.19.37.37,0,0,0,.43-.1c.07-.12,0-.22-.08-.22s-.22-.16-.22-.36,0-.32-.3,0-.4.27-.07-.36c.23-.45.23-.45-.21-.05s-.44.39-.68-.26c-.14-.39-.36-.63-.55-.6s-.34-.13-.38-.44,0-.47.44-.35c.72.18,1.23,0,.93-.41a.64.64,0,0,1-.11-.59c.09-.26,0-.28-.27-.11-.63.34-.84.26-.7-.3.08-.33,0-.51-.11-.51s-.18-.1-.11-.22a.59.59,0,0,0-.14-.56c-.14-.19.14,0,.65.48a7.22,7.22,0,0,0,1.56,1.09c.36.16.61.36.55.46s0,.19.05.19l.82.1c.4.06.66,0,.66-.13s.12-.18.26-.13.22.15.24-.1,0,0-.12-.14c-.36-.2-1,.06-1-.22,0-.12-.16-.21-.36-.21a1.63,1.63,0,0,1-.78-.3c-.23-.16-.48-.24-.55-.17s-.13,0-.13-.21v-.5c0-.34,1.37-.14,2.18.32l.86.15v-.21c0-.38-.13-.58-.41-.66s-.56-.47-.2-.47c.13,0,.12-.14,0-.37-.25-.4-1.22-.38-1.14,0,0,.12-.2.29-.51.37s-.56.08-.56,0-.1-.12-.28,0-.33.17-.42,0,.08-.3.34-.4c1.81-.75,2.18-.94,2.28-1.21s.06-.25-.16-.07-.33.18-.41.1a3.29,3.29,0,0,0-1.18-.09c-1,0-1.28-.11-.43-.24.67-.1,1.08-.55,1-1.08s-.05-.46.29-.25.34.29.31.36.24.13.63.16.66,0,.6-.12,0-.41.17-.7c.23-.46.23-.52,0-.43s-.29,0-.29-.32-.12-.43-.28-.43-.32-.17-.37-.38,0-.35.67,0c.42.23.73.47.7.53s.25.13.64.16c.64.05.67,0,.38-.27a1.29,1.29,0,0,1-.32-.46c0-.08-.27-.27-.61-.41s-.55-.37-.47-.5a.38.38,0,0,0-.15-.44,2.34,2.34,0,0,1-.52-.88c-.22-.61-.21-.64.16-.41.21.14.35.34.3.45s.19.23.51.25.58,0,.58-.25.12-.25.35-.16.27,0-.07-.32c-.51-.55-.53-1.37,0-1.33a.51.51,0,0,0,.47-.37c.07-.21.2-.34.29-.28a.22.22,0,0,0,.3-.08c.06-.11-.07-.25-.29-.32a.58.58,0,0,1-.41-.47c0-.26.05-.28.24-.09s.57.31.57-.06c0-.17.1-.31.22-.31a2.11,2.11,0,0,0,.76-.42c.29-.24.56-.33.6-.22.09.29-.74,1.09-1,1s-.14,0-.07.19,0,.32-.1.32-.23.19-.23.42c0,.41,0,.41.86,0a7.34,7.34,0,0,0,1.2-.73c.24-.22.37-.23.48-.07s0,.28-.28.35a.82.82,0,0,0-.54.5c-.07.21-.2.34-.29.28s-.44.39-.53,1.09a1.27,1.27,0,0,1-.43.76c-.54.4-.23.54.43.19a2.48,2.48,0,0,1,.83-.3,2.27,2.27,0,0,0,.89-.53c.59-.5.63-.51.63-.12a.61.61,0,0,1-.41.55c-.22.07-.38.23-.35.36s-.09.24-.26.24-.57.73-.27.73a3,3,0,0,0,.76-.31c.32-.17.63-.27.69-.21s0,.11-.18.11-.22,0-.05.16c.39.25,0,.71-.64.71s-.55,0-.44.69.05.69-.35.69a1.09,1.09,0,0,1-.67-.22c-.15-.15-.25-.08-.33.23s-.07.44.73.32a7.12,7.12,0,0,0,1.6-.51c.65-.32.73-.33.56,0-.31.54-1,1.25-1.14,1.25-.34,0-1.31,1.07-1.13,1.25s1.92-.37,2.67-1.07c.48-.44.74-.56.89-.4s.15.22,0,.22-.2.09-.13.21-.1.43-.38.69-.45.54-.27.72.15.22,0,.19c-.46-.12-1.12.28-1.12.68a.55.55,0,0,1-.4.52c-.23.06-.41.18-.41.28s-.15.12-.34,0-.29,0-.18.12c.27.44,1.07,0,2.45-1.3.24-.23.6-.55.81-.72s.37-.27.24,0,0,.36.07.36,0,.18-.15.4c-.5.6-.57,1.44-.12,1.45s.32,0,0,.24-.43.2-.45.15-.19.12-.37.37a1.1,1.1,0,0,1-.82.46c-.63,0-.63.28,0,.58a1.27,1.27,0,0,0,1,0c.31-.12.51-.12.51,0s.22,0,.49-.31a1.66,1.66,0,0,1,.79-.5c.16,0,.34-.19.4-.41.13-.52.38-.52.7,0,.22.35.2.41-.1.41s-.31,0-.06.19.25.22-.06.33-.32.27-.26.42a.62.62,0,0,1-.19.57c-.2.2-.23.35-.08.44s-.14.71-.54.71a.25.25,0,0,0-.28.22c0,.14.33.17,1,.07s.89-.06.8,0-.33.22-1.36.39a5.25,5.25,0,0,0-.61.12,2.94,2.94,0,0,1-.6,0c-.39,0-.42,0-.12.11.65.18.91.55.6.84a1,1,0,0,1-.6.25c-.26,0-.29.06-.11.27s.16.34.09.41,0,.19.21.26.28.21.22.31c-.32.51,2.53-.28,2.95-.82a3.8,3.8,0,0,1,1.32-.8s0,.3-.18.58-.39.48-.65.44-.38-.06,0,.25.35.31.07.32a.62.62,0,0,0-.47.84c.06.11-.07.19-.3.19s-.45.18-.54.52a1.51,1.51,0,0,1-.71.82c-.37.2-.53.41-.46.61s.16.3.21.3a15.35,15.35,0,0,0,3.39-1.82c.4-.44,1.14-.59,1.14-.22,0,.11-.21.2-.46.2s-.38.05-.18.18.14,1-.2,1c-.11,0-.14.09-.08.2s0,.21-.1.21-.17.08-.11.19-.09.22-.34.26-.46.2-.46.37-.22.33-.56.37-.55.19-.55.33a1,1,0,0,1-.46.59c-.4.28-.41.33-.09.34s.32.09.25.19c-.17.29.74,0,1.34-.42a2.62,2.62,0,0,1,.67-.38,3.38,3.38,0,0,0,.82-.52c.66-.51,1-.43.79.18a.3.3,0,0,1-.37.22c-.14-.06-.25,0-.25.22a.34.34,0,0,0,.32.33c.19,0,.22,0,.08.11a.33.33,0,0,0-.12.42c.1.27.05.28-.32.08s-.64,0-.22.3-.53.94-.91.79c-.18-.07-.32,0-.32.11a.45.45,0,0,0,.29.35.32.32,0,0,1,.19.4c-.07.16-.2.24-.3.17s-.18,0-.18.21c0,.57.51.34,1.53-.72s2-1.74,2.21-1.44c.06.1,0,.29-.19.43a1.28,1.28,0,0,0,0,1.65c.27.3.28.43.05.79s-.38.39-.52.33-.25,0-.25.1-.14.14-.3.07c-.37-.14-.4.16-.05.53.2.22.17.23-.18,0s-.69-.13-.69.44c0,.33-.09.37-.55.27s-.47-.07-.28,0c.35.24.11.67-.29.51-.21-.08-.26,0-.18.2s.2.28.86,0a6.36,6.36,0,0,0,1.59-1.13l.85-.83-.12.9c-.06.49-.19.93-.29,1-.32.13-.79,1.23-.57,1.37a.42.42,0,0,1,.2.29c0,.26-1.09.42-1.31.2s-.51-.23-.51.09c0,.15.32.37.73.5a1.84,1.84,0,0,0,2.05-.52c.23-.3.26-.29.26.08a1.6,1.6,0,0,1-.42.86c-.22.24-.34.45-.25.45s-.14.15-.5.33-.6.41-.54.51c.17.28-.5.46-.79.21s-.35-.12-.62.19a1.08,1.08,0,0,1-.79.38c-.71,0-.89,0-.45.21a1.54,1.54,0,0,0,1.05-.1c.55-.23.68-.23.89,0a.56.56,0,0,0,.57.2c.18-.05.58-.14.88-.19a9,9,0,0,0,1-.24c.41-.13.4-.09-.11.59-.32.42-.67.68-.83.62-.38-.15-1,.35-1,.8,0,.19-.06.33-.13.3s-.32.17-.55.43-.5.43-.61.36c-.34-.22-.51.34-.18.58s0,.23-1,.22-1.3,0-1.3.34-.1.32-.3.25a1,1,0,0,0-.66,0,1.79,1.79,0,0,1-.81.11c-.74-.07-.52.34.3.58l.76.22-1-.09c-.56-.06-1,0-1,.1s.2.21.45.22c.44,0,.44,0,.05.18s-.54,0-.92-.32-.93-.66-.7-.29c.07.12,0,.21-.09.21-.49,0-.16.37.45.49s.61.17.29.35a.85.85,0,0,1-.71.06,1.16,1.16,0,0,0-.48-.12c-.08,0-.26-.25-.4-.58-.34-.76-.53-.78-.62,0,0,.38-.16.54-.36.49-1.13-.26-1.22-.21-1.22.67a34,34,0,0,0,.52,4.27c.12.54.08.56-.66.56h-.78Z" fill="#2e8dbd"/><path d="M310.21,13.43a1,1,0,0,1,.11-.77c.17-.28.24-.18.25.38,0,.83-.13,1-.36.39m-.15,2.26c-.43-.44-.4-.77.07-.77s.81.74.47.95c-.12.08-.36,0-.54-.18m-.16,1.81c-.46-.63-.47-.71-.07-.55s.46.06.46-.09a.29.29,0,0,1,.31-.27c.22,0,.23.1,0,.35-.37.45-.09.93.64,1.11.45.12.43.15-.14.17a1.49,1.49,0,0,1-1.22-.72m.08,2c-.33-.42-.31-.45.18-.28s.53.18,0-.21-.43-.39.48-.35a4.29,4.29,0,0,1,1,.12,5.88,5.88,0,0,1-1.2,1.19,1.67,1.67,0,0,1-.49-.47m-2.44,2.1a.25.25,0,0,1,.25-.24,2.62,2.62,0,0,0,.69-.17c.24-.09.44,0,.44.11s-.31.33-.69.41-.69,0-.69-.11M303.42,30c-.34-.65-.36-.87-.08-.87s.9,1.08.63,1.25-.39-.08-.55-.38m-4.9,44.9a.56.56,0,0,1,.53,0c.22.09.16.15-.16.17s-.46-.06-.37-.15m11-43.35c0-.26-.27-.33-.9-.23-.86.14-.87.15-.2.34,1,.3,1.1.29,1.1-.11m3.58,4.11c0-.07-.19-.12-.43-.12s-.35.12-.26.28.69.13.69-.16m3.32,3.07c1-.53,1-.62,0-.47-.46.07-.76.23-.69.35s-.14.28-.48.35-.48.13-.13.16a3.29,3.29,0,0,0,1.31-.39M304,40.51a.46.46,0,0,0-.85-.23c-.38.6-.3.76.3.61.3-.08.55-.25.55-.38m1,.51c-.13-.4-.57-.36-.71.06,0,.16.12.28.37.28s.4-.15.34-.34m1.59.34c.09-.15,0-.28-.11-.28a.64.64,0,0,0-.45.28c-.09.16,0,.28.11.28a.61.61,0,0,0,.45-.28m10.88,1.12a.28.28,0,0,0-.3-.28c-.16,0-.21.12-.12.28.22.35.42.35.42,0M306.3,44.15c-.22-.36-.41-.36-.41,0a.29.29,0,0,0,.29.28c.16,0,.21-.13.12-.28m-1.36.53c.28-.46-.36-1-.74-.61a.53.53,0,0,0,.31.91.61.61,0,0,0,.43-.3m-3.18,3.64c.33-.22.29-.27-.21-.27-.34,0-.62.12-.62.27,0,.35.29.35.83,0m17.07.28a.28.28,0,0,0-.27-.28.28.28,0,1,0,0,.56.28.28,0,0,0,.27-.28m-16,3.34c-.35-.22-.32-.27.13-.28s.48,0,.15-.26a.6.6,0,0,0-.73,0c-.21.18-.39.18-.49,0s0-.34.25-.42a.65.65,0,0,0,.41-.52c0-.24-.07-.26-.21-.06-.3.45-1.13.69-1.31.38a.31.31,0,0,0-.43-.11c-.14.09-.25,0-.25-.13s-.28-.26-.62-.23-.61-.07-.58-.42a.41.41,0,0,0-.42-.48c-2,0-.65,1.85,1.81,2.39,2.07.45,2.86.49,2.29.11m-1.33,3.43a.56.56,0,0,0-.53,0c-.09.09.07.16.36.15s.39-.08.17-.17m26.12,1c0-.49-.86-1.22-1.06-.91a1.63,1.63,0,0,1-.66.45c-.87.32-.51.75.62.75.6,0,1.1-.13,1.1-.29m-27.58,1.43c.49-.31.11-1-.45-.73a1.53,1.53,0,0,1-1.1-.28,1.76,1.76,0,0,0-1.37-.28c-.84.22-.68.42.84,1s1.59.58,2.08.26m-.38,1.37c-.22-.36-.41-.36-.41,0a.29.29,0,0,0,.29.28c.16,0,.21-.13.12-.28m-1.38,3.9c.1-.16,0-.2-.26-.11-.48.19-.56.39-.17.39a.58.58,0,0,0,.43-.28m26.95,1.13c.27-.27-.27-.28-1.81,0a.31.31,0,0,0-.21.33c0,.36,1.61.14,2-.28M297,65.26a.43.43,0,0,1,.68,0c.27.23.61.19,1.29-.15.51-.25.78-.5.6-.56a1,1,0,0,0-.75.24c-.34.29-.46.29-.64,0s-.46-.29-1.4,0-1.09.39-.8.57c.52.33.64.32,1-.06m4.47.31c0-.17-.12-.22-.28-.13-.35.22-.35.42,0,.42a.28.28,0,0,0,.28-.29m-1.24.29c.1-.15-.11-.28-.47-.27s-.55,0-.22.27c.51.34.49.34.69,0M321.73,67c-.22-.35-.42-.35-.42,0a.28.28,0,0,0,.29.28c.17,0,.22-.12.13-.28M299,67.42s-.25-.17-.55-.25-.48,0-.4.11.95.36.95.14m22.59.39c0-.15-.19-.28-.41-.28s-.42.13-.42.28.19.28.42.28.41-.13.41-.28m-11.71.56c.1-.16,0-.21-.26-.11-.48.18-.56.38-.17.38a.59.59,0,0,0,.43-.27m-4,.55c0-.36-.47-.36-.69,0-.1.16,0,.28.26.28s.43-.12.43-.28m-2.76,0a.28.28,0,0,0-.3-.27c-.17,0-.23-.21-.14-.48.16-.45.14-.45-.21,0s-.46.43-.76.14-2.44-.58-2.44-.2c0,.14-.19.26-.42.26-.57,0-.52.49.07.61,1.08.23,4.2.17,4.2-.07m-3.85,1.33c0-.13-.19-.06-.42.17a1.38,1.38,0,0,0-.4.79c0,.41.82-.54.82-1m6.88,4.53q.4,0,.09-.18a.44.44,0,0,1-.16-.58c.13-.36.06-.41-.36-.24-.88.36-1.34.38-1.7.09s-.35-.18-.35,0-.21.34-.48.41-.4.15.12.37a6.61,6.61,0,0,0,2.84.11m4.36,5.84a27.64,27.64,0,0,0-.08-3.77c-.18-1.71-.23-1.8-.79-1.6a4.79,4.79,0,0,1-1.35.19c-.42,0-.76.06-.76.16s-.37.16-.82.13-.86.09-1,.47c-.19.61-.95.72-.95.13,0-.41-.45-.44-1-.07-.23.15-.29.08-.19-.19s0-.38-.48-.29-.49,0-.3,0c.47-.22.43-.69,0-.51-.21.09-.58-.13-.83-.48l-.44-.64v.62c0,.34-.12.62-.28.62a.26.26,0,0,1-.27-.24c0-.14-.31-.18-.69-.11s-.69,0-.69-.18.23-.31.52-.31a1.24,1.24,0,0,0,.84-.4,2.39,2.39,0,0,1,1.14-.58c1.29-.28,1.16-.59-.26-.6a11,11,0,0,1-2.06-.19,2.09,2.09,0,0,0-1.34.13c-.45.25-.63.25-.71,0s-.21-.25-.35-.17c-.36.23-2.21-.17-2-.44s.54-.16,1-.08c.79.13.93,0,1.19-.66s.24-.81-.23-.85-.46,0-.22.33.18.42-.18.56-.53.06-.58-.11a.48.48,0,0,0-.42-.29c-.18,0-.45-.28-.6-.63a1.08,1.08,0,0,0-1-.65c-1.47-.07-1.52-.1-.87-.56s.57-.48.2-.76a2.29,2.29,0,0,1-.6-1.23c-.22-1.12.32-1.22,1.25-.23s2,1.4,2.75,1,.78-.85.3-.85c-.15,0-.25-.15-.21-.35a.21.21,0,0,0-.27-.27c-.19,0-.35,0-.35-.19s-.25-.18-.56-.1-.53,0-.49-.1a1.77,1.77,0,0,0-.28-.87c-.45-.82-.24-1.12.95-1.34.63-.12.88-.28.71-.46s-.47-.16-.83,0c-.7.38-1.15.39-1.15,0,0-.15.24-.27.53-.27.92,0,.92-.56,0-1l-.88-.37.79-.2.79-.2-.76-.66a3.22,3.22,0,0,1-.76-.81,5.17,5.17,0,0,1,2.21.33,4.18,4.18,0,0,0,.59.19.77.77,0,0,1,.39.23c.43.43,2.87.11,2.87-.38,0-.14-.28-.25-.62-.25a2.15,2.15,0,0,1-1.25-.68c-.4-.42-.8-.61-1.08-.51s-.4.06-.25-.36.13-.46-.12-.2-.9,0-1.19-.95c-.13-.39-.35-.54-.69-.45s-.54,0-.64-.58c-.14-.72.14-1,.47-.44A.93.93,0,0,0,296.7,56a.64.64,0,0,1,.54-.42c.21,0,.38-.12.38-.28s-.18-.28-.41-.28-.41-.12-.41-.27-.2-.28-.45-.28-.38-.09-.14-.38c.39-.47.06-.83-.41-.43-.26.22-.34.16-.31-.27s.17-.49.33-.41.07,0-.19-.26-.49-.48-.49-.58c0-.38.64-.15,1.79.66a8.73,8.73,0,0,0,1.36.83c.42,0,.07-.82-.67-1.59-.58-.6-.73-.91-.49-1s0-.08-.4,0c-.58.12-.76.05-.76-.29s.24-.46.62-.47.47-.09.28-.16a.67.67,0,0,1-.35-.58c0-.25.08-.36.19-.26s.47,0,.82-.24a3.17,3.17,0,0,1,1.78-.34c.74,0,1.19-.06,1.27-.29s0-.33-.11-.31a3.38,3.38,0,0,1-.64,0c-.37,0-.37-.06,0-.3s.34-.27-.07-.28-.94-1.15-.64-1.64c.1-.17.74.08,1.56.59,1.15.73,1.43.81,1.64.47.37-.58.32-1-.07-.59a1.22,1.22,0,0,1-.72.33c-.32,0-.33-.08-.06-.41s.25-.5-.14-.89-.36-.52-.16-.59a.46.46,0,0,0,.31-.38c0-.15-.26-.19-.59-.08s-.52.08-.39-.12,0-.31-.24-.31-.43-.12-.43-.26c0-.56.55-.57,1.42,0s1,.51,1.52.14a1.39,1.39,0,0,1,1-.25.49.49,0,0,0,.58-.14c.1-.16.05-.3-.11-.3s-.3-.22-.3-.48c0-.44-.05-.44-.41.05s-.54.36-.09-.49c.31-.61.31-.61-.28-.07s-.6.53-.93-.35c-.2-.53-.5-.85-.75-.81s-.46-.19-.52-.6c-.08-.58,0-.64.6-.48,1,.24,1.67-.06,1.26-.55a.92.92,0,0,1-.15-.81c.13-.35.06-.38-.36-.15-.86.47-1.14.35-.95-.41.11-.44.05-.69-.15-.69s-.24-.13-.15-.29a.81.81,0,0,0-.18-.77c-.21-.26.19,0,.87.65a9.49,9.49,0,0,0,2.13,1.49c.49.21.82.48.74.62s-.05.25.07.26l1.12.14c.54.07.89,0,.89-.19s.16-.24.36-.16.29.2.31-.14.08-.06-.16-.19c-.48-.28-1.33.07-1.33-.31,0-.15-.22-.28-.49-.28a2.24,2.24,0,0,1-1.07-.41c-.32-.22-.65-.32-.75-.23s-.17,0-.17-.29v-.67c0-.47,1.87-.2,3,.43l1.17.21v-.29c0-.51-.17-.79-.55-.89-.57-.15-.77-.64-.27-.64.17,0,.15-.19,0-.51-.33-.54-1.65-.52-1.54,0,0,.16-.28.38-.7.5s-.76.11-.76-.07-.14-.17-.39,0-.44.23-.56,0,.11-.4.46-.55c2.47-1,3-1.28,3.11-1.64s.07-.34-.23-.09-.45.23-.55.13a4.51,4.51,0,0,0-1.61-.13c-1.4.05-1.74-.13-.58-.31.91-.14,1.47-.76,1.34-1.48s-.06-.62.39-.33c.29.18.47.39.42.48s.34.18.86.22.9,0,.82-.16,0-.55.23-.95c.32-.62.32-.71,0-.58s-.39-.05-.39-.44-.17-.58-.38-.58-.44-.23-.52-.52c-.12-.48-.07-.48.91.07.58.31,1,.64,1,.72s.34.18.87.21c.87.07.92,0,.52-.36a1.55,1.55,0,0,1-.43-.63c0-.11-.38-.36-.83-.56s-.75-.51-.65-.67a.51.51,0,0,0-.2-.6,3.26,3.26,0,0,1-.7-1.2c-.3-.83-.29-.87.21-.55.29.18.47.45.42.61s.25.3.68.33.79-.07.79-.34.16-.33.47-.21.37.06-.1-.44c-.69-.75-.71-1.87,0-1.81a.68.68,0,0,0,.64-.49c.09-.29.27-.47.4-.38a.29.29,0,0,0,.4-.12c.09-.14-.09-.34-.4-.44a.78.78,0,0,1-.55-.63c0-.36.07-.38.33-.12.45.45.77.42.77-.09,0-.23.14-.41.3-.41a2.7,2.7,0,0,0,1-.58c.4-.32.76-.45.82-.3.12.39-1,1.49-1.33,1.29-.15-.09-.19,0-.1.27s0,.43-.14.43-.3.25-.3.56c0,.56,0,.56,1.17,0a10.63,10.63,0,0,0,1.62-1c.33-.29.51-.31.65-.09s0,.38-.38.47a1.15,1.15,0,0,0-.73.68c-.1.29-.27.47-.4.39s-.59.53-.72,1.48a1.65,1.65,0,0,1-.58,1c-.73.55-.32.74.58.27a3.44,3.44,0,0,1,1.14-.41,3.08,3.08,0,0,0,1.21-.72c.79-.68.84-.69.84-.16a.82.82,0,0,1-.54.74c-.3.1-.52.32-.48.49s-.13.33-.35.33c-.42,0-.78,1-.37,1a4,4,0,0,0,1-.42c.44-.24.86-.36.94-.28s0,.15-.25.15-.3.06-.06.21c.52.34-.05,1-.88,1s-.74.06-.6.94.08.94-.47.94a1.54,1.54,0,0,1-.91-.3c-.2-.21-.33-.12-.45.31s-.09.6,1,.43a9,9,0,0,0,2.17-.69c.89-.44,1-.45.77-.06-.43.74-1.31,1.7-1.56,1.7-.46,0-1.79,1.46-1.54,1.7s2.61-.5,3.64-1.45c.65-.6,1-.76,1.21-.55s.19.3-.05.3-.27.13-.17.29-.14.58-.52.94c-.53.5-.61.73-.36,1s.19.3,0,.26c-.61-.17-1.51.37-1.51.91a.74.74,0,0,1-.55.71c-.31.08-.55.26-.55.39s-.21.15-.46,0-.4-.07-.26.16c.37.6,1.46,0,3.34-1.77.32-.31.81-.74,1.1-1,.46-.38.49-.38.33.07-.1.26-.06.48.08.48s.06.25-.2.55c-.68.81-.77,2-.16,2,.44,0,.44,0-.06.33-.3.18-.58.27-.61.2s-.26.16-.5.5a1.49,1.49,0,0,1-1.11.63c-.86,0-.86.38,0,.78a1.66,1.66,0,0,0,1.38.05c.42-.16.69-.16.69,0s.3-.05.67-.43a2.32,2.32,0,0,1,1.07-.68c.22,0,.46-.25.54-.56.18-.7.52-.7,1,0,.29.48.27.56-.14.56s-.42,0-.08.27.33.29-.09.45a.47.47,0,0,0-.34.56.86.86,0,0,1-.27.78c-.26.27-.3.47-.11.59.37.23-.19,1-.73,1a.34.34,0,0,0-.38.29c0,.2.45.23,1.31.11s1.21-.09,1.09,0-.45.29-1.85.52c-.38.06-.75.14-.83.16a3.77,3.77,0,0,1-.82,0c-.54,0-.57,0-.16.14.88.25,1.23.75.82,1.14a1.39,1.39,0,0,1-.82.34c-.36,0-.39.09-.16.38s.23.45.14.55,0,.25.27.35.39.29.3.42c-.43.7,3.45-.37,4-1.11a5.13,5.13,0,0,1,1.8-1.09c.06.06-.05.41-.24.79s-.53.66-.88.6c-.52-.09-.52-.08,0,.34s.48.43.1.43a.83.83,0,0,0-.63,1.15c.08.14-.1.26-.41.26s-.62.23-.74.7a2.07,2.07,0,0,1-1,1.12c-.51.26-.73.55-.62.82s.21.42.27.42a21,21,0,0,0,4.62-2.47c.54-.61,1.54-.81,1.54-.32,0,.16-.28.28-.62.29s-.52.07-.25.24.2,1.42-.27,1.42c-.15,0-.19.13-.1.28s0,.28-.14.28-.23.12-.15.26-.12.3-.46.35-.63.27-.63.5-.3.46-.75.51-.76.25-.76.45a1.4,1.4,0,0,1-.62.8c-.54.38-.56.44-.12.46.27,0,.43.12.34.26-.24.39,1,0,1.82-.57a3.59,3.59,0,0,1,.91-.52,4.51,4.51,0,0,0,1.11-.71c.9-.69,1.4-.58,1.08.25a.41.41,0,0,1-.5.3c-.19-.08-.35.06-.35.29a.46.46,0,0,0,.44.45c.26,0,.3.08.1.16a.44.44,0,0,0-.16.57c.14.36.07.38-.43.11s-.87.05-.3.41-.72,1.27-1.24,1.06c-.24-.09-.43,0-.43.16a.61.61,0,0,0,.4.47.42.42,0,0,1,.24.54c-.08.22-.26.33-.39.24s-.25,0-.25.28c0,.78.69.46,2.08-1s2.75-2.36,3-2c.08.14,0,.41-.26.59a1.75,1.75,0,0,0,0,2.25c.37.41.38.57.07,1.07-.2.32-.52.53-.71.45s-.34,0-.34.13-.19.19-.42.1c-.5-.19-.54.21-.06.71.28.31.24.32-.24.07-.67-.35-.94-.18-.94.59,0,.44-.13.51-.75.36s-.63-.09-.38.08c.48.32.15.9-.39.69-.28-.11-.36,0-.25.27s.27.38,1.18,0A8.64,8.64,0,0,0,327,58.84l1.15-1.13L328,58.93a2.67,2.67,0,0,1-.4,1.32c-.44.17-1.07,1.67-.78,1.85a.61.61,0,0,1,.28.4c0,.35-1.48.57-1.78.28s-.7-.32-.7.11c0,.2.44.51,1,.68a2.54,2.54,0,0,0,2.8-.7c.31-.41.34-.4.34.1a2.14,2.14,0,0,1-.56,1.17c-.31.33-.47.61-.35.61s-.18.21-.67.45-.82.56-.74.7c.23.38-.67.62-1.07.28s-.48-.15-.84.27a1.47,1.47,0,0,1-1.09.51c-1-.08-1.2,0-.6.28a2.13,2.13,0,0,0,1.43-.14c.74-.31.93-.3,1.21,0a.81.81,0,0,0,.77.27,10.62,10.62,0,0,1,1.2-.27,10.34,10.34,0,0,0,1.35-.32c.54-.17.53-.12-.16.8-.44.58-.9.93-1.13.84-.51-.19-1.37.48-1.37,1.09,0,.27-.08.45-.18.42s-.44.22-.74.58-.68.57-.83.48c-.47-.29-.7.46-.25.8s0,.31-1.33.29-1.76,0-1.76.47-.14.44-.42.33a1.38,1.38,0,0,0-.89,0,2.63,2.63,0,0,1-1.1.15c-1-.1-.71.45.41.78l1,.3-1.31-.13c-.75-.07-1.3,0-1.3.15s.28.28.62.29c.59,0,.59,0,.07.25s-.74,0-1.26-.44c-.71-.67-1.26-.9-.95-.39.1.16,0,.28-.12.28-.67,0-.22.5.6.68s.84.22.4.47a1.17,1.17,0,0,1-1,.08,1.7,1.7,0,0,0-.66-.17c-.1,0-.35-.33-.55-.79-.45-1-.71-1-.83-.06-.05.51-.22.73-.5.67-1.53-.36-1.65-.29-1.64.9a44,44,0,0,0,.7,5.81c.15.73.11.76-.9.76h-1.07Z" fill="#abd1e6"/><path d="M60.21,155.43a1,1,0,0,1,.11-.77c.17-.28.24-.18.25.38,0,.83-.13,1-.36.39m-.15,2.26c-.43-.44-.4-.77.07-.77s.81.74.47,1c-.12.08-.36,0-.54-.18m-.16,1.81c-.46-.63-.47-.71-.07-.55s.46.06.46-.09a.29.29,0,0,1,.31-.27c.22,0,.23.1,0,.35-.37.45-.09.93.64,1.11.45.12.43.15-.14.17a1.49,1.49,0,0,1-1.22-.72m.08,2c-.33-.42-.31-.45.18-.28s.53.18,0-.21-.43-.39.48-.35a4.29,4.29,0,0,1,1,.12,5.88,5.88,0,0,1-1.2,1.19,1.67,1.67,0,0,1-.49-.47m-2.44,2.1a.25.25,0,0,1,.25-.24,2.62,2.62,0,0,0,.69-.17c.24-.09.44,0,.44.11s-.31.33-.69.41-.69,0-.69-.11M53.42,172c-.34-.65-.36-.87-.08-.87s.9,1.08.63,1.25-.39-.08-.55-.38m-4.9,44.9a.56.56,0,0,1,.53,0c.22.09.16.15-.16.17s-.46-.06-.37-.15m10.95-43.35c0-.26-.27-.33-.9-.23-.86.14-.87.15-.2.34,1,.3,1.1.29,1.1-.11m3.58,4.11c0-.07-.19-.12-.43-.12s-.35.12-.26.28.69.13.69-.16m3.32,3.07c1-.53,1-.62,0-.47-.46.07-.76.23-.69.35s-.14.28-.48.35-.48.13-.13.16a3.29,3.29,0,0,0,1.31-.39M54,182.51a.46.46,0,0,0-.85-.23c-.38.6-.3.76.3.61.3-.08.55-.25.55-.38m1,.51c-.13-.4-.57-.36-.71.06-.05.16.12.28.37.28s.4-.15.34-.34m1.59.34c.09-.15,0-.28-.11-.28a.64.64,0,0,0-.45.28c-.09.16,0,.28.11.28a.61.61,0,0,0,.45-.28m10.88,1.12a.28.28,0,0,0-.3-.28c-.16,0-.21.12-.12.28.22.35.42.35.42,0M56.3,186.15c-.22-.36-.41-.36-.41,0a.29.29,0,0,0,.29.28c.16,0,.21-.13.12-.28m-1.36.53c.28-.46-.36-1-.74-.61a.53.53,0,0,0,.31.91.61.61,0,0,0,.43-.3m-3.18,3.64c.33-.22.29-.27-.21-.27-.34,0-.62.12-.62.27,0,.35.29.35.83,0m17.07.28a.28.28,0,0,0-.27-.28.28.28,0,0,0,0,.56.28.28,0,0,0,.27-.28m-16,3.34c-.35-.22-.32-.27.13-.28s.48,0,.15-.26a.6.6,0,0,0-.73,0c-.21.18-.39.18-.49,0s0-.34.25-.42a.65.65,0,0,0,.41-.52c0-.24-.07-.26-.21-.06-.3.45-1.13.69-1.31.38a.31.31,0,0,0-.43-.11c-.14.09-.25,0-.25-.13s-.28-.26-.62-.23-.61-.07-.58-.42a.41.41,0,0,0-.42-.48c-2,0-.65,1.85,1.81,2.39,2.07.45,2.86.49,2.29.11m-1.33,3.43a.56.56,0,0,0-.53,0c-.09.09.07.16.36.15s.39-.08.17-.17m26.12,1c0-.49-.86-1.22-1.06-.91a1.63,1.63,0,0,1-.66.45c-.87.32-.51.75.62.75.6,0,1.1-.13,1.1-.29m-27.58,1.43c.49-.31.11-.95-.45-.73a1.53,1.53,0,0,1-1.1-.28,1.76,1.76,0,0,0-1.37-.28c-.84.22-.68.42.84,1s1.59.58,2.08.26m-.38,1.37c-.22-.36-.41-.36-.41,0a.29.29,0,0,0,.29.28c.16,0,.21-.13.12-.28m-1.38,3.9c.1-.16,0-.2-.26-.11-.48.19-.56.39-.17.39a.58.58,0,0,0,.43-.28m27,1.13c.27-.27-.27-.28-1.81-.05a.31.31,0,0,0-.21.33c0,.36,1.61.14,2-.28m-28.25,1a.43.43,0,0,1,.68,0c.27.23.61.19,1.29-.15.51-.25.78-.5.6-.56a1,1,0,0,0-.75.24c-.34.29-.46.29-.64,0s-.46-.29-1.4,0-1.09.39-.8.57c.52.33.64.32,1-.06m4.47.31c0-.17-.12-.22-.28-.13-.35.22-.35.42,0,.42a.28.28,0,0,0,.28-.29m-1.24.29c.1-.15-.11-.28-.47-.27-.51,0-.55,0-.22.27.51.34.49.34.69,0M71.73,209c-.22-.35-.42-.35-.42,0a.28.28,0,0,0,.29.28c.17,0,.22-.12.13-.28M49,209.42s-.25-.17-.55-.25-.48,0-.4.11,1,.36,1,.14m22.59.39c0-.15-.19-.28-.41-.28s-.42.13-.42.28.19.28.42.28.41-.13.41-.28m-11.71.56c.1-.16,0-.21-.26-.11-.48.18-.56.38-.17.38a.59.59,0,0,0,.43-.27m-4,.55c0-.36-.47-.36-.69,0-.1.16,0,.28.26.28s.43-.12.43-.28m-2.76,0a.28.28,0,0,0-.3-.27c-.17,0-.23-.21-.14-.48.16-.45.14-.45-.21,0s-.46.43-.76.14-2.44-.58-2.44-.2c0,.14-.19.26-.42.26-.57,0-.52.49.07.61,1.08.23,4.2.17,4.2-.07m-3.85,1.33c0-.13-.19-.06-.42.17a1.38,1.38,0,0,0-.4.79c0,.41.82-.54.82-1m6.88,4.53q.41,0,.09-.18a.44.44,0,0,1-.16-.58c.13-.36.06-.41-.36-.24-.88.36-1.34.38-1.7.09s-.35-.18-.35,0-.21.34-.48.41-.4.15.12.37a6.61,6.61,0,0,0,2.84.11m4.36,5.84a27.64,27.64,0,0,0-.08-3.77c-.18-1.71-.23-1.8-.79-1.6a4.79,4.79,0,0,1-1.35.19c-.42,0-.76.06-.76.16s-.37.16-.82.13-.86.09-1,.47c-.19.61-1,.72-1,.13,0-.41-.45-.44-1-.07-.23.15-.29.08-.19-.19s0-.38-.48-.29-.49,0-.3-.05c.47-.22.43-.69,0-.51-.21.09-.58-.13-.83-.48l-.44-.64v.62c0,.34-.12.62-.28.62a.26.26,0,0,1-.27-.24c0-.14-.31-.18-.69-.11s-.69,0-.69-.18.23-.31.52-.31a1.24,1.24,0,0,0,.84-.4,2.39,2.39,0,0,1,1.14-.58c1.29-.28,1.16-.59-.26-.6a11,11,0,0,1-2.06-.19,2.09,2.09,0,0,0-1.34.13c-.45.25-.63.25-.71,0s-.21-.25-.35-.17c-.36.23-2.21-.17-2-.44s.54-.16,1-.08c.79.13.93.05,1.19-.66s.24-.81-.23-.85-.46.05-.22.33.18.42-.18.56-.53.06-.58-.11a.48.48,0,0,0-.42-.29c-.18,0-.45-.28-.6-.63a1.08,1.08,0,0,0-1-.65c-1.47-.07-1.52-.1-.87-.56s.57-.48.2-.76a2.29,2.29,0,0,1-.6-1.23c-.22-1.12.32-1.22,1.25-.23s2,1.4,2.75,1,.78-.85.3-.85c-.15,0-.25-.15-.21-.35a.21.21,0,0,0-.27-.27c-.19,0-.35,0-.35-.19s-.25-.18-.56-.1-.53,0-.49-.1a1.77,1.77,0,0,0-.28-.87c-.45-.82-.24-1.12,1-1.34.63-.12.88-.28.71-.46s-.47-.16-.83,0c-.7.38-1.15.39-1.15,0,0-.15.24-.27.53-.27.92,0,.92-.56,0-1l-.88-.37.79-.2.79-.2-.76-.66a3.22,3.22,0,0,1-.76-.81,5.17,5.17,0,0,1,2.21.33,4.18,4.18,0,0,0,.59.19.77.77,0,0,1,.39.23c.43.43,2.87.11,2.87-.38,0-.14-.28-.25-.62-.25a2.15,2.15,0,0,1-1.25-.68c-.4-.42-.8-.61-1.08-.51s-.4.06-.25-.36.13-.46-.12-.2-.9,0-1.19-.95c-.13-.39-.35-.54-.69-.45s-.54,0-.64-.58c-.14-.72.14-1,.47-.44A.93.93,0,0,0,46.7,198a.64.64,0,0,1,.54-.42c.21,0,.38-.12.38-.28s-.18-.28-.41-.28-.41-.12-.41-.27-.2-.28-.45-.28-.38-.09-.14-.38c.39-.47.06-.83-.41-.43-.26.22-.34.16-.31-.27s.17-.49.33-.41.07,0-.19-.26-.49-.48-.49-.58c0-.38.64-.15,1.79.66a8.73,8.73,0,0,0,1.36.83c.42,0,.07-.82-.67-1.59-.58-.6-.73-.91-.49-1s0-.08-.4,0c-.58.12-.76.05-.76-.29s.24-.46.62-.47.47-.09.28-.16a.67.67,0,0,1-.35-.58c0-.25.08-.36.19-.26s.47,0,.82-.24a3.17,3.17,0,0,1,1.78-.34c.74,0,1.19-.06,1.27-.29s0-.33-.11-.31a3.38,3.38,0,0,1-.64,0c-.37,0-.37-.06,0-.3s.34-.27-.07-.28-.94-1.15-.64-1.64c.1-.17.74.08,1.56.59,1.15.73,1.43.81,1.64.47.37-.58.32-1-.07-.59a1.22,1.22,0,0,1-.72.33c-.32,0-.33-.08-.06-.41s.25-.5-.14-.89-.36-.52-.16-.59a.46.46,0,0,0,.31-.38c0-.15-.26-.19-.59-.08s-.52.08-.39-.12,0-.31-.24-.31-.43-.12-.43-.26c0-.56.55-.57,1.42,0s1,.51,1.52.14a1.39,1.39,0,0,1,1-.25.49.49,0,0,0,.58-.14c.1-.16,0-.3-.11-.3s-.3-.22-.3-.48c0-.44-.05-.44-.41,0-.48.64-.54.36-.09-.49.31-.61.31-.61-.28-.07s-.6.53-.93-.35c-.2-.53-.5-.85-.75-.81s-.46-.19-.52-.6c-.08-.58,0-.64.6-.48,1,.24,1.67-.06,1.26-.55a.92.92,0,0,1-.15-.81c.13-.35.06-.38-.36-.15-.86.47-1.14.35-1-.41.11-.44.05-.69-.15-.69s-.24-.13-.15-.29a.81.81,0,0,0-.18-.77c-.21-.26.19,0,.87.65a9.49,9.49,0,0,0,2.13,1.49c.49.21.82.48.74.62s-.05.25.07.26l1.12.14c.54.07.89,0,.89-.19s.16-.24.36-.16.29.2.31-.14.08-.06-.16-.19c-.48-.28-1.33.07-1.33-.31,0-.15-.22-.28-.49-.28a2.24,2.24,0,0,1-1.07-.41c-.32-.22-.65-.32-.75-.23s-.17,0-.17-.29v-.67c0-.47,1.87-.2,3,.43l1.17.21v-.29c0-.51-.17-.79-.55-.89-.57-.15-.77-.64-.27-.64.17,0,.15-.19,0-.51-.33-.54-1.65-.52-1.54,0,0,.16-.28.38-.7.5s-.76.11-.76-.07-.14-.17-.39,0-.44.23-.56,0,.11-.4.46-.55c2.47-1,3-1.28,3.11-1.64s.07-.34-.23-.09-.45.23-.55.13a4.51,4.51,0,0,0-1.61-.13c-1.4.05-1.74-.13-.58-.31.91-.14,1.47-.76,1.34-1.48s-.06-.62.39-.33c.29.18.47.39.42.48s.34.18.86.22.9,0,.82-.16,0-.55.23-.95c.32-.62.32-.71,0-.58s-.39-.05-.39-.44-.17-.58-.38-.58-.44-.23-.52-.52c-.12-.48-.07-.48.91.07.58.31,1,.64,1,.72s.34.18.87.21c.87.07.92,0,.52-.36a1.55,1.55,0,0,1-.43-.63c0-.11-.38-.36-.83-.56s-.75-.51-.65-.67a.51.51,0,0,0-.2-.6,3.26,3.26,0,0,1-.7-1.2c-.3-.83-.29-.87.21-.55.29.18.47.45.42.61s.25.3.68.33.79-.07.79-.34.16-.33.47-.21.37.06-.1-.44c-.69-.75-.71-1.87,0-1.81a.68.68,0,0,0,.64-.49c.09-.29.27-.47.4-.38a.29.29,0,0,0,.4-.12c.09-.14-.09-.34-.4-.44a.78.78,0,0,1-.55-.63c0-.36.07-.38.33-.12.45.45.77.42.77-.09,0-.23.14-.41.3-.41a2.7,2.7,0,0,0,1-.58c.4-.32.76-.45.82-.3.12.39-1,1.49-1.33,1.29-.15-.09-.19,0-.1.27s0,.43-.14.43-.3.25-.3.56c0,.56,0,.56,1.17,0a10.63,10.63,0,0,0,1.62-1c.33-.29.51-.31.65-.09s0,.38-.38.47a1.15,1.15,0,0,0-.73.68c-.1.29-.27.47-.4.39s-.59.53-.72,1.48a1.65,1.65,0,0,1-.58,1c-.73.55-.32.74.58.27a3.44,3.44,0,0,1,1.14-.41,3.08,3.08,0,0,0,1.21-.72c.79-.68.84-.69.84-.16a.82.82,0,0,1-.54.74c-.3.1-.52.32-.48.49s-.13.33-.35.33c-.42,0-.78,1-.37,1a4,4,0,0,0,1-.42c.44-.24.86-.36.94-.28s0,.15-.25.15-.3.06-.06.21c.52.34,0,1-.88,1s-.74.06-.6.94.08.94-.47.94a1.54,1.54,0,0,1-.91-.3c-.2-.21-.33-.12-.45.31s-.09.6,1,.43a9,9,0,0,0,2.17-.69c.89-.44,1-.45.77-.06-.43.74-1.31,1.7-1.56,1.7-.46,0-1.79,1.46-1.54,1.7s2.61-.5,3.64-1.45c.65-.6,1-.76,1.21-.55s.19.3,0,.3-.27.13-.17.29-.14.58-.52.94c-.53.5-.61.73-.36,1s.19.3,0,.26c-.61-.17-1.51.37-1.51.91a.74.74,0,0,1-.55.71c-.31.08-.55.26-.55.39s-.21.15-.46,0-.4-.07-.26.16c.37.6,1.46,0,3.34-1.77.32-.31.81-.74,1.1-1,.46-.38.49-.38.33.07-.1.26-.06.48.08.48s.06.25-.2.55c-.68.81-.77,2-.16,2,.44,0,.44,0-.06.33-.3.18-.58.27-.61.2s-.26.16-.5.5a1.49,1.49,0,0,1-1.11.63c-.86,0-.86.38,0,.78a1.66,1.66,0,0,0,1.38.05c.42-.16.69-.16.69,0s.3-.05.67-.43a2.32,2.32,0,0,1,1.07-.68c.22,0,.46-.25.54-.56.18-.7.52-.7,1,0,.29.48.27.56-.14.56s-.42.05-.08.27.33.29-.09.45a.47.47,0,0,0-.34.56.86.86,0,0,1-.27.78c-.26.27-.3.47-.11.59.37.23-.19,1-.73,1a.34.34,0,0,0-.38.29c0,.2.45.23,1.31.11s1.21-.09,1.09,0-.45.29-1.85.52c-.38.06-.75.14-.83.16a3.77,3.77,0,0,1-.82,0c-.54,0-.57,0-.16.14.88.25,1.23.75.82,1.14a1.39,1.39,0,0,1-.82.34c-.36,0-.39.09-.16.38s.23.45.14.55,0,.25.27.35.39.29.3.42c-.43.7,3.45-.37,4-1.11a5.13,5.13,0,0,1,1.8-1.09c.06.06,0,.41-.24.79s-.53.66-.88.6c-.52-.09-.52-.08,0,.34s.48.43.1.43a.83.83,0,0,0-.63,1.15c.08.14-.1.26-.41.26s-.62.23-.74.7a2.07,2.07,0,0,1-1,1.12c-.51.26-.73.55-.62.82s.21.42.27.42a21,21,0,0,0,4.62-2.47c.54-.61,1.54-.81,1.54-.32,0,.16-.28.28-.62.29s-.52.07-.25.24c.42.26.2,1.42-.27,1.42-.15,0-.19.13-.1.28s0,.28-.14.28-.23.12-.15.26-.12.3-.46.35-.63.27-.63.5-.3.46-.75.51-.76.25-.76.45a1.4,1.4,0,0,1-.62.8c-.54.38-.56.44-.12.46.27,0,.43.12.34.26-.24.39,1,0,1.82-.57a3.59,3.59,0,0,1,.91-.52,4.51,4.51,0,0,0,1.11-.71c.9-.69,1.4-.58,1.08.25a.41.41,0,0,1-.5.3c-.19-.08-.35.06-.35.29a.46.46,0,0,0,.44.45c.26,0,.3.08.1.16a.44.44,0,0,0-.16.57c.14.36.07.38-.43.11s-.87,0-.3.41-.72,1.27-1.24,1.06c-.24-.09-.43,0-.43.16a.61.61,0,0,0,.4.47.42.42,0,0,1,.24.54c-.08.22-.26.33-.39.24s-.25,0-.25.28c0,.78.69.46,2.08-1s2.75-2.36,3-2c.08.14,0,.41-.26.59a1.75,1.75,0,0,0,0,2.25c.37.41.38.57.07,1.07-.2.32-.52.53-.71.45s-.34,0-.34.13-.19.19-.42.1c-.5-.19-.54.21-.06.71.28.31.24.32-.24.07-.67-.35-.94-.18-.94.59,0,.44-.13.51-.75.36s-.63-.09-.38.08c.48.32.15.9-.39.69-.28-.11-.36,0-.25.27s.27.38,1.18,0A8.64,8.64,0,0,0,77,200.84l1.15-1.13L78,200.93a2.67,2.67,0,0,1-.4,1.32c-.44.17-1.07,1.67-.78,1.85a.61.61,0,0,1,.28.4c0,.35-1.48.57-1.78.28s-.7-.32-.7.11c0,.2.44.51,1,.68a2.54,2.54,0,0,0,2.8-.7c.31-.41.34-.4.34.1a2.14,2.14,0,0,1-.56,1.17c-.31.33-.47.61-.35.61s-.18.21-.67.45-.82.56-.74.7c.23.38-.67.62-1.07.28s-.48-.15-.84.27a1.47,1.47,0,0,1-1.09.51c-1-.08-1.2,0-.6.28a2.13,2.13,0,0,0,1.43-.14c.74-.31.93-.3,1.21,0a.81.81,0,0,0,.77.27,10.62,10.62,0,0,1,1.2-.27,10.34,10.34,0,0,0,1.35-.32c.54-.17.53-.12-.16.8-.44.58-.9.93-1.13.84-.51-.19-1.37.48-1.37,1.09,0,.27-.08.45-.18.42s-.44.22-.74.58-.68.57-.83.48c-.47-.29-.7.46-.25.8s0,.31-1.33.29-1.76,0-1.76.47-.14.44-.42.33a1.38,1.38,0,0,0-.89.05,2.63,2.63,0,0,1-1.1.15c-1-.1-.71.45.41.78l1,.3-1.31-.13c-.75-.07-1.3,0-1.3.15s.28.28.62.29c.59,0,.59,0,.07.25s-.74.05-1.26-.44c-.71-.67-1.26-.9-1-.39.1.16,0,.28-.12.28-.67,0-.22.5.6.68s.84.22.4.47a1.17,1.17,0,0,1-1,.08,1.7,1.7,0,0,0-.66-.17c-.1,0-.35-.33-.55-.79-.45-1-.71-1-.83-.06,0,.51-.22.73-.5.67-1.53-.36-1.65-.29-1.64.9a44,44,0,0,0,.7,5.81c.15.73.11.76-.9.76H60.41Z" fill="#abd1e6"/><path d="M16.44,231.16s.06.06.06.27-.08.42-.18.42-.23-.2,0-.55a.46.46,0,0,1,.12-.14m14.33-.6c-.09,0-.22.17-.27.38s0,.36.12.31.4-.69.15-.69m-13-.54a2.41,2.41,0,0,1,.4.27c.27.2.5.42.5.5,0,.26-.32,0-.72-.5q-.21-.27-.18-.27M23,228.58c-.4,0-.43.32.06.45.2.05.36.17.36.26a.18.18,0,0,0,.19.16c.11,0,.17-.18.14-.4s-.21-.42-.56-.46a.62.62,0,0,0-.19,0m11.36-.05a.18.18,0,0,1,.19.18c0,.24-.13.24-.27,0s0-.18.08-.18m-6.33-.34a.11.11,0,0,1,.14.12c0,.1-.13.23-.29.29s-.26,0-.22-.1a.47.47,0,0,1,.37-.31m11.14-.77c.06,0,.13,0,.2.15a.47.47,0,0,1,0,.39c-.11.17-.18.13-.25-.15s0-.38.1-.39m2.64-.82c-.17.05-.2.33,0,.52s.42.14.42-.13a.44.44,0,0,0-.28-.37.32.32,0,0,0-.13,0M10.28,226a.39.39,0,0,1,.29.18c.07.1,0,.19-.06.19a.4.4,0,0,1-.3-.19c-.06-.1,0-.18.07-.18m14-.35s.1,0,.2.05.51.17.75.23c.48.12.61.62.17.62a.28.28,0,0,0-.28.27c0,.17-.1.23-.28.16s-.28,0-.23.42a.86.86,0,0,1-.22.75c-.22.18-.23.27,0,.46s.31.2.6,0,.35-.23,0,.55a20.27,20.27,0,0,0-.69,2c-.33,1.16-.34,1.17-.67.8-.5-.56-1.27-3.2-1-3.38a1.16,1.16,0,0,1,.92-.16c.29,0,.32-.06.23-.61s-.06-.67.53-.88c.35-.13.58-.28.5-.34a2.66,2.66,0,0,1-.38-.54c-.14-.25-.19-.36-.14-.37m18-.76a.19.19,0,0,1,.19.19c0,.23-.13.23-.27,0s0-.19.08-.19m-33-.16s.06,0,.15.11.18.28.13.33-.16,0-.23-.22-.07-.2-.05-.22m-5.13-.35a.09.09,0,0,0,0,.08.51.51,0,0,0,.13.31.15.15,0,0,0,.21,0c.05-.05,0-.2-.12-.32s-.14-.12-.18-.1M5.22,224s.1,0,.19.1.17.27.12.32-.34-.09-.34-.34c0,0,0-.07,0-.08m38-.08c-.13,0-.13.24.09.51s.3.22.39.16,0-.27-.15-.48-.26-.21-.33-.19m-1-.07a.23.23,0,0,1,.21.1.22.22,0,0,1-.07.28.2.2,0,0,1-.28-.07.21.21,0,0,1,.06-.28.11.11,0,0,1,.08,0m-.73-4.23c-.07,0-.08.11,0,.27A.55.55,0,0,0,42,220c.27,0,.27,0,0-.27s-.33-.21-.41-.19m-20.06-.21a.12.12,0,0,1,.11.13c0,.13.13.17.3.1s.25-.06.09.14-.15.3-.09.37,0,.12-.18.12-.31,0-.32,0c-.11-.38-.1-.7,0-.79l.06,0m2.33-.06c.12,0,.16.05.09.12s0,.23.08.37.14.25,0,.25-.23-.13-.29-.29c-.16-.4-.14-.45.1-.45m-3.5-.19c.1,0,.18,0,.18.08s-.08.14-.18.2-.18,0-.18-.08a.19.19,0,0,1,.18-.2m4.22-.09c.29,0,.52.06.52.14s-.11.14-.25.14a.34.34,0,0,0-.32.19c0,.1-.16,0-.27-.15s-.14-.33.32-.32M22,219a1.14,1.14,0,0,1,.54.17c.45.28.13.36-.36.09-.26-.15-.34-.26-.18-.26m-13.76-.26c.08,0,.19.07.35.25s.26.37.07.37c-.42,0-.7-.27-.55-.52a.2.2,0,0,1,.13-.1m-1.16-.11c.18,0,.32.07.32.17s0,.23-.37,0-.22-.17,0-.17m-.81,0c.24,0,.37.07.31.17s-.12.23-.46,0-.19-.17.15-.17m21.07-.4c.4,0,.5.06.5.22s-.2.15-.55.08-.54,0-.54.06-.25.21-.55.25-.55,0-.55-.06.58-.49,1.19-.53l.5,0m-18.39-.1c.14,0,.22.07.17.16s-.21.19-.33,0,0-.16.16-.16m17-.18c.06,0,.11,0,.11.11a.2.2,0,0,1-.19.19c-.23,0-.23-.13,0-.28l.08,0m-20.3-.25c.08,0,.15.12.15.27s-.07.28-.15.28-.15-.12-.15-.28.07-.27.15-.27m23.05-.09s0,0,0,0a1.16,1.16,0,0,1,0,.56c-.05.17-.09.07-.1-.24s0-.36.06-.36m-.64-.1c.1,0,.19,0,.19.08s-.09.14-.19.2-.18,0-.18-.08a.19.19,0,0,1,.18-.2m3.12-.28c.11,0,0,.15-.23.5-.67.89-1.25.88-1.24,0,0-.42,0-.44.19-.16s.69.43.83.06a.8.8,0,0,1,.38-.37l.07,0M41,215.25c-.1,0-.18.13-.18.29s.08.23.18.17.24-.46,0-.46m-4.79-.17c.19,0,.23.06.09.11s-.18.17-.12.26,0,.23-.16.05-.13-.43.19-.42m3.69,0a.34.34,0,0,1,.28.18c.06.1,0,.18-.17.18s-.29-.08-.29-.18a.17.17,0,0,1,.18-.18m.46-.84s0,0,0,.05a.72.72,0,0,1,0,.46c-.05.13-.09,0-.09-.23s0-.29.06-.28M41,214a.79.79,0,0,1,.2,0c.14.06.1.1-.11.11s-.3,0-.24-.1A.21.21,0,0,1,41,214M4.64,211a.18.18,0,0,0-.18.18.18.18,0,1,0,.36,0,.18.18,0,0,0-.18-.18m17.81-.68c.35,0,.34.24,0,.38s-.44.15-.33-.13a.42.42,0,0,1,.36-.25m-4.76-.6s.11.05.18.17,0,.19-.08.19a.2.2,0,0,1-.19-.19c0-.12,0-.17.09-.17m-1.52-.24s.1.09.16.31a1.33,1.33,0,0,1,.1.61c-.1.1-.29-.5-.27-.84,0,0,0-.07,0-.08m-10.7-.27c-.14,0-.24.19-.16.41s.18.27.27.27.22-.43,0-.6a.22.22,0,0,0-.15-.08m15.11-.17a.23.23,0,0,1,.21.11c.07.11,0,.19-.17.19-.32,0-.36-.11-.11-.27l.07,0m21.9,0s-.06.06-.06.19c0,.34.65.76.92.59.1-.06.18,0,.18.18s.08.25.18.19a.64.64,0,0,0,.18-.49c0-.29-.08-.34-.38-.24a.76.76,0,0,1-.73-.21c-.15-.14-.24-.21-.29-.21m-21.12,0c.13,0,.07.52-.14,1s-.31.44-.52.37c-.43-.13-.91.08-.91.4s-.07.22-.39.05-.42-.15-.56.09a.55.55,0,0,1-.41.29c-.32,0-.53-.56-.29-.8s.19-.09.19.12c0,.51.37.36.58-.24.1-.3.27-.5.37-.44a3.29,3.29,0,0,0,1,.16c.59,0,.81,0,.83-.2.05-.5.07-.59.21-.73a.22.22,0,0,1,.06-.05m-2.4-.39c.05,0,.12.06.19.17s0,.19-.08.19a.19.19,0,0,1-.19-.19c0-.11,0-.17.08-.17m24.22-.36a.51.51,0,0,1,.43.17c.13.21.12.21-.37,0-.3-.13-.31-.16-.06-.17m-1-.38s.12.06.19.18,0,.18-.08.18a.18.18,0,0,1-.19-.18c0-.12,0-.18.08-.18m-35.2,0s.07.09.07.27-.07.28-.17.28-.13-.13-.07-.28.13-.27.17-.27m-1.86-.13s.12.07.17.21c.13.32,0,.38-.16.09-.06-.11-.08-.24,0-.29h0m2.33-.25a1.23,1.23,0,0,1,.57.23c.24.19.25.29.08.51-.3.38-.62.42-.75.09-.06-.15,0-.27.1-.27s.12-.1,0-.28-.18-.28,0-.28m1.65-.18c.09,0,0,.12-.1.28-.36.36-.6.36-.3,0a.67.67,0,0,1,.4-.28M3.48,207l0,0a.26.26,0,0,0,0,.3c.15.24.46.26.46,0a.42.42,0,0,0-.43-.35m39.28-.2c.05,0,.18,0,.37.15a.36.36,0,0,1,.18.37c0,.13-.2.07-.39-.16s-.23-.34-.16-.36m0-.73a.65.65,0,0,1,.2,0c.15.06.11.1-.11.11s-.3,0-.24-.1a.23.23,0,0,1,.15,0m-19.16-1.58a.48.48,0,0,1,.35.18c.13.15.18.27.12.27s-.15-.08-.21-.18a.21.21,0,0,0-.29-.08c-.09.05-.17.06-.17,0a.19.19,0,0,1,.2-.2M29.1,204c.1,0,.18,0,.18.08s-.08.13-.18.2-.18,0-.18-.08a.19.19,0,0,1,.18-.2m11.53-.7s.1,0,.18.11.17.26.12.31-.33-.09-.33-.34c0,0,0-.07,0-.08m1.73-1.07a1.41,1.41,0,0,1,.88.32c.11.1.11.15,0,.14-.71-.11-1-.21-1-.37s0-.08.12-.09m.7-.75a.26.26,0,0,1,.27.25c0,.31-.08.31-.33,0s-.14-.25.06-.25M6.72,195.39l-.07,0a.42.42,0,0,0-.18.3c0,.1.08.13.18.07a.39.39,0,0,0,.18-.29c0-.08,0-.12-.11-.11m1.45-.72a.21.21,0,0,1,.21.11c.07.1,0,.18-.17.18-.32,0-.36-.1-.11-.26a.11.11,0,0,1,.07,0M25,186.51a1.65,1.65,0,0,0-1,.36c-.32.3-.45.33-.67.16s-.26-.17-.26.07-.15.3-.39.3-.35.08-.28.28,0,.27-.44.27-.54.09-.54.19c0,.29-.33.22-.89-.2a3,3,0,0,0-1.27-.44,2.32,2.32,0,0,1-1-.28.45.45,0,0,0-.47-.09c-.13.08-.09.21.13.39s.29.25-.17.17c-.28,0-.69-.13-.92-.19l-.41-.1.41.21c.61.32.53.88-.13,1s-.71.33-.32.49c.12,0,0,.1-.18.11-.5,0-.53.17-.1.49s.11.63-.77.67c-.46,0-.77-.08-.91-.28s-.64-.42-.64-.13a.19.19,0,0,1-.19.19c-.1,0-.18-.13-.18-.29s-.11-.27-.59-.15a5.32,5.32,0,0,1-1.28.1c-.64,0-.78.08-.71.57,0,.07-.1.14-.25.14s-.27.08-.27.18-.14.19-.32.19-.29,0,0,.27.23.26-.77.21c-.62,0-1.12,0-1.12.1s-.17.15-.38.15-.35.1-.3.23.15.24.24.24a.91.91,0,0,1,.39.15c.14.09.35,0,.52-.15.37-.37.56-.37.25,0s-.16.31.21.42.35.14-.29.23-.72.12-.28.32c.26.11.38.21.28.23a1.61,1.61,0,0,0-1.09.42c-.14.15-.21.32-.15.38s0,.11-.11.11a.88.88,0,0,0-.5.29c-.22.22-.24.34-.07.54a.79.79,0,0,1,.1.64c-.14.45.05.5.35.08.19-.26.23-.26.45,0s.19.3-.07.3-.25.08-.18.19a2.5,2.5,0,0,1,0,1.68c-.13.07-.11.26,0,.55l.22.44-.43-.46L6.92,198l0,.42c-.06.42-.63.86-.84.65s-.11,0-.11.2-.09.3-.27.23c-.47-.18-.53.3-.08.67l.44.37-.42-.14c-.37-.11-.4-.08-.3.35s0,.5-.17.58a.49.49,0,0,0-.3.4c0,.23-.05.24-.27,0s-.31-.3-.61.61c-.24.7-.14,1.17.14.7.13-.2.18-.2.3,0s.06.27-.07.32-.28.72,0,.84.17.1,0,.11a.41.41,0,0,1-.33-.18c-.17-.28-.45-.22-.45.1a.44.44,0,0,0,.27.39c.42.17.32.41-.12.3-.28-.08-.35,0-.26.12a2,2,0,0,1,.15.83A1.62,1.62,0,0,0,4,207c.23.24.38.54.34.66s.09.38.3.59a1.28,1.28,0,0,1,.38.68c0,.24,0,.26.25.09s.3-.16.38,0a.39.39,0,0,0,.29.19c.19,0,0-.59-.25-.76s0-.53.34-.53c.14,0,.21.12.16.27-.2.51,1.13,1.45,1.41,1,.1-.17.22-.14.51.12s.44.28.51.21,0-.26-.21-.4-.27-.27-.15-.27a.47.47,0,0,1,.33.21.46.46,0,0,0,.48.11c.33-.09.33-.07.09.3s-.4.39-1.09.34c-.46,0-.87,0-.94.14a.94.94,0,0,1-.66.2c-.3,0-.54.08-.54.19s.22.14.5.09l.5-.1-.48.2c-.36.14-.46.28-.38.57s.05.36-.3.17c-.52-.28-.88-.06-.44.28.29.23.27.24-.27.14-.37-.07-.59,0-.59.09s-.1.16-.23.11-.44.11-.68.37l-.43.47h.56a1.39,1.39,0,0,0,.85-.28c.36-.36.87-.36.73,0a.52.52,0,0,1-.46.28c-.29,0-.32.06-.16.35s0,.43-.51.13-.48.1,0,.47.45.36,0,.15c-.68-.34-.88.07-.26.56.45.36.46.4.1.29s-.41-.06-.41.16a.29.29,0,0,1-.28.29c-.18,0-.27.18-.27.56s.07.55.32.51.77.16.77.42c0,.11-.12.12-.31,0-.36-.19-.78-.1-.78.17,0,.09.23.26.5.37l.5.21-.5.17c-.59.21-.63.43-.15.74.29.18.31.29.14.66s-.14.49.25.79.51.27.63.15.09-.23-.09-.34-.21-.23-.13-.3.35,0,.41.55a1.84,1.84,0,0,0,.17.66c.18.29.64.23.64-.09s.22-.35.73-.27c.16,0,.09-.11-.17-.32s-.37-.4-.22-.49.21-.06.21,0,.21.13.59,0c.6-.18,1.23-.08,1.23.19,0,.08-.25.19-.56.26s-.54.19-.46.39,0,.27-.14.27-.44.38-.68.83-.56.83-.76.83-.32.09-.32.2-.08.14-.18.08-.18,0-.18.1.15.16.32.1a.48.48,0,0,1,.55.27c.15.24.16.36,0,.36s-.15.07-.1.16-.15.14-.45.1c-.69-.08-.68.09,0,.84.42.45.51.65.36.83s-.13.27.09.36c.44.17.67.13.54-.08s0-.18.16-.18.24.12.12.55-.09.6.09.75a.5.5,0,0,1,.13.52c-.1.26-.07.27.19.05s.31-.21.31,0,.1.3.21.3.16-.16.11-.35,0-.4.12-.44.14-.18,0-.47-.18-.4.16-.4.37-.08.29-.41-.06-.36.32.11.83.52.83-.11c0-.47.27-.24.46.39.11.38.07.41-.26.31-.49-.16-.49.11,0,.55.31.29.33.36.1.49a.37.37,0,0,0-.17.43c.08.22-.08.27-.78.28s-.82,0-.56.2.29.23-.18.64c-.29.25-.61.41-.73.37-.36-.14-.43.12-.1.39s.28.25-.1.14-.53.15,0,.55l.41.3-.49-.1c-.57-.12-.8.13-.41.46s.37.92.11.92c-.09,0-.22-.18-.27-.41s-.17-.35-.24-.27.49,1.41.71,1.41a1.51,1.51,0,0,0,.54-.4l.41-.41.11.46c.12.51.66.63.58.12,0-.19,0-.3.18-.27.4.08.5.38.19.61a.34.34,0,0,0-.14.45c.12.18.21.16.41-.11s.26-.31.14.24c-.07.35-.05.6.06.6s.43-.8.29-1.18c-.06-.16,0-.29.06-.29s.24.12.3.28c.14.38.47.34.49-.05s.05-.26.29.09.75.61.52.23c-.07-.1.05-.18.25-.18.42,0,1-.51.84-.75s0-.17.09-.17.16.14.09.36c-.14.47,0,.47.46,0s.46-.72-.05-.75-.37,0,0-.12a1.72,1.72,0,0,0,.56-.25,1,1,0,0,1,.79,0c.32.11.64.15.71.07s0-.18-.1-.23c-.5-.18-.2-.44.37-.31.78.17.8.21.34.61a1.21,1.21,0,0,0-.39.53.39.39,0,0,0,.66.19c.08-.13.19-.05.29.21s.25.39.42.32a.38.38,0,0,1,.45.25c.21.39.74.31.74-.11,0-.14.07-.26.17-.26s.15.22.13.49.08.52.23.57.23,0,.16-.28,0-.35.17-.27.26-.08-.1-1.06c-.09-.25-.06-.24.22,0s.33.22.42-.13.2-.41.33-.41a.67.67,0,0,0,.44-.26c.18-.21.14-.3-.16-.47s-.33-.29-.26-.4.17-.12.31,0c.28.29.49.25.49-.08,0-.15.09-.27.2-.27s.15-.22.08-.6l-.11-.6.55.64a4.39,4.39,0,0,1,.75,1.39,22.87,22.87,0,0,0,.79,2.21,15.78,15.78,0,0,1,.46,9.45c-.13.5-.24,1-.3,1.38h4.56c-.05-.21-.09-.43-.15-.69a52.92,52.92,0,0,1,.28-11.55c.3-1.28.35-1.36,1.1-1.77s.85-.37,1-.21.25.15.25,0,.67-.27.83,0,.18.15.32,0a.67.67,0,0,1,.38-.2c.1,0,0,.12-.16.26a.92.92,0,0,1-.67.16c-.23-.06-.33,0-.33.23a.48.48,0,0,0,.38.41c.26.07.31.15.16.24a.26.26,0,0,0-.09.36c.09.15.21.11.39-.16.32-.47.8-.31.8.27a.73.73,0,0,0,.18.54.5.5,0,0,1,.18.39c0,.15-.08.23-.18.16a.21.21,0,0,1-.09-.27.21.21,0,0,0-.09-.28c-.1-.06-.18,0-.18.22,0,.85,1,1.09,1.2.27.21-1,.25-1,.51-.68s.66.26.66-.13a1.24,1.24,0,0,0-.3-.54c-.33-.36-.19-.73.14-.39s.71.08.71-.36,0-.33.38.11.82.49.53-.06a1.31,1.31,0,0,1-.17-.5c0-.09.13.07.28.35s.36.51.48.51.16-.05,0-.21-.08-.4.28-1c1-1.49,1.36-1.76,1.55-1,.11.45.49.49.49,0,0-.27.07-.25.37.12s.31.51.26.6.17.2.43-.06.22-.15.22.09.08.31.18.31.18-.16.18-.37.09-.36.21-.36.13-.09,0-.28-.17-.28,0-.28.19,0,0-.22-.27-.45.19-.44c.24,0,.39-.08.37-.21s.15-.23.42-.23c.62,0,.55-.64-.07-.67a1.12,1.12,0,0,1-.64-.24c-.17-.17-.14-.19.12-.09a.38.38,0,0,0,.49-.11c.1-.17.19-.13.34.15a1.25,1.25,0,0,0,.85.51,1.53,1.53,0,0,1,.73.28c.16.26.45.19.45-.11,0-.14-.23-.39-.5-.54s-.41-.27-.2-.28a.57.57,0,0,1,.43.18.28.28,0,0,0,.31.13c.28-.09.34-.74.08-.93s-.15-.18,0-.24-.4-1.55-.72-1.55c-.13,0-.09-.11.1-.25a.94.94,0,0,0,.32-.63.68.68,0,0,1,.15-.48c.24-.15.12-.86-.17-1s-.6-.19-.33.13.2.29-.12.23a1.48,1.48,0,0,1-.68-.76c-.3-.65-.68-.93-.68-.5s-.38,0-.56-.5c-.09-.25-.25-.4-.36-.33s-.12.2,0,.38c.42.5-.06.25-1-.52-.58-.49-.95-.7-1-.55a.47.47,0,0,1-.43.22c-.19,0-.35.08-.35.18,0,.36-.64.18-1.18-.32a2.74,2.74,0,0,0-.73-.53l-.42,0c-.47-.05-.2-.32.36-.36a2.28,2.28,0,0,0,.66-.12s.23.1.41.33c.35.42.48.24.18-.24a.41.41,0,0,1,0-.51c.29-.35,0-.53-.41-.27s-.45.16.07-.41.67-.6.67-.12a.6.6,0,0,0,.18.47c.1.07.18-.09.18-.37s.08-.43.18-.36.24,0,.29-.17c.14-.35-.34-1.32-.62-1.26-.12,0-.21-.09-.21-.25s.09-.22.54.11c.3.21.55.47.55.57s.09.14.2.07.15-.34.09-.61-.07-.42.07-.22a1.45,1.45,0,0,1,.19.65c0,.31,0,.29.24-.12s.25-.46.45-.23.18.26-.05.26-.28.08-.28.18a.2.2,0,0,0,.19.19c.11,0,.14.2.06.49s-.05.44.1.35.2,0,.21.2,0,.32.27,0,.27-.35.27,0,0,.36.28,0a1.5,1.5,0,0,0,.27-.7.5.5,0,0,1,.27-.44.43.43,0,0,0,.27-.36c0-.14.12-.2.28-.14.32.12.34-.09.08-.78-.16-.44-.15-.47.09-.26a.8.8,0,0,1,.28.57c0,.19.09.35.19.35s.23-.5,0-.65-.22-.46.08-.34.25-.05.22-.57a1.5,1.5,0,0,0-.22-.8,2.71,2.71,0,0,1-.43-.45c-.22-.29-.21-.32,0-.22s.3,0,.3-.15-.18-.33-.39-.38-.33-.19-.26-.3-.11-.2-.48-.22-.46-.06-.29-.11a.4.4,0,0,0,.32-.35c0-.15.07-.23.17-.17a.7.7,0,0,0,.49,0c.3-.12.3-.14,0-.27-.56-.22-.81-.19-.81.11,0,.15-.06.27-.14.26a.58.58,0,0,0-.23,0c-.37.15-.91.09-.91-.1a.38.38,0,0,0-.14-.31c-.07,0,0,0,.14,0,1,.29,1,.3.88-.17a.8.8,0,0,1,.11-.63c.29-.27.84-.11.72.2-.06.15,0,.27.1.27a.22.22,0,0,0,.2-.23c0-.13.09-.09.2.09.21.37.61.44.48.09s.75-.24,1.05.16.26.34.27,0,.05-.3.28-.11.27.17.27-.1a1.21,1.21,0,0,0-.29-.66c-.31-.35-.21-.72.21-.72.15,0,.27-.08.27-.18a.19.19,0,0,0-.14-.19c-.08,0-.16-.26-.18-.59s-.12-.63-.23-.66c-.35-.12-.18-.37.18-.27.2,0,.37,0,.37-.11s-.2-.25-.44-.31a.79.79,0,0,1-.56-.56c-.06-.24-.18-.45-.28-.45s-.12-.12-.06-.28,0-.29-.69-.24-.8,0-.8-.21.11-.26.24-.23a1,1,0,0,0,.59-.15c.28-.15.38-.13.47.09.18.48.58.32.7-.27.09-.38.24-.55.48-.55s.47-.27.16-.46-.21-.46.11-.46c.15,0,.23-.08.17-.18s0-.14.17-.08.28,0,.28-.08-.16-.24-.36-.31-.37-.23-.37-.37a.65.65,0,0,0-.34-.45c-.42-.23-.6-1-.28-1.3s.21-.11.13.18,0,.37.22.37.27-.09.21-.26,0-.29.06-.32-.26-.72-.57-.78a3.84,3.84,0,0,1-.52-.16,6.13,6.13,0,0,0-.78-.22c-.27-.06-.5-.21-.51-.33s-.33-.43-.73-.68-.72-.52-.72-.61,1,0,1.13.3.41-.08.19-.44-.17-.33,0-.25c.42.16.52-.27.12-.48s-.37-.14-.37,0c0,.35-.28.19-.5-.29s-.16-.43,0-.29a1.77,1.77,0,0,0,1.09.24c.34-.05-.32-.82-1.15-1.34s-1.15-.82-.59-.64a.83.83,0,0,0,.6-.08c.24-.16.24-.2,0-.36a1.09,1.09,0,0,0-.49-.18c-.12,0-.17-.17-.11-.38.11-.41-.12-.48-.46-.14s-.29.05-.23-.64a.56.56,0,0,0-.39-.5c-.23-.09-.35-.18-.26-.18.36,0-.33-.57-.72-.57a.75.75,0,0,1-.54-.18c-.06-.1-.31-.13-.55-.07s-.45,0-.45-.12-.19-.19-.59-.12a2.1,2.1,0,0,1-1-.06c-.2-.09-.26-.16-.14-.17a.22.22,0,0,0,.23-.21c0-.18-.94-.13-2.12.11a1.05,1.05,0,0,1-.73-.19c-.27-.21-.27-.25,0-.17s.38,0,.51-.27.15-.39-.07-.39a.52.52,0,0,0-.38.19.33.33,0,0,1-.33.15c-.28,0-1.22.42-1.22.6s.1.18.23.23,0,.06-.28,0-.61,0-1,.47c-.6.65-.74.7-.74.28,0-.23-.11-.27-.5-.17s-.49.12-.15-.26.33-.38-.1-.54a1.07,1.07,0,0,0-.58-.09c-.07.05-.13,0-.13-.13a.78.78,0,0,0-.32-.47c-.31-.23-.3-.25,0-.26s.29-.06.14-.25-.09-.49.37-.49.46-.29.12-.41a2,2,0,0,0-.87.16c-.52.18-.71.18-.92,0a1.49,1.49,0,0,0-1-.26" fill="#2e8dbd"/><path d="M105.74,134.82c.43.27.33.44,0,.69a1.07,1.07,0,0,0,0,1.38c.09.1.2.25.11.33-.42.41-.26,1.26-1,1.37a.31.31,0,0,0-.26.32c0,.3,0,.55-.38.65-.18,0,0,.24.07.36a.25.25,0,0,1,0,.35.24.24,0,0,1-.31,0,3.41,3.41,0,0,0-.5-.19c-.3-.15-.48-.1-.6.22s-.27.37-.5.11-.29-.09-.44,0c-.44.2-.86.29-1.21-.15a.12.12,0,0,0-.2,0l-.09.11c-.51-.41-.89.44-1.4.13-.15-.09-.22.07-.28.18a.4.4,0,0,1-.57.21c-.25-.14-.22-.36-.13-.6s.2-.35.15-.55,0-.57-.44-.37a.29.29,0,0,1-.4-.33,1.13,1.13,0,0,0-.2-1c-.29-.43-.26-1-.7-1.35,0,0,0-.05,0-.08a2.71,2.71,0,0,0-.26-1.37c0-.1-.08-.24-.12-.35s-.39-.46-.12-.75c-.23-.18-.27-.51-.48-.7s-.36-.24-.18-.5,0-.12-.11-.13-.17-.12-.1-.17c.31-.23.32-.55.38-.88s.29-.23.48-.25.37,0,.31-.25,0-.48-.32-.47-.39-.13-.3-.41a.26.26,0,0,0-.08-.26c-.28-.31-.11-.62-.11-1a7.41,7.41,0,0,1,.09-1.55c.07-.32-.07-.62.32-.82s.23-.36,0-.49c-.51-.27-.43-.48,0-.7a.24.24,0,0,0,.12-.37c-.27-.47,0-.78.31-1.09.14-.12.5-.26,0-.48-.14-.07-.05-.24.07-.32s.24-.15.36-.24a.21.21,0,0,0,.1-.25c0-.1-.13-.08-.21-.06a.32.32,0,0,1-.39-.27c-.06-.23.06-.36.26-.45s.34-.43.49-.61c.32-.4.2-.65,0-1a.71.71,0,0,1,0-.5c.17-.29,0-.43-.12-.65s.22-.32.34-.47-.15-.17-.22-.25-.13-.27,0-.27c.31,0,.51-.31.8-.26s.57-.11.66-.45.28-.48.57-.16.52-.13.76.13c0-.21-.14-.28-.2-.39s-.21-.23-.12-.39.22-.11.36-.07.3-.18.57-.16a1.45,1.45,0,0,1,1,.33c.13.1.18,0,.26-.1.28-.35.51-.37.74,0,.1.16.15.17.29.09a.3.3,0,0,1,.44,0,.47.47,0,0,1,0,.5c-.08.18-.41.32-.27.47s.34.55.64.7a1.48,1.48,0,0,1,.33.18c.24.25.4.23.54-.09s.26-.23.41-.33.27-.15.4,0,0,.23-.08.35a1.94,1.94,0,0,1-.63.93.19.19,0,0,0-.06.22c.06.09.15,0,.21,0,.5-.28.57.28.8.46s-.14.23-.29.26c-.38.07-.78,0-1.13.2a1.54,1.54,0,0,0-.17.13,1.82,1.82,0,0,1,1,.44c.17.17.32,0,.42-.16s.19-.29.38-.2.15.26.1.42,0,.25-.1.33c-.36.4-.66.8-.16,1.31-.26.45.1.68.34,1a.42.42,0,0,1,0,.46c-.06.14-.26.28-.06.42s.3,0,.43-.12.11-.11.23-.08c0,.35-.49.43-.41.69s-.23.51-.31.81c.81,0,1,.74,1.49,1.13.23.18-.25.29-.33.48s.5.19.23.5c-.14.16-.39.14-.58.21s-.21,0-.21.17.1.12.17.15h0c.44.07-.08.49.19.56.43.12.2.29.17.55a.82.82,0,0,1-.63.83c-.2.07-.16.28-.05.41a4.28,4.28,0,0,1,.48.82c.19.33.39.6-.1.81-.13.06-.1.16,0,.24.25.29.1.57,0,.86s-.4.45-.06.74c.1.1-.07.2-.18.21s-.35,0-.61,0" fill="#2e8dbd"/><path d="M329.74,193.82c.43.27.33.44,0,.69a1.07,1.07,0,0,0,0,1.38c.09.1.2.25.11.33-.42.41-.26,1.26-1.05,1.37a.31.31,0,0,0-.26.32c0,.3,0,.55-.38.65-.18,0,0,.24.07.36a.25.25,0,0,1,0,.35.24.24,0,0,1-.31,0,3.41,3.41,0,0,0-.5-.19c-.3-.15-.48-.1-.6.22s-.27.37-.5.11-.29-.09-.44,0c-.44.2-.86.29-1.21-.15a.12.12,0,0,0-.2,0l-.09.11c-.51-.41-.89.44-1.4.13-.15-.09-.22.07-.28.18a.4.4,0,0,1-.57.21c-.25-.14-.22-.36-.13-.6s.2-.35.15-.55,0-.57-.44-.37a.29.29,0,0,1-.4-.33,1.13,1.13,0,0,0-.2-1c-.29-.43-.26-1-.7-1.35,0,0-.05-.05-.05-.08a2.71,2.71,0,0,0-.26-1.37c0-.1-.08-.24-.12-.35s-.39-.46-.12-.75c-.23-.18-.27-.51-.48-.7s-.36-.24-.18-.5-.05-.12-.11-.13-.17-.12-.1-.17c.31-.23.32-.55.38-.88s.29-.23.48-.25.37,0,.31-.25,0-.48-.32-.47-.39-.13-.3-.41a.26.26,0,0,0-.08-.26c-.28-.31-.11-.62-.11-1a7.41,7.41,0,0,1,.09-1.55c.07-.32-.07-.62.32-.82s.23-.36,0-.49c-.51-.27-.43-.48,0-.7a.24.24,0,0,0,.12-.37c-.27-.47,0-.78.31-1.09.14-.12.5-.26,0-.48-.14-.07-.05-.24.07-.32s.24-.15.36-.24a.21.21,0,0,0,.1-.25c0-.1-.13-.08-.21-.06a.32.32,0,0,1-.39-.27c-.06-.23.06-.36.26-.45s.34-.43.49-.61c.32-.4.2-.65,0-1a.71.71,0,0,1,0-.5c.17-.29,0-.43-.12-.65s.22-.32.34-.47-.15-.17-.22-.25-.13-.27,0-.27c.31,0,.51-.31.8-.26s.57-.11.66-.45.28-.48.57-.16.52-.13.76.13c0-.21-.14-.28-.2-.39s-.21-.23-.12-.39.22-.11.36-.07.3-.18.57-.16a1.45,1.45,0,0,1,1,.33c.13.1.18,0,.26-.1.28-.35.51-.37.74,0,.1.16.15.17.29.09a.3.3,0,0,1,.44,0,.47.47,0,0,1,0,.5c-.08.18-.41.32-.27.47s.34.55.64.7a1.48,1.48,0,0,1,.33.18c.24.25.4.23.54-.09s.26-.23.41-.33.27-.15.4,0-.05.23-.08.35a1.94,1.94,0,0,1-.63.93.19.19,0,0,0-.06.22c.06.09.15.05.21,0,.5-.28.57.28.8.46s-.14.23-.29.26c-.38.07-.78,0-1.13.2a1.54,1.54,0,0,0-.17.13,1.82,1.82,0,0,1,1,.44c.17.17.32,0,.42-.16s.19-.29.38-.2.15.26.1.42,0,.25-.1.33c-.36.4-.66.8-.16,1.31-.26.45.1.68.34,1a.42.42,0,0,1,0,.46c-.06.14-.26.28-.06.42s.3,0,.43-.12.11-.11.23-.08c0,.35-.49.43-.41.69s-.23.51-.31.81c.81,0,1,.74,1.49,1.13.23.18-.25.29-.33.48s.5.19.23.5c-.14.16-.39.14-.58.21s-.21,0-.21.17.1.12.17.15h.05c.44.07-.08.49.19.56.43.12.2.29.17.55a.82.82,0,0,1-.63.83c-.2.07-.16.28-.05.41a4.28,4.28,0,0,1,.48.82c.19.33.39.6-.1.81-.13.06-.1.16,0,.24.25.29.1.57,0,.86s-.4.45-.06.74c.1.1-.07.2-.18.21s-.35,0-.61,0" fill="#2e8dbd"/><path d="M362.84,188.7c.81.55.62.89.07,1.41a2.29,2.29,0,0,0,0,2.79c.16.21.38.5.2.68-.77.82-.47,2.55-1.94,2.78a.61.61,0,0,0-.48.64c0,.61.06,1.13-.69,1.33-.34.08,0,.49.12.72a.55.55,0,0,1,0,.71.4.4,0,0,1-.58,0,7,7,0,0,0-.91-.38c-.56-.31-.89-.2-1.12.44s-.49.76-.92.23c-.26-.32-.54-.18-.82,0-.8.41-1.57.6-2.23-.3-.12-.16-.24-.17-.36,0a1.38,1.38,0,0,1-.18.2c-.93-.81-1.65.9-2.58.27-.28-.19-.4.14-.52.37-.24.47-.59.69-1,.42s-.43-.73-.26-1.2a2.05,2.05,0,0,0,.28-1.12c-.1-.43,0-1.16-.81-.77a.56.56,0,0,1-.75-.67,2.38,2.38,0,0,0-.36-2c-.53-.86-.48-2-1.28-2.73-.05,0-.1-.11-.09-.16a6.26,6.26,0,0,0-.49-2.8c-.08-.19-.15-.47-.22-.7-.14-.47-.72-.93-.22-1.52-.44-.37-.5-1-.9-1.43s-.67-.48-.32-1c.16-.24-.1-.23-.22-.26s-.31-.23-.17-.34a2.52,2.52,0,0,0,.7-1.79c.06-.43.52-.47.89-.51s.67,0,.57-.51-.07-1-.6-.95-.71-.26-.56-.82a.58.58,0,0,0-.14-.55c-.51-.62-.2-1.26-.19-2a15.43,15.43,0,0,1,.16-3.17c.13-.63-.13-1.25.59-1.65a.54.54,0,0,0,0-1c-.95-.55-.8-1,.05-1.42a.53.53,0,0,0,.23-.75c-.51-1-.07-1.59.57-2.21.26-.25.92-.54.08-1-.26-.13-.1-.47.12-.64s.46-.31.67-.49a.47.47,0,0,0,.19-.51c-.07-.2-.24-.15-.39-.13a.59.59,0,0,1-.73-.53.74.74,0,0,1,.49-.91c.53-.24.62-.88.9-1.25a1.72,1.72,0,0,0,.08-2,1.63,1.63,0,0,1,.06-1c.32-.59.05-.87-.22-1.32-.44-.72.41-.66.63-1,0-.33-.26-.35-.41-.5s-.23-.55,0-.55c.56,0,.93-.64,1.47-.53.74.16,1.06-.22,1.24-.91s.51-1,1-.34,1-.26,1.4.28c0-.44-.26-.57-.37-.8s-.38-.48-.21-.79.41-.23.65-.15.57-.36,1.06-.33a2.54,2.54,0,0,1,1.78.68c.23.21.34,0,.48-.19.52-.72.95-.75,1.37,0,.19.31.28.34.53.16a.53.53,0,0,1,.81.09,1,1,0,0,1,0,1c-.13.34-.75.64-.48.93.41.46.61,1.13,1.17,1.44a2,2,0,0,1,.62.37c.44.49.74.47,1-.19.13-.36.49-.46.75-.67s.51-.31.75-.07-.1.48-.15.72a4,4,0,0,1-1.17,1.88.38.38,0,0,0-.1.44c.11.2.27.12.39.05.92-.56,1,.58,1.48.94.24.2-.26.46-.55.52-.69.14-1.44,0-2.08.41a3.64,3.64,0,0,0-.32.26,3.38,3.38,0,0,1,1.88.89c.33.35.59,0,.79-.32s.35-.59.71-.4.26.53.17.86a2,2,0,0,1-.18.65c-.66.82-1.22,1.64-.3,2.66-.47.92.18,1.39.62,2a.91.91,0,0,1,0,.93c-.12.27-.48.56-.12.85s.56,0,.8-.24.2-.24.41-.17c.08.72-.9.88-.76,1.41.21.76-.42,1-.56,1.64,1.5-.06,1.86,1.5,2.75,2.29.42.38-.46.59-.61,1s.92.4.43,1c-.26.32-.72.28-1.08.42-.16.07-.38.11-.38.36s.17.24.31.29a.32.32,0,0,0,.09,0c.81.13-.15,1,.36,1.15.79.23.36.57.3,1.1a1.68,1.68,0,0,1-1.15,1.7c-.38.14-.31.55-.1.82a8.71,8.71,0,0,1,.89,1.68c.35.66.72,1.2-.19,1.64-.23.11-.18.31-.05.48.45.59.18,1.16,0,1.76s-.74.9-.11,1.5c.19.18-.11.4-.33.41s-.64,0-1.13,0" fill="#2e8dbd"/></svg>