<svg xmlns="http://www.w3.org/2000/svg" viewBox="0 0 400 500"><defs><style>.cls-1{fill:#f4f0ea;}.cls-10,.cls-11,.cls-2,.cls-3,.cls-7,.cls-8,.cls-9{fill:none;stroke:#2d8dbc;stroke-miterlimit:10;}.cls-2{stroke-width:2.7px;}.cls-3{stroke-width:1.72px;}.cls-4{fill:#abd1e6;}.cls-13,.cls-5{fill:#2e8dbd;}.cls-6{fill:#2d8dbc;}.cls-7{stroke-width:2.61px;}.cls-8{stroke-width:2.63px;}.cls-9{stroke-width:2.83px;}.cls-10{stroke-width:1.8px;}.cls-11{stroke-width:2.81px;}.cls-12{fill:#3b9e66;}.cls-13{font-size:80px;font-family:Rubik-Black, Rubik;font-weight:800;}.cls-14{letter-spacing:-0.03em;}.cls-15{letter-spacing:0em;}.cls-16{letter-spacing:0em;}</style></defs><title>WhiteBkBlueStrokeAsset 8</title><g id="Layer_2" data-name="Layer 2"><g id="Layer_1-2" data-name="Layer 1"><rect class="cls-1" width="400" height="500"/><line class="cls-2" x1="50.41" y1="416.36" x2="309.78" y2="338.14"/><polyline class="cls-2" points="63.38 429.33 153.85 402.71 128.64 377.49 204.88 453.73"/><line class="cls-2" x1="75.79" y1="441.74" x2="291.2" y2="377.25"/><line class="cls-2" x1="90.04" y1="455.99" x2="254.2" y2="407.08"/><line class="cls-2" x1="103.18" y1="469.13" x2="367.44" y2="390.73"/><line class="cls-2" x1="254.2" y1="407.08" x2="351.59" y2="376.28"/><line class="cls-2" x1="309.78" y1="338.14" x2="285.01" y2="345.42"/><line class="cls-2" x1="105.7" y1="416.69" x2="323.34" y2="350.59"/><line class="cls-2" x1="281.34" y1="379.94" x2="334.64" y2="363.22"/><line class="cls-2" x1="62.12" y1="396.11" x2="138.3" y2="472.28"/><line class="cls-2" x1="86.85" y1="390.73" x2="162.2" y2="466.08"/><line class="cls-2" x1="114.29" y1="387.61" x2="185.93" y2="459.24"/><line class="cls-2" x1="149.79" y1="371.57" x2="226.45" y2="448.23"/><line class="cls-2" x1="245.64" y1="442.48" x2="169.28" y2="366.12"/><line class="cls-2" x1="265.87" y1="436.59" x2="189.68" y2="360.41"/><line class="cls-2" x1="285.01" y1="430.53" x2="209.38" y2="354.9"/><line class="cls-2" x1="304.68" y1="425.3" x2="228.83" y2="349.45"/><line class="cls-2" x1="323.34" y1="419.69" x2="247.79" y2="344.15"/><line class="cls-2" x1="341.8" y1="414.5" x2="265.87" y2="338.56"/><polyline class="cls-2" points="360.9 408.95 285.03 333.73 300.27 329.46 381 403.1 114.64 480.59 37.15 403.1 300.27 329.46"/><line class="cls-3" x1="258.58" y1="402.71" x2="258.58" y2="402.71"/><path class="cls-4" d="M277.66,428.19a.76.76,0,0,1,.08-.57c.13-.21.18-.13.18.28,0,.61-.09.72-.26.29m-.11,1.66c-.31-.32-.29-.57.05-.57s.6.55.35.7c-.09.06-.27,0-.4-.13m-.11,1.33c-.34-.46-.35-.52-.06-.41s.35,0,.35-.06a.21.21,0,0,1,.22-.2h0c.16,0,.17.08,0,.26s-.06.68.47.82c.34.08.32.1-.1.12a1.09,1.09,0,0,1-.89-.53m.06,1.44c-.25-.3-.24-.33.12-.2s.39.13,0-.16-.31-.29.36-.25a2.56,2.56,0,0,1,.73.09,4.32,4.32,0,0,1-.89.87,1.17,1.17,0,0,1-.35-.35m-1.8,1.55a.18.18,0,0,1,.18-.18,1.46,1.46,0,0,0,.51-.12c.18-.07.32,0,.32.08s-.23.24-.5.3-.51,0-.51-.08m-3,6.19c-.25-.48-.27-.63-.06-.63s.66.79.46.91-.28-.06-.4-.28m-3.6,33a.37.37,0,0,1,.38,0c.17.07.12.12-.12.13s-.33,0-.26-.11m8.05-31.9c0-.19-.2-.24-.66-.17-.64.1-.64.11-.15.26.75.22.81.21.81-.09m2.63,3c0-.05-.14-.09-.31-.09s-.26.09-.19.21.5.09.5-.12m2.44,2.26c.76-.4.76-.46,0-.35-.34.05-.56.17-.51.26s-.1.21-.35.26-.35.09-.1.11a2.21,2.21,0,0,0,1-.28m-9.13,1.32a.34.34,0,0,0-.62-.17c-.28.45-.22.56.22.45.22-.06.4-.18.4-.28m.76.37c-.09-.29-.42-.26-.52.05,0,.12.08.21.27.21s.3-.12.25-.26m1.17.26c.07-.11,0-.21-.08-.21a.47.47,0,0,0-.33.21c-.07.11,0,.2.08.2a.45.45,0,0,0,.33-.2m8,.82a.21.21,0,0,0-.21-.21c-.12,0-.16.1-.09.21s.3.26.3,0m-8.2,1.23c-.16-.27-.31-.27-.31,0a.21.21,0,0,0,.22.2h0c.11,0,.16-.09.09-.2m-1,.39c.21-.34-.26-.73-.54-.45a.4.4,0,0,0,.23.67.42.42,0,0,0,.31-.22m-2.34,2.68c.25-.16.22-.2-.15-.2s-.46.09-.46.2.22.26.61,0m12.57.2a.2.2,0,0,0-.2-.2h0a.2.2,0,0,0-.21.19h0a.21.21,0,0,0,.21.21.2.2,0,0,0,.2-.2h0m-11.76,2.46c-.25-.16-.23-.2.1-.2s.35,0,.11-.2a.45.45,0,0,0-.54,0c-.15.13-.28.13-.36,0s0-.24.19-.31a.47.47,0,0,0,.3-.38c0-.17-.06-.19-.15,0s-.83.51-1,.28a.22.22,0,0,0-.3-.09h0c-.11.06-.19,0-.19-.1s-.21-.19-.46-.16-.45-.06-.42-.31a.32.32,0,0,0-.26-.36h-.05c-1.5,0-.48,1.37,1.33,1.76,1.52.33,2.1.36,1.68.08m-1,2.52a.45.45,0,0,0-.39,0c-.07.07.05.12.27.11s.28-.06.12-.13m19.21.74c0-.35-.63-.89-.78-.66a1.15,1.15,0,0,1-.48.33c-.64.24-.38.55.45.55.45,0,.81-.1.81-.22m-20.29,1.06c.36-.23.08-.7-.33-.54A1.11,1.11,0,0,1,269,460a1.31,1.31,0,0,0-1-.2c-.62.16-.5.31.61.75s1.17.43,1.53.2m-.28,1c-.16-.27-.3-.27-.3,0a.2.2,0,0,0,.2.2h0c.12,0,.16-.09.09-.2m-1,2.87c.07-.12,0-.15-.19-.08-.35.13-.42.28-.13.28a.46.46,0,0,0,.32-.2m19.83.83c.19-.2-.2-.21-1.34,0-.08,0-.15.12-.15.24s1.18.11,1.49-.2m-20.79.77a.31.31,0,0,1,.43-.07.23.23,0,0,1,.07.07c.2.16.45.13.95-.11s.58-.37.45-.42a.72.72,0,0,0-.56.18c-.25.21-.34.21-.47,0s-.34-.21-1,0-.8.28-.59.42c.38.24.47.23.75-.05m3.29.23c0-.12-.09-.16-.2-.09s-.26.3,0,.3a.2.2,0,0,0,.2-.2h0m-.91.21c.07-.11-.08-.2-.35-.2s-.4,0-.16.2.36.25.51,0m15.81.82c-.16-.26-.31-.26-.31,0a.22.22,0,0,0,.22.21c.11,0,.15-.1.09-.21m-16.72.33a1.72,1.72,0,0,0-.41-.18c-.22-.06-.35,0-.29.08s.7.26.7.1m16.61.29c0-.12-.13-.21-.3-.21s-.3.09-.3.21.13.2.3.2.3-.09.3-.2m-8.61.41c.07-.12,0-.15-.19-.08-.35.13-.42.28-.12.28a.44.44,0,0,0,.31-.2m-2.94.41c0-.27-.34-.27-.5,0-.07.11,0,.2.19.2s.31-.09.31-.2m-2,0a.23.23,0,0,0-.23-.19c-.12,0-.17-.16-.1-.36s.1-.33-.16,0-.33.32-.56.1-1.79-.43-1.79-.14c0,.1-.14.19-.31.19-.42,0-.38.36,0,.45a9,9,0,0,0,3.1-.06m-2.84,1c0-.1-.14-.05-.31.12a1,1,0,0,0-.29.58c0,.3.6-.4.6-.7m5.07,3.33c.19,0,.21-.07.06-.13a.32.32,0,0,1-.12-.43c.1-.26,0-.3-.26-.18-.65.27-1,.28-1.26.07s-.25-.13-.25,0-.16.26-.35.3-.3.11.09.27a4.62,4.62,0,0,0,2.09.09m3.2,4.29a18.31,18.31,0,0,0-.06-2.77c-.13-1.26-.16-1.33-.58-1.18a3.06,3.06,0,0,1-1,.14c-.31,0-.56,0-.56.12s-.27.12-.6.1-.64.06-.73.34c-.14.45-.7.53-.7.1s-.33-.32-.76-.05c-.17.11-.21.06-.13-.15s0-.28-.36-.21-.36,0-.22,0c.35-.17.32-.51,0-.38-.15.06-.43-.1-.61-.35l-.32-.47v.45c0,.25-.09.46-.2.46a.19.19,0,0,1-.21-.18c0-.1-.22-.13-.5-.08s-.51,0-.51-.13.17-.23.38-.23a.91.91,0,0,0,.62-.29,1.83,1.83,0,0,1,.84-.43c.95-.21.85-.43-.19-.44a8.6,8.6,0,0,1-1.52-.14,1.5,1.5,0,0,0-1,.1c-.34.18-.47.18-.52,0s-.16-.18-.26-.12c-.27.17-1.63-.13-1.5-.33s.39-.12.75-.06c.58.1.68,0,.88-.48s.17-.6-.17-.62-.34,0-.16.24.13.3-.14.41-.38,0-.42-.08a.35.35,0,0,0-.31-.22c-.14,0-.33-.2-.44-.46a.79.79,0,0,0-.71-.48c-1.08-.05-1.12-.07-.64-.41s.42-.35.15-.56a1.78,1.78,0,0,1-.44-.9c-.17-.83.24-.9.91-.17a1.86,1.86,0,0,0,2,.74c.5-.26.57-.62.22-.62-.11,0-.18-.12-.15-.26a.16.16,0,0,0-.1-.2h-.11c-.13,0-.25,0-.25-.14s-.18-.13-.41-.07-.39,0-.36-.08a1.43,1.43,0,0,0-.21-.64c-.33-.6-.18-.82.7-1,.46-.08.65-.2.52-.33s-.34-.12-.61,0c-.51.27-.84.28-.84,0,0-.11.17-.2.39-.2.68,0,.68-.41,0-.69l-.65-.28.59-.15.58-.14-.56-.49a2.25,2.25,0,0,1-.56-.59,3.72,3.72,0,0,1,1.62.24,2.25,2.25,0,0,0,.44.14.58.58,0,0,1,.29.17c.32.32,2.11.08,2.11-.28,0-.1-.2-.19-.45-.19a1.53,1.53,0,0,1-.93-.5c-.29-.31-.59-.45-.79-.37s-.3,0-.18-.27.09-.33-.1-.15-.66,0-.87-.69q-.13-.44-.51-.33c-.27.07-.4,0-.47-.43s.11-.72.35-.33a.68.68,0,0,0,.95,0l.05-.07a.49.49,0,0,1,.4-.31c.16,0,.28-.09.28-.2s-.13-.21-.3-.21-.31-.09-.31-.2-.14-.2-.32-.2-.28-.07-.11-.28.05-.61-.3-.32c-.19.16-.25.12-.23-.19s.13-.37.25-.31.05,0-.15-.19a1.13,1.13,0,0,1-.35-.43c0-.28.47-.1,1.32.49a6.36,6.36,0,0,0,1,.61c.31,0,.06-.6-.49-1.17s-.54-.67-.36-.75,0-.06-.3,0-.55,0-.55-.22.17-.33.45-.34.34-.07.2-.12a.5.5,0,0,1-.25-.43c0-.18.06-.26.14-.19s.35,0,.6-.17a2.41,2.41,0,0,1,1.32-.26c.54,0,.87,0,.93-.21s0-.24-.08-.23a1.93,1.93,0,0,1-.48,0c-.27,0-.27,0,0-.23s.26-.2,0-.2-.7-.85-.48-1.21c.08-.12.55.06,1.15.44.85.53,1.06.59,1.21.34.27-.42.23-.72-.05-.44a.88.88,0,0,1-.53.25c-.24,0-.24-.06,0-.3s.18-.37-.1-.66-.27-.38-.12-.43a.32.32,0,0,0,.23-.28c0-.11-.19-.14-.43-.06s-.39.06-.29-.09,0-.23-.18-.23-.32-.08-.32-.19c0-.41.41-.42,1.05,0s.71.37,1.12.11a1,1,0,0,1,.74-.19.37.37,0,0,0,.43-.1c.07-.12,0-.22-.08-.22s-.22-.16-.22-.36,0-.32-.31,0-.39.27-.06-.36c.23-.45.23-.45-.21,0s-.44.39-.68-.26c-.15-.39-.37-.63-.55-.6s-.34-.13-.38-.44,0-.47.44-.35c.72.18,1.23,0,.93-.41a.66.66,0,0,1-.12-.59c.1-.26.05-.28-.26-.11-.64.34-.84.26-.7-.3.08-.33,0-.51-.11-.51a.13.13,0,0,1-.11-.22.6.6,0,0,0-.14-.56c-.15-.19.14,0,.64.48a7.11,7.11,0,0,0,1.57,1.09c.36.16.61.36.55.46s0,.19.05.19l.82.1c.4.06.66,0,.66-.13s.12-.18.26-.13.21.15.23-.1.06,0-.11-.14c-.36-.2-1,.06-1-.22,0-.12-.16-.21-.36-.21a1.59,1.59,0,0,1-.78-.3c-.24-.16-.48-.24-.55-.17s-.13,0-.13-.21v-.5c0-.34,1.37-.14,2.18.32l.86.15v-.21c0-.38-.13-.58-.41-.66s-.57-.47-.2-.47c.13,0,.12-.14,0-.37-.24-.4-1.21-.38-1.13,0,0,.12-.21.29-.51.37s-.56.08-.56-.05-.11-.12-.28,0-.33.17-.42,0,.08-.3.33-.4c1.82-.75,2.19-.94,2.29-1.21s.06-.25-.16-.07-.34.18-.41.1a3.33,3.33,0,0,0-1.18-.09c-1,0-1.28-.11-.43-.24.67-.1,1.08-.55,1-1.08s0-.46.3-.25.34.29.3.36.25.13.64.16.65,0,.6-.12a1,1,0,0,1,.17-.7c.23-.46.23-.52,0-.43s-.29,0-.29-.32-.12-.43-.28-.43-.32-.17-.38-.38-.05-.35.67.05c.43.23.74.47.71.53s.25.13.64.16c.64.05.67,0,.38-.27a1.23,1.23,0,0,1-.32-.46c0-.08-.27-.27-.61-.41s-.55-.37-.47-.5a.38.38,0,0,0-.15-.44,2.31,2.31,0,0,1-.52-.88c-.22-.61-.21-.64.15-.41s.36.34.31.45.19.23.51.25.58,0,.58-.25.12-.25.35-.16.26,0-.08-.32c-.5-.55-.52-1.37,0-1.33a.51.51,0,0,0,.47-.37c.06-.21.2-.34.29-.28a.23.23,0,0,0,.3-.08c.06-.11-.07-.25-.29-.32a.57.57,0,0,1-.41-.47c0-.26.05-.28.24-.09s.57.31.57-.06c0-.17.1-.31.22-.31a2,2,0,0,0,.75-.42c.3-.24.57-.33.61-.22.09.29-.74,1.09-1,.95s-.14,0-.07.19,0,.32-.11.32-.22.19-.22.42c0,.41,0,.41.86,0a8.18,8.18,0,0,0,1.2-.73c.24-.22.37-.23.47-.07s0,.28-.27.35a.82.82,0,0,0-.54.5c-.07.21-.2.34-.29.28s-.44.39-.53,1.09a1.3,1.3,0,0,1-.43.76c-.54.4-.24.54.42.19a2.48,2.48,0,0,1,.84-.3,2.37,2.37,0,0,0,.89-.53c.59-.5.62-.51.62-.12a.61.61,0,0,1-.4.55c-.22.07-.38.23-.35.36s-.09.24-.26.24-.57.73-.27.73a3,3,0,0,0,.76-.31c.32-.17.63-.27.69-.21s0,.11-.18.11-.22,0-.05.16c.39.25,0,.71-.65.71s-.54.05-.44.69.06.69-.34.69a1.08,1.08,0,0,1-.67-.22c-.15-.15-.25-.08-.33.23s-.07.44.73.32a7.46,7.46,0,0,0,1.6-.51c.65-.32.73-.33.56,0a3.85,3.85,0,0,1-1.14,1.25c-.34,0-1.32,1.07-1.14,1.25a4.48,4.48,0,0,0,2.68-1.07c.48-.44.74-.56.89-.4s.14.22,0,.22-.19.09-.12.21-.1.43-.38.69-.45.54-.27.72.15.22,0,.19c-.46-.12-1.12.28-1.12.68a.56.56,0,0,1-.4.52c-.23.06-.41.18-.41.28s-.15.12-.34,0-.29,0-.18.12c.26.44,1.07,0,2.45-1.3.23-.23.6-.55.81-.72s.36-.27.24.05,0,.36.06.36,0,.18-.14.4c-.51.6-.57,1.44-.12,1.45s.32,0,0,.24-.43.2-.46.15-.19.12-.36.37a1.11,1.11,0,0,1-.82.46c-.64,0-.63.28,0,.58a1.33,1.33,0,0,0,1,0c.31-.12.5-.12.5,0s.23,0,.5-.31a1.65,1.65,0,0,1,.79-.5c.16,0,.34-.19.39-.41.14-.52.39-.52.71,0,.22.35.2.41-.1.41s-.31,0-.06.19.24.22-.06.33-.32.27-.26.42a.61.61,0,0,1-.19.57c-.2.2-.23.35-.09.44s-.14.71-.54.71a.26.26,0,0,0-.27.22c0,.14.33.17,1,.07s.89-.06.8,0a3.33,3.33,0,0,1-1.36.39,6,6,0,0,0-.61.12,3.11,3.11,0,0,1-.61,0c-.39,0-.41,0-.11.11.65.18.91.55.6.84a1,1,0,0,1-.6.25c-.26,0-.29.06-.11.27s.16.34.09.41,0,.19.21.26.28.21.22.31c-.32.51,2.53-.28,3-.82a3.66,3.66,0,0,1,1.32-.8,1.19,1.19,0,0,1-.18.58c-.18.28-.39.48-.65.44s-.38-.06,0,.25.36.31.08.32a.61.61,0,0,0-.51.7.74.74,0,0,0,0,.14c.06.11-.07.19-.3.19a.6.6,0,0,0-.54.52,1.54,1.54,0,0,1-.71.82c-.37.2-.53.41-.46.61s.16.3.21.3a15.18,15.18,0,0,0,3.39-1.82c.4-.44,1.13-.59,1.13-.22,0,.11-.2.2-.45.2s-.38.05-.18.18.14,1.05-.2,1.05c-.11,0-.15.09-.08.2a.13.13,0,0,1-.1.21.12.12,0,0,0-.11.19c.06.11-.09.22-.34.26s-.46.2-.46.37-.23.33-.56.37-.56.19-.56.33a1,1,0,0,1-.45.59c-.4.28-.41.33-.09.34s.31.09.25.19c-.17.29.74,0,1.34-.42a2.47,2.47,0,0,1,.67-.38,3.29,3.29,0,0,0,.81-.52c.67-.51,1-.43.8.18a.3.3,0,0,1-.36.22h0c-.14-.06-.25,0-.25.22a.34.34,0,0,0,.32.33c.19,0,.22.05.08.11a.32.32,0,0,0-.12.42c.1.27.05.28-.32.08s-.64,0-.22.3-.53.94-.91.79c-.18-.07-.32,0-.32.11a.47.47,0,0,0,.29.35.31.31,0,0,1,.18.4h0c-.06.16-.19.24-.29.17s-.18,0-.18.21c0,.57.51.34,1.53-.72s2-1.74,2.21-1.44c.06.1,0,.29-.2.43a1.31,1.31,0,0,0,0,1.65c.27.3.28.43.05.79s-.38.39-.52.33-.25,0-.25.1-.14.14-.31.07c-.37-.14-.39.16,0,.53.21.22.18.23-.17,0s-.69-.13-.69.44c0,.33-.09.37-.56.27s-.46-.07-.27.05c.35.24.11.67-.29.51-.21-.08-.26,0-.18.2s.2.28.86,0a6.07,6.07,0,0,0,1.38-1l.85-.83-.12.9a2.17,2.17,0,0,1-.29,1c-.32.13-.79,1.23-.57,1.37a.4.4,0,0,1,.2.29c0,.26-1.09.42-1.31.2s-.52-.23-.52.09c0,.15.33.37.73.5a1.84,1.84,0,0,0,2.06-.52c.23-.3.25-.29.25.08a1.57,1.57,0,0,1-.41.86c-.23.24-.34.45-.25.45s-.14.15-.5.33-.6.41-.54.51c.17.28-.5.46-.79.21s-.36-.12-.62.19a1.07,1.07,0,0,1-.8.38c-.7,0-.88,0-.44.21a1.53,1.53,0,0,0,1.05-.1c.54-.23.68-.23.89,0a.56.56,0,0,0,.57.2c.18-.05.58-.14.88-.19a8.56,8.56,0,0,0,1-.24c.4-.13.4-.09-.11.59-.33.42-.67.68-.83.62-.38-.15-1,.35-1,.8,0,.19-.06.33-.14.3s-.32.17-.54.43-.5.43-.61.36c-.35-.22-.51.34-.18.58s0,.23-1,.22-1.3,0-1.3.34-.1.32-.3.25a1.06,1.06,0,0,0-.66,0,1.74,1.74,0,0,1-.81.11c-.74-.07-.53.34.3.58l.76.22-1-.09c-.56-.06-1,0-1,.1s.21.21.46.22c.43,0,.44,0,.05.18s-.54,0-.92-.32-.93-.66-.7-.29c.07.12,0,.21-.09.21-.49,0-.16.37.44.49s.62.17.3.35a.88.88,0,0,1-.71.06,1.14,1.14,0,0,0-.48-.12c-.08,0-.26-.25-.41-.58-.33-.76-.52-.78-.61-.05,0,.38-.16.54-.37.49-1.12-.26-1.21-.21-1.21.67a34.09,34.09,0,0,0,.52,4.27c.11.54.08.56-.66.56h-.79Z"/><path class="cls-5" d="M366.05,319.19a.71.71,0,0,1,.07-.57c.13-.21.18-.13.19.28,0,.61-.1.72-.26.29m-.11,1.66c-.32-.32-.3-.57,0-.57s.6.55.35.7c-.09.06-.26,0-.39-.13m-.12,1.33c-.34-.46-.35-.52,0-.41s.34,0,.34-.06a.21.21,0,0,1,.22-.2h0c.17,0,.17.08,0,.26-.27.33-.07.68.47.82.33.08.31.1-.1.12a1.08,1.08,0,0,1-.9-.53m.06,1.44c-.25-.3-.23-.33.13-.2s.39.13,0-.16-.32-.29.35-.25a2.56,2.56,0,0,1,.73.09,4.32,4.32,0,0,1-.89.87,1.17,1.17,0,0,1-.35-.35m-1.8,1.55a.18.18,0,0,1,.18-.18h0a1.46,1.46,0,0,0,.5-.12c.18-.07.32,0,.32.08s-.22.24-.5.3-.51,0-.51-.08m-3,6.19c-.25-.48-.27-.63-.06-.63s.66.79.46.91-.28-.06-.4-.28m-3.6,33a.39.39,0,0,1,.39,0c.16.07.11.12-.13.13s-.33,0-.26-.11m8.05-31.9c0-.19-.2-.24-.66-.17-.64.1-.64.11-.15.26.75.22.81.21.81-.09m2.63,3a.64.64,0,0,0-.31-.09c-.17,0-.26.09-.19.21s.5.09.5-.12m2.45,2.26c.75-.4.75-.46,0-.35-.34,0-.56.17-.51.26s-.1.21-.35.26-.35.09-.1.11a2.34,2.34,0,0,0,1-.28m-9.13,1.32a.35.35,0,0,0-.63-.17c-.28.45-.22.56.22.45.22-.06.41-.18.41-.28m.76.37a.27.27,0,0,0-.53,0c0,.12.09.21.27.21s.3-.12.26-.26m1.16.26c.07-.11,0-.21-.08-.21a.44.44,0,0,0-.32.21c-.07.11,0,.2.07.2a.45.45,0,0,0,.33-.2m8,.82a.22.22,0,0,0-.22-.21c-.12,0-.16.1-.09.21s.31.26.31,0m-8.21,1.23c-.16-.27-.31-.27-.31,0a.21.21,0,0,0,.22.2h0c.12,0,.16-.09.09-.2m-1,.39c.21-.34-.27-.73-.54-.45a.38.38,0,0,0,0,.55.35.35,0,0,0,.23.12.45.45,0,0,0,.32-.22m-2.35,2.68c.25-.16.22-.2-.15-.2s-.45.09-.45.2.21.26.6,0m12.57.2a.2.2,0,0,0-.2-.2h0a.21.21,0,0,0-.25.16.21.21,0,0,0,.16.25h.09a.2.2,0,0,0,.2-.2h0m-11.76,2.46c-.25-.16-.23-.2.11-.2s.35,0,.1-.2a.44.44,0,0,0-.53,0c-.15.13-.29.13-.37,0s0-.24.19-.31a.46.46,0,0,0,.3-.38c0-.17,0-.19-.15,0s-.83.51-1,.28a.22.22,0,0,0-.3-.09h0a.12.12,0,0,1-.19-.1c0-.1-.2-.19-.46-.16s-.44-.06-.42-.31a.32.32,0,0,0-.26-.36h-.05c-1.49,0-.47,1.37,1.33,1.76,1.52.33,2.11.36,1.68.08m-1,2.52a.45.45,0,0,0-.39,0c-.07.07.05.12.27.11s.28-.06.12-.13m19.22.74c0-.35-.63-.89-.78-.66a1.18,1.18,0,0,1-.49.33c-.64.24-.38.55.45.55.45,0,.82-.1.82-.22m-20.3,1.06c.37-.23.08-.7-.32-.54a1.07,1.07,0,0,1-.81-.21,1.31,1.31,0,0,0-1-.2c-.62.16-.5.31.61.75s1.17.43,1.53.2m-.28,1c-.16-.27-.3-.27-.3,0a.22.22,0,0,0,.21.2c.12,0,.16-.09.09-.2m-1,2.87c.07-.12,0-.15-.19-.08-.35.13-.42.28-.13.28a.46.46,0,0,0,.32-.2m19.83.83c.19-.2-.2-.21-1.34,0-.08,0-.15.12-.15.24a2,2,0,0,0,1.49-.2m-20.79.77a.31.31,0,0,1,.43-.07.23.23,0,0,1,.07.07c.2.16.45.13.95-.11s.58-.37.45-.42a.76.76,0,0,0-.56.18c-.25.21-.34.21-.47,0s-.34-.21-1,0-.8.28-.59.42c.38.24.47.23.75-.05m3.29.23c0-.12-.09-.16-.2-.09s-.26.3,0,.3a.2.2,0,0,0,.2-.2h0m-.91.21c.07-.11-.08-.2-.34-.2s-.41,0-.17.2.36.25.51,0m15.81.82c-.16-.26-.31-.26-.31,0a.22.22,0,0,0,.22.21c.12,0,.16-.1.09-.21m-16.72.33a1.52,1.52,0,0,0-.41-.18c-.23-.06-.35,0-.29.08s.7.26.7.1m16.62.29c0-.12-.14-.21-.31-.21s-.3.09-.3.21.14.2.3.2.31-.09.31-.2m-8.62.41c.07-.12,0-.15-.19-.08-.35.13-.41.28-.12.28a.44.44,0,0,0,.31-.2m-2.94.41c0-.27-.34-.27-.5,0-.07.11,0,.2.19.2s.31-.09.31-.2m-2,0a.21.21,0,0,0-.23-.19h0c-.12,0-.17-.16-.1-.36s.11-.33-.16,0-.33.32-.55.1-1.8-.43-1.8-.14c0,.1-.14.19-.3.19-.43,0-.39.36.05.45a8.91,8.91,0,0,0,3.09-.06M358,361c0-.1-.14,0-.3.12a1,1,0,0,0-.3.58c0,.3.6-.4.6-.7m5.07,3.33c.19,0,.21-.07.06-.13a.35.35,0,0,1-.12-.43c.1-.26,0-.3-.26-.18-.65.27-1,.28-1.25.07s-.26-.13-.26,0-.16.26-.35.3-.3.11.09.27a4.62,4.62,0,0,0,2.09.09m3.21,4.29a21.36,21.36,0,0,0-.07-2.77c-.13-1.26-.16-1.33-.58-1.18a3.06,3.06,0,0,1-1,.14c-.31,0-.56,0-.56.12s-.27.12-.6.1-.64.06-.72.34c-.14.45-.71.53-.71.1s-.32-.32-.75,0c-.17.11-.22.06-.14-.15s0-.28-.36-.21-.36,0-.22,0c.35-.17.33-.51,0-.38-.15.06-.42-.1-.6-.35l-.33-.47v.45c0,.25-.09.46-.2.46a.19.19,0,0,1-.2-.18h0c0-.1-.23-.13-.51-.08s-.51,0-.51-.13.18-.23.38-.23a1,1,0,0,0,.63-.29,1.66,1.66,0,0,1,.83-.43c.95-.21.85-.43-.19-.44a8.48,8.48,0,0,1-1.51-.14,1.5,1.5,0,0,0-1,.1c-.33.18-.46.18-.52,0s-.16-.18-.26-.12c-.27.17-1.62-.13-1.5-.33s.4-.12.76-.06c.57.1.68,0,.87-.48s.18-.6-.17-.62-.33,0-.16.24.14.3-.13.41-.39,0-.43-.08a.35.35,0,0,0-.31-.22c-.13,0-.33-.2-.44-.46a.79.79,0,0,0-.71-.48c-1.08,0-1.12-.07-.64-.41s.42-.35.15-.56a1.78,1.78,0,0,1-.44-.9c-.16-.83.24-.9.92-.17s1.5,1,2,.74.58-.62.22-.62c-.11,0-.18-.12-.15-.26a.16.16,0,0,0-.11-.2h-.09c-.14,0-.26,0-.26-.14s-.18-.13-.41-.07-.39,0-.36-.08a1.31,1.31,0,0,0-.21-.64c-.33-.6-.18-.82.7-1,.46-.08.65-.2.52-.33s-.34-.12-.61,0c-.51.27-.84.28-.84,0,0-.11.17-.2.39-.2.68,0,.68-.41,0-.69l-.64-.28.58-.15.58-.14-.56-.49a2.84,2.84,0,0,1-.56-.59,3.79,3.79,0,0,1,1.63.24,2.25,2.25,0,0,0,.44.14.57.57,0,0,1,.28.17c.32.32,2.11.08,2.11-.28,0-.1-.2-.19-.45-.19a1.53,1.53,0,0,1-.93-.5c-.28-.31-.59-.45-.79-.37s-.3,0-.18-.27.09-.33-.09-.15-.67,0-.88-.69q-.14-.44-.51-.33c-.27.07-.39,0-.47-.43s.11-.72.35-.33a.67.67,0,0,0,.95,0l.05-.06a.49.49,0,0,1,.4-.31c.16,0,.28-.09.28-.2s-.13-.21-.3-.21-.3-.09-.3-.2-.15-.2-.33-.2-.28-.07-.11-.28.05-.61-.29-.32-.26.12-.23-.19.12-.37.24-.31,0,0-.15-.19a1.13,1.13,0,0,1-.35-.43c0-.28.47-.1,1.32.49a5.69,5.69,0,0,0,1,.61c.3,0,0-.6-.5-1.17s-.54-.67-.36-.75,0-.06-.29,0-.56,0-.56-.22.18-.33.45-.34.35-.07.21-.12a.49.49,0,0,1-.26-.43c0-.18.06-.26.14-.19s.35,0,.61-.17a2.38,2.38,0,0,1,1.31-.26c.54,0,.87,0,.93-.21s0-.24-.08-.23a1.85,1.85,0,0,1-.47,0c-.27,0-.27-.05,0-.23s.25-.2-.05-.2-.7-.85-.48-1.21c.08-.12.55.06,1.15.44.85.53,1.06.59,1.21.34.27-.42.23-.72-.05-.44a.88.88,0,0,1-.53.25c-.23,0-.24-.06,0-.3s.18-.37-.11-.66-.27-.38-.12-.43a.32.32,0,0,0,.23-.28c0-.11-.19-.14-.43-.06s-.38.06-.29-.09,0-.23-.18-.23-.31-.08-.31-.19c0-.41.4-.42,1,0s.71.37,1.12.11a1,1,0,0,1,.74-.19.37.37,0,0,0,.43-.1c.07-.12,0-.22-.08-.22s-.22-.16-.22-.36,0-.32-.3,0-.4.27-.07-.36c.23-.45.23-.45-.21-.05s-.44.39-.68-.26c-.14-.39-.36-.63-.55-.6s-.34-.13-.38-.44,0-.47.44-.35c.72.18,1.23,0,.93-.41a.66.66,0,0,1-.11-.59c.09-.26,0-.28-.27-.11-.63.34-.84.26-.7-.3.08-.33,0-.51-.11-.51a.13.13,0,0,1-.11-.22.6.6,0,0,0-.14-.56c-.14-.19.14,0,.65.48a7,7,0,0,0,1.56,1.09c.36.16.61.36.55.46s0,.19.05.19l.82.1c.4.06.66,0,.66-.13s.12-.18.26-.13.22.15.24-.1,0,0-.12-.14c-.36-.2-1,.06-1-.22,0-.12-.16-.21-.36-.21a1.59,1.59,0,0,1-.78-.3c-.23-.16-.48-.24-.55-.17s-.13,0-.13-.21V336c0-.34,1.37-.14,2.18.32l.86.15v-.21c0-.38-.13-.58-.41-.66s-.56-.47-.2-.47c.13,0,.12-.14,0-.37-.25-.4-1.22-.38-1.14,0,0,.12-.2.29-.51.37s-.56.08-.56,0-.1-.12-.28,0-.33.17-.42,0,.08-.3.34-.4c1.81-.75,2.18-.94,2.28-1.21s.06-.25-.16-.07-.33.18-.41.1a3.33,3.33,0,0,0-1.18-.09c-1,0-1.28-.11-.43-.24.67-.1,1.08-.55,1-1.08s-.05-.46.29-.25.34.29.31.36.24.13.63.16.66,0,.6-.12a.93.93,0,0,1,.17-.7c.23-.46.23-.52,0-.43s-.29,0-.29-.32-.12-.43-.28-.43-.32-.17-.37-.38,0-.35.67,0c.42.23.73.47.7.53s.25.13.64.16c.64.05.67,0,.38-.27a1.32,1.32,0,0,1-.32-.46c0-.08-.27-.27-.61-.41s-.55-.37-.47-.5a.38.38,0,0,0-.15-.44,2.31,2.31,0,0,1-.52-.88c-.22-.61-.21-.64.16-.41.21.14.35.34.3.45s.19.23.51.25.58,0,.58-.25.12-.25.35-.16.27,0-.07-.32c-.51-.55-.53-1.37,0-1.33a.51.51,0,0,0,.47-.37c.07-.21.2-.34.29-.28a.22.22,0,0,0,.3-.08c.06-.11-.07-.25-.29-.32a.57.57,0,0,1-.41-.47c0-.26.05-.28.24-.09s.57.31.57-.06c0-.17.1-.31.22-.31a2.18,2.18,0,0,0,.76-.42c.29-.24.56-.33.6-.22.09.29-.74,1.09-1,1s-.14,0-.07.19,0,.32-.1.32-.23.19-.23.42c0,.41,0,.41.86,0a7.39,7.39,0,0,0,1.2-.73c.24-.22.37-.23.48-.07s0,.28-.28.35a.82.82,0,0,0-.54.5c-.07.21-.2.34-.29.28s-.44.39-.53,1.09a1.25,1.25,0,0,1-.43.76c-.54.4-.23.54.43.19a2.51,2.51,0,0,1,.83-.3,2.37,2.37,0,0,0,.89-.53c.59-.5.63-.51.63-.12a.6.6,0,0,1-.41.55c-.22.07-.38.23-.35.36s-.09.24-.26.24-.57.73-.27.73a3,3,0,0,0,.76-.31c.32-.17.63-.27.69-.21s0,.11-.18.11-.22,0-.05.16c.39.25,0,.71-.64.71s-.55,0-.44.69,0,.69-.35.69a1.08,1.08,0,0,1-.67-.22c-.15-.15-.25-.08-.33.23s-.07.44.73.32a7.46,7.46,0,0,0,1.6-.51c.65-.32.73-.33.56,0a3.85,3.85,0,0,1-1.14,1.25c-.34,0-1.31,1.07-1.13,1.25a4.46,4.46,0,0,0,2.67-1.07c.48-.44.74-.56.89-.4s.15.22,0,.22-.2.09-.13.21-.1.43-.38.69-.45.54-.27.72.15.22,0,.19c-.46-.12-1.12.28-1.12.68a.56.56,0,0,1-.4.52c-.23.06-.41.18-.41.28s-.15.12-.34,0-.29,0-.18.12c.27.44,1.07,0,2.45-1.3.24-.23.6-.55.81-.72s.37-.27.24,0,0,.36.07.36,0,.18-.15.4c-.5.6-.57,1.44-.12,1.45s.32,0,0,.24-.43.2-.45.15-.19.12-.37.37a1.08,1.08,0,0,1-.82.46c-.63,0-.63.28,0,.58a1.24,1.24,0,0,0,1,0c.31-.12.51-.12.51,0s.22,0,.49-.31a1.65,1.65,0,0,1,.79-.5c.16,0,.34-.19.4-.41.13-.52.38-.52.7,0,.22.35.2.41-.1.41s-.31,0-.06.19.25.22-.06.33-.32.27-.26.42a.61.61,0,0,1-.19.57c-.2.2-.23.35-.08.44s-.14.71-.54.71a.25.25,0,0,0-.28.22h0c0,.14.33.17,1,.07s.89-.06.8,0a3.33,3.33,0,0,1-1.36.39,6,6,0,0,0-.61.12,3,3,0,0,1-.6,0c-.39,0-.42,0-.12.11.65.18.91.55.6.84a1,1,0,0,1-.6.25c-.26,0-.29.06-.11.27s.16.34.09.41,0,.19.21.26.28.21.22.31c-.32.51,2.53-.28,2.95-.82a3.8,3.8,0,0,1,1.32-.8,1.19,1.19,0,0,1-.18.58c-.18.28-.39.48-.65.44s-.38-.06,0,.25.35.31.07.32a.62.62,0,0,0-.5.72.27.27,0,0,0,0,.12c.06.11-.07.19-.3.19s-.45.18-.54.52a1.54,1.54,0,0,1-.71.82c-.37.2-.53.41-.46.61s.16.3.21.3a15.18,15.18,0,0,0,3.39-1.82c.4-.44,1.14-.59,1.14-.22,0,.11-.21.2-.46.2s-.38.05-.18.18.14,1-.2,1c-.11,0-.14.09-.08.2s0,.21-.1.21a.12.12,0,0,0-.11.19c.06.11-.09.22-.34.26s-.46.2-.46.37-.22.33-.56.37-.55.19-.55.33a1,1,0,0,1-.46.59c-.4.28-.41.33-.09.34s.32.09.25.19c-.17.29.74,0,1.34-.42a2.47,2.47,0,0,1,.67-.38,3.35,3.35,0,0,0,.82-.52c.66-.51,1-.43.79.18a.3.3,0,0,1-.36.22h0c-.14-.06-.25,0-.25.22a.34.34,0,0,0,.32.33c.19,0,.22,0,.08.11a.33.33,0,0,0-.12.42c.1.27,0,.28-.32.08s-.64,0-.22.3-.53.94-.91.79c-.18-.07-.32,0-.32.11a.47.47,0,0,0,.29.35.32.32,0,0,1,.19.4c-.07.16-.2.24-.3.17s-.18,0-.18.21c0,.57.51.34,1.53-.72s2-1.74,2.21-1.44c.06.1,0,.29-.19.43a1.28,1.28,0,0,0,0,1.65c.27.3.28.43.05.79s-.38.39-.52.33-.25,0-.25.1-.14.14-.3.07c-.37-.14-.4.16-.05.53.2.22.17.23-.18,0s-.69-.13-.69.44c0,.33-.09.37-.55.27s-.47-.07-.28,0c.35.24.11.67-.29.51-.21-.08-.26,0-.18.2s.2.28.86,0a6.13,6.13,0,0,0,1.59-1.13l.85-.83-.12.9a2.17,2.17,0,0,1-.29,1c-.32.13-.79,1.23-.57,1.37a.4.4,0,0,1,.2.29c0,.26-1.09.42-1.31.2s-.51-.23-.51.09c0,.15.32.37.73.5a1.83,1.83,0,0,0,2.05-.52c.23-.3.26-.29.26.08a1.66,1.66,0,0,1-.42.86c-.22.24-.34.45-.25.45s-.14.15-.5.33-.6.41-.54.51c.17.28-.5.46-.79.21s-.35-.12-.62.19a1.09,1.09,0,0,1-.79.38c-.71,0-.89,0-.45.21a1.53,1.53,0,0,0,1.05-.1c.55-.23.68-.23.89,0a.56.56,0,0,0,.57.2c.18-.05.58-.14.88-.19a8.56,8.56,0,0,0,1-.24c.41-.13.4-.09-.11.59-.32.42-.67.68-.83.62-.38-.15-1,.35-1,.8,0,.19-.06.33-.13.3s-.32.17-.55.43-.5.43-.61.36c-.34-.22-.51.34-.18.58s0,.23-1,.22-1.3,0-1.3.34-.1.32-.3.25a1.06,1.06,0,0,0-.66,0,1.72,1.72,0,0,1-.81.11c-.74-.07-.52.34.3.58l.76.22-1-.09c-.56-.06-1,0-1,.1s.2.21.45.22c.44,0,.44,0,.05.18s-.54,0-.92-.32-.93-.66-.7-.29c.07.12,0,.21-.09.21-.49,0-.16.37.45.49s.61.17.29.35a.88.88,0,0,1-.71.06,1.31,1.31,0,0,0-.48-.12c-.08,0-.26-.25-.4-.58-.34-.76-.53-.78-.62,0,0,.38-.16.54-.36.49-1.13-.26-1.22-.21-1.22.67a34.09,34.09,0,0,0,.52,4.27c.12.54.08.56-.66.56h-.78Z"/><path class="cls-4" d="M308.21,250.43a1,1,0,0,1,.11-.77c.17-.28.24-.18.25.38,0,.83-.13,1-.36.39m-.15,2.26c-.43-.44-.4-.77.07-.77s.81.74.47,1c-.12.08-.36,0-.54-.18m-.16,1.81c-.46-.63-.47-.71-.07-.55s.46.06.46-.09a.29.29,0,0,1,.31-.27h0c.22,0,.23.1,0,.35-.37.45-.09.93.64,1.11.45.12.43.15-.14.17a1.5,1.5,0,0,1-1.22-.72m.08,2c-.33-.42-.31-.45.18-.28s.53.18,0-.21-.43-.39.48-.35a4.21,4.21,0,0,1,1,.12,5.89,5.89,0,0,1-1.2,1.19,1.69,1.69,0,0,1-.49-.47m-2.44,2.1a.26.26,0,0,1,.25-.24,2.68,2.68,0,0,0,.69-.17c.24-.09.44,0,.44.11s-.31.33-.69.41-.69,0-.69-.11m-4.07,8.4c-.34-.65-.36-.87-.08-.87s.9,1.08.63,1.25-.39-.08-.55-.38m-4.9,44.9a.55.55,0,0,1,.53,0c.22.09.16.15-.16.17s-.46-.06-.37-.15m11-43.35c0-.26-.27-.33-.9-.23-.86.14-.87.15-.2.34,1,.3,1.1.29,1.1-.11m3.58,4.11c0-.07-.19-.12-.43-.12s-.35.12-.26.28.69.13.69-.16m3.32,3.07c1-.53,1-.62,0-.47-.46.07-.76.23-.69.35s-.14.28-.48.35-.48.13-.13.16a3.32,3.32,0,0,0,1.31-.39M302,277.51a.46.46,0,0,0-.85-.23c-.38.6-.3.76.3.61.3-.08.55-.25.55-.38m1,.51c-.13-.4-.57-.36-.71.06,0,.16.12.28.37.28s.4-.15.34-.34m1.59.34c.09-.15,0-.28-.11-.28a.64.64,0,0,0-.45.28c-.09.16,0,.28.11.28a.61.61,0,0,0,.45-.28m10.88,1.12a.28.28,0,0,0-.28-.28h0c-.16,0-.21.12-.12.28.22.35.42.35.42,0m-11.17,1.67c-.22-.36-.41-.36-.41,0a.29.29,0,0,0,.29.28c.16,0,.21-.13.12-.28m-1.36.53c.28-.46-.36-1-.74-.61a.53.53,0,0,0,0,.75.54.54,0,0,0,.33.16.61.61,0,0,0,.43-.3m-3.18,3.64c.33-.22.29-.27-.21-.27-.34,0-.62.12-.62.27,0,.35.29.35.83,0m17.07.28a.28.28,0,1,0-.27.28.28.28,0,0,0,.27-.28m-16,3.34c-.35-.22-.32-.27.13-.28s.48,0,.15-.26a.59.59,0,0,0-.73,0c-.21.18-.39.18-.49,0s0-.34.25-.42a.65.65,0,0,0,.41-.52q0-.36-.21-.06c-.3.45-1.13.69-1.31.38a.3.3,0,0,0-.42-.11h0a.15.15,0,0,1-.25-.13c0-.13-.28-.26-.62-.23s-.61-.07-.58-.42a.4.4,0,0,0-.33-.47h-.09c-2,0-.65,1.85,1.81,2.39,2.07.45,2.86.49,2.29.11m-1.33,3.43a.55.55,0,0,0-.53,0c-.09.09.07.16.36.15s.39-.08.17-.17m26.12,1c0-.49-.86-1.22-1.06-.91a1.66,1.66,0,0,1-.66.45c-.87.32-.51.75.62.75.6,0,1.1-.13,1.1-.29M298,294.75a.43.43,0,1,0-.45-.73,1.54,1.54,0,0,1-1.1-.28,1.75,1.75,0,0,0-1.37-.28c-.84.22-.68.42.84,1s1.59.58,2.08.26m-.38,1.37c-.22-.36-.41-.36-.41,0a.29.29,0,0,0,.29.28c.16,0,.21-.13.12-.28m-1.38,3.9c.1-.16,0-.2-.26-.11-.48.19-.56.39-.17.39a.56.56,0,0,0,.43-.28m27,1.13c.27-.27-.27-.28-1.81,0a.31.31,0,0,0-.21.33c0,.36,1.61.14,2-.28M295,302.26a.43.43,0,0,1,.6-.08l.08.08c.27.23.61.19,1.29-.15.51-.25.78-.5.6-.56a1,1,0,0,0-.75.24c-.34.29-.46.29-.64,0s-.46-.29-1.4,0-1.09.39-.8.57c.52.33.64.32,1-.06m4.47.31c0-.17-.12-.22-.28-.13-.35.22-.35.42,0,.42a.29.29,0,0,0,.28-.28h0m-1.24.29c.1-.15-.11-.28-.47-.27s-.55,0-.22.27c.51.34.49.34.69,0m21.52,1.1c-.22-.35-.42-.35-.42,0a.29.29,0,0,0,.28.28h0c.17,0,.22-.12.13-.28m-22.73.42a2,2,0,0,0-.55-.25c-.3-.08-.48,0-.4.11s.95.36.95.14m22.59.39c0-.15-.19-.28-.41-.28s-.42.13-.42.28.19.28.42.28.41-.13.41-.28m-11.71.56c.1-.16,0-.21-.26-.11-.48.18-.56.38-.17.38a.59.59,0,0,0,.43-.27m-4,.55c0-.36-.47-.36-.69,0-.1.16,0,.28.26.28s.43-.12.43-.28m-2.76,0a.28.28,0,0,0-.29-.27h0c-.17,0-.23-.21-.14-.48.16-.45.14-.45-.21,0s-.46.43-.76.14-2.44-.58-2.44-.2c0,.14-.19.26-.42.26-.57,0-.52.49.07.61,1.08.23,4.2.17,4.2-.07m-3.85,1.33c0-.13-.19-.06-.42.17a1.34,1.34,0,0,0-.4.79c0,.41.82-.54.82-1m6.88,4.53q.41,0,.09-.18a.43.43,0,0,1-.16-.58c.13-.36.06-.41-.36-.24-.88.36-1.34.38-1.7.09s-.35-.18-.35,0-.21.34-.48.41-.4.15.12.37a6.64,6.64,0,0,0,2.84.11m4.36,5.84a27.88,27.88,0,0,0-.08-3.77c-.18-1.71-.23-1.8-.79-1.6a4.74,4.74,0,0,1-1.35.19c-.42,0-.76.06-.76.16s-.37.16-.82.13-.86.09-1,.47c-.19.61-.95.72-.95.13,0-.41-.45-.44-1-.07-.23.15-.29.08-.19-.19s0-.38-.48-.29-.49,0-.3,0c.47-.22.43-.69,0-.51-.21.09-.58-.13-.83-.48l-.44-.64v.62c0,.34-.12.62-.28.62a.26.26,0,0,1-.27-.24c0-.14-.31-.18-.69-.11s-.69,0-.69-.18.23-.31.52-.31a1.24,1.24,0,0,0,.84-.4,2.43,2.43,0,0,1,1.14-.58c1.29-.28,1.16-.59-.26-.6a11,11,0,0,1-2.06-.19,2.06,2.06,0,0,0-1.34.13c-.45.25-.63.25-.71,0s-.21-.25-.35-.17c-.36.23-2.21-.17-2-.44s.54-.16,1-.08c.79.13.93,0,1.19-.66s.24-.81-.23-.85-.46,0-.22.33.18.42-.18.56-.53.06-.58-.11a.48.48,0,0,0-.42-.29c-.18,0-.45-.28-.6-.63a1.08,1.08,0,0,0-1-.65c-1.47-.07-1.52-.1-.87-.56s.57-.48.2-.76a2.3,2.3,0,0,1-.6-1.23c-.22-1.12.32-1.22,1.25-.23s2,1.4,2.75,1,.78-.85.3-.85c-.15,0-.25-.15-.21-.35a.22.22,0,0,0-.12-.27.19.19,0,0,0-.15,0c-.19,0-.35,0-.35-.19s-.25-.18-.56-.1-.53,0-.49-.1a1.79,1.79,0,0,0-.28-.87c-.45-.82-.24-1.12.95-1.34.63-.12.88-.28.71-.46s-.47-.16-.83,0c-.7.38-1.15.39-1.15,0,0-.15.24-.27.53-.27.92,0,.92-.56,0-1l-.88-.37.79-.2.79-.2-.76-.66a3.08,3.08,0,0,1-.76-.81,5.2,5.2,0,0,1,2.21.33,4.06,4.06,0,0,0,.59.19.81.81,0,0,1,.39.23c.43.43,2.87.11,2.87-.38,0-.14-.28-.25-.62-.25a2.18,2.18,0,0,1-1.25-.68c-.4-.42-.8-.61-1.08-.51s-.4.06-.25-.36.13-.46-.12-.2-.9,0-1.19-.95c-.13-.39-.35-.54-.69-.45s-.54,0-.64-.58.14-1,.47-.44a.93.93,0,0,0,1.31.13.57.57,0,0,0,.11-.11.63.63,0,0,1,.54-.42c.21,0,.38-.12.38-.28s-.18-.28-.41-.28-.41-.12-.41-.27-.2-.28-.45-.28-.38-.09-.14-.38c.39-.47.06-.83-.41-.43-.26.22-.34.16-.31-.27s.17-.49.33-.41.07,0-.19-.26-.49-.48-.49-.58c0-.38.64-.15,1.79.66a8.24,8.24,0,0,0,1.36.83c.42,0,.07-.82-.67-1.59-.58-.6-.73-.91-.49-1s0-.08-.4,0c-.58.12-.76,0-.76-.29s.24-.46.62-.47.47-.09.28-.16a.68.68,0,0,1-.35-.58c0-.25.08-.36.19-.26s.47,0,.82-.24a3.24,3.24,0,0,1,1.78-.34c.74,0,1.19-.06,1.27-.29s0-.33-.11-.31a3.42,3.42,0,0,1-.64,0c-.37,0-.37-.06,0-.3s.34-.27-.07-.28-.94-1.15-.64-1.64c.1-.17.74.08,1.56.59,1.15.73,1.43.81,1.64.47.37-.58.32-1-.07-.59a1.23,1.23,0,0,1-.72.33c-.32,0-.33-.08-.06-.41s.25-.5-.14-.89-.36-.52-.16-.59a.45.45,0,0,0,.31-.38c0-.15-.26-.19-.59-.08s-.52.08-.39-.12,0-.31-.24-.31-.43-.12-.43-.26c0-.56.55-.57,1.42,0s1,.51,1.52.14a1.38,1.38,0,0,1,1-.25.49.49,0,0,0,.58-.14c.1-.16,0-.3-.11-.3s-.3-.22-.3-.48c0-.44-.05-.44-.41.05s-.54.36-.09-.49c.31-.61.31-.61-.28-.07s-.6.53-.93-.35c-.2-.53-.5-.85-.75-.81s-.46-.19-.52-.6c-.08-.58,0-.64.6-.48,1,.24,1.67-.06,1.26-.55a.94.94,0,0,1-.15-.81c.13-.35.06-.38-.36-.15-.86.47-1.14.35-.95-.41.11-.44.05-.69-.15-.69s-.24-.13-.15-.29a.81.81,0,0,0-.18-.77c-.21-.26.19,0,.87.65a9.83,9.83,0,0,0,2.13,1.49c.49.21.82.48.74.62s-.05.25.07.26l1.12.14c.54.07.89,0,.89-.19s.16-.24.36-.16.29.2.31-.14.08-.06-.16-.19c-.48-.28-1.33.07-1.33-.31,0-.15-.22-.28-.49-.28a2.2,2.2,0,0,1-1.07-.41c-.32-.22-.65-.32-.75-.23s-.17,0-.17-.29v-.67c0-.47,1.87-.2,3,.43l1.17.21v-.29c0-.51-.17-.79-.55-.89-.57-.15-.77-.64-.27-.64.17,0,.15-.19,0-.51-.33-.54-1.65-.52-1.54,0,0,.16-.28.38-.7.5s-.76.11-.76-.07-.14-.17-.39,0-.44.23-.56,0,.11-.4.46-.55c2.47-1,3-1.28,3.11-1.64s.07-.34-.23-.09-.45.23-.55.13a4.59,4.59,0,0,0-1.61-.13c-1.4.05-1.74-.13-.58-.31.91-.14,1.47-.76,1.34-1.48s-.06-.62.39-.33c.29.18.47.39.42.48s.34.18.86.22.9,0,.82-.16a1.28,1.28,0,0,1,.23-.95c.32-.62.32-.71,0-.58s-.39-.05-.39-.44-.17-.58-.38-.58-.44-.23-.52-.52c-.12-.48-.07-.48.91.07a2.91,2.91,0,0,1,1,.72c0,.08.34.18.87.21.87.07.92,0,.52-.36a1.61,1.61,0,0,1-.43-.63c0-.11-.38-.36-.83-.56s-.75-.51-.65-.67a.51.51,0,0,0-.2-.6,3.16,3.16,0,0,1-.7-1.2c-.3-.83-.29-.87.21-.55.29.18.47.45.42.61s.25.3.68.33.79-.07.79-.34.16-.33.47-.21.37.06-.1-.44c-.69-.75-.71-1.87,0-1.81a.67.67,0,0,0,.64-.49c.09-.29.27-.47.4-.38a.28.28,0,0,0,.39-.11h0c.09-.14-.09-.34-.4-.44a.79.79,0,0,1-.55-.63c0-.36.07-.38.33-.12.45.45.77.42.77-.09,0-.23.14-.41.3-.41a2.79,2.79,0,0,0,1-.58c.4-.32.76-.45.82-.3.12.39-1,1.49-1.33,1.29-.15-.09-.19,0-.1.27s0,.43-.14.43-.3.25-.3.56c0,.56,0,.56,1.17,0a10.38,10.38,0,0,0,1.62-1c.33-.29.51-.31.65-.09s0,.38-.38.47a1.15,1.15,0,0,0-.73.68c-.1.29-.27.47-.4.39s-.59.53-.72,1.48a1.66,1.66,0,0,1-.58,1c-.73.55-.32.74.58.27a3.54,3.54,0,0,1,1.14-.41,3.05,3.05,0,0,0,1.21-.72c.79-.68.84-.69.84-.16a.82.82,0,0,1-.54.74c-.3.1-.52.32-.48.49s-.13.33-.35.33c-.42,0-.78,1-.37,1a4,4,0,0,0,1-.42c.44-.24.86-.36.94-.28s0,.15-.25.15-.3.06-.06.21c.52.34-.05,1-.88,1s-.74.06-.6.94.08.94-.47.94a1.55,1.55,0,0,1-.91-.3c-.2-.21-.33-.12-.45.31s-.09.6,1,.43a9.15,9.15,0,0,0,2.17-.69c.89-.44,1-.45.77-.06-.43.74-1.31,1.7-1.56,1.7-.46,0-1.79,1.46-1.54,1.7s2.61-.5,3.64-1.45c.65-.6,1-.76,1.21-.55s.19.3-.05.3-.27.13-.17.29-.14.58-.52.94-.61.73-.36,1,.19.3,0,.26c-.61-.17-1.51.37-1.51.91a.75.75,0,0,1-.55.71c-.31.08-.55.26-.55.39s-.21.15-.46,0-.4-.07-.26.16c.37.6,1.46,0,3.34-1.77.32-.31.81-.74,1.1-1,.46-.38.49-.38.33.07-.1.26-.06.48.08.48s.06.25-.2.55c-.68.81-.77,2-.16,2,.44,0,.44,0-.06.33-.3.18-.58.27-.61.2s-.26.16-.5.5a1.47,1.47,0,0,1-1.11.63c-.86,0-.86.38,0,.78a1.66,1.66,0,0,0,1.38.05c.42-.16.69-.16.69,0s.3-.05.67-.43a2.34,2.34,0,0,1,1.07-.68c.22,0,.46-.25.54-.56.18-.7.52-.7,1,0,.29.48.27.56-.14.56s-.42,0-.08.27.33.29-.09.45a.46.46,0,0,0-.34.56.85.85,0,0,1-.27.78c-.26.27-.3.47-.11.59.37.23-.19,1-.73,1a.35.35,0,0,0-.38.29c0,.2.45.23,1.31.11s1.21-.09,1.09,0a4.45,4.45,0,0,1-1.85.52c-.38.06-.75.14-.83.16a3.75,3.75,0,0,1-.82,0c-.54,0-.57,0-.16.14.88.25,1.23.75.82,1.14a1.4,1.4,0,0,1-.82.34c-.36,0-.39.09-.16.38s.23.45.14.55,0,.25.27.35.39.29.3.42c-.43.7,3.45-.37,4-1.11a5.27,5.27,0,0,1,1.8-1.09c.06.06-.05.41-.24.79a.91.91,0,0,1-.88.6c-.52-.09-.52-.08,0,.34s.48.43.1.43a.83.83,0,0,0-.69.95.66.66,0,0,0,.06.2c.08.14-.1.26-.41.26a.81.81,0,0,0-.74.7,2.07,2.07,0,0,1-1,1.12c-.51.26-.73.55-.62.82s.21.42.27.42a21.15,21.15,0,0,0,4.62-2.47c.54-.61,1.54-.81,1.54-.32,0,.16-.28.28-.62.29s-.52.07-.25.24.2,1.42-.27,1.42c-.15,0-.19.13-.1.28a.17.17,0,0,1-.14.28.16.16,0,0,0-.15.26c.08.14-.12.3-.46.35s-.63.27-.63.5-.3.46-.75.51-.76.25-.76.45a1.41,1.41,0,0,1-.62.8c-.54.38-.56.44-.12.46.27,0,.43.12.34.26-.24.39,1,0,1.82-.57a3.58,3.58,0,0,1,.91-.52,4.46,4.46,0,0,0,1.11-.71c.9-.69,1.4-.58,1.08.25a.42.42,0,0,1-.5.3h0c-.19-.08-.35.06-.35.29a.47.47,0,0,0,.44.45c.26,0,.3.08.1.16a.44.44,0,0,0-.16.57c.14.36.07.38-.43.11s-.87.05-.3.41-.72,1.27-1.24,1.06c-.24-.09-.43,0-.43.16a.6.6,0,0,0,.4.47.42.42,0,0,1,.24.54c-.08.22-.26.33-.39.24s-.25,0-.25.28c0,.78.69.46,2.08-1s2.75-2.36,3-2c.08.14,0,.41-.26.59a1.74,1.74,0,0,0,0,2.25c.37.41.38.57.07,1.07-.2.32-.52.53-.71.45s-.34,0-.34.13-.19.19-.42.1c-.5-.19-.54.21-.06.71.28.31.24.32-.24.07-.67-.35-.94-.18-.94.59,0,.44-.13.51-.75.36s-.63-.09-.38.08c.48.32.15.9-.39.69-.28-.11-.36,0-.25.27s.27.38,1.18,0a8.42,8.42,0,0,0,2.16-1.42l1.15-1.13-.15,1.22a2.68,2.68,0,0,1-.4,1.32c-.44.17-1.07,1.67-.78,1.85a.61.61,0,0,1,.28.4c0,.35-1.48.57-1.78.28s-.7-.32-.7.11c0,.2.44.51,1,.68a2.55,2.55,0,0,0,2.8-.7c.31-.41.34-.4.34.1a2.14,2.14,0,0,1-.56,1.17c-.31.33-.47.61-.35.61s-.18.21-.67.45-.82.56-.74.7c.23.38-.67.62-1.07.28s-.48-.15-.84.27a1.47,1.47,0,0,1-1.09.51c-1-.08-1.2,0-.6.28a2.14,2.14,0,0,0,1.43-.14c.74-.31.93-.3,1.21,0a.8.8,0,0,0,.77.27,12.24,12.24,0,0,1,1.2-.27,10.2,10.2,0,0,0,1.35-.32c.54-.17.53-.12-.16.8-.44.58-.9.93-1.13.84-.51-.19-1.37.48-1.37,1.09,0,.27-.08.45-.18.42s-.44.22-.74.58-.68.57-.83.48c-.47-.29-.7.46-.25.8s0,.31-1.33.29-1.76,0-1.76.47-.14.44-.42.33a1.36,1.36,0,0,0-.89,0,2.58,2.58,0,0,1-1.1.15c-1-.1-.71.45.41.78l1,.3-1.31-.13c-.75-.07-1.3,0-1.3.15s.28.28.62.29c.59,0,.59,0,.07.25s-.74,0-1.26-.44c-.71-.67-1.26-.9-.95-.39.1.16,0,.28-.12.28-.67,0-.22.5.6.68s.84.22.4.47a1.17,1.17,0,0,1-1,.08,1.7,1.7,0,0,0-.66-.17c-.1,0-.35-.33-.55-.79-.45-1-.71-1-.83-.06-.05.51-.22.73-.5.67-1.53-.36-1.65-.29-1.64.9a43.67,43.67,0,0,0,.7,5.81c.15.73.11.76-.9.76h-1.07Z"/><path class="cls-5" d="M327.74,430.82c.43.27.33.44,0,.69a1.06,1.06,0,0,0,0,1.38c.09.1.2.25.11.33-.42.41-.26,1.26-1.05,1.37a.3.3,0,0,0-.26.32c0,.3,0,.55-.38.65-.18,0,0,.24.07.36a.24.24,0,0,1,0,.35.23.23,0,0,1-.31,0,3,3,0,0,0-.5-.19c-.3-.15-.48-.1-.6.22s-.27.37-.5.11-.29-.09-.44,0c-.44.2-.86.29-1.21-.15a.12.12,0,0,0-.17,0l0,0-.09.11c-.51-.41-.89.44-1.4.13-.15-.09-.22.07-.28.18a.4.4,0,0,1-.51.24l-.06,0c-.25-.14-.22-.36-.13-.6s.2-.35.15-.55,0-.57-.44-.37a.29.29,0,0,1-.38-.15.28.28,0,0,1,0-.18,1.12,1.12,0,0,0-.2-1c-.29-.43-.26-1-.7-1.35,0,0-.05-.05-.05-.08a2.82,2.82,0,0,0-.26-1.37,1.32,1.32,0,0,0-.12-.35c0-.11-.39-.46-.12-.75-.23-.18-.27-.51-.48-.7s-.36-.24-.18-.5-.05-.12-.11-.13-.17-.12-.1-.17c.31-.23.32-.55.38-.88s.29-.23.48-.25.37,0,.31-.25,0-.48-.32-.47-.39-.13-.3-.41a.28.28,0,0,0-.08-.26c-.28-.31-.11-.62-.11-1a8,8,0,0,1,.09-1.55c.07-.32-.07-.62.32-.82s.23-.36,0-.49c-.51-.27-.43-.48,0-.7a.23.23,0,0,0,.15-.3.09.09,0,0,0,0-.07c-.27-.47,0-.78.31-1.09.14-.12.5-.26,0-.48-.14-.07-.05-.24.07-.32l.36-.24a.21.21,0,0,0,.1-.25c0-.1-.13-.08-.21-.06a.32.32,0,0,1-.38-.24v0c-.06-.23.06-.36.26-.45s.34-.43.49-.61c.32-.4.2-.65,0-1a.72.72,0,0,1,0-.5c.17-.29,0-.43-.12-.65s.22-.32.34-.47-.15-.17-.22-.25-.13-.27,0-.27c.31,0,.51-.31.8-.26a.57.57,0,0,0,.66-.45c.09-.34.28-.48.57-.16s.52-.13.76.13c0-.21-.14-.28-.2-.39s-.21-.23-.12-.39.22-.11.36-.07.3-.18.57-.16a1.46,1.46,0,0,1,1,.33c.13.1.18,0,.26-.1.28-.35.51-.37.74,0,.1.16.15.17.29.09a.3.3,0,0,1,.42,0l0,0a.45.45,0,0,1,0,.5c-.08.18-.41.32-.27.47s.34.55.64.7a1.74,1.74,0,0,1,.33.18c.24.25.4.23.54-.09s.26-.23.41-.33.27-.15.4,0-.05.23-.08.35a1.87,1.87,0,0,1-.63.93.19.19,0,0,0-.06.22c.06.09.15.05.21,0,.5-.28.57.28.8.46s-.14.23-.29.26a3.32,3.32,0,0,0-1.13.2,1.09,1.09,0,0,0-.17.13,1.78,1.78,0,0,1,1,.44c.17.17.32,0,.42-.16s.19-.29.38-.2.15.26.1.42,0,.25-.1.33c-.36.4-.66.8-.16,1.31-.26.45.1.68.34,1a.43.43,0,0,1,0,.46c-.06.14-.26.28-.06.42s.3,0,.43-.12.11-.11.23-.08c0,.35-.49.43-.41.69s-.23.51-.31.81c.81,0,1,.74,1.49,1.13.23.18-.25.29-.33.48s.5.19.23.5-.39.14-.58.21-.21,0-.21.17.1.12.17.15h.05c.44.07-.08.49.19.56.43.12.2.29.17.55a.82.82,0,0,1-.63.83c-.2.07-.16.28-.05.41a4.19,4.19,0,0,1,.48.82c.19.33.39.6-.1.81-.13.06-.1.16,0,.24.25.29.1.57,0,.86s-.4.45-.06.74c.1.1-.07.2-.18.21h-.61"/><path class="cls-5" d="M360.84,425.7c.81.55.62.89.07,1.41a2.3,2.3,0,0,0,0,2.79c.16.21.38.5.2.68-.77.82-.47,2.55-1.94,2.78a.61.61,0,0,0-.48.64c0,.61.06,1.13-.69,1.33-.34.08,0,.49.12.72a.56.56,0,0,1,0,.71.4.4,0,0,1-.57,0h0a7.27,7.27,0,0,0-.91-.38c-.56-.31-.89-.2-1.12.44s-.49.76-.92.23c-.26-.32-.54-.18-.82,0-.8.41-1.57.6-2.23-.3-.12-.16-.24-.17-.36,0a1.12,1.12,0,0,1-.18.2c-.93-.81-1.65.9-2.58.27-.28-.19-.4.14-.52.37-.24.47-.59.69-1,.42a.94.94,0,0,1-.26-1.2,2,2,0,0,0,.28-1.12c-.1-.43,0-1.16-.81-.77a.56.56,0,0,1-.75-.67,2.41,2.41,0,0,0-.36-2c-.53-.86-.48-2-1.28-2.73-.05,0-.1-.11-.09-.16a6.24,6.24,0,0,0-.49-2.8c-.08-.19-.15-.47-.22-.7-.14-.47-.72-.93-.22-1.52-.44-.37-.5-1-.9-1.43s-.67-.48-.32-1c.16-.24-.1-.23-.22-.26s-.31-.23-.17-.34a2.52,2.52,0,0,0,.7-1.79c.06-.43.52-.47.89-.51s.67,0,.57-.51-.07-1-.6-.95-.71-.26-.56-.82a.58.58,0,0,0-.14-.55c-.51-.62-.2-1.26-.19-2a15.29,15.29,0,0,1,.16-3.17c.13-.63-.13-1.25.59-1.65a.54.54,0,0,0,.3-.7.55.55,0,0,0-.3-.3c-.95-.55-.8-1,.05-1.42a.53.53,0,0,0,.25-.71.08.08,0,0,0,0,0c-.51-1-.07-1.59.57-2.21.26-.25.92-.54.08-1-.26-.13-.1-.47.12-.64s.46-.31.67-.49a.47.47,0,0,0,.19-.51c-.07-.2-.24-.15-.39-.13a.58.58,0,0,1-.71-.43.36.36,0,0,1,0-.1.74.74,0,0,1,.49-.91c.53-.24.62-.88.9-1.25a1.73,1.73,0,0,0,.08-2,1.63,1.63,0,0,1,.06-1c.32-.59.05-.87-.22-1.32-.44-.72.41-.66.63-1,0-.33-.26-.35-.41-.5s-.23-.55,0-.55c.56,0,.93-.64,1.47-.53.74.16,1.06-.22,1.24-.91s.51-1,1-.34,1-.26,1.4.28c0-.44-.26-.57-.37-.8s-.38-.48-.21-.79.41-.23.65-.15.57-.36,1.06-.33a2.54,2.54,0,0,1,1.78.68c.23.21.34,0,.48-.19.52-.72.95-.75,1.37,0,.19.31.28.34.53.16a.53.53,0,0,1,.75,0l.06.08a1,1,0,0,1,0,1c-.13.34-.75.64-.48.93.41.46.61,1.13,1.17,1.44a1.86,1.86,0,0,1,.62.37c.44.49.74.47,1-.19.13-.36.49-.46.75-.67s.51-.31.75-.07-.1.48-.15.72a4,4,0,0,1-1.17,1.88.37.37,0,0,0-.1.44c.11.2.27.12.39.05.92-.56,1,.58,1.48.94.24.2-.26.46-.55.52a5.51,5.51,0,0,0-2.08.41l-.32.26a3.37,3.37,0,0,1,1.88.89c.33.35.59,0,.79-.32s.35-.59.71-.4.26.53.17.86a1.8,1.8,0,0,1-.18.65c-.66.82-1.22,1.64-.3,2.66-.47.92.18,1.39.62,2a.91.91,0,0,1,0,.93c-.12.27-.48.56-.12.85s.56,0,.8-.24.2-.24.41-.17c.08.72-.9.88-.76,1.41.21.76-.42,1-.56,1.64,1.5-.06,1.86,1.5,2.75,2.29.42.38-.46.59-.61,1s.92.4.43,1c-.26.32-.72.28-1.08.42-.16.07-.38.11-.38.36s.17.24.31.29h.09c.81.13-.15,1,.36,1.15.79.23.36.57.3,1.1a1.67,1.67,0,0,1-1.15,1.7c-.38.14-.31.55-.1.82a8.45,8.45,0,0,1,.89,1.68c.35.66.72,1.2-.19,1.64-.23.11-.18.31-.05.48.45.59.18,1.16,0,1.76s-.74.9-.11,1.5c.19.18-.11.4-.33.41s-.64,0-1.13,0"/><polygon class="cls-1" points="289.68 369.59 289.68 188.03 203.12 137.36 165.12 154.25 112.34 209.14 112.34 384.36 239.01 422.36 289.68 369.59"/><path class="cls-6" d="M181.88,391.44c.05,1.05.32,2.07.39,3.12.06.86.13,1.7.27,2.54s1.6.55,1.44-.39a21.24,21.24,0,0,1-.23-2.52c-.05-.84-.33-1.83-.37-2.75S181.83,390.44,181.88,391.44Z"/><path class="cls-6" d="M179.46,391.18a6.72,6.72,0,0,1-.39,1.25c-.11.46-.22.88-.36,1.33-.35,1.09-.5,2.21-.82,3.3-.27.92,1.16,1.31,1.45.39l.07-.22c.29-.92-1.16-1.31-1.45-.4l-.07.23,1.45.39c.34-1.18.54-2.39.91-3.57a12.08,12.08,0,0,0,.71-2.7c.06-1-1.44-1-1.5,0Z"/><line class="cls-7" x1="238.74" y1="237.53" x2="238.73" y2="421.41"/><polyline class="cls-8" points="113.32 206.81 113.31 384.92 238.73 421.41 290.27 369.86 288.99 274.52"/><line class="cls-8" x1="113.5" y1="294.9" x2="238.74" y2="327.27"/><line class="cls-8" x1="113.5" y1="250.85" x2="238.74" y2="283.23"/><path class="cls-8" d="M113.5,206.81l125.24,32.38,50.51-50.51a.59.59,0,0,1,.83,0,.63.63,0,0,1,.17.42l-1.19,94.12"/><path class="cls-8" d="M238.74,239.19l-36.31-101-87.85,68.66,51.54-51.54,123.57,32.22a.1.1,0,0,0,.09-.07.09.09,0,0,0,0-.07l-87.32-49.2-36.31,17.12"/><path class="cls-6" d="M170.67,198.07a1.06,1.06,0,1,0-.95-.95A1.06,1.06,0,0,0,170.67,198.07Z"/><path class="cls-6" d="M160.65,194.4a1.06,1.06,0,1,0-1-1A1.06,1.06,0,0,0,160.65,194.4Z"/><path class="cls-6" d="M169,186.82a1.06,1.06,0,1,0-.95-.95A1.06,1.06,0,0,0,169,186.82Z"/><path class="cls-6" d="M162.19,181.61v-.24a1.06,1.06,0,0,0-2.11,0v.24a1.06,1.06,0,0,0,2.11,0Z"/><path class="cls-6" d="M156.73,192.93a1.06,1.06,0,1,0-.95-1A1.06,1.06,0,0,0,156.73,192.93Z"/><path class="cls-6" d="M140.6,194.89a1.06,1.06,0,1,0-.95-.95A1.06,1.06,0,0,0,140.6,194.89Z"/><path class="cls-6" d="M147.94,186.09a1.06,1.06,0,1,0-.95-1A1.06,1.06,0,0,0,147.94,186.09Z"/><path class="cls-6" d="M149.65,192.69a1.06,1.06,0,1,0-1-.95A1.06,1.06,0,0,0,149.65,192.69Z"/><path class="cls-6" d="M148,200.43v-.49a1.06,1.06,0,0,0-2.11,0v.49a1.06,1.06,0,0,0,2.11,0Z"/><path class="cls-6" d="M134.49,198.31a1.06,1.06,0,1,0-1-.95A1.06,1.06,0,0,0,134.49,198.31Z"/><path class="cls-6" d="M127.66,202.89l.25-.24a1.06,1.06,0,0,0-1.5-1.5l-.24.25a1.05,1.05,0,0,0,1.49,1.49Z"/><path class="cls-6" d="M135.88,203.37v.15a1.06,1.06,0,0,0,2.11,0v-.15a1.06,1.06,0,0,0-2.11,0v.15a1.06,1.06,0,0,0,2.11,0v-.15a1.06,1.06,0,0,0-2.11,0Z"/><path class="cls-6" d="M141.09,209.55a1.06,1.06,0,1,0-1-1A1.06,1.06,0,0,0,141.09,209.55Z"/><path class="cls-6" d="M157.06,204.34v-.24a1.06,1.06,0,0,0-2.11,0v.24a1.06,1.06,0,0,0,2.11,0Z"/><path class="cls-6" d="M162.6,207.44h-.24a1.06,1.06,0,0,0,0,2.11h.24a1.06,1.06,0,0,0,0-2.11Z"/><path class="cls-6" d="M155.27,212.49a1.06,1.06,0,1,0-1-1A1.06,1.06,0,0,0,155.27,212.49Z"/><path class="cls-6" d="M162.36,201.73a1.06,1.06,0,1,0-1-.95A1.06,1.06,0,0,0,162.36,201.73Z"/><path class="cls-6" d="M175.8,205.89a1.06,1.06,0,1,0-1-.95A1.06,1.06,0,0,0,175.8,205.89Z"/><path class="cls-6" d="M182.64,191.56h-.24a1.06,1.06,0,0,0,0,2.11h.24a1.06,1.06,0,0,0,0-2.11Z"/><path class="cls-6" d="M175.59,189.71v-.19l-.74.73h.2c1.32-.31.76-2.35-.56-2h-.2a1,1,0,0,0-.73.74v.19c-.31,1.32,1.72,1.89,2,.56Z"/><path class="cls-6" d="M181.68,180.13l-.25-.24a1.05,1.05,0,0,0-1.49,1.49l.24.25a1.06,1.06,0,0,0,1.5-1.5Z"/><path class="cls-6" d="M172.62,176.89h-.24a1.06,1.06,0,0,0,0,2.11h.24a1.06,1.06,0,0,0,0-2.11Z"/><path class="cls-6" d="M176.12,169.15v-.25a1.06,1.06,0,0,0-2.11,0v.25a1.06,1.06,0,0,0,2.11,0Z"/><path class="cls-6" d="M164.14,171.1v-.24a1.06,1.06,0,0,0-2.11,0v.24a1.06,1.06,0,0,0,2.11,0Z"/><path class="cls-6" d="M176.7,172.81v.25a1.06,1.06,0,0,0,2.11,0v-.25a1.06,1.06,0,0,0-2.11,0Z"/><path class="cls-6" d="M191.45,166.69l.07.26a1.09,1.09,0,0,0-1.06-1.06,1.06,1.06,0,0,0-1,1.06,1.79,1.79,0,0,0,.54,1.23c1,.93,2.49-.56,1.49-1.49Z"/><path class="cls-6" d="M185.82,161.89a1.06,1.06,0,1,0-.95-.95A1.06,1.06,0,0,0,185.82,161.89Z"/><path class="cls-6" d="M177.1,163.77v-.24a1.06,1.06,0,0,0-2.11,0v.24a1.06,1.06,0,0,0,2.11,0Z"/><path class="cls-6" d="M167.49,161.74h-.25a1.06,1.06,0,0,0,0,2.11h.25a1.06,1.06,0,0,0,0-2.11Z"/><path class="cls-6" d="M176.78,155.05a1.06,1.06,0,1,0-.95-1A1.06,1.06,0,0,0,176.78,155.05Z"/><path class="cls-6" d="M187.29,150.65a1.06,1.06,0,1,0-.95-1A1.06,1.06,0,0,0,187.29,150.65Z"/><path class="cls-6" d="M197.51,157v.2a1,1,0,0,0,.73.74l.2.05c1.32.31,1.89-1.73.56-2l-.19-.05.73.74v-.2c-.31-1.32-2.35-.76-2,.56Z"/><path class="cls-6" d="M195.8,164.46l-.22.07a1.06,1.06,0,0,0-.77,1,1.17,1.17,0,0,0,1.11,1.24h.16a1.06,1.06,0,0,0,0-2.11h.09l.63.49v-.07l.14.54v-.1l-.78,1,.23-.06a1.06,1.06,0,0,0-.57-2Z"/><path class="cls-6" d="M193.64,224.71a1.06,1.06,0,1,0-.95-1A1.06,1.06,0,0,0,193.64,224.71Z"/><path class="cls-6" d="M199.1,217.05v-.24a1.06,1.06,0,0,0-2.12,0v.24a1.06,1.06,0,0,0,2.12,0Z"/><path class="cls-6" d="M195.18,210.21V210a1.06,1.06,0,0,0-2.11,0v.25a1.06,1.06,0,0,0,2.11,0Z"/><path class="cls-6" d="M187.77,209.8a1.06,1.06,0,1,0-1-1A1.06,1.06,0,0,0,187.77,209.8Z"/><path class="cls-6" d="M188.51,214.93h.24a1.06,1.06,0,0,0,0-2.11h-.24a1.06,1.06,0,0,0,0,2.11Z"/><path class="cls-6" d="M188,217.53l-.24-.25a1.06,1.06,0,0,0-1.5,1.5l.25.24a1.05,1.05,0,0,0,1.49-1.49Z"/><path class="cls-6" d="M178.49,216.89a1.06,1.06,0,1,0-1.06-1.06A1.05,1.05,0,0,0,178.49,216.89Z"/><path class="cls-6" d="M179,213a1.06,1.06,0,1,0-1.06-1.06A1.05,1.05,0,0,0,179,213Z"/><path class="cls-6" d="M186.06,203.2a1.06,1.06,0,1,0-.95-.95A1.06,1.06,0,0,0,186.06,203.2Z"/><path class="cls-6" d="M196.12,198l.2-.05a1.07,1.07,0,0,0,.74-.73V197c.31-1.32-1.72-1.89-2-.56v.19l.74-.73h-.2c-1.32.31-.76,2.35.56,2Z"/><path class="cls-6" d="M206.11,189.11h-.74a1.06,1.06,0,0,0,0,2.11h.74a1.06,1.06,0,0,0,0-2.11Z"/><path class="cls-6" d="M200.77,182.17l-.49-.25a1.06,1.06,0,0,0-1.06,1.83l.49.24a1.05,1.05,0,1,0,1.06-1.82Z"/><path class="cls-6" d="M192.38,186.54v.2a1.07,1.07,0,0,0,.74.73l.2.05c1.32.31,1.89-1.73.56-2h-.2l.74.73v-.19c-.31-1.33-2.34-.77-2,.56Z"/><path class="cls-6" d="M202.65,191.43h.2l-.74-.74v.2a1,1,0,0,0,2-.56v-.2a1,1,0,0,0-.73-.74h-.2c-1.32-.31-1.89,1.73-.56,2Z"/><path class="cls-6" d="M228.18,224.14v-.24a1.06,1.06,0,0,0-2.11,0v.24a1.06,1.06,0,0,0,2.11,0Z"/><path class="cls-6" d="M218.33,219.09a1.06,1.06,0,1,0-1.06-1.06,1.05,1.05,0,0,0,1.06,1.06Z"/><path class="cls-6" d="M226.43,212.93c.14-.81-.08-1.6-1-1.78a1.08,1.08,0,0,0-1.3.73,1.07,1.07,0,0,0,.74,1.3h.2l-.74-.73,0-.12a1.08,1.08,0,0,0,.73,1.3,1.07,1.07,0,0,0,1.3-.74Z"/><path class="cls-6" d="M219.06,209.31a1.06,1.06,0,1,0-.95-.95A1.06,1.06,0,0,0,219.06,209.31Z"/><path class="cls-6" d="M217.35,207.93h-.25a1.06,1.06,0,0,0,0,2.11h.25a1.06,1.06,0,0,0,0-2.11Z"/><path class="cls-6" d="M213.44,216.4a1.06,1.06,0,1,0-.95-1A1.06,1.06,0,0,0,213.44,216.4Z"/><path class="cls-6" d="M207,221v.15a1.06,1.06,0,0,0,2.11,0V221a1.06,1.06,0,0,0-2.11,0v.15a1.06,1.06,0,0,0,2.11,0V221a1.06,1.06,0,0,0-2.11,0Z"/><path class="cls-6" d="M206.59,212a1.06,1.06,0,1,0-1-.95A1.06,1.06,0,0,0,206.59,212Z"/><path class="cls-6" d="M217.18,201.65v-.24a1.06,1.06,0,0,0-2.11,0v.24a1.06,1.06,0,0,0,2.11,0Z"/><path class="cls-6" d="M220.28,194.89a1.06,1.06,0,1,0-.95-.95A1.06,1.06,0,0,0,220.28,194.89Z"/><path class="cls-6" d="M207.08,203.44a1.06,1.06,0,1,0-1-.95A1.06,1.06,0,0,0,207.08,203.44Z"/><path class="cls-6" d="M214.66,192.93a1.06,1.06,0,1,0-.95-1A1.06,1.06,0,0,0,214.66,192.93Z"/><path class="cls-6" d="M231,187.31a1.06,1.06,0,1,0-.95-.95A1.06,1.06,0,0,0,231,187.31Z"/><path class="cls-6" d="M260.3,205.12l.24-.49a1.08,1.08,0,0,0-.38-1.44,1.06,1.06,0,0,0-1.44.37h0l-.24.48a1.06,1.06,0,1,0,1.72,1.24Z"/><path class="cls-6" d="M257.19,196.6a1.06,1.06,0,1,0-.95-.95A1.06,1.06,0,0,0,257.19,196.6Z"/><path class="cls-6" d="M248.39,199.53a1.06,1.06,0,1,0-.95-.95A1.06,1.06,0,0,0,248.39,199.53Z"/><path class="cls-6" d="M250.51,203.12v.25a1.06,1.06,0,0,0,2.11,0v-.25a1.06,1.06,0,0,0-2.11,0Z"/><path class="cls-6" d="M246.19,213.71a1.06,1.06,0,1,0-.95-1A1.06,1.06,0,0,0,246.19,213.71Z"/><path class="cls-6" d="M239.83,209.06a1.06,1.06,0,1,0-1-.95A1.06,1.06,0,0,0,239.83,209.06Z"/><path class="cls-6" d="M244,193.63c.13-.82-.09-1.61-1-1.79a1.08,1.08,0,0,0-1.3.74,1.06,1.06,0,0,0,.74,1.29l.2,0-.74-.74v-.12a1.09,1.09,0,0,0,.74,1.3,1.06,1.06,0,0,0,1.3-.73Z"/><path class="cls-6" d="M233.48,195.62a1.06,1.06,0,1,0-.95-1A1.06,1.06,0,0,0,233.48,195.62Z"/><path class="cls-6" d="M240.81,198.8a1.06,1.06,0,1,0-.95-1A1.06,1.06,0,0,0,240.81,198.8Z"/><path class="cls-6" d="M236.66,202.22a1.06,1.06,0,1,0-.95-.95A1.06,1.06,0,0,0,236.66,202.22Z"/><path class="cls-6" d="M242.69,220.72V221a1.06,1.06,0,0,0,2.11,0v-.24a1.06,1.06,0,0,0-2.11,0Z"/><path class="cls-6" d="M238.86,228.62a1.06,1.06,0,1,0-1-1A1.06,1.06,0,0,0,238.86,228.62Z"/><path class="cls-6" d="M265.25,206.87a1.06,1.06,0,1,0-1.06-1.06A1.05,1.05,0,0,0,265.25,206.87Z"/><path class="cls-6" d="M278.94,189.76a1.06,1.06,0,1,0-.95-.95A1.06,1.06,0,0,0,278.94,189.76Z"/><path class="cls-6" d="M269.18,186l.24-.25a1.05,1.05,0,0,0-1.49-1.49h0l-.25.24a1.06,1.06,0,0,0,1.5,1.5Z"/><path class="cls-6" d="M270.8,189.43v.25a1.06,1.06,0,0,0,2.11,0v-.25a1.06,1.06,0,0,0-2.11,0Z"/><path class="cls-6" d="M270.38,196.36a1.06,1.06,0,1,0-1.06-1.06A1.06,1.06,0,0,0,270.38,196.36Z"/><path class="cls-6" d="M261.83,197.33a1.06,1.06,0,1,0-.95-1A1.06,1.06,0,0,0,261.83,197.33Z"/><path class="cls-6" d="M261.66,188.46v-.25a1.06,1.06,0,0,0-2.11,0v.25a1.06,1.06,0,0,0,2.11,0Z"/><path class="cls-6" d="M217.59,173.14a1.06,1.06,0,1,0-1-.95A1.06,1.06,0,0,0,217.59,173.14Z"/><path class="cls-6" d="M223.21,168.25a1.06,1.06,0,1,0-1-.95A1.06,1.06,0,0,0,223.21,168.25Z"/><path class="cls-6" d="M215.64,162.87a1.06,1.06,0,1,0-.95-1A1.06,1.06,0,0,0,215.64,162.87Z"/><path class="cls-6" d="M207.57,174.36a1.06,1.06,0,1,0-.95-1A1.06,1.06,0,0,0,207.57,174.36Z"/><path class="cls-6" d="M207.08,174.36a1.06,1.06,0,1,0-1-1A1.06,1.06,0,0,0,207.08,174.36Z"/><path class="cls-6" d="M203.91,180.71a1.06,1.06,0,1,0-.95-1A1.06,1.06,0,0,0,203.91,180.71Z"/><path class="cls-6" d="M212,182.18a1.06,1.06,0,1,0-.95-1A1.06,1.06,0,0,0,212,182.18Z"/><path class="cls-6" d="M196.33,180.71a1.06,1.06,0,1,0-1-1A1.06,1.06,0,0,0,196.33,180.71Z"/><path class="cls-6" d="M190.22,176.07a1.06,1.06,0,1,0-.95-.95A1.06,1.06,0,0,0,190.22,176.07Z"/><path class="cls-6" d="M202.19,168.74a1.06,1.06,0,1,0-.95-1A1.06,1.06,0,0,0,202.19,168.74Z"/><path class="cls-6" d="M208.87,156.68v-.24a1.06,1.06,0,0,0-2.11,0v.24a1.06,1.06,0,0,0,2.11,0Z"/><path class="cls-6" d="M202.44,148.45a1.06,1.06,0,1,0-.95-.95A1.06,1.06,0,0,0,202.44,148.45Z"/><path class="cls-6" d="M196.82,146a1.06,1.06,0,1,0-.95-.95A1.06,1.06,0,0,0,196.82,146Z"/><path class="cls-6" d="M185.09,161.16a1.06,1.06,0,1,0-1-.95A1.06,1.06,0,0,0,185.09,161.16Z"/><path class="cls-6" d="M215.15,151.38a1.06,1.06,0,1,0-1-.95A1.06,1.06,0,0,0,215.15,151.38Z"/><path class="cls-6" d="M221,156.94l.25.25a1.06,1.06,0,0,0,1.49-1.5l-.25-.24a1.05,1.05,0,0,0-1.49,1.49Z"/><path class="cls-6" d="M226.88,162.14a1.06,1.06,0,1,0-.95-.95A1.06,1.06,0,0,0,226.88,162.14Z"/><path class="cls-6" d="M241.3,171.18a1.06,1.06,0,1,0-1-1A1.06,1.06,0,0,0,241.3,171.18Z"/><path class="cls-6" d="M239.83,182.18a1.06,1.06,0,1,0-1-1A1.06,1.06,0,0,0,239.83,182.18Z"/><path class="cls-6" d="M234.7,169a1.06,1.06,0,1,0-.95-.95A1.06,1.06,0,0,0,234.7,169Z"/><path class="cls-6" d="M228.35,176.8a1.06,1.06,0,1,0-.95-1A1.06,1.06,0,0,0,228.35,176.8Z"/><path class="cls-6" d="M225.41,182.67a1.06,1.06,0,1,0-.95-.95A1.06,1.06,0,0,0,225.41,182.67Z"/><path class="cls-6" d="M254,183.89a1.06,1.06,0,1,0-.95-.95A1.06,1.06,0,0,0,254,183.89Z"/><path class="cls-6" d="M253.28,171.27h.08l.63.49v-.07l.14.54v-.1l-.77,1,.22-.06a1.06,1.06,0,0,0,.46-1.43,1.08,1.08,0,0,0-1-.57l-.23.06a1.1,1.1,0,0,0-.77,1,1.17,1.17,0,0,0,1.11,1.24h.17a1.06,1.06,0,0,0,0-2.11Z"/><path class="cls-6" d="M249.29,188v.15a1.06,1.06,0,0,0,2.11,0V188a1.06,1.06,0,0,0-2.11,0v.15a1.06,1.06,0,0,0,2.11,0V188a1.06,1.06,0,0,0-2.11,0Z"/><path class="cls-6" d="M246.27,180.88v-.24a1.06,1.06,0,0,0-2.11,0v.24a1.06,1.06,0,0,0,2.11,0Z"/><path class="cls-6" d="M249.61,176.8a1.06,1.06,0,1,0-1-1A1.06,1.06,0,0,0,249.61,176.8Z"/><path class="cls-6" d="M188.26,157.74a1.06,1.06,0,1,0-.95-1A1.06,1.06,0,0,0,188.26,157.74Z"/><path class="cls-6" d="M196.08,152h-.24a1.06,1.06,0,0,0,0,2.11h.24a1.06,1.06,0,0,0,0-2.11Z"/><path class="cls-6" d="M213.19,150.41h.25a1.06,1.06,0,0,0,0-2.11h-.25a1.06,1.06,0,0,0,0,2.11Z"/><path class="cls-6" d="M159.59,165.48v.25a1.06,1.06,0,0,0,2.11,0v-.25a1.06,1.06,0,0,0-2.11,0Z"/><path class="cls-6" d="M152.82,176.07a1.06,1.06,0,1,0-.95-.95A1.06,1.06,0,0,0,152.82,176.07Z"/><path class="cls-6" d="M228.35,192.93a1.06,1.06,0,1,0-.95-1A1.06,1.06,0,0,0,228.35,192.93Z"/><path class="cls-6" d="M219.06,186.09h.24a1.06,1.06,0,0,0,0-2.11h-.24a1.06,1.06,0,0,0,0,2.11Z"/><path class="cls-6" d="M227.61,218.35h.25a1.06,1.06,0,0,0,0-2.11h-.25a1.06,1.06,0,0,0,0,2.11Z"/><path class="cls-6" d="M216.61,226.66a1.06,1.06,0,1,0-1-.95A1.06,1.06,0,0,0,216.61,226.66Z"/><path class="cls-6" d="M239.34,216.4a1.06,1.06,0,1,0-1-1A1.06,1.06,0,0,0,239.34,216.4Z"/><path class="cls-6" d="M231.46,204.3v.56h0l.08-.07a1.09,1.09,0,0,0,.38-1.45,1.07,1.07,0,0,0-1.45-.38,1.82,1.82,0,0,0-.87,2.42,1.06,1.06,0,0,0,1.83-1.06Z"/><path class="cls-6" d="M259.22,212.16l-.06.26c1-.93-.5-2.42-1.5-1.49a1.78,1.78,0,0,0-.55,1.23,1.06,1.06,0,0,0,1,1.06,1.09,1.09,0,0,0,1.06-1.06Z"/><path class="cls-6" d="M246.92,209.8l-.26-.07c.93,1,2.42-.5,1.5-1.49a1.78,1.78,0,0,0-1.24-.55,1,1,0,0,0-1,1,1.08,1.08,0,0,0,1,1.06Z"/><path class="cls-6" d="M253.28,216.4a1.06,1.06,0,1,0-.95-1A1.06,1.06,0,0,0,253.28,216.4Z"/><path class="cls-6" d="M249,223.16v.25a1.06,1.06,0,0,0,2.11,0v-.25a1.06,1.06,0,0,0-2.11,0Z"/><path class="cls-6" d="M240,231l.25-.49a1.1,1.1,0,0,0-.38-1.45,1.08,1.08,0,0,0-1.45.38l-.24.49a1.08,1.08,0,0,0,.38,1.45A1.06,1.06,0,0,0,240,231Z"/><path class="cls-6" d="M228.88,231.68h0c.91-1-.58-2.5-1.49-1.49a2.27,2.27,0,0,0-.52,2,1.07,1.07,0,0,0,1.3.74,1.09,1.09,0,0,0,.74-1.3Z"/><path class="cls-6" d="M221.5,227.73h-.24a1.06,1.06,0,0,0,0,2.11h.24a1.06,1.06,0,0,0,0-2.11Z"/><path class="cls-6" d="M203.42,224.22a1.06,1.06,0,1,0-.95-.95A1.06,1.06,0,0,0,203.42,224.22Z"/><path class="cls-6" d="M205.37,213.46a1.06,1.06,0,1,0-1-1A1.06,1.06,0,0,0,205.37,213.46Z"/><path class="cls-6" d="M198,199.46v.24a1.06,1.06,0,0,0,2.11,0v-.24a1.06,1.06,0,0,0-2.11,0Z"/><path class="cls-6" d="M208.3,195.62a1.06,1.06,0,1,0-1-1A1.06,1.06,0,0,0,208.3,195.62Z"/><path class="cls-6" d="M170,216.32v-.25a1.06,1.06,0,0,0-2.11,0v.25a1.06,1.06,0,0,0,2.11,0Z"/><path class="cls-6" d="M171.48,207.52v-.24a1.06,1.06,0,0,0-2.11,0v.24a1.06,1.06,0,0,0,2.11,0Z"/><path class="cls-6" d="M160.65,217.86a1.06,1.06,0,1,0-1-1A1.06,1.06,0,0,0,160.65,217.86Z"/><path class="cls-6" d="M140.11,210a1.06,1.06,0,1,0-1-.95A1.06,1.06,0,0,0,140.11,210Z"/><path class="cls-6" d="M130.83,206.87a1.06,1.06,0,1,0-1.06-1.06A1.05,1.05,0,0,0,130.83,206.87Z"/><path class="cls-6" d="M157,193.11l.25-.24a1.06,1.06,0,0,0-1.5-1.49l-.24.24a1.05,1.05,0,0,0,1.49,1.49Z"/><path class="cls-6" d="M155.51,179a1.06,1.06,0,1,0-.95-.95A1.06,1.06,0,0,0,155.51,179Z"/><path class="cls-6" d="M170.91,173.14a1.06,1.06,0,1,0-.95-.95A1.06,1.06,0,0,0,170.91,173.14Z"/><path class="cls-6" d="M190,186.58a1.06,1.06,0,1,0-.95-1A1.06,1.06,0,0,0,190,186.58Z"/><path class="cls-6" d="M183.38,192.69a1.06,1.06,0,1,0-.95-.95A1.06,1.06,0,0,0,183.38,192.69Z"/><path class="cls-6" d="M183.9,183.6c.07-.25.19-.48.25-.73a1.06,1.06,0,0,0-1-1.13,1,1,0,0,0-1,.57c-.06.25-.18.48-.24.73a1.05,1.05,0,0,0,2,.56Z"/><path class="cls-6" d="M185.9,172.08v-.73a1.06,1.06,0,0,0-2.11,0v.73a1.06,1.06,0,0,0,2.11,0Z"/><path class="cls-6" d="M187.77,162.63a1.06,1.06,0,1,0-1-.95A1.06,1.06,0,0,0,187.77,162.63Z"/><path class="cls-6" d="M225.17,155.05a1.06,1.06,0,1,0-.95-1A1.06,1.06,0,0,0,225.17,155.05Z"/><path class="cls-6" d="M239,163v.24a1.06,1.06,0,0,0,2.11,0V163a1.06,1.06,0,0,0-2.11,0Z"/><path class="cls-6" d="M265.74,174.85a1.06,1.06,0,1,0-.95-.95A1.06,1.06,0,0,0,265.74,174.85Z"/><path class="cls-6" d="M266.47,174.45h-.15a1.06,1.06,0,0,0,0,2.11h.15a1.06,1.06,0,0,0,0-2.11h-.15a1.06,1.06,0,0,0,0,2.11h.15a1.06,1.06,0,0,0,0-2.11Z"/><path class="cls-6" d="M263.31,176.74l.24-.25a1.05,1.05,0,0,0-1.49-1.49l-.24.25a1.05,1.05,0,0,0,1.49,1.49Z"/><line class="cls-9" x1="238.74" y1="375.53" x2="113.32" y2="339.04"/><line class="cls-10" x1="262.75" y1="397.89" x2="262.75" y2="397.89"/><line class="cls-11" x1="113.5" y1="384.76" x2="151.33" y2="349.77"/><line class="cls-11" x1="113.5" y1="340.32" x2="151.33" y2="305.34"/><line class="cls-11" x1="113.5" y1="294.9" x2="151.33" y2="259.91"/><line class="cls-11" x1="113.5" y1="250.85" x2="151.33" y2="215.87"/><path class="cls-6" d="M203,338.21a.42.42,0,0,0-.15-.32c-.09-.09-.2-.24-.32-.36a2,2,0,0,0-1.14-.67,2.43,2.43,0,0,0-.66,0,1.38,1.38,0,0,0-.5.32,4.2,4.2,0,0,0-1.13,1.51c-.31.62-.69,1.2-.94,1.84-.17.42-.35.81-.48,1.24a10.2,10.2,0,0,0-.25,1.34c-.06.36-.1.73-.17,1.09a5.57,5.57,0,0,0,0,1,3.47,3.47,0,0,0,.08.91,2.08,2.08,0,0,0,.44.76,2.83,2.83,0,0,0,1.82.89c.3.06.6.08.9.13a4.94,4.94,0,0,0,.94.12,9.27,9.27,0,0,0,1.18.14,2.24,2.24,0,0,0,.57-.13c.22-.11.39-.29.61-.4l.46-.23a1.55,1.55,0,0,0,.48-.44,2.9,2.9,0,0,0,.35-.49,1.89,1.89,0,0,0,.2-.69,3,3,0,0,0,0-1.19,12.22,12.22,0,0,0-.27-1.34c-.15-.51-.2-1.06-.34-1.58s-.5-.93-.61-1.45a2.44,2.44,0,0,0-.25-.63c-.09-.19-.1-.4-.18-.59a2.82,2.82,0,0,0-.63-1.15"/><path class="cls-6" d="M203.47,338a2.61,2.61,0,0,0-2.83-1.56c-1.48.43-2.33,2.68-2.87,3.9-.89,2-2.06,6.09.35,7.51,2.08,1.24,6.12,1.39,7.39-1.07.76-1.48.12-3.72-.32-5.18a12.55,12.55,0,0,0-1.8-4c-.4-.49-1.1.21-.7.7,1,1.17,1.61,3.74,1.88,5.19.43,2.27-.2,4.25-3,4.15a10.1,10.1,0,0,1-1.45-.19c-2.74-.46-2.53-2.61-2.06-4.79.21-1,2.94-7.59,4.57-4.12.27.57,1.12.07.85-.5Z"/><path class="cls-6" d="M205.93,345.61a2.44,2.44,0,0,1,1-.41c.31-.09.71-.28,1-.35h-.32l-.45-.35v.07c.46.85,1.75.1,1.3-.76s-1.1-.32-1.68-.13a4.59,4.59,0,0,0-1.86.86c-.71.65.35,1.71,1.06,1.06Z"/><path class="cls-6" d="M203.86,348.23c.35.45.94.43,1.42.62a18.42,18.42,0,0,0,1.88.79.75.75,0,0,0,.39-1.44,11.66,11.66,0,0,1-1.5-.64,3.74,3.74,0,0,0-.66-.25c-.14,0-.38,0-.47-.13-.59-.76-1.64.3-1.06,1Z"/><path class="cls-6" d="M200.42,329.45a1.5,1.5,0,0,0-.69.34,3.8,3.8,0,0,0-.7.63,3,3,0,0,0-.46.65,1.53,1.53,0,0,0-.11.47c0,.18-.06.36-.07.54a2.09,2.09,0,0,0,.09.86,5.23,5.23,0,0,0,.49.82,1.65,1.65,0,0,0,.5.58,2.6,2.6,0,0,0,.81.28,2.83,2.83,0,0,0,1.55-.16,2.12,2.12,0,0,0,1-1.32,5.83,5.83,0,0,0,.32-1.8,2,2,0,0,0-.13-.64,2.65,2.65,0,0,0-.15-.57,1.89,1.89,0,0,0-.8-.68,1.36,1.36,0,0,0-.6-.27,2.89,2.89,0,0,0-.72,0l-.36.06a.33.33,0,0,0-.34.13"/><path class="cls-6" d="M200.29,329a3.41,3.41,0,0,0-2.36,3.82,2.94,2.94,0,0,0,3.45,2.32,3.17,3.17,0,0,0,.44-.12c1.72-.6,2.13-3.19,1.65-4.71a2.58,2.58,0,0,0-3.34-1.5,2.09,2.09,0,0,0-.4.19c-.5.4.21,1.09.7.7a3.35,3.35,0,0,1,.71-.07,1.63,1.63,0,0,1,1.44,1.17c.37,1.13-.16,3-1.42,3.3-2.64.54-3-3.55-.61-4.2a.52.52,0,0,0-.26-1Z"/><path class="cls-6" d="M203.56,342.59v-.06a.78.78,0,0,0-.72-.55h-.1l.2,1.47a25.24,25.24,0,0,1,5.06-1.37.72.72,0,0,0,.53-.52v-.06c.2-.93-1.25-1.34-1.44-.39h0l.53-.52a25,25,0,0,0-5.09,1.41.75.75,0,0,0-.51.93.74.74,0,0,0,.71.54h.1l-.72-.55V343a.75.75,0,0,0,1.44-.4Z"/><path class="cls-6" d="M204.39,340.28a4.56,4.56,0,0,0,.82-.49c.17-.11.38-.35.58-.4a.75.75,0,0,0,.52-.53v-.05c.22-.94-1.22-1.33-1.45-.4v.06l.52-.53a2.42,2.42,0,0,0-.74.44,4.81,4.81,0,0,1-.66.45c-.9.33-.51,1.78.4,1.45Z"/><path class="cls-6" d="M206.48,343.05c1.13,0,2.74.94,3.1-.57.28-1.18.53-2.4.75-3.6.11-.54.48-1.48,0-2a5.4,5.4,0,0,0-2.54-.75c-.42-.06-1.2-.24-1.57,0-.18.11-.15.22-.24.37a10.81,10.81,0,0,0-.56,2,20.32,20.32,0,0,0-.65,2.88c-.06.51.73.5.8,0a31.73,31.73,0,0,1,1.06-4.19c.15-.56.07-.44.63-.33s2.08.14,2.43.7c.23.39-.27,1.64-.36,2.11-.14.69-.32,1.37-.46,2.06-.2,1-.17.71-1.17.58a8.67,8.67,0,0,0-1.25-.11.39.39,0,0,0-.33.46.4.4,0,0,0,.33.33Z"/><path class="cls-6" d="M182.91,374.45a9.41,9.41,0,0,0-.15-1.3,6.46,6.46,0,0,0-.29-1.15,8.41,8.41,0,0,0-.47-1.17c-.42-.86-1.21-1.38-2.07-.76a2.19,2.19,0,0,0-.86,2v2.13a13.54,13.54,0,0,1-.29,2.45,7.24,7.24,0,0,1-.35,1.29,10.44,10.44,0,0,0-.41,2c-.08.53-.25,1-.33,1.59a7.62,7.62,0,0,0,0,1.17,9.87,9.87,0,0,0-.1,1.21,9.07,9.07,0,0,0,.25,3.44,6.73,6.73,0,0,0,1.78,2.9,5.62,5.62,0,0,0,1,.63A4.55,4.55,0,0,0,182,391a3.7,3.7,0,0,0,1.15.13c.4-.06.61-.41.91-.64a2.08,2.08,0,0,0,.71-.87c.13-.27.27-.55.38-.82a6,6,0,0,0,.54-2.35v-1.08a10.26,10.26,0,0,0-.12-1.36,20.07,20.07,0,0,0-.48-2.43c-.08-.32-.2-.63-.28-.95a6.82,6.82,0,0,0-.23-1.09,6.72,6.72,0,0,1-.32-.85c-.07-.27-.13-.53-.22-.79a5.12,5.12,0,0,1-.13-.55c0-.18-.17-.48-.26-.73s-.26-.69-.35-1,0-.32-.05-.49a4.28,4.28,0,0,0-.2-.43"/><path class="cls-6" d="M183.4,374.45c-.15-1.92-2.5-8.07-4.62-3.69-.59,1.22-.19,3.39-.34,4.63-.25,2-1,4-1.22,6-.32,2.62-.56,5.43.87,7.77,1.91,3.12,6,3.45,7.48-.07,1.78-4.12-.34-10.7-2.1-14.61-.26-.58-1.11-.07-.85.5,1.44,3.2,5.27,15.73-.63,15.57s-3.78-9.19-3.08-12.47a29.77,29.77,0,0,1,.65-3.87q-.48-2.18,2.43-2.1a8.33,8.33,0,0,1,.42,2.32.5.5,0,0,0,1,0Z"/><path class="cls-6" d="M180.08,363.07c-.4-.08-.84.54-1,.83a4.34,4.34,0,0,0-.44,1.15,1.39,1.39,0,0,0,.25,1.37,2.28,2.28,0,0,0,1.83.6,1.17,1.17,0,0,0,.78-.12,2.45,2.45,0,0,0,.65-.71,2.68,2.68,0,0,0,.09-1.56,3.24,3.24,0,0,0-.86-1.43c-.38-.38-.9-.25-1.4-.25"/><path class="cls-6" d="M180.08,362.58c-1.26,0-2,1.87-2,2.95,0,1.56,1.59,2,2.86,2s2-1.41,1.85-2.62a3.45,3.45,0,0,0-.81-1.79,2.17,2.17,0,0,0-2-.66.5.5,0,1,0,0,1c.48,0,.83-.11,1.21.28a2.28,2.28,0,0,1,.57,1c.17.7,0,1.65-.83,1.77s-1.85-.11-1.87-1c0-.45.43-1.94,1-2a.5.5,0,0,0,0-1Z"/><path class="cls-6" d="M184.28,378.09a2.81,2.81,0,0,1,1.81,0l-.55-.73a13.22,13.22,0,0,1,.16,2.95,17.94,17.94,0,0,1-.37,2.53l1.47.19v-.09c.07-1-1.42-.95-1.5,0V383c-.07.85,1.26,1,1.47.2a21.92,21.92,0,0,0,.4-2.68,14.17,14.17,0,0,0-.14-3.19.78.78,0,0,0-.55-.72,4.31,4.31,0,0,0-3,.19c-.85.45-.09,1.74.76,1.29Z"/><path class="cls-6" d="M178.81,377.33c-.65-.37-1.78-.75-2.2-1.36s0-1.35.11-2.09c.34-1.7.82-3.33,1.29-5a.75.75,0,0,0-.6-.88.76.76,0,0,0-.84.48,36.8,36.8,0,0,0-1.66,6.87c-.16,1.84,1.78,2.48,3.15,3.26.83.47,1.59-.82.75-1.29Z"/><path class="cls-6" d="M181.88,391.44c.05,1.05.32,2.07.39,3.12.06.86.13,1.7.27,2.54s1.6.55,1.44-.39a21.24,21.24,0,0,1-.23-2.52c-.05-.84-.33-1.83-.37-2.75S181.83,390.44,181.88,391.44Z"/><path class="cls-6" d="M179.46,391.18a6.72,6.72,0,0,1-.39,1.25c-.11.46-.22.88-.36,1.33-.35,1.09-.5,2.21-.82,3.3-.27.92,1.16,1.31,1.45.39l.07-.22c.29-.92-1.16-1.31-1.45-.4l-.07.23,1.45.39c.34-1.18.54-2.39.91-3.57a12.08,12.08,0,0,0,.71-2.7c.06-1-1.44-1-1.5,0Z"/><path class="cls-6" d="M201.43,241.45a9.42,9.42,0,0,0-.14-1.29A6.79,6.79,0,0,0,201,239a8.46,8.46,0,0,0-.48-1.17c-.42-.86-1.21-1.38-2.07-.77a2.22,2.22,0,0,0-.86,2v2.14a13.53,13.53,0,0,1-.28,2.45A8.81,8.81,0,0,1,197,245a10.44,10.44,0,0,0-.41,2c-.09.53-.25,1.06-.33,1.59a5.78,5.78,0,0,0,0,1.18,9.71,9.71,0,0,0-.11,1.21,9.28,9.28,0,0,0,.26,3.44,6.64,6.64,0,0,0,1.78,2.89,6.53,6.53,0,0,0,1,.64,5.37,5.37,0,0,0,1.38.16,4.38,4.38,0,0,0,1.14.12c.41,0,.62-.4.92-.64a2.19,2.19,0,0,0,.71-.86c.13-.27.27-.55.38-.83a6.16,6.16,0,0,0,.54-2.35v-1.08a10.26,10.26,0,0,0-.12-1.36,20,20,0,0,0-.49-2.42c-.07-.33-.19-.64-.27-1a8.12,8.12,0,0,0-.23-1.09,6.72,6.72,0,0,1-.32-.85c-.07-.27-.14-.52-.23-.79s-.07-.37-.12-.54-.18-.49-.26-.74-.27-.68-.35-1v-.48c0-.16-.14-.29-.2-.43"/><path class="cls-6" d="M201.93,241.45c-.15-1.91-2.5-8.06-4.63-3.68-.59,1.21-.18,3.38-.33,4.63-.25,2-1,4-1.23,6-.31,2.61-.55,5.42.88,7.76,1.9,3.13,6,3.45,7.48-.07,1.78-4.11-.34-10.7-2.1-14.6-.26-.58-1.12-.08-.86.5,1.45,3.19,5.28,15.72-.62,15.56s-3.78-9.18-3.08-12.46a26.72,26.72,0,0,1,.65-3.87q-.5-2.19,2.43-2.1a8.64,8.64,0,0,1,.42,2.31.5.5,0,0,0,1,0Z"/><path class="cls-6" d="M198.61,230.08c-.4-.08-.84.53-1,.83a3.6,3.6,0,0,0-.44,1.14,1.39,1.39,0,0,0,.25,1.37,2.28,2.28,0,0,0,1.83.6,1.23,1.23,0,0,0,.78-.11,2.49,2.49,0,0,0,.65-.72,2.76,2.76,0,0,0,.09-1.56,3.33,3.33,0,0,0-.86-1.43c-.38-.38-.9-.25-1.41-.25"/><path class="cls-6" d="M198.61,229.58c-1.27,0-2,1.88-2,3,0,1.55,1.59,2,2.86,2s2-1.4,1.85-2.62a3.32,3.32,0,0,0-.82-1.78,2.11,2.11,0,0,0-2-.66.5.5,0,0,0,0,1c.63,0,.84-.11,1.22.27a2.28,2.28,0,0,1,.57,1c.17.71,0,1.65-.83,1.77s-1.85-.11-1.87-1c0-.46.42-2,1-2a.5.5,0,0,0,0-1Z"/><path class="cls-6" d="M202.8,245.1a2.84,2.84,0,0,1,1.82,0l-.55-.72a13.78,13.78,0,0,1,.16,2.94,19.52,19.52,0,0,1-.37,2.53l1.47.2V250c.07-1-1.43-1-1.5,0v0c-.06.85,1.27,1,1.47.2a20.16,20.16,0,0,0,.41-2.68,14.17,14.17,0,0,0-.14-3.19.78.78,0,0,0-.55-.72,4.26,4.26,0,0,0-3,.18c-.85.45-.1,1.75.75,1.3Z"/><path class="cls-6" d="M197.34,244.33c-.65-.37-1.78-.75-2.2-1.35s0-1.35.11-2.1c.33-1.7.81-3.33,1.29-5a.75.75,0,0,0-1.45-.4,37.88,37.88,0,0,0-1.65,6.88c-.16,1.83,1.77,2.48,3.14,3.25a.75.75,0,0,0,.76-1.29Z"/><path class="cls-6" d="M200.41,258.44c0,1,.32,2.07.39,3.12a24.22,24.22,0,0,0,.27,2.55c.15.95,1.59.54,1.44-.4a23.58,23.58,0,0,1-.23-2.52c-.05-.84-.33-1.82-.38-2.75S200.36,257.44,200.41,258.44Z"/><path class="cls-6" d="M198,258.19a8.92,8.92,0,0,1-.39,1.24c-.12.46-.22.89-.37,1.34-.34,1.08-.49,2.2-.81,3.29a.75.75,0,0,0,.6.88.76.76,0,0,0,.84-.48l.07-.23c.29-.92-1.15-1.31-1.44-.39l-.07.22,1.44.4c.35-1.19.55-2.4.92-3.58a13.17,13.17,0,0,0,.71-2.69c.05-1-1.44-1-1.5,0Z"/><path class="cls-6" d="M177.33,238.54a8.1,8.1,0,0,1,.16-1.3,5.8,5.8,0,0,1,.33-1.15,8.75,8.75,0,0,1,.53-1.17,1.58,1.58,0,0,1,2-.92,1.82,1.82,0,0,1,.31.16,2.1,2.1,0,0,1,1,2v2.13a11.83,11.83,0,0,0,.32,2.45,7.37,7.37,0,0,0,.39,1.29,9.86,9.86,0,0,1,.47,2c.09.53.27,1,.37,1.59a7.62,7.62,0,0,1,0,1.17,12.09,12.09,0,0,1,.12,1.21,8,8,0,0,1-.28,3.44,5.18,5.18,0,0,1-3.18,3.53,5.8,5.8,0,0,1-1.55.16,4.61,4.61,0,0,1-1.28.13c-.46-.06-.7-.4-1-.64a2.14,2.14,0,0,1-.79-.87c-.15-.27-.3-.55-.43-.82a5.49,5.49,0,0,1-.6-2.35V249.5a7.73,7.73,0,0,1,.12-1.36,20.35,20.35,0,0,1,.56-2.43c.08-.32.22-.63.3-1a8.22,8.22,0,0,1,.26-1.09,5.29,5.29,0,0,0,.36-.85,7.3,7.3,0,0,1,.26-.79c.06-.17.08-.37.14-.55s.19-.48.29-.73.3-.69.4-1,0-.32,0-.49.16-.28.22-.43"/><path class="cls-6" d="M177.82,238.54c-.13-1.77,1-2.56,3.33-2.35v2.13a21.4,21.4,0,0,0,.73,3.88,32.61,32.61,0,0,1,.88,4.61c.29,3,.18,5-2.51,6.65-6.26,4-5.73-4.73-4.58-8.55a36.09,36.09,0,0,1,1.93-5.82c.29-.56-.57-1.06-.86-.5-1.9,3.75-4.35,10.57-2.36,14.61s7.17,2.81,8.88-1c1.07-2.34.64-5,.23-7.52-.3-1.77-1-3.45-1.2-5.23-.17-1.28.2-3-.26-4.27a2.24,2.24,0,0,0-2.71-1.66,2.3,2.3,0,0,0-.5.18c-1.5.73-1.86,3.35-2,4.81a.5.5,0,0,0,1,0Z"/><path class="cls-6" d="M180.5,227.16c.46-.08,1,.54,1.15.83a3.69,3.69,0,0,1,.5,1.15,1.27,1.27,0,0,1-.28,1.37,2.81,2.81,0,0,1-2.07.6,1.44,1.44,0,0,1-.87-.12,2.6,2.6,0,0,1-.73-.71,2.39,2.39,0,0,1-.1-1.56,3.14,3.14,0,0,1,1-1.43c.42-.38,1-.25,1.58-.25"/><path class="cls-6" d="M180.5,227.66c.66,0,1.18,1.29,1.21,1.79.06,1.11-1.3,1.21-2.14,1.17s-1.2-1-1-1.77a2.07,2.07,0,0,1,.84-1.17,2,2,0,0,1,1.23-.15.5.5,0,0,0,0-1,2.64,2.64,0,0,0-1.93.4,3.36,3.36,0,0,0-1.15,1.92,2.19,2.19,0,0,0,1.58,2.68,1.94,1.94,0,0,0,.42.07c1.29,0,3.18-.33,3.16-2,0-1.13-.93-3-2.23-3a.5.5,0,0,0,0,1Z"/><path class="cls-6" d="M176.61,240.85a5.22,5.22,0,0,0-3.31-.19.84.84,0,0,0-.58.76,13.2,13.2,0,0,0-.16,3.2,18.66,18.66,0,0,0,.46,2.69c.24.82,1.64.71,1.56-.21V247c-.09-1-1.68-1-1.59,0v.1l1.56-.22a16.55,16.55,0,0,1-.41-2.52,12.08,12.08,0,0,1,.17-2.94l-.58.77a3.87,3.87,0,0,1,2.08,0c.92.43,1.72-.93.8-1.37Z"/><path class="cls-6" d="M182.76,242.75c1.43-.72,3.72-1.36,3.51-3.3a34.14,34.14,0,0,0-1.86-6.88.79.79,0,0,0-1.53.42,51,51,0,0,1,1.45,5c.16.73.53,1.48.14,2s-1.86,1-2.51,1.36c-.91.46-.11,1.83.8,1.37Z"/><path class="cls-6" d="M176.85,255.53c-.06.93-.36,1.82-.42,2.75a20.81,20.81,0,0,1-.27,2.5c-.18,1,1.35,1.43,1.53.43a24.5,24.5,0,0,0,.31-2.56c.07-1.06.37-2.07.43-3.12S176.91,254.53,176.85,255.53Z"/><path class="cls-6" d="M179.57,255.27a10.68,10.68,0,0,0,.77,2.66c.44,1.19.66,2.43,1,3.63l1.53-.43-.08-.22c-.34-1-1.87-.54-1.53.42l.08.23c.34,1,1.85.55,1.53-.43s-.52-2.21-.91-3.29c-.15-.39-.27-.78-.38-1.18a11.41,11.41,0,0,1-.48-1.39c-.06-1-1.65-1-1.58,0Z"/><path class="cls-6" d="M177.93,355.46c.39.87,1.19,3.52,2.44,3.45a.76.76,0,0,0,.72-.55c.15-.88.61-1.75.69-2.63,0-.07.2-1-.1-.54-.15.23-.13.11.24.09a4.14,4.14,0,0,0,2.67-1.94c1.69-2.76-.44-5.46-3.19-6.12s-6.23.28-7.44,3.13c-1.37,3.25,1.74,5,4.43,5.33.91.11.9-1.18.2-1.47l-.19-.08c-.89-.36-1.27,1.08-.39,1.45l.18.07.2-1.47c-1-.11-2.63-.43-3-1.52-.58-1.67.74-3.22,2.17-3.76,1.85-.71,5.85-.53,6.13,2.13a2.71,2.71,0,0,1-1.69,2.56c-.33.14-1,.16-1.26.45-.7.76-.94,3-1.09,3.93l.72-.55q.67.56.15-.24a9.48,9.48,0,0,0-.52-1c-.25-.5-.55-1-.78-1.49-.39-.87-1.68-.11-1.29.76Z"/><path class="cls-6" d="M153.5,315.67c-.19-.25-.57.25-.69.37s-.15.08-.22.15a.78.78,0,0,0-.14.29,2.06,2.06,0,0,0-.21.48,1.93,1.93,0,0,0,0,.34,3.14,3.14,0,0,1-.08.4c0,.14-.12.39-.15.59a4.84,4.84,0,0,1-.23,1c-.11.3-.26.61-.36.92a13.39,13.39,0,0,0-.45,1.87,7.88,7.88,0,0,0,0,1.19,8.18,8.18,0,0,0,.06,1.21,4.79,4.79,0,0,0,.2,1,5.19,5.19,0,0,0,.42.77,1.32,1.32,0,0,0,.47.47c.12.07.25.17.37.23a3.11,3.11,0,0,0,.67.16,3.55,3.55,0,0,0,3.06-.54c.1-.08.18-.18.28-.26s.22-.12.32-.21a2.62,2.62,0,0,0,.55-.6,4.89,4.89,0,0,0,.51-1.28,7.27,7.27,0,0,0,0-1.32,4.25,4.25,0,0,0-.24-1.37,9,9,0,0,0-.45-1c-.1-.2-.2-.41-.3-.6s-.19-.41-.29-.62c-.37-.82-.46-1.75-.88-2.54a3.2,3.2,0,0,0-.94-1.13,1,1,0,0,0-.56-.22h-.31c-.1,0-.21.17-.3.15v-.07"/><path class="cls-6" d="M153.63,315.19a1.6,1.6,0,0,0-1.61,1,8.19,8.19,0,0,0-.54,2.18c-.23.87-.59,1.69-.8,2.57-.65,2.69-.39,6.54,3.08,6.74,3.19.18,5.1-2.69,4.51-5.65a10.28,10.28,0,0,0-1-2.37,23,23,0,0,0-1.37-3.47c-.58-.88-1.42-1.54-2.46-1.12l.61.34v-.07c-.11-.62-1.07-.36-1,.27v.06a.5.5,0,0,0,.61.35c1.36-.54,2.55,3.63,3,4.74.7,1.65,1.12,3.82-.52,5.08-1.41,1.09-3.66,1.27-4.53-.65s.08-4.23.63-6.08c.09-.31.43-3.11,1-3s.89-.85.26-.95Z"/><path class="cls-6" d="M153.12,309.5c-.16,0-.42.34-.52.45a1.76,1.76,0,0,0-.36.58A2.16,2.16,0,0,0,152,312a2.57,2.57,0,0,0,.23.6,1.41,1.41,0,0,0,.77.47,1.92,1.92,0,0,0,1.31.17c1-.32,1.13-1.5,1.09-2.35a1.35,1.35,0,0,0-.3-.64,1.54,1.54,0,0,0-.74-.64,2.46,2.46,0,0,0-1.07-.24"/><path class="cls-6" d="M153,309a3,3,0,0,0-1.54,2.83,2.36,2.36,0,0,0,2.76,1.9c1.19-.21,1.63-1.45,1.67-2.52a2.49,2.49,0,0,0-2.59-2.38h0a.5.5,0,0,0,0,1,1.48,1.48,0,0,1,1.62,1.39c0,.52-.16,1.33-.73,1.52a1.41,1.41,0,0,1-1.71-1l0-.18c0-.4.39-1.45.84-1.59a.52.52,0,0,0-.27-1Z"/><path class="cls-12" d="M153.12,327.17h0c-.1.08,0,.17-.06.27a.6.6,0,0,0-.08.28v.82c0,.27-.08.52-.08.8a2.41,2.41,0,0,1,0,.38c0,.17-.12.31-.06.49.07,0,.09-.15.13-.21"/><path class="cls-6" d="M153.85,327V327c-.2-.52-1.09-.83-1.37-.18a4,4,0,0,0-.23,1.64c0,.59-.19,1.2-.14,1.78a.76.76,0,0,0,1.28.53,1.78,1.78,0,0,0,.25-.36c.4-.87-.89-1.63-1.29-.76v.06l1.28.53a9.11,9.11,0,0,1,.12-1.47v-.82c0-.06.18-.68,0-.37l-1.37-.18v0c.34.89,1.78.51,1.45-.4Z"/><path class="cls-12" d="M156.13,326.57a1.05,1.05,0,0,0,.08.35,4.56,4.56,0,0,0,.13.53c.1.31.25.61.34.92a8.74,8.74,0,0,1,.26.89c.05.29,0,.4.15.59h0"/><path class="cls-6" d="M155.38,326.57a10.34,10.34,0,0,0,.54,1.88,8.48,8.48,0,0,0,.53,1.78.75.75,0,0,0,1.36-.18V330c.31-.91-1.13-1.31-1.44-.4v0l1.37-.18c-.1-.15-.08-.45-.13-.63s-.16-.53-.25-.79a8.52,8.52,0,0,1-.48-1.48c-.12-.94-1.62-1-1.5,0Z"/><path class="cls-12" d="M156.81,319.12a.16.16,0,0,1-.06.13c-.09-.22.24-.67.34-.86a12.14,12.14,0,0,0,.55-1.53c.06-.18.16-.35.23-.54s.09-.38.16-.56.25-.4.24-.54a.19.19,0,0,1-.11.07"/><path class="cls-6" d="M156.16,318.75l-.06.12,1.4.38c0-.18.21-.43.3-.6a8.09,8.09,0,0,0,.4-1.07c.22-.73.62-1.43.79-2.16a.75.75,0,0,0-.54-.92.73.73,0,0,0-.56.08l-.11.06c-.8.53-.05,1.82.76,1.29l.1-.06-1.1-.85c-.25.82-.54,1.63-.87,2.42-.19.58-.72,1.17-.67,1.81s1,1.11,1.39.38l.06-.13c.41-.86-.88-1.63-1.29-.75Z"/><path class="cls-12" d="M151,320.93a2.62,2.62,0,0,0-.45.6,4.9,4.9,0,0,1-.68.94,3,3,0,0,0-.45.67,3,3,0,0,0-.31.55v-.05"/><path class="cls-6" d="M150.49,320.4c-.46.48-.75,1.09-1.18,1.61a5.34,5.34,0,0,0-.9,1.48l1.47.2v-.05c.1-1-1.39-.95-1.5,0v.05a.74.74,0,0,0,1.46.2,4.46,4.46,0,0,1,.76-1.11c.35-.42.57-.93.94-1.32.66-.7-.39-1.76-1.06-1.06Z"/><path class="cls-6" d="M216,293.69c.21-.24.64.26.77.38s.17.08.24.15a1.38,1.38,0,0,1,.17.29,2.65,2.65,0,0,1,.23.48,1.93,1.93,0,0,1,0,.34,3.24,3.24,0,0,0,.09.4c0,.14.13.39.17.59a4.29,4.29,0,0,0,.24,1c.13.3.3.61.41.92a12,12,0,0,1,.5,1.87,7.88,7.88,0,0,1,0,1.19,7,7,0,0,1-.07,1.21,4.26,4.26,0,0,1-.22,1,4.66,4.66,0,0,1-.47.77,1.38,1.38,0,0,1-.52.47c-.13.07-.27.17-.41.23a3.76,3.76,0,0,1-.74.16,4.35,4.35,0,0,1-3.41-.54c-.11-.08-.2-.18-.31-.26s-.24-.12-.36-.21a2.89,2.89,0,0,1-.61-.6,4.7,4.7,0,0,1-.56-1.28,5.83,5.83,0,0,1,0-1.32,3.81,3.81,0,0,1,.28-1.37,7.18,7.18,0,0,1,.5-1c.11-.2.21-.41.33-.6a5.12,5.12,0,0,0,.31-.62c.42-.82.52-1.75,1-2.54a3.39,3.39,0,0,1,1-1.13,1.17,1.17,0,0,1,.63-.22h.34c.11,0,.23.17.34.15v-.07"/><path class="cls-6" d="M216.16,294.17c.8-.12,1.19,2.88,1.34,3.31.65,1.81,1.92,5.39-.15,6.84a4.15,4.15,0,0,1-4.66-.61c-1.36-1.46-1.1-3.21-.31-4.88.62-1.29,1.67-5.36,3.42-4.74a.5.5,0,0,0,.61-.35v-.06a.52.52,0,0,0-1-.27v.07l.61-.34a2.22,2.22,0,0,0-2.58,1,8.47,8.47,0,0,0-1.1,2.5c-.38,1-1,1.84-1.41,2.83a4.62,4.62,0,0,0,4.77,6.32c3.33-.22,4.06-3.21,3.52-6.11a24.54,24.54,0,0,0-1-3c-.2-.62-.18-1.34-.42-1.94a2,2,0,0,0-2-1.52c-.63.09-.36,1,.26.95Z"/><path class="cls-6" d="M216.45,287.53c.19,0,.47.34.59.45a2.31,2.31,0,0,1,.4.58,2,2,0,0,1,.29,1.45,2.3,2.3,0,0,1-.27.6,1.54,1.54,0,0,1-.84.47,2.39,2.39,0,0,1-1.47.17c-1.06-.32-1.25-1.5-1.21-2.35a1.33,1.33,0,0,1,.34-.64,1.58,1.58,0,0,1,.82-.64,3,3,0,0,1,1.18-.24"/><path class="cls-6" d="M216.32,288a2,2,0,0,1,.94,1.69c0,.84-1.38,1.34-2.1,1a1.56,1.56,0,0,1-.73-1.49c0-1,1-1.32,1.85-1.36a.5.5,0,1,0,0-1c-1.25.05-2.78.74-2.84,2.18a2.49,2.49,0,0,0,1.7,2.69,2.6,2.6,0,0,0,3.09-1.71,2.92,2.92,0,0,0-1.65-3,.52.52,0,1,0-.26,1Z"/><path class="cls-12" d="M216.45,305.2h0c.1.08,0,.17.06.27a.61.61,0,0,1,.09.28v.81c0,.26.08.53.08.81a2.41,2.41,0,0,0,0,.38c0,.17.13.31.07.49-.08,0-.1-.15-.15-.21"/><path class="cls-6" d="M217.21,305.41h0l-1.44.19c0-.05-.07-.36-.05-.13s.05.23.08.35v.85c0,.29.07.53.07.8s.09.53.07.77l1.35-.56h0c-.47-.9-1.83-.1-1.36.8a1.41,1.41,0,0,0,.27.37.8.8,0,0,0,1.13,0,.79.79,0,0,0,.22-.53c0-.61-.16-1.26-.16-1.88a2.79,2.79,0,0,0-.25-1.56.81.81,0,0,0-1.1-.25.83.83,0,0,0-.34.44v0a.8.8,0,0,0,.54,1h0a.81.81,0,0,0,1-.55Z"/><path class="cls-12" d="M213.11,304.6a1.06,1.06,0,0,1-.09.35,1.67,1.67,0,0,1-.14.53c-.06.17-.28.61-.38.92s-.23.6-.3.89,0,.4-.16.59h0"/><path class="cls-6" d="M212.35,304.39a6.63,6.63,0,0,1-.51,1.52c-.11.27-.21.55-.3.83a3.2,3.2,0,0,1-.18.74l1.44.19h0c-.35-.94-1.88-.53-1.52.42v.05a.8.8,0,0,0,1,.53.83.83,0,0,0,.44-.34,1.85,1.85,0,0,0,.25-.76,5.82,5.82,0,0,1,.32-1,8,8,0,0,0,.58-1.71.82.82,0,0,0-.55-1,.79.79,0,0,0-1,.52v0Z"/><path class="cls-12" d="M212.35,297.15a.15.15,0,0,0,.07.13c.09-.22-.27-.67-.38-.86a10.16,10.16,0,0,1-.61-1.53c-.07-.18-.17-.35-.25-.54s-.1-.38-.18-.56-.29-.4-.27-.54a.19.19,0,0,0,.12.07"/><path class="cls-6" d="M211.67,297.55l.07.13c.39.75,1.4.32,1.47-.4s-.57-1.34-.79-1.95c-.13-.38-.28-.74-.43-1.11a10.18,10.18,0,0,1-.5-1.18l-1.15.89.11.07a.79.79,0,0,0,.8-1.36l-.12-.07a.8.8,0,0,0-1.16.89c.18.69.6,1.35.84,2a10.23,10.23,0,0,0,.42,1.09c.08.16.42.53.4.7l1.47-.4-.07-.12c-.47-.9-1.83-.11-1.36.79Z"/><path class="cls-12" d="M218.79,299a2.22,2.22,0,0,1,.5.6,4.89,4.89,0,0,0,.76.94,3.65,3.65,0,0,1,.5.67,2.4,2.4,0,0,1,.34.55v-.05"/><path class="cls-6" d="M218.23,299.52a15.83,15.83,0,0,1,1,1.29,5.12,5.12,0,0,1,1,1.31.8.8,0,0,0,1.47-.4v-.05a.81.81,0,0,0-.79-.79.79.79,0,0,0-.79.79v.05l1.47-.4a5.77,5.77,0,0,0-1.09-1.5c-.42-.45-.68-1-1.13-1.42-.74-.69-1.86.42-1.12,1.12Z"/><path class="cls-6" d="M166.92,297.2c.4.38.8.72,1.17,1.13.18.19.34.4.51.61a4.9,4.9,0,0,0,.4.38l-.12-.44V299a.88.88,0,0,0,1.76,0c0-.67-.63-1.07-1-1.55a15.47,15.47,0,0,0-1.47-1.45c-.83-.77-2.08.47-1.25,1.24Z"/><path class="cls-6" d="M161.19,269.41a1.15,1.15,0,0,1-.36.07,1.67,1.67,0,0,0-.57.23,2,2,0,0,0-.93,1,3.17,3.17,0,0,0-.16,1.75,1.66,1.66,0,0,0,1,1.3,2.22,2.22,0,0,0,1.44,0,3.45,3.45,0,0,0,.8-.38,1.81,1.81,0,0,0,.66-.5,4,4,0,0,0,.67-1.43,1.61,1.61,0,0,0,0-1.06,1.21,1.21,0,0,0-.28-.39,2.91,2.91,0,0,0-.42-.25,1.65,1.65,0,0,0-.77-.29h-.37c-.12,0-.22-.11-.33-.13h-.67"/><path class="cls-6" d="M161.05,268.93a3,3,0,0,0-2.43,3.25,2.34,2.34,0,0,0,2.46,2.2,2.53,2.53,0,0,0,.81-.2,3.55,3.55,0,0,0,2.42-3.61c-.24-1.45-2.21-1.79-3.41-1.76a.5.5,0,0,0,0,1,3.87,3.87,0,0,1,2,.42c1,.81,0,2.36-.86,2.8-1.14.6-2.45.34-2.44-1.16a2,2,0,0,1,1.72-2,.52.52,0,0,0,.37-.63.53.53,0,0,0-.64-.37Z"/><path class="cls-6" d="M162.72,278.65v-.06a1.51,1.51,0,0,0-.52,0,1.86,1.86,0,0,0-.8.2,3.92,3.92,0,0,0-1.86,1.55,7.14,7.14,0,0,0-.87,3.41,19.78,19.78,0,0,0,.27,4.61,13.53,13.53,0,0,0,.72,2.58c.17.4.27.81.46,1.2s.48.84.72,1.24a7,7,0,0,0,.63,1,4.17,4.17,0,0,0,.67.59c.38.28.85.4,1.25.64a3.91,3.91,0,0,0,.92.39,5.32,5.32,0,0,0,1.18.27,3.44,3.44,0,0,0,2.29-.69,6.91,6.91,0,0,0,.86-.85,1.35,1.35,0,0,0,.3-.61,2.58,2.58,0,0,0,.16-.87c0-.14.16-.56,0-.59"/><path class="cls-6" d="M163.19,278.52v-.07a.51.51,0,0,0-.48-.36c-7.08-.17-4.46,11.69-2.49,15.22,1.14,2.05,3.69,3.89,6.21,3.4,1.81-.35,3.61-2.21,3.13-4.17-.15-.62-1.1-.35-.95.27.09,1.76-1.31,2.67-4.18,2.72a5.43,5.43,0,0,1-3.17-2.42,10.8,10.8,0,0,1-1.43-3.17,16.7,16.7,0,0,1-.68-3.9v-2.31a4.77,4.77,0,0,1,3.1-5c.13.62,1.08.36.95-.26Z"/><path class="cls-6" d="M162.71,277.88h-.07a.9.9,0,0,0-.39,1.47c1.32,1.66,1.67,4.83,2.45,6.85a16.64,16.64,0,0,0,1.3,2.85c.67,1.07,2.16,2.58,2.32,3.85.14,1.11,1.9,1.13,1.76,0a8,8,0,0,0-1.73-3.5,21.78,21.78,0,0,1-2.3-4.51c-.86-2.23-1.07-4.87-2.58-6.77l-.39,1.47h.07c1.11-.24.64-1.94-.47-1.7Z"/><path class="cls-6" d="M168.94,294.35a6.84,6.84,0,0,0,1.72.46c.6.17,1.17.41,1.77.56l-.61-.61v.06c.2,1.12,1.9.65,1.7-.46v-.07a.87.87,0,0,0-.62-.61c-.57-.15-1.1-.37-1.67-.53a7.6,7.6,0,0,0-.83-.16,2,2,0,0,1-.4-.12c-.14,0-.44-.18-.17,0-1-.54-1.89,1-.89,1.52Z"/><path class="cls-6" d="M163.6,282.33c0,.74.53,1,1.11,1.33s1.27,1,1.95.91.77-.88,1.17-1.39c.22-.28.43-.59.66-.86a2,2,0,0,0,.59-.83.88.88,0,1,0-1.7-.47c0-.16.18-.17,0,0a1,1,0,0,0-.22.19c-.21.23-.36.52-.56.77a4,4,0,0,0-.52.71,1.42,1.42,0,0,0-.14.36c0,.3-.13.08.17-.07l.68-.08a5.26,5.26,0,0,1-.9-.57l-.4-.21c-.38-.18-.13-.19-.12.25a.88.88,0,0,0-1.76,0Z"/><text class="cls-13" transform="translate(82.72 90.8)"><tspan class="cls-14">T</tspan><tspan x="51.76" y="0">ru</tspan><tspan class="cls-15" x="147.12" y="0">s</tspan><tspan class="cls-16" x="194" y="0">t</tspan></text></g></g></svg>