<svg xmlns="http://www.w3.org/2000/svg" viewBox="0 0 1199.68 346.12"><title>clouds home page_1</title><path d="M447.55,45c.14,119.84-96.89,217.12-216.74,217.26A216,216,0,0,1,97.49,216.67,217.3,217.3,0,0,1,18,1.5h7.29L24.65,1,442.93.5c0,.17.07.33.1.5A216.78,216.78,0,0,1,447.55,45Z" fill="#fff"/><path d="M1199.66.23l0,15.29A326.66,326.66,0,0,1,1158,113.23a330.73,330.73,0,0,1-94.46,97,327.37,327.37,0,0,1-183.08,55.87C720.5,266.3,587.05,152.28,557.29,1Z" fill="#fff"/><path d="M1199.66,156.12v47.74a73,73,0,1,1,0-47.74Z" fill="#fff"/><path d="M103.69,164.4a210.86,210.86,0,0,1-6.2,51.27A211.39,211.39,0,0,1,.91,345.82l-.5.3L0,0,18.07,0c0,.17-.07.33-.1.5h7.29A210.54,210.54,0,0,1,103.69,164.4Z" fill="#fff"/></svg>