<svg xmlns="http://www.w3.org/2000/svg" viewBox="0 0 1200.02 347.52"><title>clouds home page</title><path d="M447.55,45.39c.14,119.84-96.89,217.12-216.74,217.26A216,216,0,0,1,97.49,217.07,217.3,217.3,0,0,1,18,1.9h7.29l-.61-.5L442.93.9c0,.17.07.33.1.5A216.78,216.78,0,0,1,447.55,45.39Z" fill="#fff"/><path d="M1200,0l0,15.29A326.42,326.42,0,0,1,1158.35,113a330.57,330.57,0,0,1-94.45,97,327.48,327.48,0,0,1-183.09,55.87c-160,.19-293.42-113.83-323.18-265.12Z" fill="#fff"/><path d="M1199.66,157.52v47.74a73,73,0,1,1,0-47.74Z" fill="#fff"/><path d="M103.69,165.8a210.86,210.86,0,0,1-6.2,51.27A211.37,211.37,0,0,1,.91,347.22l-.5.3L0,1.42l18.07,0c0,.17-.07.33-.1.5h7.29A210.55,210.55,0,0,1,103.69,165.8Z" fill="#fff"/></svg>