<svg xmlns="http://www.w3.org/2000/svg" viewBox="0 0 301 284"><title>Green garden </title><rect width="301" height="284" fill="#f4f0ea"/><path d="M272.64,36.63a1.27,1.27,0,0,1,.13-.94c.22-.35.3-.23.31.46,0,1-.16,1.2-.44.48m-.18,2.77c-.53-.53-.49-.94.08-.94s1,.91.58,1.17c-.15.09-.44,0-.66-.23m-.2,2.23c-.56-.78-.57-.87-.08-.68.31.12.57.07.57-.11a.36.36,0,0,1,.37-.33c.28,0,.28.12,0,.44-.44.54-.1,1.14.79,1.36.56.14.53.18-.17.2a1.8,1.8,0,0,1-1.5-.88m.1,2.41c-.41-.52-.38-.55.22-.35s.65.22.05-.25-.53-.49.59-.43a4.25,4.25,0,0,1,1.22.15A7.26,7.26,0,0,1,273,44.61a2.21,2.21,0,0,1-.6-.57m-3,2.58a.3.3,0,0,1,.31-.3,3,3,0,0,0,.85-.21c.29-.11.53,0,.53.14s-.38.41-.84.5-.85,0-.85-.13M264.3,57c-.42-.79-.44-1.05-.1-1.05s1.11,1.32.77,1.53c-.17.11-.47-.11-.67-.48m-6,55.16a.68.68,0,0,1,.65,0c.27.11.19.19-.21.2s-.56-.06-.44-.18m13.44-53.25c0-.32-.33-.4-1.1-.28-1.06.17-1.07.18-.25.42,1.25.37,1.35.36,1.35-.14m4.4,5c0-.08-.24-.15-.53-.15s-.43.16-.31.35.84.16.84-.2m4.08,3.78c1.25-.66,1.25-.77,0-.58-.55.08-.93.27-.84.43s-.17.34-.59.43-.59.16-.16.19a4,4,0,0,0,1.61-.47M265,69.9a.57.57,0,0,0-1-.28c-.46.73-.36.93.38.74.37-.1.67-.31.67-.46m1.27.62c-.16-.49-.7-.43-.87.08-.06.19.14.34.45.34s.5-.19.42-.42m1.95.42c.11-.18.05-.34-.13-.34a.77.77,0,0,0-.55.34c-.11.19-.06.35.13.35a.75.75,0,0,0,.55-.35m13.36,1.37a.35.35,0,0,0-.36-.34c-.19,0-.26.15-.14.34.26.44.5.44.5,0m-13.7,2c-.27-.44-.51-.44-.51,0a.35.35,0,0,0,.36.34c.2,0,.26-.15.15-.34m-1.67.66c.34-.57-.44-1.23-.91-.76a.66.66,0,0,0,.38,1.13.8.8,0,0,0,.53-.37m-3.91,4.47c.41-.27.36-.33-.26-.33-.42,0-.76.14-.76.33,0,.43.36.43,1,0m21,.34a.34.34,0,1,0-.67,0,.34.34,0,1,0,.67,0m-19.62,4.11c-.42-.28-.39-.34.17-.34s.58-.07.18-.33a.73.73,0,0,0-.9,0c-.25.21-.48.22-.6,0s0-.41.31-.52a.8.8,0,0,0,.5-.64c0-.29-.09-.31-.26-.07-.37.55-1.38.85-1.61.47a.39.39,0,0,0-.52-.14c-.17.11-.32,0-.32-.16s-.34-.32-.76-.27-.75-.09-.71-.52a.5.5,0,0,0-.51-.59c-2.5,0-.8,2.27,2.21,2.93,2.55.55,3.52.6,2.82.14M262,88.15a.66.66,0,0,0-.65,0c-.11.11.09.19.45.18s.47-.1.2-.21m32.08,1.24c0-.6-1.05-1.5-1.3-1.12a2.09,2.09,0,0,1-.81.56c-1.06.39-.63.92.76.92.74,0,1.35-.16,1.35-.36m-33.88,1.76c.61-.39.14-1.17-.54-.9a1.88,1.88,0,0,1-1.36-.35,2.14,2.14,0,0,0-1.68-.33c-1,.26-.83.51,1,1.25,1.7.69,1.95.72,2.55.33m-.46,1.68c-.27-.44-.51-.44-.51,0a.35.35,0,0,0,.36.34c.2,0,.26-.15.15-.34M258,97.62c.12-.19,0-.25-.31-.13-.59.22-.7.47-.21.47a.7.7,0,0,0,.52-.34M291.13,99c.33-.33-.33-.35-2.23-.06-.14,0-.25.2-.25.4,0,.44,2,.17,2.48-.34m-34.71,1.29c.29-.29.51-.3.84,0s.75.22,1.59-.19c.63-.31,1-.62.74-.69a1.13,1.13,0,0,0-.92.3c-.42.35-.58.35-.79,0s-.57-.35-1.72,0-1.34.48-1,.71c.63.4.77.39,1.24-.08m5.5.37c0-.2-.16-.26-.34-.15-.43.27-.43.52,0,.52a.36.36,0,0,0,.34-.37m-1.53.37c.12-.19-.13-.34-.57-.34-.63,0-.68.07-.27.34.63.41.59.41.84,0m26.4,1.36c-.27-.43-.51-.43-.51,0a.36.36,0,0,0,.36.35c.2,0,.26-.16.15-.35m-27.92.56c0-.08-.3-.21-.68-.31s-.59,0-.48.13,1.16.45,1.16.18m27.75.47c0-.19-.23-.34-.51-.34s-.51.15-.51.34.23.34.51.34.51-.15.51-.34m-14.38.69c.11-.2,0-.25-.32-.14-.59.23-.7.48-.21.48a.75.75,0,0,0,.53-.34m-4.91.68c0-.44-.57-.44-.84,0-.12.19,0,.34.31.34s.53-.15.53-.34m-3.38,0a.35.35,0,0,0-.38-.32c-.21,0-.28-.27-.17-.6.2-.56.18-.56-.26,0s-.55.53-.93.17c-.54-.51-3-.71-3-.24,0,.17-.23.31-.51.31-.7,0-.64.61.09.76,1.32.27,5.16.2,5.16-.09m-4.74,1.64c0-.17-.23-.07-.51.21a1.64,1.64,0,0,0-.49,1c0,.5,1-.66,1-1.17m8.46,5.56c.33,0,.36-.11.1-.22a.55.55,0,0,1-.19-.72c.16-.43.07-.49-.44-.28-1.09.43-1.65.46-2.09.11s-.43-.22-.43,0-.26.42-.59.5c-.51.12-.49.18.15.45a8,8,0,0,0,3.49.14m5.36,7.17a35.41,35.41,0,0,0-.11-4.63c-.22-2.1-.27-2.21-1-2a5.86,5.86,0,0,1-1.67.24c-.51,0-.93.07-.93.2s-.45.19-1,.15c-.73,0-1.06.11-1.21.58-.23.75-1.17.89-1.17.17,0-.5-.55-.54-1.27-.09-.28.18-.35.1-.22-.24s0-.47-.6-.36c-.43.09-.6.06-.37,0,.59-.28.54-.85,0-.62-.27.1-.72-.17-1-.6l-.54-.79v.76c0,.42-.16.76-.34.76a.32.32,0,0,1-.34-.29c0-.16-.38-.22-.85-.13s-.84,0-.84-.22.28-.38.63-.38a1.53,1.53,0,0,0,1-.49,2.93,2.93,0,0,1,1.39-.71c1.59-.36,1.43-.73-.31-.74a13.63,13.63,0,0,1-2.53-.24,2.56,2.56,0,0,0-1.65.17c-.55.3-.77.3-.87,0s-.26-.31-.43-.2c-.45.28-2.71-.21-2.51-.54.1-.16.67-.21,1.27-.11,1,.16,1.14.07,1.46-.81s.29-1-.28-1-.56,0-.27.4.22.51-.23.69-.64.06-.71-.14a.59.59,0,0,0-.52-.36c-.22,0-.55-.34-.73-.77a1.31,1.31,0,0,0-1.18-.8c-1.81-.08-1.87-.12-1.07-.68s.71-.6.25-.94a2.93,2.93,0,0,1-.74-1.51c-.27-1.38.4-1.5,1.53-.28s2.51,1.71,3.38,1.24,1-1,.37-1c-.18,0-.3-.2-.25-.43s-.11-.39-.34-.34-.42-.06-.42-.23-.31-.23-.69-.13-.66,0-.61-.11a2.09,2.09,0,0,0-.34-1.08c-.55-1-.3-1.37,1.17-1.65.77-.14,1.08-.34.87-.55s-.58-.2-1,0c-.86.46-1.41.48-1.41,0,0-.19.29-.34.65-.34,1.13,0,1.13-.68,0-1.16l-1.08-.46,1-.24,1-.25-.93-.81a4.17,4.17,0,0,1-.93-1,6.3,6.3,0,0,1,2.7.4,4.71,4.71,0,0,0,.74.23,1.14,1.14,0,0,1,.48.29c.52.53,3.52.13,3.52-.47,0-.17-.34-.31-.76-.31a2.62,2.62,0,0,1-1.54-.84c-.48-.51-1-.75-1.33-.61s-.49.07-.3-.45.16-.57-.15-.25c-.48.48-1.11,0-1.47-1.16-.15-.48-.43-.66-.84-.55s-.67-.07-.79-.72c-.17-.88.18-1.2.58-.54A1.14,1.14,0,0,0,256,88.9a.81.81,0,0,1,.67-.52c.26,0,.47-.15.47-.34s-.23-.34-.51-.34-.51-.15-.51-.34-.24-.34-.54-.34-.47-.11-.18-.46c.48-.59.08-1-.49-.54-.34.28-.43.2-.39-.32s.21-.61.41-.52.08,0-.24-.31-.6-.59-.6-.71c0-.47.79-.18,2.2.8A10.54,10.54,0,0,0,258,86c.52,0,.09-1-.83-2-.71-.73-.89-1.11-.59-1.24s0-.11-.5,0c-.71.15-.93.07-.93-.35s.3-.56.76-.58.57-.11.34-.2a.82.82,0,0,1-.42-.71c0-.3.1-.44.22-.32s.58,0,1-.29a4,4,0,0,1,2.19-.43c.9.06,1.45-.06,1.55-.34s0-.42-.13-.39a4,4,0,0,1-.79,0c-.45,0-.45-.09,0-.38s.42-.33-.08-.34-1.16-1.41-.79-2c.12-.2.91.1,1.91.73,1.42.9,1.76,1,2,.58.45-.71.39-1.21-.09-.73a1.43,1.43,0,0,1-.88.41c-.39,0-.4-.1-.07-.5s.3-.62-.17-1.1-.45-.64-.21-.72a.57.57,0,0,0,.39-.47c0-.18-.32-.23-.72-.1s-.65.1-.49-.15,0-.38-.3-.38-.52-.14-.52-.32c0-.68.68-.69,1.74,0s1.19.63,1.87.18a1.65,1.65,0,0,1,1.24-.3.62.62,0,0,0,.72-.18c.12-.2.06-.36-.14-.36s-.36-.27-.37-.6c0-.54-.06-.54-.51.06-.59.79-.65.45-.11-.6.39-.74.39-.74-.34-.09s-.73.66-1.14-.42c-.24-.65-.61-1-.92-1s-.56-.23-.63-.73c-.1-.72,0-.79.73-.6,1.2.3,2.05-.07,1.55-.68a1.11,1.11,0,0,1-.19-1c.17-.43.08-.46-.44-.18-1.06.58-1.4.43-1.17-.5.13-.55.07-.86-.18-.86s-.3-.16-.18-.35a1,1,0,0,0-.23-.94c-.25-.32.23,0,1.07.79a11.86,11.86,0,0,0,2.61,1.84c.61.25,1,.59.91.76s-.06.31.09.32l1.38.17c.66.09,1.1,0,1.1-.23s.19-.3.43-.21.36.25.39-.17.1-.07-.2-.23c-.59-.34-1.64.09-1.64-.38,0-.19-.27-.34-.6-.34a2.86,2.86,0,0,1-1.31-.5c-.39-.28-.8-.4-.92-.29s-.21,0-.21-.35v-.83c0-.57,2.29-.24,3.63.53l1.44.25V65.3c0-.63-.21-1-.68-1.1-.69-.18-.95-.78-.33-.78.21,0,.19-.24-.05-.63-.41-.66-2-.63-1.89,0,0,.19-.34.47-.86.62s-.93.13-.93-.09-.17-.21-.47,0-.55.28-.7,0,.13-.5.56-.68c3-1.24,3.65-1.57,3.82-2s.09-.42-.27-.12-.56.29-.68.17a5.25,5.25,0,0,0-2-.16c-1.71.06-2.13-.17-.71-.39,1.12-.17,1.8-.93,1.64-1.82-.12-.7-.07-.75.49-.4.35.22.58.48.51.59s.42.22,1.06.27,1.1,0,1-.19a1.89,1.89,0,0,1,.29-1.18c.39-.76.39-.87,0-.71s-.48-.06-.48-.53-.21-.72-.46-.72-.54-.29-.63-.64c-.16-.59-.09-.58,1.11.08.71.39,1.23.79,1.17.89s.43.22,1.07.27c1.08.08,1.13,0,.65-.46a1.84,1.84,0,0,1-.54-.77c0-.13-.45-.44-1-.69s-.92-.61-.8-.82a.63.63,0,0,0-.25-.74,3.86,3.86,0,0,1-.86-1.46c-.36-1-.35-1.07.26-.69.35.22.58.56.51.75s.31.37.84.41,1-.09,1-.41.2-.41.59-.27.44.08-.13-.53c-.85-.92-.87-2.3,0-2.23a.84.84,0,0,0,.78-.6c.12-.36.34-.57.5-.47a.37.37,0,0,0,.49-.14c.1-.18-.11-.42-.49-.55a1,1,0,0,1-.68-.77c0-.44.09-.47.41-.15.55.56.94.52.94-.1,0-.28.17-.52.37-.52a3.25,3.25,0,0,0,1.26-.7c.49-.39,1-.56,1-.37.16.48-1.23,1.83-1.63,1.58-.18-.11-.23,0-.12.33s0,.53-.17.53-.38.31-.38.69c0,.69,0,.69,1.44,0a12.88,12.88,0,0,0,2-1.22c.4-.36.62-.39.79-.11s0,.46-.46.57a1.44,1.44,0,0,0-.91.84c-.11.36-.33.57-.48.48-.32-.2-.73.64-.88,1.82a2.12,2.12,0,0,1-.72,1.25c-.9.67-.39.9.71.33a4.31,4.31,0,0,1,1.4-.5,3.82,3.82,0,0,0,1.48-.89c1-.83,1-.85,1-.19a1,1,0,0,1-.67.9c-.37.12-.64.39-.6.61s-.14.4-.42.41c-.51,0-1,1.21-.45,1.21A5.77,5.77,0,0,0,278,52c.54-.29,1.06-.44,1.15-.34s0,.18-.3.18-.37.07-.08.26c.65.42-.05,1.19-1.08,1.19-.86,0-.91.08-.73,1.15s.1,1.16-.58,1.16a1.82,1.82,0,0,1-1.11-.37c-.26-.26-.42-.15-.56.38-.18.71-.11.74,1.23.53a11.55,11.55,0,0,0,2.67-.85c1.08-.54,1.21-.55.93-.07-.53.91-1.6,2.08-1.91,2.08-.57,0-2.19,1.8-1.89,2.1.47.47,3.21-.62,4.47-1.79.8-.73,1.23-.93,1.49-.67s.23.36-.07.36-.33.17-.21.36-.16.72-.63,1.16c-.65.61-.75.89-.45,1.2s.24.37.06.32c-.76-.21-1.86.46-1.86,1.12a.92.92,0,0,1-.68.88c-.37.09-.68.31-.68.47s-.25.19-.56.07-.48-.09-.31.19c.45.73,1.79,0,4.09-2.17.4-.38,1-.92,1.35-1.2.58-.47.62-.46.41.08-.12.33-.07.6.11.6s.06.31-.25.68c-.84,1-1,2.4-.19,2.41.53,0,.53,0-.08.41-.37.22-.71.33-.75.24s-.32.2-.61.62a1.85,1.85,0,0,1-1.36.77c-1.07,0-1.06.47,0,1a2.1,2.1,0,0,0,1.7.06c.51-.2.84-.2.84,0s.38-.06.83-.52a2.8,2.8,0,0,1,1.32-.84c.26,0,.56-.31.66-.68.22-.87.64-.87,1.17,0,.37.58.34.68-.17.69s-.51,0-.09.32.4.35-.11.55a.6.6,0,0,0-.43.69,1,1,0,0,1-.32,1c-.33.33-.37.58-.14.73.46.28-.23,1.19-.9,1.19a.42.42,0,0,0-.46.36c0,.24.55.28,1.6.13.89-.13,1.49-.11,1.35,0s-.56.36-2.28.65a7.73,7.73,0,0,0-1,.2,5.92,5.92,0,0,1-1,0c-.65,0-.69,0-.19.17,1.08.31,1.52.92,1,1.41a1.68,1.68,0,0,1-1,.42c-.44,0-.48.1-.19.45s.28.56.16.68,0,.31.34.43.47.35.37.52c-.53.86,4.23-.46,4.93-1.37a6.24,6.24,0,0,1,2.21-1.33c.07.07-.07.5-.3,1s-.66.8-1.09.73c-.64-.11-.64-.1,0,.42s.59.53.12.54a1,1,0,0,0-.78,1.41c.11.17-.12.31-.5.31s-.76.29-.9.86A2.51,2.51,0,0,1,284.56,79c-.62.33-.9.69-.77,1s.26.51.34.51a25.46,25.46,0,0,0,5.67-3c.66-.74,1.89-1,1.89-.38,0,.19-.34.34-.76.35s-.63.08-.3.3c.51.32.24,1.74-.33,1.74-.19,0-.24.16-.13.34s0,.35-.17.35-.29.14-.18.31-.15.37-.57.43-.77.34-.77.62-.38.56-.93.63-.93.31-.93.55a1.72,1.72,0,0,1-.76,1c-.66.46-.68.54-.15.55.33,0,.52.16.42.33-.29.48,1.23,0,2.23-.7a4.42,4.42,0,0,1,1.12-.64,5.62,5.62,0,0,0,1.36-.87c1.11-.86,1.72-.72,1.33.31a.5.5,0,0,1-.62.36c-.23-.09-.42.07-.42.36a.56.56,0,0,0,.54.55c.32,0,.37.1.13.2a.52.52,0,0,0-.2.69c.16.45.08.47-.53.14s-1.07.06-.37.5c.54.34-.89,1.56-1.53,1.31-.28-.11-.52,0-.52.19a.75.75,0,0,0,.49.58.53.53,0,0,1,.3.67c-.1.26-.32.4-.49.29s-.3,0-.3.35c0,1,.84.56,2.55-1.21s3.39-2.89,3.69-2.4c.1.16-.05.49-.32.72a2.16,2.16,0,0,0,0,2.76c.45.5.47.71.09,1.31-.25.4-.64.65-.87.56s-.42,0-.42.16-.23.23-.51.12c-.62-.24-.67.26-.09.88.35.37.3.38-.29.08-.82-.43-1.14-.23-1.14.72,0,.55-.16.63-.93.45s-.78-.12-.47.09c.59.4.19,1.11-.48.85-.35-.13-.44,0-.3.33s.33.47,1.44,0a10.7,10.7,0,0,0,2.66-1.9L294.69,91l-.2,1.5a3,3,0,0,1-.49,1.61c-.54.22-1.31,2.06-.95,2.28a.74.74,0,0,1,.34.49c0,.42-1.82.7-2.19.34s-.86-.39-.86.14c0,.25.55.62,1.22.83a3.08,3.08,0,0,0,3.43-.86c.39-.51.43-.49.43.13a2.63,2.63,0,0,1-.69,1.43c-.38.41-.57.75-.43.76s-.22.25-.82.55-1,.68-.91.85c.28.47-.83.76-1.32.35-.33-.27-.59-.19-1,.32a1.81,1.81,0,0,1-1.33.64c-1.18-.1-1.48,0-.75.34a2.56,2.56,0,0,0,1.76-.17c.91-.38,1.14-.37,1.48,0a1,1,0,0,0,.95.33c.3-.09,1-.24,1.48-.33a16.18,16.18,0,0,0,1.65-.39c.67-.22.66-.15-.19,1-.54.71-1.11,1.14-1.39,1-.62-.24-1.68.59-1.68,1.34,0,.33-.1.56-.22.51s-.54.27-.92.72-.83.7-1,.59c-.57-.36-.85.57-.29,1s0,.38-1.64.35c-1.86,0-2.17.06-2.17.58s-.17.54-.51.41a1.68,1.68,0,0,0-1.1.06A3.26,3.26,0,0,1,283,110c-1.23-.12-.87.56.51,1l1.27.37-1.61-.16c-.93-.09-1.61,0-1.61.18s.35.35.76.36c.73,0,.73,0,.09.3s-.9.07-1.54-.53c-.88-.83-1.55-1.1-1.17-.48.12.19.05.35-.15.35-.82,0-.27.61.74.82s1,.28.49.59a1.49,1.49,0,0,1-1.18.1,1.94,1.94,0,0,0-.8-.21c-.13,0-.43-.41-.68-1-.55-1.27-.88-1.29-1-.08-.07.63-.27.9-.61.82-1.88-.44-2-.36-2,1.11a54.2,54.2,0,0,0,.87,7.13c.19.9.14.94-1.11.94h-1.31Z" fill="#d6eade"/><path d="M12.13,107.75c-.29-.51-1-.59-.72-1.17.22-.43.7-.23,1.09-.23,1,0,1.66-.87,2.65-1,.36,0,0-.55,0-.84s-.17-.84.33-1a.69.69,0,0,1,.91.57c.1,1.25,1.84,1.57,1.62,3,1.87.25.65,2.29,1.74,3,.19.14.21.51.6.39s.91-.34,1.2.13-.29.91-.5,1.33c.25.44.66.23,1,.32.6.17,1.62.08.7,1.19-.32.38.21.49.4.68s.57.53.33.92-.65.28-.93.05c-.51-.42-.89-.12-1.29.13s-.25.61-.09,1c0,0,.05.08,0,.11-.69,1.44.19,2.27,1.1,3.19a3.53,3.53,0,0,0,1.14,1c.26.1.6.18.57.53s-.44.37-.74.42-.57-.07-.78.22c.11.43.45.2.68.24s.37.11.56.17c-.32.73.56,1.47.27,1.94-.53.84-.41,1.78-.79,2.61a1.05,1.05,0,0,0,.74,1.59c.85.2.76.65.58,1.24a3.74,3.74,0,0,0,1,3.32,1.41,1.41,0,0,1,.56,1.58,2.62,2.62,0,0,0,.56,2.68c.52.56.15,1.27-.3,1.83.34.39.78-.3,1.16.25a1.53,1.53,0,0,0-.58,2.56c.2.26.4.59.77.38.82-.46,1.13.16,1.67.58.76.59.44.74-.17,1a2.82,2.82,0,0,0-1.05,4.57c.35.42.58.92.26,1.3-.62.73-.25,1.53-.34,2.29a.91.91,0,0,0,.88,1.07,3.14,3.14,0,0,1,1.57.82c.9.73.92.93-.14,1.45a1.78,1.78,0,0,0-1.2,2.14c.09.63,1.14.27.71.91-.21.32-.84.34-1.1.65-.48.57-.08,1,.41,1.39s1.85.69.49,1.71a.49.49,0,0,0,0,.44c.39.48.71,1,.39,1.61a.38.38,0,0,0,.1.33c1.4,1.06,1.43,2.73,1.79,4.21.26,1.05,1.21,2.06.33,3.24,0,0,0,.25.11.32,1.71,1.59.74,3.45.53,5.23a.88.88,0,0,1-.53.61c-.21.13-.48.33-.33.56.56.9.31,1.33-.7,1.5-.26,0-.29.32-.22.59.74,3-.24,5.53-1.81,8-.44.7-.61,1.57-1.66,1.62-.09,0-.22.24-.23.37-.2,1.79-1.45,2.64-2.94,3.2-.88.33-1.71.44-2.19,1.55a2.25,2.25,0,0,1-2.3,1.18,4.05,4.05,0,0,0-2.52.4c-.74.37-1.67.76-2.3-.3-.2-.33-.44-.32-.68-.08-.6.6-1.09.24-1.56-.17s-.64-.62-1.23-.43c-.35.12-.78-.18-1-.53-.32-.52-.41-1.33-1.35-.9-.05,0-.26-.14-.24-.19.34-1.6-1.49-2-1.82-3.2-.16-.6-.9-.88-1.45-1.2s-1.32-.53-1-1.48a.47.47,0,0,0-.18-.41c-1-.33-1-1.15-1.21-2-.09-.51.05-1.42-1-1.6-.45-.08-.34-.81-.39-1.28a25.16,25.16,0,0,0-.61-4.16c-.39-1.38-1.47-3-.32-4.72.5-.74-.24-1.61-.49-2.39A2.47,2.47,0,0,1,.73,170c.5-1.2.94-2.4.07-3.64-.19-.25-.33-.72-.09-.89.72-.49.46-1.25.69-1.85a4.22,4.22,0,0,0,0-3c0-.08-.07-.18,0-.23.64-1.22.39-2.61.8-3.86.14-.43.37-.75.07-1.2a2.44,2.44,0,0,1,.14-2.71,6.08,6.08,0,0,0,.91-2.31c0-.16.14-.37.07-.47-1.41-2-.18-3.81.42-5.64a1.55,1.55,0,0,0-.14-1.54c-.43-.62.52-4.61,1-5.21a1.88,1.88,0,0,0,.2-2c-.46-1.42-.45-1.44,1-1.68.94-.16.92-.88.79-1.5A2.17,2.17,0,0,0,6,130.84c-.24-.19-.53-.43-.37-.8s.46-.23.74-.24c1.1,0,.8-.87.62-1.33a7.16,7.16,0,0,0-.53-1.17c-.43-.73-.63-1.19.35-1.83a2,2,0,0,0,1-2.29,1.44,1.44,0,0,1,.86-1.92c.55-.17.91-2.67.57-3.22a3.16,3.16,0,0,1,.08-3.72c.55-.74.87-1.58,1.5-2.31a4.71,4.71,0,0,0,.55-2.91c0-.72,0-1.16.82-1.35" fill="#389d66"/><path d="M70.11,189.5a5.09,5.09,0,0,1,2.57-3.31c1.13-.74,2.11-2.08,3.93-1.48.91.3,1.76-.54,2.3-1.4.3-.48.46-1,1.34-.58s1.76-.35,2.14-1.41a4.6,4.6,0,0,1,1.13-1.64c.45-.44.79,0,1,.38.37.52.76.78,1.39.32.45-.33.87-.07,1.32.16.7.35,1.45.72,2.22.11a.62.62,0,0,1,.86.1,2.48,2.48,0,0,0,2.9.35c.93-.42,1.35.26,1.76.82.63.87,1.22,1.56,2.43.87.48-.27.82.07.61.59-.47,1.15.48,1.58,1.06,2.16s1.15.37,1.73-.08a1.36,1.36,0,0,1,1.15-.1,4,4,0,0,0,2.45-.17c1.13-.5,1.71.5,2.42,1.07.11.09.14.28.2.43.47,1.11,1.18,1.21,2.3.81,2.07-.74,3.17.1,3.55,1.56.24.92,1.13,1.6.88,2.72-.07.32.55.64.93.86a1.41,1.41,0,0,1,.66,1.93c-.22.56-.4,1.13-.6,1.7a2,2,0,0,0,.53,2.19c.17.17.41.33.46.53.23,1,.58,1.56,1.63.71.21-.17.55,0,.73.24a.55.55,0,0,1-.07.77c-.83.62-.41,1.65-.86,2.4a.44.44,0,0,0,.07.43c1.13.8.22,1.24-.32,1.71s-1.37.91-1,1.93c0,.1-.09.31-.19.41-.77.69-.83.88-.45,2.08.12.39.15.82-.26.92a1.71,1.71,0,0,0-1.29,1.4.68.68,0,0,1-.26.39c-1.44.81-1.46.8-2.58,2.74-.22.37-.5.31-.83.26a2.7,2.7,0,0,0-2.94,1.62,1.65,1.65,0,0,1-.76.72c-.67.28-1.35.4-1.23,1.4,0,.31-.43.23-.7.22a5.84,5.84,0,0,1-3.67-1.13c-.79-.62-1.08-.27-1.42.36s-.64,1.49-1.65.68a.53.53,0,0,0-.79.32c-.29.81-.91.9-1.62.84a10.31,10.31,0,0,0-4.32.74c-.55.19-1.09-.12-1.64-.16a8.92,8.92,0,0,0-2.13,0c-.55.1-1.15.23-1.09-.73,0-.49-.45-.59-.86-.65a6.62,6.62,0,0,0-2.94-.21,1.31,1.31,0,0,1-1.42-.42.51.51,0,0,0-.39-.23c-1.93.28-3.48-1.11-5.36-1.22-.83-.05-1.49.37-2.29.29s-1.2,0-1.3-.94S71,215.42,70,215.73c-.3.09-.74.21-.83-.18-.28-1.18-1.21-1.09-2-1.13-.66,0-1.18-.15-1.25-.95,0-.17-.15-.45-.28-.49-2.18-.61-1.67-2.56-2-4-.21-1-.08-2.08-1.05-2.8a.56.56,0,0,1-.13-.85c.68-.75.09-.93-.46-1.16a2.48,2.48,0,0,1-1.06-.75.46.46,0,0,1-.11-.55.39.39,0,0,1,.52-.17.89.89,0,0,0,1.49-.5,1.83,1.83,0,0,0-.58-2.05c-.41-.37-.89-.67-1.32-1a.82.82,0,0,1-.3-1.06c.25-.42.69-.28.95-.07.64.54,1.17,0,1.64-.2,1.36-.44,3-.65,3.29-2.52.13-.71-.47-1.52.33-2.14.18-.15.24-.48.5-.64.52-.31.46-.66.08-1.07s-1.19-.69-.84-1.4,1.13-.22,1.69-.19c.28-.69-.47-1.72.42-2s.79.93,1.45,1.68" fill="#389d66"/><path d="M262.89,168.44c-.15-.35-.68-.47-.45-.69.41-.39.7.19,1.12.4,0-.61.3-.77.81-.62s.31-.17.33-.38-.1-.53.18-.66.36.27.54.35a2.25,2.25,0,0,0,1.19.27c.51-.09,1.17,0,1.45-.69.14-.34.41-.21.55,0s.39.37.65,0,.4-.4.83-.07a3.06,3.06,0,0,0,1.44.35,2.32,2.32,0,0,1,1.68.81,1.27,1.27,0,0,0,.87.55,11.55,11.55,0,0,1,2.18.84,3,3,0,0,1,1.06.87c.95,1,.51,2.48,1.34,3.48,0,0,0,.08,0,.12.13.56.95.48,1,.95s-.25.89.09,1.32a.36.36,0,0,1,0,.48,2.09,2.09,0,0,0,.25,3,1.21,1.21,0,0,1-.31,2.07.72.72,0,0,0-.41.69c.05.54.06,1.08.09,1.62a3.44,3.44,0,0,1-2.11,3.38c-.09,0-.2.06-.23.13-.42.79-1.24.38-1.78.63s-1.12.25-1.62.55a.67.67,0,0,1-.84-.05,1.16,1.16,0,0,0-1.22-.09,3.5,3.5,0,0,1-2.8.18,1.76,1.76,0,0,0-1,0,7,7,0,0,1-4.1-.43c-.95-.42-2.1-.08-2.86-.92-.6.64-1-.55-1.69-.16-.33.2-.47-.48-.64-.78a6.91,6.91,0,0,0-1.17-1.9c-.08-.08-.18-.28-.14-.35a1.48,1.48,0,0,0,0-1.42c-.29-.45-.28-1-.56-1.4a.46.46,0,0,1,.07-.68c.27-.3-.05-.75,0-1.15s-.09-.5.26-.65,0-.27,0-.42c-.07-.39-.29-.79.34-1a.85.85,0,0,0,.44-1.1,1.36,1.36,0,0,1,.44-1.69c.13-.12.29-.22.33-.4a3.27,3.27,0,0,1,2-2.37.76.76,0,0,0,.37-.59,1.52,1.52,0,0,1,.88-1.17c.25-.1.53-.33.47-.59-.14-.63.24-.64.71-.61" fill="#389d66"/><path d="M240.89,198.73c-.15-.35-.68-.47-.45-.69.41-.39.7.19,1.12.4,0-.61.3-.77.81-.62s.31-.17.33-.38-.1-.53.18-.65.36.26.54.34a2.16,2.16,0,0,0,1.19.27c.51-.09,1.17,0,1.45-.69.14-.34.41-.21.55,0s.39.37.65,0,.4-.4.83-.07a3.06,3.06,0,0,0,1.44.35,2.29,2.29,0,0,1,1.68.82,1.3,1.3,0,0,0,.87.54,11.55,11.55,0,0,1,2.18.84,3,3,0,0,1,1.06.88c.95,1,.51,2.47,1.34,3.47,0,0,0,.08,0,.13.13.55.95.47,1,.95s-.25.88.09,1.31a.36.36,0,0,1,0,.48,2.09,2.09,0,0,0,.25,3,1.21,1.21,0,0,1-.31,2.07.72.72,0,0,0-.41.69c.05.54.06,1.08.09,1.62a3.44,3.44,0,0,1-2.11,3.38c-.09,0-.2.06-.23.13-.42.79-1.24.39-1.78.64a14.69,14.69,0,0,0-1.62.55.68.68,0,0,1-.84,0,1.14,1.14,0,0,0-1.22-.1,3.5,3.5,0,0,1-2.8.18,1.76,1.76,0,0,0-1,0,7,7,0,0,1-4.1-.43c-1-.42-2.1-.08-2.86-.92-.6.64-1-.55-1.69-.15-.33.19-.47-.48-.64-.79a6.91,6.91,0,0,0-1.17-1.9c-.08-.08-.18-.27-.14-.35a1.48,1.48,0,0,0,0-1.42c-.29-.45-.28-1-.56-1.39a.47.47,0,0,1,.07-.69c.27-.3-.05-.75,0-1.14s-.09-.51.26-.65,0-.28,0-.43c-.07-.39-.29-.78.34-1a.85.85,0,0,0,.44-1.1,1.36,1.36,0,0,1,.44-1.69.81.81,0,0,0,.33-.4,3.27,3.27,0,0,1,2-2.37.76.76,0,0,0,.37-.59,1.52,1.52,0,0,1,.88-1.17c.25-.1.53-.33.47-.59-.14-.63.24-.64.71-.61" fill="#389d66"/><path d="M182.89,210.73c-.15-.35-.68-.47-.45-.69.41-.39.7.19,1.12.4,0-.61.3-.77.81-.62s.31-.17.33-.38-.1-.53.18-.65.36.26.54.34a2.16,2.16,0,0,0,1.19.27c.51-.09,1.17,0,1.45-.69.14-.34.41-.21.55,0s.39.37.65,0,.4-.4.83-.07a3.06,3.06,0,0,0,1.44.35,2.29,2.29,0,0,1,1.68.82,1.3,1.3,0,0,0,.87.54,11.55,11.55,0,0,1,2.18.84,3,3,0,0,1,1.06.88c1,1,.51,2.47,1.34,3.47,0,0,0,.08,0,.13.13.55,1,.47,1,.95s-.25.88.09,1.31a.36.36,0,0,1,0,.48,2.09,2.09,0,0,0,.25,3,1.21,1.21,0,0,1-.31,2.07.72.72,0,0,0-.41.69c0,.54.06,1.08.09,1.62a3.44,3.44,0,0,1-2.11,3.38c-.09,0-.2.06-.23.13-.42.79-1.24.39-1.78.64a14.69,14.69,0,0,0-1.62.55.68.68,0,0,1-.84,0,1.14,1.14,0,0,0-1.22-.1,3.5,3.5,0,0,1-2.8.18,1.76,1.76,0,0,0-1,0,7,7,0,0,1-4.1-.43c-1-.42-2.1-.08-2.86-.92-.6.64-1-.55-1.69-.15-.33.19-.47-.48-.64-.79a6.91,6.91,0,0,0-1.17-1.9c-.08-.08-.18-.27-.14-.35a1.48,1.48,0,0,0,0-1.42c-.29-.45-.28-1-.56-1.39a.47.47,0,0,1,.07-.69c.27-.3-.05-.75,0-1.14s-.09-.51.26-.65,0-.28,0-.43c-.07-.39-.29-.78.34-1a.85.85,0,0,0,.44-1.1,1.36,1.36,0,0,1,.44-1.69.81.81,0,0,0,.33-.4,3.27,3.27,0,0,1,2-2.37.76.76,0,0,0,.37-.59,1.52,1.52,0,0,1,.88-1.17c.25-.1.53-.33.47-.59-.14-.63.24-.64.71-.61" fill="#389d66"/><path d="M151.89,198.73c-.15-.35-.68-.47-.45-.69.41-.39.7.19,1.12.4,0-.61.3-.77.81-.62s.31-.17.33-.38-.1-.53.18-.65.36.26.54.34a2.16,2.16,0,0,0,1.19.27c.51-.09,1.17,0,1.45-.69.14-.34.41-.21.55,0s.39.37.65,0,.4-.4.83-.07a3.06,3.06,0,0,0,1.44.35,2.29,2.29,0,0,1,1.68.82,1.3,1.3,0,0,0,.87.54,11.55,11.55,0,0,1,2.18.84,3,3,0,0,1,1.06.88c1,1,.51,2.47,1.34,3.47,0,0,0,.08,0,.13.13.55,1,.47,1,.95s-.25.88.09,1.31a.36.36,0,0,1,0,.48,2.09,2.09,0,0,0,.25,3,1.21,1.21,0,0,1-.31,2.07.72.72,0,0,0-.41.69c0,.54.06,1.08.09,1.62a3.44,3.44,0,0,1-2.11,3.38c-.09,0-.2.06-.23.13-.42.79-1.24.39-1.78.64a14.69,14.69,0,0,0-1.62.55.68.68,0,0,1-.84,0,1.14,1.14,0,0,0-1.22-.1,3.5,3.5,0,0,1-2.8.18,1.76,1.76,0,0,0-1,0,7,7,0,0,1-4.1-.43c-1-.42-2.1-.08-2.86-.92-.6.64-1-.55-1.69-.15-.33.19-.47-.48-.64-.79a6.91,6.91,0,0,0-1.17-1.9c-.08-.08-.18-.27-.14-.35a1.48,1.48,0,0,0,0-1.42c-.29-.45-.28-1-.56-1.39a.47.47,0,0,1,.07-.69c.27-.3-.05-.75,0-1.14s-.09-.51.26-.65,0-.28,0-.43c-.07-.39-.29-.78.34-1a.85.85,0,0,0,.44-1.1,1.36,1.36,0,0,1,.44-1.69.81.81,0,0,0,.33-.4,3.27,3.27,0,0,1,2-2.37.76.76,0,0,0,.37-.59,1.52,1.52,0,0,1,.88-1.17c.25-.1.53-.33.47-.59-.14-.63.24-.64.71-.61" fill="#389d66"/><path d="M171.55,190.38a2.59,2.59,0,1,1-5.18.05,2.59,2.59,0,0,1,5.18-.05Z" fill="#3b9e66"/><path d="M191.08,190.39a2.71,2.71,0,0,1-2.67,2.62,2.73,2.73,0,0,1-2.51-2.59,2.59,2.59,0,0,1,5.18,0Z" fill="#3b9e66"/><path d="M208.16,187.83a2.64,2.64,0,0,1,2.45,2.63,2.59,2.59,0,1,1-5.17-.29A2.62,2.62,0,0,1,208.16,187.83Z" fill="#3b9e66"/><path d="M161.78,200.24a2.58,2.58,0,1,1-5.16-.16,2.58,2.58,0,0,1,5.16.16Z" fill="#3b9e66"/><path d="M169,202.76a2.71,2.71,0,0,1-2.59-2.7,2.6,2.6,0,0,1,5.19,0A2.72,2.72,0,0,1,169,202.76Z" fill="#3b9e66"/><path d="M178.75,197.6a2.58,2.58,0,0,1,2.56,2.49,2.69,2.69,0,0,1-2.61,2.67,2.73,2.73,0,0,1-2.56-2.54A2.57,2.57,0,0,1,178.75,197.6Z" fill="#3b9e66"/><path d="M188.44,202.76A2.71,2.71,0,0,1,185.9,200a2.59,2.59,0,0,1,5.18.28A2.74,2.74,0,0,1,188.44,202.76Z" fill="#3b9e66"/><path d="M198.32,202.76a2.72,2.72,0,0,1-2.65-2.45,2.58,2.58,0,0,1,5.16-.31A2.69,2.69,0,0,1,198.32,202.76Z" fill="#3b9e66"/><path d="M207.94,197.6a2.59,2.59,0,0,1,2.67,2.57,2.6,2.6,0,1,1-5.19,0A2.59,2.59,0,0,1,207.94,197.6Z" fill="#3b9e66"/><path d="M217.73,202.76A2.7,2.7,0,0,1,215.2,200a2.58,2.58,0,0,1,5.16.28A2.7,2.7,0,0,1,217.73,202.76Z" fill="#3b9e66"/><path d="M217.84,207.35a2.59,2.59,0,0,1,2.52,2.54,2.58,2.58,0,1,1-5.16-.13A2.59,2.59,0,0,1,217.84,207.35Z" fill="#3b9e66"/><path d="M205.42,209.8a2.6,2.6,0,0,1,5.19.23,2.6,2.6,0,1,1-5.19-.23Z" fill="#3b9e66"/><path d="M198.24,207.35a2.61,2.61,0,0,1,2.6,2.46,2.59,2.59,0,1,1-5.17,0A2.59,2.59,0,0,1,198.24,207.35Z" fill="#3b9e66"/><path d="M188.4,212.52a2.72,2.72,0,0,1-2.5-2.78,2.6,2.6,0,0,1,5.18.35A2.74,2.74,0,0,1,188.4,212.52Z" fill="#3b9e66"/><path d="M159.12,207.35a2.59,2.59,0,0,1,2.66,2.57,2.58,2.58,0,1,1-5.16,0A2.59,2.59,0,0,1,159.12,207.35Z" fill="#3b9e66"/><path d="M171.55,209.93a2.59,2.59,0,1,1-5.18,0,2.59,2.59,0,0,1,5.18,0Z" fill="#3b9e66"/><path d="M181.31,210a2.59,2.59,0,1,1-5.17-.11,2.59,2.59,0,0,1,5.17.11Z" fill="#3b9e66"/><path d="M225.21,234.31a2.41,2.41,0,0,1-.91,1.91l-3.74-1.06-.34-.1h0a2.27,2.27,0,0,1-.13-.82,2.71,2.71,0,0,1,2.71-2.56s.05,0,.06,0A2.6,2.6,0,0,1,225.21,234.31Z" fill="#3b9e66"/><path d="M214.86,233.24l-4-1.38a2.15,2.15,0,0,1,1.66-.89A2.7,2.7,0,0,1,214.86,233.24Z" fill="#3b9e66"/><path d="M154.31,178.37a2.59,2.59,0,1,1,0-5.17,2.66,2.66,0,0,1,2.58,2.5A2.7,2.7,0,0,1,154.31,178.37Z" fill="#3b9e66"/><path d="M161.39,218.35,158,217.4a2.18,2.18,0,0,1,1-.28A2.54,2.54,0,0,1,161.39,218.35Z" fill="#3b9e66"/><path d="M171.56,219.59a2.49,2.49,0,0,1-.5,1.51l-4.69-1.33v0a2.6,2.6,0,0,1,5.19-.14Z" fill="#3b9e66"/><path d="M181.31,219.66a2.59,2.59,0,1,1-5.17,0,2.59,2.59,0,0,1,5.17,0Z" fill="#3b9e66"/><path d="M185.9,219.56a2.59,2.59,0,0,1,5.18.19,2.59,2.59,0,0,1-5.18-.19Z" fill="#3b9e66"/><path d="M198.34,222.25a2.72,2.72,0,0,1-2.67-2.41,2.59,2.59,0,0,1,5.16-.36A2.69,2.69,0,0,1,198.34,222.25Z" fill="#3b9e66"/><path d="M208,217.11a2.58,2.58,0,0,1,2.61,2.62,2.6,2.6,0,0,1-5.19-.14A2.6,2.6,0,0,1,208,217.11Z" fill="#3b9e66"/><path d="M217.82,217.11a2.58,2.58,0,0,1,2.54,2.68,2.58,2.58,0,0,1-5.16-.08A2.57,2.57,0,0,1,217.82,217.11Z" fill="#3b9e66"/><path d="M200.83,229.43a.45.45,0,0,1,0,.12L196,228.19a2.57,2.57,0,0,1,4.82,1.24Z" fill="#3b9e66"/><path d="M210.61,229.42a2.68,2.68,0,0,1-1.74,2.41l-2.8-.79a2.49,2.49,0,0,1-.64-1.62,2.59,2.59,0,0,1,5.18,0Z" fill="#3b9e66"/><path d="M217.74,232a2.68,2.68,0,0,1-2.54-2.54,2.58,2.58,0,1,1,5.16.07A2.69,2.69,0,0,1,217.74,232Z" fill="#3b9e66"/><path d="M176.14,190.29a2.59,2.59,0,0,1,5.17.25,2.7,2.7,0,0,1-2.8,2.46A2.73,2.73,0,0,1,176.14,190.29Z" fill="#3b9e66"/><path d="M159.12,193a2.72,2.72,0,0,1-2.5-2.59,2.58,2.58,0,1,1,5.16.16A2.73,2.73,0,0,1,159.12,193Z" fill="#3b9e66"/><path d="M198.32,187.83a2.66,2.66,0,0,1,2.52,2.74,2.59,2.59,0,0,1-5.17-.14A2.64,2.64,0,0,1,198.32,187.83Z" fill="#3b9e66"/><path d="M217.78,193a2.71,2.71,0,0,1-2.58-2.51,2.58,2.58,0,1,1,5.16,0A2.72,2.72,0,0,1,217.78,193Z" fill="#3b9e66"/><path d="M225.25,175.7a2.59,2.59,0,0,1-5.18.16,2.66,2.66,0,0,1,2.42-2.65A2.7,2.7,0,0,1,225.25,175.7Z" fill="#3b9e66"/><path d="M212.91,173.2a2.64,2.64,0,0,1,2.57,2.49,2.59,2.59,0,1,1-2.57-2.49Z" fill="#3b9e66"/><path d="M205.73,175.78a2.6,2.6,0,0,1-5.19,0,2.65,2.65,0,0,1,2.5-2.57A2.7,2.7,0,0,1,205.73,175.78Z" fill="#3b9e66"/><path d="M196,175.86a2.59,2.59,0,1,1-2.41-2.65A2.64,2.64,0,0,1,196,175.86Z" fill="#3b9e66"/><path d="M186.2,175.78a2.6,2.6,0,0,1-5.19,0,2.66,2.66,0,0,1,2.5-2.58A2.69,2.69,0,0,1,186.2,175.78Z" fill="#3b9e66"/><path d="M173.76,178.37a2.58,2.58,0,1,1,.18-5.16,2.66,2.66,0,0,1,2.5,2.57A2.71,2.71,0,0,1,173.76,178.37Z" fill="#3b9e66"/><path d="M164.17,178.37a2.72,2.72,0,0,1-2.68-2.59,2.65,2.65,0,0,1,2.5-2.57,2.58,2.58,0,1,1,.18,5.16Z" fill="#3b9e66"/><path d="M222.66,227.08a2.62,2.62,0,0,1-2.59-2.46,2.66,2.66,0,0,1,2.58-2.66,2.55,2.55,0,0,1,2.56,2.65A2.52,2.52,0,0,1,222.66,227.08Z" fill="#3b9e66"/><path d="M196,195.38a2.59,2.59,0,0,1-5.17-.2,2.59,2.59,0,0,1,5.17.2Z" fill="#3b9e66"/><path d="M186.2,195.3a2.6,2.6,0,0,1-5.19,0,2.72,2.72,0,0,1,2.53-2.56A2.68,2.68,0,0,1,186.2,195.3Z" fill="#3b9e66"/><path d="M176.44,195.34a2.59,2.59,0,0,1-5.18-.12,2.59,2.59,0,0,1,5.18.12Z" fill="#3b9e66"/><path d="M166.67,195.35a2.6,2.6,0,0,1-2.57,2.47,2.58,2.58,0,0,1-2.6-2.61,2.59,2.59,0,0,1,5.17.14Z" fill="#3b9e66"/><path d="M156.91,195.27a2.59,2.59,0,0,1-5.18,0,2.59,2.59,0,0,1,5.18,0Z" fill="#3b9e66"/><path d="M225.25,185.59a2.59,2.59,0,0,1-5.18-.13,2.59,2.59,0,0,1,5.18.13Z" fill="#3b9e66"/><path d="M212.88,182.94a2.68,2.68,0,0,1,2.61,2.66,2.59,2.59,0,0,1-5.17,0A2.66,2.66,0,0,1,212.88,182.94Z" fill="#3b9e66"/><path d="M203.21,188.06a2.6,2.6,0,0,1-2.67-2.55,2.68,2.68,0,0,1,2.52-2.56,2.65,2.65,0,0,1,2.66,2.59A2.6,2.6,0,0,1,203.21,188.06Z" fill="#3b9e66"/><path d="M193.44,183a2.65,2.65,0,0,1,2.51,2.73,2.59,2.59,0,0,1-5.17-.14A2.68,2.68,0,0,1,193.44,183Z" fill="#3b9e66"/><path d="M183.61,188.07a2.6,2.6,0,0,1-2.59-2.46,2.59,2.59,0,1,1,5.17,0A2.61,2.61,0,0,1,183.61,188.07Z" fill="#3b9e66"/><path d="M176.43,185.61a2.59,2.59,0,0,1-5.17-.17,2.59,2.59,0,0,1,5.17.17Z" fill="#3b9e66"/><path d="M166.67,185.55a2.59,2.59,0,0,1-5.18-.05,2.59,2.59,0,0,1,5.18.05Z" fill="#3b9e66"/><path d="M156.91,185.55a2.59,2.59,0,0,1-5.18-.05,2.59,2.59,0,0,1,5.18.05Z" fill="#3b9e66"/><path d="M212.9,222a2.66,2.66,0,0,1,2.59,2.66,2.62,2.62,0,0,1-2.58,2.46,2.56,2.56,0,0,1,0-5.12Z" fill="#3b9e66"/><path d="M203.08,222a2.56,2.56,0,0,1,.1,5.12,2.61,2.61,0,0,1-2.63-2.41A2.65,2.65,0,0,1,203.08,222Z" fill="#3b9e66"/><path d="M193.32,222a2.67,2.67,0,0,1,2.65,2.6,2.61,2.61,0,0,1-2.53,2.51,2.52,2.52,0,0,1-2.62-2.57A2.56,2.56,0,0,1,193.32,222Z" fill="#3b9e66"/><path d="M186.15,224.53a2.43,2.43,0,0,1-.14.82L181.1,224a2.63,2.63,0,0,1,2.59-2A2.53,2.53,0,0,1,186.15,224.53Z" fill="#3b9e66"/><path d="M205.72,195.34a2.6,2.6,0,0,1-2.56,2.48,2.58,2.58,0,0,1-2.61-2.6,2.59,2.59,0,0,1,5.17.12Z" fill="#3b9e66"/><path d="M213,192.7a2.66,2.66,0,0,1,2.52,2.73,2.59,2.59,0,0,1-5.17-.13A2.67,2.67,0,0,1,213,192.7Z" fill="#3b9e66"/><path d="M220.09,195a2.58,2.58,0,0,1,5.14.48,2.58,2.58,0,0,1-5.14-.48Z" fill="#3b9e66"/><path d="M210.61,180.71a2.72,2.72,0,0,1-2.55,2.53,2.58,2.58,0,1,1,2.55-2.53Z" fill="#3b9e66"/><path d="M200.83,180.61a2.58,2.58,0,1,1-2.72-2.53A2.68,2.68,0,0,1,200.83,180.61Z" fill="#3b9e66"/><path d="M188.45,183.25a2.72,2.72,0,0,1-2.55-2.53,2.59,2.59,0,1,1,5.18.07A2.73,2.73,0,0,1,188.45,183.25Z" fill="#3b9e66"/><path d="M178.67,178.08a2.58,2.58,0,1,1-2.53,2.73A2.68,2.68,0,0,1,178.67,178.08Z" fill="#3b9e66"/><path d="M169,178.08a2.58,2.58,0,1,1-2.67,2.6A2.69,2.69,0,0,1,169,178.08Z" fill="#3b9e66"/><path d="M161.78,180.59a2.58,2.58,0,1,1-2.74-2.5A2.66,2.66,0,0,1,161.78,180.59Z" fill="#3b9e66"/><path d="M196,205.05a2.62,2.62,0,0,1-2.51,2.53,2.55,2.55,0,0,1-2.63-2.57,2.59,2.59,0,0,1,2.49-2.55A2.66,2.66,0,0,1,196,205.05Z" fill="#3b9e66"/><path d="M205.69,205a2.56,2.56,0,0,1-2.47,2.6,2.59,2.59,0,0,1-2.67-2.59,2.68,2.68,0,0,1,2.58-2.54A2.61,2.61,0,0,1,205.69,205Z" fill="#3b9e66"/><path d="M215.49,205.08a2.61,2.61,0,0,1-2.58,2.5,2.54,2.54,0,0,1-2.56-2.68,2.59,2.59,0,0,1,2.64-2.44A2.68,2.68,0,0,1,215.49,205.08Z" fill="#3b9e66"/><path d="M222.59,202.46a2.59,2.59,0,0,1,2.62,2.47,2.55,2.55,0,0,1-2.4,2.65,2.62,2.62,0,0,1-2.74-2.53A2.68,2.68,0,0,1,222.59,202.46Z" fill="#3b9e66"/><path d="M217.75,183.24a2.68,2.68,0,0,1-2.55-2.51,2.58,2.58,0,1,1,5.16.05A2.68,2.68,0,0,1,217.75,183.24Z" fill="#3b9e66"/><path d="M183.67,207.58a2.6,2.6,0,0,1-2.65-2.44,2.65,2.65,0,0,1,2.61-2.68,2.59,2.59,0,0,1,2.53,2.55A2.55,2.55,0,0,1,183.67,207.58Z" fill="#3b9e66"/><path d="M173.79,202.46a2.66,2.66,0,0,1,2.64,2.47,2.59,2.59,0,0,1-2.61,2.65,2.55,2.55,0,0,1-2.53-2.53A2.59,2.59,0,0,1,173.79,202.46Z" fill="#3b9e66"/><path d="M166.63,205a2.55,2.55,0,0,1-2.45,2.61,2.62,2.62,0,0,1-2.69-2.58,2.67,2.67,0,0,1,2.57-2.54A2.58,2.58,0,0,1,166.63,205Z" fill="#3b9e66"/><path d="M156.91,205.08a2.62,2.62,0,0,1-2.58,2.5,2.54,2.54,0,0,1-2.56-2.68,2.6,2.6,0,0,1,2.64-2.44A2.68,2.68,0,0,1,156.91,205.08Z" fill="#3b9e66"/><path d="M183.59,217.32a2.62,2.62,0,0,1-2.58-2.51,2.69,2.69,0,0,1,2.7-2.6,2.61,2.61,0,0,1,2.45,2.63A2.52,2.52,0,0,1,183.59,217.32Z" fill="#3b9e66"/><path d="M193.3,217.31a2.51,2.51,0,0,1-2.48-2.56,2.62,2.62,0,0,1,2.54-2.55,2.69,2.69,0,0,1,2.6,2.7A2.59,2.59,0,0,1,193.3,217.31Z" fill="#3b9e66"/><path d="M205.69,214.82a2.53,2.53,0,0,1-2.56,2.5,2.61,2.61,0,0,1-2.59-2.49,2.68,2.68,0,0,1,2.67-2.62A2.61,2.61,0,0,1,205.69,214.82Z" fill="#3b9e66"/><path d="M212.82,212.21a2.68,2.68,0,0,1,2.66,2.45,2.57,2.57,0,0,1-2.4,2.65,2.52,2.52,0,0,1-2.73-2.49A2.6,2.6,0,0,1,212.82,212.21Z" fill="#3b9e66"/><path d="M222.63,212.21a2.61,2.61,0,0,1,2.58,2.5,2.51,2.51,0,0,1-2.44,2.6,2.59,2.59,0,0,1-2.7-2.55A2.68,2.68,0,0,1,222.63,212.21Z" fill="#3b9e66"/><path d="M173.85,212.2a2.71,2.71,0,0,1,2.59,2.53,2.59,2.59,0,0,1-2.67,2.58,2.51,2.51,0,0,1-2.47-2.57A2.61,2.61,0,0,1,173.85,212.2Z" fill="#3b9e66"/><path d="M164,217.31a2.59,2.59,0,0,1-2.5-2.56,2.7,2.7,0,0,1,2.58-2.55,2.61,2.61,0,0,1,2.56,2.71A2.51,2.51,0,0,1,164,217.31Z" fill="#3b9e66"/><path d="M156.91,214.74a2.46,2.46,0,0,1-.61,1.62.27.27,0,0,1-.13.17,1.79,1.79,0,0,1-.28.26h0L152,215.67a1.76,1.76,0,0,1-.18-.75,2.67,2.67,0,0,1,.19-1.13,2.17,2.17,0,0,1,.25-.45,2.88,2.88,0,0,1,.41-.45,2.47,2.47,0,0,1,1.69-.69.49.49,0,0,1,.2,0,.31.31,0,0,1,.19,0,2.13,2.13,0,0,1,.59.16,2.67,2.67,0,0,1,.81.56,1.71,1.71,0,0,1,.37.49A2.36,2.36,0,0,1,156.91,214.74Z" fill="#3b9e66"/><path d="M240.19,190.38a2.59,2.59,0,1,1-5.18.05,2.59,2.59,0,0,1,5.18-.05Z" fill="#3b9e66"/><path d="M259.72,190.39a2.59,2.59,0,1,1-5.18,0,2.59,2.59,0,0,1,5.18,0Z" fill="#3b9e66"/><path d="M276.8,187.83a2.64,2.64,0,0,1,2.45,2.63,2.59,2.59,0,1,1-5.17-.29A2.62,2.62,0,0,1,276.8,187.83Z" fill="#3b9e66"/><path d="M230.42,200.24a2.59,2.59,0,1,1-5.17-.16,2.59,2.59,0,0,1,5.17.16Z" fill="#3b9e66"/><path d="M237.6,202.76a2.71,2.71,0,0,1-2.59-2.7,2.59,2.59,0,0,1,5.18,0A2.7,2.7,0,0,1,237.6,202.76Z" fill="#3b9e66"/><path d="M247.39,197.6a2.58,2.58,0,0,1,2.56,2.49,2.69,2.69,0,0,1-2.61,2.67,2.73,2.73,0,0,1-2.56-2.54A2.57,2.57,0,0,1,247.39,197.6Z" fill="#3b9e66"/><path d="M257.08,202.76a2.71,2.71,0,0,1-2.54-2.74,2.59,2.59,0,0,1,5.18.28A2.74,2.74,0,0,1,257.08,202.76Z" fill="#3b9e66"/><path d="M267,202.76a2.72,2.72,0,0,1-2.65-2.45,2.58,2.58,0,0,1,5.16-.31A2.69,2.69,0,0,1,267,202.76Z" fill="#3b9e66"/><path d="M276.11,197.67l-1.95,1.83A2.53,2.53,0,0,1,276.11,197.67Z" fill="#3b9e66"/><path d="M257,212.52a2.72,2.72,0,0,1-2.5-2.78,2.6,2.6,0,0,1,5.18.35A2.74,2.74,0,0,1,257,212.52Z" fill="#3b9e66"/><path d="M227.76,207.35a2.59,2.59,0,0,1,2.66,2.57,2.59,2.59,0,1,1-5.17,0A2.61,2.61,0,0,1,227.76,207.35Z" fill="#3b9e66"/><path d="M240.19,209.93a2.59,2.59,0,1,1-5.18,0,2.59,2.59,0,0,1,5.18,0Z" fill="#3b9e66"/><path d="M250,210a2.59,2.59,0,1,1-5.17-.11A2.59,2.59,0,0,1,250,210Z" fill="#3b9e66"/><path d="M225.55,234.32a2.48,2.48,0,0,1-1,2,2.55,2.55,0,0,1-1.51.54h-.2a2.31,2.31,0,0,0,1.49-.6l-3.74-1.06a2.51,2.51,0,0,1-.16-.92,2.6,2.6,0,0,1,2.44-2.54.1.1,0,0,1,.07,0A2.72,2.72,0,0,1,225.55,234.32Z" fill="#3b9e66"/><path d="M235.27,234.34a2.53,2.53,0,0,1-2.54,2.49,2.59,2.59,0,0,1-2.6-2.62,2.73,2.73,0,0,1,2.56-2.54A2.63,2.63,0,0,1,235.27,234.34Z" fill="#3b9e66"/><path d="M223,178.37a2.59,2.59,0,1,1,0-5.17,2.65,2.65,0,0,1,2.57,2.5A2.69,2.69,0,0,1,223,178.37Z" fill="#3b9e66"/><path d="M230.42,219.59a2.58,2.58,0,0,1-5.16.15,2.58,2.58,0,0,1,5.16-.15Z" fill="#3b9e66"/><path d="M240.2,219.59a2.6,2.6,0,0,1-5.19.14,2.6,2.6,0,0,1,5.19-.14Z" fill="#3b9e66"/><path d="M250,219.66a2.59,2.59,0,1,1-5.17,0,2.59,2.59,0,0,1,5.17,0Z" fill="#3b9e66"/><path d="M227.88,226.87a2.57,2.57,0,0,1,2.54,2.68,2.58,2.58,0,0,1-5.16-.08A2.57,2.57,0,0,1,227.88,226.87Z" fill="#3b9e66"/><path d="M237.64,226.87a2.58,2.58,0,0,1,2.55,2.49,2.7,2.7,0,0,1-2.62,2.65,2.73,2.73,0,0,1-2.56-2.54A2.58,2.58,0,0,1,237.64,226.87Z" fill="#3b9e66"/><path d="M230,237.85l-3.35-.95a2.55,2.55,0,0,1,3.35.95Z" fill="#3b9e66"/><path d="M244.78,190.29a2.59,2.59,0,0,1,5.17.25,2.59,2.59,0,1,1-5.17-.25Z" fill="#3b9e66"/><path d="M227.76,193a2.72,2.72,0,0,1-2.5-2.59,2.58,2.58,0,1,1,5.16.16A2.73,2.73,0,0,1,227.76,193Z" fill="#3b9e66"/><path d="M267,187.83a2.67,2.67,0,0,1,2.52,2.74,2.59,2.59,0,0,1-5.17-.14A2.64,2.64,0,0,1,267,187.83Z" fill="#3b9e66"/><path d="M286.55,187.84l-2.71,2.56a2.65,2.65,0,0,1,2.57-2.58A.34.34,0,0,1,286.55,187.84Z" fill="#3b9e66"/><path d="M293.5,177a2.62,2.62,0,0,1-2,1.33,2.69,2.69,0,0,1-2.76-2.49.78.78,0,0,1,0-.22.29.29,0,0,1,0-.16.37.37,0,0,0,0,.16v0l4.36,1.25Z" fill="#3b9e66"/><path d="M284.12,175.69a2.59,2.59,0,1,1-5.17.18,3.58,3.58,0,0,1,.05-.58,2.82,2.82,0,0,1,1.74-1.95h0l2.74.81a2.35,2.35,0,0,1,.59,1.31v0A.46.46,0,0,1,284.12,175.69Z" fill="#3b9e66"/><path d="M274.36,175.78a2.59,2.59,0,1,1-5.18,0,2.65,2.65,0,0,1,2.5-2.57A2.69,2.69,0,0,1,274.36,175.78Z" fill="#3b9e66"/><path d="M264.6,175.86a2.59,2.59,0,1,1-2.41-2.65A2.64,2.64,0,0,1,264.6,175.86Z" fill="#3b9e66"/><path d="M254.84,175.78a2.6,2.6,0,0,1-5.19,0,2.66,2.66,0,0,1,2.49-2.58A2.7,2.7,0,0,1,254.84,175.78Z" fill="#3b9e66"/><path d="M242.4,178.37a2.58,2.58,0,1,1,.18-5.16,2.66,2.66,0,0,1,2.5,2.57A2.71,2.71,0,0,1,242.4,178.37Z" fill="#3b9e66"/><path d="M232.8,178.37a2.71,2.71,0,0,1-2.67-2.59,2.65,2.65,0,0,1,2.5-2.57,2.58,2.58,0,1,1,.17,5.16Z" fill="#3b9e66"/><path d="M264.6,195.38a2.59,2.59,0,0,1-5.17-.2,2.59,2.59,0,0,1,5.17.2Z" fill="#3b9e66"/><path d="M254.84,195.3a2.6,2.6,0,0,1-5.19,0,2.72,2.72,0,0,1,2.53-2.56A2.68,2.68,0,0,1,254.84,195.3Z" fill="#3b9e66"/><path d="M245.08,195.34a2.59,2.59,0,0,1-5.18-.12,2.59,2.59,0,0,1,5.18.12Z" fill="#3b9e66"/><path d="M235.31,195.35a2.6,2.6,0,0,1-2.57,2.47,2.58,2.58,0,0,1-2.6-2.61,2.59,2.59,0,0,1,5.17.14Z" fill="#3b9e66"/><path d="M225.55,195.27a2.59,2.59,0,0,1-5.18,0,2.59,2.59,0,0,1,5.18,0Z" fill="#3b9e66"/><path d="M291.71,183l-3,2.8a1.77,1.77,0,0,1,0-.33,2.69,2.69,0,0,1,2.58-2.52A1.47,1.47,0,0,1,291.71,183Z" fill="#3b9e66"/><path d="M281.52,182.94a2.69,2.69,0,0,1,2.61,2.66,2.59,2.59,0,0,1-5.17,0A2.66,2.66,0,0,1,281.52,182.94Z" fill="#3b9e66"/><path d="M271.84,188.06a2.6,2.6,0,0,1-2.66-2.55A2.68,2.68,0,0,1,271.7,183a2.65,2.65,0,0,1,2.66,2.59A2.6,2.6,0,0,1,271.84,188.06Z" fill="#3b9e66"/><path d="M262.08,183a2.66,2.66,0,0,1,2.51,2.73,2.59,2.59,0,0,1-5.17-.14A2.68,2.68,0,0,1,262.08,183Z" fill="#3b9e66"/><path d="M252.24,188.07a2.6,2.6,0,0,1-2.58-2.46,2.59,2.59,0,1,1,5.17,0A2.61,2.61,0,0,1,252.24,188.07Z" fill="#3b9e66"/><path d="M245.07,185.61a2.59,2.59,0,0,1-5.17-.17,2.59,2.59,0,0,1,5.17.17Z" fill="#3b9e66"/><path d="M235.31,185.55a2.59,2.59,0,0,1-5.18-.05,2.59,2.59,0,0,1,5.18.05Z" fill="#3b9e66"/><path d="M225.55,185.55a2.59,2.59,0,0,1-5.18-.05,2.59,2.59,0,0,1,5.18.05Z" fill="#3b9e66"/><path d="M245.08,224.6a2.62,2.62,0,0,1-2.57,2.48,2.53,2.53,0,0,1-2.57-2.62,2.55,2.55,0,0,1,2.53-2.5A2.66,2.66,0,0,1,245.08,224.6Z" fill="#3b9e66"/><path d="M235.27,224.57a2.53,2.53,0,0,1-2.51,2.51,2.6,2.6,0,0,1-2.63-2.59,2.64,2.64,0,0,1,2.72-2.52A2.55,2.55,0,0,1,235.27,224.57Z" fill="#3b9e66"/><path d="M223,227.07a2.51,2.51,0,0,1-2.61-2.57,2.56,2.56,0,0,1,2.5-2.54,2.66,2.66,0,0,1,2.64,2.6A2.6,2.6,0,0,1,223,227.07Z" fill="#3b9e66"/><path d="M274.36,195.34a2.61,2.61,0,0,1-2.56,2.48,2.58,2.58,0,0,1-2.61-2.6,2.59,2.59,0,0,1,5.17.12Z" fill="#3b9e66"/><path d="M281.38,192.71,279,195A2.65,2.65,0,0,1,281.38,192.71Z" fill="#3b9e66"/><path d="M279.25,180.71a2.72,2.72,0,0,1-2.55,2.53,2.58,2.58,0,1,1,2.55-2.53Z" fill="#3b9e66"/><path d="M269.47,180.61a2.58,2.58,0,1,1-2.72-2.53A2.68,2.68,0,0,1,269.47,180.61Z" fill="#3b9e66"/><path d="M257.09,183.25a2.72,2.72,0,0,1-2.55-2.53,2.59,2.59,0,1,1,5.18.07A2.73,2.73,0,0,1,257.09,183.25Z" fill="#3b9e66"/><path d="M247.3,178.08a2.58,2.58,0,1,1-2.52,2.73A2.68,2.68,0,0,1,247.3,178.08Z" fill="#3b9e66"/><path d="M237.68,178.08a2.58,2.58,0,1,1-2.67,2.6A2.69,2.69,0,0,1,237.68,178.08Z" fill="#3b9e66"/><path d="M230.42,180.59a2.58,2.58,0,1,1-2.74-2.5A2.66,2.66,0,0,1,230.42,180.59Z" fill="#3b9e66"/><path d="M264.6,205.05a2.62,2.62,0,0,1-2.51,2.53,2.55,2.55,0,0,1-2.63-2.57,2.59,2.59,0,0,1,2.49-2.55A2.66,2.66,0,0,1,264.6,205.05Z" fill="#3b9e66"/><path d="M270.8,202.67l-1.31,1.24A2.68,2.68,0,0,1,270.8,202.67Z" fill="#3b9e66"/><path d="M286.39,183.24a2.68,2.68,0,0,1-2.55-2.51,2.58,2.58,0,1,1,5.16.05A2.68,2.68,0,0,1,286.39,183.24Z" fill="#3b9e66"/><path d="M252.3,207.58a2.6,2.6,0,0,1-2.64-2.44,2.65,2.65,0,0,1,2.61-2.68A2.59,2.59,0,0,1,254.8,205,2.55,2.55,0,0,1,252.3,207.58Z" fill="#3b9e66"/><path d="M242.43,202.46a2.66,2.66,0,0,1,2.64,2.47,2.59,2.59,0,0,1-2.61,2.65,2.55,2.55,0,0,1-2.53-2.53A2.59,2.59,0,0,1,242.43,202.46Z" fill="#3b9e66"/><path d="M235.27,205a2.55,2.55,0,0,1-2.45,2.61,2.61,2.61,0,0,1-2.69-2.58,2.67,2.67,0,0,1,2.57-2.54A2.58,2.58,0,0,1,235.27,205Z" fill="#3b9e66"/><path d="M225.55,205.08a2.62,2.62,0,0,1-2.58,2.5,2.54,2.54,0,0,1-2.56-2.68,2.59,2.59,0,0,1,2.64-2.44A2.68,2.68,0,0,1,225.55,205.08Z" fill="#3b9e66"/><path d="M252.23,217.32a2.62,2.62,0,0,1-2.58-2.51,2.69,2.69,0,0,1,2.7-2.6,2.61,2.61,0,0,1,2.45,2.63A2.52,2.52,0,0,1,252.23,217.32Z" fill="#3b9e66"/><path d="M242.49,212.2a2.7,2.7,0,0,1,2.58,2.53,2.57,2.57,0,0,1-2.66,2.58,2.52,2.52,0,0,1-2.48-2.57A2.63,2.63,0,0,1,242.49,212.2Z" fill="#3b9e66"/><path d="M232.63,217.31a2.59,2.59,0,0,1-2.5-2.56,2.7,2.7,0,0,1,2.57-2.55,2.61,2.61,0,0,1,2.57,2.71A2.51,2.51,0,0,1,232.63,217.31Z" fill="#3b9e66"/><path d="M225.54,214.74a2.56,2.56,0,0,1-2.48,2.57,2.51,2.51,0,0,1-2.65-2.39A2.61,2.61,0,0,1,223,212.2,2.69,2.69,0,0,1,225.54,214.74Z" fill="#3b9e66"/><path d="M203.08,162.78a2.59,2.59,0,0,1,2.6,2.44,2.53,2.53,0,0,1-2.49,2.71,2.61,2.61,0,0,1-2.65-2.4A2.74,2.74,0,0,1,203.08,162.78Z" fill="#3b9e66"/><path d="M159.12,138.45a2.6,2.6,0,0,1,2.66,2.58,2.58,2.58,0,1,1-5.16,0A2.6,2.6,0,0,1,159.12,138.45Z" fill="#3b9e66"/><path d="M171.41,141.75a2.66,2.66,0,0,1-2.54,1.87,2.75,2.75,0,0,1-2.5-2.62,2.47,2.47,0,0,1,.1-.67Z" fill="#3b9e66"/><path d="M156.91,175.23a2.62,2.62,0,0,1-2.59,2.46,2.53,2.53,0,0,1-2.55-2.66,2.61,2.61,0,0,1,2.55-2.5A2.74,2.74,0,0,1,156.91,175.23Z" fill="#3b9e66"/><path d="M164.16,172.54a2.59,2.59,0,0,1,2.47,2.75,2.52,2.52,0,0,1-2.63,2.4,2.6,2.6,0,0,1-2.51-2.54A2.7,2.7,0,0,1,164.16,172.54Z" fill="#3b9e66"/><path d="M173.79,177.69A2.53,2.53,0,0,1,171.3,175a2.59,2.59,0,0,1,2.61-2.44,2.73,2.73,0,0,1,2.53,2.75A2.62,2.62,0,0,1,173.79,177.69Z" fill="#3b9e66"/><path d="M183.69,172.54a2.57,2.57,0,0,1,2.46,2.76,2.51,2.51,0,0,1-2.63,2.39,2.59,2.59,0,0,1-2.5-2.54A2.7,2.7,0,0,1,183.69,172.54Z" fill="#3b9e66"/><path d="M196,175.19a2.62,2.62,0,0,1-2.56,2.5,2.52,2.52,0,0,1-2.59-2.61,2.58,2.58,0,0,1,2.51-2.54A2.73,2.73,0,0,1,196,175.19Z" fill="#3b9e66"/><path d="M205.68,175.05a2.52,2.52,0,0,1-2.56,2.64,2.62,2.62,0,0,1-2.58-2.48,2.74,2.74,0,0,1,2.61-2.68A2.58,2.58,0,0,1,205.68,175.05Z" fill="#3b9e66"/><path d="M215.49,175.19a2.61,2.61,0,0,1-2.55,2.5,2.52,2.52,0,0,1-2.59-2.61,2.58,2.58,0,0,1,2.51-2.54A2.71,2.71,0,0,1,215.49,175.19Z" fill="#3b9e66"/><path d="M222.75,172.54a2.55,2.55,0,0,1,2.45,2.76,2.51,2.51,0,0,1-2.63,2.39,2.6,2.6,0,0,1-2.5-2.55A2.7,2.7,0,0,1,222.75,172.54Z" fill="#3b9e66"/><path d="M156.91,165.42a2.6,2.6,0,0,1-2.54,2.51,2.51,2.51,0,0,1-2.6-2.59,2.62,2.62,0,0,1,2.51-2.56A2.72,2.72,0,0,1,156.91,165.42Z" fill="#3b9e66"/><path d="M225.21,165.41a2.52,2.52,0,0,1-2.5,2.52,2.59,2.59,0,0,1-2.64-2.58,2.72,2.72,0,0,1,2.71-2.57A2.63,2.63,0,0,1,225.21,165.41Z" fill="#3b9e66"/><path d="M166.63,165.45a2.52,2.52,0,0,1-2.54,2.48,2.59,2.59,0,0,1-2.6-2.62,2.73,2.73,0,0,1,2.57-2.53A2.62,2.62,0,0,1,166.63,165.45Z" fill="#3b9e66"/><path d="M173.81,162.78a2.73,2.73,0,0,1,2.63,2.65,2.61,2.61,0,0,1-2.55,2.5,2.51,2.51,0,0,1-2.59-2.42A2.63,2.63,0,0,1,173.81,162.78Z" fill="#3b9e66"/><path d="M183.67,162.78a2.63,2.63,0,0,1,2.48,2.76,2.52,2.52,0,0,1-2.62,2.39A2.6,2.6,0,0,1,181,165.4,2.72,2.72,0,0,1,183.67,162.78Z" fill="#3b9e66"/><path d="M193.32,167.93a2.52,2.52,0,0,1-2.5-2.52,2.63,2.63,0,0,1,2.62-2.63,2.71,2.71,0,0,1,2.52,2.75A2.6,2.6,0,0,1,193.32,167.93Z" fill="#3b9e66"/><path d="M212.89,162.78a2.72,2.72,0,0,1,2.6,2.68,2.6,2.6,0,0,1-2.57,2.47,2.53,2.53,0,0,1-2.57-2.45A2.63,2.63,0,0,1,212.89,162.78Z" fill="#3b9e66"/><path d="M161.78,150.69a2.58,2.58,0,1,1-5.16.15,2.58,2.58,0,0,1,5.16-.15Z" fill="#3b9e66"/><path d="M171.56,150.7a2.6,2.6,0,0,1-5.19.13,2.6,2.6,0,0,1,5.19-.13Z" fill="#3b9e66"/><path d="M181.31,150.77a2.59,2.59,0,1,1-5.17,0,2.59,2.59,0,0,1,5.17,0Z" fill="#3b9e66"/><path d="M185.9,150.67a2.59,2.59,0,0,1,5.18.19,2.59,2.59,0,0,1-5.18-.19Z" fill="#3b9e66"/><path d="M220.36,170.36a2.59,2.59,0,0,1-5.17-.17,2.59,2.59,0,0,1,5.17.17Z" fill="#3b9e66"/><path d="M210.61,170.26a2.59,2.59,0,0,1-5.18,0,2.59,2.59,0,0,1,5.18,0Z" fill="#3b9e66"/><path d="M198.18,167.73a2.57,2.57,0,0,1,2.66,2.56,2.59,2.59,0,0,1-5.17.15A2.57,2.57,0,0,1,198.18,167.73Z" fill="#3b9e66"/><path d="M191.08,170.31a2.59,2.59,0,0,1-5.18-.07,2.59,2.59,0,0,1,5.18.07Z" fill="#3b9e66"/><path d="M181.31,170.26a2.59,2.59,0,1,1-5.17,0,2.59,2.59,0,0,1,5.17,0Z" fill="#3b9e66"/><path d="M200.83,150.59a2.68,2.68,0,0,1-2.49,2.76,2.71,2.71,0,0,1-2.67-2.41,2.53,2.53,0,0,1,.73-1.95l4.37,1.26h0C200.8,150.36,200.82,150.48,200.83,150.59Z" fill="#3b9e66"/><path d="M209.56,152.78a2.39,2.39,0,0,1-1.53.57,2.66,2.66,0,0,1-2.42-1.71Z" fill="#3b9e66"/><path d="M159.24,158a2.57,2.57,0,0,1,2.54,2.68,2.58,2.58,0,0,1-5.16-.08A2.57,2.57,0,0,1,159.24,158Z" fill="#3b9e66"/><path d="M169,158a2.58,2.58,0,0,1,2.55,2.5,2.68,2.68,0,0,1-2.62,2.64,2.71,2.71,0,0,1-2.56-2.53A2.59,2.59,0,0,1,169,158Z" fill="#3b9e66"/><path d="M178.79,158a2.58,2.58,0,0,1,2.52,2.52,2.59,2.59,0,1,1-5.17.07A2.59,2.59,0,0,1,178.79,158Z" fill="#3b9e66"/><path d="M185.9,160.57a2.59,2.59,0,0,1,5.18-.1,2.59,2.59,0,0,1-5.18.1Z" fill="#3b9e66"/><path d="M198.18,158a2.58,2.58,0,0,1,2.66,2.57,2.59,2.59,0,1,1-5.17,0A2.58,2.58,0,0,1,198.18,158Z" fill="#3b9e66"/><path d="M210.61,160.53a2.59,2.59,0,0,1-5.18,0,2.59,2.59,0,0,1,5.18,0Z" fill="#3b9e66"/><path d="M169,172.86a2.71,2.71,0,0,1-2.59-2.49,2.6,2.6,0,0,1,5.19-.19A2.7,2.7,0,0,1,169,172.86Z" fill="#3b9e66"/><path d="M217.74,163.11a2.67,2.67,0,0,1-2.54-2.53,2.58,2.58,0,1,1,5.16.07A2.69,2.69,0,0,1,217.74,163.11Z" fill="#3b9e66"/><path d="M159.28,167.73a2.56,2.56,0,0,1,2.5,2.72,2.58,2.58,0,0,1-5.16-.17A2.56,2.56,0,0,1,159.28,167.73Z" fill="#3b9e66"/><path d="M224.71,157.15a2.44,2.44,0,0,1-1.9,1,.39.39,0,0,1-.15,0,2.6,2.6,0,0,1-2.57-2.36l.34.09Z" fill="#3b9e66"/><path d="M215.5,155.73a2.64,2.64,0,0,1-2.6,2.46,2.53,2.53,0,0,1-2.55-2.64,2.5,2.5,0,0,1,1.34-2.15l3.43,1A2.55,2.55,0,0,1,215.5,155.73Z" fill="#3b9e66"/><path d="M203.08,153.07a2.56,2.56,0,0,1,.1,5.11,2.6,2.6,0,0,1-2.63-2.41A2.64,2.64,0,0,1,203.08,153.07Z" fill="#3b9e66"/><path d="M193.32,153.07a2.66,2.66,0,0,1,2.65,2.6,2.61,2.61,0,0,1-2.53,2.51,2.53,2.53,0,0,1-2.62-2.58A2.56,2.56,0,0,1,193.32,153.07Z" fill="#3b9e66"/><path d="M186.16,155.63a2.53,2.53,0,0,1-2.47,2.55,2.59,2.59,0,0,1-2.67-2.54,2.65,2.65,0,0,1,2.67-2.57A2.56,2.56,0,0,1,186.16,155.63Z" fill="#3b9e66"/><path d="M176.44,155.7a2.61,2.61,0,0,1-2.57,2.48,2.51,2.51,0,0,1-2.57-2.61,2.56,2.56,0,0,1,2.53-2.51A2.66,2.66,0,0,1,176.44,155.7Z" fill="#3b9e66"/><path d="M166.63,155.68a2.52,2.52,0,0,1-2.51,2.5,2.6,2.6,0,0,1-2.63-2.59,2.65,2.65,0,0,1,2.72-2.52A2.55,2.55,0,0,1,166.63,155.68Z" fill="#3b9e66"/><path d="M154.38,158.18a2.52,2.52,0,0,1-2.61-2.58,2.55,2.55,0,0,1,2.5-2.53,2.65,2.65,0,0,1,2.64,2.6A2.6,2.6,0,0,1,154.38,158.18Z" fill="#3b9e66"/><path d="M156.5,137.46a1.07,1.07,0,0,1-.13.19,1.32,1.32,0,0,1-.25.28,1.79,1.79,0,0,1-.37.31,2.3,2.3,0,0,1-.4.23,1.08,1.08,0,0,1-.42.13.66.66,0,0,1-.28.05.78.78,0,0,1-.3,0,2.62,2.62,0,0,1-1-.2,2.26,2.26,0,0,1-.82-.54.81.81,0,0,1-.18-.21,1.25,1.25,0,0,1-.15-.19,2.53,2.53,0,0,1-.42-1.46Z" fill="#3b9e66"/><path d="M156.7,137.1a1.35,1.35,0,0,1-.18.36h0A2.64,2.64,0,0,0,156.7,137.1Z" fill="#3b9e66"/><path d="M186.14,146a2.47,2.47,0,0,1-2.56,2.39,2.57,2.57,0,0,1-2.56-2.49,2.47,2.47,0,0,1,.36-1.28Z" fill="#3b9e66"/><path d="M194.06,148.31a2.73,2.73,0,0,1-.76.1,2.46,2.46,0,0,1-1.83-.85Z" fill="#3b9e66"/><path d="M173.85,143.31a2.7,2.7,0,0,1,2.59,2.53,2.59,2.59,0,0,1-2.67,2.58,2.51,2.51,0,0,1-2.47-2.57A2.61,2.61,0,0,1,173.85,143.31Z" fill="#3b9e66"/><path d="M164,148.42a2.59,2.59,0,0,1-2.5-2.57,2.7,2.7,0,0,1,2.58-2.54,2.6,2.6,0,0,1,2.56,2.7A2.52,2.52,0,0,1,164,148.42Z" fill="#3b9e66"/><path d="M156.9,145.84a2.56,2.56,0,0,1-2.48,2.58,2.51,2.51,0,0,1-2.64-2.4,2.59,2.59,0,0,1,2.54-2.71A2.67,2.67,0,0,1,156.9,145.84Z" fill="#3b9e66"/><path d="M225.55,175.23a2.62,2.62,0,0,1-2.59,2.46,2.52,2.52,0,0,1-2.55-2.66,2.61,2.61,0,0,1,2.55-2.5A2.74,2.74,0,0,1,225.55,175.23Z" fill="#3b9e66"/><path d="M232.8,172.54a2.57,2.57,0,0,1,2.46,2.75,2.51,2.51,0,0,1-2.62,2.4,2.6,2.6,0,0,1-2.51-2.54A2.7,2.7,0,0,1,232.8,172.54Z" fill="#3b9e66"/><path d="M242.43,177.69a2.53,2.53,0,0,1-2.49-2.71,2.58,2.58,0,0,1,2.61-2.44,2.73,2.73,0,0,1,2.53,2.75A2.62,2.62,0,0,1,242.43,177.69Z" fill="#3b9e66"/><path d="M252.33,172.54a2.57,2.57,0,0,1,2.46,2.76,2.51,2.51,0,0,1-2.63,2.39,2.59,2.59,0,0,1-2.5-2.54A2.7,2.7,0,0,1,252.33,172.54Z" fill="#3b9e66"/><path d="M264.6,175.19a2.61,2.61,0,0,1-2.55,2.5,2.52,2.52,0,0,1-2.59-2.61,2.58,2.58,0,0,1,2.51-2.54A2.72,2.72,0,0,1,264.6,175.19Z" fill="#3b9e66"/><path d="M274.32,175.05a2.52,2.52,0,0,1-2.56,2.64,2.62,2.62,0,0,1-2.58-2.48,2.73,2.73,0,0,1,2.6-2.68A2.59,2.59,0,0,1,274.32,175.05Z" fill="#3b9e66"/><path d="M284.13,175.2a.82.82,0,0,1,0,.26v0a2.6,2.6,0,0,1-2.51,2.2,2.5,2.5,0,0,1-2.58-2.4,1.41,1.41,0,0,1,0-.21,2.58,2.58,0,0,1,.95-2h0l.79.23h0l2.74.81.45.13A2.36,2.36,0,0,1,284.13,175.2Z" fill="#3b9e66"/><path d="M293.12,176.92a2.43,2.43,0,0,1-1.92.77,2.67,2.67,0,0,1-2.44-2Z" fill="#3b9e66"/><path d="M225.55,165.42a2.6,2.6,0,0,1-2.54,2.51,2.51,2.51,0,0,1-2.6-2.59,2.62,2.62,0,0,1,2.51-2.56A2.72,2.72,0,0,1,225.55,165.42Z" fill="#3b9e66"/><path d="M235.27,165.45a2.52,2.52,0,0,1-2.54,2.48,2.59,2.59,0,0,1-2.6-2.62,2.72,2.72,0,0,1,2.56-2.53A2.62,2.62,0,0,1,235.27,165.45Z" fill="#3b9e66"/><path d="M242.45,162.78a2.73,2.73,0,0,1,2.63,2.65,2.61,2.61,0,0,1-2.55,2.5,2.51,2.51,0,0,1-2.59-2.42A2.63,2.63,0,0,1,242.45,162.78Z" fill="#3b9e66"/><path d="M254.74,165.83a2.46,2.46,0,0,1-2.57,2.1,2.59,2.59,0,0,1-2.51-2.53,2.5,2.5,0,0,1,.21-1Z" fill="#3b9e66"/><path d="M262,167.93a2.48,2.48,0,0,1-1.31-.39Z" fill="#3b9e66"/><path d="M277.87,172.52a2.38,2.38,0,0,1-1.1.35,2.72,2.72,0,0,1-2.33-1.35Z" fill="#3b9e66"/><path d="M269.47,170.29a2.58,2.58,0,0,1-5.16.15,2.47,2.47,0,0,1,.52-1.69l4.63,1.33A1.34,1.34,0,0,1,269.47,170.29Z" fill="#3b9e66"/><path d="M259.72,170.31a2.59,2.59,0,0,1-5.18-.07,2.59,2.59,0,0,1,5.18.07Z" fill="#3b9e66"/><path d="M250,170.26a2.59,2.59,0,1,1-5.17,0,2.59,2.59,0,0,1,5.17,0Z" fill="#3b9e66"/><path d="M230.42,160.65a2.59,2.59,0,0,1-5.17-.07,2.59,2.59,0,0,1,2.37-2.59h0a1.06,1.06,0,0,1,.25,0,2.36,2.36,0,0,1,1.52.55A2.49,2.49,0,0,1,230.42,160.65Z" fill="#3b9e66"/><path d="M239.93,161.57a2.66,2.66,0,0,1-2.36,1.54,2.71,2.71,0,0,1-2.56-2.53,1.64,1.64,0,0,1,0-.44Z" fill="#3b9e66"/><path d="M237.6,172.86a2.71,2.71,0,0,1-2.59-2.49,2.59,2.59,0,0,1,5.18-.19A2.69,2.69,0,0,1,237.6,172.86Z" fill="#3b9e66"/><path d="M227.92,167.73a2.56,2.56,0,0,1,2.5,2.72,2.58,2.58,0,0,1-5.16-.17A2.56,2.56,0,0,1,227.92,167.73Z" fill="#3b9e66"/><path d="M224.94,157.24a2.63,2.63,0,0,1-1.92.95.78.78,0,0,1-.21,0,2.49,2.49,0,0,1-2.38-2.25l4.28,1.23Z" fill="#3b9e66"/><path d="M73.64,190.47a2.74,2.74,0,0,1-1.89,2.41h0l-2.56-.73a2.63,2.63,0,0,1-.72-2,2.6,2.6,0,0,1,5.18.3Z" fill="#3b9e66"/><path d="M19.93,175.7a2.63,2.63,0,0,1-1.1,2.15l-.87-.24L15.81,177l3.25-3.12a2.6,2.6,0,0,1,.85,1.64A.58.58,0,0,1,19.93,175.7Z" fill="#3b9e66"/><path d="M63.87,190.56a.15.15,0,0,1,0,.09L59,189.27a2.57,2.57,0,0,1,4.88,1.29Z" fill="#3b9e66"/><path d="M80.8,193a2.72,2.72,0,0,1-2.58-2.51,2.59,2.59,0,1,1,5.17,0A2.72,2.72,0,0,1,80.8,193Z" fill="#3b9e66"/><path d="M88.27,175.7a2.59,2.59,0,0,1-5.17.16,2.64,2.64,0,0,1,2.41-2.65A2.69,2.69,0,0,1,88.27,175.7Z" fill="#3b9e66"/><path d="M75.94,173.2a2.64,2.64,0,0,1,2.57,2.49,2.59,2.59,0,1,1-2.57-2.49Z" fill="#3b9e66"/><path d="M68.75,175.78a2.59,2.59,0,1,1-5.18,0,2.65,2.65,0,0,1,2.49-2.57A2.69,2.69,0,0,1,68.75,175.78Z" fill="#3b9e66"/><path d="M59,175.86a2.59,2.59,0,1,1-2.41-2.65A2.64,2.64,0,0,1,59,175.86Z" fill="#3b9e66"/><path d="M49.23,175.78a2.6,2.6,0,0,1-5.19,0,2.66,2.66,0,0,1,2.49-2.58A2.7,2.7,0,0,1,49.23,175.78Z" fill="#3b9e66"/><path d="M36.79,178.37a2.58,2.58,0,1,1,.18-5.16,2.66,2.66,0,0,1,2.5,2.57A2.72,2.72,0,0,1,36.79,178.37Z" fill="#3b9e66"/><path d="M27.19,178.37a2.71,2.71,0,0,1-2.67-2.59,2.64,2.64,0,0,1,2.5-2.57,2.58,2.58,0,1,1,.17,5.16Z" fill="#3b9e66"/><path d="M88.28,185.59a2.62,2.62,0,0,1-2.57,2.48,2.59,2.59,0,0,1-2.61-2.61,2.59,2.59,0,0,1,5.18.13Z" fill="#3b9e66"/><path d="M75.91,182.94a2.69,2.69,0,0,1,2.61,2.66,2.59,2.59,0,0,1-5.17,0A2.66,2.66,0,0,1,75.91,182.94Z" fill="#3b9e66"/><path d="M66.23,188.06a2.59,2.59,0,0,1-2.66-2.55A2.68,2.68,0,0,1,66.09,183a2.66,2.66,0,0,1,2.66,2.59A2.6,2.6,0,0,1,66.23,188.06Z" fill="#3b9e66"/><path d="M56.47,183A2.66,2.66,0,0,1,59,185.68a2.59,2.59,0,0,1-5.17-.14A2.68,2.68,0,0,1,56.47,183Z" fill="#3b9e66"/><path d="M49.22,185.61a2.57,2.57,0,0,1-.18.82L44.1,185a2.7,2.7,0,0,1,2.53-2.1A2.67,2.67,0,0,1,49.22,185.61Z" fill="#3b9e66"/><path d="M38.21,183.36,36.75,183h.12A2.31,2.31,0,0,1,38.21,183.36Z" fill="#3b9e66"/><path d="M78.46,194.8l-4.39-1.25A2.55,2.55,0,0,1,76,192.7,2.71,2.71,0,0,1,78.46,194.8Z" fill="#3b9e66"/><path d="M88.25,195.52a2.39,2.39,0,0,1-1,1.77l-3.61-1-.33-.09h0a2.37,2.37,0,0,1-.15-1.12,2.68,2.68,0,0,1,2.71-2.33h0a.3.3,0,0,1,.13,0A2.63,2.63,0,0,1,88.25,195.52Z" fill="#3b9e66"/><path d="M73.63,180.71A2.59,2.59,0,1,1,71,178.08,2.7,2.7,0,0,1,73.63,180.71Z" fill="#3b9e66"/><path d="M63.86,180.61a2.58,2.58,0,1,1-2.72-2.53A2.69,2.69,0,0,1,63.86,180.61Z" fill="#3b9e66"/><path d="M51.48,183.25a2.72,2.72,0,0,1-2.55-2.53,2.66,2.66,0,0,1,2.62-2.63,2.69,2.69,0,0,1,2.56,2.7A2.73,2.73,0,0,1,51.48,183.25Z" fill="#3b9e66"/><path d="M41.69,178.08a2.58,2.58,0,1,1-2.52,2.73A2.68,2.68,0,0,1,41.69,178.08Z" fill="#3b9e66"/><path d="M34.57,180.82a2.46,2.46,0,0,1-.54,1.36l-4.61-1.31a1.34,1.34,0,0,1,0-.2,2.58,2.58,0,1,1,5.16.15Z" fill="#3b9e66"/><path d="M24.47,179.46l-3.51-1a2.49,2.49,0,0,1,1.1-.38A2.63,2.63,0,0,1,24.47,179.46Z" fill="#3b9e66"/><path d="M80.78,183.24a2.68,2.68,0,0,1-2.55-2.51,2.58,2.58,0,1,1,5.16.05A2.69,2.69,0,0,1,80.78,183.24Z" fill="#3b9e66"/><path d="M103.22,190.38a2.59,2.59,0,1,1-5.18.05,2.59,2.59,0,0,1,5.18-.05Z" fill="#3b9e66"/><path d="M122.75,190.39a2.59,2.59,0,1,1-5.18,0,2.59,2.59,0,0,1,5.18,0Z" fill="#3b9e66"/><path d="M139.83,187.83a2.62,2.62,0,0,1,2.44,2.63,2.59,2.59,0,1,1-5.16-.29A2.62,2.62,0,0,1,139.83,187.83Z" fill="#3b9e66"/><path d="M93.13,199l-3.55-1A2.49,2.49,0,0,1,91,197.6,2.57,2.57,0,0,1,93.13,199Z" fill="#3b9e66"/><path d="M103.23,200.08a2.53,2.53,0,0,1-.56,1.59l-4.62-1.31a1.51,1.51,0,0,1,0-.3,2.6,2.6,0,0,1,5.2,0Z" fill="#3b9e66"/><path d="M110.42,197.6a2.58,2.58,0,0,1,2.56,2.49,2.59,2.59,0,1,1-5.17.13A2.57,2.57,0,0,1,110.42,197.6Z" fill="#3b9e66"/><path d="M120.11,202.76a2.71,2.71,0,0,1-2.54-2.74,2.59,2.59,0,0,1,5.18.28A2.74,2.74,0,0,1,120.11,202.76Z" fill="#3b9e66"/><path d="M130,202.76a2.72,2.72,0,0,1-2.64-2.45,2.58,2.58,0,0,1,5.16-.31A2.7,2.7,0,0,1,130,202.76Z" fill="#3b9e66"/><path d="M139.6,197.6a2.58,2.58,0,0,1,2.67,2.57,2.59,2.59,0,1,1-5.18,0A2.59,2.59,0,0,1,139.6,197.6Z" fill="#3b9e66"/><path d="M149.4,202.76a2.71,2.71,0,0,1-2.54-2.74,2.59,2.59,0,0,1,5.17.28A2.7,2.7,0,0,1,149.4,202.76Z" fill="#3b9e66"/><path d="M149.51,207.35a2.59,2.59,0,0,1,2.52,2.54,2.58,2.58,0,1,1-5.16-.13A2.59,2.59,0,0,1,149.51,207.35Z" fill="#3b9e66"/><path d="M142.28,210a2.75,2.75,0,0,1-1.87,2.36h0a1.88,1.88,0,0,1-.73.13,2.47,2.47,0,0,1-1.82-.86,2.53,2.53,0,0,1-.74-1.86,2.59,2.59,0,0,1,5.18.23Z" fill="#3b9e66"/><path d="M132.51,209.82a1.77,1.77,0,0,1,0,.33l-4.87-1.4a2.59,2.59,0,0,1,4.89,1.07Z" fill="#3b9e66"/><path d="M86,178.37a2.59,2.59,0,1,1,0-5.17,2.65,2.65,0,0,1,2.57,2.5A2.69,2.69,0,0,1,86,178.37Z" fill="#3b9e66"/><path d="M107.81,190.29a2.59,2.59,0,0,1,5.17.25,2.59,2.59,0,1,1-5.17-.25Z" fill="#3b9e66"/><path d="M90.79,193a2.73,2.73,0,0,1-2.51-2.59,2.59,2.59,0,1,1,5.17.16A2.73,2.73,0,0,1,90.79,193Z" fill="#3b9e66"/><path d="M130,187.83a2.65,2.65,0,0,1,2.51,2.74,2.58,2.58,0,0,1-5.16-.14A2.64,2.64,0,0,1,130,187.83Z" fill="#3b9e66"/><path d="M149.44,193a2.72,2.72,0,0,1-2.58-2.51,2.59,2.59,0,1,1,5.17,0A2.72,2.72,0,0,1,149.44,193Z" fill="#3b9e66"/><path d="M156.91,175.7a2.59,2.59,0,0,1-5.17.16,2.64,2.64,0,0,1,2.41-2.65A2.7,2.7,0,0,1,156.91,175.7Z" fill="#3b9e66"/><path d="M144.58,173.2a2.65,2.65,0,0,1,2.57,2.49,2.59,2.59,0,1,1-2.57-2.49Z" fill="#3b9e66"/><path d="M137.39,175.78a2.59,2.59,0,1,1-5.18,0,2.64,2.64,0,0,1,2.49-2.57A2.69,2.69,0,0,1,137.39,175.78Z" fill="#3b9e66"/><path d="M127.63,175.86a2.59,2.59,0,1,1-2.41-2.65A2.64,2.64,0,0,1,127.63,175.86Z" fill="#3b9e66"/><path d="M117.87,175.78a2.6,2.6,0,0,1-5.19,0,2.66,2.66,0,0,1,2.49-2.58A2.7,2.7,0,0,1,117.87,175.78Z" fill="#3b9e66"/><path d="M105.43,178.37a2.72,2.72,0,0,1-2.51-2.59,2.69,2.69,0,0,1,2.69-2.57,2.66,2.66,0,0,1,2.5,2.57A2.72,2.72,0,0,1,105.43,178.37Z" fill="#3b9e66"/><path d="M95.83,178.37a2.71,2.71,0,0,1-2.67-2.59,2.64,2.64,0,0,1,2.5-2.57,2.58,2.58,0,1,1,.17,5.16Z" fill="#3b9e66"/><path d="M127.63,195.38a2.59,2.59,0,0,1-5.17-.2,2.59,2.59,0,0,1,5.17.2Z" fill="#3b9e66"/><path d="M117.87,195.3a2.6,2.6,0,0,1-5.19,0,2.72,2.72,0,0,1,2.52-2.56A2.68,2.68,0,0,1,117.87,195.3Z" fill="#3b9e66"/><path d="M108.1,195.34a2.59,2.59,0,0,1-5.17-.12,2.59,2.59,0,0,1,5.17.12Z" fill="#3b9e66"/><path d="M98.34,195.35a2.59,2.59,0,0,1-5.18-.14,2.59,2.59,0,0,1,5.18.14Z" fill="#3b9e66"/><path d="M88.58,195.27a2.48,2.48,0,0,1-1.13,2.08,2.44,2.44,0,0,1-1.36.46h-.2a2.32,2.32,0,0,0,1.33-.52l-3.61-1a2.28,2.28,0,0,1-.21-1,2.66,2.66,0,0,1,2.43-2.58h0A2.68,2.68,0,0,1,88.58,195.27Z" fill="#3b9e66"/><path d="M156.91,185.59a2.59,2.59,0,0,1-5.17-.13,2.59,2.59,0,0,1,5.17.13Z" fill="#3b9e66"/><path d="M144.55,182.94a2.69,2.69,0,0,1,2.61,2.66,2.59,2.59,0,0,1-5.18,0A2.67,2.67,0,0,1,144.55,182.94Z" fill="#3b9e66"/><path d="M134.87,188.06a2.59,2.59,0,0,1-2.66-2.55,2.59,2.59,0,0,1,5.18,0A2.6,2.6,0,0,1,134.87,188.06Z" fill="#3b9e66"/><path d="M125.11,183a2.66,2.66,0,0,1,2.51,2.73,2.59,2.59,0,0,1-5.17-.14A2.68,2.68,0,0,1,125.11,183Z" fill="#3b9e66"/><path d="M115.27,188.07a2.6,2.6,0,0,1-2.58-2.46,2.59,2.59,0,1,1,5.17,0A2.62,2.62,0,0,1,115.27,188.07Z" fill="#3b9e66"/><path d="M108.1,185.61a2.59,2.59,0,0,1-5.17-.17,2.59,2.59,0,0,1,5.17.17Z" fill="#3b9e66"/><path d="M98.34,185.55a2.59,2.59,0,0,1-5.18-.05,2.59,2.59,0,0,1,5.18.05Z" fill="#3b9e66"/><path d="M88.58,185.55a2.59,2.59,0,0,1-5.18-.05,2.59,2.59,0,0,1,5.18.05Z" fill="#3b9e66"/><path d="M137.39,195.34a2.61,2.61,0,0,1-2.56,2.48,2.58,2.58,0,0,1-2.61-2.6,2.59,2.59,0,0,1,5.17.12Z" fill="#3b9e66"/><path d="M144.63,192.7a2.67,2.67,0,0,1,2.52,2.73,2.59,2.59,0,0,1-5.18-.13A2.69,2.69,0,0,1,144.63,192.7Z" fill="#3b9e66"/><path d="M151.76,195a2.58,2.58,0,1,1,2.24,2.77A2.59,2.59,0,0,1,151.76,195Z" fill="#3b9e66"/><path d="M142.27,180.71a2.59,2.59,0,1,1-2.63-2.63A2.7,2.7,0,0,1,142.27,180.71Z" fill="#3b9e66"/><path d="M132.5,180.61a2.58,2.58,0,1,1-2.72-2.53A2.69,2.69,0,0,1,132.5,180.61Z" fill="#3b9e66"/><path d="M120.12,183.25a2.72,2.72,0,0,1-2.55-2.53,2.66,2.66,0,0,1,2.62-2.63,2.69,2.69,0,0,1,2.56,2.7A2.73,2.73,0,0,1,120.12,183.25Z" fill="#3b9e66"/><path d="M110.33,178.08a2.58,2.58,0,0,1,.12,5.16,2.58,2.58,0,1,1-.12-5.16Z" fill="#3b9e66"/><path d="M100.7,178.08a2.58,2.58,0,1,1-2.66,2.6A2.7,2.7,0,0,1,100.7,178.08Z" fill="#3b9e66"/><path d="M93.45,180.59a2.58,2.58,0,1,1-2.75-2.5A2.67,2.67,0,0,1,93.45,180.59Z" fill="#3b9e66"/><path d="M127.63,205.05a2.62,2.62,0,0,1-2.51,2.53,2.55,2.55,0,0,1-2.63-2.57,2.59,2.59,0,0,1,2.49-2.55A2.67,2.67,0,0,1,127.63,205.05Z" fill="#3b9e66"/><path d="M137.35,205a2.54,2.54,0,0,1-2.46,2.6,2.6,2.6,0,0,1-2.68-2.59,2.69,2.69,0,0,1,2.58-2.54A2.6,2.6,0,0,1,137.35,205Z" fill="#3b9e66"/><path d="M147.16,205.08a2.62,2.62,0,0,1-2.58,2.5A2.54,2.54,0,0,1,142,204.9a2.59,2.59,0,0,1,2.64-2.44A2.68,2.68,0,0,1,147.16,205.08Z" fill="#3b9e66"/><path d="M154.26,202.46a2.59,2.59,0,0,1,2.62,2.47,2.56,2.56,0,0,1-2.41,2.65,2.63,2.63,0,0,1-2.74-2.53A2.69,2.69,0,0,1,154.26,202.46Z" fill="#3b9e66"/><path d="M149.42,183.24a2.58,2.58,0,1,1,2.61-2.46A2.67,2.67,0,0,1,149.42,183.24Z" fill="#3b9e66"/><path d="M117.83,205a2.73,2.73,0,0,1-.17.92l-4.92-1.39a2.7,2.7,0,0,1,2.56-2.09A2.61,2.61,0,0,1,117.83,205Z" fill="#3b9e66"/><path d="M106.84,202.86l-1.38-.41A2.4,2.4,0,0,1,106.84,202.86Z" fill="#3b9e66"/><path d="M147.09,214.3l-4.38-1.25a2.51,2.51,0,0,1,1.78-.84A2.68,2.68,0,0,1,147.09,214.3Z" fill="#3b9e66"/><path d="M156.88,214.71a2.58,2.58,0,0,1-.33,1.31,2.13,2.13,0,0,1-.25.34.27.27,0,0,1-.13.17,1.79,1.79,0,0,1-.28.26h0L152,215.67a.47.47,0,0,0,.06.2.41.41,0,0,1-.1-.21h0a2.3,2.3,0,0,1,.06-1.87,2.17,2.17,0,0,1,.25-.45,2.88,2.88,0,0,1,.41-.45,2.71,2.71,0,0,1,1.67-.68.82.82,0,0,1,.22,0,.31.31,0,0,1,.19,0,2.13,2.13,0,0,1,.59.16,2.67,2.67,0,0,1,.81.56,1.71,1.71,0,0,1,.37.49A2.43,2.43,0,0,1,156.88,214.71Z" fill="#3b9e66"/><path d="M66.1,162.78a2.6,2.6,0,0,1,2.61,2.44,2.53,2.53,0,0,1-2.49,2.71,2.61,2.61,0,0,1-2.65-2.4A2.74,2.74,0,0,1,66.1,162.78Z" fill="#3b9e66"/><path d="M73.64,121.58A2.75,2.75,0,0,1,71,124.12Z" fill="#3b9e66"/><path d="M63.87,131.11a2.71,2.71,0,0,1-2.53,2.75,2.52,2.52,0,0,1-.48,0l3-2.86S63.87,131.06,63.87,131.11Z" fill="#3b9e66"/><path d="M71,128.7a2.6,2.6,0,0,1,2.67,2.57,2.6,2.6,0,1,1-5.19,0A2.59,2.59,0,0,1,71,128.7Z" fill="#3b9e66"/><path d="M80.76,133.86a2.7,2.7,0,0,1-2.54-2.73,2.59,2.59,0,0,1,5.17.27A2.7,2.7,0,0,1,80.76,133.86Z" fill="#3b9e66"/><path d="M80.87,138.45A2.6,2.6,0,0,1,83.39,141a2.58,2.58,0,1,1-5.16-.13A2.6,2.6,0,0,1,80.87,138.45Z" fill="#3b9e66"/><path d="M68.45,140.91a2.59,2.59,0,0,1,5.18.22,2.59,2.59,0,1,1-5.18-.22Z" fill="#3b9e66"/><path d="M61.26,138.45a2.61,2.61,0,0,1,2.61,2.47,2.59,2.59,0,1,1-5.17,0A2.59,2.59,0,0,1,61.26,138.45Z" fill="#3b9e66"/><path d="M54.11,141.2a2.75,2.75,0,0,1-2.68,2.42,2,2,0,0,1-.65-.13L54,140.38A2.25,2.25,0,0,1,54.11,141.2Z" fill="#3b9e66"/><path d="M19.94,175.23a1.36,1.36,0,0,1,0,.29A2.62,2.62,0,0,1,18,177.61L15.81,177l3.25-3.12.29-.28A2.46,2.46,0,0,1,19.94,175.23Z" fill="#3b9e66"/><path d="M27.19,172.54a2.57,2.57,0,0,1,2.46,2.75,2.51,2.51,0,0,1-2.62,2.4,2.59,2.59,0,0,1-2.51-2.54A2.7,2.7,0,0,1,27.19,172.54Z" fill="#3b9e66"/><path d="M36.82,177.69a2.54,2.54,0,0,1-2.5-2.71,2.59,2.59,0,0,1,2.61-2.44,2.71,2.71,0,0,1,2.53,2.75A2.6,2.6,0,0,1,36.82,177.69Z" fill="#3b9e66"/><path d="M46.72,172.54a2.57,2.57,0,0,1,2.46,2.76,2.51,2.51,0,0,1-2.63,2.39A2.6,2.6,0,0,1,44,175.15,2.72,2.72,0,0,1,46.72,172.54Z" fill="#3b9e66"/><path d="M59,175.19a2.61,2.61,0,0,1-2.55,2.5,2.52,2.52,0,0,1-2.59-2.61,2.58,2.58,0,0,1,2.51-2.54A2.72,2.72,0,0,1,59,175.19Z" fill="#3b9e66"/><path d="M68.71,175.05a2.52,2.52,0,0,1-2.56,2.64,2.62,2.62,0,0,1-2.58-2.48,2.73,2.73,0,0,1,2.6-2.68A2.59,2.59,0,0,1,68.71,175.05Z" fill="#3b9e66"/><path d="M78.52,175.19a2.61,2.61,0,0,1-2.55,2.5,2.52,2.52,0,0,1-2.59-2.61,2.58,2.58,0,0,1,2.51-2.54A2.71,2.71,0,0,1,78.52,175.19Z" fill="#3b9e66"/><path d="M85.78,172.54a2.57,2.57,0,0,1,2.45,2.76,2.52,2.52,0,0,1-2.63,2.39,2.6,2.6,0,0,1-2.5-2.55A2.7,2.7,0,0,1,85.78,172.54Z" fill="#3b9e66"/><path d="M88.24,165.41a2.52,2.52,0,0,1-2.5,2.52,2.59,2.59,0,0,1-2.64-2.58,2.71,2.71,0,0,1,2.7-2.57A2.64,2.64,0,0,1,88.24,165.41Z" fill="#3b9e66"/><path d="M29.67,165.45a2.53,2.53,0,0,1-2.54,2.48,2.49,2.49,0,0,1-1.41-.43l3.57-3.42A2.45,2.45,0,0,1,29.67,165.45Z" fill="#3b9e66"/><path d="M36.84,162.78a2.73,2.73,0,0,1,2.63,2.65,2.61,2.61,0,0,1-2.55,2.5,2.53,2.53,0,0,1-2.6-2.42A2.64,2.64,0,0,1,36.84,162.78Z" fill="#3b9e66"/><path d="M46.7,162.78a2.63,2.63,0,0,1,2.48,2.76,2.52,2.52,0,0,1-2.62,2.39A2.6,2.6,0,0,1,44,165.4,2.72,2.72,0,0,1,46.7,162.78Z" fill="#3b9e66"/><path d="M56.35,167.93a2.52,2.52,0,0,1-2.5-2.52,2.62,2.62,0,0,1,2.61-2.63A2.71,2.71,0,0,1,59,165.53,2.61,2.61,0,0,1,56.35,167.93Z" fill="#3b9e66"/><path d="M75.92,162.78a2.72,2.72,0,0,1,2.6,2.68A2.6,2.6,0,0,1,76,167.93a2.52,2.52,0,0,1-2.57-2.45A2.63,2.63,0,0,1,75.92,162.78Z" fill="#3b9e66"/><path d="M44.33,150.77a2.68,2.68,0,0,1-2.49,2.58,2.12,2.12,0,0,1-1.1-.25l3.41-3.26A2.44,2.44,0,0,1,44.33,150.77Z" fill="#3b9e66"/><path d="M48.92,150.67a2.6,2.6,0,0,1,5.19.19,2.6,2.6,0,0,1-5.19-.19Z" fill="#3b9e66"/><path d="M83.39,170.36a2.59,2.59,0,0,1-5.17-.17,2.59,2.59,0,0,1,5.17.17Z" fill="#3b9e66"/><path d="M73.64,170.26a2.6,2.6,0,0,1-5.19,0,2.6,2.6,0,0,1,5.19,0Z" fill="#3b9e66"/><path d="M61.21,167.73a2.55,2.55,0,0,1,2.65,2.56,2.58,2.58,0,0,1-5.16.15A2.57,2.57,0,0,1,61.21,167.73Z" fill="#3b9e66"/><path d="M54.11,170.31a2.59,2.59,0,0,1-5.18-.07,2.59,2.59,0,0,1,5.18.07Z" fill="#3b9e66"/><path d="M44.34,170.26a2.59,2.59,0,1,1-5.17,0,2.59,2.59,0,0,1,5.17,0Z" fill="#3b9e66"/><path d="M61.37,153.35a2.71,2.71,0,0,1-2.67-2.41,2.59,2.59,0,0,1,5.16-.35A2.68,2.68,0,0,1,61.37,153.35Z" fill="#3b9e66"/><path d="M71,148.22a2.58,2.58,0,0,1,2.61,2.62,2.6,2.6,0,0,1-5.19-.15A2.59,2.59,0,0,1,71,148.22Z" fill="#3b9e66"/><path d="M80.85,148.22a2.57,2.57,0,0,1,2.54,2.68,2.59,2.59,0,0,1-5.17-.09A2.57,2.57,0,0,1,80.85,148.22Z" fill="#3b9e66"/><path d="M34.59,160.47A2.71,2.71,0,0,1,32,163.11a2.44,2.44,0,0,1-1.25-.38l3.56-3.41A2.52,2.52,0,0,1,34.59,160.47Z" fill="#3b9e66"/><path d="M41.81,158a2.58,2.58,0,0,1,2.53,2.52,2.59,2.59,0,1,1-5.17.07A2.58,2.58,0,0,1,41.81,158Z" fill="#3b9e66"/><path d="M48.93,160.57a2.59,2.59,0,0,1,5.18-.1,2.59,2.59,0,0,1-5.18.1Z" fill="#3b9e66"/><path d="M61.21,158a2.57,2.57,0,0,1,2.65,2.57,2.58,2.58,0,1,1-5.16,0A2.57,2.57,0,0,1,61.21,158Z" fill="#3b9e66"/><path d="M73.63,160.53a2.59,2.59,0,0,1-5.18,0,2.59,2.59,0,0,1,5.18,0Z" fill="#3b9e66"/><path d="M32,172.86a2.71,2.71,0,0,1-2.59-2.49,2.59,2.59,0,0,1,5.18-.19A2.69,2.69,0,0,1,32,172.86Z" fill="#3b9e66"/><path d="M80.77,163.11a2.69,2.69,0,0,1-2.55-2.53,2.59,2.59,0,1,1,5.17.07A2.69,2.69,0,0,1,80.77,163.11Z" fill="#3b9e66"/><path d="M24.81,170.46a2.7,2.7,0,0,1-2.67,2.41,2.48,2.48,0,0,1-1.44-.56l3.64-3.48A2.43,2.43,0,0,1,24.81,170.46Z" fill="#3b9e66"/><path d="M80.8,124.11a2.72,2.72,0,0,1-2.58-2.51,2.59,2.59,0,1,1,5.17,0A2.71,2.71,0,0,1,80.8,124.11Z" fill="#3b9e66"/><path d="M85.69,158.18a2.61,2.61,0,0,1-2.59-2.45,2.66,2.66,0,0,1,2.58-2.67,2.57,2.57,0,0,1,2.56,2.66A2.52,2.52,0,0,1,85.69,158.18Z" fill="#3b9e66"/><path d="M88,117.68a2.54,2.54,0,0,1-2.18,1.47.25.25,0,0,1-.13,0,2.59,2.59,0,0,1-2.61-2.61,1.35,1.35,0,0,1,0-.29l.29.08Z" fill="#3b9e66"/><path d="M78.48,116.94a2.56,2.56,0,0,1-2.31,2.21Z" fill="#3b9e66"/><path d="M75.93,153.06a2.67,2.67,0,0,1,2.59,2.66,2.61,2.61,0,0,1-2.58,2.46,2.51,2.51,0,0,1-2.56-2.63A2.56,2.56,0,0,1,75.93,153.06Z" fill="#3b9e66"/><path d="M66.11,153.07a2.56,2.56,0,1,1,.09,5.11,2.59,2.59,0,0,1-2.62-2.41A2.64,2.64,0,0,1,66.11,153.07Z" fill="#3b9e66"/><path d="M56.35,153.07a2.65,2.65,0,0,1,2.64,2.6,2.6,2.6,0,0,1-2.53,2.51,2.52,2.52,0,0,1-2.61-2.58A2.55,2.55,0,0,1,56.35,153.07Z" fill="#3b9e66"/><path d="M49.19,155.63a2.54,2.54,0,0,1-2.47,2.55A2.6,2.6,0,0,1,44,155.64a2.66,2.66,0,0,1,2.68-2.57A2.56,2.56,0,0,1,49.19,155.63Z" fill="#3b9e66"/><path d="M39.46,155.71a2.63,2.63,0,0,1-2.56,2.48,2.6,2.6,0,0,1-1.18-.28l3.48-3.33A2.17,2.17,0,0,1,39.46,155.71Z" fill="#3b9e66"/><path d="M68.75,126.45a2.61,2.61,0,0,1-2.56,2.48.78.78,0,0,1-.21,0l2.76-2.64A1,1,0,0,1,68.75,126.45Z" fill="#3b9e66"/><path d="M76,123.81a2.66,2.66,0,0,1,2.52,2.73,2.59,2.59,0,0,1-5.18-.13A2.68,2.68,0,0,1,76,123.81Z" fill="#3b9e66"/><path d="M83.12,126.15a2.58,2.58,0,0,1,5.14.47,2.61,2.61,0,0,1-2.9,2.29A2.58,2.58,0,0,1,83.12,126.15Z" fill="#3b9e66"/><path d="M59,136.16a2.62,2.62,0,0,1-2.52,2.53,2.51,2.51,0,0,1-.62-.07l3.1-3A3,3,0,0,1,59,136.16Z" fill="#3b9e66"/><path d="M68.71,136.09a2.55,2.55,0,0,1-2.46,2.6,2.61,2.61,0,0,1-2.68-2.59,2.69,2.69,0,0,1,2.59-2.54A2.59,2.59,0,0,1,68.71,136.09Z" fill="#3b9e66"/><path d="M78.52,136.18a2.63,2.63,0,0,1-2.58,2.51A2.55,2.55,0,0,1,73.38,136,2.58,2.58,0,0,1,76,133.57,2.67,2.67,0,0,1,78.52,136.18Z" fill="#3b9e66"/><path d="M85.62,133.56A2.59,2.59,0,0,1,88.24,136a2.54,2.54,0,0,1-2.41,2.65,2.62,2.62,0,0,1-2.74-2.52A2.7,2.7,0,0,1,85.62,133.56Z" fill="#3b9e66"/><path d="M49.19,146a2.52,2.52,0,0,1-2.58,2.46,2.29,2.29,0,0,1-.82-.15l3.27-3.13A2.51,2.51,0,0,1,49.19,146Z" fill="#3b9e66"/><path d="M56.33,148.42a2.52,2.52,0,0,1-2.48-2.57,2.61,2.61,0,0,1,2.54-2.54A2.69,2.69,0,0,1,59,146,2.61,2.61,0,0,1,56.33,148.42Z" fill="#3b9e66"/><path d="M68.71,145.92a2.52,2.52,0,0,1-2.55,2.5,2.6,2.6,0,0,1-2.59-2.48,2.68,2.68,0,0,1,2.67-2.62A2.58,2.58,0,0,1,68.71,145.92Z" fill="#3b9e66"/><path d="M75.85,143.31a2.68,2.68,0,0,1,2.66,2.45,2.56,2.56,0,0,1-2.4,2.65,2.53,2.53,0,0,1-2.74-2.49A2.61,2.61,0,0,1,75.85,143.31Z" fill="#3b9e66"/><path d="M85.66,143.31a2.61,2.61,0,0,1,2.58,2.51,2.52,2.52,0,0,1-2.44,2.6,2.59,2.59,0,0,1-2.7-2.55A2.69,2.69,0,0,1,85.66,143.31Z" fill="#3b9e66"/><path d="M134.74,162.78a2.6,2.6,0,0,1,2.61,2.44,2.54,2.54,0,0,1-2.5,2.71,2.61,2.61,0,0,1-2.64-2.4A2.73,2.73,0,0,1,134.74,162.78Z" fill="#3b9e66"/><path d="M103.16,122a2.58,2.58,0,0,1-5.11-.51,2.16,2.16,0,0,1,.18-.92Z" fill="#3b9e66"/><path d="M93.45,131.34a2.59,2.59,0,1,1-5.17-.15,2.59,2.59,0,0,1,5.17.15Z" fill="#3b9e66"/><path d="M100.62,133.86A2.7,2.7,0,0,1,98,131.17a2.59,2.59,0,0,1,5.18,0A2.7,2.7,0,0,1,100.62,133.86Z" fill="#3b9e66"/><path d="M110.42,128.7a2.59,2.59,0,0,1,2.56,2.5,2.59,2.59,0,1,1-5.17.13A2.58,2.58,0,0,1,110.42,128.7Z" fill="#3b9e66"/><path d="M120.11,133.86a2.7,2.7,0,0,1-2.54-2.73,2.59,2.59,0,0,1,5.18.27A2.73,2.73,0,0,1,120.11,133.86Z" fill="#3b9e66"/><path d="M132.51,131.11a2.59,2.59,0,1,1-5.17.31,2.46,2.46,0,0,1,.93-2.12l4.1,1.19A2.54,2.54,0,0,1,132.51,131.11Z" fill="#3b9e66"/><path d="M141.44,133.11a2.53,2.53,0,0,1-1.69.75,2.67,2.67,0,0,1-2.55-2Z" fill="#3b9e66"/><path d="M149.51,138.45A2.6,2.6,0,0,1,152,141a2.58,2.58,0,1,1-5.16-.13A2.6,2.6,0,0,1,149.51,138.45Z" fill="#3b9e66"/><path d="M137.09,140.91a2.59,2.59,0,0,1,5.18.22,2.59,2.59,0,1,1-5.18-.22Z" fill="#3b9e66"/><path d="M129.9,138.45a2.6,2.6,0,0,1,2.6,2.47,2.59,2.59,0,1,1-5.17,0A2.61,2.61,0,0,1,129.9,138.45Z" fill="#3b9e66"/><path d="M120.07,143.63a2.74,2.74,0,0,1-2.5-2.79,2.6,2.6,0,0,1,5.18.36A2.76,2.76,0,0,1,120.07,143.63Z" fill="#3b9e66"/><path d="M90.78,138.45A2.6,2.6,0,0,1,93.45,141a2.59,2.59,0,1,1-5.17,0A2.61,2.61,0,0,1,90.78,138.45Z" fill="#3b9e66"/><path d="M103.22,141A2.59,2.59,0,1,1,98,141a2.59,2.59,0,0,1,5.18,0Z" fill="#3b9e66"/><path d="M113,141.08a2.59,2.59,0,1,1-5.17-.11,2.59,2.59,0,0,1,5.17.11Z" fill="#3b9e66"/><path d="M88.58,175.23A2.62,2.62,0,0,1,86,177.69,2.52,2.52,0,0,1,83.44,175a2.61,2.61,0,0,1,2.55-2.5A2.74,2.74,0,0,1,88.58,175.23Z" fill="#3b9e66"/><path d="M95.83,172.54a2.57,2.57,0,0,1,2.46,2.75,2.51,2.51,0,0,1-2.62,2.4,2.59,2.59,0,0,1-2.51-2.54A2.7,2.7,0,0,1,95.83,172.54Z" fill="#3b9e66"/><path d="M105.46,177.69A2.54,2.54,0,0,1,103,175a2.59,2.59,0,0,1,2.61-2.44,2.71,2.71,0,0,1,2.53,2.75A2.61,2.61,0,0,1,105.46,177.69Z" fill="#3b9e66"/><path d="M115.36,172.54a2.57,2.57,0,0,1,2.46,2.76,2.52,2.52,0,0,1-2.63,2.39,2.6,2.6,0,0,1-2.51-2.54A2.72,2.72,0,0,1,115.36,172.54Z" fill="#3b9e66"/><path d="M127.63,175.19a2.61,2.61,0,0,1-2.55,2.5,2.52,2.52,0,0,1-2.59-2.61,2.58,2.58,0,0,1,2.51-2.54A2.72,2.72,0,0,1,127.63,175.19Z" fill="#3b9e66"/><path d="M137.35,175.05a2.52,2.52,0,0,1-2.56,2.64,2.62,2.62,0,0,1-2.58-2.48,2.73,2.73,0,0,1,2.6-2.68A2.59,2.59,0,0,1,137.35,175.05Z" fill="#3b9e66"/><path d="M147.16,175.19a2.61,2.61,0,0,1-2.55,2.5,2.53,2.53,0,0,1-2.6-2.61,2.59,2.59,0,0,1,2.52-2.54A2.71,2.71,0,0,1,147.16,175.19Z" fill="#3b9e66"/><path d="M154.42,172.54a2.57,2.57,0,0,1,2.45,2.76,2.52,2.52,0,0,1-2.63,2.39,2.6,2.6,0,0,1-2.5-2.55A2.7,2.7,0,0,1,154.42,172.54Z" fill="#3b9e66"/><path d="M88.58,165.42A2.61,2.61,0,0,1,86,167.93a2.53,2.53,0,0,1-2.61-2.59,2.64,2.64,0,0,1,2.51-2.56A2.73,2.73,0,0,1,88.58,165.42Z" fill="#3b9e66"/><path d="M156.88,165.41a2.52,2.52,0,0,1-2.5,2.52,2.59,2.59,0,0,1-2.64-2.58,2.71,2.71,0,0,1,2.7-2.57A2.64,2.64,0,0,1,156.88,165.41Z" fill="#3b9e66"/><path d="M98.3,165.45a2.52,2.52,0,0,1-2.54,2.48,2.59,2.59,0,0,1-2.6-2.62,2.72,2.72,0,0,1,2.56-2.53A2.63,2.63,0,0,1,98.3,165.45Z" fill="#3b9e66"/><path d="M105.48,162.78a2.73,2.73,0,0,1,2.63,2.65,2.61,2.61,0,0,1-2.55,2.5,2.52,2.52,0,0,1-2.6-2.42A2.64,2.64,0,0,1,105.48,162.78Z" fill="#3b9e66"/><path d="M115.34,162.78a2.63,2.63,0,0,1,2.48,2.76,2.52,2.52,0,0,1-2.62,2.39,2.6,2.6,0,0,1-2.52-2.53A2.72,2.72,0,0,1,115.34,162.78Z" fill="#3b9e66"/><path d="M125,167.93a2.52,2.52,0,0,1-2.5-2.52,2.62,2.62,0,0,1,2.61-2.63,2.71,2.71,0,0,1,2.53,2.75A2.61,2.61,0,0,1,125,167.93Z" fill="#3b9e66"/><path d="M144.56,162.78a2.72,2.72,0,0,1,2.6,2.68,2.6,2.6,0,0,1-2.58,2.47,2.52,2.52,0,0,1-2.56-2.45A2.63,2.63,0,0,1,144.56,162.78Z" fill="#3b9e66"/><path d="M93.45,150.69a2.59,2.59,0,1,1-5.17.15,2.59,2.59,0,0,1,5.17-.15Z" fill="#3b9e66"/><path d="M103.22,150.7a2.59,2.59,0,0,1-5.18.13,2.59,2.59,0,0,1,5.18-.13Z" fill="#3b9e66"/><path d="M113,150.77a2.7,2.7,0,0,1-2.5,2.58,2.67,2.67,0,0,1-2.67-2.59,2.59,2.59,0,0,1,5.17,0Z" fill="#3b9e66"/><path d="M117.56,150.67a2.6,2.6,0,0,1,5.19.19,2.6,2.6,0,0,1-5.19-.19Z" fill="#3b9e66"/><path d="M152,170.36a2.59,2.59,0,0,1-5.17-.17,2.59,2.59,0,0,1,5.17.17Z" fill="#3b9e66"/><path d="M142.27,170.26a2.59,2.59,0,0,1-5.18,0,2.59,2.59,0,0,1,5.18,0Z" fill="#3b9e66"/><path d="M129.85,167.73a2.55,2.55,0,0,1,2.65,2.56,2.58,2.58,0,0,1-5.16.15A2.57,2.57,0,0,1,129.85,167.73Z" fill="#3b9e66"/><path d="M122.75,170.31a2.59,2.59,0,0,1-5.18-.07,2.59,2.59,0,0,1,5.18.07Z" fill="#3b9e66"/><path d="M113,170.26a2.69,2.69,0,0,1-2.49,2.6,2.66,2.66,0,0,1-2.68-2.57,2.59,2.59,0,0,1,5.17,0Z" fill="#3b9e66"/><path d="M130,153.35a2.71,2.71,0,0,1-2.67-2.41,2.59,2.59,0,0,1,5.16-.35A2.68,2.68,0,0,1,130,153.35Z" fill="#3b9e66"/><path d="M139.67,148.22a2.57,2.57,0,0,1,2.6,2.62,2.59,2.59,0,0,1-5.18-.15A2.59,2.59,0,0,1,139.67,148.22Z" fill="#3b9e66"/><path d="M149.49,148.22A2.57,2.57,0,0,1,152,150.9a2.59,2.59,0,0,1-5.17-.09A2.57,2.57,0,0,1,149.49,148.22Z" fill="#3b9e66"/><path d="M90.91,158a2.58,2.58,0,0,1,2.54,2.68,2.59,2.59,0,0,1-5.17-.08A2.58,2.58,0,0,1,90.91,158Z" fill="#3b9e66"/><path d="M100.67,158a2.58,2.58,0,0,1,2.55,2.5,2.59,2.59,0,0,1-5.18.11A2.59,2.59,0,0,1,100.67,158Z" fill="#3b9e66"/><path d="M110.45,158a2.58,2.58,0,0,1,2.53,2.52,2.59,2.59,0,1,1-5.17.07A2.58,2.58,0,0,1,110.45,158Z" fill="#3b9e66"/><path d="M117.57,160.57a2.59,2.59,0,0,1,5.18-.1,2.59,2.59,0,0,1-5.18.1Z" fill="#3b9e66"/><path d="M129.85,158a2.57,2.57,0,0,1,2.65,2.57,2.58,2.58,0,1,1-5.16,0A2.57,2.57,0,0,1,129.85,158Z" fill="#3b9e66"/><path d="M142.27,160.53a2.59,2.59,0,0,1-5.18,0,2.59,2.59,0,0,1,5.18,0Z" fill="#3b9e66"/><path d="M100.63,172.86A2.71,2.71,0,0,1,98,170.37a2.59,2.59,0,0,1,5.18-.19A2.69,2.69,0,0,1,100.63,172.86Z" fill="#3b9e66"/><path d="M149.41,163.11a2.69,2.69,0,0,1-2.55-2.53,2.59,2.59,0,1,1,5.17.07A2.7,2.7,0,0,1,149.41,163.11Z" fill="#3b9e66"/><path d="M91,167.73a2.57,2.57,0,0,1,2.5,2.72,2.59,2.59,0,0,1-5.17-.17A2.58,2.58,0,0,1,91,167.73Z" fill="#3b9e66"/><path d="M110.33,124.12h-.15a2.48,2.48,0,0,1-1-.32Z" fill="#3b9e66"/><path d="M90.79,124.11a2.72,2.72,0,0,1-2.51-2.58,2.59,2.59,0,1,1,5.17.15A2.73,2.73,0,0,1,90.79,124.11Z" fill="#3b9e66"/><path d="M154.33,158.18a2.62,2.62,0,0,1-2.6-2.45,2.68,2.68,0,0,1,2.59-2.67,2.57,2.57,0,0,1,2.56,2.66A2.52,2.52,0,0,1,154.33,158.18Z" fill="#3b9e66"/><path d="M126.11,128.68a2.33,2.33,0,0,1-1.25.25,2.67,2.67,0,0,1-2-1.2Z" fill="#3b9e66"/><path d="M117.86,126.29v.11a2.59,2.59,0,0,1-5.18,0,2.41,2.41,0,0,1,.5-1.43l4.66,1.35Z" fill="#3b9e66"/><path d="M108.1,126.45a2.59,2.59,0,0,1-5.17-.13,2.59,2.59,0,0,1,5.17.13Z" fill="#3b9e66"/><path d="M98.34,126.46a2.62,2.62,0,0,1-2.58,2.47,2.59,2.59,0,0,1-2.6-2.62,2.59,2.59,0,0,1,5.18.15Z" fill="#3b9e66"/><path d="M88.58,126.37a2.59,2.59,0,0,1-5.18,0,2.59,2.59,0,0,1,5.18,0Z" fill="#3b9e66"/><path d="M88.29,117.74a2.59,2.59,0,0,1-2.23,1.43.82.82,0,0,1-.22,0,2.57,2.57,0,0,1-2.44-2.54.77.77,0,0,1,0-.26L88,117.68Z" fill="#3b9e66"/><path d="M144.57,153.06a2.67,2.67,0,0,1,2.59,2.66,2.61,2.61,0,0,1-2.58,2.46,2.51,2.51,0,0,1-2.56-2.63A2.56,2.56,0,0,1,144.57,153.06Z" fill="#3b9e66"/><path d="M134.75,153.07a2.56,2.56,0,1,1,.09,5.11,2.59,2.59,0,0,1-2.62-2.41A2.64,2.64,0,0,1,134.75,153.07Z" fill="#3b9e66"/><path d="M125,153.07a2.65,2.65,0,0,1,2.64,2.6,2.6,2.6,0,0,1-2.53,2.51,2.51,2.51,0,0,1-2.61-2.58A2.55,2.55,0,0,1,125,153.07Z" fill="#3b9e66"/><path d="M117.83,155.63a2.54,2.54,0,0,1-2.47,2.55,2.6,2.6,0,0,1-2.68-2.54,2.65,2.65,0,0,1,2.68-2.57A2.56,2.56,0,0,1,117.83,155.63Z" fill="#3b9e66"/><path d="M108.1,155.7a2.6,2.6,0,0,1-2.56,2.48,2.52,2.52,0,0,1-2.58-2.61,2.57,2.57,0,0,1,2.53-2.51A2.65,2.65,0,0,1,108.1,155.7Z" fill="#3b9e66"/><path d="M98.3,155.68a2.52,2.52,0,0,1-2.51,2.5,2.6,2.6,0,0,1-2.63-2.59,2.65,2.65,0,0,1,2.72-2.52A2.55,2.55,0,0,1,98.3,155.68Z" fill="#3b9e66"/><path d="M86.05,158.18a2.56,2.56,0,0,1-.12-5.11,2.66,2.66,0,0,1,2.65,2.6A2.6,2.6,0,0,1,86.05,158.18Z" fill="#3b9e66"/><path d="M127.63,136.16a2.62,2.62,0,0,1-2.51,2.53,2.55,2.55,0,0,1-2.63-2.57,2.6,2.6,0,0,1,2.49-2.56A2.68,2.68,0,0,1,127.63,136.16Z" fill="#3b9e66"/><path d="M137.35,136.09a2.55,2.55,0,0,1-2.46,2.6,2.61,2.61,0,0,1-2.68-2.59,2.69,2.69,0,0,1,2.58-2.54A2.59,2.59,0,0,1,137.35,136.09Z" fill="#3b9e66"/><path d="M147.15,136.18a2.6,2.6,0,0,1-2.57,2.51A2.55,2.55,0,0,1,142,136a2.58,2.58,0,0,1,1.65-2.26l2.89.84A2.42,2.42,0,0,1,147.15,136.18Z" fill="#3b9e66"/><path d="M156.5,137.46a1.07,1.07,0,0,1-.13.19,1.32,1.32,0,0,1-.25.28,1.79,1.79,0,0,1-.37.31,2.3,2.3,0,0,1-.4.23,1.08,1.08,0,0,1-.42.13.66.66,0,0,1-.28.05.53.53,0,0,1-.18,0h-.12a2.62,2.62,0,0,1-1-.2,2.54,2.54,0,0,1-.82-.54.81.81,0,0,1-.18-.21,1.25,1.25,0,0,1-.15-.19,2.4,2.4,0,0,1-.47-1.39.22.22,0,0,1,0-.08,1.26,1.26,0,0,1,0-.33,2,2,0,0,0,0,.25v.09Z" fill="#3b9e66"/><path d="M115.33,138.69a2.61,2.61,0,0,1-2.64-2.44,2.67,2.67,0,0,1,2.6-2.69,2.6,2.6,0,0,1,2.54,2.56A2.55,2.55,0,0,1,115.33,138.69Z" fill="#3b9e66"/><path d="M105.46,133.56a2.66,2.66,0,0,1,2.63,2.47,2.6,2.6,0,0,1-2.6,2.66,2.56,2.56,0,0,1-2.53-2.54A2.6,2.6,0,0,1,105.46,133.56Z" fill="#3b9e66"/><path d="M98.3,136.08a2.55,2.55,0,0,1-2.45,2.6,2.59,2.59,0,0,1-2.69-2.57,2.68,2.68,0,0,1,2.57-2.55A2.61,2.61,0,0,1,98.3,136.08Z" fill="#3b9e66"/><path d="M88.58,136.18A2.63,2.63,0,0,1,86,138.69a2.56,2.56,0,1,1,.08-5.12A2.67,2.67,0,0,1,88.58,136.18Z" fill="#3b9e66"/><path d="M115.25,148.42a2.6,2.6,0,0,1-2.57-2.5,2.68,2.68,0,0,1,2.69-2.6,2.6,2.6,0,0,1,2.46,2.62A2.53,2.53,0,0,1,115.25,148.42Z" fill="#3b9e66"/><path d="M125,148.42a2.52,2.52,0,0,1-2.48-2.57,2.61,2.61,0,0,1,2.54-2.54,2.69,2.69,0,0,1,2.6,2.7A2.61,2.61,0,0,1,125,148.42Z" fill="#3b9e66"/><path d="M137.35,145.92a2.52,2.52,0,0,1-2.55,2.5,2.6,2.6,0,0,1-2.59-2.48,2.68,2.68,0,0,1,2.67-2.62A2.58,2.58,0,0,1,137.35,145.92Z" fill="#3b9e66"/><path d="M144.49,143.31a2.68,2.68,0,0,1,2.66,2.45,2.57,2.57,0,0,1-2.4,2.65,2.53,2.53,0,0,1-2.74-2.49A2.61,2.61,0,0,1,144.49,143.31Z" fill="#3b9e66"/><path d="M154.3,143.31a2.61,2.61,0,0,1,2.58,2.51,2.52,2.52,0,0,1-2.44,2.6,2.59,2.59,0,0,1-2.7-2.55A2.69,2.69,0,0,1,154.3,143.31Z" fill="#3b9e66"/><path d="M105.51,143.31a2.69,2.69,0,0,1,2.59,2.53,2.59,2.59,0,0,1-2.67,2.58,2.52,2.52,0,0,1-2.47-2.57A2.62,2.62,0,0,1,105.51,143.31Z" fill="#3b9e66"/><path d="M95.66,148.42a2.59,2.59,0,0,1-2.5-2.57,2.7,2.7,0,0,1,2.57-2.54,2.59,2.59,0,0,1,2.56,2.7A2.51,2.51,0,0,1,95.66,148.42Z" fill="#3b9e66"/><path d="M88.57,145.84a2.58,2.58,0,0,1-2.48,2.58,2.52,2.52,0,0,1-2.65-2.4A2.6,2.6,0,0,1,86,143.31,2.68,2.68,0,0,1,88.57,145.84Z" fill="#3b9e66"/><path d="M59,202.75c1.07.67.82,1.09.08,1.72a2.62,2.62,0,0,0,0,3.39c.22.25.51.61.28.83-1,1-.64,3.1-2.61,3.38a.76.76,0,0,0-.63.78c0,.74.08,1.38-.93,1.61-.45.11,0,.6.17.88s.28.59,0,.87a.57.57,0,0,1-.77,0,10.1,10.1,0,0,0-1.22-.46c-.74-.37-1.19-.24-1.5.54s-.65.93-1.22.28c-.35-.4-.73-.22-1.09-.05-1.08.49-2.11.72-3-.37-.16-.19-.32-.21-.49,0s-.22.26-.23.26c-1.25-1-2.21,1.09-3.45.32-.37-.23-.54.17-.7.46a1,1,0,0,1-1.4.51c-.62-.34-.56-.9-.34-1.47s.5-.87.38-1.36,0-1.41-1.08-.93a.72.72,0,0,1-1-.82,2.71,2.71,0,0,0-.49-2.44c-.71-1.05-.65-2.48-1.72-3.33a.28.28,0,0,1-.12-.2,6.93,6.93,0,0,0-.64-3.4,6,6,0,0,1-.3-.85c-.19-.57-1-1.14-.3-1.85-.58-.46-.66-1.27-1.2-1.74s-.89-.59-.43-1.24c.21-.3-.13-.28-.29-.32s-.42-.28-.24-.41c.77-.56.8-1.36.94-2.18.09-.52.71-.57,1.2-.62s.89,0,.76-.62-.1-1.19-.8-1.15c-.87,0-1-.32-.75-1a.68.68,0,0,0-.19-.66c-.68-.76-.27-1.53-.26-2.38a18,18,0,0,1,.21-3.85c.18-.77-.17-1.53.8-2,.62-.31.57-.89,0-1.21-1.27-.67-1.06-1.18.07-1.73a.61.61,0,0,0,.3-.91c-.67-1.17-.08-1.94.77-2.69.35-.3,1.23-.65.1-1.2-.34-.16-.13-.58.16-.79s.61-.37.9-.59a.52.52,0,0,0,.25-.62c-.09-.24-.32-.18-.51-.15a.8.8,0,0,1-1-.65.89.89,0,0,1,.66-1.11c.72-.29.83-1.07,1.2-1.52.81-1,.51-1.59.11-2.47a1.79,1.79,0,0,1,.09-1.22c.42-.73.06-1.07-.3-1.61-.58-.88.54-.81.84-1.17,0-.41-.35-.43-.54-.61s-.31-.67,0-.67c.76,0,1.25-.78,2-.64,1,.19,1.42-.27,1.65-1.11s.68-1.21,1.4-.41,1.27-.32,1.86.33c0-.53-.34-.7-.49-1s-.51-.59-.27-1,.54-.28.86-.19c.52.15.76-.43,1.42-.39a3.59,3.59,0,0,1,2.38.82c.3.26.45,0,.64-.23.69-.88,1.27-.92,1.83-.05.25.37.38.42.72.2a.74.74,0,0,1,1.07.1,1.15,1.15,0,0,1,.05,1.25c-.18.43-1,.79-.65,1.14.56.56.83,1.37,1.56,1.75a3,3,0,0,1,.83.45c.59.6,1,.57,1.33-.23.18-.44.66-.56,1-.81s.67-.38,1-.09-.12.58-.19.88A5,5,0,0,1,56,165.06a.42.42,0,0,0-.14.54c.14.23.35.14.52.05,1.24-.68,1.39.7,2,1.14.32.25-.35.56-.73.63-.93.18-1.93,0-2.79.51-.1.06-.19.13-.43.31a4.64,4.64,0,0,1,2.52,1.09c.44.42.79,0,1-.39s.47-.72,1-.49.35.65.23,1-.08.61-.24.8c-.89,1-1.63,2-.4,3.24-.63,1.11.24,1.69.83,2.39a1,1,0,0,1,.05,1.14c-.15.33-.65.68-.16,1s.75,0,1.07-.29c.15-.12.27-.29.55-.21.11.87-1.21,1.07-1,1.71.28.93-.57,1.25-.76,2,2-.07,2.49,1.82,3.68,2.79.56.45-.62.72-.81,1.18s1.23.49.57,1.24c-.35.39-1,.34-1.45.51-.21.08-.5.14-.5.44s.23.29.42.35l.11,0c1.09.16-.2,1.21.48,1.39,1.05.28.48.7.41,1.34a2.06,2.06,0,0,1-1.54,2.07c-.51.17-.41.67-.13,1a11.56,11.56,0,0,1,1.19,2c.46.81,1,1.46-.26,2-.31.13-.24.38-.07.58.61.73.25,1.42,0,2.14s-1,1.1-.15,1.83c.25.23-.15.48-.44.5s-.85,0-1.5,0" fill="#d6eade"/><path d="M209.89,220.73c-.15-.35-.68-.47-.45-.69.41-.39.7.19,1.12.4,0-.61.3-.77.81-.62s.31-.17.33-.38-.1-.53.18-.65.36.26.54.34a2.16,2.16,0,0,0,1.19.27c.51-.09,1.17,0,1.45-.69.14-.34.41-.21.55,0s.39.37.65,0,.4-.4.83-.07a3.06,3.06,0,0,0,1.44.35,2.29,2.29,0,0,1,1.68.82,1.3,1.3,0,0,0,.87.54,11.55,11.55,0,0,1,2.18.84,3,3,0,0,1,1.06.88c1,1,.51,2.47,1.34,3.47,0,0,0,.08,0,.13.13.55,1,.47,1,.95s-.25.88.09,1.31a.36.36,0,0,1,0,.48,2.09,2.09,0,0,0,.25,3,1.21,1.21,0,0,1-.31,2.07.72.72,0,0,0-.41.69c0,.54.06,1.08.09,1.62a3.44,3.44,0,0,1-2.11,3.38c-.09,0-.2.06-.23.13-.42.79-1.24.39-1.78.64a14.69,14.69,0,0,0-1.62.55.68.68,0,0,1-.84,0,1.14,1.14,0,0,0-1.22-.1,3.5,3.5,0,0,1-2.8.18,1.76,1.76,0,0,0-1,0,7,7,0,0,1-4.1-.43c-1-.42-2.1-.08-2.86-.92-.6.64-1-.55-1.69-.15-.33.19-.47-.48-.64-.79a6.91,6.91,0,0,0-1.17-1.9c-.08-.08-.18-.27-.14-.35a1.48,1.48,0,0,0,0-1.42c-.29-.45-.28-1-.56-1.39a.47.47,0,0,1,.07-.69c.27-.3-.05-.75,0-1.14s-.09-.51.26-.65,0-.28,0-.43c-.07-.39-.29-.78.34-1a.85.85,0,0,0,.44-1.1,1.36,1.36,0,0,1,.44-1.69.81.81,0,0,0,.33-.4,3.27,3.27,0,0,1,2-2.37.76.76,0,0,0,.37-.59,1.52,1.52,0,0,1,.88-1.17c.25-.1.53-.33.47-.59-.14-.63.24-.64.71-.61" fill="#d6eade"/></svg>