<svg xmlns="http://www.w3.org/2000/svg" xmlns:xlink="http://www.w3.org/1999/xlink" viewBox="0 0 401 499"><defs><style>.cls-1,.cls-10,.cls-11,.cls-7,.cls-8,.cls-9{fill:none;}.cls-2{fill:#f4f0ea;}.cls-3{fill:#d6eade;}.cls-13,.cls-4{fill:#389d66;}.cls-5{fill:#3b9e66;}.cls-6{clip-path:url(#clip-path);}.cls-10,.cls-11,.cls-7,.cls-8,.cls-9{stroke:#3b9f66;stroke-miterlimit:10;}.cls-7{stroke-width:2.43px;}.cls-8{stroke-width:2.62px;}.cls-9{stroke-width:1.66px;}.cls-10{stroke-width:1.91px;}.cls-11{stroke-width:2.6px;}.cls-12{fill:#3b9f66;}.cls-13{font-size:80px;font-family:Rubik-Black, Rubik;font-weight:800;}.cls-14{letter-spacing:-0.08em;}</style><clipPath id="clip-path"><rect class="cls-1" x="121.51" y="189" width="166.49" height="194.65"/></clipPath></defs><title>WhiteBkBlueStrokeAsset 6</title><g id="Layer_2" data-name="Layer 2"><g id="Layer_1-2" data-name="Layer 1"><rect class="cls-2" width="400" height="499"/><path class="cls-3" d="M321.64,270.63a1.28,1.28,0,0,1,.13-.94c.22-.35.3-.23.31.46,0,1-.16,1.2-.44.48m-.18,2.77c-.53-.53-.49-.94.08-.94s1,.91.58,1.17c-.15.09-.44,0-.66-.23m-.2,2.23c-.56-.78-.57-.87-.08-.68.31.12.57.07.57-.11a.36.36,0,0,1,.37-.33c.28,0,.28.12,0,.44-.44.54-.1,1.14.79,1.36.56.14.53.18-.17.2a1.81,1.81,0,0,1-1.5-.88m.1,2.41c-.41-.52-.38-.55.22-.35s.65.22.05-.25-.53-.49.59-.43a4.21,4.21,0,0,1,1.22.15,7,7,0,0,1-1.42,1.45,2.17,2.17,0,0,1-.6-.57m-3,2.58a.29.29,0,0,1,.3-.3h0a3.11,3.11,0,0,0,.85-.21c.29-.11.53,0,.53.14s-.38.41-.84.5-.85,0-.85-.13M313.3,291c-.42-.79-.44-1.05-.1-1.05s1.11,1.32.77,1.53c-.17.11-.47-.11-.67-.48m-6,55.16a.68.68,0,0,1,.65,0c.27.11.19.19-.21.2s-.56-.06-.44-.18m13.44-53.25c0-.32-.33-.4-1.1-.28-1.06.17-1.07.18-.25.42,1.25.37,1.35.36,1.35-.14m4.4,5c0-.08-.24-.15-.53-.15s-.43.16-.31.35.84.16.84-.2m4.08,3.78c1.25-.66,1.25-.77,0-.58-.55.08-.93.27-.84.43s-.17.34-.59.43-.59.16-.16.19a4,4,0,0,0,1.61-.47M314,303.9a.58.58,0,0,0-.65-.48.55.55,0,0,0-.35.2c-.46.73-.36.93.38.74.37-.1.67-.31.67-.46m1.27.62c-.16-.49-.7-.43-.87.08-.06.19.14.34.45.34s.5-.19.42-.42m1.95.42c.11-.18.05-.34-.13-.34a.77.77,0,0,0-.55.34c-.11.19-.06.35.13.35a.77.77,0,0,0,.55-.35m13.36,1.37a.35.35,0,0,0-.36-.34h0c-.19,0-.26.15-.14.34.26.44.5.44.5,0m-13.7,2c-.27-.44-.51-.44-.51,0a.35.35,0,0,0,.36.34h0c.2,0,.26-.15.15-.34m-1.67.66c.34-.57-.44-1.23-.91-.76a.66.66,0,0,0,0,.93.7.7,0,0,0,.4.2.81.81,0,0,0,.53-.37m-3.91,4.47c.41-.27.36-.33-.26-.33-.42,0-.76.14-.76.33,0,.43.36.43,1,0m21,.34a.34.34,0,0,0-.67-.12.24.24,0,0,0,0,.12.34.34,0,0,0,.67.12.24.24,0,0,0,0-.12m-19.62,4.11c-.42-.28-.39-.34.17-.34s.58-.07.18-.33a.72.72,0,0,0-.9,0c-.25.21-.48.22-.6,0s0-.41.31-.52a.81.81,0,0,0,.5-.64c0-.29-.09-.31-.26-.07-.37.55-1.38.85-1.61.47a.39.39,0,0,0-.52-.14.19.19,0,0,1-.32-.16c0-.16-.34-.32-.76-.27s-.75-.09-.71-.52a.5.5,0,0,0-.4-.58h-.11c-2.5,0-.8,2.27,2.21,2.93,2.55.55,3.52.6,2.82.14m-1.71,4.3a.68.68,0,0,0-.65,0c-.11.11.09.19.45.18s.47-.1.2-.21m32.08,1.24c0-.6-1.05-1.5-1.3-1.12a2.07,2.07,0,0,1-.81.56c-1.06.39-.63.92.76.92.74,0,1.35-.16,1.35-.36m-33.88,1.76c.61-.39.14-1.17-.54-.9a1.89,1.89,0,0,1-1.36-.35,2.13,2.13,0,0,0-1.68-.33c-1,.26-.83.51,1,1.25s1.95.72,2.55.33m-.46,1.68c-.27-.44-.51-.44-.51,0a.35.35,0,0,0,.36.34h0c.2,0,.26-.15.15-.34M307,331.62c.12-.19,0-.25-.31-.13-.59.22-.7.47-.21.47a.7.7,0,0,0,.52-.34M340.13,333c.33-.33-.33-.35-2.23-.06-.14,0-.25.2-.25.4,0,.44,2,.17,2.48-.34m-34.71,1.29c.29-.29.51-.3.84,0s.75.22,1.59-.19c.63-.31,1-.62.74-.69a1.15,1.15,0,0,0-.92.3c-.42.35-.58.35-.79,0s-.57-.35-1.72,0-1.34.48-1,.71c.63.4.77.39,1.24-.08m5.5.37c0-.2-.16-.26-.34-.15-.43.27-.43.52,0,.52a.36.36,0,0,0,.34-.37m-1.53.37c.12-.19-.13-.34-.57-.34-.63,0-.68.07-.27.34.63.41.59.41.84,0m26.4,1.36c-.27-.43-.51-.43-.51,0a.36.36,0,0,0,.36.35c.2,0,.26-.16.15-.35m-27.92.56c0-.08-.3-.21-.68-.31s-.59,0-.48.13,1.16.45,1.16.18m27.75.47c0-.19-.23-.34-.51-.34s-.51.15-.51.34.23.34.51.34.51-.15.51-.34m-14.38.69c.11-.2,0-.25-.32-.14-.59.23-.7.48-.21.48a.74.74,0,0,0,.53-.34m-4.91.68c0-.44-.57-.44-.84,0-.12.19,0,.34.31.34s.53-.15.53-.34m-3.38,0a.35.35,0,0,0-.38-.32h0c-.21,0-.28-.27-.17-.6.2-.56.18-.56-.26,0s-.55.53-.93.17c-.54-.51-3-.71-3-.24,0,.17-.23.31-.51.31-.7,0-.64.61.09.76,1.32.27,5.16.2,5.16-.09m-4.74,1.64c0-.17-.23-.07-.51.21a1.62,1.62,0,0,0-.49,1c0,.5,1-.66,1-1.17m8.46,5.56c.33,0,.36-.11.1-.22a.55.55,0,0,1-.19-.72c.16-.43.07-.49-.44-.28-1.09.43-1.65.46-2.09.11s-.43-.22-.43,0-.26.42-.59.5c-.51.12-.49.18.15.45a8.06,8.06,0,0,0,3.49.14m5.36,7.17a35.8,35.8,0,0,0-.11-4.63c-.22-2.1-.27-2.21-1-2a5.86,5.86,0,0,1-1.67.24c-.51,0-.93.07-.93.2s-.45.19-1,.15c-.73,0-1.06.11-1.21.58-.23.75-1.17.89-1.17.17,0-.5-.55-.54-1.27-.09-.28.18-.35.1-.22-.24s0-.47-.6-.36c-.43.09-.6.06-.37,0,.59-.28.54-.85,0-.62-.27.1-.72-.17-1-.6l-.54-.79V346c0,.42-.16.76-.34.76a.33.33,0,0,1-.34-.29c0-.16-.38-.22-.85-.13s-.84,0-.84-.22.28-.38.63-.38a1.54,1.54,0,0,0,1-.49,2.93,2.93,0,0,1,1.39-.71c1.59-.36,1.43-.73-.31-.74a13.39,13.39,0,0,1-2.53-.24,2.54,2.54,0,0,0-1.65.17c-.55.3-.77.3-.87,0s-.26-.31-.43-.2c-.45.28-2.71-.21-2.51-.54.1-.16.67-.21,1.27-.11,1,.16,1.14.07,1.46-.81s.29-1-.28-1-.56,0-.27.4.22.51-.23.69-.64.06-.71-.14a.59.59,0,0,0-.52-.36c-.22,0-.55-.34-.73-.77a1.3,1.3,0,0,0-1.18-.8c-1.81-.08-1.87-.12-1.07-.68s.71-.6.25-.94a2.91,2.91,0,0,1-.74-1.51c-.27-1.38.4-1.5,1.53-.28s2.51,1.71,3.38,1.24,1-1,.37-1c-.18,0-.3-.2-.25-.43a.27.27,0,0,0-.34-.34c-.23.05-.42-.06-.42-.23s-.31-.23-.69-.13-.66,0-.61-.11a2.09,2.09,0,0,0-.34-1.08c-.55-1-.3-1.37,1.17-1.65.77-.14,1.08-.34.87-.55s-.58-.2-1,0c-.86.46-1.41.48-1.41,0,0-.19.29-.34.65-.34,1.13,0,1.13-.68,0-1.16l-1.08-.46,1-.24,1-.25-.93-.81a4.21,4.21,0,0,1-.93-1,6.22,6.22,0,0,1,2.7.4,4.87,4.87,0,0,0,.74.23,1.13,1.13,0,0,1,.48.29c.52.53,3.52.13,3.52-.47,0-.17-.34-.31-.76-.31a2.6,2.6,0,0,1-1.54-.84c-.48-.51-1-.75-1.33-.61s-.49.07-.3-.45.16-.57-.15-.25c-.48.48-1.11,0-1.47-1.16-.15-.48-.43-.66-.84-.55s-.67-.07-.79-.72c-.17-.88.18-1.2.58-.54a1.13,1.13,0,0,0,1.6-.16l.07-.09a.81.81,0,0,1,.67-.52c.26,0,.47-.15.47-.34s-.23-.34-.51-.34-.51-.15-.51-.34-.24-.34-.54-.34-.47-.11-.18-.46c.48-.59.08-1-.49-.54-.34.28-.43.2-.39-.32s.21-.61.41-.52.08,0-.24-.31-.6-.59-.6-.71c0-.47.79-.18,2.2.8a10.69,10.69,0,0,0,1.71,1c.52,0,.09-1-.83-2-.71-.73-.89-1.11-.59-1.24s0-.11-.5,0c-.71.15-.93.07-.93-.35s.3-.56.76-.58.57-.11.34-.2a.81.81,0,0,1-.42-.71c0-.3.1-.44.22-.32s.58,0,1-.29a4,4,0,0,1,2.19-.43c.9.06,1.45-.06,1.55-.34s0-.42-.13-.39a3.48,3.48,0,0,1-.79,0c-.45,0-.45-.09,0-.38s.42-.33-.08-.34-1.16-1.41-.79-2c.12-.2.91.1,1.91.73,1.42.9,1.76,1,2,.58.45-.71.39-1.21-.09-.73a1.42,1.42,0,0,1-.88.41c-.39,0-.4-.1-.07-.5s.3-.62-.17-1.1-.45-.64-.21-.72a.57.57,0,0,0,.39-.47c0-.18-.32-.23-.72-.1s-.65.1-.49-.15,0-.38-.3-.38-.52-.14-.52-.32c0-.68.68-.69,1.74,0s1.19.63,1.87.18a1.66,1.66,0,0,1,1.24-.3.62.62,0,0,0,.72-.18c.12-.2.06-.36-.14-.36s-.36-.27-.37-.6c0-.54-.06-.54-.51.06-.59.79-.65.45-.11-.6.39-.74.39-.74-.34-.09s-.73.66-1.14-.42c-.24-.65-.61-1-.92-1s-.56-.23-.63-.73c-.1-.72,0-.79.73-.6,1.2.3,2.05-.07,1.55-.68a1.12,1.12,0,0,1-.19-1c.17-.43.08-.46-.44-.18-1.06.58-1.4.43-1.17-.5.13-.55.07-.86-.18-.86s-.3-.16-.18-.35a1,1,0,0,0-.23-.94c-.25-.32.23,0,1.07.79a11.61,11.61,0,0,0,2.61,1.84c.61.25,1,.59.91.76s-.06.31.09.32l1.38.17c.66.09,1.1,0,1.1-.23s.19-.3.43-.21.36.25.39-.17.1-.07-.2-.23c-.59-.34-1.64.09-1.64-.38,0-.19-.27-.34-.6-.34a3,3,0,0,1-1.31-.5c-.39-.28-.8-.4-.92-.29s-.21,0-.21-.35v-.83c0-.57,2.29-.24,3.63.53l1.44.25v-.36c0-.63-.21-1-.68-1.1-.69-.18-.95-.78-.33-.78.21,0,.19-.24-.05-.63-.41-.66-2-.63-1.89,0,0,.19-.34.47-.86.62s-.93.13-.93-.09-.17-.21-.47.05-.55.28-.7,0,.13-.5.56-.68c3-1.24,3.65-1.57,3.82-2s.09-.42-.27-.12-.56.29-.68.17a5.19,5.19,0,0,0-2-.16c-1.71.06-2.13-.17-.71-.39,1.12-.17,1.8-.93,1.64-1.82-.12-.7-.07-.75.49-.4.35.22.58.48.51.59s.42.22,1.06.27,1.1,0,1-.19a1.89,1.89,0,0,1,.29-1.18c.39-.76.39-.87,0-.71s-.48-.06-.48-.53-.21-.72-.46-.72-.54-.29-.63-.64c-.16-.59-.09-.58,1.11.08.71.39,1.23.79,1.17.89s.43.22,1.07.27c1.08.08,1.13,0,.65-.46a1.89,1.89,0,0,1-.54-.77c0-.13-.45-.44-1-.69s-.92-.61-.8-.82a.64.64,0,0,0-.25-.74,4,4,0,0,1-.86-1.46c-.36-1-.35-1.07.26-.69.35.22.58.56.51.75s.31.37.84.41,1-.09,1-.41.2-.41.59-.27.44.08-.13-.53c-.85-.92-.87-2.3,0-2.23a.83.83,0,0,0,.78-.6c.12-.36.34-.57.5-.47a.37.37,0,0,0,.49-.14c.1-.18-.11-.42-.49-.55a1,1,0,0,1-.68-.77c0-.44.09-.47.41-.15.55.56.94.52.94-.1,0-.28.17-.52.37-.52a3.33,3.33,0,0,0,1.26-.7c.49-.39,1-.56,1-.37.16.48-1.23,1.83-1.63,1.58-.18-.11-.23,0-.12.33s0,.53-.17.53-.38.31-.38.69c0,.69,0,.69,1.44,0a13.2,13.2,0,0,0,2-1.22c.4-.36.62-.39.79-.11s0,.46-.46.57a1.46,1.46,0,0,0-.91.84c-.11.36-.33.57-.48.48-.32-.2-.73.64-.88,1.82a2.13,2.13,0,0,1-.72,1.25c-.9.67-.39.9.71.33a4.12,4.12,0,0,1,1.4-.5,3.81,3.81,0,0,0,1.48-.89c1-.83,1-.85,1-.19a1,1,0,0,1-.67.9c-.37.12-.64.39-.6.61s-.14.4-.42.41c-.51,0-1,1.21-.45,1.21A5.59,5.59,0,0,0,327,286c.54-.29,1.06-.44,1.15-.34s0,.18-.3.18-.37.07-.08.26c.65.42,0,1.19-1.08,1.19-.86,0-.91.08-.73,1.15s.1,1.16-.58,1.16a1.85,1.85,0,0,1-1.11-.37c-.26-.26-.42-.15-.56.38-.18.71-.11.74,1.23.53a11.38,11.38,0,0,0,2.67-.85c1.08-.54,1.21-.55.93-.07-.53.91-1.6,2.08-1.91,2.08-.57,0-2.19,1.8-1.89,2.1.47.47,3.21-.62,4.47-1.79.8-.73,1.23-.93,1.49-.67s.23.36-.07.36-.33.17-.21.36-.16.72-.63,1.16c-.65.61-.75.89-.45,1.2s.24.37.06.32c-.76-.21-1.86.46-1.86,1.12a.92.92,0,0,1-.68.88c-.37.09-.68.31-.68.47s-.25.19-.56.07-.48-.09-.31.19c.45.73,1.79,0,4.09-2.17.4-.38,1-.92,1.35-1.2.58-.47.62-.46.41.08-.12.33-.07.6.11.6s.06.31-.25.68c-.84,1-1,2.4-.19,2.41.53,0,.53,0-.08.41-.37.22-.71.33-.75.24s-.32.2-.61.62a1.87,1.87,0,0,1-1.36.77c-1.07,0-1.06.47,0,1a2.1,2.1,0,0,0,1.7.06c.51-.2.84-.2.84,0s.38-.06.83-.52a2.8,2.8,0,0,1,1.32-.84c.26,0,.56-.31.66-.68.22-.87.64-.87,1.17,0,.37.58.34.68-.17.69s-.51,0-.09.32.4.35-.11.55a.6.6,0,0,0-.43.69,1,1,0,0,1-.32,1c-.33.33-.37.58-.14.73.46.28-.23,1.19-.9,1.19a.42.42,0,0,0-.46.36c0,.24.55.28,1.6.13.89-.13,1.49-.11,1.35,0a5.51,5.51,0,0,1-2.28.65,6.81,6.81,0,0,0-1,.2,5.57,5.57,0,0,1-1,0c-.65,0-.69,0-.19.17,1.08.31,1.52.92,1,1.41a1.69,1.69,0,0,1-1,.42c-.44,0-.48.1-.19.45s.28.56.16.68,0,.31.34.43.47.35.37.52c-.53.86,4.23-.46,4.93-1.37a6.25,6.25,0,0,1,2.21-1.33c.07.07-.07.5-.3,1a1.08,1.08,0,0,1-1.09.73c-.64-.11-.64-.1,0,.42s.59.53.12.54a1,1,0,0,0-.86,1.12,1,1,0,0,0,.08.29c.11.17-.12.31-.5.31a1,1,0,0,0-.9.86,2.52,2.52,0,0,1-1.22,1.31c-.62.33-.9.69-.77,1s.26.51.34.51a25.45,25.45,0,0,0,5.67-3c.66-.74,1.89-1,1.89-.38,0,.19-.34.34-.76.35s-.63.08-.3.3c.51.32.24,1.74-.33,1.74-.19,0-.24.16-.13.34a.21.21,0,0,1-.17.35c-.17,0-.29.14-.18.31s-.15.37-.57.43-.77.34-.77.62-.38.56-.93.63-.93.31-.93.55a1.73,1.73,0,0,1-.76,1c-.66.46-.68.54-.15.55.33,0,.52.16.42.33-.29.48,1.23,0,2.23-.7a4.45,4.45,0,0,1,1.12-.64,5.72,5.72,0,0,0,1.36-.87c1.11-.86,1.72-.72,1.33.31a.5.5,0,0,1-.61.36h0c-.23-.09-.42.07-.42.36a.56.56,0,0,0,.54.55c.32,0,.37.1.13.2a.52.52,0,0,0-.2.69c.16.45.08.47-.53.14s-1.07.06-.37.5c.54.34-.89,1.56-1.53,1.31-.28-.11-.52,0-.52.19a.75.75,0,0,0,.49.58.53.53,0,0,1,.3.67c-.1.26-.32.4-.49.29s-.3,0-.3.35c0,1,.84.56,2.55-1.21s3.39-2.89,3.69-2.4c.1.16-.05.49-.32.72a2.17,2.17,0,0,0,0,2.76c.45.5.47.71.09,1.31-.25.4-.64.65-.87.56s-.42,0-.42.16-.23.23-.51.12c-.62-.24-.67.26-.09.88.35.37.3.38-.29.08-.82-.43-1.14-.23-1.14.72,0,.55-.16.63-.93.45s-.78-.12-.47.09c.59.4.19,1.11-.48.85-.35-.13-.44,0-.3.33s.33.47,1.44,0a10.42,10.42,0,0,0,2.66-1.9l1.43-1.44-.2,1.5a3.07,3.07,0,0,1-.49,1.61c-.54.22-1.31,2.06-.95,2.28a.74.74,0,0,1,.34.49c0,.42-1.82.7-2.19.34s-.86-.39-.86.14c0,.25.55.62,1.22.83a3.09,3.09,0,0,0,3.43-.86c.39-.51.43-.49.43.13a2.64,2.64,0,0,1-.69,1.43c-.38.41-.57.75-.43.76s-.22.25-.82.55-1,.68-.91.85c.28.47-.83.76-1.32.35-.33-.27-.59-.19-1,.32a1.81,1.81,0,0,1-1.33.64c-1.18-.1-1.48,0-.75.34a2.61,2.61,0,0,0,1.76-.17c.91-.38,1.14-.37,1.48,0a1,1,0,0,0,.95.33c.3-.09,1-.24,1.48-.33a15.22,15.22,0,0,0,1.65-.39c.67-.22.66-.15-.19,1-.54.71-1.11,1.14-1.39,1-.62-.24-1.68.59-1.68,1.34,0,.33-.1.56-.22.51s-.54.27-.92.72-.83.7-1,.59c-.57-.36-.85.57-.29,1s0,.38-1.64.35c-1.86,0-2.17.06-2.17.58s-.17.54-.51.41a1.73,1.73,0,0,0-1.1.06,3.26,3.26,0,0,1-1.38.3c-1.23-.12-.87.56.51,1l1.27.37-1.61-.16c-.93-.09-1.61,0-1.61.18s.35.35.76.36c.73,0,.73,0,.09.3s-.9.07-1.54-.53c-.88-.83-1.55-1.1-1.17-.48.12.19.05.35-.15.35-.82,0-.27.61.74.82s1,.28.49.59a1.51,1.51,0,0,1-1.18.1,1.87,1.87,0,0,0-.8-.21c-.13,0-.43-.41-.68-1-.55-1.27-.88-1.29-1-.08-.07.63-.27.9-.61.82-1.88-.44-2-.36-2,1.11a53.39,53.39,0,0,0,.87,7.13c.19.9.14.94-1.11.94H322Z"/><path class="cls-4" d="M57.13,340.75c-.29-.51-1-.59-.72-1.17.22-.43.7-.23,1.09-.23,1,0,1.66-.87,2.65-1,.36,0,0-.55,0-.84s-.17-.84.33-1a.7.7,0,0,1,.88.43l0,.14c.1,1.25,1.84,1.57,1.62,3,1.87.25.65,2.29,1.74,3,.19.14.21.51.6.39s.91-.34,1.2.13-.29.91-.5,1.33c.25.44.66.23,1,.32.6.17,1.62.08.7,1.19-.32.38.21.49.4.68s.57.53.33.92-.65.28-.93,0c-.51-.42-.89-.12-1.29.13s-.25.61-.09,1c0,0,0,.08,0,.11-.69,1.44.19,2.27,1.1,3.19a3.54,3.54,0,0,0,1.14,1c.26.1.6.18.57.53s-.44.37-.74.42-.57-.07-.78.22c.11.43.45.2.68.24a3.71,3.71,0,0,1,.56.17c-.32.73.56,1.47.27,1.94-.53.84-.41,1.78-.79,2.61a1.05,1.05,0,0,0,.34,1.44,1,1,0,0,0,.4.15c.85.2.76.65.58,1.24a3.74,3.74,0,0,0,1,3.32,1.42,1.42,0,0,1,.56,1.58,2.62,2.62,0,0,0,.56,2.68c.52.56.15,1.27-.3,1.83.34.39.78-.3,1.16.25a1.53,1.53,0,0,0-.58,2.56c.2.26.4.59.77.38.82-.46,1.13.16,1.67.58.76.59.44.74-.17,1a2.81,2.81,0,0,0-1.63,3.64,2.91,2.91,0,0,0,.58.93c.35.42.58.92.26,1.3-.62.73-.25,1.53-.34,2.29a.92.92,0,0,0,.74,1.06h.14a3.14,3.14,0,0,1,1.57.82c.9.73.92.93-.14,1.45a1.78,1.78,0,0,0-1.2,2.14c.09.63,1.14.27.71.91-.21.32-.84.34-1.1.65-.48.57-.08,1,.41,1.39s1.85.69.49,1.71a.49.49,0,0,0,0,.44c.39.48.71,1,.39,1.61a.4.4,0,0,0,.1.33c1.4,1.06,1.43,2.73,1.79,4.21.26,1.05,1.21,2.06.33,3.24,0,0,0,.25.11.32,1.71,1.59.74,3.45.53,5.23a.88.88,0,0,1-.53.61c-.21.13-.48.33-.33.56.56.9.31,1.33-.7,1.5-.26,0-.29.32-.22.59.74,3-.24,5.53-1.81,8-.44.7-.61,1.57-1.66,1.62-.09,0-.22.24-.23.37-.2,1.79-1.45,2.64-2.94,3.2-.88.33-1.71.44-2.19,1.55a2.25,2.25,0,0,1-2.3,1.18,4.07,4.07,0,0,0-2.52.4c-.74.37-1.67.76-2.3-.3-.2-.33-.44-.32-.68-.08-.6.6-1.09.24-1.56-.17s-.64-.62-1.23-.43c-.35.12-.78-.18-1-.53-.32-.52-.41-1.33-1.35-.9,0,0-.26-.14-.24-.19.34-1.6-1.49-2-1.82-3.2-.16-.6-.9-.88-1.45-1.2s-1.32-.53-1-1.48a.47.47,0,0,0-.18-.41c-1-.33-1-1.15-1.21-2-.09-.51,0-1.42-1-1.6-.45-.08-.34-.81-.39-1.28a25.45,25.45,0,0,0-.61-4.16c-.39-1.38-1.47-3-.32-4.72.5-.74-.24-1.61-.49-2.39a2.5,2.5,0,0,1,.08-1.88c.5-1.2.94-2.4.07-3.64-.19-.25-.33-.72-.09-.89.72-.49.46-1.25.69-1.85a4.19,4.19,0,0,0,0-3c0-.08-.07-.18,0-.23.64-1.22.39-2.61.8-3.86.14-.43.37-.75.07-1.2a2.43,2.43,0,0,1,.14-2.71,6.08,6.08,0,0,0,.91-2.31c0-.16.14-.37.07-.47-1.41-2-.18-3.81.42-5.64a1.55,1.55,0,0,0-.14-1.54c-.43-.62.52-4.61,1-5.21a1.86,1.86,0,0,0,.2-2c-.46-1.42-.45-1.44,1-1.68.94-.16.92-.88.79-1.5a2.17,2.17,0,0,0-.66-1.43c-.24-.19-.53-.43-.37-.8s.46-.23.74-.24c1.1,0,.8-.87.62-1.33a6.87,6.87,0,0,0-.53-1.17c-.43-.73-.63-1.19.35-1.83a2,2,0,0,0,1-2.29,1.45,1.45,0,0,1,.77-1.89l.09,0c.55-.17.91-2.67.57-3.22a3.17,3.17,0,0,1,.08-3.72c.55-.74.87-1.58,1.5-2.31a4.76,4.76,0,0,0,.55-2.91c0-.72,0-1.16.82-1.35"/><path class="cls-4" d="M115.11,422.5a5.09,5.09,0,0,1,2.57-3.31c1.13-.74,2.11-2.08,3.93-1.48.91.3,1.76-.54,2.3-1.4.3-.48.46-1,1.34-.58s1.76-.35,2.14-1.41a4.64,4.64,0,0,1,1.13-1.64c.45-.44.79,0,1,.38.37.52.76.78,1.39.32.45-.33.87-.07,1.32.16.7.35,1.45.72,2.22.11a.62.62,0,0,1,.86.1,2.48,2.48,0,0,0,2.9.35c.93-.42,1.35.26,1.76.82.63.87,1.22,1.56,2.43.87.48-.27.82.07.61.59-.47,1.15.48,1.58,1.06,2.16s1.15.37,1.73-.08a1.37,1.37,0,0,1,1.15-.1,4,4,0,0,0,2.45-.17c1.13-.5,1.71.5,2.42,1.07.11.09.14.28.2.43.47,1.11,1.18,1.21,2.3.81,2.07-.74,3.17.1,3.55,1.56.24.92,1.13,1.6.88,2.72-.07.32.55.64.93.86a1.4,1.4,0,0,1,.69,1.87l0,.06c-.22.56-.4,1.13-.6,1.7a2,2,0,0,0,.53,2.19c.17.17.41.33.46.53.23,1,.58,1.56,1.63.71.21-.17.55,0,.73.24a.55.55,0,0,1-.07.77c-.83.62-.41,1.65-.86,2.4a.44.44,0,0,0,.07.43c1.13.8.22,1.24-.32,1.71s-1.37.91-1,1.93a.76.76,0,0,1-.19.41c-.77.69-.83.88-.45,2.08.12.39.15.82-.26.92a1.72,1.72,0,0,0-1.29,1.4.7.7,0,0,1-.26.39c-1.44.81-1.46.8-2.58,2.74-.22.37-.5.31-.83.26a2.69,2.69,0,0,0-2.94,1.62,1.65,1.65,0,0,1-.76.72c-.67.28-1.35.4-1.23,1.4,0,.31-.43.23-.7.22a5.81,5.81,0,0,1-3.67-1.13c-.79-.62-1.08-.27-1.42.36s-.64,1.49-1.65.68a.53.53,0,0,0-.73.18.35.35,0,0,0-.06.14c-.29.81-.91.9-1.62.84a10.29,10.29,0,0,0-4.32.74c-.55.19-1.09-.12-1.64-.16a8.44,8.44,0,0,0-2.13,0c-.55.1-1.15.23-1.09-.73,0-.49-.45-.59-.86-.65a6.65,6.65,0,0,0-2.94-.21,1.31,1.31,0,0,1-1.42-.42.52.52,0,0,0-.39-.23c-1.93.28-3.48-1.11-5.36-1.22-.83,0-1.49.37-2.29.29s-1.2,0-1.3-.94-.53-1.46-1.53-1.15c-.3.09-.74.21-.83-.18-.28-1.18-1.21-1.09-2-1.13s-1.18-.15-1.25-.95a.63.63,0,0,0-.28-.49c-2.18-.61-1.67-2.56-2-4-.21-1-.08-2.08-1-2.8a.56.56,0,0,1-.19-.77l.06-.08c.68-.75.09-.93-.46-1.16a2.48,2.48,0,0,1-1.06-.75.46.46,0,0,1-.11-.55.39.39,0,0,1,.52-.17.9.9,0,0,0,1.26,0,1,1,0,0,0,.23-.47,1.83,1.83,0,0,0-.58-2.05c-.41-.37-.89-.67-1.32-1a.81.81,0,0,1-.3-1.06c.25-.42.69-.28,1-.07.64.54,1.17,0,1.64-.2,1.36-.44,3-.65,3.29-2.52.13-.71-.47-1.52.33-2.14.18-.15.24-.48.5-.64.52-.31.46-.66.08-1.07s-1.19-.69-.84-1.4,1.13-.22,1.69-.19c.28-.69-.47-1.72.42-2s.79.93,1.45,1.68"/><path class="cls-4" d="M299.89,428.73c-.15-.35-.68-.47-.45-.69.41-.39.7.19,1.12.4,0-.61.3-.77.81-.62s.31-.17.33-.38-.1-.53.18-.65.36.26.54.34a2.15,2.15,0,0,0,1.19.27c.51-.09,1.17,0,1.45-.69.14-.34.41-.21.55,0s.39.37.65,0,.4-.4.83-.07a3.12,3.12,0,0,0,1.44.35,2.29,2.29,0,0,1,1.68.82,1.29,1.29,0,0,0,.87.54,12.27,12.27,0,0,1,2.18.84,3,3,0,0,1,1.06.88c.95,1,.51,2.47,1.34,3.47v.13c.13.55.95.47,1,.95s-.25.88.09,1.31a.37.37,0,0,1,0,.48,2.09,2.09,0,0,0,.19,2.95l.06.05a1.21,1.21,0,0,1,.19,1.7,1.15,1.15,0,0,1-.5.37.73.73,0,0,0-.41.69c.05.54.06,1.08.09,1.62a3.43,3.43,0,0,1-2.11,3.38.27.27,0,0,0-.23.13c-.42.79-1.24.39-1.78.64a15.44,15.44,0,0,0-1.62.55.69.69,0,0,1-.84,0,1.13,1.13,0,0,0-1.22-.1,3.5,3.5,0,0,1-2.8.18,1.7,1.7,0,0,0-1,0,7,7,0,0,1-4.1-.43c-1-.42-2.1-.08-2.86-.92-.6.64-1-.55-1.69-.15-.33.19-.47-.48-.64-.79a6.91,6.91,0,0,0-1.17-1.9c-.08-.08-.18-.27-.14-.35a1.49,1.49,0,0,0,0-1.42c-.29-.45-.28-1-.56-1.39a.46.46,0,0,1,0-.66l0,0c.27-.3-.05-.75,0-1.14s-.09-.51.26-.65,0-.28,0-.43c-.07-.39-.29-.78.34-1a.85.85,0,0,0,.44-1.1,1.36,1.36,0,0,1,.44-1.69.77.77,0,0,0,.33-.4,3.27,3.27,0,0,1,2-2.37.78.78,0,0,0,.37-.59,1.52,1.52,0,0,1,.88-1.17c.25-.1.53-.33.47-.59-.14-.63.24-.64.71-.61"/><path class="cls-4" d="M227.89,443.73c-.15-.35-.68-.47-.45-.69.41-.39.7.19,1.12.4,0-.61.3-.77.81-.62s.31-.17.33-.38-.1-.53.18-.65.36.26.54.34a2.15,2.15,0,0,0,1.19.27c.51-.09,1.17,0,1.45-.69.14-.34.41-.21.55,0s.39.37.65,0,.4-.4.83-.07a3.12,3.12,0,0,0,1.44.35,2.29,2.29,0,0,1,1.68.82,1.29,1.29,0,0,0,.87.54,12.27,12.27,0,0,1,2.18.84,3,3,0,0,1,1.06.88c1,1,.51,2.47,1.34,3.47v.13c.13.55,1,.47,1,.95s-.25.88.09,1.31a.36.36,0,0,1,0,.48,2.09,2.09,0,0,0,.19,2.95l.06.05a1.21,1.21,0,0,1,.19,1.7,1.15,1.15,0,0,1-.5.37.73.73,0,0,0-.41.69c0,.54.06,1.08.09,1.62a3.43,3.43,0,0,1-2.11,3.38.27.27,0,0,0-.23.13c-.42.79-1.24.39-1.78.64a15.44,15.44,0,0,0-1.62.55.69.69,0,0,1-.84,0,1.13,1.13,0,0,0-1.22-.1,3.5,3.5,0,0,1-2.8.18,1.7,1.7,0,0,0-1,0,7,7,0,0,1-4.1-.43c-1-.42-2.1-.08-2.86-.92-.6.64-1-.55-1.69-.15-.33.19-.47-.48-.64-.79a6.91,6.91,0,0,0-1.17-1.9c-.08-.08-.18-.27-.14-.35a1.49,1.49,0,0,0,0-1.42c-.29-.45-.28-1-.56-1.39a.46.46,0,0,1,0-.66l0,0c.27-.3-.05-.75,0-1.14s-.09-.51.26-.65,0-.28,0-.43c-.07-.39-.29-.78.34-1a.85.85,0,0,0,.44-1.1,1.36,1.36,0,0,1,.44-1.69.77.77,0,0,0,.33-.4,3.27,3.27,0,0,1,2-2.37.78.78,0,0,0,.37-.59,1.52,1.52,0,0,1,.88-1.17c.25-.1.53-.33.47-.59-.14-.63.24-.64.71-.61"/><path class="cls-4" d="M196.89,431.73c-.15-.35-.68-.47-.45-.69.41-.39.7.19,1.12.4,0-.61.3-.77.81-.62s.31-.17.33-.38-.1-.53.18-.65.36.26.54.34a2.15,2.15,0,0,0,1.19.27c.51-.09,1.17,0,1.45-.69.14-.34.41-.21.55,0s.39.37.65,0,.4-.4.83-.07a3.12,3.12,0,0,0,1.44.35,2.29,2.29,0,0,1,1.68.82,1.29,1.29,0,0,0,.87.54,12.27,12.27,0,0,1,2.18.84,3,3,0,0,1,1.06.88c1,1,.51,2.47,1.34,3.47v.13c.13.55,1,.47,1,.95s-.25.88.09,1.31a.36.36,0,0,1,0,.48,2.09,2.09,0,0,0,.19,2.95l.06.05a1.21,1.21,0,0,1,.19,1.7,1.15,1.15,0,0,1-.5.37.73.73,0,0,0-.41.69c0,.54.06,1.08.09,1.62a3.43,3.43,0,0,1-2.11,3.38.27.27,0,0,0-.23.13c-.42.79-1.24.39-1.78.64a15.44,15.44,0,0,0-1.62.55.69.69,0,0,1-.84,0,1.13,1.13,0,0,0-1.22-.1,3.5,3.5,0,0,1-2.8.18,1.7,1.7,0,0,0-1,0,7,7,0,0,1-4.1-.43c-1-.42-2.1-.08-2.86-.92-.6.64-1-.55-1.69-.15-.33.19-.47-.48-.64-.79a6.91,6.91,0,0,0-1.17-1.9c-.08-.08-.18-.27-.14-.35a1.49,1.49,0,0,0,0-1.42c-.29-.45-.28-1-.56-1.39a.46.46,0,0,1,0-.66l0,0c.27-.3-.05-.75,0-1.14s-.09-.51.26-.65,0-.28,0-.43c-.07-.39-.29-.78.34-1a.85.85,0,0,0,.44-1.1,1.36,1.36,0,0,1,.44-1.69.77.77,0,0,0,.33-.4,3.27,3.27,0,0,1,2-2.37.78.78,0,0,0,.37-.59,1.52,1.52,0,0,1,.88-1.17c.25-.1.53-.33.47-.59-.14-.63.24-.64.71-.61"/><path class="cls-5" d="M216.55,423.38a2.59,2.59,0,1,1-2.61-2.56A2.58,2.58,0,0,1,216.55,423.38Z"/><path class="cls-5" d="M236.08,423.39a2.71,2.71,0,0,1-2.67,2.62,2.73,2.73,0,0,1-2.51-2.59,2.59,2.59,0,0,1,5.18,0Z"/><path class="cls-5" d="M253.16,420.83a2.64,2.64,0,0,1,2.45,2.63,2.59,2.59,0,0,1-5.18-.15c0-.05,0-.09,0-.14A2.62,2.62,0,0,1,253.16,420.83Z"/><path class="cls-5" d="M206.78,433.24a2.58,2.58,0,1,1-2.5-2.66A2.59,2.59,0,0,1,206.78,433.24Z"/><path class="cls-5" d="M214,435.76a2.7,2.7,0,0,1-2.59-2.7,2.6,2.6,0,0,1,5.19,0A2.72,2.72,0,0,1,214,435.76Z"/><path class="cls-5" d="M223.75,430.6a2.58,2.58,0,0,1,2.56,2.49,2.68,2.68,0,0,1-2.61,2.67,2.73,2.73,0,0,1-2.56-2.54,2.57,2.57,0,0,1,2.52-2.62Z"/><path class="cls-5" d="M233.44,435.76A2.71,2.71,0,0,1,230.9,433a2.59,2.59,0,0,1,5.18.28h0A2.74,2.74,0,0,1,233.44,435.76Z"/><path class="cls-5" d="M243.32,435.76a2.72,2.72,0,0,1-2.65-2.45,2.58,2.58,0,1,1,5.16-.31A2.7,2.7,0,0,1,243.32,435.76Z"/><path class="cls-5" d="M252.94,430.6a2.6,2.6,0,0,1,2.67,2.51v.06a2.6,2.6,0,1,1-5.19.32,1.71,1.71,0,0,1,0-.32A2.59,2.59,0,0,1,252.94,430.6Z"/><path class="cls-5" d="M262.73,435.76A2.69,2.69,0,0,1,260.2,433a2.58,2.58,0,0,1,5.16.28A2.7,2.7,0,0,1,262.73,435.76Z"/><path class="cls-5" d="M262.84,440.35a2.53,2.53,0,1,1-.13,5,2.57,2.57,0,0,1-2.51-2.64h0A2.59,2.59,0,0,1,262.84,440.35Z"/><path class="cls-5" d="M250.42,442.8a2.6,2.6,0,1,1,0,.23A1.69,1.69,0,0,1,250.42,442.8Z"/><path class="cls-5" d="M243.24,440.35a2.61,2.61,0,1,1-2.57,2.78,1.71,1.71,0,0,1,0-.32A2.6,2.6,0,0,1,243.24,440.35Z"/><path class="cls-5" d="M233.4,445.52a2.72,2.72,0,0,1-2.5-2.78,2.6,2.6,0,0,1,5.18.35A2.74,2.74,0,0,1,233.4,445.52Z"/><path class="cls-5" d="M204.12,440.35a2.59,2.59,0,0,1,2.66,2.52v.05a2.58,2.58,0,0,1-5.16,0h0A2.59,2.59,0,0,1,204.12,440.35Z"/><path class="cls-5" d="M216.55,442.93a2.59,2.59,0,0,1-5.18,0h0a2.59,2.59,0,1,1,5.18,0Z"/><path class="cls-5" d="M226.31,443a2.59,2.59,0,0,1-5.18.19c0-.1,0-.2,0-.3a2.59,2.59,0,0,1,5.17.11Z"/><path class="cls-5" d="M270.21,467.31a2.41,2.41,0,0,1-.91,1.91l-3.74-1.06-.34-.1h0a2.27,2.27,0,0,1-.13-.82,2.71,2.71,0,0,1,2.71-2.56h.06A2.6,2.6,0,0,1,270.21,467.31Z"/><path class="cls-5" d="M259.86,466.24l-4-1.38a2.16,2.16,0,0,1,1.66-.89A2.69,2.69,0,0,1,259.86,466.24Z"/><path class="cls-5" d="M199.31,411.37a2.59,2.59,0,1,1-.32-5.17h.32a2.65,2.65,0,0,1,2.58,2.5A2.7,2.7,0,0,1,199.31,411.37Z"/><path class="cls-5" d="M206.39,451.35l-3.39-1a2.21,2.21,0,0,1,1-.28A2.54,2.54,0,0,1,206.39,451.35Z"/><path class="cls-5" d="M216.56,452.59a2.51,2.51,0,0,1-.5,1.51l-4.69-1.33h0a2.6,2.6,0,0,1,5.19-.14Z"/><path class="cls-5" d="M226.31,452.66a2.59,2.59,0,1,1-5.17.32,1.71,1.71,0,0,1,0-.32,2.59,2.59,0,0,1,5.17,0Z"/><path class="cls-5" d="M230.9,452.56a2.59,2.59,0,1,1,2.49,2.68A2.59,2.59,0,0,1,230.9,452.56Z"/><path class="cls-5" d="M243.34,455.25a2.73,2.73,0,0,1-2.67-2.41,2.59,2.59,0,0,1,5.16-.36A2.69,2.69,0,0,1,243.34,455.25Z"/><path class="cls-5" d="M253,450.11a2.58,2.58,0,0,1,2.61,2.55v.07a2.6,2.6,0,1,1-2.61-2.62Z"/><path class="cls-5" d="M262.82,450.11a2.58,2.58,0,0,1,2.54,2.62v.06a2.58,2.58,0,1,1-2.62-2.68Z"/><path class="cls-5" d="M245.83,462.43a.24.24,0,0,1,0,.12L241,461.19a2.57,2.57,0,0,1,4.82,1.24Z"/><path class="cls-5" d="M255.61,462.42a2.69,2.69,0,0,1-1.74,2.41l-2.8-.79a2.5,2.5,0,0,1-.64-1.62,2.59,2.59,0,1,1,5.18,0Z"/><path class="cls-5" d="M262.74,465a2.68,2.68,0,0,1-2.54-2.54,2.58,2.58,0,0,1,5.16.07h0A2.69,2.69,0,0,1,262.74,465Z"/><path class="cls-5" d="M221.14,423.29a2.59,2.59,0,0,1,5.17.25,2.7,2.7,0,0,1-2.8,2.46A2.73,2.73,0,0,1,221.14,423.29Z"/><path class="cls-5" d="M204.12,426a2.72,2.72,0,0,1-2.5-2.59,2.58,2.58,0,0,1,5.16.16h0A2.74,2.74,0,0,1,204.12,426Z"/><path class="cls-5" d="M243.32,420.83a2.65,2.65,0,0,1,2.52,2.74,2.59,2.59,0,0,1-5.17-.14A2.63,2.63,0,0,1,243.32,420.83Z"/><path class="cls-5" d="M262.78,426a2.71,2.71,0,0,1-2.58-2.51,2.58,2.58,0,0,1,5.16,0h0A2.72,2.72,0,0,1,262.78,426Z"/><path class="cls-5" d="M270.25,408.7a2.59,2.59,0,0,1-5.18.16h0a2.66,2.66,0,0,1,2.42-2.65A2.7,2.7,0,0,1,270.25,408.7Z"/><path class="cls-5" d="M257.91,406.2a2.64,2.64,0,0,1,2.57,2.49,2.59,2.59,0,1,1-2.69-2.49Z"/><path class="cls-5" d="M250.73,408.78a2.6,2.6,0,0,1-5.19,0,2.65,2.65,0,0,1,2.5-2.57A2.69,2.69,0,0,1,250.73,408.78Z"/><path class="cls-5" d="M241,408.86a2.59,2.59,0,1,1-2.52-2.66h.11A2.64,2.64,0,0,1,241,408.86Z"/><path class="cls-5" d="M231.2,408.78a2.6,2.6,0,0,1-5.19,0,2.65,2.65,0,0,1,2.5-2.58A2.7,2.7,0,0,1,231.2,408.78Z"/><path class="cls-5" d="M218.76,411.37a2.58,2.58,0,1,1,.18-5.16,2.66,2.66,0,0,1,2.5,2.57A2.7,2.7,0,0,1,218.76,411.37Z"/><path class="cls-5" d="M209.17,411.37a2.72,2.72,0,0,1-2.68-2.59,2.65,2.65,0,0,1,2.5-2.57,2.58,2.58,0,0,1,.18,5.16Z"/><path class="cls-5" d="M267.66,460.08a2.61,2.61,0,0,1-2.59-2.46,2.66,2.66,0,0,1,2.58-2.66,2.54,2.54,0,0,1,2.56,2.54v.11A2.52,2.52,0,0,1,267.66,460.08Z"/><path class="cls-5" d="M241,428.38a2.59,2.59,0,1,1-2.36-2.55A2.58,2.58,0,0,1,241,428.38Z"/><path class="cls-5" d="M231.2,428.3a2.6,2.6,0,0,1-5.19,0,2.72,2.72,0,0,1,2.53-2.56A2.67,2.67,0,0,1,231.2,428.3Z"/><path class="cls-5" d="M221.44,428.34a2.59,2.59,0,1,1-5.18-.12h0a2.59,2.59,0,0,1,5.18.12Z"/><path class="cls-5" d="M211.67,428.35a2.59,2.59,0,0,1-5.17-.09v-.05a2.59,2.59,0,0,1,5.17.14Z"/><path class="cls-5" d="M201.91,428.27a2.59,2.59,0,1,1-2.59-2.59A2.59,2.59,0,0,1,201.91,428.27Z"/><path class="cls-5" d="M270.25,418.59a2.59,2.59,0,0,1-5.18-.13h0a2.59,2.59,0,1,1,5.18.13Z"/><path class="cls-5" d="M257.88,415.94a2.68,2.68,0,0,1,2.61,2.66,2.59,2.59,0,0,1-5.17,0A2.66,2.66,0,0,1,257.88,415.94Z"/><path class="cls-5" d="M248.21,421.06a2.6,2.6,0,0,1-2.67-2.53v0a2.68,2.68,0,0,1,2.52-2.56,2.65,2.65,0,0,1,2.66,2.59A2.6,2.6,0,0,1,248.21,421.06Z"/><path class="cls-5" d="M238.44,416a2.65,2.65,0,0,1,2.51,2.73,2.59,2.59,0,0,1-5.17-.14A2.68,2.68,0,0,1,238.44,416Z"/><path class="cls-5" d="M228.61,421.07a2.61,2.61,0,1,1,2.58-2.78,1.71,1.71,0,0,1,0,.32A2.61,2.61,0,0,1,228.61,421.07Z"/><path class="cls-5" d="M221.43,418.61a2.59,2.59,0,1,1-2.37-2.53A2.59,2.59,0,0,1,221.43,418.61Z"/><path class="cls-5" d="M211.67,418.55a2.59,2.59,0,1,1-2.57-2.61,2.58,2.58,0,0,1,2.57,2.61Z"/><path class="cls-5" d="M201.91,418.55a2.59,2.59,0,1,1-2.56-2.61,2.58,2.58,0,0,1,2.56,2.61Z"/><path class="cls-5" d="M257.9,455a2.66,2.66,0,0,1,2.59,2.66,2.62,2.62,0,0,1-2.58,2.46,2.56,2.56,0,0,1,0-5.12Z"/><path class="cls-5" d="M248.08,455a2.56,2.56,0,1,1,.1,5.12h0a2.62,2.62,0,0,1-2.63-2.41A2.65,2.65,0,0,1,248.08,455Z"/><path class="cls-5" d="M238.32,455a2.67,2.67,0,0,1,2.65,2.6,2.61,2.61,0,0,1-2.53,2.51,2.52,2.52,0,0,1-2.62-2.42v-.15A2.56,2.56,0,0,1,238.32,455Z"/><path class="cls-5" d="M231.15,457.53a2.52,2.52,0,0,1-.14.82L226.1,457a2.63,2.63,0,0,1,2.59-2A2.53,2.53,0,0,1,231.15,457.53Z"/><path class="cls-5" d="M250.72,428.34a2.59,2.59,0,0,1-5.17-.07v0a2.59,2.59,0,0,1,5.17.12Z"/><path class="cls-5" d="M258,425.7a2.67,2.67,0,0,1,2.52,2.73,2.59,2.59,0,0,1-5.17-.13A2.67,2.67,0,0,1,258,425.7Z"/><path class="cls-5" d="M265.09,428a2.58,2.58,0,1,1,2.33,2.81A2.58,2.58,0,0,1,265.09,428Z"/><path class="cls-5" d="M255.61,413.71a2.72,2.72,0,0,1-2.55,2.53,2.58,2.58,0,1,1,2.55-2.61Z"/><path class="cls-5" d="M245.83,413.61a2.58,2.58,0,1,1-2.72-2.53A2.68,2.68,0,0,1,245.83,413.61Z"/><path class="cls-5" d="M233.45,416.25a2.72,2.72,0,0,1-2.55-2.53,2.59,2.59,0,0,1,5.18.07A2.73,2.73,0,0,1,233.45,416.25Z"/><path class="cls-5" d="M223.67,411.08a2.58,2.58,0,1,1-2.53,2.73A2.68,2.68,0,0,1,223.67,411.08Z"/><path class="cls-5" d="M214,411.08a2.58,2.58,0,1,1-2.67,2.6A2.7,2.7,0,0,1,214,411.08Z"/><path class="cls-5" d="M206.78,413.59a2.58,2.58,0,1,1-2.74-2.5A2.66,2.66,0,0,1,206.78,413.59Z"/><path class="cls-5" d="M241,438.05a2.63,2.63,0,0,1-2.51,2.53,2.56,2.56,0,0,1-2.63-2.47V438a2.58,2.58,0,0,1,2.49-2.55A2.66,2.66,0,0,1,241,438.05Z"/><path class="cls-5" d="M250.69,438a2.57,2.57,0,0,1-2.47,2.6,2.6,2.6,0,0,1-2.67-2.51V438a2.68,2.68,0,0,1,2.58-2.54A2.61,2.61,0,0,1,250.69,438Z"/><path class="cls-5" d="M260.49,438.08a2.6,2.6,0,0,1-2.58,2.5,2.54,2.54,0,0,1-2.56-2.52v-.16a2.59,2.59,0,0,1,2.64-2.44A2.68,2.68,0,0,1,260.49,438.08Z"/><path class="cls-5" d="M267.59,435.46a2.58,2.58,0,0,1,2.62,2.47,2.55,2.55,0,0,1-2.4,2.65,2.62,2.62,0,0,1-2.74-2.5v0A2.68,2.68,0,0,1,267.59,435.46Z"/><path class="cls-5" d="M262.75,416.24a2.68,2.68,0,0,1-2.55-2.51,2.58,2.58,0,0,1,5.16,0A2.68,2.68,0,0,1,262.75,416.24Z"/><path class="cls-5" d="M228.67,440.58a2.61,2.61,0,0,1-2.65-2.44,2.65,2.65,0,0,1,2.61-2.68,2.59,2.59,0,0,1,2.53,2.55A2.55,2.55,0,0,1,228.67,440.58Z"/><path class="cls-5" d="M218.79,435.46a2.66,2.66,0,0,1,2.64,2.47,2.59,2.59,0,0,1-2.53,2.65h-.08a2.55,2.55,0,0,1-2.53-2.53A2.59,2.59,0,0,1,218.79,435.46Z"/><path class="cls-5" d="M211.63,438a2.55,2.55,0,0,1-2.45,2.61,2.62,2.62,0,0,1-2.69-2.55v0a2.67,2.67,0,0,1,2.57-2.54A2.58,2.58,0,0,1,211.63,438Z"/><path class="cls-5" d="M201.91,438.08a2.62,2.62,0,0,1-2.58,2.5,2.54,2.54,0,0,1-2.56-2.52v-.16a2.61,2.61,0,0,1,2.64-2.44A2.68,2.68,0,0,1,201.91,438.08Z"/><path class="cls-5" d="M228.59,450.32a2.62,2.62,0,0,1-2.58-2.51,2.69,2.69,0,0,1,2.7-2.6,2.61,2.61,0,0,1,2.45,2.63,2.52,2.52,0,0,1-2.56,2.48Z"/><path class="cls-5" d="M238.3,450.31a2.51,2.51,0,0,1-2.48-2.54v0a2.62,2.62,0,0,1,2.54-2.55,2.69,2.69,0,0,1,2.6,2.7A2.59,2.59,0,0,1,238.3,450.31Z"/><path class="cls-5" d="M250.69,447.82a2.53,2.53,0,0,1-2.56,2.5h0a2.6,2.6,0,0,1-2.59-2.49,2.69,2.69,0,0,1,2.67-2.62A2.61,2.61,0,0,1,250.69,447.82Z"/><path class="cls-5" d="M257.82,445.21a2.68,2.68,0,0,1,2.66,2.45,2.57,2.57,0,0,1-2.4,2.65,2.51,2.51,0,0,1-2.72-2.3,1.21,1.21,0,0,1,0-.19A2.6,2.6,0,0,1,257.82,445.21Z"/><path class="cls-5" d="M267.63,445.21a2.6,2.6,0,0,1,2.58,2.5,2.51,2.51,0,0,1-2.42,2.6h0a2.59,2.59,0,0,1-2.7-2.48v-.07A2.69,2.69,0,0,1,267.63,445.21Z"/><path class="cls-5" d="M218.85,445.2a2.71,2.71,0,0,1,2.59,2.53,2.58,2.58,0,0,1-2.6,2.58h-.07a2.51,2.51,0,0,1-2.47-2.55v0A2.61,2.61,0,0,1,218.85,445.2Z"/><path class="cls-5" d="M209,450.31a2.6,2.6,0,0,1-2.5-2.56,2.7,2.7,0,0,1,2.58-2.55,2.61,2.61,0,0,1,2.56,2.66v.05a2.51,2.51,0,0,1-2.61,2.4Z"/><path class="cls-5" d="M201.91,447.74a2.47,2.47,0,0,1-.61,1.62.31.31,0,0,1-.13.17,1.73,1.73,0,0,1-.28.26h0L197,448.67a1.76,1.76,0,0,1-.18-.75,2.72,2.72,0,0,1,.19-1.13,2.46,2.46,0,0,1,.25-.45,3.47,3.47,0,0,1,.41-.45,2.47,2.47,0,0,1,1.69-.69h.2a.31.31,0,0,1,.19,0,2.07,2.07,0,0,1,.59.16,2.51,2.51,0,0,1,.81.56,1.76,1.76,0,0,1,.37.49A2.33,2.33,0,0,1,201.91,447.74Z"/><path class="cls-5" d="M285.19,423.38a2.59,2.59,0,1,1-2.61-2.56A2.58,2.58,0,0,1,285.19,423.38Z"/><path class="cls-5" d="M304.72,423.39a2.59,2.59,0,0,1-5.18,0h0a2.59,2.59,0,0,1,5.18,0Z"/><path class="cls-5" d="M321.8,420.83a2.64,2.64,0,0,1,2.45,2.63,2.59,2.59,0,0,1-5.18-.15c0-.05,0-.09,0-.14A2.62,2.62,0,0,1,321.8,420.83Z"/><path class="cls-5" d="M275.42,433.24a2.59,2.59,0,1,1-5.18.12,2.62,2.62,0,0,1,0-.28,2.59,2.59,0,0,1,5.17.16Z"/><path class="cls-5" d="M282.6,435.76a2.7,2.7,0,0,1-2.59-2.7,2.59,2.59,0,0,1,5.18,0A2.7,2.7,0,0,1,282.6,435.76Z"/><path class="cls-5" d="M292.39,430.6a2.58,2.58,0,0,1,2.56,2.49,2.68,2.68,0,0,1-2.61,2.67,2.73,2.73,0,0,1-2.56-2.54,2.57,2.57,0,0,1,2.52-2.62Z"/><path class="cls-5" d="M302.08,435.76a2.71,2.71,0,0,1-2.54-2.74,2.59,2.59,0,1,1,5.18.28h0A2.74,2.74,0,0,1,302.08,435.76Z"/><path class="cls-5" d="M312,435.76a2.72,2.72,0,0,1-2.65-2.45,2.58,2.58,0,1,1,5.16-.31A2.7,2.7,0,0,1,312,435.76Z"/><path class="cls-5" d="M321.11,430.67l-1.95,1.83A2.53,2.53,0,0,1,321.11,430.67Z"/><path class="cls-5" d="M302,445.52a2.72,2.72,0,0,1-2.5-2.78,2.6,2.6,0,0,1,5.18.35A2.74,2.74,0,0,1,302,445.52Z"/><path class="cls-5" d="M272.76,440.35a2.59,2.59,0,0,1,2.66,2.52v.05a2.59,2.59,0,1,1-5.17.32,1.71,1.71,0,0,1,0-.32A2.6,2.6,0,0,1,272.76,440.35Z"/><path class="cls-5" d="M285.19,442.93a2.59,2.59,0,0,1-5.18,0h0a2.59,2.59,0,1,1,5.18,0Z"/><path class="cls-5" d="M295,443a2.59,2.59,0,0,1-5.18.19c0-.1,0-.2,0-.3A2.59,2.59,0,0,1,295,443Z"/><path class="cls-5" d="M270.55,467.32a2.58,2.58,0,0,1-2.51,2.54h-.2a2.35,2.35,0,0,0,1.49-.6l-3.74-1.06a2.57,2.57,0,0,1,2.28-3.46h.07A2.72,2.72,0,0,1,270.55,467.32Z"/><path class="cls-5" d="M280.27,467.34a2.52,2.52,0,0,1-2.54,2.49,2.59,2.59,0,0,1-2.6-2.58v0a2.73,2.73,0,0,1,2.56-2.54A2.63,2.63,0,0,1,280.27,467.34Z"/><path class="cls-5" d="M268,411.37a2.59,2.59,0,1,1-.32-5.17H268a2.65,2.65,0,0,1,2.57,2.5A2.69,2.69,0,0,1,268,411.37Z"/><path class="cls-5" d="M275.42,452.59a2.58,2.58,0,1,1-2.66-2.51,2.58,2.58,0,0,1,2.66,2.51Z"/><path class="cls-5" d="M285.2,452.59a2.6,2.6,0,1,1-2.52-2.38A2.59,2.59,0,0,1,285.2,452.59Z"/><path class="cls-5" d="M295,452.66a2.59,2.59,0,1,1-5.17.32,1.71,1.71,0,0,1,0-.32,2.59,2.59,0,0,1,5.17,0Z"/><path class="cls-5" d="M272.88,459.87a2.57,2.57,0,0,1,2.54,2.6v.08a2.58,2.58,0,0,1-5.16-.08h0a2.57,2.57,0,0,1,2.54-2.6Z"/><path class="cls-5" d="M282.64,459.87a2.58,2.58,0,0,1,2.55,2.49,2.59,2.59,0,1,1-5.18.11,2.58,2.58,0,0,1,2.56-2.6Z"/><path class="cls-5" d="M275,470.85l-3.35-1A2.55,2.55,0,0,1,275,470.85Z"/><path class="cls-5" d="M289.78,423.29a2.59,2.59,0,1,1,0,.2A1.34,1.34,0,0,1,289.78,423.29Z"/><path class="cls-5" d="M272.76,426a2.72,2.72,0,0,1-2.5-2.59,2.58,2.58,0,0,1,5.16.16h0A2.74,2.74,0,0,1,272.76,426Z"/><path class="cls-5" d="M312,420.83a2.68,2.68,0,0,1,2.52,2.74,2.59,2.59,0,0,1-5.17-.14A2.63,2.63,0,0,1,312,420.83Z"/><path class="cls-5" d="M331.55,420.84l-2.71,2.56a2.64,2.64,0,0,1,2.57-2.58A.32.32,0,0,1,331.55,420.84Z"/><path class="cls-5" d="M338.5,410a2.61,2.61,0,0,1-2,1.33,2.7,2.7,0,0,1-2.76-2.49.81.81,0,0,1,0-.22.22.22,0,0,1,0-.16.43.43,0,0,0,0,.16h0l4.36,1.25Z"/><path class="cls-5" d="M329.12,408.69a2.59,2.59,0,0,1-5.16.45,2.44,2.44,0,0,1,0-.27,3.79,3.79,0,0,1,.05-.58,2.84,2.84,0,0,1,1.74-2h0l2.74.81a2.35,2.35,0,0,1,.59,1.31h0A.46.46,0,0,1,329.12,408.69Z"/><path class="cls-5" d="M319.36,408.78a2.59,2.59,0,0,1-5.18,0h0a2.65,2.65,0,0,1,2.5-2.57A2.69,2.69,0,0,1,319.36,408.78Z"/><path class="cls-5" d="M309.6,408.86a2.59,2.59,0,1,1-2.52-2.66h.11A2.64,2.64,0,0,1,309.6,408.86Z"/><path class="cls-5" d="M299.84,408.78a2.6,2.6,0,0,1-5.19,0,2.67,2.67,0,0,1,2.49-2.58A2.7,2.7,0,0,1,299.84,408.78Z"/><path class="cls-5" d="M287.4,411.37a2.58,2.58,0,1,1,.18-5.16,2.66,2.66,0,0,1,2.5,2.57A2.7,2.7,0,0,1,287.4,411.37Z"/><path class="cls-5" d="M277.8,411.37a2.71,2.71,0,0,1-2.67-2.59,2.65,2.65,0,0,1,2.5-2.57,2.58,2.58,0,0,1,.17,5.16Z"/><path class="cls-5" d="M309.6,428.38a2.59,2.59,0,1,1-2.36-2.55A2.58,2.58,0,0,1,309.6,428.38Z"/><path class="cls-5" d="M299.84,428.3a2.6,2.6,0,0,1-5.19,0,2.72,2.72,0,0,1,2.53-2.56A2.67,2.67,0,0,1,299.84,428.3Z"/><path class="cls-5" d="M290.08,428.34a2.59,2.59,0,0,1-5.18-.12h0a2.59,2.59,0,0,1,5.18.12Z"/><path class="cls-5" d="M280.31,428.35a2.59,2.59,0,0,1-5.17-.09v-.05a2.59,2.59,0,0,1,5.17.14Z"/><path class="cls-5" d="M270.55,428.27a2.59,2.59,0,1,1-2.59-2.59A2.59,2.59,0,0,1,270.55,428.27Z"/><path class="cls-5" d="M336.71,416l-3,2.8a1.82,1.82,0,0,1,0-.33,2.69,2.69,0,0,1,2.58-2.52A1.51,1.51,0,0,1,336.71,416Z"/><path class="cls-5" d="M326.52,415.94a2.7,2.7,0,0,1,2.61,2.66,2.59,2.59,0,0,1-5.17,0A2.66,2.66,0,0,1,326.52,415.94Z"/><path class="cls-5" d="M316.84,421.06a2.6,2.6,0,0,1-2.66-2.54h0A2.68,2.68,0,0,1,316.7,416a2.65,2.65,0,0,1,2.66,2.59A2.6,2.6,0,0,1,316.84,421.06Z"/><path class="cls-5" d="M307.08,416a2.66,2.66,0,0,1,2.51,2.73,2.59,2.59,0,0,1-5.17-.14A2.68,2.68,0,0,1,307.08,416Z"/><path class="cls-5" d="M297.24,421.07a2.61,2.61,0,1,1,2.59-2.78,1.71,1.71,0,0,1,0,.32A2.61,2.61,0,0,1,297.24,421.07Z"/><path class="cls-5" d="M290.07,418.61a2.59,2.59,0,1,1-2.37-2.53A2.59,2.59,0,0,1,290.07,418.61Z"/><path class="cls-5" d="M280.31,418.55a2.59,2.59,0,1,1-2.57-2.61,2.58,2.58,0,0,1,2.57,2.61Z"/><path class="cls-5" d="M270.55,418.55a2.59,2.59,0,1,1-2.56-2.61,2.58,2.58,0,0,1,2.56,2.61Z"/><path class="cls-5" d="M290.08,457.6a2.62,2.62,0,0,1-2.57,2.48,2.53,2.53,0,0,1-2.57-2.49v-.13a2.55,2.55,0,0,1,2.53-2.5A2.66,2.66,0,0,1,290.08,457.6Z"/><path class="cls-5" d="M280.27,457.57a2.53,2.53,0,0,1-2.51,2.51,2.59,2.59,0,0,1-2.63-2.57v0a2.64,2.64,0,0,1,2.72-2.52A2.55,2.55,0,0,1,280.27,457.57Z"/><path class="cls-5" d="M268,460.07a2.51,2.51,0,0,1-2.61-2.41v-.16a2.56,2.56,0,0,1,2.5-2.54,2.66,2.66,0,0,1,2.64,2.6A2.61,2.61,0,0,1,268,460.07Z"/><path class="cls-5" d="M319.36,428.34a2.61,2.61,0,0,1-2.56,2.48,2.58,2.58,0,0,1-2.61-2.55v0a2.59,2.59,0,0,1,5.17.12Z"/><path class="cls-5" d="M326.38,425.71,324,428A2.66,2.66,0,0,1,326.38,425.71Z"/><path class="cls-5" d="M324.25,413.71a2.72,2.72,0,0,1-2.55,2.53,2.58,2.58,0,1,1,2.55-2.61Z"/><path class="cls-5" d="M314.47,413.61a2.58,2.58,0,1,1-2.72-2.53A2.68,2.68,0,0,1,314.47,413.61Z"/><path class="cls-5" d="M302.09,416.25a2.72,2.72,0,0,1-2.55-2.53,2.59,2.59,0,0,1,5.18.07A2.73,2.73,0,0,1,302.09,416.25Z"/><path class="cls-5" d="M292.3,411.08a2.58,2.58,0,1,1-2.52,2.73A2.68,2.68,0,0,1,292.3,411.08Z"/><path class="cls-5" d="M282.68,411.08a2.58,2.58,0,1,1-2.67,2.6A2.7,2.7,0,0,1,282.68,411.08Z"/><path class="cls-5" d="M275.42,413.59a2.58,2.58,0,1,1-2.74-2.5A2.66,2.66,0,0,1,275.42,413.59Z"/><path class="cls-5" d="M309.6,438.05a2.63,2.63,0,0,1-2.51,2.53,2.56,2.56,0,0,1-2.63-2.47V438a2.58,2.58,0,0,1,2.49-2.55A2.66,2.66,0,0,1,309.6,438.05Z"/><path class="cls-5" d="M315.8,435.67l-1.31,1.24A2.68,2.68,0,0,1,315.8,435.67Z"/><path class="cls-5" d="M331.39,416.24a2.68,2.68,0,0,1-2.55-2.51,2.58,2.58,0,0,1,5.16,0A2.68,2.68,0,0,1,331.39,416.24Z"/><path class="cls-5" d="M297.3,440.58a2.61,2.61,0,0,1-2.64-2.44,2.65,2.65,0,0,1,2.61-2.68A2.59,2.59,0,0,1,299.8,438,2.55,2.55,0,0,1,297.3,440.58Z"/><path class="cls-5" d="M287.43,435.46a2.66,2.66,0,0,1,2.64,2.47,2.59,2.59,0,0,1-2.53,2.65h-.08a2.55,2.55,0,0,1-2.53-2.53A2.59,2.59,0,0,1,287.43,435.46Z"/><path class="cls-5" d="M280.27,438a2.55,2.55,0,0,1-2.45,2.61,2.62,2.62,0,0,1-2.69-2.53V438a2.67,2.67,0,0,1,2.57-2.54A2.58,2.58,0,0,1,280.27,438Z"/><path class="cls-5" d="M270.55,438.08a2.62,2.62,0,0,1-2.58,2.5,2.54,2.54,0,0,1-2.56-2.52v-.16a2.59,2.59,0,0,1,2.64-2.44A2.68,2.68,0,0,1,270.55,438.08Z"/><path class="cls-5" d="M297.23,450.32a2.62,2.62,0,0,1-2.58-2.51,2.69,2.69,0,0,1,2.7-2.6,2.61,2.61,0,0,1,2.45,2.63,2.52,2.52,0,0,1-2.56,2.48Z"/><path class="cls-5" d="M287.49,445.2a2.7,2.7,0,0,1,2.58,2.53,2.56,2.56,0,0,1-2.56,2.58h-.1a2.52,2.52,0,0,1-2.48-2.56h0A2.64,2.64,0,0,1,287.49,445.2Z"/><path class="cls-5" d="M277.63,450.31a2.6,2.6,0,0,1-2.5-2.56,2.71,2.71,0,0,1,2.57-2.55,2.61,2.61,0,0,1,2.57,2.65v.06a2.51,2.51,0,0,1-2.61,2.4Z"/><path class="cls-5" d="M270.54,447.74a2.55,2.55,0,0,1-2.48,2.57,2.51,2.51,0,0,1-2.65-2.36v0a2.61,2.61,0,0,1,2.5-2.72H268A2.68,2.68,0,0,1,270.54,447.74Z"/><path class="cls-5" d="M248.08,395.78a2.58,2.58,0,0,1,2.6,2.44,2.53,2.53,0,0,1-2.34,2.7h-.15a2.61,2.61,0,0,1-2.65-2.4A2.74,2.74,0,0,1,248.08,395.78Z"/><path class="cls-5" d="M204.12,371.45a2.6,2.6,0,0,1,2.66,2.54v0a2.58,2.58,0,1,1-2.66-2.58Z"/><path class="cls-5" d="M216.41,374.75a2.67,2.67,0,0,1-2.54,1.87,2.75,2.75,0,0,1-2.5-2.62,2.53,2.53,0,0,1,.1-.67Z"/><path class="cls-5" d="M201.91,408.23a2.61,2.61,0,0,1-2.59,2.46,2.53,2.53,0,0,1-2.55-2.51V408a2.61,2.61,0,0,1,2.55-2.5A2.74,2.74,0,0,1,201.91,408.23Z"/><path class="cls-5" d="M209.16,405.54a2.58,2.58,0,0,1,2.47,2.7v.05a2.52,2.52,0,0,1-2.63,2.4,2.6,2.6,0,0,1-2.51-2.54A2.7,2.7,0,0,1,209.16,405.54Z"/><path class="cls-5" d="M218.79,410.69a2.52,2.52,0,0,1-2.49-2.56V408a2.59,2.59,0,0,1,2.61-2.44,2.73,2.73,0,0,1,2.53,2.75A2.63,2.63,0,0,1,218.79,410.69Z"/><path class="cls-5" d="M228.69,405.54a2.58,2.58,0,0,1,2.47,2.67.28.28,0,0,0,0,.09,2.51,2.51,0,0,1-2.62,2.39h0a2.59,2.59,0,0,1-2.5-2.54A2.7,2.7,0,0,1,228.69,405.54Z"/><path class="cls-5" d="M241,408.19a2.61,2.61,0,0,1-2.56,2.5,2.52,2.52,0,0,1-2.59-2.45v-.16a2.58,2.58,0,0,1,2.51-2.54A2.73,2.73,0,0,1,241,408.19Z"/><path class="cls-5" d="M250.68,408.05a2.52,2.52,0,0,1-2.4,2.64h-.16a2.61,2.61,0,0,1-2.58-2.48,2.74,2.74,0,0,1,2.61-2.68A2.58,2.58,0,0,1,250.68,408.05Z"/><path class="cls-5" d="M260.49,408.19a2.61,2.61,0,0,1-2.55,2.5,2.52,2.52,0,0,1-2.59-2.45v-.16a2.58,2.58,0,0,1,2.51-2.54A2.71,2.71,0,0,1,260.49,408.19Z"/><path class="cls-5" d="M267.75,405.54a2.55,2.55,0,0,1,2.46,2.64s0,.08,0,.12a2.51,2.51,0,0,1-2.62,2.39h0a2.6,2.6,0,0,1-2.5-2.55A2.7,2.7,0,0,1,267.75,405.54Z"/><path class="cls-5" d="M201.91,398.42a2.6,2.6,0,0,1-2.54,2.51,2.51,2.51,0,0,1-2.6-2.42v-.17a2.62,2.62,0,0,1,2.51-2.56A2.72,2.72,0,0,1,201.91,398.42Z"/><path class="cls-5" d="M270.21,398.41a2.52,2.52,0,0,1-2.5,2.52,2.59,2.59,0,0,1-2.64-2.54v0a2.72,2.72,0,0,1,2.71-2.57A2.63,2.63,0,0,1,270.21,398.41Z"/><path class="cls-5" d="M211.63,398.45a2.52,2.52,0,0,1-2.54,2.48,2.59,2.59,0,0,1-2.6-2.58v0a2.73,2.73,0,0,1,2.57-2.53,2.62,2.62,0,0,1,2.57,2.67Z"/><path class="cls-5" d="M218.81,395.78a2.73,2.73,0,0,1,2.63,2.65,2.61,2.61,0,0,1-2.55,2.5,2.52,2.52,0,0,1-2.59-2.42A2.62,2.62,0,0,1,218.81,395.78Z"/><path class="cls-5" d="M228.67,395.78a2.63,2.63,0,0,1,2.48,2.76,2.52,2.52,0,0,1-2.62,2.39A2.61,2.61,0,0,1,226,398.4,2.73,2.73,0,0,1,228.67,395.78Z"/><path class="cls-5" d="M238.32,400.93a2.52,2.52,0,0,1-2.5-2.52,2.63,2.63,0,0,1,2.62-2.63,2.71,2.71,0,0,1,2.52,2.75A2.6,2.6,0,0,1,238.32,400.93Z"/><path class="cls-5" d="M257.89,395.78a2.72,2.72,0,0,1,2.6,2.68,2.6,2.6,0,0,1-2.57,2.47,2.53,2.53,0,0,1-2.57-2.45A2.63,2.63,0,0,1,257.89,395.78Z"/><path class="cls-5" d="M206.78,383.69a2.58,2.58,0,1,1-2.66-2.51A2.58,2.58,0,0,1,206.78,383.69Z"/><path class="cls-5" d="M216.56,383.7a2.6,2.6,0,1,1-2.51-2.39A2.61,2.61,0,0,1,216.56,383.7Z"/><path class="cls-5" d="M226.31,383.77a2.59,2.59,0,1,1-5.17.32,1.71,1.71,0,0,1,0-.32,2.59,2.59,0,0,1,5.17,0Z"/><path class="cls-5" d="M230.9,383.67a2.59,2.59,0,1,1,2.49,2.68,2.59,2.59,0,0,1-2.49-2.68Z"/><path class="cls-5" d="M265.36,403.36a2.59,2.59,0,1,1-2.37-2.53A2.59,2.59,0,0,1,265.36,403.36Z"/><path class="cls-5" d="M255.61,403.26a2.59,2.59,0,1,1-2.59-2.59A2.59,2.59,0,0,1,255.61,403.26Z"/><path class="cls-5" d="M243.18,400.73a2.57,2.57,0,0,1,2.66,2.48v.08a2.59,2.59,0,1,1-2.74-2.56Z"/><path class="cls-5" d="M236.08,403.31a2.59,2.59,0,1,1-2.55-2.63A2.58,2.58,0,0,1,236.08,403.31Z"/><path class="cls-5" d="M226.31,403.26a2.59,2.59,0,1,1-5.17.32,1.71,1.71,0,0,1,0-.32,2.59,2.59,0,0,1,5.17,0Z"/><path class="cls-5" d="M245.83,383.59a2.67,2.67,0,0,1-2.49,2.76,2.71,2.71,0,0,1-2.67-2.41,2.54,2.54,0,0,1,.73-1.95l4.37,1.26h0A2,2,0,0,1,245.83,383.59Z"/><path class="cls-5" d="M254.56,385.78a2.39,2.39,0,0,1-1.53.57,2.67,2.67,0,0,1-2.42-1.71Z"/><path class="cls-5" d="M204.24,391a2.57,2.57,0,0,1,2.54,2.6v.08a2.58,2.58,0,1,1-5.16-.08h0a2.57,2.57,0,0,1,2.54-2.6Z"/><path class="cls-5" d="M214,391a2.58,2.58,0,0,1,2.55,2.5,2.68,2.68,0,0,1-2.62,2.64,2.71,2.71,0,0,1-2.56-2.53,2.59,2.59,0,0,1,2.57-2.61Z"/><path class="cls-5" d="M223.79,391a2.65,2.65,0,1,1-2.65,2.9v-.31a2.59,2.59,0,0,1,2.59-2.59Z"/><path class="cls-5" d="M230.9,393.57a2.59,2.59,0,0,1,5.18-.1h0a2.59,2.59,0,0,1-5.18.1Z"/><path class="cls-5" d="M243.18,391a2.59,2.59,0,0,1,2.66,2.5v.07a2.59,2.59,0,1,1-5.17.32,1.71,1.71,0,0,1,0-.32A2.58,2.58,0,0,1,243.18,391Z"/><path class="cls-5" d="M255.61,393.53a2.59,2.59,0,1,1-2.59-2.59A2.59,2.59,0,0,1,255.61,393.53Z"/><path class="cls-5" d="M214,405.86a2.71,2.71,0,0,1-2.59-2.49,2.6,2.6,0,0,1,5.19-.19A2.7,2.7,0,0,1,214,405.86Z"/><path class="cls-5" d="M262.74,396.11a2.67,2.67,0,0,1-2.54-2.53,2.58,2.58,0,1,1,5.16.07A2.69,2.69,0,0,1,262.74,396.11Z"/><path class="cls-5" d="M204.28,400.73a2.56,2.56,0,0,1,2.5,2.61v.11a2.58,2.58,0,0,1-5.16-.17,2.55,2.55,0,0,1,2.57-2.55Z"/><path class="cls-5" d="M269.71,390.15a2.43,2.43,0,0,1-1.9,1,.38.38,0,0,1-.15,0,2.59,2.59,0,0,1-2.57-2.36l.34.09Z"/><path class="cls-5" d="M260.5,388.73a2.64,2.64,0,0,1-2.6,2.46,2.53,2.53,0,0,1-2.55-2.51v-.13a2.5,2.5,0,0,1,1.34-2.15l3.43,1A2.51,2.51,0,0,1,260.5,388.73Z"/><path class="cls-5" d="M248.08,386.07a2.56,2.56,0,1,1-2.53,2.7A2.64,2.64,0,0,1,248.08,386.07Z"/><path class="cls-5" d="M238.32,386.07a2.66,2.66,0,0,1,2.65,2.6,2.61,2.61,0,0,1-2.53,2.51,2.53,2.53,0,0,1-2.62-2.44v-.14A2.56,2.56,0,0,1,238.32,386.07Z"/><path class="cls-5" d="M231.16,388.63a2.53,2.53,0,0,1-2.47,2.55,2.6,2.6,0,0,1-2.67-2.51v0a2.65,2.65,0,0,1,2.67-2.57A2.56,2.56,0,0,1,231.16,388.63Z"/><path class="cls-5" d="M221.44,388.7a2.61,2.61,0,0,1-2.57,2.48,2.51,2.51,0,0,1-2.57-2.45v-.16a2.57,2.57,0,0,1,2.53-2.51A2.66,2.66,0,0,1,221.44,388.7Z"/><path class="cls-5" d="M211.63,388.68a2.52,2.52,0,0,1-2.51,2.5,2.59,2.59,0,0,1-2.63-2.57v0a2.65,2.65,0,0,1,2.72-2.52A2.55,2.55,0,0,1,211.63,388.68Z"/><path class="cls-5" d="M199.38,391.18a2.52,2.52,0,0,1-2.61-2.43v-.15a2.55,2.55,0,0,1,2.5-2.53,2.66,2.66,0,0,1,2.64,2.6A2.61,2.61,0,0,1,199.38,391.18Z"/><path class="cls-5" d="M201.5,370.46a1.27,1.27,0,0,1-.13.19,1.32,1.32,0,0,1-.25.28,1.85,1.85,0,0,1-.37.31,2.3,2.3,0,0,1-.4.23,1,1,0,0,1-.42.13.66.66,0,0,1-.28,0,.76.76,0,0,1-.3,0,2.66,2.66,0,0,1-1-.2,2.26,2.26,0,0,1-.82-.54.91.91,0,0,1-.18-.21.9.9,0,0,1-.15-.19,2.52,2.52,0,0,1-.42-1.46Z"/><path class="cls-5" d="M201.7,370.1a1.22,1.22,0,0,1-.18.36h0A3,3,0,0,0,201.7,370.1Z"/><path class="cls-5" d="M231.14,379a2.47,2.47,0,0,1-2.55,2.39h0A2.57,2.57,0,0,1,226,378.9a2.52,2.52,0,0,1,.36-1.28Z"/><path class="cls-5" d="M239.06,381.31a2.78,2.78,0,0,1-.76.1,2.48,2.48,0,0,1-1.83-.85Z"/><path class="cls-5" d="M218.85,376.31a2.71,2.71,0,0,1,2.59,2.53,2.58,2.58,0,0,1-2.6,2.58h-.07a2.51,2.51,0,0,1-2.47-2.55v0A2.61,2.61,0,0,1,218.85,376.31Z"/><path class="cls-5" d="M209,381.42a2.59,2.59,0,0,1-2.5-2.57,2.71,2.71,0,0,1,2.58-2.54,2.6,2.6,0,0,1,2.56,2.64V379a2.52,2.52,0,0,1-2.62,2.41Z"/><path class="cls-5" d="M201.9,378.84a2.56,2.56,0,0,1-2.48,2.58,2.51,2.51,0,0,1-2.64-2.37v0a2.59,2.59,0,0,1,2.47-2.71h.07A2.66,2.66,0,0,1,201.9,378.84Z"/><path class="cls-5" d="M270.55,408.23a2.61,2.61,0,0,1-2.59,2.46,2.52,2.52,0,0,1-2.55-2.49V408a2.61,2.61,0,0,1,2.55-2.5A2.74,2.74,0,0,1,270.55,408.23Z"/><path class="cls-5" d="M277.8,405.54a2.56,2.56,0,0,1,2.46,2.67v.08a2.51,2.51,0,0,1-2.62,2.4h0a2.6,2.6,0,0,1-2.51-2.54A2.7,2.7,0,0,1,277.8,405.54Z"/><path class="cls-5" d="M287.43,410.69a2.54,2.54,0,0,1-2.5-2.56c0-.05,0-.1,0-.15a2.58,2.58,0,0,1,2.61-2.44,2.73,2.73,0,0,1,2.53,2.75A2.62,2.62,0,0,1,287.43,410.69Z"/><path class="cls-5" d="M297.33,405.54a2.58,2.58,0,0,1,2.47,2.67.28.28,0,0,0,0,.09,2.51,2.51,0,0,1-2.62,2.39h0a2.59,2.59,0,0,1-2.5-2.54A2.7,2.7,0,0,1,297.33,405.54Z"/><path class="cls-5" d="M309.6,408.19a2.61,2.61,0,0,1-2.55,2.5,2.52,2.52,0,0,1-2.59-2.45v-.16a2.58,2.58,0,0,1,2.51-2.54A2.73,2.73,0,0,1,309.6,408.19Z"/><path class="cls-5" d="M319.32,408.05a2.52,2.52,0,0,1-2.4,2.64h-.16a2.61,2.61,0,0,1-2.58-2.48,2.73,2.73,0,0,1,2.6-2.68A2.6,2.6,0,0,1,319.32,408.05Z"/><path class="cls-5" d="M329.13,408.2a1.13,1.13,0,0,1,0,.26h0a2.6,2.6,0,0,1-2.51,2.2,2.5,2.5,0,0,1-2.58-2.4.74.74,0,0,1,0-.21,2.58,2.58,0,0,1,.95-2h0l.79.23h0l2.74.81.45.13A2.35,2.35,0,0,1,329.13,408.2Z"/><path class="cls-5" d="M338.12,409.92a2.44,2.44,0,0,1-1.92.77,2.66,2.66,0,0,1-2.44-2Z"/><path class="cls-5" d="M270.55,398.42a2.6,2.6,0,0,1-2.54,2.51,2.51,2.51,0,0,1-2.6-2.42v-.17a2.62,2.62,0,0,1,2.51-2.56A2.72,2.72,0,0,1,270.55,398.42Z"/><path class="cls-5" d="M280.27,398.45a2.52,2.52,0,0,1-2.54,2.48,2.59,2.59,0,0,1-2.6-2.58v0a2.72,2.72,0,0,1,2.56-2.53,2.62,2.62,0,0,1,2.58,2.66Z"/><path class="cls-5" d="M287.45,395.78a2.73,2.73,0,0,1,2.63,2.65,2.61,2.61,0,0,1-2.55,2.5,2.52,2.52,0,0,1-2.59-2.42A2.62,2.62,0,0,1,287.45,395.78Z"/><path class="cls-5" d="M299.74,398.83a2.46,2.46,0,0,1-2.57,2.1,2.58,2.58,0,0,1-2.51-2.53,2.49,2.49,0,0,1,.21-1Z"/><path class="cls-5" d="M307,400.93a2.45,2.45,0,0,1-1.31-.39Z"/><path class="cls-5" d="M322.87,405.52a2.27,2.27,0,0,1-1.1.35,2.72,2.72,0,0,1-2.33-1.35Z"/><path class="cls-5" d="M314.47,403.29a2.58,2.58,0,0,1-5.16.15h0a2.45,2.45,0,0,1,.52-1.69l4.63,1.33A1.48,1.48,0,0,1,314.47,403.29Z"/><path class="cls-5" d="M304.72,403.31a2.59,2.59,0,1,1-2.55-2.63A2.58,2.58,0,0,1,304.72,403.31Z"/><path class="cls-5" d="M295,403.26a2.59,2.59,0,1,1-5.17.32,1.71,1.71,0,0,1,0-.32,2.59,2.59,0,0,1,5.17,0Z"/><path class="cls-5" d="M275.42,393.65a2.59,2.59,0,1,1-2.8-2.66h.25a2.35,2.35,0,0,1,1.52.55A2.51,2.51,0,0,1,275.42,393.65Z"/><path class="cls-5" d="M284.93,394.57a2.66,2.66,0,0,1-2.36,1.54,2.71,2.71,0,0,1-2.56-2.53,1.62,1.62,0,0,1,0-.44Z"/><path class="cls-5" d="M282.6,405.86a2.71,2.71,0,0,1-2.59-2.49,2.59,2.59,0,1,1,5.18-.19A2.69,2.69,0,0,1,282.6,405.86Z"/><path class="cls-5" d="M272.92,400.73a2.56,2.56,0,0,1,2.5,2.61v.11a2.58,2.58,0,0,1-5.16-.17,2.55,2.55,0,0,1,2.57-2.55Z"/><path class="cls-5" d="M269.94,390.24a2.65,2.65,0,0,1-1.92.95h-.21a2.49,2.49,0,0,1-2.38-2.25l4.28,1.23Z"/><path class="cls-5" d="M118.64,423.47a2.74,2.74,0,0,1-1.89,2.41h0l-2.56-.73a2.64,2.64,0,0,1-.72-2,2.6,2.6,0,0,1,5.18.3Z"/><path class="cls-5" d="M64.93,408.7a2.66,2.66,0,0,1-1.1,2.15l-.87-.24L60.81,410l3.25-3.12a2.6,2.6,0,0,1,.85,1.64A.55.55,0,0,1,64.93,408.7Z"/><path class="cls-5" d="M108.87,423.56a.14.14,0,0,1,0,.09L104,422.27a2.57,2.57,0,0,1,4.88,1.29Z"/><path class="cls-5" d="M125.8,426a2.72,2.72,0,0,1-2.58-2.51,2.59,2.59,0,1,1,5.17-.32,1.71,1.71,0,0,1,0,.32A2.72,2.72,0,0,1,125.8,426Z"/><path class="cls-5" d="M133.27,408.7a2.59,2.59,0,0,1-5.17.16,2.64,2.64,0,0,1,2.41-2.65A2.7,2.7,0,0,1,133.27,408.7Z"/><path class="cls-5" d="M120.94,406.2a2.64,2.64,0,0,1,2.57,2.49,2.59,2.59,0,1,1-2.69-2.49Z"/><path class="cls-5" d="M113.75,408.78a2.59,2.59,0,1,1-5.18,0,2.65,2.65,0,0,1,2.49-2.57A2.69,2.69,0,0,1,113.75,408.78Z"/><path class="cls-5" d="M104,408.86a2.59,2.59,0,1,1-2.52-2.66h.11A2.64,2.64,0,0,1,104,408.86Z"/><path class="cls-5" d="M94.23,408.78a2.6,2.6,0,0,1-5.19,0,2.67,2.67,0,0,1,2.49-2.58A2.7,2.7,0,0,1,94.23,408.78Z"/><path class="cls-5" d="M81.79,411.37a2.58,2.58,0,0,1,.18-5.16h0a2.66,2.66,0,0,1,2.5,2.57A2.72,2.72,0,0,1,81.79,411.37Z"/><path class="cls-5" d="M72.19,411.37a2.71,2.71,0,0,1-2.67-2.59,2.63,2.63,0,0,1,2.5-2.57,2.58,2.58,0,1,1,.17,5.16Z"/><path class="cls-5" d="M133.28,418.59a2.62,2.62,0,0,1-2.57,2.48,2.59,2.59,0,0,1-2.61-2.57v0a2.59,2.59,0,1,1,5.18.13Z"/><path class="cls-5" d="M120.91,415.94a2.7,2.7,0,0,1,2.61,2.66,2.59,2.59,0,0,1-5.17,0A2.66,2.66,0,0,1,120.91,415.94Z"/><path class="cls-5" d="M111.23,421.06a2.59,2.59,0,0,1-2.66-2.52v0a2.59,2.59,0,0,1,5.18.08A2.6,2.6,0,0,1,111.23,421.06Z"/><path class="cls-5" d="M101.47,416a2.66,2.66,0,0,1,2.53,2.68,2.59,2.59,0,0,1-5.17-.14A2.68,2.68,0,0,1,101.47,416Z"/><path class="cls-5" d="M94.22,418.61a2.57,2.57,0,0,1-.18.82L89.1,418a2.71,2.71,0,0,1,2.53-2.1A2.67,2.67,0,0,1,94.22,418.61Z"/><path class="cls-5" d="M83.21,416.36,81.75,416h.12A2.35,2.35,0,0,1,83.21,416.36Z"/><path class="cls-5" d="M123.46,427.8l-4.39-1.25a2.53,2.53,0,0,1,1.93-.85A2.71,2.71,0,0,1,123.46,427.8Z"/><path class="cls-5" d="M133.25,428.52a2.38,2.38,0,0,1-1,1.77l-3.61-1-.33-.09h0a2.38,2.38,0,0,1-.15-1.12,2.69,2.69,0,0,1,2.71-2.33H131A2.63,2.63,0,0,1,133.25,428.52Z"/><path class="cls-5" d="M118.63,413.71a2.59,2.59,0,1,1-2.63-2.63A2.7,2.7,0,0,1,118.63,413.71Z"/><path class="cls-5" d="M108.86,413.61a2.58,2.58,0,1,1-2.72-2.53A2.69,2.69,0,0,1,108.86,413.61Z"/><path class="cls-5" d="M96.48,416.25a2.72,2.72,0,0,1-2.55-2.53,2.59,2.59,0,1,1,5.18.07A2.73,2.73,0,0,1,96.48,416.25Z"/><path class="cls-5" d="M86.69,411.08a2.58,2.58,0,1,1-2.52,2.73A2.68,2.68,0,0,1,86.69,411.08Z"/><path class="cls-5" d="M79.57,413.82a2.5,2.5,0,0,1-.54,1.36l-4.61-1.31v-.2a2.58,2.58,0,0,1,5.16.15Z"/><path class="cls-5" d="M69.47,412.46l-3.51-1a2.54,2.54,0,0,1,1.1-.38A2.63,2.63,0,0,1,69.47,412.46Z"/><path class="cls-5" d="M125.78,416.24a2.68,2.68,0,0,1-2.55-2.51,2.58,2.58,0,0,1,5.16,0A2.7,2.7,0,0,1,125.78,416.24Z"/><path class="cls-5" d="M148.22,423.38a2.59,2.59,0,1,1-5.18.05h0a2.59,2.59,0,1,1,5.18-.05Z"/><path class="cls-5" d="M167.75,423.39a2.59,2.59,0,1,1-2.59-2.59A2.59,2.59,0,0,1,167.75,423.39Z"/><path class="cls-5" d="M184.83,420.83a2.62,2.62,0,0,1,2.44,2.63,2.59,2.59,0,0,1-5.18.06c0-.12,0-.23,0-.35A2.62,2.62,0,0,1,184.83,420.83Z"/><path class="cls-5" d="M138.13,432l-3.55-1a2.55,2.55,0,0,1,1.42-.4A2.57,2.57,0,0,1,138.13,432Z"/><path class="cls-5" d="M148.23,433.08a2.55,2.55,0,0,1-.56,1.59l-4.62-1.31a1.5,1.5,0,0,1,0-.3,2.6,2.6,0,0,1,5.2,0Z"/><path class="cls-5" d="M155.42,430.6a2.64,2.64,0,1,1-2.6,2.91,2.71,2.71,0,0,1,0-.29,2.57,2.57,0,0,1,2.52-2.62Z"/><path class="cls-5" d="M165.11,435.76a2.71,2.71,0,0,1-2.54-2.74,2.59,2.59,0,1,1,5.18.28A2.74,2.74,0,0,1,165.11,435.76Z"/><path class="cls-5" d="M175,435.76a2.72,2.72,0,0,1-2.64-2.45,2.58,2.58,0,1,1,5.16-.31A2.7,2.7,0,0,1,175,435.76Z"/><path class="cls-5" d="M184.6,430.6a2.58,2.58,0,0,1,2.67,2.49v.08a2.59,2.59,0,0,1-5.18,0h0A2.59,2.59,0,0,1,184.6,430.6Z"/><path class="cls-5" d="M194.4,435.76a2.71,2.71,0,0,1-2.54-2.74,2.59,2.59,0,0,1,5.17.28A2.7,2.7,0,0,1,194.4,435.76Z"/><path class="cls-5" d="M194.51,440.35a2.53,2.53,0,1,1-.13,5,2.57,2.57,0,0,1-2.51-2.64h0A2.59,2.59,0,0,1,194.51,440.35Z"/><path class="cls-5" d="M187.28,443a2.75,2.75,0,0,1-1.87,2.36h0a1.82,1.82,0,0,1-.73.13,2.74,2.74,0,0,1-2.56-2.72,2.59,2.59,0,1,1,5.18.23Z"/><path class="cls-5" d="M177.51,442.82a1.82,1.82,0,0,1,0,.33l-4.87-1.4a2.59,2.59,0,0,1,4.89,1.07Z"/><path class="cls-5" d="M131,411.37a2.59,2.59,0,1,1-.32-5.17H131a2.65,2.65,0,0,1,2.57,2.5A2.69,2.69,0,0,1,131,411.37Z"/><path class="cls-5" d="M152.81,423.29a2.59,2.59,0,1,1,0,.2A1.34,1.34,0,0,1,152.81,423.29Z"/><path class="cls-5" d="M135.79,426a2.73,2.73,0,0,1-2.51-2.59,2.59,2.59,0,1,1,5.18-.12,2.62,2.62,0,0,1,0,.28A2.74,2.74,0,0,1,135.79,426Z"/><path class="cls-5" d="M175,420.83a2.65,2.65,0,0,1,2.51,2.74,2.58,2.58,0,0,1-5.16-.14h0A2.63,2.63,0,0,1,175,420.83Z"/><path class="cls-5" d="M194.44,426a2.72,2.72,0,0,1-2.58-2.51,2.59,2.59,0,1,1,5.17-.32,1.71,1.71,0,0,1,0,.32A2.72,2.72,0,0,1,194.44,426Z"/><path class="cls-5" d="M201.91,408.7a2.59,2.59,0,0,1-5.17.16,2.64,2.64,0,0,1,2.41-2.65A2.7,2.7,0,0,1,201.91,408.7Z"/><path class="cls-5" d="M189.58,406.2a2.65,2.65,0,0,1,2.57,2.49,2.59,2.59,0,1,1-2.69-2.49Z"/><path class="cls-5" d="M182.39,408.78a2.59,2.59,0,0,1-5.18,0h0a2.64,2.64,0,0,1,2.49-2.57A2.69,2.69,0,0,1,182.39,408.78Z"/><path class="cls-5" d="M172.63,408.86a2.59,2.59,0,1,1-2.52-2.66h.11A2.64,2.64,0,0,1,172.63,408.86Z"/><path class="cls-5" d="M162.87,408.78a2.6,2.6,0,0,1-5.19,0,2.67,2.67,0,0,1,2.49-2.58A2.7,2.7,0,0,1,162.87,408.78Z"/><path class="cls-5" d="M150.43,411.37a2.72,2.72,0,0,1-2.51-2.59,2.69,2.69,0,0,1,2.69-2.57,2.66,2.66,0,0,1,2.5,2.57A2.72,2.72,0,0,1,150.43,411.37Z"/><path class="cls-5" d="M140.83,411.37a2.71,2.71,0,0,1-2.67-2.59,2.63,2.63,0,0,1,2.5-2.57,2.58,2.58,0,1,1,.17,5.16Z"/><path class="cls-5" d="M172.63,428.38a2.59,2.59,0,1,1-2.36-2.55A2.58,2.58,0,0,1,172.63,428.38Z"/><path class="cls-5" d="M162.87,428.3a2.6,2.6,0,0,1-5.19,0,2.72,2.72,0,0,1,2.52-2.56A2.67,2.67,0,0,1,162.87,428.3Z"/><path class="cls-5" d="M153.1,428.34a2.59,2.59,0,1,1-2.38-2.49A2.59,2.59,0,0,1,153.1,428.34Z"/><path class="cls-5" d="M143.34,428.35a2.59,2.59,0,1,1-5.18-.14h0a2.59,2.59,0,0,1,5.18.14Z"/><path class="cls-5" d="M133.58,428.27a2.49,2.49,0,0,1-1.13,2.08,2.39,2.39,0,0,1-1.36.46h-.2a2.32,2.32,0,0,0,1.33-.52l-3.61-1a2.3,2.3,0,0,1-.21-1,2.67,2.67,0,0,1,2.43-2.58h0A2.68,2.68,0,0,1,133.58,428.27Z"/><path class="cls-5" d="M201.91,418.59a2.59,2.59,0,1,1-2.38-2.5A2.59,2.59,0,0,1,201.91,418.59Z"/><path class="cls-5" d="M189.55,415.94a2.7,2.7,0,0,1,2.61,2.66,2.59,2.59,0,0,1-5.18,0A2.67,2.67,0,0,1,189.55,415.94Z"/><path class="cls-5" d="M179.87,421.06a2.59,2.59,0,0,1-2.66-2.52v0a2.59,2.59,0,1,1,2.66,2.55Z"/><path class="cls-5" d="M170.11,416a2.66,2.66,0,0,1,2.51,2.73,2.59,2.59,0,0,1-5.17-.14A2.68,2.68,0,0,1,170.11,416Z"/><path class="cls-5" d="M160.27,421.07a2.61,2.61,0,1,1,2.59-2.78,1.71,1.71,0,0,1,0,.32A2.61,2.61,0,0,1,160.27,421.07Z"/><path class="cls-5" d="M153.1,418.61a2.59,2.59,0,1,1-2.37-2.53A2.59,2.59,0,0,1,153.1,418.61Z"/><path class="cls-5" d="M143.34,418.55a2.59,2.59,0,0,1-5.18-.05h0a2.59,2.59,0,1,1,5.18.05Z"/><path class="cls-5" d="M133.58,418.55a2.59,2.59,0,0,1-5.18-.05h0a2.59,2.59,0,1,1,5.18.05Z"/><path class="cls-5" d="M182.39,428.34a2.61,2.61,0,0,1-2.56,2.48,2.58,2.58,0,0,1-2.61-2.55v0a2.59,2.59,0,0,1,5.17.12Z"/><path class="cls-5" d="M189.63,425.7a2.67,2.67,0,0,1,2.52,2.73,2.59,2.59,0,0,1-5.18-.13h0A2.69,2.69,0,0,1,189.63,425.7Z"/><path class="cls-5" d="M196.76,428a2.58,2.58,0,1,1,2.36,2.78H199A2.59,2.59,0,0,1,196.76,428Z"/><path class="cls-5" d="M187.27,413.71a2.59,2.59,0,1,1-2.63-2.63A2.7,2.7,0,0,1,187.27,413.71Z"/><path class="cls-5" d="M177.5,413.61a2.58,2.58,0,1,1-2.72-2.53A2.69,2.69,0,0,1,177.5,413.61Z"/><path class="cls-5" d="M165.12,416.25a2.72,2.72,0,0,1-2.55-2.53,2.59,2.59,0,1,1,5.18.07A2.73,2.73,0,0,1,165.12,416.25Z"/><path class="cls-5" d="M155.33,411.08a2.58,2.58,0,1,1-2.52,2.64A2.59,2.59,0,0,1,155.33,411.08Z"/><path class="cls-5" d="M145.7,411.08a2.58,2.58,0,1,1-2.66,2.6A2.69,2.69,0,0,1,145.7,411.08Z"/><path class="cls-5" d="M138.45,413.59a2.58,2.58,0,1,1-2.75-2.5A2.67,2.67,0,0,1,138.45,413.59Z"/><path class="cls-5" d="M172.63,438.05a2.63,2.63,0,0,1-2.51,2.53,2.56,2.56,0,0,1-2.63-2.47V438a2.58,2.58,0,0,1,2.49-2.55A2.66,2.66,0,0,1,172.63,438.05Z"/><path class="cls-5" d="M182.35,438a2.53,2.53,0,0,1-2.46,2.6,2.6,2.6,0,0,1-2.68-2.52V438a2.68,2.68,0,0,1,2.58-2.54A2.61,2.61,0,0,1,182.35,438Z"/><path class="cls-5" d="M192.16,438.08a2.62,2.62,0,0,1-2.58,2.5,2.54,2.54,0,0,1-2.58-2.5v-.18a2.59,2.59,0,0,1,2.64-2.44A2.68,2.68,0,0,1,192.16,438.08Z"/><path class="cls-5" d="M199.26,435.46a2.56,2.56,0,0,1,.21,5.12,2.63,2.63,0,0,1-2.74-2.52h0A2.68,2.68,0,0,1,199.26,435.46Z"/><path class="cls-5" d="M194.42,416.24a2.58,2.58,0,1,1,2.61-2.55v.09A2.68,2.68,0,0,1,194.42,416.24Z"/><path class="cls-5" d="M162.83,438a2.63,2.63,0,0,1-.17.92l-4.92-1.39a2.7,2.7,0,0,1,2.56-2.09A2.61,2.61,0,0,1,162.83,438Z"/><path class="cls-5" d="M151.84,435.86l-1.38-.41A2.43,2.43,0,0,1,151.84,435.86Z"/><path class="cls-5" d="M192.09,447.3l-4.38-1.25a2.53,2.53,0,0,1,1.78-.84A2.67,2.67,0,0,1,192.09,447.3Z"/><path class="cls-5" d="M201.88,447.71a2.6,2.6,0,0,1-.33,1.31,2.13,2.13,0,0,1-.25.34.31.31,0,0,1-.13.17,1.73,1.73,0,0,1-.28.26h0L197,448.67a.47.47,0,0,0,.06.2.41.41,0,0,1-.1-.21h0a2.3,2.3,0,0,1,.06-1.87,2.46,2.46,0,0,1,.25-.45,3.47,3.47,0,0,1,.41-.45,2.71,2.71,0,0,1,1.67-.68h.22a.31.31,0,0,1,.19,0,2.07,2.07,0,0,1,.59.16,2.51,2.51,0,0,1,.81.56,1.76,1.76,0,0,1,.37.49A2.45,2.45,0,0,1,201.88,447.71Z"/><path class="cls-5" d="M111.1,395.78a2.59,2.59,0,0,1,2.61,2.44,2.53,2.53,0,0,1-2.34,2.7h-.15a2.61,2.61,0,0,1-2.65-2.4A2.74,2.74,0,0,1,111.1,395.78Z"/><path class="cls-5" d="M108.87,364.11a2.72,2.72,0,0,1-2.53,2.75,1.93,1.93,0,0,1-.48,0l3-2.86A.8.8,0,0,1,108.87,364.11Z"/><path class="cls-5" d="M125.87,371.45a2.53,2.53,0,1,1-2.64,2.42A2.6,2.6,0,0,1,125.87,371.45Z"/><path class="cls-5" d="M113.45,373.91a2.59,2.59,0,1,1,2.48,2.7,2.59,2.59,0,0,1-2.48-2.7Z"/><path class="cls-5" d="M106.26,371.45a2.61,2.61,0,1,1-2.56,2.79,1.71,1.71,0,0,1,0-.32A2.59,2.59,0,0,1,106.26,371.45Z"/><path class="cls-5" d="M99.11,374.2a2.75,2.75,0,0,1-2.68,2.42,2.09,2.09,0,0,1-.65-.13L99,373.38A2.26,2.26,0,0,1,99.11,374.2Z"/><path class="cls-5" d="M64.94,408.23a1.41,1.41,0,0,1,0,.29A2.62,2.62,0,0,1,63,410.61L60.81,410l3.25-3.12.29-.28A2.42,2.42,0,0,1,64.94,408.23Z"/><path class="cls-5" d="M72.19,405.54a2.56,2.56,0,0,1,2.46,2.67v.08a2.51,2.51,0,0,1-2.62,2.4h0a2.59,2.59,0,0,1-2.51-2.54A2.7,2.7,0,0,1,72.19,405.54Z"/><path class="cls-5" d="M81.82,410.69a2.55,2.55,0,0,1-2.51-2.57.66.66,0,0,0,0-.14,2.59,2.59,0,0,1,2.61-2.44,2.72,2.72,0,0,1,2.53,2.75A2.6,2.6,0,0,1,81.82,410.69Z"/><path class="cls-5" d="M91.72,405.54a2.58,2.58,0,0,1,2.47,2.67.28.28,0,0,0,0,.09,2.51,2.51,0,0,1-2.62,2.39h0A2.61,2.61,0,0,1,89,408.15,2.72,2.72,0,0,1,91.72,405.54Z"/><path class="cls-5" d="M104,408.19a2.61,2.61,0,0,1-2.55,2.5,2.52,2.52,0,0,1-2.59-2.45v-.16a2.58,2.58,0,0,1,2.51-2.54A2.73,2.73,0,0,1,104,408.19Z"/><path class="cls-5" d="M113.71,408.05a2.52,2.52,0,0,1-2.4,2.64h-.16a2.61,2.61,0,0,1-2.58-2.48,2.73,2.73,0,0,1,2.6-2.68A2.6,2.6,0,0,1,113.71,408.05Z"/><path class="cls-5" d="M123.52,408.19a2.61,2.61,0,0,1-2.55,2.5,2.52,2.52,0,0,1-2.59-2.45v-.16a2.58,2.58,0,0,1,2.51-2.54A2.71,2.71,0,0,1,123.52,408.19Z"/><path class="cls-5" d="M130.78,405.54a2.56,2.56,0,0,1,2.45,2.68v.08a2.53,2.53,0,0,1-2.63,2.39,2.6,2.6,0,0,1-2.5-2.55A2.7,2.7,0,0,1,130.78,405.54Z"/><path class="cls-5" d="M133.24,398.41a2.52,2.52,0,0,1-2.5,2.52,2.59,2.59,0,0,1-2.64-2.54v0a2.7,2.7,0,0,1,2.7-2.57A2.63,2.63,0,0,1,133.24,398.41Z"/><path class="cls-5" d="M74.67,398.45a2.54,2.54,0,0,1-4,2.05l3.57-3.42A2.47,2.47,0,0,1,74.67,398.45Z"/><path class="cls-5" d="M81.84,395.78a2.73,2.73,0,0,1,2.63,2.65,2.61,2.61,0,0,1-2.55,2.5,2.53,2.53,0,0,1-2.6-2.42A2.63,2.63,0,0,1,81.84,395.78Z"/><path class="cls-5" d="M91.7,395.78a2.63,2.63,0,0,1,2.48,2.76,2.52,2.52,0,0,1-2.62,2.39A2.61,2.61,0,0,1,89,398.4,2.71,2.71,0,0,1,91.7,395.78Z"/><path class="cls-5" d="M101.35,400.93a2.52,2.52,0,0,1-2.5-2.52,2.62,2.62,0,0,1,2.61-2.63h0a2.71,2.71,0,0,1,2.54,2.75A2.61,2.61,0,0,1,101.35,400.93Z"/><path class="cls-5" d="M120.92,395.78a2.72,2.72,0,0,1,2.6,2.68,2.6,2.6,0,0,1-2.52,2.47,2.53,2.53,0,0,1-2.57-2.45A2.63,2.63,0,0,1,120.92,395.78Z"/><path class="cls-5" d="M89.33,383.77a2.68,2.68,0,0,1-2.49,2.58,2.12,2.12,0,0,1-1.1-.25l3.41-3.26A2.48,2.48,0,0,1,89.33,383.77Z"/><path class="cls-5" d="M93.92,383.67a2.6,2.6,0,1,1,2.37,2.56A2.6,2.6,0,0,1,93.92,383.67Z"/><path class="cls-5" d="M128.39,403.36a2.59,2.59,0,1,1-2.37-2.53A2.59,2.59,0,0,1,128.39,403.36Z"/><path class="cls-5" d="M118.64,403.26a2.6,2.6,0,1,1-2.43-2.43A2.6,2.6,0,0,1,118.64,403.26Z"/><path class="cls-5" d="M106.21,400.73a2.55,2.55,0,0,1,2.65,2.45v.11a2.58,2.58,0,1,1-2.73-2.56Z"/><path class="cls-5" d="M99.11,403.31a2.59,2.59,0,0,1-5.18-.07h0a2.59,2.59,0,1,1,5.18.07Z"/><path class="cls-5" d="M89.34,403.26a2.59,2.59,0,1,1-5.17.32,1.71,1.71,0,0,1,0-.32,2.59,2.59,0,0,1,5.17,0Z"/><path class="cls-5" d="M106.37,386.35a2.71,2.71,0,0,1-2.67-2.41,2.59,2.59,0,0,1,5.16-.35A2.67,2.67,0,0,1,106.37,386.35Z"/><path class="cls-5" d="M116,381.22a2.58,2.58,0,0,1,2.61,2.55v.07a2.6,2.6,0,1,1-2.61-2.62Z"/><path class="cls-5" d="M125.85,381.22a2.57,2.57,0,0,1,2.54,2.6v.08a2.59,2.59,0,1,1-2.62-2.68Z"/><path class="cls-5" d="M79.59,393.47A2.72,2.72,0,0,1,77,396.11a2.41,2.41,0,0,1-1.25-.38l3.56-3.41A2.57,2.57,0,0,1,79.59,393.47Z"/><path class="cls-5" d="M86.81,391a2.65,2.65,0,1,1-2.64,2.9v-.31A2.58,2.58,0,0,1,86.74,391Z"/><path class="cls-5" d="M93.93,393.57a2.59,2.59,0,1,1,2.64,2.54A2.59,2.59,0,0,1,93.93,393.57Z"/><path class="cls-5" d="M106.21,391a2.58,2.58,0,0,1,2.65,2.49v.08a2.58,2.58,0,0,1-5.16,0h0A2.56,2.56,0,0,1,106.21,391Z"/><path class="cls-5" d="M118.63,393.53a2.59,2.59,0,1,1-2.59-2.59A2.59,2.59,0,0,1,118.63,393.53Z"/><path class="cls-5" d="M77,405.86a2.71,2.71,0,0,1-2.59-2.49,2.59,2.59,0,1,1,5.18-.19A2.69,2.69,0,0,1,77,405.86Z"/><path class="cls-5" d="M125.77,396.11a2.69,2.69,0,0,1-2.55-2.53,2.59,2.59,0,1,1,5.17-.24,1.61,1.61,0,0,1,0,.31A2.69,2.69,0,0,1,125.77,396.11Z"/><path class="cls-5" d="M69.81,403.46a2.7,2.7,0,0,1-2.67,2.41,2.46,2.46,0,0,1-1.44-.56l3.64-3.48A2.44,2.44,0,0,1,69.81,403.46Z"/><path class="cls-5" d="M130.69,391.18a2.61,2.61,0,0,1-2.59-2.45,2.66,2.66,0,0,1,2.58-2.67,2.56,2.56,0,0,1,2.56,2.58v.08A2.52,2.52,0,0,1,130.69,391.18Z"/><path class="cls-5" d="M120.93,386.06a2.66,2.66,0,0,1,2.59,2.66,2.61,2.61,0,0,1-2.58,2.46,2.51,2.51,0,0,1-2.56-2.46v-.17A2.56,2.56,0,0,1,120.93,386.06Z"/><path class="cls-5" d="M111.11,386.07a2.56,2.56,0,0,1,.4,5.1h-.31a2.6,2.6,0,0,1-2.62-2.41A2.64,2.64,0,0,1,111.11,386.07Z"/><path class="cls-5" d="M101.35,386.07a2.66,2.66,0,0,1,2.64,2.6,2.61,2.61,0,0,1-2.53,2.51,2.52,2.52,0,0,1-2.61-2.43v-.15A2.55,2.55,0,0,1,101.35,386.07Z"/><path class="cls-5" d="M94.19,388.63a2.54,2.54,0,0,1-2.47,2.55A2.6,2.6,0,0,1,89,388.7v-.06a2.66,2.66,0,0,1,2.68-2.57A2.57,2.57,0,0,1,94.19,388.63Z"/><path class="cls-5" d="M84.46,388.71a2.63,2.63,0,0,1-2.56,2.48,2.56,2.56,0,0,1-1.18-.28l3.48-3.33A2.14,2.14,0,0,1,84.46,388.71Z"/><path class="cls-5" d="M113.75,359.45a2.61,2.61,0,0,1-2.56,2.48H111l2.76-2.64A.86.86,0,0,1,113.75,359.45Z"/><path class="cls-5" d="M104,369.16a2.63,2.63,0,0,1-2.52,2.53,2.56,2.56,0,0,1-.62-.07l3.1-3A3.27,3.27,0,0,1,104,369.16Z"/><path class="cls-5" d="M113.71,369.09a2.55,2.55,0,0,1-2.46,2.6,2.61,2.61,0,0,1-2.68-2.54v0a2.69,2.69,0,0,1,2.59-2.54A2.59,2.59,0,0,1,113.71,369.09Z"/><path class="cls-5" d="M123.52,369.18a2.62,2.62,0,0,1-2.58,2.51,2.54,2.54,0,0,1-2.56-2.54V369a2.59,2.59,0,0,1,2.62-2.43A2.68,2.68,0,0,1,123.52,369.18Z"/><path class="cls-5" d="M130.62,366.56a2.59,2.59,0,0,1,2.62,2.44,2.54,2.54,0,0,1-2.41,2.65,2.62,2.62,0,0,1-2.74-2.5v0A2.69,2.69,0,0,1,130.62,366.56Z"/><path class="cls-5" d="M94.19,379a2.52,2.52,0,0,1-2.58,2.46h0a2.29,2.29,0,0,1-.82-.15l3.27-3.13A2.51,2.51,0,0,1,94.19,379Z"/><path class="cls-5" d="M101.33,381.42a2.52,2.52,0,0,1-2.48-2.56h0a2.61,2.61,0,0,1,2.54-2.54A2.69,2.69,0,0,1,104,379,2.61,2.61,0,0,1,101.33,381.42Z"/><path class="cls-5" d="M113.71,378.92a2.52,2.52,0,0,1-2.54,2.5h0a2.59,2.59,0,0,1-2.59-2.48,2.69,2.69,0,0,1,2.67-2.62A2.58,2.58,0,0,1,113.71,378.92Z"/><path class="cls-5" d="M120.85,376.31a2.68,2.68,0,0,1,2.66,2.45,2.56,2.56,0,0,1-2.4,2.65,2.52,2.52,0,0,1-2.73-2.31,1.09,1.09,0,0,1,0-.18A2.61,2.61,0,0,1,120.85,376.31Z"/><path class="cls-5" d="M130.66,376.31a2.61,2.61,0,0,1,2.58,2.51,2.52,2.52,0,0,1-2.44,2.6h0a2.59,2.59,0,0,1-2.7-2.48v-.07A2.69,2.69,0,0,1,130.66,376.31Z"/><path class="cls-5" d="M179.74,395.78a2.59,2.59,0,0,1,2.61,2.44,2.53,2.53,0,0,1-2.36,2.7h-.14a2.61,2.61,0,0,1-2.64-2.4A2.73,2.73,0,0,1,179.74,395.78Z"/><path class="cls-5" d="M177.51,364.11a2.59,2.59,0,0,1-5.16.4.28.28,0,0,1,0-.09,2.48,2.48,0,0,1,.93-2.12l4.1,1.19A2.65,2.65,0,0,1,177.51,364.11Z"/><path class="cls-5" d="M186.44,366.11a2.56,2.56,0,0,1-1.69.75,2.67,2.67,0,0,1-2.55-2Z"/><path class="cls-5" d="M194.51,371.45A2.61,2.61,0,0,1,197,374a2.58,2.58,0,0,1-5.16-.13h0A2.6,2.6,0,0,1,194.51,371.45Z"/><path class="cls-5" d="M182.09,373.91a2.59,2.59,0,1,1,2.48,2.7,2.59,2.59,0,0,1-2.48-2.7Z"/><path class="cls-5" d="M174.9,371.45a2.61,2.61,0,1,1-2.57,2.79,1.71,1.71,0,0,1,0-.32A2.61,2.61,0,0,1,174.9,371.45Z"/><path class="cls-5" d="M165.07,376.63a2.75,2.75,0,0,1-2.5-2.79,2.6,2.6,0,0,1,5.18.36A2.76,2.76,0,0,1,165.07,376.63Z"/><path class="cls-5" d="M135.78,371.45a2.6,2.6,0,0,1,2.67,2.53v0a2.59,2.59,0,1,1-5.17.32,1.71,1.71,0,0,1,0-.32A2.61,2.61,0,0,1,135.78,371.45Z"/><path class="cls-5" d="M148.22,374a2.61,2.61,0,1,1-2.63-2.59,2.61,2.61,0,0,1,2.63,2.59h0Z"/><path class="cls-5" d="M158,374.08a2.59,2.59,0,0,1-5.18.19c0-.1,0-.2,0-.3a2.59,2.59,0,0,1,5.17.11Z"/><path class="cls-5" d="M133.58,408.23a2.62,2.62,0,0,1-2.58,2.46,2.52,2.52,0,0,1-2.57-2.47c0-.08,0-.15,0-.22a2.61,2.61,0,0,1,2.55-2.5A2.74,2.74,0,0,1,133.58,408.23Z"/><path class="cls-5" d="M140.83,405.54a2.56,2.56,0,0,1,2.46,2.67v.08a2.51,2.51,0,0,1-2.62,2.4h0a2.59,2.59,0,0,1-2.51-2.54A2.7,2.7,0,0,1,140.83,405.54Z"/><path class="cls-5" d="M150.46,410.69a2.53,2.53,0,0,1-2.46-2.61V408a2.59,2.59,0,0,1,2.61-2.44,2.72,2.72,0,0,1,2.53,2.75A2.61,2.61,0,0,1,150.46,410.69Z"/><path class="cls-5" d="M160.36,405.54a2.58,2.58,0,0,1,2.47,2.67.28.28,0,0,0,0,.09,2.53,2.53,0,0,1-2.63,2.39,2.6,2.6,0,0,1-2.51-2.54A2.73,2.73,0,0,1,160.36,405.54Z"/><path class="cls-5" d="M172.63,408.19a2.61,2.61,0,0,1-2.55,2.5,2.52,2.52,0,0,1-2.59-2.45v-.16a2.58,2.58,0,0,1,2.51-2.54A2.73,2.73,0,0,1,172.63,408.19Z"/><path class="cls-5" d="M182.35,408.05a2.52,2.52,0,0,1-2.4,2.64h-.16a2.61,2.61,0,0,1-2.58-2.48,2.73,2.73,0,0,1,2.6-2.68A2.6,2.6,0,0,1,182.35,408.05Z"/><path class="cls-5" d="M192.16,408.19a2.61,2.61,0,0,1-2.55,2.5,2.53,2.53,0,0,1-2.6-2.46v-.15a2.6,2.6,0,0,1,2.52-2.54A2.71,2.71,0,0,1,192.16,408.19Z"/><path class="cls-5" d="M199.42,405.54a2.56,2.56,0,0,1,2.45,2.68v.08a2.53,2.53,0,0,1-2.63,2.39,2.6,2.6,0,0,1-2.5-2.55A2.7,2.7,0,0,1,199.42,405.54Z"/><path class="cls-5" d="M133.58,398.42a2.61,2.61,0,0,1-2.58,2.51,2.53,2.53,0,0,1-2.61-2.45v-.14a2.64,2.64,0,0,1,2.51-2.56A2.74,2.74,0,0,1,133.58,398.42Z"/><path class="cls-5" d="M201.88,398.41a2.52,2.52,0,0,1-2.5,2.52,2.59,2.59,0,0,1-2.64-2.54v0a2.7,2.7,0,0,1,2.7-2.57A2.63,2.63,0,0,1,201.88,398.41Z"/><path class="cls-5" d="M143.3,398.45a2.52,2.52,0,0,1-2.54,2.48,2.59,2.59,0,0,1-2.6-2.58v0a2.72,2.72,0,0,1,2.56-2.53A2.63,2.63,0,0,1,143.3,398.45Z"/><path class="cls-5" d="M150.48,395.78a2.73,2.73,0,0,1,2.63,2.65,2.61,2.61,0,0,1-2.55,2.5,2.52,2.52,0,0,1-2.6-2.42A2.63,2.63,0,0,1,150.48,395.78Z"/><path class="cls-5" d="M160.34,395.78a2.63,2.63,0,0,1,2.48,2.76,2.52,2.52,0,0,1-2.62,2.39,2.6,2.6,0,0,1-2.52-2.53A2.72,2.72,0,0,1,160.34,395.78Z"/><path class="cls-5" d="M170,400.93a2.52,2.52,0,0,1-2.5-2.52,2.62,2.62,0,0,1,2.61-2.63h0a2.72,2.72,0,0,1,2.53,2.75A2.61,2.61,0,0,1,170,400.93Z"/><path class="cls-5" d="M189.56,395.78a2.72,2.72,0,0,1,2.6,2.68,2.6,2.6,0,0,1-2.58,2.47,2.52,2.52,0,0,1-2.56-2.45A2.63,2.63,0,0,1,189.56,395.78Z"/><path class="cls-5" d="M138.45,383.69a2.59,2.59,0,1,1-5.16.43,2.62,2.62,0,0,1,0-.28,2.59,2.59,0,0,1,5.17-.15Z"/><path class="cls-5" d="M148.22,383.7a2.59,2.59,0,1,1-2.66-2.53A2.58,2.58,0,0,1,148.22,383.7Z"/><path class="cls-5" d="M158,383.77a2.7,2.7,0,0,1-2.5,2.58,2.67,2.67,0,0,1-2.67-2.59,2.59,2.59,0,0,1,5.17,0Z"/><path class="cls-5" d="M162.56,383.67a2.6,2.6,0,1,1,2.37,2.56A2.6,2.6,0,0,1,162.56,383.67Z"/><path class="cls-5" d="M197,403.36a2.59,2.59,0,1,1-2.37-2.53A2.59,2.59,0,0,1,197,403.36Z"/><path class="cls-5" d="M187.27,403.26a2.59,2.59,0,1,1-2.59-2.59A2.59,2.59,0,0,1,187.27,403.26Z"/><path class="cls-5" d="M174.85,400.73a2.55,2.55,0,0,1,2.65,2.45v.11a2.58,2.58,0,0,1-5.16.15h0a2.57,2.57,0,0,1,2.43-2.71Z"/><path class="cls-5" d="M167.75,403.31a2.59,2.59,0,0,1-5.18-.07h0a2.59,2.59,0,1,1,5.18.07Z"/><path class="cls-5" d="M158,403.26a2.59,2.59,0,1,1-5.17,0,2.59,2.59,0,0,1,5.17,0Z"/><path class="cls-5" d="M175,386.35a2.71,2.71,0,0,1-2.67-2.41,2.59,2.59,0,0,1,5.16-.35A2.67,2.67,0,0,1,175,386.35Z"/><path class="cls-5" d="M184.67,381.22a2.57,2.57,0,0,1,2.6,2.54v.08a2.59,2.59,0,0,1-5.18-.15h0A2.58,2.58,0,0,1,184.67,381.22Z"/><path class="cls-5" d="M194.49,381.22a2.57,2.57,0,0,1,2.51,2.63v0a2.59,2.59,0,1,1-2.62-2.68Z"/><path class="cls-5" d="M135.91,391a2.58,2.58,0,0,1,2.54,2.62v.06a2.59,2.59,0,1,1-2.61-2.68Z"/><path class="cls-5" d="M145.67,391a2.6,2.6,0,1,1-.06,0Z"/><path class="cls-5" d="M155.45,391a2.65,2.65,0,1,1-2.64,2.9v-.31a2.58,2.58,0,0,1,2.57-2.59Z"/><path class="cls-5" d="M162.57,393.57a2.59,2.59,0,1,1,2.64,2.54A2.59,2.59,0,0,1,162.57,393.57Z"/><path class="cls-5" d="M174.85,391a2.58,2.58,0,0,1,2.65,2.49v.08a2.58,2.58,0,1,1-2.65-2.57Z"/><path class="cls-5" d="M187.27,393.53a2.59,2.59,0,1,1-2.59-2.59A2.59,2.59,0,0,1,187.27,393.53Z"/><path class="cls-5" d="M145.63,405.86a2.71,2.71,0,0,1-2.63-2.49,2.59,2.59,0,1,1,5.18-.19A2.68,2.68,0,0,1,145.63,405.86Z"/><path class="cls-5" d="M194.41,396.11a2.69,2.69,0,0,1-2.55-2.53,2.59,2.59,0,1,1,5.17-.24,1.61,1.61,0,0,1,0,.31A2.7,2.7,0,0,1,194.41,396.11Z"/><path class="cls-5" d="M136,400.73a2.57,2.57,0,0,1,2.5,2.63v.09a2.59,2.59,0,1,1-2.56-2.72Z"/><path class="cls-5" d="M199.33,391.18a2.62,2.62,0,0,1-2.6-2.45,2.68,2.68,0,0,1,2.59-2.67,2.56,2.56,0,0,1,2.56,2.58v.08A2.52,2.52,0,0,1,199.33,391.18Z"/><g class="cls-6"><polyline class="cls-7" points="161.41 284.35 285.44 248.99 248.81 214.96 124.34 250.26 161.41 284.35 161.2 381.15"/><line class="cls-7" x1="125" y1="348.3" x2="124.23" y2="250.44"/><path class="cls-7" d="M285.33,248.81,161.39,284.44,284.84,249a.39.39,0,0,1,.48.28.28.28,0,0,1,0,.09v96.13"/><path class="cls-7" d="M285.35,248.27l-124,35.13S204.84,178.61,285.35,248.27Z"/><path class="cls-7" d="M247.68,214.18,123.73,249.32S167.17,144.48,247.68,214.18Z"/></g><line class="cls-7" x1="128.05" y1="240.5" x2="166.09" y2="273.92"/><line class="cls-7" x1="132.35" y1="233.09" x2="171.34" y2="263.92"/><line class="cls-7" x1="138.24" y1="224.37" x2="176.6" y2="253.89"/><line class="cls-7" x1="144.05" y1="217.03" x2="182.71" y2="247.17"/><line class="cls-7" x1="150.08" y1="210.57" x2="191.63" y2="241.05"/><line class="cls-7" x1="157.84" y1="203.75" x2="200.74" y2="234.13"/><line class="cls-7" x1="167.16" y1="197.59" x2="210.44" y2="228.92"/><g class="cls-6"><line class="cls-7" x1="178.47" y1="192.72" x2="221.16" y2="225.5"/><line class="cls-7" x1="190.78" y1="190.28" x2="234.16" y2="224.37"/><line class="cls-7" x1="203.01" y1="190.28" x2="247.76" y2="225.81"/></g><line class="cls-7" x1="220.37" y1="196.21" x2="259.53" y2="230.97"/><g class="cls-6"><line class="cls-8" x1="161.38" y1="381.25" x2="285.33" y2="345.45"/><line class="cls-8" x1="161.38" y1="337.12" x2="285.33" y2="301.33"/></g><line class="cls-8" x1="161.38" y1="293.68" x2="249.38" y2="268.26"/><polygon class="cls-9" points="152.32 256.29 166.56 268.57 186.39 261.9 173.59 250.62 152.32 256.29"/><polyline class="cls-9" points="181.45 311.31 168.04 282.54 173.91 280.84 189.45 315.74"/><line class="cls-10" x1="178.74" y1="305.16" x2="187.81" y2="312.41"/><line class="cls-10" x1="175.19" y1="297.22" x2="184.86" y2="304.95"/><line class="cls-10" x1="171.35" y1="289.48" x2="181.01" y2="297.22"/><line class="cls-10" x1="169.24" y1="282.12" x2="177.49" y2="288.72"/><line class="cls-10" x1="157.84" y1="257.86" x2="166.09" y2="264.46"/><line class="cls-10" x1="168.72" y1="267.79" x2="165.58" y2="261.15"/><line class="cls-10" x1="159.25" y1="261.86" x2="155.38" y2="253.89"/><g class="cls-6"><line class="cls-11" x1="285.15" y1="346.18" x2="247.76" y2="311.85"/><line class="cls-11" x1="162.71" y1="382.63" x2="125.33" y2="348.3"/><line class="cls-11" x1="285.15" y1="302.58" x2="247.76" y2="268.26"/></g><line class="cls-8" x1="249.38" y1="268.26" x2="249.38" y2="259.6"/><g class="cls-6"><path class="cls-12" d="M228.37,293.27a5.49,5.49,0,0,0-1.07.13,2,2,0,0,0-.73.31c-.42.27-.86.51-1.26.81a3.39,3.39,0,0,0-1.17,2.28,6.56,6.56,0,0,0,0,2.72,3.22,3.22,0,0,0,1.43,1.83c.35.25.7.48,1.07.7a8.35,8.35,0,0,0,1.3.56,4.85,4.85,0,0,0,2.67-.06,8.3,8.3,0,0,0,1.07-.34,4.82,4.82,0,0,0,.89-.57,9.6,9.6,0,0,0,1.38-1.32,4.12,4.12,0,0,0,.91-1.48c.06-.23.15-.46.2-.69a3.31,3.31,0,0,0,0-.63,3.25,3.25,0,0,0-.39-1.32,9.35,9.35,0,0,0-.63-1,3.7,3.7,0,0,0-.92-1c-.29-.22-.65-.31-.66-.68v-.46c0-.15-.11-.59-.15-.88a2.16,2.16,0,0,0-.39-.86,1.66,1.66,0,0,0-.68-.55,1.75,1.75,0,0,0-1.66.33,3.49,3.49,0,0,0-.83,1.21,3.45,3.45,0,0,0-.25.63,1,1,0,0,1-.09.22s-.11.21-.06.17"/><path class="cls-12" d="M228.37,292.87c-3.66.24-6.41,4.62-4.05,7.87a6.22,6.22,0,0,0,8.69,1.13c.2-.16.4-.34.59-.52a4.74,4.74,0,0,0,1.82-4.24A6.3,6.3,0,0,0,234,294.5a5.69,5.69,0,0,1-1.27-2.37c-.91-3.18-4.34-1.41-4.71,1.15-.08.49.68.7.75.2.16-1.13,2.63-2.2,3.21-1.15.46.85,0,1.12.41,1.83s1.24,1.06,1.68,1.75c1.07,1.7.49,3.26-.79,4.62a5.22,5.22,0,0,1-6.95.86,4.22,4.22,0,0,1-1.14-5.89,4.29,4.29,0,0,1,3.2-1.85c.5,0,.5-.8,0-.77"/><path class="cls-12" d="M230.84,285.45c0,.13-.32.12-.44.17l-.22.12c-.17.08-.21.19-.31.33l-.24.24a2.12,2.12,0,0,0-.37.79,2.75,2.75,0,0,0,0,.81,1.34,1.34,0,0,0,.79,1.13A2.7,2.7,0,0,0,232,289a1.81,1.81,0,0,0,1.24-1.06,1.19,1.19,0,0,0-.31-1.25,2.79,2.79,0,0,0-.46-.51,3,3,0,0,0-.51-.36c-.33-.15-.91-.39-1.17,0"/><path class="cls-12" d="M230.57,285.18c-.14.11-.46.13-.62.25a2.55,2.55,0,0,0-.66.69,2.62,2.62,0,0,0-.46,1.84c.19,1.55,1.8,1.83,3.07,1.41s2.2-1.38,1.47-2.63c-.5-.85-2-2.12-2.93-1.23-.39.33.17.88.55.56s1,.27,1.07.4c.44.37,1,1.06.49,1.66a2.62,2.62,0,0,1-2,.65c-1.33-.23-1.2-1.7-.45-2.44.3-.3.66-.36,1-.61s-.17-.87-.56-.56"/><path class="cls-12" d="M225.85,293.15h0l.9.11a20.48,20.48,0,0,1-2.47-3.4c-.43-.84-1.7-.1-1.28.74a23.37,23.37,0,0,0,2.7,3.7.74.74,0,0,0,.9.11h0c.75-.57,0-1.84-.75-1.28"/><path class="cls-12" d="M234.81,295.3a23,23,0,0,1,1.43-1.9c.36-.46.61-1,1-1.43a.73.73,0,0,0,0-1,.74.74,0,0,0-.9-.12h.18c-.94.1-.95,1.57,0,1.48a1.79,1.79,0,0,0,.56-.15l-.9-1.16c-.45.54-.76,1.16-1.2,1.71a20.89,20.89,0,0,0-1.44,1.92c-.54.78.74,1.51,1.28.74"/><path class="cls-12" d="M225.77,302c.07-.49.19-.2-.22-.2a1.24,1.24,0,0,0-.5.07,9.06,9.06,0,0,0-1.87.13c-.83.13-.62,1.46.19,1.45h.12a.72.72,0,0,0,.73-.74.73.73,0,0,0-.73-.73h-.12c.08.48.14,1,.2,1.44.77-.12,3.44.18,3.62-1.06.14-.92-1.29-1.32-1.42-.39"/><path class="cls-12" d="M230,302.28a9.06,9.06,0,0,0-2.73,2.85l1.36.18v-.1a1.34,1.34,0,0,1-.08.56l.08-.09c.55-.77-.73-1.5-1.29-.74a.91.91,0,0,0-.12.77c.09.64,1.06.66,1.35.16a7.68,7.68,0,0,1,2.14-2.33c.8-.51,0-1.78-.74-1.26"/><path class="cls-12" d="M201.39,311.75a11.66,11.66,0,0,1,1.16,1.06,5.83,5.83,0,0,1,.85.9c.3.9,1.72.52,1.43-.39a3.77,3.77,0,0,0-.93-1.2,13.32,13.32,0,0,0-1.46-1.45c-.71-.63-1.75.4-1.07,1.06"/><path class="cls-12" d="M195.64,284.56a.71.71,0,0,1-.35.07,1.8,1.8,0,0,0-.57.23,2,2,0,0,0-.92,1.06,3.19,3.19,0,0,0-.16,1.65,1.62,1.62,0,0,0,1,1.27,2.16,2.16,0,0,0,1.42,0,3.42,3.42,0,0,0,.8-.37,2.11,2.11,0,0,0,.66-.49,4.17,4.17,0,0,0,.65-1.4,1.61,1.61,0,0,0,0-1.06,1.29,1.29,0,0,0-.28-.38,2.91,2.91,0,0,0-.42-.25,2,2,0,0,0-.74-.28h-.38c-.12,0-.21-.1-.33-.12a3.64,3.64,0,0,0-.66,0"/><path class="cls-12" d="M195.53,284.19a2.78,2.78,0,0,0-2.34,2.86,2.19,2.19,0,0,0,3,2.18,3.42,3.42,0,0,0,2.48-3.18c0-1.6-2-2-3.29-2a.4.4,0,0,0,0,.79c.9,0,2.48.11,2.49,1.33a2.52,2.52,0,0,1-1.44,2.12,2,2,0,0,1-2,0c-.55-.4-.48-1.44-.34-2,.23-.88.86-1.13,1.66-1.36a.39.39,0,0,0,.24-.5.41.41,0,0,0-.45-.25"/><path class="cls-12" d="M197.14,293.63v-.06a1.46,1.46,0,0,0-.51,0,1.85,1.85,0,0,0-.8.19,4.08,4.08,0,0,0-1.84,1.52,7,7,0,0,0-.85,3.35,19,19,0,0,0,.27,4.52,12.83,12.83,0,0,0,.71,2.53c.16.39.27.8.46,1.18s.46.82.71,1.22a7.46,7.46,0,0,0,.61,1.06,3.37,3.37,0,0,0,.68.57,10.88,10.88,0,0,0,1.22.64,3.44,3.44,0,0,0,.91.38,5.3,5.3,0,0,0,1.18.26,3.44,3.44,0,0,0,2.25-.67,7.5,7.5,0,0,0,.85-.84,1.36,1.36,0,0,0,.3-.6,2.24,2.24,0,0,0,.15-.85c0-.14.16-.55,0-.58"/><path class="cls-12" d="M197.53,293.53v-.07a.42.42,0,0,0-.39-.28c-6.9-.17-4.27,11.39-2.38,14.78,1.07,2,3.58,3.77,6,3.3,1.74-.33,3.48-2.12,3-4a.41.41,0,0,0-.51-.23.4.4,0,0,0-.25.45q.15,2.7-4.27,2.78a5.51,5.51,0,0,1-3.21-2.4,11.25,11.25,0,0,1-1.43-3.18,16.86,16.86,0,0,1-.66-3.86v-2.27c-.06-2.54,1.07-4.16,3.2-4.87.11.48.86.27.76-.22"/><path class="cls-12" d="M197.17,293h-.06a.73.73,0,0,0-.52.89.78.78,0,0,0,.19.33c1.32,1.65,1.66,4.77,2.44,6.77a16,16,0,0,0,1.29,2.79c.68,1.06,2.13,2.55,2.3,3.84.12.93,1.59.94,1.49,0a7.88,7.88,0,0,0-1.66-3.38,21.25,21.25,0,0,1-2.28-4.45c-.84-2.12-1.07-4.75-2.52-6.59l-.32,1.23h.06c.93-.2.53-1.61-.39-1.42"/><path class="cls-12" d="M203.37,308.93a6.48,6.48,0,0,0,1.57.41c.64.15,1.2.45,1.84.57l-.51-.51a.08.08,0,0,0,0,.07c.17.93,1.59.53,1.42-.39V309a.7.7,0,0,0-.51-.51c-.59-.11-1.07-.37-1.69-.53-.39-.11-1.22-.22-1.38-.3-.84-.46-1.59.81-.74,1.26"/><path class="cls-12" d="M198.15,297.24c.07.63.39.86.91,1.14a5.69,5.69,0,0,0,1.77.93c.75.07.83-.59,1.06-1.06s1.07-1.06,1.31-1.65c.38-.86-.89-1.6-1.29-.74A6.85,6.85,0,0,1,201,297c-.19.24-.46,1-.63,1.06l.71-.19a8.85,8.85,0,0,1-1-.6,2.85,2.85,0,0,1-.72-.41c.08.17.15.35.22.52v-.15c-.11-.92-1.58-.94-1.49,0"/><path class="cls-12" d="M217.64,338.84a9,9,0,0,0-.15-1.27,6.22,6.22,0,0,0-.28-1.13,8.46,8.46,0,0,0-.48-1.17c-.4-.84-1.19-1.35-2-.75a2.11,2.11,0,0,0-.85,2v2.12a13,13,0,0,1-.28,2.4,7.81,7.81,0,0,1-.34,1.26,10.91,10.91,0,0,0-.41,1.95c-.08.52-.25,1.06-.33,1.56a6.38,6.38,0,0,0,0,1.16,7.81,7.81,0,0,0-.09,1.18,9,9,0,0,0,.24,3.39,6.59,6.59,0,0,0,1.75,2.8,5.78,5.78,0,0,0,1.07.63,67.55,67.55,0,0,0,2.49.29c.4-.06.61-.4.91-.64a2,2,0,0,0,.69-.84c.13-.26.27-.54.38-.81a5.77,5.77,0,0,0,.53-2.3v-1.06a11.91,11.91,0,0,0-.11-1.34,23.87,23.87,0,0,0-.48-2.38c-.08-.32-.2-.63-.28-.94a7.67,7.67,0,0,0-.22-1.06,5.26,5.26,0,0,1-.32-.83,7,7,0,0,0-.23-.78,2,2,0,0,0-.11-.53l-.26-.72c-.09-.24-.27-.68-.35-1v-.48a3.42,3.42,0,0,0-.21-.43"/><path class="cls-12" d="M218,338.84c-.12-1.78-2.32-7.74-4.37-3.57-.58,1.17-.18,3.3-.33,4.51-.25,2-1,3.91-1.21,5.92-.31,2.54-.55,5.29.85,7.54,1.85,3,5.76,3.33,7.22-.06,1.74-4-.34-10.44-2.07-14.24-.2-.45-.89-.06-.67.4,1.46,3.18,5.26,15.55-.71,15.42s-3.84-9.09-3.14-12.36a28.27,28.27,0,0,1,.64-3.77c-.32-1.5.55-2.19,2.6-2.12a8.48,8.48,0,0,1,.41,2.29c0,.49.83.49.78,0"/><path class="cls-12" d="M214.84,327.68c-.39-.08-.82.53-1,.81a4.09,4.09,0,0,0-.44,1.13,1.36,1.36,0,0,0,.25,1.34,2.35,2.35,0,0,0,1.81.59,1.36,1.36,0,0,0,.77-.11,2.55,2.55,0,0,0,.64-.71,2.66,2.66,0,0,0,.09-1.53,3.2,3.2,0,0,0-.86-1.4c-.36-.38-.87-.24-1.38-.24"/><path class="cls-12" d="M214.84,327.3c-1.13.06-1.81,1.62-1.89,2.6-.1,1.49,1.24,2,2.51,2a2,2,0,0,0,2-2,1.92,1.92,0,0,0,0-.41,3.06,3.06,0,0,0-.8-1.79,2,2,0,0,0-1.88-.6.39.39,0,0,0,0,.77,1.74,1.74,0,0,1,1.88,1.56c.14.87-.23,1.59-1.14,1.65s-1.87-.39-1.69-1.44c.09-.46.47-1.6,1.07-1.64a.39.39,0,1,0,0-.77"/><path class="cls-12" d="M219,342.41a2.91,2.91,0,0,1,1.8,0l-.55-.71a12.75,12.75,0,0,1,.15,2.89,15.76,15.76,0,0,1-.35,2.48l1.44.19a.11.11,0,0,0,0-.08c.08-.94-1.41-.94-1.47,0v.08c-.06.84,1.25,1,1.45.21a21.76,21.76,0,0,0,.4-2.67,14.62,14.62,0,0,0-.14-3.17.76.76,0,0,0-.55-.7,4.12,4.12,0,0,0-2.93.18c-.85.44-.1,1.7.74,1.26"/><path class="cls-12" d="M213.59,341.63c-.49-.31-1.88-.94-2.07-1.45a7.72,7.72,0,0,1,.33-2.54c.27-1.46.69-2.87,1.07-4.3a.74.74,0,0,0-1.43-.38h0a41.51,41.51,0,0,0-1.47,6.63c-.16,1.82,1.45,2.44,2.84,3.3.81.51,1.54-.77.74-1.26"/><path class="cls-12" d="M216.62,355.51c.06,1.06.31,2,.39,3.06a23,23,0,0,0,.27,2.5c.15.93,1.58.53,1.43-.39s-.2-1.65-.24-2.48-.32-1.78-.37-2.69-1.53-.95-1.48,0"/><path class="cls-12" d="M214.23,355.26a8.36,8.36,0,0,1-.38,1.2c-.12.45-.21.86-.36,1.31-.35,1.06-.49,2.17-.8,3.23a.73.73,0,0,0,.51.9.74.74,0,0,0,.91-.51.94.94,0,0,1,.07-.22c.28-.9-1.14-1.28-1.43-.39l-.06.22,1.42.39c.34-1.16.54-2.35.9-3.51a12.06,12.06,0,0,0,.71-2.65.75.75,0,0,0-1.49,0"/><path class="cls-12" d="M248.71,328.91a.49.49,0,0,0-.13-.32c-.08-.1-.21-.23-.32-.35a2,2,0,0,0-1.14-.66,2.36,2.36,0,0,0-.65,0,1.43,1.43,0,0,0-.49.32,4.32,4.32,0,0,0-1.07,1.47c-.29.61-.68,1.19-.92,1.82a10.44,10.44,0,0,0-.47,1.21,8.33,8.33,0,0,0-.26,1.32,6.63,6.63,0,0,1-.16,1.06,5.68,5.68,0,0,0,0,1,3,3,0,0,0,.09.89,2,2,0,0,0,.42.74,2.89,2.89,0,0,0,1.81.88,7,7,0,0,1,.88.11,4.25,4.25,0,0,0,.93.13,9.18,9.18,0,0,0,1.16.14,2.15,2.15,0,0,0,.57-.13c.21-.1.38-.28.6-.39l.46-.22a1.64,1.64,0,0,0,.47-.44,1.89,1.89,0,0,0,.55-1.15,3.34,3.34,0,0,0,0-1.18c-.08-.42-.14-.89-.26-1.3s-.2-1.06-.34-1.56-.5-.91-.59-1.42a2.81,2.81,0,0,0-.26-.62c-.09-.19-.1-.39-.18-.58a2.62,2.62,0,0,0-.62-1.13"/><path class="cls-12" d="M249.06,328.7a2.49,2.49,0,0,0-2.69-1.48c-1.43.44-2.26,2.61-2.78,3.77-.85,1.92-2,5.88.32,7.25,2,1.19,5.94,1.35,7.16-1.06.74-1.42.11-3.61-.33-5a11.58,11.58,0,0,0-1.75-3.91c-.32-.39-.86.16-.55.54a13.71,13.71,0,0,1,1.89,5.13c.43,2.31-.25,4.31-3.1,4.24a11.44,11.44,0,0,1-1.43-.2c-2.77-.46-2.59-2.62-2.13-4.81a11.9,11.9,0,0,1,1.19-3c.61-1.17,2.6-3,3.5-1.06.22.45.89.06.68-.39"/><path class="cls-12" d="M251.43,336.33a6.63,6.63,0,0,1,2.07-.86l-.69-.2.08.08a.77.77,0,0,0,1.07,0,.75.75,0,0,0,0-1.06l-.08-.08a.74.74,0,0,0-.72-.19,8,8,0,0,0-2.43,1.05c-.78.55,0,1.82.75,1.27"/><path class="cls-12" d="M249.53,338.74c.38.39.81.39,1.3.56.66.22,1.28.6,1.95.82.91.3,1.3-1.12.4-1.42-.5-.16-1-.4-1.47-.6-.26-.13-.93-.2-1.14-.4-.65-.69-1.69.35-1.07,1.06"/><path class="cls-12" d="M246.12,320.31a1.62,1.62,0,0,0-.67.33,4.14,4.14,0,0,0-.7.62,3.09,3.09,0,0,0-.45.64,1.47,1.47,0,0,0-.11.46,1.39,1.39,0,0,1-.07.53,2,2,0,0,0,.09.84,5.4,5.4,0,0,0,.48.81,1.58,1.58,0,0,0,.5.56,2.56,2.56,0,0,0,.8.29,3,3,0,0,0,1.53-.16,2.09,2.09,0,0,0,1-1.31,5.21,5.21,0,0,0,.32-1.75,2.27,2.27,0,0,0-.12-.64,4.94,4.94,0,0,0-.15-.55,1.9,1.9,0,0,0-.79-.67,1.24,1.24,0,0,0-.6-.26,2.81,2.81,0,0,0-.71,0h-.36a.32.32,0,0,0-.33.13"/><path class="cls-12" d="M246,319.94a3.23,3.23,0,0,0-2.26,3.62,2.81,2.81,0,0,0,3.27,2.25,2.64,2.64,0,0,0,.46-.13c1.64-.57,2-3.06,1.56-4.5a2.46,2.46,0,0,0-3.2-1.34,2.11,2.11,0,0,0-.34.16c-.39.31.16.86.56.55a2.21,2.21,0,0,1,.77-.1,1.67,1.67,0,0,1,1.51,1.22c.4,1.16-.18,3.09-1.48,3.36-2.72.54-3.1-3.64-.64-4.32a.38.38,0,0,0,.27-.47A.4.4,0,0,0,246,320h0"/><path class="cls-12" d="M249.24,333.2v-.05a.76.76,0,0,0-.72-.54h-.09l.2,1.44a28.91,28.91,0,0,1,5-1.34.68.68,0,0,0,.51-.51h0c.19-.92-1.23-1.31-1.43-.39h0l.51-.51a27.45,27.45,0,0,0-5,1.34.74.74,0,0,0-.46.94.76.76,0,0,0,.66.5h.12l-.7-.54h0a.75.75,0,0,0,1.43-.39"/><path class="cls-12" d="M250.22,330.86c.49-.24,1.61-.81,1.74-1.37.22-.91-1.21-1.3-1.42-.38a0,0,0,0,0,0,.05l.51-.52a15.82,15.82,0,0,0-1.56,1c-.86.4-.11,1.66.74,1.26"/><path class="cls-12" d="M252.12,333.65c1.07,0,2.7.92,3-.56.29-1.15.53-2.35.75-3.53.11-.53.48-1.45,0-1.93a5.39,5.39,0,0,0-2.51-.74c-.4,0-1.17-.23-1.55,0-.17.12-.15.21-.23.37a10.48,10.48,0,0,0-.55,2,20.81,20.81,0,0,0-.65,2.81c-.05.5.73.49.79,0a34.47,34.47,0,0,1,1.07-4.11c.15-.55.07-.43.62-.33s2.06.14,2.4.7c.24.37-.25,1.6-.35,2.06-.14.68-.32,1.35-.45,2-.2,1.06-.18.7-1.16.58a7.3,7.3,0,0,0-1.23-.11.39.39,0,0,0-.32.45.36.36,0,0,0,.32.32"/><path class="cls-12" d="M251.61,333.15v.05l.38-.29c-.42,0-.7-.41-1.07-.5s-.69.64-.2.76c-.22-.07,0,0,0,.09a2.57,2.57,0,0,0,.52.27,2.41,2.41,0,0,0,.74.17.4.4,0,0,0,.38-.29h0c.1-.49-.66-.7-.75-.21"/></g><path class="cls-5" d="M119,352.84a2.92,2.92,0,0,1-2.82,2.69Z"/><path class="cls-5" d="M116.17,360.39a2.76,2.76,0,0,1,2.85,2.68v0a2.78,2.78,0,0,1-5.54.34,1.93,1.93,0,0,1,0-.34A2.75,2.75,0,0,1,116.17,360.39Z"/><path class="cls-5" d="M126.59,365.85a2.86,2.86,0,0,1-2.71-2.89,2.77,2.77,0,0,1,5.52.29A2.87,2.87,0,0,1,126.59,365.85Z"/><path class="cls-5" d="M126.63,355.52a2.89,2.89,0,0,1-2.75-2.66,2.77,2.77,0,0,1,5.52-.34v.34A2.88,2.88,0,0,1,126.63,355.52Z"/><path class="cls-5" d="M134.32,348.71a2.73,2.73,0,0,1-2.33,1.55.17.17,0,0,1-.14,0,2.74,2.74,0,0,1-2.78-2.72v0a1.6,1.6,0,0,1,0-.31l.31.08Z"/><path class="cls-5" d="M124.16,347.92a2.72,2.72,0,0,1-2.47,2.34Z"/><path class="cls-5" d="M121.51,355.2a2.83,2.83,0,0,1,2.69,2.9,2.77,2.77,0,0,1-5.53-.14A2.85,2.85,0,0,1,121.51,355.2Z"/><path class="cls-5" d="M129.11,357.68a2.76,2.76,0,0,1,5.49.5h0a2.79,2.79,0,0,1-3.09,2.43h0A2.74,2.74,0,0,1,129.11,357.68Z"/><path class="cls-5" d="M150.5,353.28a2.75,2.75,0,0,1-5.45-.54,2.18,2.18,0,0,1,.19-1Z"/><path class="cls-5" d="M140.14,363.18a2.77,2.77,0,0,1-5.53.15c0-.1,0-.21,0-.31a2.77,2.77,0,0,1,5.52.16Z"/><path class="cls-5" d="M147.79,365.85A2.87,2.87,0,0,1,145,363a2.77,2.77,0,0,1,5.53,0A2.86,2.86,0,0,1,147.79,365.85Z"/><path class="cls-5" d="M158.25,360.39a2.81,2.81,0,1,1-2.78,3.09c0-.1,0-.2,0-.31a2.73,2.73,0,0,1,2.7-2.78Z"/><path class="cls-5" d="M168.6,365.85a2.86,2.86,0,0,1-2.71-2.89,2.77,2.77,0,0,1,5.53.29A2.91,2.91,0,0,1,168.6,365.85Z"/><path class="cls-5" d="M158.16,355.53H158a2.69,2.69,0,0,1-1.07-.34Z"/><path class="cls-5" d="M137.3,355.52a2.89,2.89,0,0,1-2.68-2.73,2.77,2.77,0,0,1,5.53-.15c0,.1,0,.2,0,.3A2.91,2.91,0,0,1,137.3,355.52Z"/><path class="cls-5" d="M175,360.36a2.46,2.46,0,0,1-1.33.27,2.89,2.89,0,0,1-2.14-1.27Z"/><path class="cls-5" d="M166.19,357.83V358a2.76,2.76,0,0,1-5.52,0,2.48,2.48,0,0,1,.53-1.52l5,1.43Z"/><path class="cls-5" d="M155.78,358a2.77,2.77,0,1,1-2.54-2.65A2.76,2.76,0,0,1,155.78,358Z"/><path class="cls-5" d="M145.36,358a2.79,2.79,0,0,1-2.76,2.62,2.76,2.76,0,0,1-2.77-2.74v0a2.77,2.77,0,0,1,5.53.16Z"/><path class="cls-5" d="M134.94,357.92a2.77,2.77,0,0,1-5.53,0h0a2.77,2.77,0,0,1,5.53,0Z"/><path class="cls-5" d="M134.63,348.77a2.77,2.77,0,0,1-2.38,1.51,1,1,0,0,1-.24,0,2.72,2.72,0,0,1-2.6-2.69.61.61,0,0,1,0-.27l4.91,1.39Z"/><path class="cls-5" d="M189.57,386.06a2.66,2.66,0,0,1,2.59,2.66,2.61,2.61,0,0,1-2.58,2.46,2.51,2.51,0,0,1-2.56-2.46v-.17A2.56,2.56,0,0,1,189.57,386.06Z"/><path class="cls-5" d="M179.75,386.07a2.56,2.56,0,1,1,.4,5.1h-.31a2.6,2.6,0,0,1-2.62-2.41A2.64,2.64,0,0,1,179.75,386.07Z"/><path class="cls-5" d="M170,386.07a2.66,2.66,0,0,1,2.64,2.6,2.61,2.61,0,0,1-2.53,2.51,2.51,2.51,0,0,1-2.61-2.41v-.17A2.55,2.55,0,0,1,170,386.07Z"/><path class="cls-5" d="M162.83,388.63a2.54,2.54,0,0,1-2.47,2.55,2.6,2.6,0,0,1-2.68-2.52v0a2.65,2.65,0,0,1,2.68-2.57A2.56,2.56,0,0,1,162.83,388.63Z"/><path class="cls-5" d="M153.1,388.7a2.6,2.6,0,0,1-2.56,2.48,2.52,2.52,0,0,1-2.58-2.46v-.15a2.57,2.57,0,0,1,2.53-2.51A2.66,2.66,0,0,1,153.1,388.7Z"/><path class="cls-5" d="M143.3,388.68a2.52,2.52,0,0,1-2.51,2.5,2.59,2.59,0,0,1-2.63-2.57v0a2.65,2.65,0,0,1,2.72-2.52A2.55,2.55,0,0,1,143.3,388.68Z"/><path class="cls-5" d="M131.05,391.18a2.56,2.56,0,0,1-.12-5.11,2.66,2.66,0,0,1,2.65,2.6A2.61,2.61,0,0,1,131.05,391.18Z"/><path class="cls-5" d="M172.63,369.16a2.63,2.63,0,0,1-2.51,2.53,2.56,2.56,0,0,1-2.63-2.47v-.1a2.6,2.6,0,0,1,2.49-2.56A2.68,2.68,0,0,1,172.63,369.16Z"/><path class="cls-5" d="M182.35,369.09a2.55,2.55,0,0,1-2.46,2.6,2.61,2.61,0,0,1-2.68-2.54v0a2.68,2.68,0,0,1,2.58-2.54A2.59,2.59,0,0,1,182.35,369.09Z"/><path class="cls-5" d="M192.15,369.18a2.6,2.6,0,0,1-2.57,2.51,2.55,2.55,0,0,1-2.58-2.52V369a2.57,2.57,0,0,1,1.65-2.26l2.89.84A2.42,2.42,0,0,1,192.15,369.18Z"/><path class="cls-5" d="M201.5,370.46a1.27,1.27,0,0,1-.13.19,1.32,1.32,0,0,1-.25.28,1.85,1.85,0,0,1-.37.31,2.3,2.3,0,0,1-.4.23,1,1,0,0,1-.42.13.66.66,0,0,1-.28,0,.54.54,0,0,1-.18,0h-.12a2.66,2.66,0,0,1-1-.2,2.49,2.49,0,0,1-.82-.54.91.91,0,0,1-.18-.21.9.9,0,0,1-.15-.19,2.4,2.4,0,0,1-.47-1.39V369a1.82,1.82,0,0,1,0-.33,1,1,0,0,0,0,.25v.09Z"/><path class="cls-5" d="M160.33,371.69a2.61,2.61,0,0,1-2.64-2.44,2.67,2.67,0,0,1,2.6-2.69,2.59,2.59,0,0,1,2.54,2.56A2.55,2.55,0,0,1,160.33,371.69Z"/><path class="cls-5" d="M150.46,366.56a2.66,2.66,0,0,1,2.63,2.47,2.6,2.6,0,0,1-2.54,2.66h-.06a2.57,2.57,0,0,1-2.53-2.54A2.6,2.6,0,0,1,150.46,366.56Z"/><path class="cls-5" d="M143.3,369.08a2.54,2.54,0,0,1-2.45,2.6,2.59,2.59,0,0,1-2.69-2.49v-.08a2.68,2.68,0,0,1,2.57-2.55A2.61,2.61,0,0,1,143.3,369.08Z"/><path class="cls-5" d="M133.58,369.18a2.62,2.62,0,0,1-2.58,2.51,2.56,2.56,0,1,1,.08-5.12A2.67,2.67,0,0,1,133.58,369.18Z"/><path class="cls-5" d="M160.25,381.42a2.59,2.59,0,0,1-2.57-2.5,2.68,2.68,0,0,1,2.69-2.6,2.6,2.6,0,0,1,2.46,2.62,2.53,2.53,0,0,1-2.58,2.48Z"/><path class="cls-5" d="M170,381.42a2.52,2.52,0,0,1-2.48-2.56h0a2.61,2.61,0,0,1,2.54-2.54,2.69,2.69,0,0,1,2.6,2.7A2.61,2.61,0,0,1,170,381.42Z"/><path class="cls-5" d="M182.35,378.92a2.52,2.52,0,0,1-2.54,2.5h0a2.59,2.59,0,0,1-2.59-2.48,2.69,2.69,0,0,1,2.67-2.62A2.58,2.58,0,0,1,182.35,378.92Z"/><path class="cls-5" d="M189.49,376.31a2.68,2.68,0,0,1,2.66,2.45,2.57,2.57,0,0,1-2.4,2.65A2.52,2.52,0,0,1,187,379.1a1.09,1.09,0,0,1,0-.18A2.61,2.61,0,0,1,189.49,376.31Z"/><path class="cls-5" d="M199.3,376.31a2.61,2.61,0,0,1,2.58,2.51,2.52,2.52,0,0,1-2.44,2.6h0a2.59,2.59,0,0,1-2.7-2.48v-.07A2.69,2.69,0,0,1,199.3,376.31Z"/><path class="cls-5" d="M150.51,376.31a2.68,2.68,0,0,1,2.59,2.53,2.58,2.58,0,0,1-2.6,2.58h-.07a2.52,2.52,0,0,1-2.47-2.57h0A2.62,2.62,0,0,1,150.51,376.31Z"/><path class="cls-5" d="M140.66,381.42a2.59,2.59,0,0,1-2.5-2.57,2.7,2.7,0,0,1,2.57-2.54,2.59,2.59,0,0,1,2.56,2.62V379a2.51,2.51,0,0,1-2.61,2.41Z"/><path class="cls-5" d="M133.57,378.84a2.57,2.57,0,0,1-2.48,2.58,2.52,2.52,0,0,1-2.65-2.38v0a2.6,2.6,0,0,1,2.49-2.71H131A2.68,2.68,0,0,1,133.57,378.84Z"/><path class="cls-3" d="M104,435.75c1.07.67.82,1.09.08,1.72a2.62,2.62,0,0,0,0,3.39c.22.25.51.61.28.83-1,1-.64,3.1-2.61,3.38a.75.75,0,0,0-.63.78c0,.74.08,1.38-.93,1.61-.45.11,0,.6.17.88s.28.59,0,.87a.57.57,0,0,1-.77,0,10.53,10.53,0,0,0-1.22-.46c-.74-.37-1.19-.24-1.5.54s-.65.93-1.22.28c-.35-.4-.73-.22-1.09-.05-1.08.49-2.11.72-3-.37-.16-.19-.32-.21-.49,0a1.41,1.41,0,0,1-.23.26c-1.25-1-2.21,1.09-3.45.32-.37-.23-.54.17-.7.46a1,1,0,0,1-1.3.56l-.1-.05c-.62-.34-.56-.9-.34-1.47s.5-.87.38-1.36,0-1.41-1.08-.93a.71.71,0,0,1-1-.36.66.66,0,0,1,0-.46,2.72,2.72,0,0,0-.49-2.44c-.71-1.05-.65-2.48-1.72-3.33a.28.28,0,0,1-.12-.2,6.87,6.87,0,0,0-.64-3.4,6.61,6.61,0,0,1-.3-.85c-.19-.57-1-1.14-.3-1.85-.58-.46-.66-1.27-1.2-1.74s-.89-.59-.43-1.24c.21-.3-.13-.28-.29-.32s-.42-.28-.24-.41c.77-.56.8-1.36.94-2.18.09-.52.71-.57,1.2-.62s.89,0,.76-.62-.1-1.19-.8-1.15c-.87,0-1-.32-.75-1a.68.68,0,0,0-.19-.66c-.68-.76-.27-1.53-.26-2.38a17.71,17.71,0,0,1,.21-3.85c.18-.77-.17-1.53.8-2,.62-.31.57-.89,0-1.21-1.27-.67-1.06-1.18.07-1.73a.6.6,0,0,0,.36-.78.31.31,0,0,0-.06-.13c-.67-1.17-.08-1.94.77-2.69.35-.3,1.23-.65.1-1.2-.34-.16-.13-.58.16-.79s.61-.37.9-.59a.52.52,0,0,0,.25-.62c-.09-.24-.32-.18-.51-.15a.79.79,0,0,1-1-.56.29.29,0,0,1,0-.09.9.9,0,0,1,.61-1.1h0c.72-.29.83-1.07,1.2-1.52.81-1,.51-1.59.11-2.47a1.83,1.83,0,0,1,.09-1.22c.42-.73.06-1.07-.3-1.61-.58-.88.54-.81.84-1.17,0-.41-.35-.43-.54-.61s-.31-.67,0-.67c.76,0,1.25-.78,2-.64,1,.19,1.42-.27,1.65-1.11s.68-1.21,1.4-.41,1.27-.32,1.86.33c0-.53-.34-.7-.49-1s-.51-.59-.27-1,.54-.28.86-.19c.52.15.76-.43,1.42-.39a3.61,3.61,0,0,1,2.38.82c.3.26.45,0,.64-.23.69-.88,1.27-.92,1.83-.05.25.37.38.42.72.2a.73.73,0,0,1,1,.07l0,0a1.16,1.16,0,0,1,.05,1.25c-.18.43-1,.79-.65,1.14.56.56.83,1.37,1.56,1.75a3.17,3.17,0,0,1,.83.45c.59.6,1,.57,1.33-.23.18-.44.66-.56,1-.81s.67-.38,1-.09-.12.58-.19.88a5,5,0,0,1-1.53,2.33.41.41,0,0,0-.14.54c.14.23.35.14.52,0,1.24-.68,1.39.7,2,1.14.32.25-.35.56-.73.63-.93.18-1.93,0-2.79.51-.1.06-.19.13-.43.31a4.63,4.63,0,0,1,2.52,1.09c.44.42.79,0,1-.39s.47-.72,1-.49.35.65.23,1-.08.61-.24.8c-.89,1-1.63,2-.4,3.24-.63,1.11.24,1.69.83,2.39a1,1,0,0,1,0,1.14c-.15.33-.65.68-.16,1s.75,0,1.07-.29c.15-.12.27-.29.55-.21.11.87-1.21,1.07-1,1.71.28.93-.57,1.25-.76,2,2-.07,2.49,1.82,3.68,2.79.56.45-.62.72-.81,1.18s1.23.49.57,1.24c-.35.39-1,.34-1.45.51-.21.08-.5.14-.5.44s.23.29.42.35h.11c1.09.16-.2,1.21.48,1.39,1,.28.48.7.41,1.34a2,2,0,0,1-1.54,2.07c-.51.17-.41.67-.13,1a11.47,11.47,0,0,1,1.19,2c.46.81,1,1.46-.26,2-.31.13-.24.38-.07.58.61.73.25,1.42,0,2.14s-1,1.1-.15,1.83c.25.23-.15.48-.44.5s-.85,0-1.5,0"/><path class="cls-3" d="M267.89,455.73c-.15-.35-.68-.47-.45-.69.41-.39.7.19,1.12.4,0-.61.3-.77.81-.62s.31-.17.33-.38-.1-.53.18-.65.36.26.54.34a2.15,2.15,0,0,0,1.19.27c.51-.09,1.17,0,1.45-.69.14-.34.41-.21.55,0s.39.37.65,0,.4-.4.83-.07a3.12,3.12,0,0,0,1.44.35,2.29,2.29,0,0,1,1.68.82,1.29,1.29,0,0,0,.87.54,12.27,12.27,0,0,1,2.18.84,3,3,0,0,1,1.06.88c1,1,.51,2.47,1.34,3.47v.13c.13.55,1,.47,1,.95s-.25.88.09,1.31a.37.37,0,0,1,0,.48,2.09,2.09,0,0,0,.19,2.95l.06.05a1.21,1.21,0,0,1,.19,1.7,1.15,1.15,0,0,1-.5.37.73.73,0,0,0-.41.69c0,.54.06,1.08.09,1.62a3.43,3.43,0,0,1-2.11,3.38.27.27,0,0,0-.23.13c-.42.79-1.24.39-1.78.64a15.44,15.44,0,0,0-1.62.55.69.69,0,0,1-.84,0,1.13,1.13,0,0,0-1.22-.1,3.5,3.5,0,0,1-2.8.18,1.7,1.7,0,0,0-1,0,7,7,0,0,1-4.1-.43c-1-.42-2.1-.08-2.86-.92-.6.64-1-.55-1.69-.15-.33.19-.47-.48-.64-.79a6.91,6.91,0,0,0-1.17-1.9c-.08-.08-.18-.27-.14-.35a1.49,1.49,0,0,0,0-1.42c-.29-.45-.28-1-.56-1.39a.46.46,0,0,1,0-.66l0,0c.27-.3-.05-.75,0-1.14s-.09-.51.26-.65,0-.28,0-.43c-.07-.39-.29-.78.34-1a.85.85,0,0,0,.44-1.1,1.36,1.36,0,0,1,.44-1.69.77.77,0,0,0,.33-.4,3.27,3.27,0,0,1,2-2.37.78.78,0,0,0,.37-.59,1.52,1.52,0,0,1,.88-1.17c.25-.1.53-.33.47-.59-.14-.63.24-.64.71-.61"/><path class="cls-3" d="M325.89,403.44c-.15-.35-.68-.47-.45-.69.41-.39.7.19,1.12.4,0-.61.3-.77.81-.62s.31-.17.33-.38-.1-.53.18-.66.36.27.54.35a2.24,2.24,0,0,0,1.19.27c.51-.09,1.17,0,1.45-.69.14-.34.41-.21.55,0s.39.37.65,0,.4-.4.83-.07a3.12,3.12,0,0,0,1.44.35,2.31,2.31,0,0,1,1.68.81,1.27,1.27,0,0,0,.87.55,12.27,12.27,0,0,1,2.18.84,2.89,2.89,0,0,1,1.06.87c.95,1,.51,2.48,1.34,3.48v.12c.13.56.95.48,1,.95s-.25.89.09,1.32a.36.36,0,0,1,0,.48,2.09,2.09,0,0,0,.19,2.95l.06.05a1.21,1.21,0,0,1,.19,1.7,1.15,1.15,0,0,1-.5.37.73.73,0,0,0-.41.69c.05.54.06,1.08.09,1.62a3.43,3.43,0,0,1-2.11,3.38.27.27,0,0,0-.23.13c-.42.79-1.24.38-1.78.63a16.21,16.21,0,0,0-1.62.55.68.68,0,0,1-.84-.05,1.17,1.17,0,0,0-1.22-.09,3.5,3.5,0,0,1-2.8.18,1.7,1.7,0,0,0-1,0,7,7,0,0,1-4.1-.43c-.95-.42-2.1-.08-2.86-.92-.6.64-1-.55-1.69-.16-.33.2-.47-.48-.64-.78a6.91,6.91,0,0,0-1.17-1.9c-.08-.08-.18-.28-.14-.35a1.49,1.49,0,0,0,0-1.42c-.29-.45-.28-1-.56-1.4a.46.46,0,0,1,0-.65l0,0c.27-.3-.05-.75,0-1.15s-.09-.5.26-.65,0-.27,0-.42c-.07-.39-.29-.79.34-1a.85.85,0,0,0,.44-1.1,1.36,1.36,0,0,1,.44-1.69c.13-.12.29-.22.33-.4a3.27,3.27,0,0,1,2-2.37.78.78,0,0,0,.37-.59,1.52,1.52,0,0,1,.88-1.17c.25-.1.53-.33.47-.59-.14-.63.24-.64.71-.61"/><text class="cls-13" transform="translate(113.92 90.8)"><tspan class="cls-14">T</tspan><tspan x="47.12" y="0">alk</tspan></text></g></g></svg>