<svg xmlns="http://www.w3.org/2000/svg" xmlns:xlink="http://www.w3.org/1999/xlink" viewBox="0 0 155.96 183.65"><defs><clipPath id="a" transform="translate(0)"><rect width="155.96" height="183.65" fill="none"/></clipPath></defs><title>Green house</title><g clip-path="url(#a)"><polyline points="37.38 89.96 153.56 56.6 119.25 24.49 2.65 57.8 37.38 89.96 37.18 181.29" fill="none" stroke="#3b9f66" stroke-miterlimit="10" stroke-width="2.43"/><line x1="3.27" y1="150.3" x2="2.55" y2="57.97" fill="none" stroke="#3b9f66" stroke-miterlimit="10" stroke-width="2.43"/><path d="M153.46,56.43,37.36,90.05,153,56.56a.37.37,0,0,1,.46.35v90.7" transform="translate(0)" fill="none" stroke="#3b9f66" stroke-miterlimit="10" stroke-width="2.43"/><path d="M153.48,55.92,37.37,89.07S78.06-9.8,153.48,55.92Z" transform="translate(0)" fill="none" stroke="#3b9f66" stroke-miterlimit="10" stroke-width="2.43"/><path d="M118.19,23.76,2.08,56.91S42.77-42,118.19,23.76Z" transform="translate(0)" fill="none" stroke="#3b9f66" stroke-miterlimit="10" stroke-width="2.43"/></g><line x1="6.13" y1="48.59" x2="41.76" y2="80.12" fill="none" stroke="#3b9f66" stroke-miterlimit="10" stroke-width="2.43"/><line x1="10.16" y1="41.6" x2="46.68" y2="70.69" fill="none" stroke="#3b9f66" stroke-miterlimit="10" stroke-width="2.43"/><line x1="15.67" y1="33.37" x2="51.61" y2="61.22" fill="none" stroke="#3b9f66" stroke-miterlimit="10" stroke-width="2.43"/><line x1="21.12" y1="26.45" x2="57.33" y2="54.88" fill="none" stroke="#3b9f66" stroke-miterlimit="10" stroke-width="2.43"/><line x1="26.76" y1="20.35" x2="65.69" y2="49.11" fill="none" stroke="#3b9f66" stroke-miterlimit="10" stroke-width="2.43"/><line x1="34.03" y1="13.92" x2="74.22" y2="42.58" fill="none" stroke="#3b9f66" stroke-miterlimit="10" stroke-width="2.43"/><line x1="42.76" y1="8.1" x2="83.31" y2="37.66" fill="none" stroke="#3b9f66" stroke-miterlimit="10" stroke-width="2.43"/><g clip-path="url(#a)"><line x1="53.36" y1="3.51" x2="93.35" y2="34.44" fill="none" stroke="#3b9f66" stroke-miterlimit="10" stroke-width="2.43"/><line x1="64.89" y1="1.21" x2="105.53" y2="33.37" fill="none" stroke="#3b9f66" stroke-miterlimit="10" stroke-width="2.43"/><line x1="76.35" y1="1.21" x2="118.27" y2="34.73" fill="none" stroke="#3b9f66" stroke-miterlimit="10" stroke-width="2.43"/></g><line x1="92.61" y1="6.8" x2="129.29" y2="39.6" fill="none" stroke="#3b9f66" stroke-miterlimit="10" stroke-width="2.43"/><g clip-path="url(#a)"><line x1="37.35" y1="181.39" x2="153.46" y2="147.61" fill="none" stroke="#3b9f66" stroke-miterlimit="10" stroke-width="2.62"/><line x1="37.35" y1="139.75" x2="153.46" y2="105.98" fill="none" stroke="#3b9f66" stroke-miterlimit="10" stroke-width="2.62"/></g><line x1="37.35" y1="98.76" x2="119.78" y2="74.78" fill="none" stroke="#3b9f66" stroke-miterlimit="10" stroke-width="2.62"/><polygon points="28.86 63.49 42.2 75.07 60.78 68.78 48.79 58.14 28.86 63.49" fill="none" stroke="#3b9f66" stroke-miterlimit="10" stroke-width="1.66"/><polyline points="56.15 115.4 43.59 88.25 49.09 86.65 63.64 119.58" fill="none" stroke="#3b9f66" stroke-miterlimit="10" stroke-width="1.66"/><line x1="53.61" y1="109.6" x2="62.11" y2="116.44" fill="none" stroke="#3b9f66" stroke-miterlimit="10" stroke-width="1.91"/><line x1="50.29" y1="102.1" x2="59.34" y2="109.4" fill="none" stroke="#3b9f66" stroke-miterlimit="10" stroke-width="1.91"/><line x1="46.69" y1="94.8" x2="55.74" y2="102.1" fill="none" stroke="#3b9f66" stroke-miterlimit="10" stroke-width="1.91"/><line x1="44.71" y1="87.86" x2="52.44" y2="94.08" fill="none" stroke="#3b9f66" stroke-miterlimit="10" stroke-width="1.91"/><line x1="34.03" y1="64.97" x2="41.76" y2="71.2" fill="none" stroke="#3b9f66" stroke-miterlimit="10" stroke-width="1.91"/><line x1="44.23" y1="74.34" x2="41.28" y2="68.07" fill="none" stroke="#3b9f66" stroke-miterlimit="10" stroke-width="1.91"/><line x1="35.35" y1="68.74" x2="31.73" y2="61.22" fill="none" stroke="#3b9f66" stroke-miterlimit="10" stroke-width="1.91"/><g clip-path="url(#a)"><line x1="153.29" y1="148.3" x2="118.27" y2="115.91" fill="none" stroke="#3b9f66" stroke-miterlimit="10" stroke-width="2.6"/><line x1="38.6" y1="182.69" x2="3.58" y2="150.3" fill="none" stroke="#3b9f66" stroke-miterlimit="10" stroke-width="2.6"/><line x1="153.29" y1="107.16" x2="118.27" y2="74.78" fill="none" stroke="#3b9f66" stroke-miterlimit="10" stroke-width="2.6"/></g><line x1="119.78" y1="74.78" x2="119.78" y2="66.61" fill="none" stroke="#3b9f66" stroke-miterlimit="10" stroke-width="2.62"/><g clip-path="url(#a)"><path d="M100.1,98.38a5.07,5.07,0,0,0-1,.12,1.8,1.8,0,0,0-.68.29c-.4.26-.81.48-1.18.77a3.18,3.18,0,0,0-1.1,2.15,6.3,6.3,0,0,0,0,2.56A3,3,0,0,0,97.48,106a12.22,12.22,0,0,0,1,.66,7.37,7.37,0,0,0,1.22.53,4.52,4.52,0,0,0,2.5-.06,6.12,6.12,0,0,0,1-.32,4.3,4.3,0,0,0,.84-.54,8.91,8.91,0,0,0,1.29-1.24,3.91,3.91,0,0,0,.85-1.4c.06-.21.14-.43.19-.65a3.85,3.85,0,0,0,0-.59,3,3,0,0,0-.37-1.25,9.23,9.23,0,0,0-.59-.94,3.42,3.42,0,0,0-.86-.92c-.27-.2-.61-.29-.62-.64,0-.14,0-.29,0-.43s-.1-.56-.14-.83a2,2,0,0,0-.36-.81,1.49,1.49,0,0,0-.64-.52,1.62,1.62,0,0,0-1.55.31,3.14,3.14,0,0,0-.78,1.14,3.83,3.83,0,0,0-.24.59.76.76,0,0,1-.08.21s-.1.2-.06.16" transform="translate(0)" fill="#3b9f66"/><path d="M100.1,98c-3.43.23-6,4.36-3.79,7.43A5.8,5.8,0,0,0,105,106c1.08-1,2-2.39,1.71-4a6,6,0,0,0-1.33-2.46,5.29,5.29,0,0,1-1.19-2.24c-.86-3-4.07-1.33-4.42,1.09-.07.46.64.66.71.19.15-1.07,2.46-2.08,3-1.09.43.8,0,1.06.39,1.73s1.16,1,1.57,1.65c1,1.6.46,3.07-.74,4.36a4.86,4.86,0,0,1-6.51.81,4,4,0,0,1,1.93-7.3c.47,0,.47-.76,0-.73" transform="translate(0)" fill="#3b9f66"/><path d="M102.42,91c0,.12-.3.11-.42.16l-.2.11c-.16.08-.2.18-.29.31a2.5,2.5,0,0,1-.23.23,1.89,1.89,0,0,0-.34.75,2.42,2.42,0,0,0,0,.76,1.25,1.25,0,0,0,.74,1.07,2.51,2.51,0,0,0,1.79-.08,1.7,1.7,0,0,0,1.17-1,1.13,1.13,0,0,0-.29-1.18,2.85,2.85,0,0,0-.44-.48,3.12,3.12,0,0,0-.47-.34c-.31-.14-.86-.37-1.1,0" transform="translate(0)" fill="#3b9f66"/><path d="M102.16,90.74c-.13.11-.43.13-.58.24a2.39,2.39,0,0,0-.62.65,2.55,2.55,0,0,0-.43,1.74c.18,1.46,1.69,1.72,2.88,1.33s2.06-1.3,1.38-2.48c-.47-.81-1.83-2-2.75-1.16-.36.31.16.83.52.52s.91.26,1,.38c.41.35.94,1,.46,1.57a2.47,2.47,0,0,1-1.88.61c-1.24-.22-1.12-1.6-.42-2.3.28-.28.62-.34.91-.58s-.16-.82-.52-.52" transform="translate(0)" fill="#3b9f66"/><path d="M97.74,98.26l0,0,.84.11a19.64,19.64,0,0,1-2.31-3.21c-.4-.79-1.59-.09-1.2.7a22.16,22.16,0,0,0,2.53,3.49.69.69,0,0,0,.84.1l0,0c.71-.53,0-1.73-.7-1.2" transform="translate(0)" fill="#3b9f66"/><path d="M106.13,100.29c.42-.62.86-1.2,1.34-1.79.34-.43.58-.94.92-1.35a.69.69,0,0,0-.83-1.09l.17,0c-.88.09-.89,1.48,0,1.39a1.54,1.54,0,0,0,.52-.14l-.84-1.09c-.42.51-.71,1.09-1.13,1.61a21.13,21.13,0,0,0-1.34,1.81c-.51.74.69,1.43,1.19.7" transform="translate(0)" fill="#3b9f66"/><path d="M97.67,106.59c.06-.47.17-.19-.21-.19-.15,0-.32,0-.47.06-.6,0-1.15,0-1.75.13-.78.12-.58,1.37.18,1.36h.11a.69.69,0,0,0,0-1.38h-.11c.07.45.13.9.19,1.36.72-.12,3.22.17,3.39-1,.13-.87-1.21-1.25-1.33-.37" transform="translate(0)" fill="#3b9f66"/><path d="M101.65,106.88a8.54,8.54,0,0,0-2.56,2.69l1.27.17s0-.07,0-.1c0,.18,0,.36-.07.53a.27.27,0,0,1,.07-.08c.52-.73-.68-1.42-1.2-.7a.86.86,0,0,0-.12.72c.09.61,1,.63,1.27.16a7.18,7.18,0,0,1,2-2.2c.75-.48,0-1.68-.69-1.19" transform="translate(0)" fill="#3b9f66"/><path d="M74.83,115.81a13.39,13.39,0,0,1,1.09,1c.18.2.73.66.79.85.28.85,1.61.49,1.34-.37a3.65,3.65,0,0,0-.87-1.13,13.63,13.63,0,0,0-1.37-1.37c-.66-.59-1.64.38-1,1" transform="translate(0)" fill="#3b9f66"/><path d="M69.44,90.16a.75.75,0,0,1-.33.07,1.63,1.63,0,0,0-.53.21,1.93,1.93,0,0,0-.86,1A3,3,0,0,0,67.57,93a1.54,1.54,0,0,0,.93,1.2,2,2,0,0,0,1.33,0,3.42,3.42,0,0,0,.75-.35,2,2,0,0,0,.61-.46,3.79,3.79,0,0,0,.61-1.32,1.46,1.46,0,0,0,0-1,1,1,0,0,0-.26-.36,3.68,3.68,0,0,0-.39-.24,1.8,1.8,0,0,0-.7-.26c-.12,0-.24,0-.35,0s-.2-.1-.31-.12a4.28,4.28,0,0,0-.62,0" transform="translate(0)" fill="#3b9f66"/><path d="M69.34,89.81a2.62,2.62,0,0,0-2.19,2.7,2.07,2.07,0,0,0,2.78,2.06,3.22,3.22,0,0,0,2.32-3c0-1.51-1.89-1.89-3.08-1.85-.47,0-.47.75,0,.74.84,0,2.32.11,2.33,1.26a2.39,2.39,0,0,1-1.35,2,1.81,1.81,0,0,1-1.85,0c-.52-.38-.45-1.36-.32-1.87.22-.83.81-1.07,1.56-1.28a.37.37,0,0,0-.2-.71" transform="translate(0)" fill="#3b9f66"/><path d="M70.85,98.72s0,0,0-.06a1.54,1.54,0,0,0-.48,0,1.66,1.66,0,0,0-.75.18,3.82,3.82,0,0,0-1.72,1.43,6.65,6.65,0,0,0-.8,3.16,18.48,18.48,0,0,0,.25,4.27,12.29,12.29,0,0,0,.67,2.39c.15.36.25.75.43,1.11s.43.77.66,1.15a7.52,7.52,0,0,0,.58,1,3.27,3.27,0,0,0,.63.54,10.48,10.48,0,0,0,1.15.6,3.2,3.2,0,0,0,.85.36,5.16,5.16,0,0,0,1.1.25,3.16,3.16,0,0,0,2.11-.64,6,6,0,0,0,.8-.79,1.24,1.24,0,0,0,.28-.56,2.23,2.23,0,0,0,.14-.81c0-.13.15-.52,0-.54" transform="translate(0)" fill="#3b9f66"/><path d="M71.21,98.62v-.06a.39.39,0,0,0-.36-.27c-6.47-.16-4,10.75-2.23,13.95,1,1.87,3.35,3.55,5.65,3.11,1.63-.31,3.26-2,2.84-3.75a.37.37,0,0,0-.71.2q.15,2.55-4,2.63a5.14,5.14,0,0,1-3-2.27,10.41,10.41,0,0,1-1.34-3,15.59,15.59,0,0,1-.62-3.64c0-.71,0-1.43,0-2.14-.06-2.4,1-3.93,3-4.6.1.46.8.26.71-.2" transform="translate(0)" fill="#3b9f66"/><path d="M70.88,98.12l-.06,0a.69.69,0,0,0-.31,1.15c1.24,1.56,1.56,4.5,2.29,6.39A14.81,14.81,0,0,0,74,108.29c.64,1,2,2.41,2.16,3.63.11.87,1.49.88,1.39,0A7.28,7.28,0,0,0,76,108.73a20.52,20.52,0,0,1-2.14-4.2c-.78-2-1-4.48-2.36-6.22l-.3,1.16h.06c.87-.19.5-1.52-.37-1.34" transform="translate(0)" fill="#3b9f66"/><path d="M76.68,113.15a5.7,5.7,0,0,0,1.47.39c.6.14,1.13.42,1.73.54l-.48-.48a.13.13,0,0,0,0,.06c.16.88,1.49.5,1.33-.37v-.06a.65.65,0,0,0-.48-.48c-.55-.11-1-.35-1.58-.5-.37-.11-1.14-.21-1.29-.29-.79-.43-1.49.77-.7,1.19" transform="translate(0)" fill="#3b9f66"/><path d="M71.79,102.12c.07.6.37.81.86,1.08s1.11.83,1.65.88c.71.06.78-.56,1-1s1-1,1.22-1.56c.36-.81-.83-1.51-1.2-.7a7.29,7.29,0,0,1-.86,1.1c-.17.22-.43.9-.59,1l.67-.18a8.77,8.77,0,0,1-.92-.57,2.23,2.23,0,0,1-.67-.39c.07.16.14.33.2.49,0,0,0-.09,0-.14-.1-.87-1.48-.88-1.39,0" transform="translate(0)" fill="#3b9f66"/><path d="M90.05,141.37a8.17,8.17,0,0,0-.14-1.2,6.31,6.31,0,0,0-.26-1.06A8.62,8.62,0,0,0,89.2,138c-.38-.79-1.12-1.27-1.91-.7a2,2,0,0,0-.8,1.88c0,.65,0,1.31,0,2a12.44,12.44,0,0,1-.26,2.27,8,8,0,0,1-.32,1.19,9.87,9.87,0,0,0-.38,1.84c-.08.49-.24,1-.31,1.47s0,.73,0,1.09a8.45,8.45,0,0,0-.09,1.12,8.56,8.56,0,0,0,.23,3.19A6.18,6.18,0,0,0,87,156a5.35,5.35,0,0,0,1,.59,4.56,4.56,0,0,0,1.27.16,4.2,4.2,0,0,0,1.06.11c.38-.05.57-.37.85-.6a1.85,1.85,0,0,0,.65-.79c.12-.25.25-.51.36-.77a5.45,5.45,0,0,0,.49-2.17v-1a10.53,10.53,0,0,0-.1-1.26,21.32,21.32,0,0,0-.45-2.25c-.07-.3-.19-.59-.26-.88a7,7,0,0,0-.21-1,5.36,5.36,0,0,1-.3-.79,6.68,6.68,0,0,0-.21-.73c0-.16-.06-.34-.11-.5s-.16-.45-.24-.68-.25-.64-.33-.94c0-.15,0-.29,0-.45a3.62,3.62,0,0,0-.19-.4" transform="translate(0)" fill="#3b9f66"/><path d="M90.41,141.37c-.12-1.68-2.18-7.3-4.1-3.37-.54,1.11-.17,3.12-.31,4.26-.23,1.88-.91,3.69-1.13,5.58-.29,2.4-.51,5,.8,7.12,1.73,2.84,5.39,3.14,6.76-.06,1.63-3.78-.32-9.85-1.94-13.43-.19-.43-.83-.06-.63.37,1.37,3,4.93,14.68-.66,14.55s-3.6-8.57-2.94-11.66a26.45,26.45,0,0,1,.6-3.56c-.3-1.41.51-2.06,2.43-2a7.91,7.91,0,0,1,.39,2.16c0,.47.77.47.73,0" transform="translate(0)" fill="#3b9f66"/><path d="M87.43,130.84c-.37-.07-.77.5-.94.77a3.7,3.7,0,0,0-.41,1.06,1.3,1.3,0,0,0,.23,1.27,2.19,2.19,0,0,0,1.7.55,1.17,1.17,0,0,0,.72-.1,2.39,2.39,0,0,0,.6-.67,2.43,2.43,0,0,0,.08-1.44,2.91,2.91,0,0,0-.8-1.32c-.34-.36-.82-.23-1.29-.23" transform="translate(0)" fill="#3b9f66"/><path d="M87.43,130.48c-1.06.06-1.7,1.53-1.77,2.46-.1,1.4,1.16,1.9,2.35,1.92a1.86,1.86,0,0,0,1.82-2.24,2.9,2.9,0,0,0-.75-1.69,1.86,1.86,0,0,0-1.76-.57c-.47,0-.48.75,0,.73a1.63,1.63,0,0,1,1.76,1.47c.13.82-.22,1.5-1.07,1.56s-1.75-.37-1.58-1.36c.08-.44.44-1.51,1-1.55s.48-.77,0-.73" transform="translate(0)" fill="#3b9f66"/><path d="M91.32,144.74a2.75,2.75,0,0,1,1.68,0l-.51-.67a12.51,12.51,0,0,1,.14,2.73,16.68,16.68,0,0,1-.33,2.34l1.35.18a.22.22,0,0,0,0-.08c.07-.89-1.32-.89-1.38,0v.08c-.06.79,1.17.93,1.36.19A20.62,20.62,0,0,0,94,147a13.35,13.35,0,0,0-.13-3,.72.72,0,0,0-.51-.66,3.89,3.89,0,0,0-2.75.17c-.79.42-.09,1.61.7,1.19" transform="translate(0)" fill="#3b9f66"/><path d="M86.26,144c-.46-.29-1.76-.88-1.94-1.36s.2-1.82.31-2.4c.25-1.38.64-2.71,1-4.06a.69.69,0,0,0-1.34-.36,39.53,39.53,0,0,0-1.38,6.26c-.15,1.72,1.36,2.3,2.66,3.11.76.48,1.45-.72.7-1.19" transform="translate(0)" fill="#3b9f66"/><path d="M89.1,157.1c.05,1,.29,1.91.36,2.89a23.31,23.31,0,0,0,.25,2.36c.14.87,1.48.5,1.34-.37a22.86,22.86,0,0,1-.22-2.34c-.06-.86-.3-1.68-.35-2.54s-1.43-.9-1.38,0" transform="translate(0)" fill="#3b9f66"/><path d="M86.86,156.86A8.59,8.59,0,0,1,86.5,158c-.11.42-.2.81-.34,1.23-.32,1-.46,2.05-.75,3.05a.69.69,0,0,0,1.33.37c0-.07.05-.14.07-.21.26-.85-1.07-1.21-1.34-.37l-.06.21,1.33.37c.32-1.1.51-2.22.85-3.31a11.68,11.68,0,0,0,.66-2.5c0-.89-1.34-.88-1.39,0" transform="translate(0)" fill="#3b9f66"/><path d="M119.16,132c0-.13-.06-.21-.13-.3s-.19-.22-.3-.33a1.81,1.81,0,0,0-1.06-.62,2.07,2.07,0,0,0-.61,0,1.19,1.19,0,0,0-.46.3,3.88,3.88,0,0,0-1,1.39c-.28.57-.64,1.12-.87,1.71a11.36,11.36,0,0,0-.44,1.15,8.24,8.24,0,0,0-.24,1.24c0,.33-.09.66-.15,1a5,5,0,0,0,0,.95,3,3,0,0,0,.08.84,1.88,1.88,0,0,0,.4.7,2.63,2.63,0,0,0,1.69.83c.27,0,.55.07.83.11a4.24,4.24,0,0,0,.87.12,8.1,8.1,0,0,0,1.09.13,1.86,1.86,0,0,0,.53-.12c.2-.1.36-.27.56-.37a4.3,4.3,0,0,0,.43-.21,1.45,1.45,0,0,0,.44-.41,1.79,1.79,0,0,0,.52-1.09,3.18,3.18,0,0,0,0-1.11c-.08-.4-.13-.84-.25-1.23s-.18-1-.31-1.47-.47-.86-.56-1.34a2.29,2.29,0,0,0-.24-.58c-.08-.18-.09-.37-.17-.55a2.54,2.54,0,0,0-.58-1.07" transform="translate(0)" fill="#3b9f66"/><path d="M119.48,131.81a2.32,2.32,0,0,0-2.52-1.4c-1.34.41-2.11,2.46-2.6,3.56-.8,1.81-1.88,5.54.3,6.84,1.87,1.12,5.56,1.27,6.71-1,.69-1.34.1-3.41-.31-4.73a11,11,0,0,0-1.64-3.69c-.3-.37-.81.15-.52.51a12.84,12.84,0,0,1,1.77,4.84c.41,2.18-.23,4.07-2.9,4a10.29,10.29,0,0,1-1.34-.19c-2.6-.43-2.43-2.47-2-4.54a11.61,11.61,0,0,1,1.12-2.82c.57-1.1,2.43-2.82,3.28-1,.2.43.83.06.63-.37" transform="translate(0)" fill="#3b9f66"/><path d="M121.7,139a6.38,6.38,0,0,1,1.94-.81L123,138l.07.08a.69.69,0,0,0,1-1L124,137a.74.74,0,0,0-.68-.18,7.47,7.47,0,0,0-2.27,1c-.73.51,0,1.71.7,1.19" transform="translate(0)" fill="#3b9f66"/><path d="M119.92,141.28c.36.37.76.37,1.22.53.62.2,1.2.56,1.83.77.85.28,1.22-1.06.37-1.34-.47-.15-.91-.38-1.37-.57-.25-.12-.88-.18-1.07-.37-.61-.65-1.59.33-1,1" transform="translate(0)" fill="#3b9f66"/><path d="M116.73,123.89a1.55,1.55,0,0,0-.63.31,3.31,3.31,0,0,0-.65.59,2.85,2.85,0,0,0-.43.6,1.58,1.58,0,0,0-.1.43c0,.17,0,.33-.06.5a1.8,1.8,0,0,0,.08.8,4.9,4.9,0,0,0,.45.76,1.5,1.5,0,0,0,.47.53,2.17,2.17,0,0,0,.75.27,2.68,2.68,0,0,0,1.43-.15,2,2,0,0,0,.95-1.23,5.23,5.23,0,0,0,.3-1.66,2.06,2.06,0,0,0-.12-.6,3.07,3.07,0,0,0-.14-.52,1.74,1.74,0,0,0-.74-.63,1.23,1.23,0,0,0-.56-.25,2.91,2.91,0,0,0-.66,0,1.27,1.27,0,0,1-.34,0,.31.31,0,0,0-.31.13" transform="translate(0)" fill="#3b9f66"/><path d="M116.64,123.54a3.05,3.05,0,0,0-2.12,3.42,2.63,2.63,0,0,0,3.49,2c1.54-.54,1.9-2.89,1.46-4.25a2.3,2.3,0,0,0-3.31-1.11c-.37.29.15.81.52.52a2,2,0,0,1,.72-.1,1.58,1.58,0,0,1,1.42,1.15c.37,1.1-.17,2.92-1.39,3.17-2.55.51-2.9-3.43-.6-4.07a.36.36,0,0,0-.19-.7" transform="translate(0)" fill="#3b9f66"/><path d="M119.65,136.05l0-.05a.71.71,0,0,0-.67-.51h-.09l.19,1.36a27.27,27.27,0,0,1,4.71-1.26.64.64,0,0,0,.48-.48v0c.18-.87-1.15-1.24-1.34-.37v0l.48-.48a25.58,25.58,0,0,0-4.71,1.26.7.7,0,0,0,.18,1.36H119l-.66-.51a.11.11,0,0,0,0,0,.7.7,0,0,0,1.34-.37" transform="translate(0)" fill="#3b9f66"/><path d="M120.57,133.84c.46-.22,1.51-.76,1.63-1.29.21-.86-1.13-1.23-1.33-.36a.07.07,0,0,0,0,.05l.48-.49c-.54.22-1,.65-1.46.9-.81.38-.11,1.57.69,1.19" transform="translate(0)" fill="#3b9f66"/><path d="M122.35,136.48c1,0,2.53.86,2.86-.53.27-1.09.49-2.22.7-3.33.1-.5.45-1.37,0-1.82a5,5,0,0,0-2.35-.7c-.38,0-1.1-.22-1.45,0-.16.11-.14.2-.22.35a9.18,9.18,0,0,0-.51,1.87,18.63,18.63,0,0,0-.61,2.66c-.05.47.68.46.74,0a30.6,30.6,0,0,1,1-3.88c.14-.52.06-.41.58-.31s1.93.13,2.25.66c.22.35-.24,1.51-.33,1.94-.13.64-.3,1.27-.42,1.91-.19,1-.17.66-1.09.54a7.44,7.44,0,0,0-1.15-.1.37.37,0,0,0,0,.73" transform="translate(0)" fill="#3b9f66"/><path d="M121.87,136l0,.05.36-.27c-.4,0-.66-.39-1-.47s-.65.6-.19.71c-.21-.06,0,0,0,.09a2.26,2.26,0,0,0,.49.25,2,2,0,0,0,.69.16.36.36,0,0,0,.35-.27v0c.1-.46-.61-.66-.7-.2" transform="translate(0)" fill="#3b9f66"/></g></svg>