<svg xmlns="http://www.w3.org/2000/svg" xmlns:xlink="http://www.w3.org/1999/xlink" viewBox="0 0 326 307.59"><defs><style>.cls-1,.cls-4,.cls-5,.cls-6,.cls-7,.cls-8{fill:none;}.cls-2{fill:#f4f0ea;}.cls-3{clip-path:url(#clip-path);}.cls-4,.cls-5,.cls-6,.cls-7,.cls-8{stroke:#3b9f66;stroke-miterlimit:10;}.cls-4{stroke-width:2.43px;}.cls-5{stroke-width:2.62px;}.cls-6{stroke-width:1.66px;}.cls-7{stroke-width:1.91px;}.cls-8{stroke-width:2.6px;}.cls-9{fill:#3b9f66;}.cls-10{fill:#d6eade;}.cls-11{fill:#389d66;}.cls-12{fill:#3b9e66;}</style><clipPath id="clip-path"><rect class="cls-1" x="84" y="21.59" width="155.96" height="183.65"/></clipPath></defs><title>Asset 1</title><g id="Layer_2" data-name="Layer 2"><g id="Layer_1-2" data-name="Layer 1"><rect class="cls-2" width="326" height="307.59"/><g class="cls-3"><polyline class="cls-4" points="121.38 111.55 237.56 78.19 203.25 46.08 86.65 79.39 121.38 111.55 121.18 202.88"/><line class="cls-4" x1="87.27" y1="171.89" x2="86.55" y2="79.56"/><path class="cls-4" d="M237.46,78l-116.1,33.62L237,78.15a.37.37,0,0,1,.45.27.19.19,0,0,1,0,.08v90.7"/><path class="cls-4" d="M237.48,77.51,121.37,110.66S162.06,11.79,237.48,77.51Z"/><path class="cls-4" d="M202.19,45.35,86.08,78.5S126.77-20.41,202.19,45.35Z"/></g><line class="cls-4" x1="90.13" y1="70.18" x2="125.76" y2="101.71"/><line class="cls-4" x1="94.16" y1="63.19" x2="130.68" y2="92.28"/><line class="cls-4" x1="99.67" y1="54.96" x2="135.61" y2="82.81"/><line class="cls-4" x1="105.12" y1="48.04" x2="141.33" y2="76.47"/><line class="cls-4" x1="110.76" y1="41.94" x2="149.69" y2="70.7"/><line class="cls-4" x1="118.03" y1="35.51" x2="158.22" y2="64.17"/><line class="cls-4" x1="126.76" y1="29.69" x2="167.31" y2="59.25"/><g class="cls-3"><line class="cls-4" x1="137.36" y1="25.1" x2="177.35" y2="56.03"/><line class="cls-4" x1="148.89" y1="22.8" x2="189.53" y2="54.96"/><line class="cls-4" x1="160.35" y1="22.8" x2="202.27" y2="56.32"/></g><line class="cls-4" x1="176.61" y1="28.39" x2="213.29" y2="61.19"/><g class="cls-3"><line class="cls-5" x1="121.35" y1="202.98" x2="237.46" y2="169.2"/><line class="cls-5" x1="121.35" y1="161.34" x2="237.46" y2="127.57"/></g><line class="cls-5" x1="121.35" y1="120.35" x2="203.78" y2="96.37"/><polygon class="cls-6" points="112.86 85.08 126.2 96.66 144.78 90.37 132.79 79.73 112.86 85.08"/><polyline class="cls-6" points="140.15 136.99 127.59 109.84 133.09 108.24 147.64 141.17"/><line class="cls-7" x1="137.61" y1="131.19" x2="146.11" y2="138.03"/><line class="cls-7" x1="134.29" y1="123.69" x2="143.34" y2="130.99"/><line class="cls-7" x1="130.69" y1="116.39" x2="139.74" y2="123.69"/><line class="cls-7" x1="128.71" y1="109.45" x2="136.44" y2="115.67"/><line class="cls-7" x1="118.03" y1="86.56" x2="125.76" y2="92.79"/><line class="cls-7" x1="128.23" y1="95.93" x2="125.28" y2="89.66"/><line class="cls-7" x1="119.35" y1="90.33" x2="115.73" y2="82.81"/><g class="cls-3"><line class="cls-8" x1="237.29" y1="169.89" x2="202.27" y2="137.5"/><line class="cls-8" x1="122.6" y1="204.28" x2="87.58" y2="171.89"/><line class="cls-8" x1="237.29" y1="128.75" x2="202.27" y2="96.37"/></g><line class="cls-5" x1="203.78" y1="96.37" x2="203.78" y2="88.2"/><g class="cls-3"><path class="cls-9" d="M184.1,120a4.21,4.21,0,0,0-1,.12,1.87,1.87,0,0,0-.68.29c-.4.26-.81.48-1.18.77a3.14,3.14,0,0,0-1.1,2.15,6.14,6.14,0,0,0,0,2.56,3,3,0,0,0,1.34,1.73c.32.23.66.45,1,.66a7.76,7.76,0,0,0,1.22.53,4.62,4.62,0,0,0,2.5-.06,6.85,6.85,0,0,0,1-.32,4.62,4.62,0,0,0,.84-.54,9.46,9.46,0,0,0,1.29-1.24,3.88,3.88,0,0,0,.85-1.4c.06-.21.14-.43.19-.65a2.91,2.91,0,0,0,0-.59,3,3,0,0,0-.37-1.25,8.25,8.25,0,0,0-.59-.94,3.43,3.43,0,0,0-.86-.92c-.27-.2-.61-.29-.62-.64v-.43c0-.14-.1-.56-.14-.83a2,2,0,0,0-.36-.81,1.48,1.48,0,0,0-.64-.52,1.61,1.61,0,0,0-1.55.31,3.1,3.1,0,0,0-.78,1.14,3.32,3.32,0,0,0-.24.59.9.9,0,0,1-.08.21s-.1.2-.06.16"/><path class="cls-9" d="M184.1,119.59c-3.43.23-6,4.36-3.79,7.43a5.8,5.8,0,0,0,8.13,1.06,5.31,5.31,0,0,0,.56-.49,4.49,4.49,0,0,0,1.71-4,5.91,5.91,0,0,0-1.33-2.46,5.34,5.34,0,0,1-1.19-2.24c-.86-3-4.07-1.33-4.42,1.09-.07.46.64.66.71.19.15-1.07,2.46-2.08,3-1.09.43.8,0,1.06.39,1.73s1.16,1,1.57,1.65c1,1.6.46,3.07-.74,4.36a4.87,4.87,0,0,1-6.51.81,4,4,0,0,1,1.93-7.3c.47,0,.47-.76,0-.73"/><path class="cls-9" d="M186.42,112.59c0,.12-.3.11-.42.16l-.2.11c-.16.08-.2.18-.29.31a2.5,2.5,0,0,1-.23.23,1.89,1.89,0,0,0-.34.75,2.42,2.42,0,0,0,0,.76,1.25,1.25,0,0,0,.74,1.07,2.57,2.57,0,0,0,1.79-.08,1.71,1.71,0,0,0,1.17-1,1.12,1.12,0,0,0-.29-1.18,2.88,2.88,0,0,0-.44-.48,3.12,3.12,0,0,0-.47-.34c-.31-.14-.86-.37-1.1,0"/><path class="cls-9" d="M186.16,112.33c-.13.11-.43.13-.58.24a2.14,2.14,0,0,0-.62.65,2.56,2.56,0,0,0-.43,1.74c.18,1.46,1.69,1.72,2.88,1.33s2.06-1.3,1.38-2.48c-.47-.81-1.83-2-2.75-1.16-.36.31.16.83.52.52s.91.26,1,.38c.41.35.94,1,.46,1.57a2.48,2.48,0,0,1-1.88.61c-1.24-.22-1.12-1.6-.42-2.3.28-.28.62-.34.91-.58s-.16-.82-.52-.52"/><path class="cls-9" d="M181.74,119.85h0l.84.11a19.64,19.64,0,0,1-2.31-3.21c-.4-.79-1.59-.09-1.2.7a22.82,22.82,0,0,0,2.53,3.49.69.69,0,0,0,.84.1h0c.71-.53,0-1.73-.7-1.2"/><path class="cls-9" d="M190.13,121.88c.42-.62.86-1.2,1.34-1.79.34-.43.58-.94.92-1.35a.69.69,0,0,0,0-1,.68.68,0,0,0-.84-.11h.17c-.88.09-.89,1.48,0,1.39a1.82,1.82,0,0,0,.52-.14l-.84-1.09c-.42.51-.71,1.09-1.13,1.61a19.67,19.67,0,0,0-1.34,1.81c-.51.74.69,1.43,1.19.7"/><path class="cls-9" d="M181.67,128.18c.06-.47.17-.19-.21-.19a1.27,1.27,0,0,0-.47.06,7.94,7.94,0,0,0-1.75.13c-.78.12-.58,1.37.18,1.36h.11a.69.69,0,0,0,0-1.38h-.11c.07.45.13.9.19,1.36.72-.12,3.22.17,3.39-1,.13-.87-1.21-1.25-1.33-.37"/><path class="cls-9" d="M185.65,128.47a8.54,8.54,0,0,0-2.56,2.69l1.27.17v-.1a1.36,1.36,0,0,1-.07.53.27.27,0,0,1,.07-.08c.52-.73-.68-1.42-1.2-.7a.87.87,0,0,0-.12.72c.09.61,1,.63,1.27.16a7.14,7.14,0,0,1,2-2.2c.75-.48,0-1.68-.69-1.19"/><path class="cls-9" d="M158.83,137.4a11.43,11.43,0,0,1,1.09,1c.18.2.73.66.79.85.28.85,1.61.49,1.34-.37a3.57,3.57,0,0,0-.87-1.13,12.66,12.66,0,0,0-1.37-1.37c-.66-.59-1.64.38-1,1"/><path class="cls-9" d="M153.44,111.75a.75.75,0,0,1-.33.07,1.63,1.63,0,0,0-.53.21,1.88,1.88,0,0,0-.86,1,3,3,0,0,0-.15,1.56,1.55,1.55,0,0,0,.93,1.2,2,2,0,0,0,1.33,0,4,4,0,0,0,.75-.35,2,2,0,0,0,.61-.46,3.87,3.87,0,0,0,.61-1.32,1.43,1.43,0,0,0,0-1,1,1,0,0,0-.26-.36,3.14,3.14,0,0,0-.39-.24,1.61,1.61,0,0,0-.7-.26h-.35c-.11,0-.2-.1-.31-.12a3.21,3.21,0,0,0-.62,0"/><path class="cls-9" d="M153.34,111.4a2.61,2.61,0,0,0-2.19,2.7,2.07,2.07,0,0,0,1.95,2.18,2,2,0,0,0,.83-.12,3.22,3.22,0,0,0,2.32-3c0-1.51-1.89-1.89-3.08-1.85a.37.37,0,0,0,0,.74c.84,0,2.32.11,2.33,1.26a2.41,2.41,0,0,1-1.35,2,1.81,1.81,0,0,1-1.85,0c-.52-.38-.45-1.36-.32-1.87.22-.83.81-1.07,1.56-1.28a.38.38,0,0,0,.22-.48.36.36,0,0,0-.42-.23"/><path class="cls-9" d="M154.85,120.31v-.06a1.29,1.29,0,0,0-.48,0,1.63,1.63,0,0,0-.75.18,3.81,3.81,0,0,0-1.72,1.43,6.68,6.68,0,0,0-.8,3.16,18.51,18.51,0,0,0,.25,4.27,12.29,12.29,0,0,0,.67,2.39c.15.36.25.75.43,1.11s.43.77.66,1.15a7.65,7.65,0,0,0,.58,1,3.6,3.6,0,0,0,.63.54,11.38,11.38,0,0,0,1.15.6,3.2,3.2,0,0,0,.85.36,5.3,5.3,0,0,0,1.1.25,3.19,3.19,0,0,0,2.11-.64,6,6,0,0,0,.8-.79,1.19,1.19,0,0,0,.28-.56,2.27,2.27,0,0,0,.14-.81c0-.13.15-.52,0-.54"/><path class="cls-9" d="M155.21,120.21v-.06a.37.37,0,0,0-.36-.27c-6.47-.16-4,10.75-2.23,14,1,1.87,3.35,3.55,5.65,3.11,1.63-.31,3.26-2,2.84-3.75a.37.37,0,0,0-.48-.22.36.36,0,0,0-.23.42c.1,1.7-1.23,2.57-4,2.63a5.14,5.14,0,0,1-3-2.27,10.64,10.64,0,0,1-1.34-3,15.59,15.59,0,0,1-.62-3.64V125a4.26,4.26,0,0,1,3-4.6c.1.46.8.26.71-.2"/><path class="cls-9" d="M154.88,119.71h-.06a.69.69,0,0,0-.48.85.75.75,0,0,0,.17.3c1.24,1.56,1.56,4.5,2.29,6.39a15.2,15.2,0,0,0,1.2,2.63c.64,1,2,2.41,2.16,3.63.11.87,1.49.88,1.39,0a7.32,7.32,0,0,0-1.55-3.19,20.77,20.77,0,0,1-2.14-4.2c-.78-2-1-4.48-2.36-6.22l-.3,1.16h.06c.87-.19.5-1.52-.37-1.34"/><path class="cls-9" d="M160.68,134.74a6.13,6.13,0,0,0,1.47.39c.6.14,1.13.42,1.73.54l-.48-.48v.06c.16.88,1.49.5,1.33-.37v-.06a.65.65,0,0,0-.48-.48c-.55-.11-1-.35-1.58-.5-.37-.11-1.14-.21-1.29-.29-.79-.43-1.49.77-.7,1.19"/><path class="cls-9" d="M155.79,123.71c.07.6.37.81.86,1.08s1.11.83,1.65.88c.71.06.78-.56,1-1s1-1,1.22-1.56c.36-.81-.83-1.51-1.2-.7a7.58,7.58,0,0,1-.86,1.1c-.17.22-.43.9-.59,1l.67-.18a7.85,7.85,0,0,1-.92-.57,2.26,2.26,0,0,1-.67-.39c.07.16.14.33.2.49v-.14c-.1-.87-1.48-.88-1.39,0"/><path class="cls-9" d="M174.05,163a8,8,0,0,0-.14-1.2,6.31,6.31,0,0,0-.26-1.06,7.59,7.59,0,0,0-.45-1.11c-.38-.79-1.12-1.27-1.91-.7a2,2,0,0,0-.8,1.88v2a12.44,12.44,0,0,1-.26,2.27,8.37,8.37,0,0,1-.32,1.19,10.36,10.36,0,0,0-.38,1.84c-.08.49-.24,1-.31,1.47a5.64,5.64,0,0,0,0,1.09,10.35,10.35,0,0,0-.09,1.12,8.58,8.58,0,0,0,.23,3.19,6.21,6.21,0,0,0,1.64,2.65,5.59,5.59,0,0,0,1,.59,4.91,4.91,0,0,0,1.27.16,4.2,4.2,0,0,0,1.06.11c.38,0,.57-.37.85-.6a1.85,1.85,0,0,0,.65-.79c.12-.25.25-.51.36-.77a5.41,5.41,0,0,0,.49-2.17v-1a10.69,10.69,0,0,0-.1-1.26,21.32,21.32,0,0,0-.45-2.25c-.07-.3-.19-.59-.26-.88a8.45,8.45,0,0,0-.21-1,5.82,5.82,0,0,1-.3-.79c-.06-.25-.13-.49-.21-.73a1.8,1.8,0,0,0-.11-.5c0-.16-.16-.45-.24-.68s-.25-.64-.33-.94v-.45c-.06-.14-.12-.27-.19-.4"/><path class="cls-9" d="M174.41,163c-.12-1.68-2.18-7.3-4.1-3.37-.54,1.11-.17,3.12-.31,4.26-.23,1.88-.91,3.69-1.13,5.58-.29,2.4-.51,5,.8,7.12,1.73,2.84,5.39,3.14,6.76-.06,1.63-3.78-.32-9.85-1.94-13.43-.19-.43-.83-.06-.63.37,1.37,3,4.93,14.68-.66,14.55s-3.6-8.57-2.94-11.66a26.72,26.72,0,0,1,.6-3.56c-.3-1.41.51-2.06,2.43-2a7.91,7.91,0,0,1,.39,2.16c0,.47.77.47.73,0"/><path class="cls-9" d="M171.43,152.43c-.37-.07-.77.5-.94.77a3.7,3.7,0,0,0-.41,1.06,1.3,1.3,0,0,0,.23,1.27,2.24,2.24,0,0,0,1.7.55,1.19,1.19,0,0,0,.72-.1,2.56,2.56,0,0,0,.6-.67,2.44,2.44,0,0,0,.08-1.44,2.86,2.86,0,0,0-.8-1.32c-.34-.36-.82-.23-1.29-.23"/><path class="cls-9" d="M171.43,152.07c-1.06.06-1.7,1.53-1.77,2.46-.1,1.4,1.16,1.9,2.35,1.92a1.86,1.86,0,0,0,1.86-1.86,1.58,1.58,0,0,0,0-.38,2.88,2.88,0,0,0-.75-1.69,1.84,1.84,0,0,0-1.76-.57c-.47,0-.48.75,0,.73a1.62,1.62,0,0,1,1.76,1.47c.13.82-.22,1.5-1.07,1.56s-1.75-.37-1.58-1.36c.08-.44.44-1.51,1-1.55a.37.37,0,1,0,0-.73"/><path class="cls-9" d="M175.32,166.33a2.68,2.68,0,0,1,1.68,0l-.51-.67a12.48,12.48,0,0,1,.14,2.73,15.51,15.51,0,0,1-.33,2.34l1.35.18v-.08c.07-.89-1.32-.89-1.38,0v.08c-.06.79,1.17.93,1.36.19a21.39,21.39,0,0,0,.37-2.51,13.1,13.1,0,0,0-.13-3,.72.72,0,0,0-.51-.66,3.9,3.9,0,0,0-2.75.17c-.79.42-.09,1.61.7,1.19"/><path class="cls-9" d="M170.26,165.59c-.46-.29-1.76-.88-1.94-1.36a7.14,7.14,0,0,1,.31-2.4c.25-1.38.64-2.71,1-4.06a.69.69,0,0,0-1.34-.36h0a39.28,39.28,0,0,0-1.38,6.26c-.15,1.72,1.36,2.3,2.66,3.11.76.48,1.45-.72.7-1.19"/><path class="cls-9" d="M173.1,178.69c.05,1,.29,1.91.36,2.89a23.31,23.31,0,0,0,.25,2.36c.14.87,1.48.5,1.34-.37a23.13,23.13,0,0,1-.22-2.34c-.06-.86-.3-1.68-.35-2.54s-1.43-.9-1.38,0"/><path class="cls-9" d="M170.86,178.45a7.55,7.55,0,0,1-.36,1.14c-.11.42-.2.81-.34,1.23-.32,1-.46,2.05-.75,3.05a.69.69,0,0,0,1.33.37.86.86,0,0,1,.07-.21c.26-.85-1.07-1.21-1.34-.37l-.06.21,1.33.37c.32-1.1.51-2.22.85-3.31a12.13,12.13,0,0,0,.66-2.5.7.7,0,0,0-1.39,0"/><path class="cls-9" d="M203.16,153.59a.46.46,0,0,0-.13-.3,4.09,4.09,0,0,0-.3-.33,1.76,1.76,0,0,0-1.06-.62,2.08,2.08,0,0,0-.61,0,1.15,1.15,0,0,0-.46.3,4,4,0,0,0-1,1.39c-.28.57-.64,1.12-.87,1.71a11.36,11.36,0,0,0-.44,1.15,8.49,8.49,0,0,0-.24,1.24,5.9,5.9,0,0,1-.15,1,5,5,0,0,0,0,1,3,3,0,0,0,.08.84,1.88,1.88,0,0,0,.4.7,2.65,2.65,0,0,0,1.69.83,6.1,6.1,0,0,1,.83.11,4.34,4.34,0,0,0,.87.12,7.91,7.91,0,0,0,1.09.13,2.4,2.4,0,0,0,.53-.12c.2-.1.36-.27.56-.37a3.42,3.42,0,0,0,.43-.21,1.72,1.72,0,0,0,.44-.41,1.81,1.81,0,0,0,.52-1.09,3,3,0,0,0,0-1.11c-.08-.4-.13-.84-.25-1.23s-.18-1-.31-1.47-.47-.86-.56-1.34a2,2,0,0,0-.24-.58c-.08-.18-.09-.37-.17-.55a2.44,2.44,0,0,0-.58-1.07"/><path class="cls-9" d="M203.48,153.4A2.31,2.31,0,0,0,201,152c-1.34.41-2.11,2.46-2.6,3.56-.8,1.81-1.88,5.54.3,6.84,1.87,1.12,5.56,1.27,6.71-1,.69-1.34.1-3.41-.31-4.73a10.93,10.93,0,0,0-1.64-3.69c-.3-.37-.81.15-.52.51a12.91,12.91,0,0,1,1.77,4.84c.41,2.18-.23,4.07-2.9,4a12,12,0,0,1-1.34-.19c-2.6-.43-2.43-2.47-2-4.54a11.29,11.29,0,0,1,1.12-2.82c.57-1.1,2.43-2.82,3.28-1,.2.43.83.06.63-.37"/><path class="cls-9" d="M205.7,160.59a6.24,6.24,0,0,1,1.94-.81l-.64-.19.07.08a.72.72,0,0,0,1,0,.7.7,0,0,0,0-1l-.07-.08a.74.74,0,0,0-.68-.18,7.32,7.32,0,0,0-2.27,1c-.73.51,0,1.71.7,1.19"/><path class="cls-9" d="M203.92,162.87c.36.37.76.37,1.22.53.62.2,1.2.56,1.83.77.85.28,1.22-1.06.37-1.34-.47-.15-.91-.38-1.37-.57-.25-.12-.88-.18-1.07-.37-.61-.65-1.59.33-1,1"/><path class="cls-9" d="M200.73,145.48a1.49,1.49,0,0,0-.63.31,3,3,0,0,0-.65.59,2.85,2.85,0,0,0-.43.6,1.58,1.58,0,0,0-.1.43,1.43,1.43,0,0,1-.06.5,1.81,1.81,0,0,0,.08.8,5.84,5.84,0,0,0,.45.76,1.49,1.49,0,0,0,.47.53,2.25,2.25,0,0,0,.75.27,2.68,2.68,0,0,0,1.43-.15,2,2,0,0,0,1-1.23,5.28,5.28,0,0,0,.3-1.66,2,2,0,0,0-.12-.6,3.07,3.07,0,0,0-.14-.52,1.68,1.68,0,0,0-.74-.63,1.19,1.19,0,0,0-.56-.25,2.43,2.43,0,0,0-.66,0,1.93,1.93,0,0,1-.34,0,.31.31,0,0,0-.31.13"/><path class="cls-9" d="M200.64,145.13a3,3,0,0,0-2.12,3.42,2.63,2.63,0,0,0,3.06,2.12,3,3,0,0,0,.43-.12c1.54-.54,1.9-2.89,1.46-4.25a2.3,2.3,0,0,0-3-1.27l-.31.16c-.37.29.15.81.52.52a2,2,0,0,1,.72-.1,1.57,1.57,0,0,1,1.42,1.15c.37,1.1-.17,2.92-1.39,3.17-2.55.51-2.9-3.43-.6-4.07a.36.36,0,0,0-.19-.7h0"/><path class="cls-9" d="M203.65,157.64v0a.71.71,0,0,0-.67-.51h-.09l.19,1.36a27.51,27.51,0,0,1,4.71-1.26.64.64,0,0,0,.48-.48h0c.18-.87-1.15-1.24-1.34-.37h0l.48-.48a25.58,25.58,0,0,0-4.71,1.26.69.69,0,0,0-.43.89.7.7,0,0,0,.61.47H203l-.66-.51h0a.7.7,0,0,0,1.34-.37"/><path class="cls-9" d="M204.57,155.43c.46-.22,1.51-.76,1.63-1.29.21-.86-1.13-1.23-1.33-.36a0,0,0,0,0,0,.05l.48-.49a14.53,14.53,0,0,0-1.46.9c-.81.38-.11,1.57.69,1.19"/><path class="cls-9" d="M206.35,158.07c1,0,2.53.86,2.86-.53.27-1.09.49-2.22.7-3.33.1-.5.45-1.37,0-1.82a4.88,4.88,0,0,0-2.35-.7c-.38,0-1.1-.22-1.45,0-.16.11-.14.2-.22.35a8.63,8.63,0,0,0-.51,1.87,18.63,18.63,0,0,0-.61,2.66c-.05.47.68.46.74,0a30.25,30.25,0,0,1,1-3.88c.14-.52.06-.41.58-.31s1.93.13,2.25.66c.22.35-.24,1.51-.33,1.94-.13.64-.3,1.27-.42,1.91-.19,1-.17.66-1.09.54a6.3,6.3,0,0,0-1.15-.1.37.37,0,0,0,0,.73"/><path class="cls-9" d="M205.87,157.59v0l.36-.27c-.4,0-.66-.39-1-.47s-.65.6-.19.71c-.21-.06,0,0,0,.09a2.82,2.82,0,0,0,.49.25,2,2,0,0,0,.69.16.36.36,0,0,0,.35-.27h0c.1-.46-.61-.66-.7-.2"/></g><path class="cls-10" d="M284.64,92.22a1.28,1.28,0,0,1,.13-.94c.22-.35.3-.23.31.46,0,1-.16,1.2-.44.48M284.46,95c-.53-.53-.49-.94.08-.94s1,.91.58,1.17c-.15.09-.44,0-.66-.23m-.2,2.23c-.56-.78-.57-.87-.08-.68.31.12.57.07.57-.11a.36.36,0,0,1,.37-.33c.28,0,.28.12,0,.44-.44.54-.1,1.14.79,1.36.56.14.53.18-.17.2a1.81,1.81,0,0,1-1.5-.88m.1,2.41c-.41-.52-.38-.55.22-.35s.65.22.05-.25-.53-.49.59-.43a4.21,4.21,0,0,1,1.22.15A7.22,7.22,0,0,1,285,100.2a2.33,2.33,0,0,1-.6-.57m-3,2.58a.29.29,0,0,1,.3-.3h0a3.11,3.11,0,0,0,.85-.21c.29-.11.53,0,.53.14s-.38.41-.84.5-.85,0-.85-.13m-5.1,10.38c-.42-.79-.44-1-.1-1s1.11,1.32.77,1.53c-.17.11-.47-.11-.67-.48m-6,55.16a.68.68,0,0,1,.65,0c.27.11.19.19-.21.2s-.56-.06-.44-.18m13.44-53.25c0-.32-.33-.4-1.1-.28-1.06.17-1.07.18-.25.42,1.25.37,1.35.36,1.35-.14m4.4,5c0-.08-.24-.15-.53-.15s-.43.16-.31.35.84.16.84-.2m4.08,3.78c1.25-.66,1.25-.77,0-.58-.55.08-.93.27-.84.43s-.17.34-.59.43-.59.16-.16.19a4,4,0,0,0,1.61-.47M277,125.49a.57.57,0,0,0-.65-.48.55.55,0,0,0-.35.2c-.46.73-.36.93.38.74.37-.1.67-.31.67-.46m1.27.62c-.16-.49-.7-.43-.87.08-.06.19.14.34.45.34s.5-.19.42-.42m1.95.42c.11-.18.05-.34-.13-.34a.77.77,0,0,0-.55.34c-.11.19-.06.35.13.35a.77.77,0,0,0,.55-.35m13.36,1.37a.35.35,0,0,0-.36-.34h0c-.19,0-.26.15-.14.34.26.44.5.44.5,0m-13.7,2c-.27-.44-.51-.44-.51,0a.36.36,0,0,0,.36.34h0c.2,0,.26-.15.15-.34m-1.67.66c.34-.57-.44-1.23-.91-.76a.66.66,0,0,0,0,.93.7.7,0,0,0,.4.2.84.84,0,0,0,.53-.37M274.35,135c.41-.27.36-.33-.26-.33-.42,0-.76.14-.76.33,0,.43.36.43,1,0m21,.34a.34.34,0,1,0-.67-.12.24.24,0,0,0,0,.12.34.34,0,1,0,.67.11.2.2,0,0,0,0-.11m-19.62,4.11c-.42-.28-.39-.34.17-.34s.58-.07.18-.33a.72.72,0,0,0-.9,0c-.25.21-.48.22-.6,0s0-.41.31-.52a.81.81,0,0,0,.5-.64c0-.29-.09-.31-.26-.07-.37.55-1.38.85-1.61.47a.39.39,0,0,0-.52-.14.19.19,0,0,1-.32-.16c0-.16-.34-.32-.76-.27s-.75-.09-.71-.52a.5.5,0,0,0-.4-.58h-.11c-2.5,0-.8,2.27,2.21,2.93,2.55.55,3.52.6,2.82.14m-1.71,4.3a.63.63,0,0,0-.65,0c-.11.11.09.19.45.18s.47-.1.2-.21M306.08,145c0-.6-1.05-1.5-1.3-1.12a2.07,2.07,0,0,1-.81.56c-1.06.39-.63.92.76.92.74,0,1.35-.16,1.35-.36m-33.88,1.76c.61-.39.14-1.17-.54-.9a1.89,1.89,0,0,1-1.36-.35,2.13,2.13,0,0,0-1.68-.33c-1,.26-.83.51,1,1.25s1.95.72,2.55.33m-.46,1.68c-.27-.44-.51-.44-.51,0a.36.36,0,0,0,.36.34h0c.2,0,.26-.15.15-.34M270,153.21c.12-.19,0-.25-.31-.13-.59.22-.7.47-.21.47a.7.7,0,0,0,.52-.34m33.13,1.38c.33-.33-.33-.35-2.23-.06-.14,0-.25.2-.25.4,0,.44,2,.17,2.48-.34m-34.71,1.29c.29-.29.51-.3.84,0s.75.22,1.59-.19c.63-.31,1-.62.74-.69a1.15,1.15,0,0,0-.92.3c-.42.35-.58.35-.79,0s-.57-.35-1.72,0-1.34.48-1,.71c.63.4.77.39,1.24-.08m5.5.37c0-.2-.16-.26-.34-.15-.43.27-.43.52,0,.52a.36.36,0,0,0,.34-.37m-1.53.37c.12-.19-.13-.34-.57-.34-.63,0-.68.07-.27.34.63.41.59.41.84,0m26.4,1.36c-.27-.43-.51-.43-.51,0a.36.36,0,0,0,.36.35c.2,0,.26-.16.15-.35m-27.92.56c0-.08-.3-.21-.68-.31s-.59,0-.48.13,1.16.45,1.16.18m27.75.47c0-.19-.23-.34-.51-.34s-.51.15-.51.34.23.34.51.34.51-.15.51-.34m-14.38.69c.11-.2,0-.25-.32-.14-.59.23-.7.48-.21.48a.77.77,0,0,0,.53-.34m-4.91.68c0-.44-.57-.44-.84,0-.12.19,0,.34.31.34s.53-.15.53-.34m-3.38,0a.35.35,0,0,0-.38-.32h0c-.21,0-.28-.27-.17-.6.2-.56.18-.56-.26,0s-.55.53-.93.17c-.54-.51-3-.71-3-.24,0,.17-.23.31-.51.31-.7,0-.64.61.09.76,1.32.27,5.16.2,5.16-.09m-4.74,1.64c0-.17-.23-.07-.51.21a1.59,1.59,0,0,0-.49,1c0,.5,1-.66,1-1.17m8.46,5.56c.33,0,.36-.11.1-.22a.56.56,0,0,1-.19-.72c.16-.43.07-.49-.44-.28-1.09.43-1.65.46-2.09.11s-.43-.22-.43,0-.26.42-.59.5c-.51.12-.49.18.15.45a8.06,8.06,0,0,0,3.49.14m5.36,7.17a35.75,35.75,0,0,0-.11-4.63c-.22-2.1-.27-2.21-1-2a5.86,5.86,0,0,1-1.67.24c-.51,0-.93.07-.93.2s-.45.19-1,.15c-.73,0-1.06.11-1.21.58-.23.75-1.17.89-1.17.17,0-.5-.55-.54-1.27-.09-.28.18-.35.1-.22-.24s0-.47-.6-.36c-.43.09-.6.06-.37,0,.59-.28.54-.85,0-.62-.27.1-.72-.17-1-.6l-.54-.79v.76c0,.42-.16.76-.34.76a.33.33,0,0,1-.34-.29c0-.16-.38-.22-.85-.13s-.84,0-.84-.22.28-.38.63-.38a1.54,1.54,0,0,0,1-.49,2.85,2.85,0,0,1,1.39-.71c1.59-.36,1.43-.73-.31-.74a13.39,13.39,0,0,1-2.53-.24,2.54,2.54,0,0,0-1.65.17c-.55.3-.77.3-.87,0s-.26-.31-.43-.2c-.45.28-2.71-.21-2.51-.54.1-.16.67-.21,1.27-.11,1,.16,1.14.07,1.46-.81s.29-1-.28-1-.56,0-.27.4.22.51-.23.69-.64.06-.71-.14a.59.59,0,0,0-.52-.36c-.22,0-.55-.34-.73-.77a1.3,1.3,0,0,0-1.18-.8c-1.81-.08-1.87-.12-1.07-.68s.71-.6.25-.94a2.91,2.91,0,0,1-.74-1.51c-.27-1.38.4-1.5,1.53-.28s2.51,1.71,3.38,1.24,1-1,.37-1c-.18,0-.3-.2-.25-.43a.27.27,0,0,0-.34-.34c-.23.05-.42-.06-.42-.23s-.31-.23-.69-.13-.66,0-.61-.11a2.06,2.06,0,0,0-.34-1.08c-.55-1-.3-1.37,1.17-1.65.77-.14,1.08-.34.87-.55s-.58-.2-1,0c-.86.46-1.41.48-1.41,0,0-.19.29-.34.65-.34,1.13,0,1.13-.68,0-1.16l-1.08-.46,1-.24,1-.25-.93-.81a4.21,4.21,0,0,1-.93-1,6.22,6.22,0,0,1,2.7.4,6.34,6.34,0,0,0,.74.23,1,1,0,0,1,.48.29c.52.53,3.52.13,3.52-.47,0-.17-.34-.31-.76-.31a2.65,2.65,0,0,1-1.54-.84c-.48-.51-1-.75-1.33-.61s-.49.07-.3-.45.16-.57-.15-.25c-.48.48-1.11,0-1.47-1.16-.15-.48-.43-.66-.84-.55s-.67-.07-.79-.72c-.17-.88.18-1.2.58-.54a1.14,1.14,0,0,0,1.6-.16l.07-.09a.81.81,0,0,1,.67-.52c.26,0,.47-.15.47-.34s-.23-.34-.51-.34-.51-.15-.51-.34-.24-.34-.54-.34-.47-.11-.18-.46c.48-.59.08-1-.49-.54-.34.28-.43.2-.39-.32s.21-.61.41-.52.08,0-.24-.31-.6-.59-.6-.71c0-.47.79-.18,2.2.8a10.69,10.69,0,0,0,1.71,1c.52,0,.09-1-.83-2-.71-.73-.89-1.11-.59-1.24s0-.11-.5,0c-.71.15-.93.07-.93-.35s.3-.56.76-.58.57-.11.34-.2a.82.82,0,0,1-.42-.71c0-.3.1-.44.22-.32s.58,0,1-.29a4,4,0,0,1,2.19-.43c.9.06,1.45-.06,1.55-.34s0-.42-.13-.39a5.21,5.21,0,0,1-.79,0c-.45,0-.45-.09,0-.38s.42-.33-.08-.34-1.16-1.41-.79-2c.12-.2.91.1,1.91.73,1.42.9,1.76,1,2,.58.45-.71.39-1.21-.09-.73a1.47,1.47,0,0,1-.88.41c-.39,0-.4-.1-.07-.5s.3-.62-.17-1.1-.45-.64-.21-.72a.57.57,0,0,0,.39-.47c0-.18-.32-.23-.72-.1s-.65.1-.49-.15,0-.38-.3-.38-.52-.14-.52-.32c0-.68.68-.69,1.74,0s1.19.63,1.87.18a1.66,1.66,0,0,1,1.24-.3.63.63,0,0,0,.72-.18c.12-.2.06-.36-.14-.36s-.36-.27-.37-.6c0-.54-.06-.54-.51.06-.59.79-.65.45-.11-.6.39-.74.39-.74-.34-.09s-.73.66-1.14-.42c-.24-.65-.61-1-.92-1s-.56-.23-.63-.73c-.1-.72,0-.79.73-.6,1.2.3,2.05-.07,1.55-.68a1.12,1.12,0,0,1-.19-1c.17-.43.08-.46-.44-.18-1.06.58-1.4.43-1.17-.5.13-.55.07-.86-.18-.86s-.3-.16-.18-.35a1,1,0,0,0-.23-.94c-.25-.32.23,0,1.07.79a11.61,11.61,0,0,0,2.61,1.84c.61.25,1,.59.91.76s-.06.31.09.32l1.38.17c.66.09,1.1,0,1.1-.23s.19-.3.43-.21.36.25.39-.17.1-.07-.2-.23c-.59-.34-1.64.09-1.64-.38,0-.19-.27-.34-.6-.34a3,3,0,0,1-1.31-.5c-.39-.28-.8-.4-.92-.29s-.21,0-.21-.35v-.83c0-.57,2.29-.24,3.63.53l1.44.25v-.36c0-.63-.21-1-.68-1.1-.69-.18-.95-.78-.33-.78.21,0,.19-.24-.05-.63-.41-.66-2-.63-1.89,0,0,.19-.34.47-.86.62s-.93.13-.93-.09-.17-.21-.47,0-.55.28-.7,0,.13-.5.56-.68c3-1.24,3.65-1.57,3.82-2s.09-.42-.27-.12-.56.29-.68.17a5.19,5.19,0,0,0-2-.16c-1.71.06-2.13-.17-.71-.39,1.12-.17,1.8-.93,1.64-1.82-.12-.7-.07-.75.49-.4.35.22.58.48.51.59s.42.22,1.06.27,1.1,0,1-.19a1.88,1.88,0,0,1,.29-1.18c.39-.76.39-.87,0-.71s-.48-.06-.48-.53-.21-.72-.46-.72-.54-.29-.63-.64c-.16-.59-.09-.58,1.11.08.71.39,1.23.79,1.17.89s.43.22,1.07.27c1.08.08,1.13,0,.65-.46a1.89,1.89,0,0,1-.54-.77c0-.13-.45-.44-1-.69s-.92-.61-.8-.82a.63.63,0,0,0-.25-.74,4,4,0,0,1-.86-1.46c-.36-1-.35-1.07.26-.69.35.22.58.56.51.75s.31.37.84.41,1-.09,1-.41.2-.41.59-.27.44.08-.13-.53c-.85-.92-.87-2.3,0-2.23a.83.83,0,0,0,.78-.6c.12-.36.34-.57.5-.47a.37.37,0,0,0,.49-.14c.1-.18-.11-.42-.49-.55a1,1,0,0,1-.68-.77c0-.44.09-.47.41-.15.55.56.94.52.94-.1,0-.28.17-.52.37-.52a3.33,3.33,0,0,0,1.26-.7c.49-.39,1-.56,1-.37.16.48-1.23,1.83-1.63,1.58-.18-.11-.23,0-.12.33s0,.53-.17.53-.38.31-.38.69c0,.69,0,.69,1.44,0a14.06,14.06,0,0,0,2-1.22c.4-.36.62-.39.79-.11s0,.46-.46.57a1.46,1.46,0,0,0-.91.84c-.11.36-.33.57-.48.48-.32-.2-.73.64-.88,1.82a2.13,2.13,0,0,1-.72,1.25c-.9.67-.39.9.71.33a4.12,4.12,0,0,1,1.4-.5,3.94,3.94,0,0,0,1.48-.89c1-.83,1-.85,1-.19a1,1,0,0,1-.67.9c-.37.12-.64.39-.6.61s-.14.4-.42.41c-.51,0-1,1.21-.45,1.21a6.07,6.07,0,0,0,1.32-.46c.54-.29,1.06-.44,1.15-.34s0,.18-.3.18-.37.07-.08.26c.65.42,0,1.19-1.08,1.19-.86,0-.91.08-.73,1.15s.1,1.16-.58,1.16a1.85,1.85,0,0,1-1.11-.37c-.26-.26-.42-.15-.56.38-.18.71-.11.74,1.23.53a11.87,11.87,0,0,0,2.67-.85c1.08-.54,1.21-.55.93-.07-.53.91-1.6,2.08-1.91,2.08-.57,0-2.19,1.8-1.89,2.1.47.47,3.21-.62,4.47-1.79.8-.73,1.23-.93,1.49-.67s.23.36-.07.36-.33.17-.21.36-.16.72-.63,1.16c-.65.61-.75.89-.45,1.2s.24.37.06.32c-.76-.21-1.86.46-1.86,1.12a.92.92,0,0,1-.68.88c-.37.09-.68.31-.68.47s-.25.19-.56.07-.48-.09-.31.19c.45.73,1.79,0,4.09-2.17.4-.38,1-.92,1.35-1.2.58-.47.62-.46.41.08-.12.33-.07.6.11.6s.06.31-.25.68c-.84,1-1,2.4-.19,2.41.53,0,.53,0-.08.41-.37.22-.71.33-.75.24s-.32.2-.61.62a1.9,1.9,0,0,1-1.36.77c-1.07,0-1.06.47,0,1a2.1,2.1,0,0,0,1.7.06c.51-.2.84-.2.84,0s.38-.06.83-.52a2.8,2.8,0,0,1,1.32-.84c.26,0,.56-.31.66-.68.22-.87.64-.87,1.17,0,.37.58.34.68-.17.69s-.51,0-.09.32.4.35-.11.55a.6.6,0,0,0-.43.69,1,1,0,0,1-.32,1c-.33.33-.37.58-.14.73.46.28-.23,1.19-.9,1.19a.41.41,0,0,0-.46.36c0,.24.55.28,1.6.13.89-.13,1.49-.11,1.35,0a5.51,5.51,0,0,1-2.28.65,6.81,6.81,0,0,0-1,.2,5.57,5.57,0,0,1-1,0c-.65,0-.69,0-.19.17,1.08.31,1.52.92,1,1.41a1.76,1.76,0,0,1-1,.42c-.44,0-.48.1-.19.45s.28.56.16.68,0,.31.34.43.47.35.37.52c-.53.86,4.23-.46,4.93-1.37a6.25,6.25,0,0,1,2.21-1.33c.07.07-.07.5-.3,1a1.08,1.08,0,0,1-1.09.73c-.64-.11-.64-.1,0,.42s.59.53.12.54a1,1,0,0,0-.86,1.12,1,1,0,0,0,.08.29c.11.17-.12.31-.5.31a1,1,0,0,0-.9.86,2.52,2.52,0,0,1-1.22,1.31c-.62.33-.9.69-.77,1s.26.51.34.51a25.87,25.87,0,0,0,5.67-3c.66-.74,1.89-1,1.89-.38,0,.19-.34.34-.76.35s-.63.08-.3.3c.51.32.24,1.74-.33,1.74-.19,0-.24.16-.13.34a.21.21,0,0,1-.17.35c-.17,0-.29.14-.18.31s-.15.37-.57.43-.77.34-.77.62-.38.56-.93.63-.93.31-.93.55a1.73,1.73,0,0,1-.76,1c-.66.46-.68.54-.15.55.33,0,.52.16.42.33-.29.48,1.23,0,2.23-.7a4.45,4.45,0,0,1,1.12-.64,5.72,5.72,0,0,0,1.36-.87c1.11-.86,1.72-.72,1.33.31a.5.5,0,0,1-.61.36h0c-.23-.09-.42.07-.42.36a.56.56,0,0,0,.54.55c.32,0,.37.1.13.2a.52.52,0,0,0-.2.69c.16.45.08.47-.53.14s-1.07.06-.37.5c.54.34-.89,1.56-1.53,1.31-.28-.11-.52,0-.52.19a.75.75,0,0,0,.49.58.53.53,0,0,1,.3.67c-.1.26-.32.4-.49.29s-.3,0-.3.35c0,1,.84.56,2.55-1.21s3.39-2.89,3.69-2.4c.1.16-.05.49-.32.72a2.17,2.17,0,0,0,0,2.76c.45.5.47.71.09,1.31-.25.4-.64.65-.87.56s-.42,0-.42.16-.23.23-.51.12c-.62-.24-.67.26-.09.88.35.37.3.38-.29.08-.82-.43-1.14-.23-1.14.72,0,.55-.16.63-.93.45s-.78-.12-.47.09c.59.4.19,1.11-.48.85-.35-.13-.44,0-.3.33s.33.47,1.44,0a10.93,10.93,0,0,0,2.66-1.9l1.43-1.44-.2,1.5a3.07,3.07,0,0,1-.49,1.61c-.54.22-1.31,2.06-.95,2.28a.72.72,0,0,1,.34.49c0,.42-1.82.7-2.19.34s-.86-.39-.86.14c0,.25.55.62,1.22.83a3.09,3.09,0,0,0,3.43-.86c.39-.51.43-.49.43.13a2.7,2.7,0,0,1-.69,1.43c-.38.41-.57.75-.43.76s-.22.25-.82.55-1,.68-.91.85c.28.47-.83.76-1.32.35-.33-.27-.59-.19-1,.32a1.84,1.84,0,0,1-1.33.64c-1.18-.1-1.48,0-.75.34a2.61,2.61,0,0,0,1.76-.17c.91-.38,1.14-.37,1.48,0a1,1,0,0,0,.95.33c.3-.09,1-.24,1.48-.33a15.22,15.22,0,0,0,1.65-.39c.67-.22.66-.15-.19,1-.54.71-1.11,1.14-1.39,1-.62-.24-1.68.59-1.68,1.34,0,.33-.1.56-.22.51s-.54.27-.92.72-.83.7-1,.59c-.57-.36-.85.57-.29,1s0,.38-1.64.35c-1.86,0-2.17.06-2.17.58s-.17.54-.51.41a1.6,1.6,0,0,0-1.1.06,3.26,3.26,0,0,1-1.38.3c-1.23-.12-.87.56.51,1l1.27.37-1.61-.16c-.93-.09-1.61,0-1.61.18s.35.35.76.36c.73,0,.73,0,.09.3s-.9.07-1.54-.53c-.88-.83-1.55-1.1-1.17-.48.12.19.05.35-.15.35-.82,0-.27.61.74.82s1,.28.49.59a1.51,1.51,0,0,1-1.18.1,1.87,1.87,0,0,0-.8-.21c-.13,0-.43-.41-.68-1-.55-1.27-.88-1.29-1-.08-.07.63-.27.9-.61.82-1.88-.44-2-.36-2,1.11a53.59,53.59,0,0,0,.87,7.13c.19.9.14.94-1.11.94H285Z"/><path class="cls-11" d="M20.13,162.34c-.29-.51-1-.59-.72-1.17.22-.43.7-.23,1.09-.23,1,0,1.66-.87,2.65-1,.36,0,0-.55,0-.84s-.17-.84.33-1a.69.69,0,0,1,.88.43l0,.14c.1,1.25,1.84,1.57,1.62,3,1.87.25.65,2.29,1.74,3,.19.14.21.51.6.39s.91-.34,1.2.13-.29.91-.5,1.33c.25.44.66.23,1,.32.6.17,1.62.08.7,1.19-.32.38.21.49.4.68s.57.53.33.92-.65.28-.93.05c-.51-.42-.89-.12-1.29.13s-.25.61-.09,1c0,0,0,.08,0,.11-.69,1.44.19,2.27,1.1,3.19a3.54,3.54,0,0,0,1.14,1c.26.1.6.18.57.53s-.44.37-.74.42-.57-.07-.78.22c.11.43.45.2.68.24a3.71,3.71,0,0,1,.56.17c-.32.73.56,1.47.27,1.94-.53.84-.41,1.78-.79,2.61a1.05,1.05,0,0,0,.34,1.44,1,1,0,0,0,.4.15c.85.2.76.65.58,1.24a3.74,3.74,0,0,0,1,3.32,1.41,1.41,0,0,1,.56,1.58,2.62,2.62,0,0,0,.56,2.68c.52.56.15,1.27-.3,1.83.34.39.78-.3,1.16.25a1.54,1.54,0,0,0-1,1.93,1.61,1.61,0,0,0,.4.63c.2.26.4.59.77.38.82-.46,1.13.16,1.67.58.76.59.44.74-.17,1a2.81,2.81,0,0,0-1.63,3.64,2.91,2.91,0,0,0,.58.93c.35.42.58.92.26,1.3-.62.73-.25,1.53-.34,2.29a.9.9,0,0,0,.74,1.05l.14,0a3.14,3.14,0,0,1,1.57.82c.9.73.92.93-.14,1.45a1.78,1.78,0,0,0-1.2,2.14c.09.63,1.14.27.71.91-.21.32-.84.34-1.1.65-.48.57-.08,1,.41,1.39s1.85.69.49,1.71a.49.49,0,0,0,0,.44c.39.48.71,1,.39,1.61a.4.4,0,0,0,.1.33c1.4,1.06,1.43,2.73,1.79,4.21.26,1.05,1.21,2.06.33,3.24,0,0,0,.25.11.32,1.71,1.59.74,3.45.53,5.23a.88.88,0,0,1-.53.61c-.21.13-.48.33-.33.56.56.9.31,1.33-.7,1.5-.26,0-.29.32-.22.59.74,3-.24,5.53-1.81,8-.44.7-.61,1.57-1.66,1.62-.09,0-.22.24-.23.37-.2,1.79-1.45,2.64-2.94,3.2-.88.33-1.71.44-2.19,1.55a2.25,2.25,0,0,1-2.3,1.18,4.07,4.07,0,0,0-2.52.4c-.74.37-1.67.76-2.3-.3-.2-.33-.44-.32-.68-.08-.6.6-1.09.24-1.56-.17s-.64-.62-1.23-.43c-.35.12-.78-.18-1-.53-.32-.52-.41-1.33-1.35-.9-.05,0-.26-.14-.24-.19.34-1.6-1.49-2-1.82-3.2-.16-.6-.9-.88-1.45-1.2s-1.32-.53-1-1.48a.47.47,0,0,0-.18-.41c-1-.33-1-1.15-1.21-2-.09-.51,0-1.42-1-1.6-.45-.08-.34-.81-.39-1.28a25.45,25.45,0,0,0-.61-4.16c-.39-1.38-1.47-3-.32-4.72.5-.74-.24-1.61-.49-2.39a2.5,2.5,0,0,1,.08-1.88c.5-1.2.94-2.4.07-3.64-.19-.25-.33-.72-.09-.89.72-.49.46-1.25.69-1.85a4.19,4.19,0,0,0,0-3c0-.08-.07-.18,0-.23.64-1.22.39-2.61.8-3.86.14-.43.37-.75.07-1.2a2.43,2.43,0,0,1,.14-2.71,6.08,6.08,0,0,0,.91-2.31c0-.16.14-.37.07-.47-1.41-2-.18-3.81.42-5.64a1.55,1.55,0,0,0-.14-1.54c-.43-.62.52-4.61,1-5.21a1.86,1.86,0,0,0,.2-2c-.46-1.42-.45-1.44,1-1.68.94-.16.92-.88.79-1.5a2.17,2.17,0,0,0-.66-1.43c-.24-.19-.53-.43-.37-.8s.46-.23.74-.24c1.1,0,.8-.87.62-1.33a6.87,6.87,0,0,0-.53-1.17c-.43-.73-.63-1.19.35-1.83a2,2,0,0,0,1-2.29,1.44,1.44,0,0,1,.77-1.89l.09,0c.55-.17.91-2.67.57-3.22a3.17,3.17,0,0,1,.08-3.72c.55-.74.87-1.58,1.5-2.31a4.76,4.76,0,0,0,.55-2.91c0-.72,0-1.16.82-1.35"/><path class="cls-11" d="M78.11,244.09a5.09,5.09,0,0,1,2.57-3.31c1.13-.74,2.11-2.08,3.93-1.48.91.3,1.76-.54,2.3-1.4.3-.48.46-1,1.34-.58s1.76-.35,2.14-1.41a4.64,4.64,0,0,1,1.13-1.64c.45-.44.79,0,1,.38.37.52.76.78,1.39.32.45-.33.87-.07,1.32.16.7.35,1.45.72,2.22.11a.62.62,0,0,1,.86.1,2.5,2.5,0,0,0,2.9.35c.93-.42,1.35.26,1.76.82.63.87,1.22,1.56,2.43.87.48-.27.82.07.61.59-.47,1.15.48,1.58,1.06,2.16s1.15.37,1.73-.08A1.37,1.37,0,0,1,110,240a4,4,0,0,0,2.45-.17c1.13-.5,1.71.5,2.42,1.07.11.09.14.28.2.43.47,1.11,1.18,1.21,2.3.81,2.07-.74,3.17.1,3.55,1.56.24.92,1.13,1.6.88,2.72-.07.32.55.64.93.86a1.4,1.4,0,0,1,.69,1.87l0,.06c-.22.56-.4,1.13-.6,1.7a2,2,0,0,0,.53,2.19c.17.17.41.33.46.53.23,1,.58,1.56,1.63.71.21-.17.55,0,.73.24a.55.55,0,0,1-.07.77c-.83.62-.41,1.65-.86,2.4a.45.45,0,0,0,.07.43c1.13.8.22,1.24-.32,1.71s-1.37.91-1,1.93a.76.76,0,0,1-.19.41c-.77.69-.83.88-.45,2.08.12.39.15.82-.26.92a1.71,1.71,0,0,0-1.29,1.4.73.73,0,0,1-.26.39c-1.44.81-1.46.8-2.58,2.74-.22.37-.5.31-.83.26a2.69,2.69,0,0,0-2.94,1.62,1.71,1.71,0,0,1-.76.72c-.67.28-1.35.4-1.23,1.4,0,.31-.43.23-.7.22a5.81,5.81,0,0,1-3.67-1.13c-.79-.62-1.08-.27-1.42.36s-.64,1.49-1.65.68a.53.53,0,0,0-.73.17.47.47,0,0,0-.06.15c-.29.81-.91.9-1.62.84a10.13,10.13,0,0,0-4.32.74c-.55.19-1.09-.12-1.64-.16a8.44,8.44,0,0,0-2.13,0c-.55.1-1.15.23-1.09-.73,0-.49-.45-.59-.86-.65a6.65,6.65,0,0,0-2.94-.21,1.32,1.32,0,0,1-1.42-.42.49.49,0,0,0-.39-.23c-1.93.28-3.48-1.11-5.36-1.22-.83-.05-1.49.37-2.29.29s-1.2,0-1.3-.94S79,270,78,270.32c-.3.09-.74.21-.83-.18-.28-1.18-1.21-1.09-2-1.13s-1.18-.15-1.25-.95a.63.63,0,0,0-.28-.49c-2.18-.61-1.67-2.56-2-4-.21-1-.08-2.08-1-2.8a.57.57,0,0,1-.19-.77l.06-.08c.68-.75.09-.93-.46-1.16a2.48,2.48,0,0,1-1.06-.75.46.46,0,0,1-.11-.55.39.39,0,0,1,.52-.17.89.89,0,0,0,1.26,0,.88.88,0,0,0,.23-.46,1.83,1.83,0,0,0-.58-2.05c-.41-.37-.89-.67-1.32-1a.82.82,0,0,1-.3-1.06c.25-.42.69-.28,1-.07.64.54,1.17,0,1.64-.2,1.36-.44,3-.65,3.29-2.52.13-.71-.47-1.52.33-2.14.18-.15.24-.48.5-.64.52-.31.46-.66.08-1.07s-1.19-.69-.84-1.4,1.13-.22,1.69-.19c.28-.69-.47-1.72.42-2s.79.93,1.45,1.68"/><path class="cls-11" d="M262.89,250.32c-.15-.35-.68-.47-.45-.69.41-.39.7.19,1.12.4,0-.61.3-.77.81-.62s.31-.17.33-.38-.1-.53.18-.65.36.26.54.34a2.24,2.24,0,0,0,1.19.27c.51-.09,1.17,0,1.45-.69.14-.34.41-.21.55,0s.39.37.65,0,.4-.4.83-.07a3.12,3.12,0,0,0,1.44.35,2.29,2.29,0,0,1,1.68.82,1.32,1.32,0,0,0,.87.54,11.55,11.55,0,0,1,2.18.84,3,3,0,0,1,1.06.88c.95,1,.51,2.47,1.34,3.47v.13c.13.55.95.47,1,.95s-.25.88.09,1.31a.36.36,0,0,1,0,.48,2.09,2.09,0,0,0,.19,2.95l.06.05a1.21,1.21,0,0,1,.19,1.7,1.24,1.24,0,0,1-.5.37.72.72,0,0,0-.41.69c.05.54.06,1.08.09,1.62a3.44,3.44,0,0,1-2.11,3.38.27.27,0,0,0-.23.13c-.42.79-1.24.39-1.78.64a13.43,13.43,0,0,0-1.62.55.69.69,0,0,1-.84,0,1.13,1.13,0,0,0-1.22-.1,3.5,3.5,0,0,1-2.8.18,1.7,1.7,0,0,0-1,0,7,7,0,0,1-4.1-.43c-1-.42-2.1-.08-2.86-.92-.6.64-1-.55-1.69-.15-.33.19-.47-.48-.64-.79a6.77,6.77,0,0,0-1.17-1.9c-.08-.08-.18-.27-.14-.35a1.49,1.49,0,0,0,0-1.42c-.29-.45-.28-1-.56-1.39a.47.47,0,0,1,0-.67l0,0c.27-.3-.05-.75,0-1.14s-.09-.51.26-.65,0-.28,0-.43c-.07-.39-.29-.78.34-1a.85.85,0,0,0,.44-1.1,1.36,1.36,0,0,1,.44-1.69.85.85,0,0,0,.33-.4,3.27,3.27,0,0,1,2-2.37.78.78,0,0,0,.37-.59,1.51,1.51,0,0,1,.88-1.17c.25-.1.53-.33.47-.59-.14-.63.24-.64.71-.61"/><path class="cls-11" d="M190.89,265.32c-.15-.35-.68-.47-.45-.69.41-.39.7.19,1.12.4,0-.61.3-.77.81-.62s.31-.17.33-.38-.1-.53.18-.65.36.26.54.34a2.24,2.24,0,0,0,1.19.27c.51-.09,1.17,0,1.45-.69.14-.34.41-.21.55,0s.39.37.65,0,.4-.4.83-.07a3.12,3.12,0,0,0,1.44.35,2.29,2.29,0,0,1,1.68.82,1.32,1.32,0,0,0,.87.54,11.55,11.55,0,0,1,2.18.84,3,3,0,0,1,1.06.88c1,1,.51,2.47,1.34,3.47v.13c.13.55,1,.47,1,.95s-.25.88.09,1.31a.36.36,0,0,1,0,.48,2.09,2.09,0,0,0,.19,2.95l.06.05a1.21,1.21,0,0,1,.19,1.7,1.24,1.24,0,0,1-.5.37.72.72,0,0,0-.41.69c0,.54.06,1.08.09,1.62a3.44,3.44,0,0,1-2.11,3.38.27.27,0,0,0-.23.13c-.42.79-1.24.39-1.78.64a13.43,13.43,0,0,0-1.62.55.69.69,0,0,1-.84,0,1.13,1.13,0,0,0-1.22-.1,3.5,3.5,0,0,1-2.8.18,1.7,1.7,0,0,0-1,0,7,7,0,0,1-4.1-.43c-1-.42-2.1-.08-2.86-.92-.6.64-1-.55-1.69-.15-.33.19-.47-.48-.64-.79a6.77,6.77,0,0,0-1.17-1.9c-.08-.08-.18-.27-.14-.35a1.49,1.49,0,0,0,0-1.42c-.29-.45-.28-1-.56-1.39a.47.47,0,0,1,0-.67l0,0c.27-.3-.05-.75,0-1.14s-.09-.51.26-.65,0-.28,0-.43c-.07-.39-.29-.78.34-1a.85.85,0,0,0,.44-1.1,1.36,1.36,0,0,1,.44-1.69.85.85,0,0,0,.33-.4,3.27,3.27,0,0,1,2-2.37.78.78,0,0,0,.37-.59,1.51,1.51,0,0,1,.88-1.17c.25-.1.53-.33.47-.59-.14-.63.24-.64.71-.61"/><path class="cls-11" d="M159.89,253.32c-.15-.35-.68-.47-.45-.69.41-.39.7.19,1.12.4,0-.61.3-.77.81-.62s.31-.17.33-.38-.1-.53.18-.65.36.26.54.34a2.24,2.24,0,0,0,1.19.27c.51-.09,1.17,0,1.45-.69.14-.34.41-.21.55,0s.39.37.65,0,.4-.4.83-.07a3.12,3.12,0,0,0,1.44.35,2.29,2.29,0,0,1,1.68.82,1.32,1.32,0,0,0,.87.54,11.55,11.55,0,0,1,2.18.84,3,3,0,0,1,1.06.88c1,1,.51,2.47,1.34,3.47v.13c.13.55,1,.47,1,.95s-.25.88.09,1.31a.36.36,0,0,1,0,.48,2.09,2.09,0,0,0,.19,2.95l.06.05a1.21,1.21,0,0,1,.19,1.7,1.24,1.24,0,0,1-.5.37.72.72,0,0,0-.41.69c0,.54.06,1.08.09,1.62a3.44,3.44,0,0,1-2.11,3.38.27.27,0,0,0-.23.13c-.42.79-1.24.39-1.78.64a13.43,13.43,0,0,0-1.62.55.69.69,0,0,1-.84,0,1.13,1.13,0,0,0-1.22-.1,3.5,3.5,0,0,1-2.8.18,1.7,1.7,0,0,0-1,0,7,7,0,0,1-4.1-.43c-1-.42-2.1-.08-2.86-.92-.6.64-1-.55-1.69-.15-.33.19-.47-.48-.64-.79a6.77,6.77,0,0,0-1.17-1.9c-.08-.08-.18-.27-.14-.35a1.49,1.49,0,0,0,0-1.42c-.29-.45-.28-1-.56-1.39a.47.47,0,0,1,0-.67l0,0c.27-.3-.05-.75,0-1.14s-.09-.51.26-.65,0-.28,0-.43c-.07-.39-.29-.78.34-1a.85.85,0,0,0,.44-1.1,1.36,1.36,0,0,1,.44-1.69.85.85,0,0,0,.33-.4,3.27,3.27,0,0,1,2-2.37.78.78,0,0,0,.37-.59,1.51,1.51,0,0,1,.88-1.17c.25-.1.53-.33.47-.59-.14-.63.24-.64.71-.61"/><path class="cls-12" d="M179.55,245a2.59,2.59,0,1,1-2.61-2.57A2.58,2.58,0,0,1,179.55,245Z"/><path class="cls-12" d="M199.08,245a2.59,2.59,0,1,1-5.18,0,2.59,2.59,0,0,1,5.18,0Z"/><path class="cls-12" d="M216.16,242.42a2.63,2.63,0,0,1,2.45,2.63,2.59,2.59,0,0,1-5.18-.15c0-.05,0-.1,0-.14A2.62,2.62,0,0,1,216.16,242.42Z"/><path class="cls-12" d="M169.78,254.83a2.58,2.58,0,1,1-2.5-2.66A2.59,2.59,0,0,1,169.78,254.83Z"/><path class="cls-12" d="M177,257.35a2.71,2.71,0,0,1-2.59-2.7,2.6,2.6,0,0,1,5.19,0A2.72,2.72,0,0,1,177,257.35Z"/><path class="cls-12" d="M186.75,252.19a2.58,2.58,0,0,1,2.56,2.49,2.68,2.68,0,0,1-2.61,2.67,2.73,2.73,0,0,1-2.56-2.54,2.57,2.57,0,0,1,2.52-2.62Z"/><path class="cls-12" d="M196.44,257.35a2.71,2.71,0,0,1-2.54-2.76,2.59,2.59,0,1,1,5.18.28h0A2.75,2.75,0,0,1,196.44,257.35Z"/><path class="cls-12" d="M206.32,257.35a2.72,2.72,0,0,1-2.65-2.45,2.58,2.58,0,1,1,5.16-.31A2.7,2.7,0,0,1,206.32,257.35Z"/><path class="cls-12" d="M215.94,252.19a2.59,2.59,0,0,1,2.67,2.51v.06a2.6,2.6,0,0,1-5.19.32,1.71,1.71,0,0,1,0-.32A2.59,2.59,0,0,1,215.94,252.19Z"/><path class="cls-12" d="M225.73,257.35a2.69,2.69,0,0,1-2.53-2.76,2.58,2.58,0,1,1,5.16.28A2.7,2.7,0,0,1,225.73,257.35Z"/><path class="cls-12" d="M225.84,261.94a2.53,2.53,0,1,1-2.64,2.41h0A2.59,2.59,0,0,1,225.84,261.94Z"/><path class="cls-12" d="M213.42,264.39a2.6,2.6,0,1,1,0,.22A1.62,1.62,0,0,1,213.42,264.39Z"/><path class="cls-12" d="M206.24,261.94a2.61,2.61,0,0,1,2.6,2.46,2.59,2.59,0,0,1-5.17.32,1.71,1.71,0,0,1,0-.32A2.6,2.6,0,0,1,206.24,261.94Z"/><path class="cls-12" d="M196.4,267.11a2.72,2.72,0,0,1-2.5-2.78,2.6,2.6,0,0,1,5.18.35A2.74,2.74,0,0,1,196.4,267.11Z"/><path class="cls-12" d="M167.12,261.94a2.59,2.59,0,0,1,2.66,2.52v.05a2.58,2.58,0,1,1-5.16,0h0A2.59,2.59,0,0,1,167.12,261.94Z"/><path class="cls-12" d="M179.55,264.52a2.59,2.59,0,0,1-5.18,0h0a2.59,2.59,0,0,1,5.18,0Z"/><path class="cls-12" d="M189.31,264.59a2.59,2.59,0,0,1-5.18.19c0-.1,0-.2,0-.3a2.59,2.59,0,0,1,5.17.11Z"/><path class="cls-12" d="M233.21,288.9a2.41,2.41,0,0,1-.91,1.91l-3.74-1.06-.34-.1h0a2.27,2.27,0,0,1-.13-.82,2.71,2.71,0,0,1,2.71-2.56h.06A2.6,2.6,0,0,1,233.21,288.9Z"/><path class="cls-12" d="M222.86,287.83l-4-1.38a2.13,2.13,0,0,1,1.66-.89A2.69,2.69,0,0,1,222.86,287.83Z"/><path class="cls-12" d="M162.31,233a2.59,2.59,0,1,1-.32-5.17h.32a2.65,2.65,0,0,1,2.58,2.5A2.71,2.71,0,0,1,162.31,233Z"/><path class="cls-12" d="M169.39,272.94,166,272a2.21,2.21,0,0,1,1-.28A2.54,2.54,0,0,1,169.39,272.94Z"/><path class="cls-12" d="M179.56,274.18a2.51,2.51,0,0,1-.5,1.51l-4.69-1.33h0a2.6,2.6,0,0,1,5.19-.14Z"/><path class="cls-12" d="M189.31,274.25a2.59,2.59,0,0,1-5.17.32,1.71,1.71,0,0,1,0-.32,2.59,2.59,0,0,1,5.17,0Z"/><path class="cls-12" d="M193.9,274.15a2.59,2.59,0,1,1,2.49,2.68A2.59,2.59,0,0,1,193.9,274.15Z"/><path class="cls-12" d="M206.34,276.84a2.73,2.73,0,0,1-2.67-2.41,2.59,2.59,0,0,1,5.16-.36A2.69,2.69,0,0,1,206.34,276.84Z"/><path class="cls-12" d="M216,271.7a2.58,2.58,0,0,1,2.61,2.55v.07A2.6,2.6,0,1,1,216,271.7Z"/><path class="cls-12" d="M225.82,271.7a2.58,2.58,0,0,1,2.54,2.62v.06a2.58,2.58,0,1,1-2.62-2.68Z"/><path class="cls-12" d="M208.83,284a.24.24,0,0,1,0,.12L204,282.78a2.57,2.57,0,0,1,4.82,1.24Z"/><path class="cls-12" d="M218.61,284a2.69,2.69,0,0,1-1.74,2.41l-2.8-.79a2.5,2.5,0,0,1-.64-1.62,2.59,2.59,0,0,1,5.18,0Z"/><path class="cls-12" d="M225.74,286.59a2.68,2.68,0,0,1-2.54-2.54,2.58,2.58,0,1,1,5.16.07h0A2.69,2.69,0,0,1,225.74,286.59Z"/><path class="cls-12" d="M184.14,244.88a2.59,2.59,0,0,1,5.17.25,2.59,2.59,0,1,1-5.17-.25Z"/><path class="cls-12" d="M167.12,247.59a2.72,2.72,0,0,1-2.5-2.59,2.58,2.58,0,1,1,5.16.16h0A2.74,2.74,0,0,1,167.12,247.59Z"/><path class="cls-12" d="M206.32,242.42a2.65,2.65,0,0,1,2.52,2.74,2.59,2.59,0,0,1-5.17-.14A2.63,2.63,0,0,1,206.32,242.42Z"/><path class="cls-12" d="M225.78,247.59a2.71,2.71,0,0,1-2.58-2.51,2.58,2.58,0,0,1,5.16,0h0A2.72,2.72,0,0,1,225.78,247.59Z"/><path class="cls-12" d="M233.25,230.29a2.59,2.59,0,1,1-5.18.16h0a2.66,2.66,0,0,1,2.42-2.65A2.7,2.7,0,0,1,233.25,230.29Z"/><path class="cls-12" d="M220.91,227.79a2.64,2.64,0,0,1,2.57,2.49,2.59,2.59,0,1,1-2.69-2.49Z"/><path class="cls-12" d="M213.73,230.37a2.6,2.6,0,0,1-5.19,0,2.65,2.65,0,0,1,2.5-2.57A2.69,2.69,0,0,1,213.73,230.37Z"/><path class="cls-12" d="M204,230.45a2.59,2.59,0,1,1-2.52-2.66h.11A2.64,2.64,0,0,1,204,230.45Z"/><path class="cls-12" d="M194.2,230.37a2.6,2.6,0,0,1-5.19,0,2.65,2.65,0,0,1,2.5-2.58A2.7,2.7,0,0,1,194.2,230.37Z"/><path class="cls-12" d="M181.76,233a2.58,2.58,0,1,1,.18-5.16,2.65,2.65,0,0,1,2.5,2.57A2.71,2.71,0,0,1,181.76,233Z"/><path class="cls-12" d="M172.17,233a2.72,2.72,0,0,1-2.68-2.59,2.65,2.65,0,0,1,2.5-2.57,2.58,2.58,0,1,1,.18,5.16Z"/><path class="cls-12" d="M230.66,281.67a2.62,2.62,0,0,1-2.59-2.46,2.66,2.66,0,0,1,2.58-2.66,2.54,2.54,0,0,1,2.56,2.54v.11A2.53,2.53,0,0,1,230.66,281.67Z"/><path class="cls-12" d="M204,250a2.59,2.59,0,1,1-2.36-2.56A2.58,2.58,0,0,1,204,250Z"/><path class="cls-12" d="M194.2,249.89a2.6,2.6,0,0,1-5.19,0,2.72,2.72,0,0,1,2.53-2.56A2.67,2.67,0,0,1,194.2,249.89Z"/><path class="cls-12" d="M184.44,249.93a2.59,2.59,0,0,1-5.18-.12h0a2.59,2.59,0,1,1,5.18.12Z"/><path class="cls-12" d="M174.67,249.94a2.59,2.59,0,0,1-5.17-.09v0a2.59,2.59,0,0,1,5.17.14Z"/><path class="cls-12" d="M164.91,249.86a2.59,2.59,0,1,1-2.59-2.59A2.58,2.58,0,0,1,164.91,249.86Z"/><path class="cls-12" d="M233.25,240.18a2.59,2.59,0,0,1-5.18-.13h0a2.59,2.59,0,1,1,5.18.13Z"/><path class="cls-12" d="M220.88,237.53a2.68,2.68,0,0,1,2.61,2.66,2.59,2.59,0,0,1-5.17,0A2.66,2.66,0,0,1,220.88,237.53Z"/><path class="cls-12" d="M211.21,242.65a2.6,2.6,0,0,1-2.67-2.53v0a2.68,2.68,0,0,1,2.52-2.56,2.64,2.64,0,0,1,2.66,2.59A2.6,2.6,0,0,1,211.21,242.65Z"/><path class="cls-12" d="M201.44,237.59a2.64,2.64,0,0,1,2.51,2.73,2.59,2.59,0,0,1-5.17-.14A2.68,2.68,0,0,1,201.44,237.59Z"/><path class="cls-12" d="M191.61,242.66a2.61,2.61,0,1,1,2.58-2.78,1.71,1.71,0,0,1,0,.32A2.62,2.62,0,0,1,191.61,242.66Z"/><path class="cls-12" d="M184.43,240.2a2.59,2.59,0,1,1-2.37-2.53A2.6,2.6,0,0,1,184.43,240.2Z"/><path class="cls-12" d="M174.67,240.14a2.59,2.59,0,1,1-2.57-2.62,2.58,2.58,0,0,1,2.57,2.62Z"/><path class="cls-12" d="M164.91,240.14a2.59,2.59,0,1,1-2.56-2.62,2.58,2.58,0,0,1,2.56,2.62Z"/><path class="cls-12" d="M220.9,276.59a2.66,2.66,0,0,1,2.59,2.66,2.62,2.62,0,0,1-2.58,2.46,2.56,2.56,0,1,1,0-5.12Z"/><path class="cls-12" d="M211.08,276.59a2.56,2.56,0,0,1,.1,5.12h0a2.62,2.62,0,0,1-2.63-2.41A2.65,2.65,0,0,1,211.08,276.59Z"/><path class="cls-12" d="M201.32,276.59a2.67,2.67,0,0,1,2.65,2.6,2.61,2.61,0,0,1-2.53,2.51,2.53,2.53,0,0,1-2.62-2.42v-.15A2.56,2.56,0,0,1,201.32,276.59Z"/><path class="cls-12" d="M194.15,279.12a2.57,2.57,0,0,1-.14.82l-4.91-1.35a2.63,2.63,0,0,1,2.59-2A2.53,2.53,0,0,1,194.15,279.12Z"/><path class="cls-12" d="M213.72,249.93a2.59,2.59,0,0,1-5.17-.07v-.05a2.59,2.59,0,0,1,5.17.12Z"/><path class="cls-12" d="M221,247.29a2.65,2.65,0,0,1,2.52,2.73,2.59,2.59,0,0,1-5.17-.13A2.67,2.67,0,0,1,221,247.29Z"/><path class="cls-12" d="M228.09,249.59a2.58,2.58,0,1,1,2.33,2.81A2.58,2.58,0,0,1,228.09,249.59Z"/><path class="cls-12" d="M218.61,235.3a2.72,2.72,0,0,1-2.55,2.53,2.58,2.58,0,1,1,2.55-2.61Z"/><path class="cls-12" d="M208.83,235.2a2.58,2.58,0,1,1-2.72-2.53A2.67,2.67,0,0,1,208.83,235.2Z"/><path class="cls-12" d="M196.45,237.84a2.72,2.72,0,0,1-2.55-2.53,2.59,2.59,0,1,1,5.18.07A2.73,2.73,0,0,1,196.45,237.84Z"/><path class="cls-12" d="M186.67,232.67a2.58,2.58,0,1,1-2.53,2.73A2.68,2.68,0,0,1,186.67,232.67Z"/><path class="cls-12" d="M177,232.67a2.58,2.58,0,1,1-2.67,2.6A2.7,2.7,0,0,1,177,232.67Z"/><path class="cls-12" d="M169.78,235.18a2.58,2.58,0,1,1-2.74-2.5A2.66,2.66,0,0,1,169.78,235.18Z"/><path class="cls-12" d="M204,259.64a2.63,2.63,0,0,1-2.51,2.53,2.56,2.56,0,0,1-2.63-2.47v-.1a2.58,2.58,0,0,1,2.49-2.55A2.66,2.66,0,0,1,204,259.64Z"/><path class="cls-12" d="M213.69,259.59a2.57,2.57,0,0,1-2.47,2.6,2.6,2.6,0,0,1-2.67-2.51v-.08a2.68,2.68,0,0,1,2.58-2.54A2.61,2.61,0,0,1,213.69,259.59Z"/><path class="cls-12" d="M223.49,259.67a2.62,2.62,0,0,1-2.58,2.5,2.54,2.54,0,0,1-2.56-2.52v-.16a2.59,2.59,0,0,1,2.64-2.44A2.68,2.68,0,0,1,223.49,259.67Z"/><path class="cls-12" d="M230.59,257.05a2.58,2.58,0,0,1,2.62,2.47,2.55,2.55,0,0,1-2.4,2.65,2.62,2.62,0,0,1-2.74-2.5v0A2.67,2.67,0,0,1,230.59,257.05Z"/><path class="cls-12" d="M225.75,237.83a2.69,2.69,0,0,1-2.55-2.51,2.58,2.58,0,1,1,5.16.05A2.68,2.68,0,0,1,225.75,237.83Z"/><path class="cls-12" d="M191.67,262.17a2.61,2.61,0,0,1-2.65-2.44,2.65,2.65,0,0,1,2.61-2.68,2.59,2.59,0,0,1,2.53,2.55A2.55,2.55,0,0,1,191.67,262.17Z"/><path class="cls-12" d="M181.79,257.05a2.65,2.65,0,0,1,2.64,2.47,2.6,2.6,0,0,1-2.53,2.65h-.08a2.55,2.55,0,0,1-2.53-2.53A2.59,2.59,0,0,1,181.79,257.05Z"/><path class="cls-12" d="M174.63,259.59a2.56,2.56,0,0,1-2.45,2.61,2.62,2.62,0,0,1-2.69-2.55v0a2.67,2.67,0,0,1,2.57-2.54A2.58,2.58,0,0,1,174.63,259.59Z"/><path class="cls-12" d="M164.91,259.67a2.62,2.62,0,0,1-2.58,2.5,2.54,2.54,0,0,1-2.56-2.52v-.16a2.6,2.6,0,0,1,2.64-2.44A2.68,2.68,0,0,1,164.91,259.67Z"/><path class="cls-12" d="M191.59,271.91A2.62,2.62,0,0,1,189,269.4a2.68,2.68,0,0,1,2.7-2.6,2.61,2.61,0,0,1,2.45,2.63,2.52,2.52,0,0,1-2.56,2.48Z"/><path class="cls-12" d="M201.3,271.9a2.51,2.51,0,0,1-2.48-2.54v0a2.62,2.62,0,0,1,2.54-2.55,2.69,2.69,0,0,1,2.6,2.7A2.59,2.59,0,0,1,201.3,271.9Z"/><path class="cls-12" d="M213.69,269.41a2.53,2.53,0,0,1-2.56,2.5h0a2.61,2.61,0,0,1-2.59-2.49,2.68,2.68,0,0,1,2.67-2.62A2.61,2.61,0,0,1,213.69,269.41Z"/><path class="cls-12" d="M220.82,266.8a2.68,2.68,0,0,1,2.66,2.45,2.57,2.57,0,0,1-2.4,2.65,2.52,2.52,0,0,1-2.72-2.3,1.28,1.28,0,0,1,0-.19A2.6,2.6,0,0,1,220.82,266.8Z"/><path class="cls-12" d="M230.63,266.8a2.6,2.6,0,0,1,2.58,2.5,2.51,2.51,0,0,1-2.42,2.6h0a2.59,2.59,0,0,1-2.7-2.48v-.07A2.68,2.68,0,0,1,230.63,266.8Z"/><path class="cls-12" d="M181.85,266.79a2.71,2.71,0,0,1,2.59,2.53,2.59,2.59,0,0,1-2.6,2.58h-.07a2.51,2.51,0,0,1-2.47-2.55v0A2.61,2.61,0,0,1,181.85,266.79Z"/><path class="cls-12" d="M172,271.9a2.6,2.6,0,0,1-2.5-2.56,2.7,2.7,0,0,1,2.58-2.55,2.6,2.6,0,0,1,2.56,2.66v.05a2.51,2.51,0,0,1-2.61,2.4Z"/><path class="cls-12" d="M164.91,269.33a2.49,2.49,0,0,1-.61,1.62.31.31,0,0,1-.13.17,2.33,2.33,0,0,1-.28.26h0L160,270.26a1.8,1.8,0,0,1-.18-.75,2.72,2.72,0,0,1,.19-1.13,2.46,2.46,0,0,1,.25-.45,2.52,2.52,0,0,1,.41-.45,2.43,2.43,0,0,1,1.69-.69.34.34,0,0,1,.2,0,.31.31,0,0,1,.19,0,2.07,2.07,0,0,1,.59.16,2.51,2.51,0,0,1,.81.56,1.63,1.63,0,0,1,.37.49A2.33,2.33,0,0,1,164.91,269.33Z"/><path class="cls-12" d="M248.19,245a2.59,2.59,0,1,1-2.61-2.57A2.58,2.58,0,0,1,248.19,245Z"/><path class="cls-12" d="M267.72,245a2.59,2.59,0,0,1-5.18,0h0a2.59,2.59,0,0,1,5.18,0Z"/><path class="cls-12" d="M284.8,242.42a2.63,2.63,0,0,1,2.45,2.63,2.59,2.59,0,0,1-5.18-.15c0-.05,0-.1,0-.14A2.62,2.62,0,0,1,284.8,242.42Z"/><path class="cls-12" d="M238.42,254.83a2.59,2.59,0,1,1-5.18.12,2.53,2.53,0,0,1,0-.28,2.59,2.59,0,0,1,5.17.16Z"/><path class="cls-12" d="M245.6,257.35a2.71,2.71,0,0,1-2.59-2.7,2.59,2.59,0,0,1,5.18,0A2.7,2.7,0,0,1,245.6,257.35Z"/><path class="cls-12" d="M255.39,252.19a2.58,2.58,0,0,1,2.56,2.49,2.68,2.68,0,0,1-2.61,2.67,2.73,2.73,0,0,1-2.56-2.54,2.57,2.57,0,0,1,2.52-2.62Z"/><path class="cls-12" d="M265.08,257.35a2.71,2.71,0,0,1-2.54-2.74,2.59,2.59,0,0,1,5.18.28h0A2.74,2.74,0,0,1,265.08,257.35Z"/><path class="cls-12" d="M275,257.35a2.72,2.72,0,0,1-2.65-2.45,2.58,2.58,0,1,1,5.16-.31A2.7,2.7,0,0,1,275,257.35Z"/><path class="cls-12" d="M284.11,252.26l-1.95,1.83A2.53,2.53,0,0,1,284.11,252.26Z"/><path class="cls-12" d="M265,267.11a2.72,2.72,0,0,1-2.5-2.78,2.6,2.6,0,0,1,5.18.35A2.74,2.74,0,0,1,265,267.11Z"/><path class="cls-12" d="M235.76,261.94a2.59,2.59,0,0,1,2.66,2.52v.05a2.59,2.59,0,0,1-5.17.32,1.71,1.71,0,0,1,0-.32A2.6,2.6,0,0,1,235.76,261.94Z"/><path class="cls-12" d="M248.19,264.52a2.59,2.59,0,0,1-5.18,0h0a2.59,2.59,0,0,1,5.18,0Z"/><path class="cls-12" d="M258,264.59a2.59,2.59,0,0,1-5.18.19c0-.1,0-.2,0-.3a2.59,2.59,0,0,1,5.17.11Z"/><path class="cls-12" d="M233.55,288.91a2.58,2.58,0,0,1-2.51,2.54h-.2a2.35,2.35,0,0,0,1.49-.6l-3.74-1.06a2.66,2.66,0,0,1-.16-.92,2.6,2.6,0,0,1,2.44-2.54h.07A2.71,2.71,0,0,1,233.55,288.91Z"/><path class="cls-12" d="M243.27,288.93a2.53,2.53,0,0,1-2.54,2.49,2.6,2.6,0,0,1-2.6-2.58v0a2.73,2.73,0,0,1,2.56-2.54A2.63,2.63,0,0,1,243.27,288.93Z"/><path class="cls-12" d="M231,233a2.59,2.59,0,1,1-.32-5.17H231a2.65,2.65,0,0,1,2.57,2.5A2.7,2.7,0,0,1,231,233Z"/><path class="cls-12" d="M238.42,274.18a2.58,2.58,0,1,1-2.66-2.51,2.58,2.58,0,0,1,2.66,2.51Z"/><path class="cls-12" d="M248.2,274.18a2.6,2.6,0,1,1-2.52-2.39A2.6,2.6,0,0,1,248.2,274.18Z"/><path class="cls-12" d="M258,274.25a2.59,2.59,0,0,1-5.17.32,1.71,1.71,0,0,1,0-.32,2.59,2.59,0,0,1,5.17,0Z"/><path class="cls-12" d="M235.88,281.46a2.56,2.56,0,0,1,2.54,2.6v.08a2.58,2.58,0,1,1-5.16-.08h0a2.56,2.56,0,0,1,2.54-2.6Z"/><path class="cls-12" d="M245.64,281.46a2.58,2.58,0,0,1,2.55,2.49,2.59,2.59,0,1,1-5.18.11,2.57,2.57,0,0,1,2.56-2.6Z"/><path class="cls-12" d="M238,292.44l-3.35-.95A2.54,2.54,0,0,1,238,292.44Z"/><path class="cls-12" d="M252.78,244.88a2.58,2.58,0,1,1,0,.2A1.34,1.34,0,0,1,252.78,244.88Z"/><path class="cls-12" d="M235.76,247.59a2.72,2.72,0,0,1-2.5-2.59,2.58,2.58,0,1,1,5.16.16h0A2.74,2.74,0,0,1,235.76,247.59Z"/><path class="cls-12" d="M275,242.42a2.67,2.67,0,0,1,2.52,2.74,2.59,2.59,0,0,1-5.17-.14A2.63,2.63,0,0,1,275,242.42Z"/><path class="cls-12" d="M294.55,242.43,291.84,245a2.64,2.64,0,0,1,2.57-2.58A.22.22,0,0,1,294.55,242.43Z"/><path class="cls-12" d="M301.5,231.59a2.64,2.64,0,0,1-2,1.33,2.7,2.7,0,0,1-2.76-2.49.81.81,0,0,1,0-.22.22.22,0,0,1,0-.16.43.43,0,0,0,0,.16h0l4.36,1.25Z"/><path class="cls-12" d="M292.12,230.28a2.59,2.59,0,1,1-5.16.44,2.17,2.17,0,0,1,0-.26,3.68,3.68,0,0,1,.05-.58,2.82,2.82,0,0,1,1.74-1.95h0l2.74.81a2.35,2.35,0,0,1,.59,1.31h0A.46.46,0,0,1,292.12,230.28Z"/><path class="cls-12" d="M282.36,230.37a2.59,2.59,0,0,1-5.18,0h0a2.59,2.59,0,0,1,5.18,0Z"/><path class="cls-12" d="M272.6,230.45a2.59,2.59,0,1,1-2.52-2.66h.11A2.64,2.64,0,0,1,272.6,230.45Z"/><path class="cls-12" d="M262.84,230.37a2.6,2.6,0,0,1-5.19,0,2.66,2.66,0,0,1,2.49-2.58A2.69,2.69,0,0,1,262.84,230.37Z"/><path class="cls-12" d="M250.4,233a2.58,2.58,0,1,1,.18-5.16,2.65,2.65,0,0,1,2.5,2.57A2.71,2.71,0,0,1,250.4,233Z"/><path class="cls-12" d="M240.8,233a2.71,2.71,0,0,1-2.67-2.59,2.65,2.65,0,0,1,2.5-2.57,2.58,2.58,0,0,1,.17,5.16Z"/><path class="cls-12" d="M272.6,250a2.59,2.59,0,1,1-2.36-2.56A2.58,2.58,0,0,1,272.6,250Z"/><path class="cls-12" d="M262.84,249.89a2.6,2.6,0,0,1-5.19,0,2.72,2.72,0,0,1,2.53-2.56A2.67,2.67,0,0,1,262.84,249.89Z"/><path class="cls-12" d="M253.08,249.93a2.59,2.59,0,0,1-5.18-.12h0a2.59,2.59,0,1,1,5.18.12Z"/><path class="cls-12" d="M243.31,249.94a2.59,2.59,0,0,1-5.17-.09v0a2.59,2.59,0,0,1,5.17.14Z"/><path class="cls-12" d="M233.55,249.86a2.59,2.59,0,1,1-2.59-2.59A2.58,2.58,0,0,1,233.55,249.86Z"/><path class="cls-12" d="M299.71,237.59l-3,2.8a1.82,1.82,0,0,1,0-.33,2.69,2.69,0,0,1,2.58-2.52A1.21,1.21,0,0,1,299.71,237.59Z"/><path class="cls-12" d="M289.52,237.53a2.69,2.69,0,0,1,2.61,2.66,2.59,2.59,0,0,1-5.17,0A2.66,2.66,0,0,1,289.52,237.53Z"/><path class="cls-12" d="M279.84,242.65a2.6,2.6,0,0,1-2.66-2.54h0a2.68,2.68,0,0,1,2.52-2.51,2.64,2.64,0,0,1,2.66,2.59A2.6,2.6,0,0,1,279.84,242.65Z"/><path class="cls-12" d="M270.08,237.59a2.66,2.66,0,0,1,2.51,2.73,2.59,2.59,0,0,1-5.17-.14A2.68,2.68,0,0,1,270.08,237.59Z"/><path class="cls-12" d="M260.24,242.66a2.61,2.61,0,1,1,2.59-2.78,1.71,1.71,0,0,1,0,.32A2.61,2.61,0,0,1,260.24,242.66Z"/><path class="cls-12" d="M253.07,240.2a2.59,2.59,0,1,1-2.37-2.53A2.6,2.6,0,0,1,253.07,240.2Z"/><path class="cls-12" d="M243.31,240.14a2.59,2.59,0,1,1-2.57-2.62,2.58,2.58,0,0,1,2.57,2.62Z"/><path class="cls-12" d="M233.55,240.14a2.59,2.59,0,1,1-2.56-2.62,2.58,2.58,0,0,1,2.56,2.62Z"/><path class="cls-12" d="M253.08,279.19a2.63,2.63,0,0,1-2.57,2.48,2.53,2.53,0,0,1-2.57-2.49v-.13a2.55,2.55,0,0,1,2.53-2.5A2.66,2.66,0,0,1,253.08,279.19Z"/><path class="cls-12" d="M243.27,279.16a2.53,2.53,0,0,1-2.51,2.51,2.61,2.61,0,0,1-2.63-2.57v0a2.64,2.64,0,0,1,2.72-2.52A2.55,2.55,0,0,1,243.27,279.16Z"/><path class="cls-12" d="M231,281.66a2.51,2.51,0,0,1-2.61-2.41v-.16a2.56,2.56,0,0,1,2.5-2.54,2.66,2.66,0,0,1,2.64,2.6A2.61,2.61,0,0,1,231,281.66Z"/><path class="cls-12" d="M282.36,249.93a2.59,2.59,0,0,1-5.17-.07v-.05a2.59,2.59,0,0,1,5.17.12Z"/><path class="cls-12" d="M289.38,247.3,287,249.59A2.64,2.64,0,0,1,289.38,247.3Z"/><path class="cls-12" d="M287.25,235.3a2.72,2.72,0,0,1-2.55,2.53,2.58,2.58,0,1,1,2.55-2.61Z"/><path class="cls-12" d="M277.47,235.2a2.58,2.58,0,1,1-2.72-2.53A2.67,2.67,0,0,1,277.47,235.2Z"/><path class="cls-12" d="M265.09,237.84a2.72,2.72,0,0,1-2.55-2.53,2.59,2.59,0,1,1,5.18.07A2.73,2.73,0,0,1,265.09,237.84Z"/><path class="cls-12" d="M255.3,232.67a2.58,2.58,0,1,1-2.52,2.73A2.67,2.67,0,0,1,255.3,232.67Z"/><path class="cls-12" d="M245.68,232.67a2.58,2.58,0,1,1-2.67,2.6A2.7,2.7,0,0,1,245.68,232.67Z"/><path class="cls-12" d="M238.42,235.18a2.58,2.58,0,1,1-2.74-2.5A2.66,2.66,0,0,1,238.42,235.18Z"/><path class="cls-12" d="M272.6,259.64a2.63,2.63,0,0,1-2.51,2.53,2.56,2.56,0,0,1-2.63-2.47v-.1a2.58,2.58,0,0,1,2.49-2.55A2.66,2.66,0,0,1,272.6,259.64Z"/><path class="cls-12" d="M278.8,257.26l-1.31,1.24A2.68,2.68,0,0,1,278.8,257.26Z"/><path class="cls-12" d="M294.39,237.83a2.69,2.69,0,0,1-2.55-2.51,2.58,2.58,0,1,1,5.16.05A2.68,2.68,0,0,1,294.39,237.83Z"/><path class="cls-12" d="M260.3,262.17a2.61,2.61,0,0,1-2.64-2.44,2.65,2.65,0,0,1,2.61-2.68,2.59,2.59,0,0,1,2.53,2.54A2.55,2.55,0,0,1,260.3,262.17Z"/><path class="cls-12" d="M250.43,257.05a2.65,2.65,0,0,1,2.64,2.47,2.6,2.6,0,0,1-2.53,2.65h-.08a2.55,2.55,0,0,1-2.53-2.53A2.59,2.59,0,0,1,250.43,257.05Z"/><path class="cls-12" d="M243.27,259.59a2.56,2.56,0,0,1-2.45,2.61,2.62,2.62,0,0,1-2.69-2.53v-.05a2.67,2.67,0,0,1,2.57-2.54A2.58,2.58,0,0,1,243.27,259.59Z"/><path class="cls-12" d="M233.55,259.67a2.62,2.62,0,0,1-2.58,2.5,2.54,2.54,0,0,1-2.56-2.52v-.16a2.59,2.59,0,0,1,2.64-2.44A2.68,2.68,0,0,1,233.55,259.67Z"/><path class="cls-12" d="M260.23,271.91a2.62,2.62,0,0,1-2.58-2.51,2.68,2.68,0,0,1,2.7-2.6,2.61,2.61,0,0,1,2.45,2.63,2.52,2.52,0,0,1-2.56,2.48Z"/><path class="cls-12" d="M250.49,266.79a2.7,2.7,0,0,1,2.58,2.53,2.57,2.57,0,0,1-2.56,2.58h-.1a2.52,2.52,0,0,1-2.48-2.56h0A2.63,2.63,0,0,1,250.49,266.79Z"/><path class="cls-12" d="M240.63,271.9a2.6,2.6,0,0,1-2.5-2.56,2.7,2.7,0,0,1,2.57-2.55,2.61,2.61,0,0,1,2.57,2.65v.06a2.51,2.51,0,0,1-2.61,2.4Z"/><path class="cls-12" d="M233.54,269.33a2.56,2.56,0,0,1-2.48,2.57,2.51,2.51,0,0,1-2.65-2.37v0a2.61,2.61,0,0,1,2.5-2.72H231A2.68,2.68,0,0,1,233.54,269.33Z"/><path class="cls-12" d="M211.08,217.37a2.58,2.58,0,0,1,2.6,2.44,2.53,2.53,0,0,1-2.34,2.7h-.15a2.62,2.62,0,0,1-2.65-2.4A2.74,2.74,0,0,1,211.08,217.37Z"/><path class="cls-12" d="M167.12,193a2.59,2.59,0,0,1,2.66,2.54v0a2.58,2.58,0,1,1-2.66-2.58Z"/><path class="cls-12" d="M179.41,196.34a2.67,2.67,0,0,1-2.54,1.87,2.76,2.76,0,0,1-2.5-2.62,2.53,2.53,0,0,1,.1-.67Z"/><path class="cls-12" d="M164.91,229.82a2.62,2.62,0,0,1-2.59,2.46,2.53,2.53,0,0,1-2.55-2.51v-.15a2.61,2.61,0,0,1,2.55-2.5A2.74,2.74,0,0,1,164.91,229.82Z"/><path class="cls-12" d="M172.16,227.13a2.58,2.58,0,0,1,2.47,2.7v0a2.52,2.52,0,0,1-2.63,2.4,2.6,2.6,0,0,1-2.51-2.54A2.69,2.69,0,0,1,172.16,227.13Z"/><path class="cls-12" d="M181.79,232.28a2.53,2.53,0,0,1-2.49-2.57v-.12a2.59,2.59,0,0,1,2.61-2.44,2.73,2.73,0,0,1,2.53,2.75A2.63,2.63,0,0,1,181.79,232.28Z"/><path class="cls-12" d="M191.69,227.13a2.57,2.57,0,0,1,2.47,2.67.28.28,0,0,0,0,.09,2.51,2.51,0,0,1-2.62,2.39h0a2.6,2.6,0,0,1-2.5-2.54A2.69,2.69,0,0,1,191.69,227.13Z"/><path class="cls-12" d="M204,229.78a2.61,2.61,0,0,1-2.56,2.5,2.52,2.52,0,0,1-2.59-2.45v-.16a2.58,2.58,0,0,1,2.51-2.54A2.73,2.73,0,0,1,204,229.78Z"/><path class="cls-12" d="M213.68,229.64a2.52,2.52,0,0,1-2.4,2.64h-.16a2.62,2.62,0,0,1-2.58-2.48,2.74,2.74,0,0,1,2.61-2.68A2.58,2.58,0,0,1,213.68,229.64Z"/><path class="cls-12" d="M223.49,229.78a2.61,2.61,0,0,1-2.55,2.5,2.52,2.52,0,0,1-2.59-2.45v-.16a2.58,2.58,0,0,1,2.51-2.54A2.71,2.71,0,0,1,223.49,229.78Z"/><path class="cls-12" d="M230.75,227.13a2.55,2.55,0,0,1,2.46,2.64s0,.08,0,.12a2.51,2.51,0,0,1-2.62,2.39h0a2.6,2.6,0,0,1-2.5-2.55A2.69,2.69,0,0,1,230.75,227.13Z"/><path class="cls-12" d="M164.91,220a2.6,2.6,0,0,1-2.54,2.51,2.51,2.51,0,0,1-2.6-2.42v-.17a2.62,2.62,0,0,1,2.51-2.56A2.71,2.71,0,0,1,164.91,220Z"/><path class="cls-12" d="M233.21,220a2.52,2.52,0,0,1-2.5,2.52,2.59,2.59,0,0,1-2.64-2.54v0a2.72,2.72,0,0,1,2.71-2.57A2.63,2.63,0,0,1,233.21,220Z"/><path class="cls-12" d="M174.63,220a2.52,2.52,0,0,1-2.54,2.48,2.6,2.6,0,0,1-2.6-2.58v0a2.73,2.73,0,0,1,2.57-2.53,2.62,2.62,0,0,1,2.57,2.67Z"/><path class="cls-12" d="M181.81,217.37a2.73,2.73,0,0,1,2.63,2.65,2.61,2.61,0,0,1-2.55,2.5,2.52,2.52,0,0,1-2.59-2.42A2.62,2.62,0,0,1,181.81,217.37Z"/><path class="cls-12" d="M191.67,217.37a2.63,2.63,0,0,1,2.48,2.76,2.53,2.53,0,0,1-2.62,2.39A2.61,2.61,0,0,1,189,220,2.71,2.71,0,0,1,191.67,217.37Z"/><path class="cls-12" d="M201.32,222.52a2.52,2.52,0,0,1-2.5-2.52,2.62,2.62,0,0,1,2.62-2.63,2.71,2.71,0,0,1,2.52,2.75A2.61,2.61,0,0,1,201.32,222.52Z"/><path class="cls-12" d="M220.89,217.37a2.72,2.72,0,0,1,2.6,2.68,2.6,2.6,0,0,1-2.57,2.47,2.53,2.53,0,0,1-2.57-2.45A2.63,2.63,0,0,1,220.89,217.37Z"/><path class="cls-12" d="M169.78,205.28a2.58,2.58,0,1,1-2.66-2.51A2.58,2.58,0,0,1,169.78,205.28Z"/><path class="cls-12" d="M179.56,205.29a2.6,2.6,0,1,1-2.51-2.39A2.6,2.6,0,0,1,179.56,205.29Z"/><path class="cls-12" d="M189.31,205.36a2.59,2.59,0,0,1-5.17.32,1.71,1.71,0,0,1,0-.32,2.59,2.59,0,0,1,5.17,0Z"/><path class="cls-12" d="M193.9,205.26a2.59,2.59,0,1,1,2.49,2.68,2.59,2.59,0,0,1-2.49-2.68Z"/><path class="cls-12" d="M228.36,225a2.59,2.59,0,1,1-2.37-2.53A2.6,2.6,0,0,1,228.36,225Z"/><path class="cls-12" d="M218.61,224.85a2.59,2.59,0,1,1-2.59-2.59A2.58,2.58,0,0,1,218.61,224.85Z"/><path class="cls-12" d="M206.18,222.32a2.57,2.57,0,0,1,2.66,2.48v.08a2.59,2.59,0,1,1-2.74-2.56Z"/><path class="cls-12" d="M199.08,224.9a2.59,2.59,0,1,1-2.55-2.63A2.58,2.58,0,0,1,199.08,224.9Z"/><path class="cls-12" d="M189.31,224.85a2.59,2.59,0,0,1-5.17.32,1.71,1.71,0,0,1,0-.32,2.59,2.59,0,0,1,5.17,0Z"/><path class="cls-12" d="M208.83,205.18a2.67,2.67,0,0,1-2.49,2.76,2.71,2.71,0,0,1-2.67-2.41,2.51,2.51,0,0,1,.73-1.95l4.37,1.26h0A2,2,0,0,1,208.83,205.18Z"/><path class="cls-12" d="M217.56,207.37a2.45,2.45,0,0,1-1.53.57,2.67,2.67,0,0,1-2.42-1.71Z"/><path class="cls-12" d="M167.24,212.59a2.56,2.56,0,0,1,2.54,2.6v.08a2.58,2.58,0,0,1-5.16-.08h0a2.56,2.56,0,0,1,2.54-2.6Z"/><path class="cls-12" d="M177,212.59a2.58,2.58,0,0,1,2.55,2.5,2.68,2.68,0,0,1-2.62,2.64,2.72,2.72,0,0,1-2.56-2.53,2.59,2.59,0,0,1,2.57-2.61Z"/><path class="cls-12" d="M186.79,212.59a2.65,2.65,0,1,1-2.65,2.9v-.31a2.59,2.59,0,0,1,2.59-2.59Z"/><path class="cls-12" d="M193.9,215.16a2.59,2.59,0,0,1,5.18-.1h0a2.59,2.59,0,1,1-5.18.1Z"/><path class="cls-12" d="M206.18,212.59a2.58,2.58,0,0,1,2.66,2.5v.07a2.59,2.59,0,0,1-5.17.32,1.71,1.71,0,0,1,0-.32A2.58,2.58,0,0,1,206.18,212.59Z"/><path class="cls-12" d="M218.61,215.12a2.59,2.59,0,1,1-2.59-2.59A2.58,2.58,0,0,1,218.61,215.12Z"/><path class="cls-12" d="M177,227.45a2.72,2.72,0,0,1-2.59-2.49,2.6,2.6,0,0,1,5.19-.19A2.71,2.71,0,0,1,177,227.45Z"/><path class="cls-12" d="M225.74,217.7a2.67,2.67,0,0,1-2.54-2.53,2.58,2.58,0,1,1,5.16.07A2.69,2.69,0,0,1,225.74,217.7Z"/><path class="cls-12" d="M167.28,222.32a2.56,2.56,0,0,1,2.5,2.61V225a2.58,2.58,0,0,1-5.16-.17,2.55,2.55,0,0,1,2.57-2.55Z"/><path class="cls-12" d="M232.71,211.74a2.43,2.43,0,0,1-1.9,1h-.15a2.59,2.59,0,0,1-2.57-2.36l.34.09Z"/><path class="cls-12" d="M223.5,210.32a2.64,2.64,0,0,1-2.6,2.46,2.53,2.53,0,0,1-2.55-2.51v-.13a2.5,2.5,0,0,1,1.34-2.15l3.43,1A2.51,2.51,0,0,1,223.5,210.32Z"/><path class="cls-12" d="M211.08,207.66a2.56,2.56,0,0,1,.1,5.11,2.6,2.6,0,0,1-2.63-2.41A2.64,2.64,0,0,1,211.08,207.66Z"/><path class="cls-12" d="M201.32,207.66a2.66,2.66,0,0,1,2.65,2.6,2.61,2.61,0,0,1-2.53,2.51,2.53,2.53,0,0,1-2.62-2.44v-.14A2.56,2.56,0,0,1,201.32,207.66Z"/><path class="cls-12" d="M194.16,210.22a2.53,2.53,0,0,1-2.47,2.55,2.6,2.6,0,0,1-2.67-2.51v0a2.65,2.65,0,0,1,2.67-2.57A2.56,2.56,0,0,1,194.16,210.22Z"/><path class="cls-12" d="M184.44,210.29a2.61,2.61,0,0,1-2.57,2.48,2.51,2.51,0,0,1-2.57-2.45v-.16a2.56,2.56,0,0,1,2.53-2.51A2.66,2.66,0,0,1,184.44,210.29Z"/><path class="cls-12" d="M174.63,210.27a2.52,2.52,0,0,1-2.51,2.5,2.61,2.61,0,0,1-2.63-2.57v0a2.65,2.65,0,0,1,2.72-2.52A2.55,2.55,0,0,1,174.63,210.27Z"/><path class="cls-12" d="M162.38,212.77a2.52,2.52,0,0,1-2.61-2.43v-.15a2.55,2.55,0,0,1,2.5-2.53,2.65,2.65,0,0,1,2.64,2.6A2.61,2.61,0,0,1,162.38,212.77Z"/><path class="cls-12" d="M164.5,192.05a1.27,1.27,0,0,1-.13.19,1.32,1.32,0,0,1-.25.28,1.85,1.85,0,0,1-.37.31,3.18,3.18,0,0,1-.4.23,1.21,1.21,0,0,1-.42.13.87.87,0,0,1-.28.05.76.76,0,0,1-.3,0,2.66,2.66,0,0,1-1-.2,2.26,2.26,0,0,1-.82-.54.91.91,0,0,1-.18-.21.9.9,0,0,1-.15-.19,2.52,2.52,0,0,1-.42-1.46Z"/><path class="cls-12" d="M164.7,191.69a1.22,1.22,0,0,1-.18.36h0A3,3,0,0,0,164.7,191.69Z"/><path class="cls-12" d="M194.14,200.59a2.47,2.47,0,0,1-2.55,2.39h0a2.58,2.58,0,0,1-2.56-2.49,2.5,2.5,0,0,1,.36-1.28Z"/><path class="cls-12" d="M202.06,202.9a2.78,2.78,0,0,1-.76.1,2.48,2.48,0,0,1-1.83-.85Z"/><path class="cls-12" d="M181.85,197.9a2.71,2.71,0,0,1,2.59,2.53,2.59,2.59,0,0,1-2.6,2.58h-.07a2.51,2.51,0,0,1-2.47-2.55v0A2.61,2.61,0,0,1,181.85,197.9Z"/><path class="cls-12" d="M172,203a2.59,2.59,0,0,1-2.5-2.57,2.7,2.7,0,0,1,2.58-2.54,2.6,2.6,0,0,1,2.56,2.64v.06A2.52,2.52,0,0,1,172,203Z"/><path class="cls-12" d="M164.9,200.43a2.57,2.57,0,0,1-2.48,2.58,2.51,2.51,0,0,1-2.64-2.38v0a2.59,2.59,0,0,1,2.47-2.71h.07A2.66,2.66,0,0,1,164.9,200.43Z"/><path class="cls-12" d="M233.55,229.82a2.62,2.62,0,0,1-2.59,2.46,2.52,2.52,0,0,1-2.55-2.49v-.17a2.61,2.61,0,0,1,2.55-2.5A2.74,2.74,0,0,1,233.55,229.82Z"/><path class="cls-12" d="M240.8,227.13a2.56,2.56,0,0,1,2.46,2.67v.08a2.51,2.51,0,0,1-2.62,2.4h0a2.6,2.6,0,0,1-2.51-2.54A2.69,2.69,0,0,1,240.8,227.13Z"/><path class="cls-12" d="M250.43,232.28a2.54,2.54,0,0,1-2.5-2.57s0-.09,0-.14a2.58,2.58,0,0,1,2.61-2.44,2.73,2.73,0,0,1,2.53,2.75A2.62,2.62,0,0,1,250.43,232.28Z"/><path class="cls-12" d="M260.33,227.13a2.57,2.57,0,0,1,2.47,2.67.28.28,0,0,0,0,.09,2.51,2.51,0,0,1-2.62,2.39h0a2.6,2.6,0,0,1-2.5-2.54A2.69,2.69,0,0,1,260.33,227.13Z"/><path class="cls-12" d="M272.6,229.78a2.61,2.61,0,0,1-2.55,2.5,2.52,2.52,0,0,1-2.59-2.45v-.16a2.58,2.58,0,0,1,2.51-2.54A2.73,2.73,0,0,1,272.6,229.78Z"/><path class="cls-12" d="M282.32,229.64a2.52,2.52,0,0,1-2.4,2.64h-.16a2.62,2.62,0,0,1-2.58-2.48,2.73,2.73,0,0,1,2.6-2.68A2.59,2.59,0,0,1,282.32,229.64Z"/><path class="cls-12" d="M292.13,229.79a1.13,1.13,0,0,1,0,.26h0a2.6,2.6,0,0,1-2.51,2.2,2.5,2.5,0,0,1-2.58-2.4.74.74,0,0,1,0-.21,2.58,2.58,0,0,1,.95-2h0l.79.23h0l2.74.81.45.13A2.33,2.33,0,0,1,292.13,229.79Z"/><path class="cls-12" d="M301.12,231.51a2.44,2.44,0,0,1-1.92.77,2.68,2.68,0,0,1-2.44-2Z"/><path class="cls-12" d="M233.55,220a2.6,2.6,0,0,1-2.54,2.51,2.51,2.51,0,0,1-2.6-2.42v-.17a2.62,2.62,0,0,1,2.51-2.56A2.71,2.71,0,0,1,233.55,220Z"/><path class="cls-12" d="M243.27,220a2.52,2.52,0,0,1-2.54,2.48,2.6,2.6,0,0,1-2.6-2.58v0a2.72,2.72,0,0,1,2.56-2.53,2.62,2.62,0,0,1,2.58,2.66Z"/><path class="cls-12" d="M250.45,217.37a2.73,2.73,0,0,1,2.63,2.65,2.61,2.61,0,0,1-2.55,2.5,2.52,2.52,0,0,1-2.59-2.42A2.62,2.62,0,0,1,250.45,217.37Z"/><path class="cls-12" d="M262.74,220.42a2.46,2.46,0,0,1-2.57,2.1,2.59,2.59,0,0,1-2.51-2.53,2.42,2.42,0,0,1,.21-1Z"/><path class="cls-12" d="M270,222.52a2.54,2.54,0,0,1-1.31-.39Z"/><path class="cls-12" d="M285.87,227.11a2.5,2.5,0,0,1-1.1.35,2.72,2.72,0,0,1-2.33-1.35Z"/><path class="cls-12" d="M277.47,224.88a2.58,2.58,0,0,1-5.16.15h0a2.45,2.45,0,0,1,.52-1.69l4.63,1.33A1.48,1.48,0,0,1,277.47,224.88Z"/><path class="cls-12" d="M267.72,224.9a2.59,2.59,0,1,1-2.55-2.63A2.58,2.58,0,0,1,267.72,224.9Z"/><path class="cls-12" d="M258,224.85a2.59,2.59,0,0,1-5.17.32,1.71,1.71,0,0,1,0-.32,2.59,2.59,0,0,1,5.17,0Z"/><path class="cls-12" d="M238.42,215.24a2.59,2.59,0,1,1-2.8-2.66h0a1,1,0,0,1,.25,0,2.35,2.35,0,0,1,1.52.55A2.51,2.51,0,0,1,238.42,215.24Z"/><path class="cls-12" d="M247.93,216.16a2.66,2.66,0,0,1-2.36,1.54,2.72,2.72,0,0,1-2.56-2.53,1.62,1.62,0,0,1,0-.44Z"/><path class="cls-12" d="M245.6,227.45A2.72,2.72,0,0,1,243,225a2.59,2.59,0,1,1,5.18-.19A2.7,2.7,0,0,1,245.6,227.45Z"/><path class="cls-12" d="M235.92,222.32a2.56,2.56,0,0,1,2.5,2.61V225a2.58,2.58,0,0,1-5.16-.17,2.55,2.55,0,0,1,2.57-2.55Z"/><path class="cls-12" d="M232.94,211.83a2.65,2.65,0,0,1-1.92.95h-.21a2.49,2.49,0,0,1-2.38-2.25l4.28,1.23Z"/><path class="cls-12" d="M81.64,245.06a2.75,2.75,0,0,1-1.89,2.41h0l-2.56-.73a2.64,2.64,0,0,1-.72-2,2.6,2.6,0,0,1,5.18.3Z"/><path class="cls-12" d="M27.93,230.29a2.66,2.66,0,0,1-1.1,2.15L26,232.2l-2.15-.61,3.25-3.12a2.6,2.6,0,0,1,.85,1.64A.55.55,0,0,1,27.93,230.29Z"/><path class="cls-12" d="M71.87,245.15a.14.14,0,0,1,0,.09L67,243.86a2.57,2.57,0,0,1,4.88,1.29Z"/><path class="cls-12" d="M88.8,247.59a2.72,2.72,0,0,1-2.58-2.51,2.59,2.59,0,1,1,5.17-.32,1.71,1.71,0,0,1,0,.32A2.72,2.72,0,0,1,88.8,247.59Z"/><path class="cls-12" d="M96.27,230.29a2.59,2.59,0,0,1-5.17.16,2.64,2.64,0,0,1,2.41-2.65A2.69,2.69,0,0,1,96.27,230.29Z"/><path class="cls-12" d="M83.94,227.79a2.64,2.64,0,0,1,2.57,2.49,2.59,2.59,0,1,1-2.69-2.49Z"/><path class="cls-12" d="M76.75,230.37a2.59,2.59,0,1,1-5.18,0,2.65,2.65,0,0,1,2.49-2.57A2.69,2.69,0,0,1,76.75,230.37Z"/><path class="cls-12" d="M67,230.45a2.59,2.59,0,1,1-2.52-2.66h.11A2.64,2.64,0,0,1,67,230.45Z"/><path class="cls-12" d="M57.23,230.37a2.6,2.6,0,0,1-5.19,0,2.66,2.66,0,0,1,2.49-2.58A2.69,2.69,0,0,1,57.23,230.37Z"/><path class="cls-12" d="M44.79,233A2.58,2.58,0,1,1,45,227.8h0a2.65,2.65,0,0,1,2.5,2.57A2.72,2.72,0,0,1,44.79,233Z"/><path class="cls-12" d="M35.19,233a2.71,2.71,0,0,1-2.67-2.59A2.63,2.63,0,0,1,35,227.8a2.58,2.58,0,1,1,.17,5.16Z"/><path class="cls-12" d="M96.28,240.18a2.63,2.63,0,0,1-2.57,2.48,2.59,2.59,0,0,1-2.61-2.57v0a2.59,2.59,0,1,1,5.18.13Z"/><path class="cls-12" d="M83.91,237.53a2.69,2.69,0,0,1,2.61,2.66,2.59,2.59,0,0,1-5.17,0A2.66,2.66,0,0,1,83.91,237.53Z"/><path class="cls-12" d="M74.23,242.65a2.59,2.59,0,0,1-2.66-2.52v0a2.59,2.59,0,0,1,5.18.08A2.6,2.6,0,0,1,74.23,242.65Z"/><path class="cls-12" d="M64.47,237.59A2.66,2.66,0,0,1,67,240.27a2.59,2.59,0,0,1-5.17-.14A2.68,2.68,0,0,1,64.47,237.59Z"/><path class="cls-12" d="M57.22,240.2A2.57,2.57,0,0,1,57,241l-4.94-1.43a2.7,2.7,0,0,1,2.53-2.1A2.67,2.67,0,0,1,57.22,240.2Z"/><path class="cls-12" d="M46.21,238l-1.46-.36h.12A2.28,2.28,0,0,1,46.21,238Z"/><path class="cls-12" d="M86.46,249.39l-4.39-1.25a2.53,2.53,0,0,1,1.93-.85A2.71,2.71,0,0,1,86.46,249.39Z"/><path class="cls-12" d="M96.25,250.11a2.38,2.38,0,0,1-1,1.77l-3.61-1-.33-.09h0a2.38,2.38,0,0,1-.15-1.12,2.68,2.68,0,0,1,2.71-2.33H94A2.62,2.62,0,0,1,96.25,250.11Z"/><path class="cls-12" d="M81.63,235.3A2.59,2.59,0,1,1,79,232.67,2.69,2.69,0,0,1,81.63,235.3Z"/><path class="cls-12" d="M71.86,235.2a2.58,2.58,0,1,1-2.72-2.53A2.69,2.69,0,0,1,71.86,235.2Z"/><path class="cls-12" d="M59.48,237.84a2.72,2.72,0,0,1-2.55-2.53,2.59,2.59,0,1,1,5.18.07A2.73,2.73,0,0,1,59.48,237.84Z"/><path class="cls-12" d="M49.69,232.67a2.58,2.58,0,1,1-2.52,2.73A2.67,2.67,0,0,1,49.69,232.67Z"/><path class="cls-12" d="M42.57,235.41a2.5,2.5,0,0,1-.54,1.36l-4.61-1.31v-.2a2.58,2.58,0,1,1,5.16.15Z"/><path class="cls-12" d="M32.47,234.05l-3.51-1a2.54,2.54,0,0,1,1.1-.38A2.63,2.63,0,0,1,32.47,234.05Z"/><path class="cls-12" d="M88.78,237.83a2.69,2.69,0,0,1-2.55-2.51,2.58,2.58,0,1,1,5.16.05A2.7,2.7,0,0,1,88.78,237.83Z"/><path class="cls-12" d="M111.22,245A2.59,2.59,0,0,1,106,245h0a2.59,2.59,0,1,1,5.18-.05Z"/><path class="cls-12" d="M130.75,245a2.59,2.59,0,1,1-2.59-2.59A2.59,2.59,0,0,1,130.75,245Z"/><path class="cls-12" d="M147.83,242.42a2.63,2.63,0,1,1-2.74,2.69c0-.12,0-.24,0-.35A2.62,2.62,0,0,1,147.83,242.42Z"/><path class="cls-12" d="M101.13,253.59l-3.55-1a2.39,2.39,0,0,1,1.42-.4A2.55,2.55,0,0,1,101.13,253.59Z"/><path class="cls-12" d="M111.23,254.67a2.55,2.55,0,0,1-.56,1.59L106.05,255a1.5,1.5,0,0,1,0-.3,2.6,2.6,0,1,1,5.2,0Z"/><path class="cls-12" d="M118.42,252.19a2.64,2.64,0,1,1-2.6,2.91,2.81,2.81,0,0,1,0-.29,2.57,2.57,0,0,1,2.52-2.62Z"/><path class="cls-12" d="M128.11,257.35a2.71,2.71,0,0,1-2.54-2.74,2.59,2.59,0,1,1,5.18.28A2.74,2.74,0,0,1,128.11,257.35Z"/><path class="cls-12" d="M138,257.35a2.73,2.73,0,0,1-2.64-2.45,2.58,2.58,0,1,1,5.16-.31A2.71,2.71,0,0,1,138,257.35Z"/><path class="cls-12" d="M147.6,252.19a2.58,2.58,0,0,1,2.67,2.49v.08a2.59,2.59,0,0,1-5.18,0h0A2.59,2.59,0,0,1,147.6,252.19Z"/><path class="cls-12" d="M157.4,257.35a2.71,2.71,0,0,1-2.54-2.74,2.59,2.59,0,0,1,5.17.28A2.7,2.7,0,0,1,157.4,257.35Z"/><path class="cls-12" d="M157.51,261.94a2.53,2.53,0,1,1-2.64,2.41h0A2.59,2.59,0,0,1,157.51,261.94Z"/><path class="cls-12" d="M150.28,264.59a2.75,2.75,0,0,1-1.87,2.36h0a2,2,0,0,1-.73.13,2.5,2.5,0,0,1-1.82-.86,2.54,2.54,0,0,1-.74-1.86,2.59,2.59,0,1,1,5.18.23Z"/><path class="cls-12" d="M140.51,264.41a1.82,1.82,0,0,1,0,.33l-4.87-1.4a2.59,2.59,0,0,1,4.89,1.07Z"/><path class="cls-12" d="M94,233a2.59,2.59,0,1,1-.32-5.17H94a2.65,2.65,0,0,1,2.57,2.5A2.7,2.7,0,0,1,94,233Z"/><path class="cls-12" d="M115.81,244.88a2.58,2.58,0,1,1,0,.2A1.34,1.34,0,0,1,115.81,244.88Z"/><path class="cls-12" d="M98.79,247.59A2.73,2.73,0,0,1,96.28,245a2.59,2.59,0,0,1,5.18-.12,2.62,2.62,0,0,1,0,.28A2.74,2.74,0,0,1,98.79,247.59Z"/><path class="cls-12" d="M138,242.42a2.65,2.65,0,0,1,2.51,2.74,2.58,2.58,0,1,1-5.16-.14h0A2.63,2.63,0,0,1,138,242.42Z"/><path class="cls-12" d="M157.44,247.59a2.72,2.72,0,0,1-2.58-2.51,2.59,2.59,0,1,1,5.17-.32,1.71,1.71,0,0,1,0,.32A2.72,2.72,0,0,1,157.44,247.59Z"/><path class="cls-12" d="M164.91,230.29a2.59,2.59,0,0,1-5.17.16,2.64,2.64,0,0,1,2.41-2.65A2.7,2.7,0,0,1,164.91,230.29Z"/><path class="cls-12" d="M152.58,227.79a2.65,2.65,0,0,1,2.57,2.49,2.59,2.59,0,1,1-2.69-2.49Z"/><path class="cls-12" d="M145.39,230.37a2.59,2.59,0,0,1-5.18,0h0a2.64,2.64,0,0,1,2.49-2.57A2.69,2.69,0,0,1,145.39,230.37Z"/><path class="cls-12" d="M135.63,230.45a2.59,2.59,0,1,1-2.52-2.66h.11A2.64,2.64,0,0,1,135.63,230.45Z"/><path class="cls-12" d="M125.87,230.37a2.6,2.6,0,0,1-5.19,0,2.66,2.66,0,0,1,2.49-2.58A2.69,2.69,0,0,1,125.87,230.37Z"/><path class="cls-12" d="M113.43,233a2.73,2.73,0,0,1-2.51-2.59,2.69,2.69,0,0,1,2.69-2.57,2.65,2.65,0,0,1,2.5,2.57A2.72,2.72,0,0,1,113.43,233Z"/><path class="cls-12" d="M103.83,233a2.71,2.71,0,0,1-2.67-2.59,2.63,2.63,0,0,1,2.5-2.57,2.58,2.58,0,1,1,.17,5.16Z"/><path class="cls-12" d="M135.63,250a2.59,2.59,0,1,1-2.36-2.56A2.58,2.58,0,0,1,135.63,250Z"/><path class="cls-12" d="M125.87,249.89a2.6,2.6,0,0,1-5.19,0,2.72,2.72,0,0,1,2.52-2.56A2.67,2.67,0,0,1,125.87,249.89Z"/><path class="cls-12" d="M116.1,249.93a2.59,2.59,0,1,1-2.38-2.49A2.59,2.59,0,0,1,116.1,249.93Z"/><path class="cls-12" d="M106.34,249.94a2.59,2.59,0,0,1-5.18-.14h0a2.59,2.59,0,1,1,5.18.14Z"/><path class="cls-12" d="M96.58,249.86a2.49,2.49,0,0,1-1.13,2.08,2.55,2.55,0,0,1-1.36.46h-.2a2.32,2.32,0,0,0,1.33-.52l-3.61-1a2.33,2.33,0,0,1-.21-1,2.66,2.66,0,0,1,2.43-2.58h0A2.68,2.68,0,0,1,96.58,249.86Z"/><path class="cls-12" d="M164.91,240.18a2.59,2.59,0,1,1-2.38-2.5A2.6,2.6,0,0,1,164.91,240.18Z"/><path class="cls-12" d="M152.55,237.53a2.69,2.69,0,0,1,2.61,2.66,2.59,2.59,0,0,1-5.18,0A2.67,2.67,0,0,1,152.55,237.53Z"/><path class="cls-12" d="M142.87,242.65a2.59,2.59,0,0,1-2.66-2.52v0a2.59,2.59,0,1,1,2.66,2.55Z"/><path class="cls-12" d="M133.11,237.59a2.66,2.66,0,0,1,2.51,2.73,2.59,2.59,0,0,1-5.17-.14A2.68,2.68,0,0,1,133.11,237.59Z"/><path class="cls-12" d="M123.27,242.66a2.61,2.61,0,1,1,2.59-2.78,1.71,1.71,0,0,1,0,.32A2.62,2.62,0,0,1,123.27,242.66Z"/><path class="cls-12" d="M116.1,240.2a2.59,2.59,0,1,1-2.37-2.53A2.6,2.6,0,0,1,116.1,240.2Z"/><path class="cls-12" d="M106.34,240.14a2.59,2.59,0,0,1-5.18,0h0a2.59,2.59,0,1,1,5.18,0Z"/><path class="cls-12" d="M96.58,240.14a2.59,2.59,0,0,1-5.18,0h0a2.59,2.59,0,1,1,5.18,0Z"/><path class="cls-12" d="M145.39,249.93a2.59,2.59,0,0,1-5.17-.07v-.05a2.59,2.59,0,0,1,5.17.12Z"/><path class="cls-12" d="M152.63,247.29a2.67,2.67,0,0,1,2.52,2.73,2.59,2.59,0,0,1-5.18-.13h0A2.69,2.69,0,0,1,152.63,247.29Z"/><path class="cls-12" d="M159.76,249.59a2.58,2.58,0,1,1,2.36,2.78H162A2.59,2.59,0,0,1,159.76,249.59Z"/><path class="cls-12" d="M150.27,235.3a2.59,2.59,0,1,1-2.63-2.63A2.69,2.69,0,0,1,150.27,235.3Z"/><path class="cls-12" d="M140.5,235.2a2.58,2.58,0,1,1-2.72-2.53A2.69,2.69,0,0,1,140.5,235.2Z"/><path class="cls-12" d="M128.12,237.84a2.72,2.72,0,0,1-2.55-2.53,2.59,2.59,0,1,1,5.18.07A2.73,2.73,0,0,1,128.12,237.84Z"/><path class="cls-12" d="M118.33,232.67a2.58,2.58,0,1,1-2.52,2.64A2.57,2.57,0,0,1,118.33,232.67Z"/><path class="cls-12" d="M108.7,232.67a2.58,2.58,0,1,1-2.66,2.6A2.69,2.69,0,0,1,108.7,232.67Z"/><path class="cls-12" d="M101.45,235.18a2.58,2.58,0,1,1-2.75-2.5A2.67,2.67,0,0,1,101.45,235.18Z"/><path class="cls-12" d="M135.63,259.64a2.63,2.63,0,0,1-2.51,2.53,2.56,2.56,0,0,1-2.63-2.47v-.1a2.58,2.58,0,0,1,2.49-2.55A2.66,2.66,0,0,1,135.63,259.64Z"/><path class="cls-12" d="M145.35,259.59a2.55,2.55,0,0,1-2.46,2.6,2.61,2.61,0,0,1-2.68-2.52v-.07a2.68,2.68,0,0,1,2.58-2.54A2.6,2.6,0,0,1,145.35,259.59Z"/><path class="cls-12" d="M155.16,259.67a2.62,2.62,0,0,1-2.58,2.5,2.54,2.54,0,0,1-2.58-2.5v-.18a2.59,2.59,0,0,1,2.64-2.44A2.68,2.68,0,0,1,155.16,259.67Z"/><path class="cls-12" d="M162.26,257.05a2.56,2.56,0,0,1,.21,5.12,2.64,2.64,0,0,1-2.74-2.52h0A2.68,2.68,0,0,1,162.26,257.05Z"/><path class="cls-12" d="M157.42,237.83a2.58,2.58,0,1,1,2.61-2.55v.09A2.68,2.68,0,0,1,157.42,237.83Z"/><path class="cls-12" d="M125.83,259.59a2.67,2.67,0,0,1-.17.92l-4.92-1.39A2.7,2.7,0,0,1,123.3,257,2.61,2.61,0,0,1,125.83,259.59Z"/><path class="cls-12" d="M114.84,257.45l-1.38-.41A2.35,2.35,0,0,1,114.84,257.45Z"/><path class="cls-12" d="M155.09,268.89l-4.38-1.25a2.49,2.49,0,0,1,1.78-.84A2.66,2.66,0,0,1,155.09,268.89Z"/><path class="cls-12" d="M164.88,269.3a2.6,2.6,0,0,1-.33,1.31,2.7,2.7,0,0,1-.25.34.31.31,0,0,1-.13.17,2.33,2.33,0,0,1-.28.26h0L160,270.26a.47.47,0,0,0,.06.2.41.41,0,0,1-.1-.21h0a2.3,2.3,0,0,1,.06-1.87,2.46,2.46,0,0,1,.25-.45,2.52,2.52,0,0,1,.41-.45,2.71,2.71,0,0,1,1.67-.68h.22a.31.31,0,0,1,.19,0,2.07,2.07,0,0,1,.59.16,2.51,2.51,0,0,1,.81.56,1.63,1.63,0,0,1,.37.49A2.43,2.43,0,0,1,164.88,269.3Z"/><path class="cls-12" d="M74.1,217.37a2.59,2.59,0,0,1,2.61,2.44,2.53,2.53,0,0,1-2.34,2.7h-.15a2.62,2.62,0,0,1-2.65-2.4A2.74,2.74,0,0,1,74.1,217.37Z"/><path class="cls-12" d="M81.64,176.17A2.75,2.75,0,0,1,79,178.71Z"/><path class="cls-12" d="M71.87,185.7a2.72,2.72,0,0,1-2.53,2.75,3.84,3.84,0,0,1-.48,0l3-2.86A.8.8,0,0,1,71.87,185.7Z"/><path class="cls-12" d="M79,183.29a2.6,2.6,0,0,1,2.67,2.53v0a2.6,2.6,0,0,1-5.19.32,1.71,1.71,0,0,1,0-.32A2.59,2.59,0,0,1,79,183.29Z"/><path class="cls-12" d="M88.76,188.45a2.7,2.7,0,0,1-2.54-2.73,2.59,2.59,0,0,1,5.17.27A2.7,2.7,0,0,1,88.76,188.45Z"/><path class="cls-12" d="M88.87,193a2.53,2.53,0,1,1-2.64,2.42A2.6,2.6,0,0,1,88.87,193Z"/><path class="cls-12" d="M76.45,195.5a2.59,2.59,0,1,1,2.48,2.7,2.59,2.59,0,0,1-2.48-2.7Z"/><path class="cls-12" d="M69.26,193a2.61,2.61,0,1,1-2.56,2.79,1.71,1.71,0,0,1,0-.32A2.59,2.59,0,0,1,69.26,193Z"/><path class="cls-12" d="M62.11,195.79a2.75,2.75,0,0,1-2.68,2.42,2.09,2.09,0,0,1-.65-.13L62,195A2.26,2.26,0,0,1,62.11,195.79Z"/><path class="cls-12" d="M27.94,229.82a1.4,1.4,0,0,1,0,.29A2.62,2.62,0,0,1,26,232.2l-2.19-.61,3.25-3.12.29-.28A2.42,2.42,0,0,1,27.94,229.82Z"/><path class="cls-12" d="M35.19,227.13a2.56,2.56,0,0,1,2.46,2.67v.08a2.51,2.51,0,0,1-2.62,2.4h0a2.59,2.59,0,0,1-2.51-2.54A2.69,2.69,0,0,1,35.19,227.13Z"/><path class="cls-12" d="M44.82,232.28a2.55,2.55,0,0,1-2.51-2.58.57.57,0,0,0,0-.13,2.59,2.59,0,0,1,2.61-2.44,2.71,2.71,0,0,1,2.53,2.75A2.61,2.61,0,0,1,44.82,232.28Z"/><path class="cls-12" d="M54.72,227.13a2.57,2.57,0,0,1,2.47,2.67.28.28,0,0,0,0,.09,2.51,2.51,0,0,1-2.62,2.39h0A2.61,2.61,0,0,1,52,229.74,2.72,2.72,0,0,1,54.72,227.13Z"/><path class="cls-12" d="M67,229.78a2.61,2.61,0,0,1-2.55,2.5,2.52,2.52,0,0,1-2.59-2.45v-.16a2.58,2.58,0,0,1,2.51-2.54A2.73,2.73,0,0,1,67,229.78Z"/><path class="cls-12" d="M76.71,229.64a2.52,2.52,0,0,1-2.4,2.64h-.16a2.62,2.62,0,0,1-2.58-2.48,2.73,2.73,0,0,1,2.6-2.68A2.59,2.59,0,0,1,76.71,229.64Z"/><path class="cls-12" d="M86.52,229.78a2.61,2.61,0,0,1-2.55,2.5,2.52,2.52,0,0,1-2.59-2.45v-.16a2.58,2.58,0,0,1,2.51-2.54A2.71,2.71,0,0,1,86.52,229.78Z"/><path class="cls-12" d="M93.78,227.13a2.56,2.56,0,0,1,2.45,2.68v.08a2.53,2.53,0,0,1-2.63,2.39,2.6,2.6,0,0,1-2.5-2.55A2.69,2.69,0,0,1,93.78,227.13Z"/><path class="cls-12" d="M96.24,220a2.52,2.52,0,0,1-2.5,2.52A2.59,2.59,0,0,1,91.1,220v0a2.7,2.7,0,0,1,2.7-2.57A2.63,2.63,0,0,1,96.24,220Z"/><path class="cls-12" d="M37.67,220a2.54,2.54,0,0,1-4,2.05l3.57-3.42A2.45,2.45,0,0,1,37.67,220Z"/><path class="cls-12" d="M44.84,217.37A2.73,2.73,0,0,1,47.47,220a2.61,2.61,0,0,1-2.55,2.5,2.53,2.53,0,0,1-2.6-2.42A2.63,2.63,0,0,1,44.84,217.37Z"/><path class="cls-12" d="M54.7,217.37a2.63,2.63,0,0,1,2.48,2.76,2.53,2.53,0,0,1-2.62,2.39A2.61,2.61,0,0,1,52,220,2.71,2.71,0,0,1,54.7,217.37Z"/><path class="cls-12" d="M64.35,222.52a2.52,2.52,0,0,1-2.5-2.52,2.61,2.61,0,0,1,2.61-2.63h0A2.71,2.71,0,0,1,67,220.12,2.62,2.62,0,0,1,64.35,222.52Z"/><path class="cls-12" d="M83.92,217.37a2.72,2.72,0,0,1,2.6,2.68A2.6,2.6,0,0,1,84,222.52a2.53,2.53,0,0,1-2.57-2.45A2.62,2.62,0,0,1,83.92,217.37Z"/><path class="cls-12" d="M52.33,205.36a2.68,2.68,0,0,1-2.49,2.58,2.12,2.12,0,0,1-1.1-.25l3.41-3.26A2.44,2.44,0,0,1,52.33,205.36Z"/><path class="cls-12" d="M56.92,205.26a2.6,2.6,0,1,1,2.37,2.55A2.6,2.6,0,0,1,56.92,205.26Z"/><path class="cls-12" d="M91.39,225A2.59,2.59,0,1,1,89,222.42,2.6,2.6,0,0,1,91.39,225Z"/><path class="cls-12" d="M81.64,224.85a2.6,2.6,0,1,1-2.43-2.44A2.6,2.6,0,0,1,81.64,224.85Z"/><path class="cls-12" d="M69.21,222.32a2.55,2.55,0,0,1,2.65,2.45v.11a2.58,2.58,0,1,1-2.73-2.56Z"/><path class="cls-12" d="M62.11,224.9a2.59,2.59,0,0,1-5.18-.07h0a2.59,2.59,0,1,1,5.18.07Z"/><path class="cls-12" d="M52.34,224.85a2.59,2.59,0,0,1-5.17.32,1.71,1.71,0,0,1,0-.32,2.59,2.59,0,0,1,5.17,0Z"/><path class="cls-12" d="M69.37,207.94a2.71,2.71,0,0,1-2.67-2.41,2.59,2.59,0,0,1,5.16-.35A2.67,2.67,0,0,1,69.37,207.94Z"/><path class="cls-12" d="M79,202.81a2.58,2.58,0,0,1,2.61,2.55v.07A2.6,2.6,0,1,1,79,202.81Z"/><path class="cls-12" d="M88.85,202.81a2.56,2.56,0,0,1,2.54,2.6v.08a2.59,2.59,0,1,1-2.62-2.68Z"/><path class="cls-12" d="M42.59,215.06A2.72,2.72,0,0,1,40,217.7a2.41,2.41,0,0,1-1.25-.38l3.56-3.41A2.54,2.54,0,0,1,42.59,215.06Z"/><path class="cls-12" d="M49.81,212.59a2.65,2.65,0,1,1-2.64,2.9v-.31a2.57,2.57,0,0,1,2.57-2.59Z"/><path class="cls-12" d="M56.93,215.16a2.59,2.59,0,1,1,2.64,2.54A2.59,2.59,0,0,1,56.93,215.16Z"/><path class="cls-12" d="M69.21,212.59a2.57,2.57,0,0,1,2.65,2.49v.08a2.58,2.58,0,0,1-5.16,0h0A2.56,2.56,0,0,1,69.21,212.59Z"/><path class="cls-12" d="M81.63,215.12A2.59,2.59,0,1,1,79,212.53,2.59,2.59,0,0,1,81.63,215.12Z"/><path class="cls-12" d="M40,227.45A2.72,2.72,0,0,1,37.41,225a2.59,2.59,0,1,1,5.18-.19A2.7,2.7,0,0,1,40,227.45Z"/><path class="cls-12" d="M88.77,217.7a2.69,2.69,0,0,1-2.55-2.53,2.59,2.59,0,0,1,5.17-.25,1.71,1.71,0,0,1,0,.32A2.69,2.69,0,0,1,88.77,217.7Z"/><path class="cls-12" d="M32.81,225.05a2.71,2.71,0,0,1-2.67,2.41,2.52,2.52,0,0,1-1.44-.56l3.64-3.48A2.44,2.44,0,0,1,32.81,225.05Z"/><path class="cls-12" d="M88.8,178.7a2.72,2.72,0,0,1-2.58-2.51,2.59,2.59,0,1,1,5.17-.32,1.71,1.71,0,0,1,0,.32A2.71,2.71,0,0,1,88.8,178.7Z"/><path class="cls-12" d="M93.69,212.77a2.61,2.61,0,0,1-2.59-2.45,2.66,2.66,0,0,1,2.58-2.67,2.56,2.56,0,0,1,2.56,2.58v.08A2.52,2.52,0,0,1,93.69,212.77Z"/><path class="cls-12" d="M96,172.27a2.55,2.55,0,0,1-2.18,1.47h-.13a2.59,2.59,0,0,1-2.61-2.57v0a1.4,1.4,0,0,1,0-.29l.29.08Z"/><path class="cls-12" d="M86.48,171.53a2.57,2.57,0,0,1-2.31,2.21Z"/><path class="cls-12" d="M83.93,207.65a2.66,2.66,0,0,1,2.59,2.66,2.62,2.62,0,0,1-2.58,2.46,2.51,2.51,0,0,1-2.56-2.46v-.17A2.56,2.56,0,0,1,83.93,207.65Z"/><path class="cls-12" d="M74.11,207.66a2.56,2.56,0,1,1,.4,5.1H74.2a2.6,2.6,0,0,1-2.62-2.41A2.64,2.64,0,0,1,74.11,207.66Z"/><path class="cls-12" d="M64.35,207.66a2.65,2.65,0,0,1,2.64,2.6,2.61,2.61,0,0,1-2.53,2.51,2.52,2.52,0,0,1-2.61-2.43v-.15A2.55,2.55,0,0,1,64.35,207.66Z"/><path class="cls-12" d="M57.19,210.22a2.54,2.54,0,0,1-2.47,2.55A2.61,2.61,0,0,1,52,210.29v-.06a2.66,2.66,0,0,1,2.68-2.57A2.56,2.56,0,0,1,57.19,210.22Z"/><path class="cls-12" d="M47.46,210.3a2.63,2.63,0,0,1-2.56,2.48,2.69,2.69,0,0,1-1.18-.28l3.48-3.33A2.1,2.1,0,0,1,47.46,210.3Z"/><path class="cls-12" d="M76.75,181a2.62,2.62,0,0,1-2.56,2.48H74l2.76-2.64A.81.81,0,0,1,76.75,181Z"/><path class="cls-12" d="M84,178.4a2.65,2.65,0,0,1,2.52,2.73,2.59,2.59,0,0,1-5.18-.13A2.68,2.68,0,0,1,84,178.4Z"/><path class="cls-12" d="M91.12,180.74a2.58,2.58,0,1,1,5.14.47h0a2.61,2.61,0,0,1-2.89,2.29h0A2.58,2.58,0,0,1,91.12,180.74Z"/><path class="cls-12" d="M67,190.75a2.63,2.63,0,0,1-2.52,2.53,2.56,2.56,0,0,1-.62-.07l3.1-3A3.27,3.27,0,0,1,67,190.75Z"/><path class="cls-12" d="M76.71,190.68a2.55,2.55,0,0,1-2.46,2.6,2.61,2.61,0,0,1-2.68-2.54v-.05a2.69,2.69,0,0,1,2.59-2.54A2.59,2.59,0,0,1,76.71,190.68Z"/><path class="cls-12" d="M86.52,190.77a2.63,2.63,0,0,1-2.58,2.51,2.54,2.54,0,0,1-2.56-2.54v-.15A2.58,2.58,0,0,1,84,188.16,2.67,2.67,0,0,1,86.52,190.77Z"/><path class="cls-12" d="M93.62,188.15a2.58,2.58,0,0,1,2.62,2.44,2.54,2.54,0,0,1-2.41,2.65,2.62,2.62,0,0,1-2.74-2.5v0A2.69,2.69,0,0,1,93.62,188.15Z"/><path class="cls-12" d="M57.19,200.59a2.52,2.52,0,0,1-2.58,2.46h0a2.29,2.29,0,0,1-.82-.15l3.27-3.13A2.51,2.51,0,0,1,57.19,200.59Z"/><path class="cls-12" d="M64.33,203a2.52,2.52,0,0,1-2.48-2.56h0a2.6,2.6,0,0,1,2.54-2.54A2.69,2.69,0,0,1,67,200.59,2.62,2.62,0,0,1,64.33,203Z"/><path class="cls-12" d="M76.71,200.51a2.52,2.52,0,0,1-2.54,2.5h0a2.6,2.6,0,0,1-2.59-2.48,2.68,2.68,0,0,1,2.67-2.62A2.58,2.58,0,0,1,76.71,200.51Z"/><path class="cls-12" d="M83.85,197.9a2.68,2.68,0,0,1,2.66,2.45,2.56,2.56,0,0,1-2.4,2.65,2.53,2.53,0,0,1-2.73-2.31,1.09,1.09,0,0,1,0-.18A2.61,2.61,0,0,1,83.85,197.9Z"/><path class="cls-12" d="M93.66,197.9a2.61,2.61,0,0,1,2.58,2.51A2.53,2.53,0,0,1,93.8,203h0a2.59,2.59,0,0,1-2.7-2.48v-.07A2.68,2.68,0,0,1,93.66,197.9Z"/><path class="cls-12" d="M142.74,217.37a2.59,2.59,0,0,1,2.61,2.44,2.53,2.53,0,0,1-2.36,2.7h-.14a2.61,2.61,0,0,1-2.64-2.4A2.73,2.73,0,0,1,142.74,217.37Z"/><path class="cls-12" d="M111.16,176.59a2.58,2.58,0,0,1-5.11-.51,2.07,2.07,0,0,1,.18-.92Z"/><path class="cls-12" d="M101.45,185.93a2.59,2.59,0,0,1-5.18.13,2.62,2.62,0,0,1,0-.28,2.59,2.59,0,0,1,5.17.15Z"/><path class="cls-12" d="M108.62,188.45a2.7,2.7,0,0,1-2.62-2.69,2.59,2.59,0,1,1,5.18,0A2.71,2.71,0,0,1,108.62,188.45Z"/><path class="cls-12" d="M118.42,183.29a2.65,2.65,0,1,1-2.6,2.92,2.81,2.81,0,0,1,0-.29,2.57,2.57,0,0,1,2.53-2.63Z"/><path class="cls-12" d="M128.11,188.45a2.7,2.7,0,0,1-2.54-2.73,2.59,2.59,0,1,1,5.18.27A2.74,2.74,0,0,1,128.11,188.45Z"/><path class="cls-12" d="M140.51,185.7a2.59,2.59,0,1,1-5.16.39.19.19,0,0,1,0-.08,2.48,2.48,0,0,1,.93-2.12l4.1,1.19A2.65,2.65,0,0,1,140.51,185.7Z"/><path class="cls-12" d="M149.44,187.7a2.56,2.56,0,0,1-1.69.75,2.68,2.68,0,0,1-2.55-2Z"/><path class="cls-12" d="M157.51,193a2.53,2.53,0,1,1-.16,5.06,2.57,2.57,0,0,1-2.51-2.64h0A2.6,2.6,0,0,1,157.51,193Z"/><path class="cls-12" d="M145.09,195.5a2.59,2.59,0,1,1,2.48,2.7,2.59,2.59,0,0,1-2.48-2.7Z"/><path class="cls-12" d="M137.9,193a2.61,2.61,0,1,1-2.57,2.79,1.71,1.71,0,0,1,0-.32A2.61,2.61,0,0,1,137.9,193Z"/><path class="cls-12" d="M128.07,198.22a2.75,2.75,0,0,1-2.5-2.79,2.6,2.6,0,0,1,5.18.36A2.76,2.76,0,0,1,128.07,198.22Z"/><path class="cls-12" d="M98.78,193a2.6,2.6,0,0,1,2.67,2.53v0a2.59,2.59,0,0,1-5.17.32,1.71,1.71,0,0,1,0-.32A2.61,2.61,0,0,1,98.78,193Z"/><path class="cls-12" d="M111.22,195.59a2.61,2.61,0,1,1-2.63-2.59,2.61,2.61,0,0,1,2.63,2.59h0Z"/><path class="cls-12" d="M121,195.67a2.59,2.59,0,0,1-5.18.19c0-.1,0-.2,0-.3a2.59,2.59,0,0,1,5.17.11Z"/><path class="cls-12" d="M96.58,229.82A2.62,2.62,0,0,1,94,232.28a2.53,2.53,0,0,1-2.57-2.48c0-.07,0-.14,0-.21a2.61,2.61,0,0,1,2.55-2.5A2.74,2.74,0,0,1,96.58,229.82Z"/><path class="cls-12" d="M103.83,227.13a2.56,2.56,0,0,1,2.46,2.67v.08a2.51,2.51,0,0,1-2.62,2.4h0a2.59,2.59,0,0,1-2.51-2.54A2.69,2.69,0,0,1,103.83,227.13Z"/><path class="cls-12" d="M113.46,232.28a2.53,2.53,0,0,1-2.46-2.62v-.07a2.59,2.59,0,0,1,2.61-2.44,2.71,2.71,0,0,1,2.53,2.75A2.61,2.61,0,0,1,113.46,232.28Z"/><path class="cls-12" d="M123.36,227.13a2.57,2.57,0,0,1,2.47,2.67.28.28,0,0,0,0,.09,2.53,2.53,0,0,1-2.63,2.39,2.6,2.6,0,0,1-2.51-2.54A2.72,2.72,0,0,1,123.36,227.13Z"/><path class="cls-12" d="M135.63,229.78a2.61,2.61,0,0,1-2.55,2.5,2.52,2.52,0,0,1-2.59-2.45v-.16a2.58,2.58,0,0,1,2.51-2.54A2.73,2.73,0,0,1,135.63,229.78Z"/><path class="cls-12" d="M145.35,229.64a2.52,2.52,0,0,1-2.4,2.64h-.16a2.62,2.62,0,0,1-2.58-2.48,2.73,2.73,0,0,1,2.6-2.68A2.59,2.59,0,0,1,145.35,229.64Z"/><path class="cls-12" d="M155.16,229.78a2.61,2.61,0,0,1-2.55,2.5,2.53,2.53,0,0,1-2.6-2.46v-.15a2.59,2.59,0,0,1,2.52-2.54A2.71,2.71,0,0,1,155.16,229.78Z"/><path class="cls-12" d="M162.42,227.13a2.56,2.56,0,0,1,2.45,2.68v.08a2.53,2.53,0,0,1-2.63,2.39,2.6,2.6,0,0,1-2.5-2.55A2.69,2.69,0,0,1,162.42,227.13Z"/><path class="cls-12" d="M96.58,220A2.61,2.61,0,0,1,94,222.52a2.53,2.53,0,0,1-2.61-2.45v-.14a2.64,2.64,0,0,1,2.51-2.56A2.73,2.73,0,0,1,96.58,220Z"/><path class="cls-12" d="M164.88,220a2.52,2.52,0,0,1-2.5,2.52,2.59,2.59,0,0,1-2.64-2.54v0a2.7,2.7,0,0,1,2.7-2.57A2.63,2.63,0,0,1,164.88,220Z"/><path class="cls-12" d="M106.3,220a2.52,2.52,0,0,1-2.54,2.48,2.6,2.6,0,0,1-2.6-2.58v0a2.72,2.72,0,0,1,2.56-2.53A2.63,2.63,0,0,1,106.3,220Z"/><path class="cls-12" d="M113.48,217.37a2.73,2.73,0,0,1,2.63,2.65,2.61,2.61,0,0,1-2.55,2.5,2.53,2.53,0,0,1-2.6-2.42A2.63,2.63,0,0,1,113.48,217.37Z"/><path class="cls-12" d="M123.34,217.37a2.63,2.63,0,0,1,2.48,2.76,2.53,2.53,0,0,1-2.62,2.39,2.6,2.6,0,0,1-2.52-2.53A2.72,2.72,0,0,1,123.34,217.37Z"/><path class="cls-12" d="M133,222.52a2.52,2.52,0,0,1-2.5-2.52,2.61,2.61,0,0,1,2.61-2.63h0a2.71,2.71,0,0,1,2.53,2.75A2.61,2.61,0,0,1,133,222.52Z"/><path class="cls-12" d="M152.56,217.37a2.72,2.72,0,0,1,2.6,2.68,2.6,2.6,0,0,1-2.58,2.47,2.52,2.52,0,0,1-2.56-2.45A2.63,2.63,0,0,1,152.56,217.37Z"/><path class="cls-12" d="M101.45,205.28a2.59,2.59,0,1,1-2.51-2.37A2.6,2.6,0,0,1,101.45,205.28Z"/><path class="cls-12" d="M111.22,205.29a2.59,2.59,0,1,1-2.66-2.53A2.58,2.58,0,0,1,111.22,205.29Z"/><path class="cls-12" d="M121,205.36a2.7,2.7,0,0,1-2.5,2.58,2.67,2.67,0,0,1-2.67-2.59,2.59,2.59,0,0,1,5.17,0Z"/><path class="cls-12" d="M125.56,205.26a2.6,2.6,0,1,1,2.37,2.55A2.6,2.6,0,0,1,125.56,205.26Z"/><path class="cls-12" d="M160,225a2.59,2.59,0,1,1-2.37-2.53A2.6,2.6,0,0,1,160,225Z"/><path class="cls-12" d="M150.27,224.85a2.59,2.59,0,1,1-2.59-2.59A2.58,2.58,0,0,1,150.27,224.85Z"/><path class="cls-12" d="M137.85,222.32a2.55,2.55,0,0,1,2.65,2.45v.11a2.58,2.58,0,0,1-5.16.15h0a2.57,2.57,0,0,1,2.43-2.71Z"/><path class="cls-12" d="M130.75,224.9a2.59,2.59,0,0,1-5.18-.07h0a2.59,2.59,0,1,1,5.18.07Z"/><path class="cls-12" d="M121,224.85a2.69,2.69,0,0,1-2.49,2.6,2.66,2.66,0,0,1-2.68-2.57,2.59,2.59,0,0,1,5.17,0Z"/><path class="cls-12" d="M138,207.94a2.71,2.71,0,0,1-2.67-2.41,2.59,2.59,0,0,1,5.16-.35A2.67,2.67,0,0,1,138,207.94Z"/><path class="cls-12" d="M147.67,202.81a2.57,2.57,0,0,1,2.6,2.54v.08a2.59,2.59,0,0,1-5.18-.15h0A2.58,2.58,0,0,1,147.67,202.81Z"/><path class="cls-12" d="M157.49,202.81a2.57,2.57,0,0,1,2.51,2.63v.05a2.59,2.59,0,1,1-2.62-2.68Z"/><path class="cls-12" d="M98.91,212.59a2.58,2.58,0,0,1,2.54,2.62v.06a2.59,2.59,0,1,1-2.61-2.68Z"/><path class="cls-12" d="M108.67,212.59a2.6,2.6,0,1,1-.06,0Z"/><path class="cls-12" d="M118.45,212.59a2.65,2.65,0,1,1-2.64,2.9v-.31a2.57,2.57,0,0,1,2.57-2.59Z"/><path class="cls-12" d="M125.57,215.16a2.59,2.59,0,1,1,2.64,2.54A2.59,2.59,0,0,1,125.57,215.16Z"/><path class="cls-12" d="M137.85,212.59a2.57,2.57,0,0,1,2.65,2.49v.08a2.58,2.58,0,1,1-2.65-2.57Z"/><path class="cls-12" d="M150.27,215.12a2.59,2.59,0,1,1-2.59-2.59A2.58,2.58,0,0,1,150.27,215.12Z"/><path class="cls-12" d="M108.63,227.45A2.71,2.71,0,0,1,106,225a2.59,2.59,0,1,1,5.18-.19A2.69,2.69,0,0,1,108.63,227.45Z"/><path class="cls-12" d="M157.41,217.7a2.69,2.69,0,0,1-2.55-2.53,2.59,2.59,0,0,1,5.17-.25,1.71,1.71,0,0,1,0,.32A2.71,2.71,0,0,1,157.41,217.7Z"/><path class="cls-12" d="M99,222.32a2.56,2.56,0,0,1,2.5,2.63V225a2.59,2.59,0,1,1-2.56-2.72Z"/><path class="cls-12" d="M118.33,178.71h-.15a2.73,2.73,0,0,1-1-.32Z"/><path class="cls-12" d="M98.79,178.7a2.73,2.73,0,0,1-2.51-2.58,2.59,2.59,0,0,1,5.18-.14,2.81,2.81,0,0,1,0,.29A2.74,2.74,0,0,1,98.79,178.7Z"/><path class="cls-12" d="M162.33,212.77a2.62,2.62,0,0,1-2.6-2.45,2.68,2.68,0,0,1,2.59-2.67,2.56,2.56,0,0,1,2.56,2.58v.08A2.52,2.52,0,0,1,162.33,212.77Z"/><path class="cls-12" d="M134.11,183.27a2.36,2.36,0,0,1-1.25.25,2.68,2.68,0,0,1-2-1.2Z"/><path class="cls-12" d="M125.86,180.88V181a2.59,2.59,0,0,1-5.18,0,2.39,2.39,0,0,1,.5-1.43l4.66,1.35Z"/><path class="cls-12" d="M116.1,181a2.59,2.59,0,1,1-2.38-2.5A2.6,2.6,0,0,1,116.1,181Z"/><path class="cls-12" d="M106.34,181.05a2.63,2.63,0,0,1-2.58,2.47,2.6,2.6,0,0,1-2.6-2.58v0a2.59,2.59,0,1,1,5.18.15Z"/><path class="cls-12" d="M96.58,181a2.59,2.59,0,0,1-5.18,0h0a2.59,2.59,0,0,1,5.18,0Z"/><path class="cls-12" d="M96.29,172.33a2.58,2.58,0,0,1-2.23,1.43.81.81,0,0,1-.22,0,2.56,2.56,0,0,1-2.44-2.54,1.13,1.13,0,0,1,0-.26l4.6,1.31Z"/><path class="cls-12" d="M152.57,207.65a2.66,2.66,0,0,1,2.59,2.66,2.62,2.62,0,0,1-2.58,2.46,2.51,2.51,0,0,1-2.56-2.46v-.17A2.56,2.56,0,0,1,152.57,207.65Z"/><path class="cls-12" d="M142.75,207.66a2.56,2.56,0,0,1,.4,5.1h-.31a2.6,2.6,0,0,1-2.62-2.41A2.64,2.64,0,0,1,142.75,207.66Z"/><path class="cls-12" d="M133,207.66a2.65,2.65,0,0,1,2.64,2.6,2.61,2.61,0,0,1-2.53,2.51,2.51,2.51,0,0,1-2.61-2.41v-.17A2.55,2.55,0,0,1,133,207.66Z"/><path class="cls-12" d="M125.83,210.22a2.54,2.54,0,0,1-2.47,2.55,2.6,2.6,0,0,1-2.68-2.52v0a2.64,2.64,0,0,1,2.68-2.57A2.56,2.56,0,0,1,125.83,210.22Z"/><path class="cls-12" d="M116.1,210.29a2.6,2.6,0,0,1-2.56,2.48,2.52,2.52,0,0,1-2.58-2.46v-.15a2.57,2.57,0,0,1,2.53-2.51A2.65,2.65,0,0,1,116.1,210.29Z"/><path class="cls-12" d="M106.3,210.27a2.52,2.52,0,0,1-2.51,2.5,2.61,2.61,0,0,1-2.63-2.57v0a2.65,2.65,0,0,1,2.72-2.52A2.55,2.55,0,0,1,106.3,210.27Z"/><path class="cls-12" d="M94.05,212.77a2.56,2.56,0,0,1-.12-5.11,2.66,2.66,0,0,1,2.65,2.6A2.61,2.61,0,0,1,94.05,212.77Z"/><path class="cls-12" d="M135.63,190.75a2.63,2.63,0,0,1-2.51,2.53,2.56,2.56,0,0,1-2.63-2.47v-.1a2.6,2.6,0,0,1,2.49-2.56A2.67,2.67,0,0,1,135.63,190.75Z"/><path class="cls-12" d="M145.35,190.68a2.55,2.55,0,0,1-2.46,2.6,2.61,2.61,0,0,1-2.68-2.54v-.05a2.68,2.68,0,0,1,2.58-2.54A2.58,2.58,0,0,1,145.35,190.68Z"/><path class="cls-12" d="M155.15,190.77a2.6,2.6,0,0,1-2.57,2.51,2.55,2.55,0,0,1-2.58-2.52v-.17a2.57,2.57,0,0,1,1.65-2.26l2.89.84A2.42,2.42,0,0,1,155.15,190.77Z"/><path class="cls-12" d="M164.5,192.05a1.27,1.27,0,0,1-.13.19,1.32,1.32,0,0,1-.25.28,1.85,1.85,0,0,1-.37.31,3.18,3.18,0,0,1-.4.23,1.21,1.21,0,0,1-.42.13.87.87,0,0,1-.28.05h-.3a2.62,2.62,0,0,1-1.82-.74.91.91,0,0,1-.18-.21.9.9,0,0,1-.15-.19,2.4,2.4,0,0,1-.47-1.39v-.08a1.82,1.82,0,0,1,0-.33,1,1,0,0,0,0,.25v.09Z"/><path class="cls-12" d="M123.33,193.28a2.61,2.61,0,0,1-2.64-2.44,2.67,2.67,0,0,1,2.6-2.69,2.59,2.59,0,0,1,2.54,2.56A2.55,2.55,0,0,1,123.33,193.28Z"/><path class="cls-12" d="M113.46,188.15a2.66,2.66,0,0,1,2.63,2.47,2.61,2.61,0,0,1-2.54,2.66h-.06a2.57,2.57,0,0,1,0-5.13Z"/><path class="cls-12" d="M106.3,190.67a2.55,2.55,0,0,1-2.45,2.6,2.6,2.6,0,0,1-2.69-2.49v-.08a2.68,2.68,0,0,1,2.57-2.55A2.61,2.61,0,0,1,106.3,190.67Z"/><path class="cls-12" d="M96.58,190.77A2.63,2.63,0,0,1,94,193.28a2.56,2.56,0,0,1,.08-5.12A2.67,2.67,0,0,1,96.58,190.77Z"/><path class="cls-12" d="M123.25,203a2.6,2.6,0,0,1-2.57-2.5,2.68,2.68,0,0,1,2.69-2.6,2.6,2.6,0,0,1,2.46,2.62,2.53,2.53,0,0,1-2.58,2.48Z"/><path class="cls-12" d="M133,203a2.52,2.52,0,0,1-2.48-2.56h0a2.6,2.6,0,0,1,2.54-2.54,2.69,2.69,0,0,1,2.6,2.7A2.61,2.61,0,0,1,133,203Z"/><path class="cls-12" d="M145.35,200.51a2.52,2.52,0,0,1-2.54,2.5h0a2.6,2.6,0,0,1-2.59-2.48,2.68,2.68,0,0,1,2.67-2.62A2.58,2.58,0,0,1,145.35,200.51Z"/><path class="cls-12" d="M152.49,197.9a2.68,2.68,0,0,1,2.66,2.45,2.57,2.57,0,0,1-2.4,2.65,2.53,2.53,0,0,1-2.73-2.31,1.09,1.09,0,0,1,0-.18A2.61,2.61,0,0,1,152.49,197.9Z"/><path class="cls-12" d="M162.3,197.9a2.61,2.61,0,0,1,2.58,2.51,2.53,2.53,0,0,1-2.44,2.6h0a2.59,2.59,0,0,1-2.7-2.48v-.07A2.68,2.68,0,0,1,162.3,197.9Z"/><path class="cls-12" d="M113.51,197.9a2.68,2.68,0,0,1,2.59,2.53,2.59,2.59,0,0,1-2.6,2.58h-.07a2.52,2.52,0,0,1-2.47-2.57h0A2.61,2.61,0,0,1,113.51,197.9Z"/><path class="cls-12" d="M103.66,203a2.59,2.59,0,0,1-2.5-2.57,2.7,2.7,0,0,1,2.57-2.54,2.58,2.58,0,0,1,2.56,2.62v.08a2.51,2.51,0,0,1-2.61,2.41Z"/><path class="cls-12" d="M96.57,200.43A2.59,2.59,0,0,1,94.09,203a2.53,2.53,0,0,1-2.65-2.39h0a2.6,2.6,0,0,1,2.49-2.71H94A2.68,2.68,0,0,1,96.57,200.43Z"/><path class="cls-10" d="M67,257.34c1.07.67.82,1.09.08,1.72a2.62,2.62,0,0,0,0,3.39c.22.25.51.61.28.83-1,1-.64,3.1-2.61,3.38a.75.75,0,0,0-.63.78c0,.74.08,1.38-.93,1.61-.45.11,0,.6.17.88s.28.59,0,.87a.57.57,0,0,1-.77,0,9,9,0,0,0-1.22-.46c-.74-.37-1.19-.24-1.5.54s-.65.93-1.22.28c-.35-.4-.73-.22-1.09-.05-1.08.49-2.11.72-3-.37-.16-.19-.32-.21-.49,0a1.41,1.41,0,0,1-.23.26c-1.25-1-2.21,1.09-3.45.32-.37-.23-.54.17-.7.46a1,1,0,0,1-1.3.55l-.1,0c-.62-.34-.56-.9-.34-1.47s.5-.87.38-1.36,0-1.41-1.08-.93a.72.72,0,0,1-1-.36.67.67,0,0,1,0-.46,2.71,2.71,0,0,0-.49-2.44c-.71-1-.65-2.48-1.72-3.33a.28.28,0,0,1-.12-.2,6.87,6.87,0,0,0-.64-3.4,6.61,6.61,0,0,1-.3-.85c-.19-.57-1-1.14-.3-1.85-.58-.46-.66-1.27-1.2-1.74s-.89-.59-.43-1.24c.21-.3-.13-.28-.29-.32s-.42-.28-.24-.41c.77-.56.8-1.36.94-2.18.09-.52.71-.57,1.2-.62s.89,0,.76-.62-.1-1.19-.8-1.15c-.87,0-1-.32-.75-1a.68.68,0,0,0-.19-.66c-.68-.76-.27-1.53-.26-2.38a17.71,17.71,0,0,1,.21-3.85c.18-.77-.17-1.53.8-2,.62-.31.57-.89,0-1.21-1.27-.67-1.06-1.18.07-1.73a.6.6,0,0,0,.36-.78.31.31,0,0,0-.06-.13c-.67-1.17-.08-1.94.77-2.69.35-.3,1.23-.65.1-1.2-.34-.16-.13-.58.16-.79s.61-.37.9-.59a.52.52,0,0,0,.25-.62c-.09-.24-.32-.18-.51-.15a.8.8,0,0,1-1-.56.29.29,0,0,1,0-.09.89.89,0,0,1,.61-1.1h.05c.72-.29.83-1.07,1.2-1.52.81-1,.51-1.59.11-2.47a1.83,1.83,0,0,1,.09-1.22c.42-.73.06-1.07-.3-1.61-.58-.88.54-.81.84-1.17,0-.41-.35-.43-.54-.61s-.31-.67,0-.67c.76,0,1.25-.78,2-.64,1,.19,1.42-.27,1.65-1.11s.68-1.21,1.4-.41,1.27-.32,1.86.33c0-.53-.34-.7-.49-1s-.51-.59-.27-1,.54-.28.86-.19c.52.15.76-.43,1.42-.39a3.61,3.61,0,0,1,2.38.82c.3.26.45,0,.64-.23.69-.88,1.27-.92,1.83,0,.25.37.38.42.72.2a.73.73,0,0,1,1,.07l0,0a1.16,1.16,0,0,1,0,1.25c-.18.43-1,.79-.65,1.14.56.56.83,1.37,1.56,1.75a2.91,2.91,0,0,1,.83.45c.59.6,1,.57,1.33-.23.18-.44.66-.56,1-.81s.67-.38,1-.09-.12.58-.19.88A5.06,5.06,0,0,1,64,219.65a.41.41,0,0,0-.14.54c.14.23.35.14.52.05,1.24-.68,1.39.7,2,1.14.32.25-.35.56-.73.63-.93.18-1.93,0-2.79.51-.1.06-.19.13-.43.31A4.63,4.63,0,0,1,65,223.92c.44.42.79,0,1-.39s.47-.72,1-.49.35.65.23,1-.08.61-.24.8c-.89,1-1.63,2-.4,3.24-.63,1.11.24,1.69.83,2.39a1,1,0,0,1,0,1.14c-.15.33-.65.68-.16,1s.75,0,1.07-.29c.15-.12.27-.29.55-.21.11.87-1.21,1.07-1,1.71.28.93-.57,1.25-.76,2,2-.07,2.49,1.82,3.68,2.79.56.45-.62.72-.81,1.18s1.23.49.57,1.24c-.35.39-1,.34-1.45.51-.21.08-.5.14-.5.44s.23.29.42.35h.11c1.09.16-.2,1.21.48,1.39,1,.28.48.7.41,1.34a2.06,2.06,0,0,1-1.54,2.07c-.51.17-.41.67-.13,1a11.47,11.47,0,0,1,1.19,2c.46.81,1,1.46-.26,2-.31.13-.24.38-.07.58.61.73.25,1.42,0,2.14s-1,1.1-.15,1.83c.25.23-.15.48-.44.5s-.85,0-1.5,0"/><path class="cls-10" d="M230.89,277.32c-.15-.35-.68-.47-.45-.69.41-.39.7.19,1.12.4,0-.61.3-.77.81-.62s.31-.17.33-.38-.1-.53.18-.65.36.26.54.34a2.24,2.24,0,0,0,1.19.27c.51-.09,1.17,0,1.45-.69.14-.34.41-.21.55,0s.39.37.65,0,.4-.4.83-.07a3.12,3.12,0,0,0,1.44.35,2.29,2.29,0,0,1,1.68.82,1.32,1.32,0,0,0,.87.54,11.55,11.55,0,0,1,2.18.84,3,3,0,0,1,1.06.88c1,1,.51,2.47,1.34,3.47v.13c.13.55,1,.47,1,.95s-.25.88.09,1.31a.36.36,0,0,1,0,.48,2.09,2.09,0,0,0,.19,2.95l.06.05a1.21,1.21,0,0,1,.19,1.7,1.24,1.24,0,0,1-.5.37.72.72,0,0,0-.41.69c0,.54.06,1.08.09,1.62a3.44,3.44,0,0,1-2.11,3.38.27.27,0,0,0-.23.13c-.42.79-1.24.39-1.78.64a13.43,13.43,0,0,0-1.62.55.69.69,0,0,1-.84,0,1.13,1.13,0,0,0-1.22-.1,3.5,3.5,0,0,1-2.8.18,1.7,1.7,0,0,0-1,0,7,7,0,0,1-4.1-.43c-1-.42-2.1-.08-2.86-.92-.6.64-1-.55-1.69-.15-.33.19-.47-.48-.64-.79a6.77,6.77,0,0,0-1.17-1.9c-.08-.08-.18-.27-.14-.35a1.49,1.49,0,0,0,0-1.42c-.29-.45-.28-1-.56-1.39a.47.47,0,0,1,0-.67l0,0c.27-.3-.05-.75,0-1.14s-.09-.51.26-.65,0-.28,0-.43c-.07-.39-.29-.78.34-1a.85.85,0,0,0,.44-1.1,1.36,1.36,0,0,1,.44-1.69.85.85,0,0,0,.33-.4,3.27,3.27,0,0,1,2-2.37.78.78,0,0,0,.37-.59,1.51,1.51,0,0,1,.88-1.17c.25-.1.53-.33.47-.59-.14-.63.24-.64.71-.61"/><path class="cls-10" d="M288.89,225c-.15-.35-.68-.47-.45-.69.41-.39.7.19,1.12.4,0-.61.3-.77.81-.62s.31-.17.33-.38-.1-.53.18-.66.36.27.54.35a2.24,2.24,0,0,0,1.19.27c.51-.09,1.17,0,1.45-.69.14-.34.41-.21.55,0s.39.37.65,0,.4-.4.83-.07a3.12,3.12,0,0,0,1.44.35,2.28,2.28,0,0,1,1.68.81,1.27,1.27,0,0,0,.87.55,11.55,11.55,0,0,1,2.18.84,2.89,2.89,0,0,1,1.06.87c.95,1,.51,2.48,1.34,3.48V230c.13.56.95.48,1,.95s-.25.89.09,1.32a.36.36,0,0,1,0,.48,2.09,2.09,0,0,0,.19,2.95l.06.05a1.21,1.21,0,0,1,.19,1.7,1.24,1.24,0,0,1-.5.37.72.72,0,0,0-.41.69c.05.54.06,1.08.09,1.62a3.44,3.44,0,0,1-2.11,3.38.27.27,0,0,0-.23.13c-.42.79-1.24.38-1.78.63a16.21,16.21,0,0,0-1.62.55.68.68,0,0,1-.84-.05,1.15,1.15,0,0,0-1.22-.09,3.5,3.5,0,0,1-2.8.18,1.7,1.7,0,0,0-1,0,7,7,0,0,1-4.1-.43c-.95-.42-2.1-.08-2.86-.92-.6.64-1-.55-1.69-.16-.33.2-.47-.48-.64-.78a6.77,6.77,0,0,0-1.17-1.9c-.08-.08-.18-.28-.14-.35a1.49,1.49,0,0,0,0-1.42c-.29-.45-.28-1-.56-1.4a.46.46,0,0,1,0-.65l0,0c.27-.3-.05-.75,0-1.15s-.09-.5.26-.65,0-.27,0-.42c-.07-.39-.29-.79.34-1a.85.85,0,0,0,.44-1.1,1.36,1.36,0,0,1,.44-1.69c.13-.12.29-.22.33-.4a3.27,3.27,0,0,1,2-2.37.78.78,0,0,0,.37-.59,1.51,1.51,0,0,1,.88-1.17c.25-.1.53-.33.47-.59-.14-.63.24-.64.71-.61"/></g></g></svg>