<svg xmlns="http://www.w3.org/2000/svg" viewBox="0 0 1528 1058"><title>home page clouds</title><path d="M766,437c0,119.84-97.15,217-217,217A217.18,217.18,0,0,1,336.57,392.5c.3-1.46.62-2.92,1-4.37,1.9,1.43,3.77,2.88,5.62,4.37H761.43A217.47,217.47,0,0,1,766,437Z" fill="#fff"/><path d="M1518.5,392.5v15.29a326.52,326.52,0,0,1-41.78,97.66A328.9,328.9,0,0,1,1199,658c-160,0-293.29-114.18-322.87-265.5Z" fill="#fff"/><path d="M1449,646a73,73,0,1,1,73-73,73,73,0,0,1-73,73Z" fill="#fff"/><path d="M422,557A210.63,210.63,0,0,1,318.5,738.6V392.5h18.07c.3-1.46.62-2.92,1-4.37,1.9,1.43,3.77,2.88,5.62,4.37A210.62,210.62,0,0,1,422,557Z" fill="#fff"/><path d="M1518.5,407.79A329.43,329.43,0,0,0,1528,329v729H0V557C0,673.53,94.47,768,211,768a210,210,0,0,0,107.5-29.4V392.5h18.07c.3-1.46.62-2.92,1-4.37,1.9,1.43,3.77,2.88,5.62,4.37H761.43C740.9,294,653.6,220,549,220c-103,0-189.31,71.82-211.47,168.13A210.14,210.14,0,0,0,211,346C94.47,346,0,440.47,0,557V0H1199C1017.3,0,870,147.3,870,329a330.43,330.43,0,0,0,6.13,63.5H1518.5Z" fill="none"/><path d="M1528,0V329c0-181.7-147.3-329-329-329Z" fill="none"/></svg>