<svg xmlns="http://www.w3.org/2000/svg" viewBox="0 0 167.28 240.69"><title>Pink House</title><polygon points="164.67 202.62 164.67 59.62 116.67 1.62 51.67 21.62 2.67 60.62 3.67 202.62 39.67 239.62 164.67 202.62" fill="#f4f0ea"/><path d="M164.7,59,40,95.07l124.23-36a.39.39,0,0,1,.49.37V202.94L40,239.23,28.31,227.56,3.69,202.94,2.59,60.6,52.26,21.41,40,95.07,164.7,59,127.76,24.54,2.59,60.6,40,95.07V239.23" fill="none" stroke="#f6a299" stroke-miterlimit="10" stroke-width="2.61"/><polyline points="164.7 57.82 116.69 1.62 52.26 21.41" fill="none" stroke="#f6a299" stroke-miterlimit="10" stroke-width="2.82"/><line x1="127.76" y1="24.54" x2="116.69" y2="1.62" fill="none" stroke="#f6a299" stroke-miterlimit="10" stroke-width="2.82"/><line x1="39.98" y1="193.18" x2="164.7" y2="156.9" fill="none" stroke="#f6a299" stroke-miterlimit="10" stroke-width="2.82"/><line x1="39.98" y1="148.46" x2="164.7" y2="112.18" fill="none" stroke="#f6a299" stroke-miterlimit="10" stroke-width="2.82"/><line x1="39.98" y1="104.42" x2="128.52" y2="78.66" fill="none" stroke="#f6a299" stroke-miterlimit="10" stroke-width="2.82"/><line x1="2.7" y1="75.23" x2="11.9" y2="69.19" fill="none" stroke="#f6a299" stroke-miterlimit="10" stroke-width="1.79"/><line x1="2.59" y1="81.73" x2="16.62" y2="73.54" fill="none" stroke="#f6a299" stroke-miterlimit="10" stroke-width="1.79"/><line x1="2.59" y1="88.86" x2="21.07" y2="77.64" fill="none" stroke="#f6a299" stroke-miterlimit="10" stroke-width="1.79"/><line x1="24.49" y1="80.79" x2="2.85" y2="94.64" fill="none" stroke="#f6a299" stroke-miterlimit="10" stroke-width="1.79"/><line x1="2.85" y1="68.13" x2="7.3" y2="64.95" fill="none" stroke="#f6a299" stroke-miterlimit="10" stroke-width="1.79"/><line x1="2.9" y1="101.2" x2="28.07" y2="84.09" fill="none" stroke="#f6a299" stroke-miterlimit="10" stroke-width="1.79"/><line x1="2.59" y1="107.48" x2="32" y2="87.72" fill="none" stroke="#f6a299" stroke-miterlimit="10" stroke-width="1.79"/><line x1="2.85" y1="114.58" x2="36.16" y2="91.56" fill="none" stroke="#f6a299" stroke-miterlimit="10" stroke-width="1.79"/><line x1="2.9" y1="126.52" x2="39.98" y2="101.2" fill="none" stroke="#f6a299" stroke-miterlimit="10" stroke-width="1.79"/><line x1="2.9" y1="120.14" x2="39.98" y2="94.82" fill="none" stroke="#f6a299" stroke-miterlimit="10" stroke-width="1.79"/><line x1="3.05" y1="132.85" x2="39.98" y2="107.7" fill="none" stroke="#f6a299" stroke-miterlimit="10" stroke-width="1.79"/><line x1="3.05" y1="139" x2="39.98" y2="114.58" fill="none" stroke="#f6a299" stroke-miterlimit="10" stroke-width="1.79"/><line x1="3.05" y1="145.15" x2="39.98" y2="120.32" fill="none" stroke="#f6a299" stroke-miterlimit="10" stroke-width="1.79"/><line x1="3.29" y1="150.94" x2="39.98" y2="125.8" fill="none" stroke="#f6a299" stroke-miterlimit="10" stroke-width="1.79"/><line x1="3.33" y1="156.01" x2="39.98" y2="131.78" fill="none" stroke="#f6a299" stroke-miterlimit="10" stroke-width="1.79"/><line x1="3.05" y1="162.58" x2="39.98" y2="138.37" fill="none" stroke="#f6a299" stroke-miterlimit="10" stroke-width="1.79"/><line x1="3.05" y1="168.44" x2="39.98" y2="145.15" fill="none" stroke="#f6a299" stroke-miterlimit="10" stroke-width="1.79"/><line x1="3.05" y1="174.44" x2="39.98" y2="151.66" fill="none" stroke="#f6a299" stroke-miterlimit="10" stroke-width="1.79"/><line x1="2.9" y1="180.57" x2="39.98" y2="158.72" fill="none" stroke="#f6a299" stroke-miterlimit="10" stroke-width="1.79"/><line x1="3.56" y1="186.17" x2="39.98" y2="165.91" fill="none" stroke="#f6a299" stroke-miterlimit="10" stroke-width="1.79"/><line x1="3.56" y1="191.76" x2="39.98" y2="172.04" fill="none" stroke="#f6a299" stroke-miterlimit="10" stroke-width="1.79"/><line x1="3.65" y1="197.49" x2="39.98" y2="178.44" fill="none" stroke="#f6a299" stroke-miterlimit="10" stroke-width="1.79"/><line x1="3.69" y1="202.94" x2="39.98" y2="184.7" fill="none" stroke="#f6a299" stroke-miterlimit="10" stroke-width="1.79"/><line x1="7.5" y1="206.75" x2="39.98" y2="190.96" fill="none" stroke="#f6a299" stroke-miterlimit="10" stroke-width="1.79"/><line x1="11.3" y1="210.55" x2="39.98" y2="196.96" fill="none" stroke="#f6a299" stroke-miterlimit="10" stroke-width="1.79"/><line x1="14.83" y1="214.08" x2="39.98" y2="202.94" fill="none" stroke="#f6a299" stroke-miterlimit="10" stroke-width="1.79"/><line x1="18.49" y1="217.74" x2="39.98" y2="208.51" fill="none" stroke="#f6a299" stroke-miterlimit="10" stroke-width="1.79"/><line x1="22.56" y1="221.81" x2="39.15" y2="214.08" fill="none" stroke="#f6a299" stroke-miterlimit="10" stroke-width="1.79"/><line x1="24.73" y1="225.67" x2="41.32" y2="217.94" fill="none" stroke="#f6a299" stroke-miterlimit="10" stroke-width="1.79"/><polyline points="144.59 185.41 155.64 196.8 155.29 163.3 144.55 153.92 144.33 186.27" fill="none" stroke="#f6a299" stroke-miterlimit="10" stroke-width="1.79"/><line x1="30.23" y1="229.48" x2="39.98" y2="224.74" fill="none" stroke="#f6a299" stroke-miterlimit="10" stroke-width="1.79"/><line x1="33.69" y1="232.94" x2="39.98" y2="230.12" fill="none" stroke="#f6a299" stroke-miterlimit="10" stroke-width="1.79"/><polygon points="30.85 66.54 45.18 78.97 65.14 72.21 52.26 60.79 30.85 66.54" fill="none" stroke="#f6a299" stroke-miterlimit="10" stroke-width="1.79"/><polyline points="60.17 122.29 46.67 93.13 52.58 91.42 68.21 126.79" fill="none" stroke="#f6a299" stroke-miterlimit="10" stroke-width="1.79"/><line x1="57.44" y1="116.06" x2="66.57" y2="123.42" fill="none" stroke="#f6a299" stroke-miterlimit="10" stroke-width="2.05"/><line x1="53.87" y1="108.01" x2="63.6" y2="115.85" fill="none" stroke="#f6a299" stroke-miterlimit="10" stroke-width="2.05"/><line x1="50" y1="100.16" x2="59.73" y2="108.01" fill="none" stroke="#f6a299" stroke-miterlimit="10" stroke-width="2.05"/><line x1="47.88" y1="92.71" x2="56.18" y2="99.4" fill="none" stroke="#f6a299" stroke-miterlimit="10" stroke-width="2.05"/><line x1="36.41" y1="68.13" x2="44.71" y2="74.82" fill="none" stroke="#f6a299" stroke-miterlimit="10" stroke-width="2.05"/><line x1="47.36" y1="78.18" x2="44.19" y2="71.45" fill="none" stroke="#f6a299" stroke-miterlimit="10" stroke-width="2.05"/><line x1="37.82" y1="72.17" x2="33.94" y2="64.1" fill="none" stroke="#f6a299" stroke-miterlimit="10" stroke-width="2.05"/><line x1="164.52" y1="203.25" x2="126.9" y2="168.46" fill="none" stroke="#f6a299" stroke-miterlimit="10" stroke-width="2.8"/><line x1="164.52" y1="157.64" x2="126.9" y2="122.85" fill="none" stroke="#f6a299" stroke-miterlimit="10" stroke-width="2.8"/><line x1="164.52" y1="113.45" x2="126.9" y2="78.66" fill="none" stroke="#f6a299" stroke-miterlimit="10" stroke-width="2.8"/><line x1="128.52" y1="78.66" x2="128.52" y2="69.88" fill="none" stroke="#f6a299" stroke-miterlimit="10" stroke-width="2.82"/><path d="M113.19,101.48a5.8,5.8,0,0,0-1.1.13,2,2,0,0,0-.74.32c-.43.27-.86.51-1.26.82a3.35,3.35,0,0,0-1.18,2.32,6.66,6.66,0,0,0,0,2.74,3.33,3.33,0,0,0,1.44,1.88c.39.23.72.51,1.12.71a8.5,8.5,0,0,0,1.31.57,4.92,4.92,0,0,0,2.69-.06,7.61,7.61,0,0,0,1-.35,4.9,4.9,0,0,0,.9-.57,10.29,10.29,0,0,0,1.38-1.34,4.17,4.17,0,0,0,.91-1.5c.07-.23.15-.47.2-.7a3.32,3.32,0,0,0,0-.63,3.25,3.25,0,0,0-.4-1.35,10.72,10.72,0,0,0-.64-1,3.6,3.6,0,0,0-.92-1c-.28-.21-.65-.31-.67-.69,0-.15,0-.3,0-.45s-.11-.61-.15-.9a2.2,2.2,0,0,0-.39-.87,1.66,1.66,0,0,0-.69-.56,1.74,1.74,0,0,0-1.66.34,3.26,3.26,0,0,0-.84,1.22,5.93,5.93,0,0,0-.26.63.78.78,0,0,1-.08.23s-.11.21-.06.18" fill="#f6a299"/><path d="M113.19,101.09c-3.69.25-6.5,4.68-4.08,8a6.23,6.23,0,0,0,9.32.56c1.16-1.13,2.16-2.56,1.83-4.25a6.37,6.37,0,0,0-1.43-2.64,5.68,5.68,0,0,1-1.28-2.41c-.92-3.17-4.37-1.43-4.74,1.17-.08.5.68.71.76.21.16-1.15,2.65-2.23,3.22-1.17.46.86,0,1.14.42,1.86s1.24,1.06,1.69,1.77c1.09,1.72.49,3.29-.8,4.68a5.23,5.23,0,0,1-7,.88,4.29,4.29,0,0,1,2.08-7.85c.5,0,.5-.82,0-.78Z" fill="#f6a299"/><path d="M115.68,93.56c-.05.13-.33.12-.46.17l-.21.11a.81.81,0,0,0-.32.34,1.48,1.48,0,0,1-.25.25,2.22,2.22,0,0,0-.36.8,2.81,2.81,0,0,0,0,.82,1.34,1.34,0,0,0,.8,1.15,2.76,2.76,0,0,0,1.92-.09,1.83,1.83,0,0,0,1.26-1,1.2,1.2,0,0,0-.31-1.26,2.38,2.38,0,0,0-.48-.52,2.87,2.87,0,0,0-.5-.36c-.33-.15-.93-.41-1.19,0" fill="#f6a299"/><path d="M115.4,93.28c-.18.15-.52.15-.73.32a4.22,4.22,0,0,0-.53.59,2.72,2.72,0,0,0-.48,2c.25,1.49,1.9,1.69,3.09,1.29s2.25-1.43,1.44-2.7c-.51-.82-2-2.1-2.92-1.21-.38.35.18.91.55.56s1.62.84,1.77,1.2c.45,1.05-1.15,1.55-1.91,1.56a1.3,1.3,0,0,1-1-2.13,3.27,3.27,0,0,1,.54-.63c.25-.17.52-.14.75-.35.39-.32-.17-.88-.55-.55Z" fill="#f6a299"/><path d="M110.58,101.24l0,0,1.06.14c-.41-.52-.77-1.08-1.19-1.6A10.18,10.18,0,0,1,109.13,98c-.51-1-2-.13-1.52.88a12.43,12.43,0,0,0,1.4,2c.47.58.88,1.21,1.34,1.79a.86.86,0,0,0,1.06.13l0,0c.9-.67,0-2.19-.88-1.52Z" fill="#f6a299"/><path d="M119.77,103.6c.38-.55.75-1.06,1.18-1.58.21-.27.44-.54.65-.82s.35-.66.58-.94a.88.88,0,0,0-1.06-1.38l.26-.07c-1.11.12-1.12,1.87,0,1.75a1.79,1.79,0,0,0,.63-.17L121,99c-.51.61-.87,1.32-1.38,1.93a21.68,21.68,0,0,0-1.31,1.76c-.63.94.89,1.82,1.51.89Z" fill="#f6a299"/><path d="M110.41,110.5c.55-.53.67-.75.38-.64l-.15,0-.23,0a3.15,3.15,0,0,1-.47.07,5,5,0,0,1-.67,0,8,8,0,0,0-1.11.13c-1.09.12-1.15,1.76,0,1.75h.11a.88.88,0,0,0,0-1.75h-.11v1.75c.26,0,.52-.1.78-.13s.58,0,.87,0a5.74,5.74,0,0,0,.82-.1c.64-.1,1.58-.34,1.53-1.18-.06-1.12-1.81-1.13-1.75,0Z" fill="#f6a299"/><path d="M114.78,110.5a9.58,9.58,0,0,0-2.8,2.94l1.6.21v-.11l-.09.68.07-.1a.87.87,0,0,0-.32-1.19.89.89,0,0,0-1.19.31,1,1,0,0,0-.14.88c.11.77,1.24.8,1.6.21a6.32,6.32,0,0,1,1-1.24,6.58,6.58,0,0,1,1.16-1.08c.94-.62.06-2.13-.88-1.51Z" fill="#f6a299"/><path d="M86,120.3c.39.37.79.71,1.16,1.12.18.19.34.4.51.6s.36.32.4.39L87.9,122V122c0,1.13,1.8,1.13,1.75,0,0-.66-.62-1.05-1-1.53a13.23,13.23,0,0,0-1.45-1.45c-.82-.76-2.06.47-1.23,1.24Z" fill="#f6a299"/><path d="M80.24,92.66a1.28,1.28,0,0,1-.35.07,1.67,1.67,0,0,0-.57.23,2.09,2.09,0,0,0-.92,1,3.13,3.13,0,0,0-.16,1.74,1.62,1.62,0,0,0,1,1.29,2.16,2.16,0,0,0,1.44,0,3.83,3.83,0,0,0,.79-.38,1.84,1.84,0,0,0,.66-.5,4.1,4.1,0,0,0,.66-1.42,1.58,1.58,0,0,0,0-1,1.15,1.15,0,0,0-.28-.4,4.23,4.23,0,0,0-.42-.25,1.84,1.84,0,0,0-.76-.28c-.12,0-.24,0-.37,0a3.24,3.24,0,0,0-.33-.13,4.85,4.85,0,0,0-.66,0" fill="#f6a299"/><path d="M80.14,92.28a2.85,2.85,0,0,0-2.35,3.13,2.21,2.21,0,0,0,3.12,1.92,3.4,3.4,0,0,0,2.34-3.47c-.23-1.4-2.15-1.7-3.29-1.67-.51,0-.51.81,0,.79a3.8,3.8,0,0,1,2,.43c1.06.85,0,2.48-.85,3-1.2.63-2.58.34-2.57-1.24A2.06,2.06,0,0,1,80.35,93a.39.39,0,0,0-.21-.76Z" fill="#f6a299"/><path d="M81.76,101.85v-.07a1.8,1.8,0,0,0-.52,0,1.89,1.89,0,0,0-.8.2,4,4,0,0,0-1.85,1.53,7.15,7.15,0,0,0-.86,3.4,19.61,19.61,0,0,0,.27,4.59,13.54,13.54,0,0,0,.72,2.56c.16.4.27.81.46,1.2s.47.83.71,1.23a7.49,7.49,0,0,0,.62,1,4.17,4.17,0,0,0,.67.59c.38.28.84.39,1.24.64a3.51,3.51,0,0,0,.92.38,5.32,5.32,0,0,0,1.18.27,3.45,3.45,0,0,0,2.27-.68,8.63,8.63,0,0,0,.86-.85,1.36,1.36,0,0,0,.3-.6,2.9,2.9,0,0,0,.15-.88c0-.13.16-.55,0-.57" fill="#f6a299"/><path d="M82.14,101.74v-.06a.39.39,0,0,0-.38-.29c-7-.17-4.31,11.55-2.4,15,1.12,2,3.6,3.82,6.07,3.35,1.75-.34,3.51-2.13,3-4-.12-.49-.88-.28-.76.21q.17,2.75-4.28,2.83a5.52,5.52,0,0,1-3.21-2.45,11.22,11.22,0,0,1-1.44-3.17,17.4,17.4,0,0,1-.67-3.91c0-.77,0-1.53,0-2.3,0-2.58,1-4.22,3.27-5,.11.5.87.29.76-.21Z" fill="#f6a299"/><path d="M81.76,101.08l-.07,0a.89.89,0,0,0-.39,1.46c1.31,1.65,1.66,4.8,2.43,6.81a16.14,16.14,0,0,0,1.33,2.82c.67,1.07,2.15,2.57,2.31,3.83s1.88,1.12,1.75,0a7.78,7.78,0,0,0-1.73-3.48,21.8,21.8,0,0,1-2.28-4.49c-.85-2.21-1.07-4.84-2.57-6.73l-.38,1.46h.06c1.11-.24.64-1.92-.46-1.69Z" fill="#f6a299"/><path d="M88,117.47a7.27,7.27,0,0,0,1.72.45c.6.16,1.16.41,1.76.56l-.61-.61v.06c.2,1.11,1.89.64,1.69-.46l0-.07a.86.86,0,0,0-.61-.61c-.56-.14-1.1-.36-1.66-.53-.27-.08-.55-.09-.83-.15S89.14,116,89,116s-.44-.18-.17,0c-1-.53-1.88,1-.89,1.52Z" fill="#f6a299"/><path d="M82.64,105.51c0,.74.53,1,1.11,1.32s1.26,1,1.93.9.77-.87,1.17-1.37c.22-.28.42-.6.66-.86s.48-.43.59-.83a.88.88,0,0,0-1.69-.46c0-.16.17-.18,0,0a1,1,0,0,0-.22.19c-.21.23-.35.52-.56.77a4.57,4.57,0,0,0-.51.71,1.7,1.7,0,0,0-.14.35c0,.31-.13.09.17-.06l.67-.09a5.28,5.28,0,0,1-.89-.56c-.13-.08-.26-.14-.4-.21-.38-.18-.13-.19-.12.25a.88.88,0,0,0-1.75,0Z" fill="#f6a299"/><path d="M102.38,147.67a9.25,9.25,0,0,0-.14-1.29,6.35,6.35,0,0,0-.29-1.14,8.41,8.41,0,0,0-.47-1.17c-.42-.85-1.2-1.37-2.06-.76a2.19,2.19,0,0,0-.86,2c0,.71,0,1.42,0,2.12a13.42,13.42,0,0,1-.28,2.44,8,8,0,0,1-.34,1.28,10.42,10.42,0,0,0-.42,2c-.08.53-.24,1-.32,1.58s0,.78,0,1.17a9.56,9.56,0,0,0-.11,1.2,9.13,9.13,0,0,0,.25,3.42,6.64,6.64,0,0,0,1.78,2.88,5.76,5.76,0,0,0,1,.63,4.51,4.51,0,0,0,1.37.16,3.89,3.89,0,0,0,1.13.13c.41-.06.62-.4.91-.64a2.13,2.13,0,0,0,.71-.86c.13-.27.27-.55.38-.82a6.14,6.14,0,0,0,.53-2.34v-1.07a11.89,11.89,0,0,0-.11-1.35c-.1-.82-.31-1.61-.49-2.42-.07-.32-.19-.63-.27-.95a8,8,0,0,0-.23-1.08,6.19,6.19,0,0,1-.32-.85c-.07-.27-.13-.52-.22-.78s-.08-.37-.13-.54-.17-.49-.26-.73-.26-.68-.35-1c0-.16,0-.32-.05-.48a3.3,3.3,0,0,0-.19-.43" fill="#f6a299"/><path d="M102.78,147.67c-.14-1.81-2.35-7.85-4.41-3.63-.59,1.19-.18,3.36-.33,4.58-.25,2-1,4-1.22,6-.31,2.58-.55,5.35.86,7.65,1.86,3,5.79,3.37,7.27-.07,1.75-4.06-.35-10.58-2.09-14.43-.21-.46-.89-.06-.68.4,1.47,3.26,5.3,15.77-.7,15.63s-3.87-9.2-3.16-12.52a27.09,27.09,0,0,1,.64-3.83c-.33-1.51.54-2.22,2.61-2.11a8.4,8.4,0,0,1,.42,2.33c0,.5.83.5.79,0Z" fill="#f6a299"/><path d="M99.58,136.36c-.4-.08-.84.53-1,.82a3.69,3.69,0,0,0-.44,1.14,1.37,1.37,0,0,0,.25,1.36,2.29,2.29,0,0,0,1.82.6,1.22,1.22,0,0,0,.78-.12,2.55,2.55,0,0,0,.64-.71,2.64,2.64,0,0,0,.09-1.55,3.12,3.12,0,0,0-.86-1.42c-.37-.38-.88-.25-1.39-.25" fill="#f6a299"/><path d="M99.58,136c-1.21,0-1.92,1.83-1.93,2.84,0,1.49,1.54,1.91,2.75,1.88a2,2,0,0,0,1.74-2.51,3.1,3.1,0,0,0-.78-1.7,2,2,0,0,0-1.91-.63.39.39,0,0,0,0,.78c.51,0,.87-.1,1.27.31a2.41,2.41,0,0,1,.6,1.08c.18.76,0,1.75-.92,1.88-.75.1-1.94-.14-2-1.09,0-.51.45-2,1.14-2.05a.4.4,0,0,0,0-.79Z" fill="#f6a299"/><path d="M104.05,151.81c-.41.21.48-.05.59-.05a2,2,0,0,1,.76.07l-1-1.29a14.64,14.64,0,0,1-.19,5.28l2.63.36v-.09c.13-1.72-2.55-1.71-2.68,0v.09c-.11,1.52,2.26,1.8,2.64.35a20.8,20.8,0,0,0,.41-2.74,14.73,14.73,0,0,0-.13-3.25,1.4,1.4,0,0,0-1-1.29,4.92,4.92,0,0,0-3.42.24c-1.52.81-.17,3.12,1.36,2.32Z" fill="#f6a299"/><path d="M98.61,150a29.78,29.78,0,0,1-2.71-1.75l.62.8c-.26-.93.43-2.7.66-3.63s.61-2.09.91-3.14a1.34,1.34,0,0,0-2.58-.72,37.54,37.54,0,0,0-1.67,7c-.18,2.08,1.86,2.87,3.42,3.75A1.34,1.34,0,0,0,98.61,150Z" fill="#f6a299"/><path d="M102.11,164.56c0,1,.38,1.93.38,2.92,0,.51.11,1,.12,1.45,0,.15,0,.32,0,.47s.15.38.13.6" fill="#f6a299"/><path d="M101,164.56c0,1.05.32,2.06.39,3.11a25.38,25.38,0,0,0,.28,2.61c.22,1.36,2.28.78,2.06-.56-.13-.8-.17-1.62-.22-2.42s-.33-1.82-.38-2.74c-.07-1.36-2.2-1.37-2.13,0Z" fill="#f6a299"/><path d="M99.7,164.31c.06.34-.25.81-.35,1.13s-.11.62-.18.92-.21.57-.29.86c-.16.55-.33,1.13-.46,1.69a14.15,14.15,0,0,1-.3,1.44.9.9,0,0,0,.06-.22" fill="#f6a299"/><path d="M98.64,164.31a8.15,8.15,0,0,1-.38,1.15c-.12.46-.22.88-.36,1.33-.35,1.08-.5,2.19-.81,3.27a1.06,1.06,0,0,0,2,.57l.07-.22c.42-1.31-1.64-1.87-2-.57l-.07.22,2,.57c.35-1.17.55-2.38.92-3.55a13,13,0,0,0,.71-2.77c.08-1.37-2-1.37-2.13,0Z" fill="#f6a299"/><path d="M78.77,160.24c-.19-.24-.57.26-.69.38s-.15.07-.21.14a1,1,0,0,0-.15.29c-.06.15-.16.32-.21.48a1.9,1.9,0,0,0,0,.34c0,.13-.06.26-.08.39s-.12.39-.15.59a4.33,4.33,0,0,1-.22,1c-.11.31-.26.61-.36.92a13.06,13.06,0,0,0-.45,1.87,9.14,9.14,0,0,0,0,1.17,9.55,9.55,0,0,0,0,1.2,4.49,4.49,0,0,0,.21,1,4.37,4.37,0,0,0,.41.77,1.22,1.22,0,0,0,.47.46c.12.07.24.17.37.23a4.48,4.48,0,0,0,3.7-.37c.1-.08.18-.18.28-.26s.22-.13.32-.21a2.41,2.41,0,0,0,.55-.6,4.8,4.8,0,0,0,.5-1.27,7.26,7.26,0,0,0,0-1.32,4.25,4.25,0,0,0-.25-1.36,9.42,9.42,0,0,0-.45-1c-.09-.2-.19-.41-.29-.6a4.78,4.78,0,0,1-.28-.61c-.38-.82-.47-1.74-.89-2.53a3.14,3.14,0,0,0-.93-1.12.89.89,0,0,0-.56-.22,1,1,0,0,0-.3,0c-.1,0-.21.17-.3.15l0-.07" fill="#f6a299"/><path d="M78.87,159.86c-.69-.11-1.17.41-1.49,1a8.18,8.18,0,0,0-.53,2.14c-.22.87-.58,1.68-.79,2.56-.63,2.61-.41,6.38,3,6.58,3.11.18,5-2.61,4.39-5.49a11.08,11.08,0,0,0-1-2.34,25.8,25.8,0,0,0-1.37-3.45,2.5,2.5,0,0,0-1.24-1.1c-.75-.25-.72-.24-.63.24-.09-.5-.85-.29-.76.21l0,.06a.39.39,0,0,0,.48.28c1.45-.57,2.63,3.62,3.11,4.76.72,1.7,1.14,3.89-.55,5.19-1.39,1.07-3.85,1.33-4.64-.7s0-4.17.62-6.11c.11-.38.4-3.18,1.16-3.06.5.08.71-.68.21-.76Z" fill="#f6a299"/><path d="M78.4,154.11c-.17,0-.42.34-.53.45a2,2,0,0,0-.36.58,2.21,2.21,0,0,0-.26,1.44,3.41,3.41,0,0,0,.24.6,1.39,1.39,0,0,0,.76.46,1.93,1.93,0,0,0,1.31.17c.94-.32,1.12-1.49,1.08-2.34a1.32,1.32,0,0,0-.3-.63,1.52,1.52,0,0,0-.73-.64,2.48,2.48,0,0,0-1.06-.24" fill="#f6a299"/><path d="M78.29,153.73a2.91,2.91,0,0,0-1.47,2.7,2.26,2.26,0,0,0,2.63,1.81c1.14-.19,1.55-1.39,1.59-2.41a2.36,2.36,0,0,0-2.49-2.26c-.51,0-.51.76,0,.78a1.59,1.59,0,0,1,1.7,1.48c0,.56-.19,1.4-.8,1.6a1.47,1.47,0,0,1-1.85-1.26c0-.45.4-1.52.9-1.68s.28-.92-.21-.76Z" fill="#f6a299"/><path d="M78.4,171.68l0-.05c-.09.09,0,.17,0,.27s-.08.18-.09.28c0,.27,0,.55,0,.81s-.08.52-.08.8c0,.13,0,.26,0,.38s-.13.31-.07.49c.07,0,.09-.15.14-.21" fill="#f6a299"/><path d="M79.42,171.4v-.05c-.28-.75-1.55-1.18-2-.26a4.42,4.42,0,0,0-.28,1.8c0,.58-.18,1.2-.14,1.77a1.08,1.08,0,0,0,1.82.75,1.58,1.58,0,0,0,.31-.42,1.1,1.1,0,0,0-.39-1.46,1.08,1.08,0,0,0-1.46.38h0l1.82.76a5.41,5.41,0,0,1,.07-.68c0-.27,0-.52,0-.79s0-.54,0-.81.09-.4.09-.62l-.15.54.06-.13-2-.25,0,.05a1.09,1.09,0,0,0,1.31.74,1.06,1.06,0,0,0,.74-1.31Z" fill="#f6a299"/><path d="M81.39,171.08a1.15,1.15,0,0,0,.07.36c.05.17.07.35.13.53s.25.6.34.9.21.6.26.89,0,.4.15.59l0,0" fill="#f6a299"/><path d="M80.32,171.08a10.16,10.16,0,0,0,.54,2,7.54,7.54,0,0,1,.29.88,2.56,2.56,0,0,0,.27,1,1.08,1.08,0,0,0,2-.26l0,0c.44-1.3-1.62-1.86-2.06-.56l0,0,2-.26c0,.16,0,.15,0-.05a2.1,2.1,0,0,0-.09-.5c-.07-.27-.16-.53-.25-.78a7.68,7.68,0,0,1-.47-1.4A1.09,1.09,0,0,0,81.39,170a1.08,1.08,0,0,0-1.07,1.06Z" fill="#f6a299"/><path d="M82.06,163.68a.15.15,0,0,1-.06.13c-.08-.22.24-.67.34-.86a9.79,9.79,0,0,0,.54-1.52c.07-.18.16-.35.23-.54s.09-.38.16-.56.26-.39.24-.53a.17.17,0,0,1-.1.07" fill="#f6a299"/><path d="M81.14,163.14l-.06.13,2,.54c0,.13-.06.08,0-.06a2.82,2.82,0,0,0,.21-.38,7.43,7.43,0,0,0,.43-1.14c.23-.72.62-1.42.79-2.15a1.08,1.08,0,0,0-1.57-1.2l-.1.07c-1.15.74-.08,2.59,1.07,1.84l.11-.07-1.57-1.2c-.19.8-.6,1.62-.87,2.4-.21.62-.74,1.2-.68,1.89.08.94,1.5,1.59,2,.54l.06-.13c.58-1.24-1.26-2.32-1.84-1.08Z" fill="#f6a299"/><path d="M76.3,165.48a2.2,2.2,0,0,0-.45.59,4.46,4.46,0,0,1-.67.94,3,3,0,0,0-.45.67,2.19,2.19,0,0,0-.3.54v-.05" fill="#f6a299"/><path d="M75.55,164.72c-.47.49-.75,1.09-1.18,1.6a5.81,5.81,0,0,0-1,1.62l2.09.28v-.05a1.07,1.07,0,1,0-2.13,0v.05a1.06,1.06,0,0,0,.92,1.05,1.09,1.09,0,0,0,1.18-.77,3.85,3.85,0,0,1,.66-.95c.34-.42.57-.94.94-1.32,1-1-.56-2.5-1.51-1.51Z" fill="#f6a299"/><path d="M67,205.94c0-.13-.06-.22-.15-.31s-.2-.24-.32-.36a2,2,0,0,0-1.13-.67,2.08,2.08,0,0,0-.66,0,1.23,1.23,0,0,0-.49.32,4,4,0,0,0-1.13,1.49c-.3.62-.68,1.2-.94,1.84-.16.41-.34.8-.47,1.23a10,10,0,0,0-.25,1.33c-.06.36-.1.72-.17,1.08a5.77,5.77,0,0,0,0,1,3.39,3.39,0,0,0,.08.9,2.23,2.23,0,0,0,.44.76,2.81,2.81,0,0,0,1.81.88c.29.07.59.08.89.13a4.94,4.94,0,0,0,.94.12,7.63,7.63,0,0,0,1.17.14,1.89,1.89,0,0,0,.57-.13c.22-.11.38-.29.6-.39s.32-.14.47-.23a1.79,1.79,0,0,0,.47-.44,2.9,2.9,0,0,0,.35-.49,2.66,2.66,0,0,0,.2-.68,3.4,3.4,0,0,0,0-1.19c-.09-.43-.14-.9-.27-1.33s-.2-1-.34-1.57-.5-.92-.6-1.44a2.67,2.67,0,0,0-.25-.63c-.09-.19-.1-.4-.19-.59a2.65,2.65,0,0,0-.62-1.14" fill="#f6a299"/><path d="M67.3,205.74a2.5,2.5,0,0,0-2.71-1.5c-1.43.44-2.26,2.64-2.79,3.83-.86,1.94-2,6,.32,7.34,2,1.21,6,1.37,7.21-1,.75-1.44.1-3.66-.33-5.08a12.12,12.12,0,0,0-1.76-4c-.32-.39-.88.17-.56.56,1,1.18,1.62,3.74,1.9,5.2.44,2.33-.25,4.36-3.12,4.25a10,10,0,0,1-1.43-.19c-2.79-.47-2.61-2.66-2.13-4.89a12.28,12.28,0,0,1,1.2-3c.61-1.19,2.61-3,3.52-1.1.22.46.9.06.68-.4Z" fill="#f6a299"/><path d="M69.31,212.78a.39.39,0,0,1,.21-.15c.12-.06.23-.14.34-.19a4.56,4.56,0,0,1,.81-.28,3.91,3.91,0,0,0,.65-.24c.08,0,.31-.18.33,0" fill="#f6a299"/><path d="M70.06,213.53a2.69,2.69,0,0,1,.81-.32c.19-.06.39-.11.58-.19,0,0,.67-.24.38-.16h-.5l-.63-.49,0,.06c.64,1.22,2.49.14,1.84-1.07a1.11,1.11,0,0,0-1.16-.59,5.15,5.15,0,0,0-.86.3,5.05,5.05,0,0,0-2,.94c-1,.93.5,2.44,1.51,1.51Z" fill="#f6a299"/><path d="M68.3,215.39c.14.28.71.28,1,.37s.64.31,1,.44l.62.25a3,3,0,0,0,.38.15" fill="#f6a299"/><path d="M67.55,216.14c.38.49,1,.48,1.51.68s1.25.62,1.91.8a1.06,1.06,0,0,0,.56-2.05,11.45,11.45,0,0,1-1.42-.61,4.55,4.55,0,0,0-.73-.27c-.09,0-.37-.12-.32-.06a1.07,1.07,0,0,0-1.51,1.51Z" fill="#f6a299"/><path d="M64.35,197.24a1.66,1.66,0,0,0-.68.33,3.8,3.8,0,0,0-.7.63,3,3,0,0,0-.46.65,1.23,1.23,0,0,0-.1.46c0,.19-.06.36-.07.54a2,2,0,0,0,.08.85,6.24,6.24,0,0,0,.49.83,1.58,1.58,0,0,0,.5.56,2.34,2.34,0,0,0,.8.29,2.82,2.82,0,0,0,1.55-.16,2.09,2.09,0,0,0,1-1.32,6.07,6.07,0,0,0,.32-1.78,2.28,2.28,0,0,0-.13-.64,2.65,2.65,0,0,0-.15-.57,1.94,1.94,0,0,0-.8-.67,1.26,1.26,0,0,0-.6-.27,2.81,2.81,0,0,0-.71,0,1.09,1.09,0,0,1-.36.06.33.33,0,0,0-.33.14" fill="#f6a299"/><path d="M64.25,196.86A3.28,3.28,0,0,0,62,200.53a2.83,2.83,0,0,0,3.75,2.12c1.65-.58,2-3.1,1.57-4.57a2.47,2.47,0,0,0-3.55-1.19c-.4.31.16.87.55.56a2.37,2.37,0,0,1,.78-.11,1.71,1.71,0,0,1,1.52,1.24c.39,1.18-.17,3.14-1.49,3.4-2.74.55-3.12-3.68-.64-4.36a.39.39,0,0,0-.21-.76Z" fill="#f6a299"/><path d="M66.76,211.15h-.11c.23,0,.46,0,.71-.06.54,0,1.07-.1,1.61-.14.91-.06,1.81-.16,2.74-.2v0" fill="#f6a299"/><path d="M67.52,210.4a1.17,1.17,0,0,0-.87-.33v2.13c1.09-.12,2.2-.19,3.29-.28.88-.07,2.14.14,2.7-.67.79-1.13-1.06-2.19-1.84-1.08v0l.92-.53c-1.68.09-3.39.22-5.06.41a1.07,1.07,0,0,0,0,2.13h.1l-.76-.31,0,0c.88,1.05,2.39-.47,1.51-1.51Z" fill="#f6a299"/><path d="M68.1,207.28c.12,0,.23-.14.32-.2s.32-.2.48-.3.39-.36.6-.38v-.05" fill="#f6a299"/><path d="M68.39,208.31a5.16,5.16,0,0,0,.88-.51,5,5,0,0,0,.47-.33c.06,0,.16-.07,0,0a1.07,1.07,0,0,0,.75-.75v-.05c.32-1.34-1.74-1.91-2.06-.57v.06l.74-.75a2.8,2.8,0,0,0-.88.52c.17-.12-.34.2-.29.17-.11.07-.64.35-.22.19a1.11,1.11,0,0,0-.75,1.32,1.08,1.08,0,0,0,1.32.74Z" fill="#f6a299"/><path d="M70.38,210.76c1.13,0,2.72.93,3.08-.56.28-1.18.53-2.39.75-3.58.1-.55.48-1.48,0-2a5.34,5.34,0,0,0-2.52-.75c-.41-.06-1.19-.24-1.56,0-.18.11-.15.22-.23.37a10.82,10.82,0,0,0-.56,2,19.75,19.75,0,0,0-.65,2.86c-.06.5.73.5.79,0A33.52,33.52,0,0,1,70.56,205c.14-.56.06-.44.62-.33s2.08.14,2.42.7c.23.39-.27,1.63-.36,2.1-.13.68-.32,1.36-.45,2-.2,1-.18.71-1.17.58a10.38,10.38,0,0,0-1.24-.11.4.4,0,0,0,0,.79Z" fill="#f6a299"/><path d="M69.87,210.19l0,.06.38-.29c-.14,0-.13,0-.3-.1s-.2,0-.3-.07-.17-.27-.49-.34a.39.39,0,0,0-.2.76h0l-.28-.27a1,1,0,0,0,.71.6l.15.06c.31.06-.06-.07.06,0s.32.19.6.16a.4.4,0,0,0,.38-.29l0-.06c.1-.49-.66-.7-.76-.21Z" fill="#fba919"/><path d="M122,185a2,2,0,0,1,.19-.69c.11-.37.15-.74.28-1.11a20.86,20.86,0,0,1,.87-2.4,1.51,1.51,0,0,1,1.81-.74,4,4,0,0,1,.9.69,2.38,2.38,0,0,1,.71.87,8.26,8.26,0,0,1,.31,1.21c.12.58.13,1.19.24,1.78.2,1.12.51,2.22.81,3.32.16.57.38,1.12.53,1.69.18.73.36,1.46.56,2.19s.33,1.37.46,2.06a15,15,0,0,1,.32,2.91,11.31,11.31,0,0,1-.13,2.33,13.62,13.62,0,0,1-.76,2.14,5.32,5.32,0,0,1-2.57,2.66,3.23,3.23,0,0,1-1.61.4,13.11,13.11,0,0,1-1.66,0,2.17,2.17,0,0,1-1-.49,5.08,5.08,0,0,1-.61-.42,5.19,5.19,0,0,1-.44-.58,5.34,5.34,0,0,1-1.07-2.3,11.32,11.32,0,0,1-.3-1.18c0-.37,0-.77,0-1.14,0-.7,0-1.4,0-2.1a6.48,6.48,0,0,1,.19-1.07,5,5,0,0,1,.13-.77c.06-.18.15-.35.2-.54.19-.78.19-1.57.4-2.33.12-.42.34-.82.43-1.25s.16-.82.24-1.23,0-.61,0-.91.06-.45.11-.66.17-.37.19-.57.06-.67.11-1c0-.16.06-.35.09-.51a.59.59,0,0,1,.32-.45" fill="#f6a299"/><path d="M122.39,185.15c.37-1.41,1.07-4.86,3.39-4.08.82.28,1.92,6.73,2.23,7.85,1.14,4.06,4.24,14.22-3.08,15-5.48.61-4.83-6.73-4.23-10.1.37-2.1.56-7,1.86-8.82.3-.41-.39-.81-.68-.4-1.25,1.76-1.2,5.24-1.64,7.26-.54,2.44-1.18,5-.82,7.58.68,4.84,5.93,7.46,9.34,3.17,1.62-2,1.8-4.83,1.54-7.29a59.62,59.62,0,0,0-2.83-12.54c-.5-1.41-1.37-3.71-3.36-3.07-1.83.58-2.08,3.69-2.48,5.19a.39.39,0,0,0,.76.21Z" fill="#f6a299"/><path d="M125.06,204.45c.2.15.12.78.11,1,0,.48-.19,1-.22,1.45s-.15,1-.21,1.58c0,.23-.09.45-.11.68s.08.42-.07.57a.19.19,0,0,1,0-.18" fill="#f6a299"/><path d="M124.14,205c.19.29-.21,1.55-.25,1.91a14.37,14.37,0,0,1-.36,2.55l2.09.28,0-.18c-.18-1.34-2.32-1.36-2.13,0l0,.18a1.07,1.07,0,0,0,2.1.28,24.28,24.28,0,0,0,.5-3.55,3.6,3.6,0,0,0-.11-2.55c-.75-1.14-2.6-.07-1.84,1.08Z" fill="#f6a299"/><path d="M131.36,207.75c0-.27-.41-.46-.61-.62s-.45-.5-.7-.72a6.84,6.84,0,0,1-1-1c-.23-.31-.51-.59-.76-.9a5,5,0,0,0-.83-.9" fill="#f6a299"/><path d="M132.39,207.47a2.22,2.22,0,0,0-.81-1.05c-.38-.32-.71-.7-1.08-1-.84-.75-1.41-1.77-2.27-2.49-1-.89-2.56.62-1.51,1.51.75.63,1.27,1.5,2,2.2.31.32.66.59,1,.91a3.52,3.52,0,0,0,.56.53c.17.1.25.33.12,0,.48,1.27,2.55.72,2.06-.57Z" fill="#f6a299"/><path d="M123.61,188.36c-.45,2.79-2.21,5.25-2.46,8.06h2.14v-.07a1.07,1.07,0,0,0-2.14,0v.07a1.07,1.07,0,0,0,2.14,0c.23-2.57,2-4.92,2.38-7.49.21-1.35-1.84-1.92-2.06-.57Z" fill="#fcf6f0"/><path d="M127.42,189.88c.9,1.31,2.92,1.55,3.86,2.79a.54.54,0,0,0,.83.11c.8-.77,1.19-2,1.9-2.93l-.64.09a9,9,0,0,1,1.77,1.31c.34.64,0,.85-.23,1.39-.48,1.23-1.42,2.19-1.93,3.38l.73-.19c-.86-.5-1.63-1.14-2.47-1.66l.24.59c.4-1,1.36-1.69,1.48-2.91.06-.67-1-.67-1.06,0-.1,1.05-1.09,1.71-1.44,2.63a.55.55,0,0,0,.24.6c.85.52,1.62,1.16,2.47,1.66a.54.54,0,0,0,.73-.19,29.25,29.25,0,0,1,1.61-2.68,8,8,0,0,0,1.09-2c.27-1.27-1.83-2.35-2.7-2.87a.55.55,0,0,0-.64.09c-.69.86-1.13,2.18-1.9,2.92l.83.11a5,5,0,0,0-1.62-1.26,8.48,8.48,0,0,1-2.24-1.53c-.38-.56-1.3,0-.91.53Z" fill="#f6a299"/><path d="M125.16,172.24c.18,0,.24-.12.42-.08s.29.19.42.28a2.6,2.6,0,0,1,.85.8,5.25,5.25,0,0,1,.6,1.18,4,4,0,0,1,.24,1.22c0,.13,0,.27,0,.4a1.61,1.61,0,0,1-.19.5,3.78,3.78,0,0,1-.65,1c-.52.57-1.49.42-2.21.4a1.91,1.91,0,0,1-1.15-.61,2.55,2.55,0,0,1-.88-1,2.83,2.83,0,0,1-.07-1,3.28,3.28,0,0,1,.1-1.17,3,3,0,0,1,.42-1,3.59,3.59,0,0,1,.4-.38,2.2,2.2,0,0,1,.53-.32l.23-.19.29,0c.19-.07.23-.16.44-.18a3.13,3.13,0,0,1,.53,0" fill="#f6a299"/><path d="M125.27,172.62c1.06-.33,1.9,2,2,2.67a2.08,2.08,0,0,1-3,2.12c-2.34-1.18-1.29-5.07,1.27-5,.51,0,.51-.77,0-.79-4-.14-4.7,6.41-.56,6.71a2.69,2.69,0,0,0,2.2-.53,3,3,0,0,0,.93-2.6c-.17-1.25-1.35-3.86-3-3.36-.48.15-.28.91.21.76Z" fill="#f6a299"/></svg>